<?xml version="1.0" encoding="UTF-8"?>
<svg width="221pt" height="185.5pt" version="1.1" viewBox="0 0 221 185.5" xmlns="http://www.w3.org/2000/svg">
<defs>
<clipPath id="b">
<path d="m35 0h186v185.5h-186z"/>
</clipPath>
<clipPath id="a">
<path d="m32 0h189v185.5h-189z"/>
</clipPath>
</defs>
<g clip-path="url(#b)">
<path d="m220.8 92.73c0 51.08-41.41 92.48-92.48 92.48-51.07 0-92.48-41.41-92.48-92.48 0-51.07 41.41-92.48 92.48-92.48 51.08 0 92.48 41.41 92.48 92.48" fill="#fef0ca"/>
</g>
<g clip-path="url(#a)">
<path transform="matrix(.1 0 0 -.1 0 185.5)" d="m2208 927.4c0-510.8-414.1-924.8-924.8-924.8-510.7 0-924.8 414.1-924.8 924.8 0 510.7 414.1 924.8 924.8 924.8 510.8 0 924.8-414.1 924.8-924.8z" fill="none" stroke="#231f1f" stroke-width="5"/>
</g>
<path transform="matrix(.1 0 0 -.1 0 185.5)" d="m1283 1636v-109.1" fill="none" stroke="#231f1f" stroke-width="5"/>
<path transform="matrix(.1 0 0 -.1 0 185.5)" d="m1978 436.7h-226.4" fill="none" stroke="#231f1f" stroke-linecap="square" stroke-width="5"/>
<path transform="matrix(.1 0 0 -.1 0 185.5)" d="m1978 437.2v980h-367.5" fill="none" stroke="#231f1f" stroke-width="5"/>
<path d="m107.5 10.18h0.7383c0.6758 0 1.152-0.2266 1.152-0.8125 0-0.5977-0.4883-0.793-1.141-0.793h-0.75zm-0.6914-2.195h1.512c1.07 0 1.77 0.4141 1.77 1.383 0 0.9922-0.7734 1.398-1.805 1.398h-0.7852v2.18h-0.6914v-4.961" fill="#231f1f"/>
<path d="m112.4 11.36c-0.6523 0-1.477 0.07031-1.477 0.6289 0 0.3945 0.3516 0.5195 0.6797 0.5195 0.6172 0 0.9609-0.4141 0.9609-0.9766v-0.1719zm0.1641-0.5703c0-0.4883-0.332-0.7266-0.8203-0.7266-0.375 0-0.7227 0.1602-0.9453 0.3867l-0.3516-0.4219c0.3242-0.3086 0.8203-0.4961 1.359-0.4961 0.9531 0 1.387 0.5664 1.387 1.301v1.449c0 0.2266 0.01172 0.5 0.04688 0.6602h-0.5938c-0.03516-0.1484-0.05469-0.3242-0.05469-0.4766h-0.02344c-0.2383 0.3555-0.6172 0.5586-1.113 0.5586-0.5234 0-1.203-0.2578-1.203-1.02 0-1.004 1.191-1.121 2.312-1.121v-0.09375" fill="#231f1f"/>
<path d="m115.9 10.16h-0.8828v1.73c0 0.3984 0.1406 0.5586 0.4688 0.5586 0.1211 0 0.2734-0.02734 0.3867-0.08203l0.01953 0.5391c-0.1523 0.05469-0.3555 0.08984-0.5586 0.08984-0.625 0-0.9688-0.3477-0.9688-1.035v-1.801h-0.6367v-0.5391h0.6367v-0.9531h0.6523v0.9531h0.8828v0.5391" fill="#231f1f"/>
<path d="m117.2 12.94h-0.6602v-3.32h0.6602zm-0.332-4.098c-0.2383 0-0.4297-0.1875-0.4297-0.418 0-0.2383 0.1914-0.4297 0.4297-0.4297 0.2422 0 0.4453 0.1836 0.4453 0.4297 0 0.2344-0.2031 0.418-0.4453 0.418" fill="#231f1f"/>
<path d="m120.8 10.99c-0.01563-0.5273-0.3242-0.9375-0.9336-0.9375-0.5664 0-1 0.418-1.043 0.9375zm0.6562 0.4883h-2.633c0.02344 0.5703 0.4961 1.008 1.078 1.008 0.4492 0 0.7773-0.2227 0.9648-0.5039l0.4648 0.3711c-0.3555 0.4648-0.8398 0.6797-1.43 0.6797-1.008 0-1.75-0.6992-1.75-1.742 0-1.035 0.7422-1.758 1.715-1.758 0.9805 0 1.598 0.6641 1.598 1.723 0 0.07031 0 0.1445-0.007812 0.2227" fill="#231f1f"/>
<path d="m123 9.621c0.01172 0.168 0.02734 0.4062 0.02734 0.5469h0.01953c0.1641-0.3594 0.6055-0.6367 1.078-0.6367 0.8555 0 1.242 0.6094 1.242 1.352v2.059h-0.6602v-1.844c0-0.5391-0.1445-1.012-0.7539-1.012-0.5195 0-0.8906 0.4336-0.8906 1.09v1.766h-0.6562v-2.605c0-0.1758-0.007813-0.4961-0.03125-0.7148h0.625" fill="#231f1f"/>
<path d="m128.1 10.16h-0.8828v1.73c0 0.3984 0.1406 0.5586 0.4727 0.5586 0.1172 0 0.2695-0.02734 0.3828-0.08203l0.01953 0.5391c-0.1523 0.05469-0.3555 0.08984-0.5586 0.08984-0.6211 0-0.9648-0.3477-0.9648-1.035v-1.801h-0.6406v-0.5391h0.6406v-0.9531h0.6484v0.9531h0.8828v0.5391" fill="#231f1f"/>
<path d="m129.2 9.734h-0.5547l0.4844-1.754h0.6484l-0.5781 1.754" fill="#231f1f"/>
<path d="m132.1 10.46c-0.1484-0.2383-0.4336-0.4102-0.7695-0.4102-0.3047 0-0.6172 0.1172-0.6172 0.4297 0 0.2812 0.25 0.3867 0.7539 0.5 0.6328 0.1406 1.117 0.3984 1.117 0.9805 0 0.7852-0.6523 1.07-1.324 1.07-0.5039 0-1.023-0.1953-1.34-0.5938l0.4688-0.3984c0.1758 0.2578 0.5117 0.4609 0.8828 0.4609 0.3281 0 0.6602-0.1172 0.6602-0.4844 0-0.3047-0.3008-0.418-0.8711-0.5508-0.4375-0.1055-0.9648-0.2969-0.9648-0.918 0-0.7148 0.625-1.016 1.254-1.016 0.4688 0 0.9648 0.1875 1.203 0.543l-0.4531 0.3867" fill="#231f1f"/>
<path d="m137 10.46c-0.1484-0.2383-0.4336-0.4102-0.7695-0.4102-0.3008 0-0.6172 0.1172-0.6172 0.4297 0 0.2812 0.2539 0.3867 0.7578 0.5 0.6289 0.1406 1.113 0.3984 1.113 0.9805 0 0.7852-0.6523 1.07-1.324 1.07-0.5039 0-1.023-0.1953-1.34-0.5938l0.4727-0.3984c0.1758 0.2578 0.5117 0.4609 0.8828 0.4609 0.3281 0 0.6562-0.1172 0.6562-0.4844 0-0.3047-0.3008-0.418-0.8672-0.5508-0.4414-0.1055-0.9648-0.2969-0.9648-0.918 0-0.7148 0.6211-1.016 1.254-1.016 0.4688 0 0.9648 0.1875 1.203 0.543l-0.457 0.3867" fill="#231f1f"/>
<path d="m139.9 10.16h-0.8828v1.73c0 0.3984 0.1406 0.5586 0.4688 0.5586 0.1211 0 0.2734-0.02734 0.3867-0.08203l0.01953 0.5391c-0.1523 0.05469-0.3555 0.08984-0.5586 0.08984-0.625 0-0.9688-0.3477-0.9688-1.035v-1.801h-0.6367v-0.5391h0.6367v-0.9531h0.6523v0.9531h0.8828v0.5391" fill="#231f1f"/>
<path d="m142.2 10.07c-0.707 0-1.105 0.5703-1.105 1.199 0 0.6289 0.3984 1.207 1.105 1.207 0.7148 0 1.109-0.5781 1.109-1.207 0-0.6289-0.3945-1.199-1.109-1.199zm0 2.957c-1.016 0-1.785-0.7344-1.785-1.758 0-1.02 0.7695-1.742 1.785-1.742s1.793 0.7227 1.793 1.742c0 1.023-0.7773 1.758-1.793 1.758" fill="#231f1f"/>
<path d="m144.8 9.621h0.625c0.01562 0.168 0.02734 0.418 0.02734 0.5625h0.01953c0.1836-0.3867 0.5703-0.6523 1.02-0.6523 0.08984 0 0.1797 0.003906 0.2578 0.02734l-0.03125 0.6094c-0.08203-0.01953-0.1914-0.03516-0.3008-0.03516-0.6289 0-0.9297 0.5117-0.9297 1.062v1.746h-0.6562v-2.605c0-0.1758-0.007813-0.4961-0.03125-0.7148" fill="#231f1f"/>
<path d="m148.6 12.23h0.01172l0.918-2.605h0.7031l-1.613 4.105c-0.2148 0.5508-0.4961 0.8945-1.148 0.8945-0.1367 0-0.2852-0.01172-0.4336-0.04688l0.0625-0.582c0.1055 0.03516 0.2266 0.05469 0.332 0.05469 0.3398 0 0.4727-0.1953 0.6133-0.5547l0.2109-0.5508-1.422-3.32h0.7344l1.031 2.605" fill="#231f1f"/>
<path d="m103.6 45.05h0.8672c1.195 0 2.074-0.6875 2.074-1.871 0-1.227-0.8789-1.879-2.074-1.879h-0.8672zm-0.6953-4.352h1.703c1.266 0 2.676 0.7188 2.676 2.48 0 1.695-1.41 2.477-2.676 2.477h-1.703v-4.957" fill="#231f1f"/>
<path d="m110.1 44.07c-0.6523 0-1.48 0.07031-1.48 0.6289 0 0.3945 0.3516 0.5195 0.6797 0.5195 0.6172 0 0.9609-0.4141 0.9609-0.9727v-0.1758zm0.1602-0.5664c0-0.4922-0.3281-0.7305-0.8203-0.7305-0.3711 0-0.7227 0.1641-0.9453 0.3867l-0.3516-0.4219c0.3242-0.3047 0.8203-0.4961 1.359-0.4961 0.9531 0 1.387 0.5664 1.387 1.305v1.449c0 0.2227 0.01562 0.4961 0.05078 0.6562h-0.5977c-0.03516-0.1445-0.05469-0.3203-0.05469-0.4727h-0.01953c-0.2383 0.3555-0.6172 0.5586-1.117 0.5586-0.5234 0-1.203-0.2578-1.203-1.023 0-1 1.191-1.121 2.312-1.121v-0.08984" fill="#231f1f"/>
<path d="m113.6 42.88h-0.8828v1.727c0 0.4023 0.1406 0.5625 0.4688 0.5625 0.1211 0 0.2734-0.02734 0.3867-0.08594l0.01953 0.5391c-0.1523 0.05859-0.3555 0.09375-0.5586 0.09375-0.625 0-0.9688-0.3516-0.9688-1.035v-1.801h-0.6367v-0.5391h0.6367v-0.9531h0.6523v0.9531h0.8828v0.5391" fill="#231f1f"/>
<path d="m116.2 44.07c-0.6484 0-1.477 0.07031-1.477 0.6289 0 0.3945 0.3516 0.5195 0.6797 0.5195 0.6172 0 0.9609-0.4141 0.9609-0.9727v-0.1758zm0.1641-0.5664c0-0.4922-0.332-0.7305-0.8203-0.7305-0.3711 0-0.7227 0.1641-0.9453 0.3867l-0.3516-0.4219c0.3242-0.3047 0.8203-0.4961 1.359-0.4961 0.9531 0 1.387 0.5664 1.387 1.305v1.449c0 0.2227 0.01172 0.4961 0.04688 0.6562h-0.5938c-0.03516-0.1445-0.05469-0.3203-0.05469-0.4727h-0.02344c-0.2383 0.3555-0.6133 0.5586-1.113 0.5586-0.5234 0-1.203-0.2578-1.203-1.023 0-1 1.191-1.121 2.312-1.121v-0.08984" fill="#231f1f"/>
<path d="m121.7 44.07c-0.6523 0-1.48 0.07031-1.48 0.6289 0 0.3945 0.3516 0.5195 0.6797 0.5195 0.6172 0 0.9609-0.4141 0.9609-0.9727v-0.1758zm0.1602-0.5664c0-0.4922-0.3281-0.7305-0.8203-0.7305-0.3711 0-0.7227 0.1641-0.9453 0.3867l-0.3516-0.4219c0.3242-0.3047 0.8203-0.4961 1.359-0.4961 0.9531 0 1.387 0.5664 1.387 1.305v1.449c0 0.2227 0.01563 0.4961 0.05078 0.6562h-0.5977c-0.03516-0.1445-0.05469-0.3203-0.05469-0.4727h-0.01953c-0.2383 0.3555-0.6172 0.5586-1.117 0.5586-0.5234 0-1.203-0.2578-1.203-1.023 0-1 1.191-1.121 2.312-1.121v-0.08984" fill="#231f1f"/>
<path d="m125.9 43.18c-0.1367-0.2188-0.4453-0.3789-0.7617-0.3789-0.6875 0-1.086 0.5586-1.086 1.195 0 0.6328 0.3984 1.199 1.094 1.199 0.3359 0 0.6211-0.1406 0.7969-0.3633l0.4414 0.3984c-0.2812 0.3242-0.707 0.5195-1.238 0.5195-1.023 0-1.785-0.6953-1.785-1.754 0-1.043 0.7539-1.75 1.77-1.75 0.4688 0 0.9727 0.1914 1.246 0.5469l-0.4766 0.3867" fill="#231f1f"/>
<path d="m128.6 45.19c0.6719 0 1.121-0.5586 1.121-1.199 0-0.6367-0.4492-1.203-1.121-1.203-0.7188 0-1.098 0.5742-1.098 1.199 0 0.6211 0.3789 1.203 1.098 1.203zm1.066-0.03516c-0.2461 0.3711-0.707 0.5898-1.18 0.5898-1.02 0-1.672-0.7852-1.672-1.758 0-0.9805 0.6719-1.746 1.668-1.746 0.5391 0 0.9727 0.2617 1.195 0.6094h0.02344v-0.5156h0.6367v5h-0.6602v-2.18h-0.01172" fill="#231f1f"/>
<path d="m133.8 45.65c-0.01563-0.168-0.02734-0.4062-0.02734-0.5469h-0.01562c-0.168 0.3516-0.6016 0.6406-1.086 0.6406-0.8555 0-1.238-0.6094-1.238-1.352v-2.059h0.6562v1.832c0 0.5469 0.1484 1.023 0.7578 1.023 0.5234 0 0.8906-0.4336 0.8906-1.094v-1.762h0.6562v2.605c0 0.1719 0.007812 0.4961 0.02734 0.7109h-0.6211" fill="#231f1f"/>
<path d="m136.2 45.65h-0.6602v-3.316h0.6602zm-0.3281-4.094c-0.2383 0-0.4336-0.1914-0.4336-0.4219 0-0.2383 0.1953-0.4258 0.4336-0.4258s0.4414 0.1797 0.4414 0.4258c0 0.2383-0.2031 0.4219-0.4414 0.4219" fill="#231f1f"/>
<path d="m139.2 43.18c-0.1484-0.2383-0.4336-0.4141-0.7695-0.4141-0.3008 0-0.6172 0.1211-0.6172 0.4336 0 0.2812 0.25 0.3867 0.7539 0.4961 0.6328 0.1406 1.117 0.4023 1.117 0.9844 0 0.7812-0.6523 1.07-1.324 1.07-0.5039 0-1.023-0.1953-1.34-0.5977l0.4688-0.3984c0.1758 0.2578 0.5117 0.4648 0.8828 0.4648 0.332 0 0.6602-0.1211 0.6602-0.4844 0-0.3086-0.3008-0.4219-0.8711-0.5547-0.4375-0.1055-0.9648-0.293-0.9648-0.918 0-0.7148 0.625-1.016 1.254-1.016 0.4688 0 0.9648 0.1914 1.203 0.5469l-0.4531 0.3867" fill="#231f1f"/>
<path d="m141.2 45.65h-0.6602v-3.316h0.6602zm-0.332-4.094c-0.2383 0-0.4336-0.1914-0.4336-0.4219 0-0.2383 0.1953-0.4258 0.4336-0.4258s0.4414 0.1797 0.4414 0.4258c0 0.2383-0.2031 0.4219-0.4414 0.4219" fill="#231f1f"/>
<path d="m143.9 42.88h-0.8828v1.727c0 0.4023 0.1406 0.5625 0.4688 0.5625 0.1172 0 0.2734-0.02734 0.3828-0.08594l0.02344 0.5391c-0.1562 0.05859-0.3594 0.09375-0.5625 0.09375-0.6211 0-0.9648-0.3516-0.9648-1.035v-1.801h-0.6367v-0.5391h0.6367v-0.9531h0.6523v0.9531h0.8828v0.5391" fill="#231f1f"/>
<path d="m145.3 45.65h-0.6562v-3.316h0.6562zm-0.3281-4.094c-0.2383 0-0.4336-0.1914-0.4336-0.4219 0-0.2383 0.1953-0.4258 0.4336-0.4258 0.2383 0 0.4414 0.1797 0.4414 0.4258 0 0.2383-0.2031 0.4219-0.4414 0.4219" fill="#231f1f"/>
<path d="m148 42.79c-0.707 0-1.109 0.5664-1.109 1.199 0 0.6289 0.4023 1.203 1.109 1.203 0.7148 0 1.105-0.5742 1.105-1.203 0-0.6328-0.3906-1.199-1.105-1.199zm0 2.957c-1.016 0-1.785-0.7383-1.785-1.758 0-1.023 0.7695-1.746 1.785-1.746s1.793 0.7227 1.793 1.746c0 1.02-0.7773 1.758-1.793 1.758" fill="#231f1f"/>
<path d="m151.3 42.34c0.01172 0.168 0.02734 0.4023 0.02734 0.5469h0.01953c0.1641-0.3594 0.6055-0.6406 1.078-0.6406 0.8555 0 1.242 0.6094 1.242 1.352v2.059h-0.6602v-1.84c0-0.5391-0.1445-1.016-0.7539-1.016-0.5195 0-0.8906 0.4336-0.8906 1.094v1.762h-0.6602v-2.602c0-0.1758-0.003906-0.5-0.02734-0.7148h0.625" fill="#231f1f"/>
<path d="m73.58 76.54h1.855l-0.9258-2.324zm-0.7422 1.828h-0.7695l2.148-4.957h0.6289l2.129 4.957h-0.7812l-0.5039-1.219h-2.355l-0.4961 1.219" fill="#231f1f"/>
<path d="m79.9 75.89c-0.1406-0.2148-0.4492-0.375-0.7617-0.375-0.6875 0-1.086 0.5586-1.086 1.195 0 0.6328 0.3984 1.199 1.09 1.199 0.3398 0 0.625-0.1406 0.8008-0.3672l0.4414 0.4023c-0.2812 0.3203-0.707 0.5195-1.242 0.5195-1.02 0-1.785-0.6953-1.785-1.754 0-1.043 0.7578-1.75 1.773-1.75 0.4688 0 0.9727 0.1875 1.246 0.5469l-0.4766 0.3828" fill="#231f1f"/>
<path d="m83.36 75.89c-0.1367-0.2148-0.4453-0.375-0.7617-0.375-0.6875 0-1.086 0.5586-1.086 1.195 0 0.6328 0.3984 1.199 1.094 1.199 0.3359 0 0.6211-0.1406 0.7969-0.3672l0.4414 0.4023c-0.2812 0.3203-0.707 0.5195-1.238 0.5195-1.023 0-1.785-0.6953-1.785-1.754 0-1.043 0.7539-1.75 1.77-1.75 0.4688 0 0.9727 0.1875 1.246 0.5469l-0.4766 0.3828" fill="#231f1f"/>
<path d="m86.83 78.37c-0.01172-0.168-0.02734-0.4062-0.02734-0.5469h-0.01563c-0.168 0.3516-0.6016 0.6406-1.082 0.6406-0.8555 0-1.242-0.6094-1.242-1.355v-2.059h0.6602v1.836c0 0.5469 0.1445 1.023 0.7539 1.023 0.5273 0 0.8906-0.4336 0.8906-1.094v-1.766h0.6602v2.605c0 0.1758 0.003906 0.4961 0.02734 0.7148h-0.625" fill="#231f1f"/>
<path d="m88.54 75.05h0.625c0.01172 0.168 0.02734 0.4219 0.02734 0.5625h0.01953c0.1836-0.3867 0.5703-0.6523 1.016-0.6523 0.09375 0 0.1836 0.007813 0.2617 0.02734l-0.03125 0.6094c-0.08203-0.01953-0.1953-0.03516-0.3008-0.03516-0.6289 0-0.9297 0.5117-0.9297 1.066v1.742h-0.6602v-2.605c0-0.1719-0.003906-0.4961-0.02734-0.7148" fill="#231f1f"/>
<path d="m92.92 76.79c-0.6523 0-1.48 0.07031-1.48 0.6289 0 0.3945 0.3516 0.5195 0.6797 0.5195 0.6172 0 0.9609-0.4141 0.9609-0.9727v-0.1758zm0.1602-0.5664c0-0.4922-0.3281-0.7305-0.8203-0.7305-0.3711 0-0.7227 0.1602-0.9453 0.3867l-0.3516-0.4219c0.3242-0.3086 0.8203-0.4961 1.359-0.4961 0.9531 0 1.387 0.5664 1.387 1.305v1.449c0 0.2227 0.01562 0.4961 0.05078 0.6562h-0.5977c-0.03516-0.1445-0.05469-0.3203-0.05469-0.4766h-0.01953c-0.2383 0.3594-0.6172 0.5625-1.117 0.5625-0.5234 0-1.203-0.2617-1.203-1.023 0-1 1.191-1.121 2.312-1.121v-0.08984" fill="#231f1f"/>
<path d="m96.36 75.59h-0.8828v1.727c0 0.3984 0.1406 0.5625 0.4688 0.5625 0.1211 0 0.2734-0.02734 0.3867-0.08594l0.01953 0.5391c-0.1523 0.05859-0.3555 0.09375-0.5586 0.09375-0.625 0-0.9688-0.3516-0.9688-1.039v-1.797h-0.6367v-0.543h0.6367v-0.9531h0.6523v0.9531h0.8828v0.543" fill="#231f1f"/>
<path d="m99.47 76.41c-0.01562-0.5273-0.3242-0.9375-0.9336-0.9375-0.5664 0-1 0.418-1.043 0.9375zm0.6562 0.4883h-2.633c0.02344 0.5703 0.4961 1.012 1.078 1.012 0.4492 0 0.7773-0.2266 0.9688-0.5078l0.4609 0.3711c-0.3555 0.4648-0.8398 0.6836-1.43 0.6836-1.008 0-1.75-0.7031-1.75-1.746 0-1.035 0.7422-1.758 1.715-1.758 0.9805 0 1.598 0.6641 1.598 1.723 0 0.07031 0 0.1484-0.007812 0.2227" fill="#231f1f"/>
<path d="m104.4 73.41h0.5547l-0.4766 1.75h-0.6602zm-1.262 0h0.5547l-0.4766 1.75h-0.6562l0.5781-1.75" fill="#231f1f"/>
<path d="m107.5 75.5c-0.6758 0-1.121 0.5664-1.121 1.203s0.4453 1.199 1.121 1.199c0.7188 0 1.105-0.582 1.105-1.207 0-0.6211-0.3867-1.195-1.105-1.195zm-1.082 4.547h-0.6562v-5.004h0.6445v0.5195h0.01953c0.2188-0.3516 0.6523-0.6094 1.199-0.6094 0.9883 0 1.66 0.7617 1.66 1.742 0 0.9766-0.6523 1.762-1.676 1.762-0.4688 0-0.9219-0.2188-1.168-0.5898h-0.02344v2.18" fill="#231f1f"/>
<path d="m110.2 75.05h0.6211c0.01562 0.168 0.02734 0.4219 0.02734 0.5625h0.02344c0.1797-0.3867 0.5664-0.6523 1.016-0.6523 0.08984 0 0.1797 0.007813 0.2578 0.02734l-0.02734 0.6094c-0.08594-0.01953-0.1953-0.03516-0.3008-0.03516-0.6328 0-0.9336 0.5117-0.9336 1.066v1.742h-0.6562v-2.605c0-0.1719-0.007812-0.4961-0.02734-0.7148" fill="#231f1f"/>
<path d="m114.2 75.5c-0.707 0-1.105 0.5664-1.105 1.195 0 0.6328 0.3984 1.207 1.105 1.207 0.7148 0 1.105-0.5742 1.105-1.207 0-0.6289-0.3906-1.195-1.105-1.195zm0 2.957c-1.016 0-1.785-0.7383-1.785-1.762 0-1.02 0.7695-1.742 1.785-1.742 1.016 0 1.793 0.7227 1.793 1.742 0 1.023-0.7773 1.762-1.793 1.762" fill="#231f1f"/>
<path d="m118.6 75.5c-0.6719 0-1.121 0.5664-1.121 1.203s0.4492 1.199 1.121 1.199c0.7227 0 1.105-0.582 1.105-1.207 0-0.6211-0.3828-1.195-1.105-1.195zm-1.102 2.34v0.5234h-0.6367v-5.293h0.6602v2.473h0.01953c0.2227-0.3242 0.6367-0.5898 1.184-0.5898 0.9883 0 1.66 0.7617 1.66 1.742 0 0.9766-0.6523 1.762-1.672 1.762-0.4727 0-0.9414-0.2188-1.199-0.6172h-0.01562" fill="#231f1f"/>
<path d="m122 78.37h-0.6562v-5.293h0.6562v5.293" fill="#231f1f"/>
<path d="m125.6 76.41c-0.01172-0.5273-0.3203-0.9375-0.9297-0.9375-0.5664 0-1.004 0.418-1.043 0.9375zm0.6602 0.4883h-2.633c0.01953 0.5703 0.4961 1.012 1.078 1.012 0.4492 0 0.7773-0.2266 0.9648-0.5078l0.4648 0.3711c-0.3594 0.4648-0.8438 0.6836-1.43 0.6836-1.008 0-1.75-0.7031-1.75-1.746 0-1.035 0.7422-1.758 1.715-1.758 0.9805 0 1.598 0.6641 1.598 1.723 0 0.07031 0 0.1484-0.007813 0.2227" fill="#231f1f"/>
<path d="m128.9 74.96c0.4414 0 0.8242 0.1953 1.027 0.6641 0.2227-0.4258 0.6602-0.6641 1.129-0.6641 0.8555 0 1.238 0.6094 1.238 1.352v2.059h-0.6562v-1.84c0-0.543-0.1641-1.016-0.7383-1.016-0.6016 0-0.8398 0.5469-0.8398 1.062v1.793h-0.6562v-1.973c0-0.5195-0.1758-0.8828-0.7031-0.8828-0.4805 0-0.8477 0.4336-0.8477 1.09v1.766h-0.6562v-2.605c0-0.1719-0.007813-0.4961-0.02734-0.7148h0.6211c0.01562 0.168 0.02734 0.4062 0.02734 0.5469h0.02344c0.168-0.3516 0.5508-0.6367 1.059-0.6367" fill="#231f1f"/>
<path d="m135.1 75.05h0.625c0.01172 0.168 0.02734 0.4219 0.02734 0.5625h0.01953c0.1836-0.3867 0.5703-0.6523 1.016-0.6523 0.09375 0 0.1836 0.007813 0.2617 0.02734l-0.03125 0.6094c-0.08203-0.01953-0.1953-0.03516-0.3008-0.03516-0.6289 0-0.9297 0.5117-0.9297 1.066v1.742h-0.6602v-2.605c0-0.1719-0.003907-0.4961-0.02734-0.7148" fill="#231f1f"/>
<path d="m140 76.41c-0.01562-0.5273-0.3203-0.9375-0.9297-0.9375-0.5703 0-1.004 0.418-1.047 0.9375zm0.6602 0.4883h-2.637c0.02344 0.5703 0.5 1.012 1.082 1.012 0.4453 0 0.7773-0.2266 0.9648-0.5078l0.4609 0.3711c-0.3555 0.4648-0.8398 0.6836-1.426 0.6836-1.012 0-1.754-0.7031-1.754-1.746 0-1.035 0.7422-1.758 1.719-1.758 0.9805 0 1.594 0.6641 1.594 1.723 0 0.07031 0 0.1484-0.003906 0.2227" fill="#231f1f"/>
<path d="m143.3 75.5c-0.6719 0-1.121 0.5664-1.121 1.203s0.4492 1.199 1.121 1.199c0.7227 0 1.109-0.582 1.109-1.207 0-0.6211-0.3867-1.195-1.109-1.195zm-1.078 4.547h-0.6562v-5.004h0.6445v0.5195h0.01953c0.2188-0.3516 0.6523-0.6094 1.199-0.6094 0.9844 0 1.656 0.7617 1.656 1.742 0 0.9766-0.6484 1.762-1.672 1.762-0.4688 0-0.9258-0.2188-1.168-0.5898h-0.02344v2.18" fill="#231f1f"/>
<path d="m146 75.05h0.6211c0.01562 0.168 0.02734 0.4219 0.02734 0.5625h0.02344c0.1797-0.3867 0.5664-0.6523 1.016-0.6523 0.08984 0 0.1797 0.007813 0.2578 0.02734l-0.02734 0.6094c-0.08594-0.01953-0.1953-0.03516-0.3008-0.03516-0.6328 0-0.9336 0.5117-0.9336 1.066v1.742h-0.6562v-2.605c0-0.1719-0.007813-0.4961-0.02734-0.7148" fill="#231f1f"/>
<path d="m150.8 76.41c-0.01563-0.5273-0.3242-0.9375-0.9336-0.9375-0.5664 0-1 0.418-1.043 0.9375zm0.6562 0.4883h-2.633c0.01953 0.5703 0.4961 1.012 1.078 1.012 0.4492 0 0.7773-0.2266 0.9648-0.5078l0.4648 0.3711c-0.3594 0.4648-0.8398 0.6836-1.43 0.6836-1.008 0-1.75-0.7031-1.75-1.746 0-1.035 0.7422-1.758 1.715-1.758 0.9805 0 1.598 0.6641 1.598 1.723 0 0.07031 0 0.1484-0.007812 0.2227" fill="#231f1f"/>
<path d="m154.2 75.89c-0.1484-0.2383-0.4336-0.4102-0.7695-0.4102-0.3008 0-0.6172 0.1172-0.6172 0.4336 0 0.2812 0.2539 0.3867 0.7578 0.4961 0.6289 0.1406 1.113 0.3984 1.113 0.9805 0 0.7852-0.6523 1.074-1.324 1.074-0.5039 0-1.023-0.1992-1.34-0.5977l0.4727-0.3984c0.1719 0.2578 0.5117 0.4609 0.8828 0.4609 0.3281 0 0.6562-0.1172 0.6562-0.4844 0-0.3047-0.3008-0.418-0.8672-0.5508-0.4414-0.1055-0.9688-0.293-0.9688-0.918 0-0.7148 0.625-1.016 1.254-1.016 0.4688 0 0.9688 0.1875 1.207 0.5469l-0.457 0.3828" fill="#231f1f"/>
<path d="m158 76.41c-0.01562-0.5273-0.3242-0.9375-0.9336-0.9375-0.5664 0-1 0.418-1.043 0.9375zm0.6562 0.4883h-2.633c0.02344 0.5703 0.4961 1.012 1.078 1.012 0.4492 0 0.7773-0.2266 0.9688-0.5078l0.4609 0.3711c-0.3555 0.4648-0.8398 0.6836-1.43 0.6836-1.008 0-1.75-0.7031-1.75-1.746 0-1.035 0.7422-1.758 1.715-1.758 0.9805 0 1.598 0.6641 1.598 1.723 0 0.07031 0 0.1484-0.007813 0.2227" fill="#231f1f"/>
<path d="m160.1 75.05c0.01562 0.168 0.02734 0.4062 0.02734 0.5469h0.02344c0.1602-0.3555 0.6016-0.6367 1.078-0.6367 0.8516 0 1.238 0.6094 1.238 1.352v2.059h-0.6602v-1.84c0-0.543-0.1445-1.016-0.7539-1.016-0.5195 0-0.8906 0.4336-0.8906 1.09v1.766h-0.6562v-2.605c0-0.1719-0.007812-0.4961-0.03125-0.7148h0.625" fill="#231f1f"/>
<path d="m165.2 75.59h-0.8828v1.727c0 0.3984 0.1406 0.5625 0.4727 0.5625 0.1172 0 0.2695-0.02734 0.3828-0.08594l0.02344 0.5391c-0.1562 0.05859-0.3594 0.09375-0.5625 0.09375-0.6211 0-0.9648-0.3516-0.9648-1.039v-1.797h-0.6367v-0.543h0.6367v-0.9531h0.6484v0.9531h0.8828v0.543" fill="#231f1f"/>
<path d="m167.8 76.79c-0.6523 0-1.48 0.07031-1.48 0.6289 0 0.3945 0.3516 0.5195 0.6797 0.5195 0.6172 0 0.9609-0.4141 0.9609-0.9727v-0.1758zm0.1602-0.5664c0-0.4922-0.3281-0.7305-0.8203-0.7305-0.3711 0-0.7188 0.1602-0.9453 0.3867l-0.3477-0.4219c0.3203-0.3086 0.8164-0.4961 1.355-0.4961 0.9531 0 1.387 0.5664 1.387 1.305v1.449c0 0.2227 0.01562 0.4961 0.05078 0.6562h-0.5938c-0.03516-0.1445-0.05859-0.3203-0.05859-0.4766h-0.01953c-0.2383 0.3594-0.6172 0.5625-1.113 0.5625-0.5273 0-1.207-0.2617-1.207-1.023 0-1 1.191-1.121 2.312-1.121v-0.08984" fill="#231f1f"/>
<path d="m171.3 75.59h-0.8828v1.727c0 0.3984 0.1406 0.5625 0.4727 0.5625 0.1172 0 0.2695-0.02734 0.3828-0.08594l0.02344 0.5391c-0.1562 0.05859-0.3594 0.09375-0.5625 0.09375-0.6211 0-0.9648-0.3516-0.9648-1.039v-1.797h-0.6367v-0.543h0.6367v-0.9531h0.6484v0.9531h0.8828v0.543" fill="#231f1f"/>
<path d="m172.6 78.37h-0.6562v-3.32h0.6562zm-0.3281-4.098c-0.2383 0-0.4336-0.1875-0.4336-0.418 0-0.2383 0.1953-0.4297 0.4336-0.4297 0.2383 0 0.4414 0.1836 0.4414 0.4297 0 0.2383-0.2031 0.418-0.4414 0.418" fill="#231f1f"/>
<path d="m175.3 75.5c-0.707 0-1.109 0.5664-1.109 1.195 0 0.6328 0.4023 1.207 1.109 1.207 0.7148 0 1.105-0.5742 1.105-1.207 0-0.6289-0.3906-1.195-1.105-1.195zm0 2.957c-1.016 0-1.785-0.7383-1.785-1.762 0-1.02 0.7695-1.742 1.785-1.742 1.016 0 1.793 0.7227 1.793 1.742 0 1.023-0.7773 1.762-1.793 1.762" fill="#231f1f"/>
<path d="m178.6 75.05c0.01172 0.168 0.02734 0.4062 0.02734 0.5469h0.01953c0.1602-0.3555 0.6016-0.6367 1.078-0.6367 0.8555 0 1.242 0.6094 1.242 1.352v2.059h-0.6602v-1.84c0-0.543-0.1484-1.016-0.7578-1.016-0.5156 0-0.8867 0.4336-0.8867 1.09v1.766h-0.6602v-2.605c0-0.1719-0.007812-0.4961-0.02734-0.7148h0.625" fill="#231f1f"/>
<path d="m183.6 75.16h-0.5547l0.4844-1.75h0.6484zm-1.262 0h-0.5547l0.4844-1.75h0.6523l-0.582 1.75" fill="#231f1f"/>
<path d="m92.1 107.1c-0.293-0.3203-0.7773-0.5391-1.344-0.5391-1.164 0-1.891 0.9023-1.891 1.988 0 1.105 0.7266 1.992 1.91 1.992 0.4609 0 0.8672-0.09375 1.156-0.2461v-1.379h-1.102v-0.5898h1.789v2.402c-0.5195 0.2812-1.137 0.4336-1.863 0.4336-1.547 0-2.648-1.086-2.648-2.613 0-1.547 1.133-2.598 2.641-2.598 0.7852 0 1.43 0.2539 1.836 0.6445l-0.4844 0.5039" fill="#231f1f"/>
<path d="m96.2 109.1c-0.01562-0.5273-0.3203-0.9414-0.9297-0.9414-0.5703 0-1.004 0.4219-1.047 0.9414zm0.6602 0.4883h-2.637c0.02344 0.5664 0.5 1.008 1.082 1.008 0.4453 0 0.7773-0.2227 0.9648-0.5039l0.4609 0.3711c-0.3555 0.4648-0.8398 0.6797-1.426 0.6797-1.012 0-1.754-0.6992-1.754-1.742 0-1.039 0.7422-1.758 1.719-1.758 0.9805 0 1.594 0.6641 1.594 1.723 0 0.07031 0 0.1445-0.003906 0.2227" fill="#231f1f"/>
<path d="m98.38 107.8c0.01562 0.168 0.02734 0.4062 0.02734 0.5469h0.02344c0.1602-0.3594 0.6016-0.6367 1.078-0.6367 0.8516 0 1.238 0.6094 1.238 1.352v2.059h-0.6602v-1.844c0-0.5391-0.1445-1.016-0.7539-1.016-0.5195 0-0.8906 0.4336-0.8906 1.094v1.766h-0.6562v-2.605c0-0.1758-0.007812-0.4961-0.03125-0.7148h0.625" fill="#231f1f"/>
<path d="m104.3 109.1c-0.01562-0.5273-0.3242-0.9414-0.9336-0.9414-0.5664 0-1 0.4219-1.043 0.9414zm0.6562 0.4883h-2.633c0.02344 0.5664 0.4961 1.008 1.078 1.008 0.4492 0 0.7773-0.2227 0.9688-0.5039l0.4609 0.3711c-0.3555 0.4648-0.8398 0.6797-1.43 0.6797-1.008 0-1.75-0.6992-1.75-1.742 0-1.039 0.7422-1.758 1.715-1.758 0.9805 0 1.598 0.6641 1.598 1.723 0 0.07031 0 0.1445-0.007813 0.2227" fill="#231f1f"/>
<path d="m105.8 107.8h0.625c0.01172 0.168 0.02734 0.4219 0.02734 0.5586h0.01953c0.1836-0.3828 0.5703-0.6484 1.016-0.6484 0.09375 0 0.1836 0.003906 0.2617 0.02734l-0.03125 0.6094c-0.08203-0.01953-0.1953-0.03516-0.3008-0.03516-0.6289 0-0.9297 0.5117-0.9297 1.062v1.746h-0.6602v-2.605c0-0.1758-0.003906-0.4961-0.02734-0.7148" fill="#231f1f"/>
<path d="m110.2 109.5c-0.6523 0-1.48 0.06641-1.48 0.6289 0 0.3906 0.3516 0.5195 0.6797 0.5195 0.6172 0 0.9609-0.4141 0.9609-0.9766v-0.1719zm0.1602-0.5703c0-0.4883-0.3281-0.7266-0.8203-0.7266-0.3711 0-0.7227 0.1602-0.9453 0.3867l-0.3516-0.4219c0.3242-0.3086 0.8203-0.4961 1.359-0.4961 0.9531 0 1.387 0.5664 1.387 1.301v1.449c0 0.2266 0.01562 0.5 0.05078 0.6602h-0.5977c-0.03516-0.1484-0.05469-0.3242-0.05469-0.4766h-0.01953c-0.2383 0.3555-0.6172 0.5586-1.117 0.5586-0.5234 0-1.203-0.2578-1.203-1.02 0-1.004 1.191-1.121 2.312-1.121v-0.09375" fill="#231f1f"/>
<path d="m113.7 108.3h-0.8828v1.73c0 0.3984 0.1406 0.5586 0.4688 0.5586 0.1211 0 0.2734-0.02734 0.3867-0.08203l0.01953 0.5391c-0.1523 0.05469-0.3555 0.08984-0.5586 0.08984-0.625 0-0.9688-0.3477-0.9688-1.035v-1.801h-0.6367v-0.5391h0.6367v-0.9531h0.6523v0.9531h0.8828v0.5391" fill="#231f1f"/>
<path d="m115 111.1h-0.6602v-3.32h0.6602zm-0.3281-4.098c-0.2383 0-0.4336-0.1875-0.4336-0.4219 0-0.2383 0.1953-0.4258 0.4336-0.4258s0.4414 0.1797 0.4414 0.4258c0 0.2383-0.2031 0.4219-0.4414 0.4219" fill="#231f1f"/>
<path d="m117.7 108.2c-0.707 0-1.105 0.5703-1.105 1.199 0 0.6328 0.3984 1.203 1.105 1.203 0.7148 0 1.109-0.5703 1.109-1.203 0-0.6289-0.3945-1.199-1.109-1.199zm0 2.957c-1.016 0-1.785-0.7344-1.785-1.758 0-1.023 0.7695-1.742 1.785-1.742s1.793 0.7188 1.793 1.742c0 1.023-0.7773 1.758-1.793 1.758" fill="#231f1f"/>
<path d="m121 107.8c0.01562 0.168 0.02734 0.4062 0.02734 0.5469h0.02344c0.1602-0.3594 0.6016-0.6367 1.078-0.6367 0.8555 0 1.238 0.6094 1.238 1.352v2.059h-0.6562v-1.844c0-0.5391-0.1484-1.016-0.7578-1.016-0.5195 0-0.8906 0.4336-0.8906 1.094v1.766h-0.6562v-2.605c0-0.1758-0.007813-0.4961-0.02734-0.7148h0.6211" fill="#231f1f"/>
<path d="m127.8 108.2c-0.707 0-1.105 0.5703-1.105 1.199 0 0.6328 0.3984 1.203 1.105 1.203 0.7148 0 1.109-0.5703 1.109-1.203 0-0.6289-0.3945-1.199-1.109-1.199zm0 2.957c-1.016 0-1.785-0.7344-1.785-1.758 0-1.023 0.7695-1.742 1.785-1.742s1.793 0.7188 1.793 1.742c0 1.023-0.7773 1.758-1.793 1.758" fill="#231f1f"/>
<path d="m132.1 108.3h-0.7734v2.781h-0.6562v-2.781h-0.6602v-0.5391h0.6602v-0.6953c0-0.7734 0.3438-1.363 1.238-1.363 0.1562 0 0.2891 0.01172 0.4141 0.04688l-0.07812 0.5664c-0.09766-0.02344-0.2031-0.04688-0.3281-0.04688-0.4961 0-0.5898 0.3945-0.5898 0.7969v0.6953h0.7734v0.5391" fill="#231f1f"/>
<path d="m135.3 108.3c0.1562-0.3281 0.5742-0.5938 1.051-0.5938 0.8555 0 1.238 0.6094 1.238 1.352v2.059h-0.6562v-1.836c0-0.5391-0.1406-1.016-0.75-1.016-0.5195 0-0.8984 0.4336-0.8984 1.094v1.758h-0.6562v-5.297h0.6562v2.48h0.01562" fill="#231f1f"/>
<path d="m139.9 110.4h0.01172l0.918-2.605h0.6992l-1.609 4.105c-0.2188 0.5508-0.4961 0.8945-1.148 0.8945-0.1406 0-0.2891-0.01172-0.4336-0.04688l0.0625-0.582c0.1055 0.03516 0.2227 0.05469 0.3281 0.05469 0.3438 0 0.4766-0.1953 0.6172-0.5547l0.2109-0.5508-1.422-3.32h0.7344l1.031 2.605" fill="#231f1f"/>
<path d="m144 108.2c-0.6719 0-1.121 0.5703-1.121 1.207s0.4492 1.195 1.121 1.195c0.7188 0 1.105-0.5781 1.105-1.203 0-0.6211-0.3867-1.199-1.105-1.199zm-1.078 4.547h-0.6602v-5h0.6445v0.5195h0.01953c0.2188-0.3516 0.6523-0.6094 1.199-0.6094 0.9883 0 1.66 0.7617 1.66 1.742 0 0.9727-0.6523 1.758-1.676 1.758-0.4688 0-0.9219-0.2148-1.168-0.5859h-0.01953v2.176" fill="#231f1f"/>
<path d="m148.2 108.2c-0.707 0-1.109 0.5703-1.109 1.199 0 0.6328 0.4023 1.203 1.109 1.203 0.7148 0 1.105-0.5703 1.105-1.203 0-0.6289-0.3906-1.199-1.105-1.199zm0 2.957c-1.016 0-1.785-0.7344-1.785-1.758 0-1.023 0.7695-1.742 1.785-1.742s1.793 0.7188 1.793 1.742c0 1.023-0.7773 1.758-1.793 1.758" fill="#231f1f"/>
<path d="m152.5 108.3h-0.8828v1.73c0 0.3984 0.1406 0.5586 0.4727 0.5586 0.1172 0 0.2695-0.02734 0.3828-0.08203l0.02344 0.5391c-0.1562 0.05469-0.3594 0.08984-0.5625 0.08984-0.6211 0-0.9648-0.3477-0.9648-1.035v-1.801h-0.6367v-0.5391h0.6367v-0.9531h0.6484v0.9531h0.8828v0.5391" fill="#231f1f"/>
<path d="m153.9 108.3c0.1523-0.3281 0.5742-0.5938 1.051-0.5938 0.8516 0 1.238 0.6094 1.238 1.352v2.059h-0.6602v-1.836c0-0.5391-0.1406-1.016-0.75-1.016-0.5156 0-0.8945 0.4336-0.8945 1.094v1.758h-0.6602v-5.297h0.6602v2.48h0.01562" fill="#231f1f"/>
<path d="m159.7 109.1c-0.01562-0.5273-0.3242-0.9414-0.9336-0.9414-0.5664 0-1 0.4219-1.043 0.9414zm0.6562 0.4883h-2.633c0.01953 0.5664 0.4961 1.008 1.078 1.008 0.4492 0 0.7773-0.2227 0.9648-0.5039l0.4648 0.3711c-0.3594 0.4648-0.8398 0.6797-1.43 0.6797-1.008 0-1.75-0.6992-1.75-1.742 0-1.039 0.7422-1.758 1.715-1.758 0.9805 0 1.598 0.6641 1.598 1.723 0 0.07031 0 0.1445-0.007812 0.2227" fill="#231f1f"/>
<path d="m163.1 108.6c-0.1484-0.2383-0.4336-0.4141-0.7695-0.4141-0.3008 0-0.6172 0.1211-0.6172 0.4375 0 0.2773 0.2539 0.3828 0.7578 0.4961 0.6289 0.1406 1.113 0.3984 1.113 0.9805 0 0.7852-0.6523 1.07-1.324 1.07-0.5039 0-1.023-0.1953-1.34-0.5938l0.4727-0.3984c0.1719 0.2578 0.5117 0.4609 0.8828 0.4609 0.3281 0 0.6562-0.1211 0.6562-0.4844 0-0.3086-0.3008-0.4219-0.8672-0.5547-0.4414-0.1016-0.9688-0.293-0.9688-0.9141 0-0.7148 0.625-1.016 1.254-1.016 0.4688 0 0.9688 0.1875 1.207 0.543l-0.457 0.3867" fill="#231f1f"/>
<path d="m165.1 111.1h-0.6562v-3.32h0.6562zm-0.3281-4.098c-0.2383 0-0.4336-0.1875-0.4336-0.4219 0-0.2383 0.1953-0.4258 0.4336-0.4258s0.4414 0.1797 0.4414 0.4258c0 0.2383-0.2031 0.4219-0.4414 0.4219" fill="#231f1f"/>
<path d="m168 108.6c-0.1484-0.2383-0.4336-0.4141-0.7695-0.4141-0.3008 0-0.6172 0.1211-0.6172 0.4375 0 0.2773 0.25 0.3828 0.7539 0.4961 0.6328 0.1406 1.117 0.3984 1.117 0.9805 0 0.7852-0.6523 1.07-1.324 1.07-0.5039 0-1.023-0.1953-1.34-0.5938l0.4688-0.3984c0.1758 0.2578 0.5117 0.4609 0.8828 0.4609 0.332 0 0.6602-0.1211 0.6602-0.4844 0-0.3086-0.3008-0.4219-0.8711-0.5547-0.4375-0.1016-0.9648-0.293-0.9648-0.9141 0-0.7148 0.625-1.016 1.254-1.016 0.4688 0 0.9648 0.1875 1.203 0.543l-0.4531 0.3867" fill="#231f1f"/>
<path d="m91.91 139.8c-0.1953-0.2734-0.5508-0.4609-0.9648-0.4609-0.4492 0-0.9688 0.2422-0.9688 0.8047 0 0.5391 0.457 0.6836 1.016 0.8672 0.668 0.2109 1.461 0.4609 1.461 1.449 0 1.031-0.8359 1.508-1.719 1.508-0.625 0-1.254-0.2461-1.633-0.7227l0.543-0.457c0.2266 0.3438 0.6484 0.582 1.105 0.582 0.4609 0 0.9922-0.2578 0.9922-0.8477 0-0.6016-0.543-0.7617-1.176-0.957-0.6289-0.1992-1.289-0.4844-1.289-1.395 0-0.9883 0.8828-1.414 1.703-1.414 0.5742 0 1.113 0.2227 1.422 0.5664l-0.4922 0.4766" fill="#231f1f"/>
<path d="m95.82 141.8c-0.01562-0.5234-0.3203-0.9375-0.9297-0.9375-0.5703 0-1.004 0.418-1.047 0.9375zm0.6562 0.4922h-2.633c0.02344 0.5664 0.4961 1.008 1.078 1.008 0.4492 0 0.7812-0.2266 0.9688-0.5039l0.4609 0.3711c-0.3555 0.4609-0.8398 0.6797-1.43 0.6797-1.008 0-1.75-0.7031-1.75-1.746 0-1.035 0.7422-1.758 1.719-1.758 0.9766 0 1.594 0.6641 1.594 1.723 0 0.07031 0 0.1484-0.007812 0.2266" fill="#231f1f"/>
<path d="m99.27 142.2c-0.6523 0-1.48 0.07031-1.48 0.6289 0 0.3945 0.3516 0.5195 0.6797 0.5195 0.6172 0 0.9609-0.4141 0.9609-0.9727v-0.1758zm0.1602-0.5664c0-0.4922-0.3281-0.7266-0.8203-0.7266-0.3711 0-0.7188 0.1602-0.9453 0.3828l-0.3477-0.4219c0.3203-0.3086 0.8164-0.4961 1.355-0.4961 0.9531 0 1.387 0.5664 1.387 1.305v1.449c0 0.2227 0.01562 0.4961 0.05078 0.6562h-0.5938c-0.03906-0.1445-0.05859-0.3203-0.05859-0.4766h-0.01953c-0.2383 0.3594-0.6172 0.5625-1.113 0.5625-0.5273 0-1.207-0.2617-1.207-1.023 0-1 1.191-1.121 2.312-1.121v-0.08984" fill="#231f1f"/>
<path d="m101.1 140.5h0.625c0.01172 0.168 0.02734 0.4219 0.02734 0.5625h0.01953c0.1836-0.3867 0.5664-0.6523 1.016-0.6523 0.08984 0 0.1836 0.007813 0.2578 0.02734l-0.02734 0.6094c-0.08203-0.01953-0.1953-0.03516-0.3008-0.03516-0.6289 0-0.9297 0.5117-0.9297 1.066v1.742h-0.6602v-2.605c0-0.1719-0.007812-0.4961-0.02734-0.7148" fill="#231f1f"/>
<path d="m105.9 141.3c-0.1406-0.2188-0.4492-0.3789-0.7617-0.3789-0.6875 0-1.086 0.5586-1.086 1.195 0 0.6328 0.3984 1.199 1.09 1.199 0.3398 0 0.625-0.1406 0.8008-0.3633l0.4414 0.3984c-0.2812 0.3203-0.7109 0.5195-1.242 0.5195-1.023 0-1.785-0.6953-1.785-1.754 0-1.043 0.7578-1.75 1.773-1.75 0.4688 0 0.9727 0.1875 1.246 0.5469l-0.4766 0.3867" fill="#231f1f"/>
<path d="m107.7 141c0.1523-0.332 0.5742-0.5977 1.051-0.5977 0.8516 0 1.238 0.6094 1.238 1.352v2.059h-0.6562v-1.832c0-0.5391-0.1445-1.02-0.75-1.02-0.5195 0-0.8984 0.4375-0.8984 1.094v1.758h-0.6602v-5.293h0.6602v2.48h0.01563" fill="#231f1f"/>
<path d="m114.4 141h-0.7695v2.777h-0.6602v-2.777h-0.6562v-0.543h0.6562v-0.6914c0-0.7773 0.3477-1.367 1.242-1.367 0.1523 0 0.2852 0.01563 0.4141 0.05078l-0.07813 0.5664c-0.09766-0.02734-0.2031-0.04688-0.3281-0.04688-0.5 0-0.5898 0.3906-0.5898 0.7969v0.6914h0.7695v0.543" fill="#231f1f"/>
<path d="m116.6 140.9c-0.707 0-1.109 0.5664-1.109 1.199 0 0.6289 0.4023 1.203 1.109 1.203 0.7109 0 1.105-0.5742 1.105-1.203 0-0.6328-0.3945-1.199-1.105-1.199zm0 2.957c-1.016 0-1.789-0.7383-1.789-1.758 0-1.023 0.7734-1.746 1.789-1.746 1.012 0 1.793 0.7227 1.793 1.746 0 1.02-0.7812 1.758-1.793 1.758" fill="#231f1f"/>
<path d="m119.3 140.5h0.6211c0.01562 0.168 0.03125 0.4219 0.03125 0.5625h0.01953c0.1836-0.3867 0.5664-0.6523 1.016-0.6523 0.08984 0 0.1836 0.007813 0.2578 0.02734l-0.02734 0.6094c-0.08594-0.01953-0.1953-0.03516-0.3008-0.03516-0.6289 0-0.9297 0.5117-0.9297 1.066v1.742h-0.6602v-2.605c0-0.1719-0.007812-0.4961-0.02734-0.7148" fill="#231f1f"/>
<path d="m125.5 142.2c-0.6484 0-1.477 0.07031-1.477 0.6289 0 0.3945 0.3516 0.5195 0.6797 0.5195 0.6172 0 0.9609-0.4141 0.9609-0.9727v-0.1758zm0.1641-0.5664c0-0.4922-0.332-0.7266-0.8203-0.7266-0.3711 0-0.7227 0.1602-0.9453 0.3828l-0.3516-0.4219c0.3242-0.3086 0.8203-0.4961 1.359-0.4961 0.9531 0 1.387 0.5664 1.387 1.305v1.449c0 0.2227 0.01562 0.4961 0.04688 0.6562h-0.5938c-0.03516-0.1445-0.05469-0.3203-0.05469-0.4766h-0.02344c-0.2344 0.3594-0.6133 0.5625-1.113 0.5625-0.5234 0-1.203-0.2617-1.203-1.023 0-1 1.191-1.121 2.312-1.121v-0.08984" fill="#231f1f"/>
<path d="m128 140.5c0.01172 0.168 0.02734 0.4062 0.02734 0.5469h0.01953c0.1602-0.3555 0.6016-0.6367 1.078-0.6367 0.8555 0 1.242 0.6094 1.242 1.352v2.059h-0.6602v-1.84c0-0.5391-0.1484-1.016-0.7578-1.016-0.5195 0-0.8906 0.4336-0.8906 1.09v1.766h-0.6562v-2.605c0-0.1719-0.007812-0.4961-0.02734-0.7148h0.625" fill="#231f1f"/>
<path d="m133 143.3c0.6719 0 1.121-0.5586 1.121-1.199 0-0.6367-0.4492-1.203-1.121-1.203-0.7227 0-1.102 0.5742-1.102 1.199 0 0.6211 0.3789 1.203 1.102 1.203zm-0.1133 0.5547c-1.023 0-1.672-0.7852-1.672-1.758 0-0.9805 0.6719-1.746 1.664-1.746 0.543 0 0.9531 0.2656 1.184 0.5898h0.01562v-2.473h0.6602v5.293h-0.6406v-0.5234h-0.01172c-0.2539 0.3984-0.7305 0.6172-1.199 0.6172" fill="#231f1f"/>
<path d="m139.4 141.3c-0.1484-0.2383-0.4336-0.4141-0.7695-0.4141-0.3047 0-0.6172 0.1172-0.6172 0.4336 0 0.2812 0.25 0.3867 0.7539 0.4961 0.6328 0.1406 1.117 0.3984 1.117 0.9805 0 0.7852-0.6523 1.074-1.324 1.074-0.5039 0-1.023-0.1992-1.34-0.5977l0.4688-0.3984c0.1758 0.2578 0.5117 0.4609 0.8828 0.4609 0.3281 0 0.6602-0.1172 0.6602-0.4805 0-0.3086-0.3008-0.4219-0.8711-0.5547-0.4375-0.1055-0.9648-0.293-0.9648-0.918 0-0.7148 0.625-1.016 1.254-1.016 0.4688 0 0.9648 0.1875 1.203 0.5469l-0.4531 0.3867" fill="#231f1f"/>
<path d="m143.2 141.8c-0.01562-0.5234-0.3242-0.9375-0.9336-0.9375-0.5664 0-1 0.418-1.043 0.9375zm0.6562 0.4922h-2.633c0.01953 0.5664 0.4961 1.008 1.078 1.008 0.4492 0 0.7773-0.2266 0.9688-0.5039l0.4609 0.3711c-0.3594 0.4609-0.8398 0.6797-1.43 0.6797-1.008 0-1.75-0.7031-1.75-1.746 0-1.035 0.7422-1.758 1.715-1.758 0.9805 0 1.598 0.6641 1.598 1.723 0 0.07031 0 0.1484-0.007812 0.2266" fill="#231f1f"/>
<path d="m145.4 143.8h-0.6562v-5.293h0.6562v5.293" fill="#231f1f"/>
<path d="m149 141.8c-0.01562-0.5234-0.3242-0.9375-0.9336-0.9375-0.5664 0-1 0.418-1.043 0.9375zm0.6562 0.4922h-2.633c0.01953 0.5664 0.4961 1.008 1.078 1.008 0.4492 0 0.7773-0.2266 0.9648-0.5039l0.4648 0.3711c-0.3594 0.4609-0.8398 0.6797-1.43 0.6797-1.008 0-1.75-0.7031-1.75-1.746 0-1.035 0.7422-1.758 1.715-1.758 0.9805 0 1.598 0.6641 1.598 1.723 0 0.07031 0 0.1484-0.007813 0.2266" fill="#231f1f"/>
<path d="m152.9 141.3c-0.1406-0.2188-0.4453-0.3789-0.7617-0.3789-0.6875 0-1.086 0.5586-1.086 1.195 0 0.6328 0.3984 1.199 1.09 1.199 0.3398 0 0.625-0.1406 0.8008-0.3633l0.4414 0.3984c-0.2812 0.3203-0.707 0.5195-1.242 0.5195-1.02 0-1.781-0.6953-1.781-1.754 0-1.043 0.7539-1.75 1.77-1.75 0.4688 0 0.9727 0.1875 1.246 0.5469l-0.4766 0.3867" fill="#231f1f"/>
<path d="m155.7 141h-0.8828v1.727c0 0.4023 0.1406 0.5625 0.4727 0.5625 0.1172 0 0.2695-0.02734 0.3828-0.08594l0.02344 0.5391c-0.1562 0.05859-0.3594 0.09375-0.5625 0.09375-0.625 0-0.9688-0.3516-0.9688-1.039v-1.797h-0.6328v-0.543h0.6328v-0.9492h0.6523v0.9492h0.8828v0.543" fill="#231f1f"/>
<path d="m157 143.8h-0.6602v-3.32h0.6602zm-0.3281-4.098c-0.2383 0-0.4336-0.1875-0.4336-0.418 0-0.2383 0.1953-0.4297 0.4336-0.4297 0.2383 0 0.4414 0.1836 0.4414 0.4297 0 0.2383-0.2031 0.418-0.4414 0.418" fill="#231f1f"/>
<path d="m159.7 140.9c-0.707 0-1.105 0.5664-1.105 1.199 0 0.6289 0.3984 1.203 1.105 1.203 0.7148 0 1.109-0.5742 1.109-1.203 0-0.6328-0.3945-1.199-1.109-1.199zm0 2.957c-1.012 0-1.785-0.7383-1.785-1.758 0-1.023 0.7734-1.746 1.785-1.746 1.016 0 1.793 0.7227 1.793 1.746 0 1.02-0.7773 1.758-1.793 1.758" fill="#231f1f"/>
<path d="m163 140.5c0.01562 0.168 0.02734 0.4062 0.02734 0.5469h0.02344c0.1602-0.3555 0.6016-0.6367 1.078-0.6367 0.8555 0 1.238 0.6094 1.238 1.352v2.059h-0.6562v-1.84c0-0.5391-0.1484-1.016-0.7578-1.016-0.5156 0-0.8867 0.4336-0.8867 1.09v1.766h-0.6602v-2.605c0-0.1719-0.007812-0.4961-0.02734-0.7148h0.6211" fill="#231f1f"/>
<path d="m106.6 149.3c-0.707 0-1.105 0.5703-1.105 1.199s0.3984 1.203 1.105 1.203c0.7148 0 1.109-0.5742 1.109-1.203s-0.3945-1.199-1.109-1.199zm0 2.957c-1.016 0-1.785-0.7344-1.785-1.758 0-1.023 0.7695-1.746 1.785-1.746 1.016 0 1.793 0.7227 1.793 1.746 0 1.023-0.7773 1.758-1.793 1.758" fill="#231f1f"/>
<path d="m110.9 149.4h-0.7695v2.781h-0.6602v-2.781h-0.6562v-0.5391h0.6562v-0.6953c0-0.7773 0.3438-1.363 1.242-1.363 0.1523 0 0.2891 0.01172 0.4141 0.04688l-0.07812 0.5664c-0.09766-0.02734-0.2031-0.04688-0.3281-0.04688-0.5 0-0.5898 0.3906-0.5898 0.7969v0.6953h0.7695v0.5391" fill="#231f1f"/>
<path d="m114.1 152.2h-0.6562v-3.32h0.6562zm-0.3281-4.098c-0.2383 0-0.4336-0.1914-0.4336-0.4219 0-0.2383 0.1953-0.4258 0.4336-0.4258 0.2383 0 0.4414 0.1797 0.4414 0.4258 0 0.2383-0.2031 0.4219-0.4414 0.4219" fill="#231f1f"/>
<path d="m115.9 152.2h-0.6562v-5.297h0.6562v5.297" fill="#231f1f"/>
<path d="m117.7 152.2h-0.6562v-5.297h0.6562v5.297" fill="#231f1f"/>
<path d="m119.5 148.9c0.01562 0.168 0.03125 0.4062 0.03125 0.5469h0.01953c0.1602-0.3594 0.6016-0.6406 1.078-0.6406 0.8555 0 1.242 0.6094 1.242 1.355v2.059h-0.6602v-1.844c0-0.5391-0.1484-1.016-0.7578-1.016-0.5156 0-0.8867 0.4336-0.8867 1.094v1.766h-0.6602v-2.605c0-0.1758-0.007813-0.5-0.02734-0.7148h0.6211" fill="#231f1f"/>
<path d="m125.4 150.2c-0.01172-0.5234-0.3203-0.9375-0.9297-0.9375-0.5703 0-1.004 0.4219-1.043 0.9375zm0.6602 0.4922h-2.633c0.01953 0.5664 0.4961 1.008 1.078 1.008 0.4453 0 0.7773-0.2227 0.9648-0.5039l0.4648 0.3711c-0.3594 0.4609-0.8438 0.6797-1.43 0.6797-1.012 0-1.754-0.6992-1.754-1.742 0-1.039 0.7422-1.762 1.719-1.762 0.9805 0 1.598 0.668 1.598 1.727 0 0.06641 0 0.1445-0.007812 0.2227" fill="#231f1f"/>
<path d="m128.8 149.7c-0.1484-0.2383-0.4336-0.4141-0.7734-0.4141-0.3008 0-0.6133 0.1211-0.6133 0.4336 0 0.2812 0.25 0.3867 0.7539 0.5 0.6328 0.1406 1.117 0.3984 1.117 0.9805 0 0.7852-0.6523 1.07-1.324 1.07-0.5039 0-1.023-0.1953-1.34-0.5938l0.4688-0.3984c0.1758 0.2578 0.5117 0.4609 0.8828 0.4609 0.3281 0 0.6602-0.1211 0.6602-0.4844 0-0.3086-0.3008-0.4219-0.8711-0.5547-0.4414-0.1055-0.9648-0.293-0.9648-0.918 0-0.7109 0.625-1.016 1.254-1.016 0.4688 0 0.9648 0.1914 1.203 0.5469l-0.4531 0.3867" fill="#231f1f"/>
<path d="m131.9 149.7c-0.1445-0.2383-0.4336-0.4141-0.7695-0.4141-0.3008 0-0.6172 0.1211-0.6172 0.4336 0 0.2812 0.2539 0.3867 0.7578 0.5 0.6289 0.1406 1.113 0.3984 1.113 0.9805 0 0.7852-0.6523 1.07-1.324 1.07-0.5039 0-1.023-0.1953-1.34-0.5938l0.4727-0.3984c0.1758 0.2578 0.5117 0.4609 0.8828 0.4609 0.3281 0 0.6562-0.1211 0.6562-0.4844 0-0.3086-0.3008-0.4219-0.8672-0.5547-0.4414-0.1055-0.9688-0.293-0.9688-0.918 0-0.7109 0.625-1.016 1.258-1.016 0.4688 0 0.9648 0.1914 1.203 0.5469l-0.457 0.3867" fill="#231f1f"/>
<path d="m136.7 149.7c-0.1484-0.2383-0.4336-0.4141-0.7695-0.4141-0.3008 0-0.6172 0.1211-0.6172 0.4336 0 0.2812 0.2539 0.3867 0.7578 0.5 0.6289 0.1406 1.113 0.3984 1.113 0.9805 0 0.7852-0.6523 1.07-1.324 1.07-0.5039 0-1.023-0.1953-1.34-0.5938l0.4688-0.3984c0.1758 0.2578 0.5117 0.4609 0.8828 0.4609 0.332 0 0.6602-0.1211 0.6602-0.4844 0-0.3086-0.3008-0.4219-0.8711-0.5547-0.4375-0.1055-0.9648-0.293-0.9648-0.918 0-0.7109 0.625-1.016 1.254-1.016 0.4688 0 0.9648 0.1914 1.203 0.5469l-0.4531 0.3867" fill="#231f1f"/>
<path d="m140.4 149.7c-0.1406-0.2148-0.4492-0.3789-0.7656-0.3789-0.6836 0-1.086 0.5625-1.086 1.199 0 0.6289 0.4023 1.195 1.094 1.195 0.3359 0 0.625-0.1406 0.7969-0.3633l0.4414 0.3984c-0.2773 0.3242-0.707 0.5195-1.238 0.5195-1.023 0-1.785-0.6953-1.785-1.75 0-1.047 0.7578-1.754 1.773-1.754 0.4688 0 0.9727 0.1914 1.246 0.5469l-0.4766 0.3867" fill="#231f1f"/>
<path d="m141.5 148.9h0.6211c0.01563 0.168 0.02734 0.4219 0.02734 0.5586h0.02344c0.1797-0.3828 0.5664-0.6523 1.016-0.6523 0.08984 0 0.1797 0.007812 0.2578 0.03125l-0.02734 0.6094c-0.08594-0.02344-0.1953-0.03516-0.3008-0.03516-0.6328 0-0.9336 0.5117-0.9336 1.062v1.746h-0.6562v-2.605c0-0.1758-0.007812-0.5-0.02734-0.7148" fill="#231f1f"/>
<path d="m144.7 152.2h-0.6602v-3.32h0.6602zm-0.3281-4.098c-0.2383 0-0.4375-0.1914-0.4375-0.4219 0-0.2383 0.1992-0.4258 0.4375-0.4258 0.2344 0 0.4375 0.1797 0.4375 0.4258 0 0.2383-0.2031 0.4219-0.4375 0.4219" fill="#231f1f"/>
<path d="m147.6 149.3c-0.6758 0-1.121 0.5703-1.121 1.207 0 0.6367 0.4453 1.195 1.121 1.195 0.7188 0 1.105-0.582 1.105-1.203 0-0.625-0.3867-1.199-1.105-1.199zm-1.082 4.547h-0.6562v-5h0.6445v0.5156h0.01953c0.2188-0.3477 0.6523-0.6094 1.199-0.6094 0.9844 0 1.66 0.7656 1.66 1.746 0 0.9727-0.6523 1.758-1.676 1.758-0.4688 0-0.9258-0.2188-1.168-0.5898h-0.02344v2.18" fill="#231f1f"/>
<path d="m151.9 149.4h-0.8828v1.73c0 0.3984 0.1406 0.5586 0.4688 0.5586 0.1172 0 0.2734-0.02734 0.3867-0.08203l0.01953 0.5391c-0.1523 0.05469-0.3555 0.08984-0.5586 0.08984-0.625 0-0.9688-0.3516-0.9688-1.035v-1.801h-0.6367v-0.5391h0.6367v-0.9531h0.6523v0.9531h0.8828v0.5391" fill="#231f1f"/>
<path d="m113.7 175.9h0.8672c1.199 0 2.074-0.6875 2.074-1.871 0-1.223-0.875-1.875-2.074-1.875h-0.8672zm-0.6953-4.348h1.703c1.266 0 2.676 0.7188 2.676 2.477 0 1.695-1.41 2.48-2.676 2.48h-1.703v-4.957" fill="#231f1f"/>
<path d="m119 176.5h-0.6562v-3.32h0.6562zm-0.3281-4.098c-0.2383 0-0.4336-0.1875-0.4336-0.4219s0.1953-0.4258 0.4336-0.4258 0.4414 0.1836 0.4414 0.4258c0 0.2422-0.2031 0.4219-0.4414 0.4219" fill="#231f1f"/>
<path d="m122 174.9c-0.6523 0-1.48 0.07031-1.48 0.6289 0 0.3945 0.3516 0.5195 0.6797 0.5195 0.6172 0 0.9609-0.4141 0.9609-0.9727v-0.1758zm0.1602-0.5664c0-0.4922-0.3281-0.7305-0.8203-0.7305-0.3711 0-0.7227 0.1641-0.9453 0.3867l-0.3516-0.4219c0.3242-0.3086 0.8203-0.4961 1.359-0.4961 0.9531 0 1.387 0.5664 1.387 1.301v1.453c0 0.2227 0.01562 0.4961 0.05078 0.6562h-0.5977c-0.03516-0.1484-0.05469-0.3203-0.05469-0.4766h-0.01953c-0.2383 0.3594-0.6172 0.5625-1.117 0.5625-0.5234 0-1.203-0.2617-1.203-1.023 0-1.004 1.191-1.121 2.312-1.121v-0.08984" fill="#231f1f"/>
<path d="m125.5 176c0.6797 0 1.129-0.5117 1.129-1.172 0-0.6289-0.457-1.168-1.129-1.168-0.6953 0-1.102 0.5312-1.102 1.168 0 0.6094 0.4062 1.172 1.102 1.172zm-1.305 1.09c0.2891 0.3242 0.7578 0.5391 1.215 0.5391 0.875 0 1.168-0.5391 1.168-1.223v-0.4297h-0.01562c-0.2422 0.3711-0.6992 0.5742-1.168 0.5742-1.016 0-1.672-0.7578-1.672-1.707 0-0.9531 0.6484-1.73 1.664-1.73 0.4766 0 0.9453 0.2109 1.199 0.6211h0.01172v-0.5312h0.6406v3.152c0 0.9648-0.457 1.848-1.836 1.848-0.5742 0-1.211-0.2227-1.625-0.6016l0.418-0.5117" fill="#231f1f"/>
<path d="m128.9 173.2c0.01562 0.168 0.02734 0.4062 0.02734 0.5469h0.02344c0.1602-0.3555 0.6016-0.6367 1.078-0.6367 0.8516 0 1.238 0.6094 1.238 1.352v2.059h-0.6602v-1.84c0-0.5391-0.1445-1.02-0.7539-1.02-0.5195 0-0.8906 0.4375-0.8906 1.094v1.766h-0.6562v-2.605c0-0.1758-0.007812-0.4961-0.03125-0.7148h0.625" fill="#231f1f"/>
<path d="m134 173.6c-0.707 0-1.105 0.5664-1.105 1.195 0 0.6328 0.3984 1.207 1.105 1.207 0.7148 0 1.109-0.5742 1.109-1.207 0-0.6289-0.3945-1.195-1.109-1.195zm0 2.953c-1.016 0-1.785-0.7344-1.785-1.758 0-1.023 0.7695-1.742 1.785-1.742s1.793 0.7188 1.793 1.742c0 1.023-0.7773 1.758-1.793 1.758" fill="#231f1f"/>
<path d="m138.5 174c-0.1484-0.2344-0.4375-0.4141-0.7734-0.4141-0.3008 0-0.6133 0.1211-0.6133 0.4375 0 0.2812 0.25 0.3828 0.7539 0.4961 0.6328 0.1406 1.113 0.3984 1.113 0.9805 0 0.7852-0.6484 1.07-1.324 1.07-0.5039 0-1.02-0.1953-1.336-0.5938l0.4688-0.3984c0.1758 0.2578 0.5117 0.4609 0.8828 0.4609 0.3281 0 0.6602-0.1172 0.6602-0.4805 0-0.3125-0.3047-0.4219-0.8711-0.5547-0.4414-0.1055-0.9648-0.2969-0.9648-0.918 0-0.7148 0.6211-1.016 1.254-1.016 0.4688 0 0.9648 0.1875 1.203 0.5469l-0.4531 0.3828" fill="#231f1f"/>
<path d="m140.4 176.5h-0.6602v-3.32h0.6602zm-0.332-4.098c-0.2383 0-0.4336-0.1875-0.4336-0.4219s0.1953-0.4258 0.4336-0.4258c0.2383 0 0.4414 0.1836 0.4414 0.4258 0 0.2422-0.2031 0.4219-0.4414 0.4219" fill="#231f1f"/>
<path d="m143.4 174c-0.1445-0.2344-0.4336-0.4141-0.7695-0.4141-0.3008 0-0.6172 0.1211-0.6172 0.4375 0 0.2812 0.2539 0.3828 0.7578 0.4961 0.6289 0.1406 1.113 0.3984 1.113 0.9805 0 0.7852-0.6523 1.07-1.324 1.07-0.5039 0-1.023-0.1953-1.336-0.5938l0.4688-0.3984c0.1758 0.2578 0.5117 0.4609 0.8828 0.4609 0.3281 0 0.6562-0.1172 0.6562-0.4805 0-0.3125-0.3008-0.4219-0.8672-0.5547-0.4414-0.1055-0.9648-0.2969-0.9648-0.918 0-0.7148 0.6211-1.016 1.254-1.016 0.4688 0 0.9648 0.1875 1.203 0.5469l-0.457 0.3828" fill="#231f1f"/>
<path d="m4.504 89.07c-0.3867 0.5234-1.023 0.8945-1.891 0.8945-1.52 0-2.613-1.086-2.613-2.613 0-1.547 1.137-2.598 2.641-2.598 0.6797 0 1.414 0.2656 1.777 0.7695l-0.543 0.4219c-0.2383-0.3359-0.7227-0.582-1.234-0.582-1.148 0-1.883 0.9062-1.883 1.988 0 1.117 0.7188 1.996 1.863 1.996 0.5508 0 1.035-0.2305 1.328-0.6562l0.5547 0.3789" fill="#231f1f"/>
<path d="m6.656 86.97c-0.707 0-1.105 0.5664-1.105 1.195 0 0.6328 0.3984 1.207 1.105 1.207 0.7148 0 1.109-0.5742 1.109-1.207 0-0.6289-0.3945-1.195-1.109-1.195zm0 2.953c-1.016 0-1.785-0.7344-1.785-1.758 0-1.023 0.7695-1.742 1.785-1.742s1.793 0.7188 1.793 1.742c0 1.023-0.7773 1.758-1.793 1.758" fill="#231f1f"/>
<path d="m9.953 86.52c0.01562 0.168 0.02734 0.4062 0.02734 0.5469h0.02344c0.1602-0.3594 0.6016-0.6367 1.078-0.6367 0.8555 0 1.238 0.6094 1.238 1.352v2.059h-0.6562v-1.844c0-0.5391-0.1484-1.016-0.7578-1.016-0.5195 0-0.8906 0.4375-0.8906 1.094v1.766h-0.6562v-2.605c0-0.1758-0.007813-0.4961-0.02734-0.7148h0.6211" fill="#231f1f"/>
<path d="m15.06 87.05h-0.8828v1.73c0 0.3984 0.1406 0.5586 0.4688 0.5586 0.1211 0 0.2734-0.02734 0.3867-0.08203l0.01953 0.5391c-0.1523 0.05469-0.3555 0.08984-0.5586 0.08984-0.625 0-0.9688-0.3477-0.9688-1.035v-1.801h-0.6367v-0.5391h0.6367v-0.9531h0.6523v0.9531h0.8828v0.5391" fill="#231f1f"/>
<path d="m18.17 87.88c-0.01562-0.5273-0.3242-0.9414-0.9336-0.9414-0.5664 0-1 0.4219-1.043 0.9414zm0.6562 0.4883h-2.633c0.01953 0.5664 0.4961 1.008 1.078 1.008 0.4492 0 0.7773-0.2227 0.9648-0.5039l0.4648 0.3711c-0.3594 0.4648-0.8398 0.6797-1.43 0.6797-1.008 0-1.75-0.6992-1.75-1.742 0-1.039 0.7422-1.758 1.715-1.758 0.9805 0 1.598 0.6641 1.598 1.723 0 0.07031 0 0.1445-0.007812 0.2227" fill="#231f1f"/>
<path d="m20.49 88.09-1.211-1.574h0.8125l0.8125 1.141 0.8203-1.141h0.7695l-1.195 1.57 1.336 1.75h-0.8203l-0.9219-1.297-0.9414 1.297h-0.7891l1.328-1.746" fill="#231f1f"/>
<path d="m24.88 87.05h-0.8828v1.73c0 0.3984 0.1406 0.5586 0.4688 0.5586 0.1211 0 0.2734-0.02734 0.3867-0.08203l0.01953 0.5391c-0.1523 0.05469-0.3555 0.08984-0.5586 0.08984-0.625 0-0.9688-0.3477-0.9688-1.035v-1.801h-0.6367v-0.5391h0.6367v-0.9531h0.6523v0.9531h0.8828v0.5391" fill="#231f1f"/>
<path d="m0.9453 10h0.01563l2.211-2.188h0.9609l-2.41 2.27 2.559 2.688h-0.9961l-2.324-2.562h-0.01563v2.562h-0.6914v-4.957h0.6914v2.188" fill="#231f1f"/>
<path d="m5.426 9.453c0.01562 0.168 0.02734 0.4062 0.02734 0.5508h0.02344c0.1602-0.3594 0.6016-0.6406 1.078-0.6406 0.8516 0 1.238 0.6094 1.238 1.352v2.059h-0.6602v-1.84c0-0.5391-0.1445-1.016-0.7539-1.016-0.5195 0-0.8906 0.4336-0.8906 1.094v1.762h-0.6562v-2.602c0-0.1758-0.007812-0.5-0.03125-0.7188h0.625" fill="#231f1f"/>
<path d="m10.47 9.91c-0.707 0-1.105 0.5664-1.105 1.199 0 0.6289 0.3984 1.203 1.105 1.203 0.7148 0 1.105-0.5742 1.105-1.203 0-0.6328-0.3906-1.199-1.105-1.199zm0 2.957c-1.016 0-1.785-0.7344-1.785-1.758s0.7695-1.746 1.785-1.746 1.793 0.7227 1.793 1.746-0.7773 1.758-1.793 1.758" fill="#231f1f"/>
<path d="m13.42 9.453 0.75 2.535h0.01562l0.7891-2.535h0.6953l0.8047 2.535h0.01562l0.75-2.535h0.6914l-1.098 3.32h-0.6875l-0.8203-2.492h-0.01562l-0.8125 2.492h-0.6836l-1.109-3.32h0.7148" fill="#231f1f"/>
<path d="m19.26 12.77h-0.6602v-5.293h0.6602v5.293" fill="#231f1f"/>
<path d="m22.84 10.82c-0.01563-0.5234-0.3242-0.9375-0.9336-0.9375-0.5664 0-1 0.4219-1.043 0.9375zm0.6562 0.4922h-2.633c0.02344 0.5664 0.4961 1.008 1.078 1.008 0.4492 0 0.7773-0.2227 0.9688-0.5039l0.4609 0.3711c-0.3555 0.4609-0.8398 0.6797-1.43 0.6797-1.008 0-1.75-0.7031-1.75-1.746 0-1.035 0.7422-1.758 1.715-1.758 0.9805 0 1.598 0.6641 1.598 1.723 0 0.07031 0 0.1484-0.007812 0.2266" fill="#231f1f"/>
<path d="m25.98 12.31c0.6719 0 1.121-0.5586 1.121-1.199 0-0.6367-0.4492-1.203-1.121-1.203-0.7188 0-1.098 0.5742-1.098 1.199 0 0.6211 0.3789 1.203 1.098 1.203zm-0.1094 0.5547c-1.023 0-1.676-0.7852-1.676-1.758 0-0.9805 0.6719-1.746 1.668-1.746 0.5391 0 0.9531 0.2695 1.184 0.5898h0.01172v-2.473h0.6602v5.293h-0.6367v-0.5234h-0.01562c-0.25 0.3984-0.7266 0.6172-1.195 0.6172" fill="#231f1f"/>
<path d="m30.42 12.25c0.6797 0 1.129-0.5117 1.129-1.172 0-0.6289-0.457-1.168-1.129-1.168-0.6914 0-1.098 0.5312-1.098 1.168 0 0.6133 0.4062 1.172 1.098 1.172zm-1.301 1.094c0.2852 0.3203 0.7539 0.5391 1.211 0.5391 0.875 0 1.168-0.5391 1.168-1.227v-0.4258h-0.01172c-0.2461 0.3711-0.7031 0.5742-1.172 0.5742-1.016 0-1.672-0.7578-1.672-1.711s0.6523-1.73 1.668-1.73c0.4727 0 0.9453 0.2109 1.195 0.625h0.01563v-0.5352h0.6367v3.152c0 0.9688-0.457 1.852-1.836 1.852-0.5742 0-1.211-0.2266-1.625-0.6016l0.4219-0.5117" fill="#231f1f"/>
<path d="m35.71 10.82c-0.01562-0.5234-0.3203-0.9375-0.9297-0.9375-0.5703 0-1.004 0.4219-1.047 0.9375zm0.6602 0.4922h-2.637c0.02344 0.5664 0.5 1.008 1.082 1.008 0.4453 0 0.7773-0.2227 0.9648-0.5039l0.4609 0.3711c-0.3555 0.4609-0.8398 0.6797-1.426 0.6797-1.012 0-1.754-0.7031-1.754-1.746 0-1.035 0.7422-1.758 1.719-1.758 0.9805 0 1.594 0.6641 1.594 1.723 0 0.07031 0 0.1484-0.003906 0.2266" fill="#231f1f"/>
<path d="m0.9453 173.6h2.59v0.6133h-3.281v-4.957h3.18v0.6094h-2.488v1.484h2.34v0.5938h-2.34v1.656" fill="#231f1f"/>
<path d="m5.238 172.5-1.215-1.578h0.8125l0.8125 1.141 0.8203-1.141h0.7695l-1.195 1.57 1.336 1.75h-0.8203l-0.9219-1.297-0.9375 1.297h-0.793l1.332-1.742" fill="#231f1f"/>
<path d="m9.738 171.3c-0.6719 0-1.121 0.5664-1.121 1.203 0 0.6367 0.4492 1.199 1.121 1.199 0.7227 0 1.105-0.582 1.105-1.207 0-0.6211-0.3828-1.195-1.105-1.195zm-1.078 4.543h-0.6602v-5h0.6445v0.5195h0.02344c0.2148-0.3516 0.6484-0.6094 1.195-0.6094 0.9883 0 1.66 0.7617 1.66 1.742 0 0.9766-0.6523 1.762-1.672 1.762-0.4688 0-0.9258-0.2188-1.172-0.5898h-0.01953v2.176" fill="#231f1f"/>
<path d="m14.87 172.2c-0.01562-0.5273-0.3242-0.9375-0.9336-0.9375-0.5664 0-1 0.418-1.043 0.9375zm0.6562 0.4883h-2.633c0.01953 0.5703 0.4961 1.012 1.078 1.012 0.4492 0 0.7773-0.2266 0.9648-0.5078l0.4648 0.3711c-0.3594 0.4648-0.8398 0.6836-1.43 0.6836-1.008 0-1.75-0.7031-1.75-1.746 0-1.035 0.7422-1.758 1.715-1.758 0.9805 0 1.598 0.6641 1.598 1.723 0 0.07031 0 0.1484-0.007812 0.2227" fill="#231f1f"/>
<path d="m16.42 170.9h0.625c0.01172 0.168 0.02734 0.4219 0.02734 0.5625h0.01953c0.1836-0.3867 0.5664-0.6523 1.016-0.6523 0.08984 0 0.1836 0.007813 0.2578 0.02734l-0.02734 0.6094c-0.08203-0.01953-0.1953-0.03516-0.3008-0.03516-0.6289 0-0.9297 0.5117-0.9297 1.066v1.742h-0.6602v-2.605c0-0.1719-0.007813-0.4961-0.02734-0.7148" fill="#231f1f"/>
<path d="m19.65 174.2h-0.6562v-3.32h0.6562zm-0.3281-4.098c-0.2383 0-0.4336-0.1875-0.4336-0.418 0-0.2383 0.1953-0.4297 0.4336-0.4297 0.2383 0 0.4414 0.1836 0.4414 0.4297 0 0.2383-0.2031 0.418-0.4414 0.418" fill="#231f1f"/>
<path d="m23.23 172.2c-0.01172-0.5273-0.3203-0.9375-0.9297-0.9375-0.5664 0-1.004 0.418-1.043 0.9375zm0.6602 0.4883h-2.633c0.01953 0.5703 0.4961 1.012 1.078 1.012 0.4492 0 0.7773-0.2266 0.9648-0.5078l0.4648 0.3711c-0.3594 0.4648-0.8438 0.6836-1.43 0.6836-1.008 0-1.75-0.7031-1.75-1.746 0-1.035 0.7422-1.758 1.715-1.758 0.9805 0 1.598 0.6641 1.598 1.723 0 0.07031 0 0.1484-0.007812 0.2227" fill="#231f1f"/>
<path d="m25.4 170.9c0.01562 0.168 0.02734 0.4062 0.02734 0.5469h0.02344c0.1602-0.3555 0.6016-0.6367 1.078-0.6367 0.8555 0 1.238 0.6094 1.238 1.352v2.059h-0.6562v-1.84c0-0.543-0.1484-1.016-0.7578-1.016-0.5195 0-0.8906 0.4336-0.8906 1.09v1.766h-0.6562v-2.605c0-0.1719-0.007813-0.4961-0.02734-0.7148h0.6211" fill="#231f1f"/>
<path d="m31.21 171.7c-0.1406-0.2148-0.4492-0.375-0.7617-0.375-0.6875 0-1.086 0.5586-1.086 1.195 0 0.6328 0.3984 1.199 1.09 1.199 0.3398 0 0.625-0.1406 0.8008-0.3633l0.4414 0.3984c-0.2812 0.3203-0.707 0.5195-1.242 0.5195-1.02 0-1.785-0.6953-1.785-1.754 0-1.043 0.7578-1.75 1.773-1.75 0.4688 0 0.9727 0.1875 1.246 0.5469l-0.4766 0.3828" fill="#231f1f"/>
<path d="m34.77 172.2c-0.01562-0.5273-0.3203-0.9375-0.9297-0.9375-0.5703 0-1.004 0.418-1.047 0.9375zm0.6602 0.4883h-2.637c0.02344 0.5703 0.5 1.012 1.082 1.012 0.4453 0 0.7773-0.2266 0.9648-0.5078l0.4609 0.3711c-0.3555 0.4648-0.8398 0.6836-1.426 0.6836-1.012 0-1.754-0.7031-1.754-1.746 0-1.035 0.7422-1.758 1.719-1.758 0.9805 0 1.594 0.6641 1.594 1.723 0 0.07031 0 0.1484-0.003906 0.2227" fill="#231f1f"/>
<path transform="matrix(.1 0 0 -.1 0 185.5)" d="m1283 293.7v-103.2" fill="none" stroke="#0f0e0c" stroke-width="5"/>
<path d="m128.3 170c-0.6289-1.703-1.707-3.82-2.848-5.133l2.848 1.031 2.852-1.031c-1.141 1.312-2.219 3.43-2.852 5.133" fill="#0f0e0c"/>
<path transform="matrix(.1 0 0 -.1 0 185.5)" d="m1283 708.6v-175" fill="none" stroke="#0f0e0c" stroke-width="5"/>
<path d="m128.3 135.7c-0.6289-1.699-1.707-3.82-2.848-5.129l2.848 1.027 2.852-1.027c-1.141 1.309-2.219 3.43-2.852 5.129" fill="#0f0e0c"/>
<path transform="matrix(.1 0 0 -.1 0 185.5)" d="m1283 1033v-175" fill="none" stroke="#0f0e0c" stroke-width="5"/>
<path d="m128.3 103.3c-0.6289-1.699-1.707-3.82-2.848-5.129l2.848 1.031 2.852-1.031c-1.141 1.309-2.219 3.43-2.852 5.129" fill="#0f0e0c"/>
<path transform="matrix(.1 0 0 -.1 0 185.5)" d="m1283 1363v-175" fill="none" stroke="#0f0e0c" stroke-width="5"/>
<path d="m128.3 70.25c-0.6289-1.695-1.707-3.816-2.848-5.129l2.848 1.031 2.852-1.031c-1.141 1.312-2.219 3.434-2.852 5.129" fill="#0f0e0c"/>
<path d="m128.3 37.32c-0.6289-1.699-1.707-3.82-2.848-5.129l2.848 1.027 2.852-1.027c-1.141 1.309-2.219 3.43-2.852 5.129" fill="#0f0e0c"/>
<path d="m128.3 17.49c-0.6289 1.699-1.707 3.82-2.848 5.129l2.848-1.027 2.852 1.027c-1.141-1.309-2.219-3.43-2.852-5.129" fill="#0f0e0c"/>
<path transform="matrix(.1 0 0 -.1 0 185.5)" d="m11.6 898.8h257.2" fill="none" stroke="#0f0e0c" stroke-width="5"/>
<path d="m30.5 95.59c-1.703 0.6328-3.82 1.711-5.133 2.852l1.031-2.852-1.031-2.848c1.312 1.141 3.43 2.219 5.133 2.848" fill="#0f0e0c"/>
<path transform="matrix(.1 0 0 -.1 0 185.5)" d="m390.9 1733 151.6-87.5" fill="none" stroke="#0f0e0c" stroke-width="5"/>
<path d="m57.38 22.77c-1.785-0.3047-4.164-0.4297-5.867-0.09766l2.316-1.953 0.5352-2.984c0.5625 1.645 1.859 3.637 3.016 5.035" fill="#0f0e0c"/>
<path transform="matrix(.1 0 0 -.1 0 185.5)" d="m390.9 127.1 151.6 87.5" fill="none" stroke="#0f0e0c" stroke-width="5"/>
<path d="m57.38 162.2c-1.156 1.398-2.453 3.391-3.016 5.035l-0.5352-2.984-2.316-1.953c1.703 0.332 4.082 0.207 5.867-0.09766" fill="#0f0e0c"/>
<path d="m158.5 43.75c1.699-0.6289 3.82-1.711 5.129-2.852l-1.027 2.852 1.027 2.852c-1.309-1.141-3.43-2.223-5.129-2.852" fill="#0f0e0c"/>
<path d="m171.1 141.8c1.699-0.6289 3.82-1.707 5.129-2.848l-1.027 2.848 1.027 2.852c-1.309-1.141-3.43-2.219-5.129-2.852" fill="#0f0e0c"/>
</svg>
