<?xml version="1.0" encoding="UTF-8"?>
<svg width="232.7pt" height="207.9pt" version="1.1" viewBox="0 0 232.7 207.9" xmlns="http://www.w3.org/2000/svg">
<defs>
<clipPath id="b">
<path d="m160 103h72.73v28h-72.73z"/>
</clipPath>
<clipPath id="a">
<path d="m80 190h73v17.86h-73z"/>
</clipPath>
</defs>
<path transform="matrix(.1 0 0 -.1 0 207.9)" d="m358.3 79.54v690.7" fill="none" stroke="#231f1f" stroke-linecap="square" stroke-width="5"/>
<path transform="matrix(.1 0 0 -.1 0 207.9)" d="m358.2 79.54h397.5" fill="none" stroke="#231f1f" stroke-width="5"/>
<path d="m79.67 199.9c-1.703 0.6289-3.816 1.711-5.129 2.852l1.035-2.852-1.035-2.855c1.312 1.145 3.426 2.223 5.129 2.855" fill="#231f1f"/>
<path transform="matrix(.1 0 0 -.1 0 207.9)" d="m1969 79.54v690.7" fill="none" stroke="#231f1f" stroke-linecap="square" stroke-width="5"/>
<path transform="matrix(.1 0 0 -.1 0 207.9)" d="m1969 79.54h-397.5" fill="none" stroke="#231f1f" stroke-width="5"/>
<path d="m153.1 199.9c1.707 0.6289 3.82 1.711 5.129 2.852l-1.031-2.852 1.031-2.855c-1.309 1.145-3.422 2.223-5.129 2.855" fill="#231f1f"/>
<path transform="matrix(.1 0 0 -.1 0 207.9)" d="m362.5 1652h580.6" fill="none" stroke="#231f1f" stroke-linecap="square" stroke-width="5"/>
<path transform="matrix(.1 0 0 -.1 0 207.9)" d="m1390 1285h303.4" fill="none" stroke="#231f1f" stroke-width="5"/>
<path d="m173.1 79.35c-1.707 0.6328-3.82 1.711-5.129 2.852l1.031-2.852-1.031-2.855c1.309 1.145 3.422 2.223 5.129 2.855" fill="#231f1f"/>
<path transform="matrix(.1 0 0 -.1 0 207.9)" d="m362.5 1208v-115" fill="none" stroke="#231f1f" stroke-width="5"/>
<path d="m36.25 102.2c-0.6328-1.703-1.711-3.816-2.852-5.129l2.852 1.031 2.852-1.031c-1.141 1.312-2.219 3.426-2.852 5.129" fill="#231f1f"/>
<path d="m58.75 87.19h-45v-17.25h45v17.25" fill="#fef0ca"/>
<path transform="matrix(.1 0 0 -.1 0 207.9)" d="m587.5 1207h-450v172.5h450z" fill="none" stroke="#231f1f" stroke-width="5"/>
<path d="m29.18 80.07h0.8672c0.5898 0 1.234-0.1836 1.234-0.8555 0-0.5781-0.4141-0.832-1.168-0.832h-0.9336zm0-2.277h0.9062c0.5312 0 0.9727-0.2305 0.9727-0.7695 0-0.5312-0.4297-0.7422-1.086-0.7422h-0.793zm-0.6914-2.094h1.707c0.75 0 1.555 0.3086 1.555 1.254 0 0.5469-0.3477 0.9375-0.8672 1.078v0.01562c0.6367 0.07812 1.098 0.5117 1.098 1.203 0 0.9531-0.8242 1.41-1.863 1.41h-1.629v-4.961" fill="#231f1f"/>
<path d="m34.52 77.8c-0.707 0-1.105 0.5664-1.105 1.199 0 0.6289 0.3984 1.203 1.105 1.203 0.7148 0 1.105-0.5742 1.105-1.203 0-0.6328-0.3906-1.199-1.105-1.199zm0 2.957c-1.016 0-1.785-0.7344-1.785-1.758 0-1.023 0.7695-1.742 1.785-1.742s1.793 0.7188 1.793 1.742c0 1.023-0.7773 1.758-1.793 1.758" fill="#231f1f"/>
<path d="m37.82 77.34c0.01172 0.168 0.02734 0.4062 0.02734 0.5469h0.01953c0.1641-0.3594 0.6055-0.6367 1.078-0.6367 0.8555 0 1.242 0.6055 1.242 1.348v2.062h-0.6602v-1.844c0-0.5391-0.1445-1.016-0.7539-1.016-0.5195 0-0.8906 0.4336-0.8906 1.094v1.766h-0.6602v-2.605c0-0.1758-0.003906-0.5-0.02734-0.7148h0.625" fill="#231f1f"/>
<path d="m43.72 78.71c-0.01172-0.5234-0.3203-0.9375-0.9297-0.9375-0.5664 0-1.004 0.4219-1.043 0.9375zm0.6602 0.4922h-2.633c0.01953 0.5664 0.4961 1.008 1.078 1.008 0.4492 0 0.7773-0.2227 0.9648-0.5039l0.4648 0.3711c-0.3594 0.4609-0.8438 0.6797-1.43 0.6797-1.008 0-1.75-0.6992-1.75-1.742 0-1.039 0.7422-1.758 1.715-1.758 0.9805 0 1.598 0.6641 1.598 1.719 0 0.07422 0 0.1484-0.007813 0.2266" fill="#231f1f"/>
<path d="m72.25 130.4h-72v-27h72v27" fill="#fef0ca"/>
<path transform="matrix(.1 0 0 -.1 0 207.9)" d="m722.5 775h-720v270h720z" fill="none" stroke="#231f1f" stroke-width="5"/>
<path d="m4.992 114.8h-0.6953v-4.957h0.6953v4.957" fill="#231f1f"/>
<path d="m6.754 111.4c0.01562 0.168 0.02734 0.4062 0.02734 0.5469h0.02344c0.1602-0.3594 0.6016-0.6367 1.078-0.6367 0.8555 0 1.238 0.6094 1.238 1.352v2.059h-0.6562v-1.844c0-0.5391-0.1484-1.016-0.7578-1.016-0.5195 0-0.8867 0.4336-0.8867 1.094v1.766h-0.6602v-2.605c0-0.1758-0.007812-0.4961-0.02734-0.7148h0.6211" fill="#231f1f"/>
<path d="m12.56 112.3c-0.1406-0.2148-0.4492-0.3789-0.7617-0.3789-0.6875 0-1.086 0.5625-1.086 1.199 0 0.6289 0.3984 1.195 1.09 1.195 0.3398 0 0.625-0.1367 0.8008-0.3633l0.4414 0.3984c-0.2812 0.3242-0.707 0.5195-1.242 0.5195-1.02 0-1.785-0.6914-1.785-1.75 0-1.043 0.7578-1.75 1.773-1.75 0.4688 0 0.9727 0.1875 1.246 0.5469l-0.4766 0.3828" fill="#231f1f"/>
<path d="m13.66 111.4h0.6211c0.01562 0.168 0.03125 0.4219 0.03125 0.5586h0.01953c0.1836-0.3828 0.5664-0.6484 1.016-0.6484 0.08984 0 0.1836 0.007812 0.2578 0.02734l-0.02734 0.6094c-0.08203-0.02344-0.1953-0.03516-0.3008-0.03516-0.6289 0-0.9297 0.5117-0.9297 1.062v1.746h-0.6602v-2.605c0-0.1758-0.007812-0.4961-0.02734-0.7148" fill="#231f1f"/>
<path d="m18.53 112.8c-0.01562-0.5273-0.3242-0.9414-0.9336-0.9414-0.5664 0-1 0.4219-1.043 0.9414zm0.6562 0.4883h-2.633c0.02344 0.5664 0.4961 1.008 1.078 1.008 0.4492 0 0.7773-0.2227 0.9688-0.5039l0.4609 0.3711c-0.3555 0.4648-0.8398 0.6797-1.43 0.6797-1.008 0-1.75-0.6992-1.75-1.742 0-1.039 0.7422-1.758 1.715-1.758 0.9805 0 1.598 0.6641 1.598 1.723 0 0.07031 0 0.1445-0.007812 0.2227" fill="#231f1f"/>
<path d="m21.97 113.2c-0.6484 0-1.477 0.07031-1.477 0.6289 0 0.3906 0.3516 0.5195 0.6797 0.5195 0.6172 0 0.9609-0.4141 0.9609-0.9727v-0.1758zm0.1641-0.5703c0-0.4883-0.332-0.7266-0.8203-0.7266-0.3711 0-0.7227 0.1602-0.9453 0.3867l-0.3516-0.4219c0.3242-0.3086 0.8203-0.4961 1.359-0.4961 0.9531 0 1.387 0.5664 1.387 1.301v1.449c0 0.2266 0.01562 0.5 0.05078 0.6602h-0.5977c-0.03516-0.1484-0.05469-0.3242-0.05469-0.4766h-0.01953c-0.2383 0.3555-0.6172 0.5586-1.117 0.5586-0.5234 0-1.203-0.2578-1.203-1.02 0-1.004 1.191-1.121 2.312-1.121v-0.09375" fill="#231f1f"/>
<path d="m25.66 112.3c-0.1484-0.2383-0.4336-0.4141-0.7695-0.4141-0.3008 0-0.6172 0.1211-0.6172 0.4375 0 0.2773 0.2539 0.3828 0.7578 0.4961 0.6289 0.1406 1.113 0.3984 1.113 0.9805 0 0.7852-0.6523 1.07-1.324 1.07-0.5039 0-1.023-0.1953-1.34-0.5938l0.4727-0.3984c0.1719 0.2578 0.5078 0.4609 0.8789 0.4609 0.332 0 0.6602-0.1211 0.6602-0.4844 0-0.3086-0.3008-0.418-0.8672-0.5547-0.4414-0.1016-0.9688-0.293-0.9688-0.9141 0-0.7148 0.625-1.016 1.254-1.016 0.4688 0 0.9648 0.1875 1.203 0.5469l-0.4531 0.3828" fill="#231f1f"/>
<path d="m29.4 112.8c-0.01562-0.5273-0.3242-0.9414-0.9336-0.9414-0.5664 0-1 0.4219-1.043 0.9414zm0.6562 0.4883h-2.633c0.02344 0.5664 0.4961 1.008 1.078 1.008 0.4492 0 0.7773-0.2227 0.9688-0.5039l0.4609 0.3711c-0.3555 0.4648-0.8398 0.6797-1.43 0.6797-1.008 0-1.75-0.6992-1.75-1.742 0-1.039 0.7422-1.758 1.715-1.758 0.9805 0 1.598 0.6641 1.598 1.723 0 0.07031 0 0.1445-0.007812 0.2227" fill="#231f1f"/>
<path d="m32.54 114.3c0.6758 0 1.121-0.5586 1.121-1.195s-0.4453-1.203-1.121-1.203c-0.7188 0-1.098 0.5742-1.098 1.195 0 0.625 0.3789 1.203 1.098 1.203zm-0.1094 0.5547c-1.023 0-1.676-0.7852-1.676-1.758 0-0.9805 0.6719-1.742 1.668-1.742 0.5391 0 0.9531 0.2656 1.184 0.5859h0.01172v-2.473h0.6602v5.297h-0.6367v-0.5273h-0.01562c-0.25 0.4023-0.7266 0.6172-1.195 0.6172" fill="#231f1f"/>
<path d="m38.75 111.9c-0.707 0-1.105 0.5664-1.105 1.195 0 0.6328 0.3984 1.203 1.105 1.203 0.7148 0 1.105-0.5703 1.105-1.203 0-0.6289-0.3906-1.195-1.105-1.195zm0 2.953c-1.016 0-1.785-0.7344-1.785-1.758 0-1.023 0.7695-1.742 1.785-1.742s1.793 0.7188 1.793 1.742c0 1.023-0.7773 1.758-1.793 1.758" fill="#231f1f"/>
<path d="m43.24 112.3c-0.1445-0.2383-0.4336-0.4141-0.7695-0.4141-0.3008 0-0.6172 0.1211-0.6172 0.4375 0 0.2773 0.2539 0.3828 0.7578 0.4961 0.6289 0.1406 1.113 0.3984 1.113 0.9805 0 0.7852-0.6484 1.07-1.324 1.07-0.5039 0-1.02-0.1953-1.336-0.5938l0.4688-0.3984c0.1758 0.2578 0.5117 0.4609 0.8828 0.4609 0.3281 0 0.6602-0.1211 0.6602-0.4844 0-0.3086-0.3047-0.418-0.8711-0.5547-0.4414-0.1016-0.9648-0.293-0.9648-0.9141 0-0.7148 0.6211-1.016 1.254-1.016 0.4688 0 0.9648 0.1875 1.203 0.5469l-0.457 0.3828" fill="#231f1f"/>
<path d="m46.18 112h-0.8828v1.73c0 0.3984 0.1406 0.5586 0.4688 0.5586 0.1211 0 0.2734-0.02734 0.3867-0.08203l0.01953 0.5391c-0.1523 0.05469-0.3555 0.08984-0.5586 0.08984-0.625 0-0.9688-0.3516-0.9688-1.035v-1.801h-0.6367v-0.5391h0.6367v-0.9531h0.6523v0.9531h0.8828v0.5391" fill="#231f1f"/>
<path d="m49.29 112.8c-0.01562-0.5273-0.3242-0.9414-0.9336-0.9414-0.5664 0-1 0.4219-1.043 0.9414zm0.6562 0.4883h-2.633c0.02344 0.5664 0.4961 1.008 1.078 1.008 0.4492 0 0.7773-0.2227 0.9688-0.5039l0.4609 0.3711c-0.3555 0.4648-0.8398 0.6797-1.43 0.6797-1.008 0-1.75-0.6992-1.75-1.742 0-1.039 0.7422-1.758 1.715-1.758 0.9805 0 1.598 0.6641 1.598 1.723 0 0.07031 0 0.1445-0.007813 0.2227" fill="#231f1f"/>
<path d="m52.44 111.9c-0.707 0-1.105 0.5664-1.105 1.195 0 0.6328 0.3984 1.203 1.105 1.203 0.7148 0 1.105-0.5703 1.105-1.203 0-0.6289-0.3906-1.195-1.105-1.195zm0 2.953c-1.016 0-1.785-0.7344-1.785-1.758 0-1.023 0.7695-1.742 1.785-1.742s1.793 0.7188 1.793 1.742c0 1.023-0.7773 1.758-1.793 1.758" fill="#231f1f"/>
<path d="m57.46 112.3c-0.1406-0.2148-0.4492-0.3789-0.7617-0.3789-0.6875 0-1.09 0.5625-1.09 1.199 0 0.6289 0.4023 1.195 1.094 1.195 0.3359 0 0.625-0.1367 0.8008-0.3633l0.4414 0.3984c-0.2812 0.3242-0.7109 0.5195-1.242 0.5195-1.023 0-1.785-0.6914-1.785-1.75 0-1.043 0.7578-1.75 1.773-1.75 0.4688 0 0.9727 0.1875 1.246 0.5469l-0.4766 0.3828" fill="#231f1f"/>
<path d="m59.27 114.8h-0.6602v-5.297h0.6602v5.297" fill="#231f1f"/>
<path d="m62.32 113.2c-0.6484 0-1.477 0.07031-1.477 0.6289 0 0.3906 0.3516 0.5195 0.6797 0.5195 0.6172 0 0.9609-0.4141 0.9609-0.9727v-0.1758zm0.1641-0.5703c0-0.4883-0.332-0.7266-0.8203-0.7266-0.3711 0-0.7227 0.1602-0.9453 0.3867l-0.3516-0.4219c0.3242-0.3086 0.8203-0.4961 1.359-0.4961 0.9531 0 1.387 0.5664 1.387 1.301v1.449c0 0.2266 0.01562 0.5 0.05078 0.6602h-0.5977c-0.03516-0.1484-0.05469-0.3242-0.05469-0.4766h-0.02344c-0.2344 0.3555-0.6133 0.5586-1.113 0.5586-0.5234 0-1.203-0.2578-1.203-1.02 0-1.004 1.191-1.121 2.312-1.121v-0.09375" fill="#231f1f"/>
<path d="m66 112.3c-0.1484-0.2383-0.4336-0.4141-0.7695-0.4141-0.3008 0-0.6172 0.1211-0.6172 0.4375 0 0.2773 0.25 0.3828 0.7578 0.4961 0.6289 0.1406 1.113 0.3984 1.113 0.9805 0 0.7852-0.6523 1.07-1.324 1.07-0.5039 0-1.023-0.1953-1.34-0.5938l0.4688-0.3984c0.1758 0.2578 0.5117 0.4609 0.8828 0.4609 0.332 0 0.6602-0.1211 0.6602-0.4844 0-0.3086-0.3008-0.418-0.8672-0.5547-0.4414-0.1016-0.9688-0.293-0.9688-0.9141 0-0.7148 0.625-1.016 1.254-1.016 0.4688 0 0.9648 0.1875 1.207 0.5469l-0.457 0.3828" fill="#231f1f"/>
<path d="m68.95 112h-0.8828v1.73c0 0.3984 0.1406 0.5586 0.4688 0.5586 0.1172 0 0.2734-0.02734 0.3828-0.08203l0.02344 0.5391c-0.1562 0.05469-0.3594 0.08984-0.5625 0.08984-0.6211 0-0.9648-0.3516-0.9648-1.035v-1.801h-0.6367v-0.5391h0.6367v-0.9531h0.6523v0.9531h0.8828v0.5391" fill="#231f1f"/>
<path d="m12.8 120.3c-0.6719 0-1.121 0.5664-1.121 1.203 0 0.6406 0.4492 1.199 1.121 1.199 0.7227 0 1.105-0.582 1.105-1.207 0-0.6211-0.3828-1.195-1.105-1.195zm-1.098 2.34v0.5234h-0.6406v-5.293h0.6602v2.473h0.01953c0.2266-0.3242 0.6367-0.5898 1.184-0.5898 0.9883 0 1.66 0.7656 1.66 1.742s-0.6523 1.758-1.672 1.758c-0.4688 0-0.9414-0.2148-1.199-0.6133h-0.01172" fill="#231f1f"/>
<path d="m17.07 120.3c-0.707 0-1.105 0.5664-1.105 1.195 0 0.6328 0.3984 1.207 1.105 1.207 0.7148 0 1.105-0.5742 1.105-1.207 0-0.6289-0.3906-1.195-1.105-1.195zm0 2.953c-1.016 0-1.785-0.7344-1.785-1.758 0-1.02 0.7695-1.742 1.785-1.742 1.016 0 1.793 0.7227 1.793 1.742 0 1.023-0.7773 1.758-1.793 1.758" fill="#231f1f"/>
<path d="m20.37 119.8c0.01562 0.168 0.02734 0.4062 0.02734 0.5469h0.01953c0.1641-0.3555 0.6055-0.6367 1.082-0.6367 0.8516 0 1.238 0.6094 1.238 1.352v2.059h-0.6562v-1.84c0-0.5391-0.1484-1.016-0.7578-1.016-0.5195 0-0.8906 0.4336-0.8906 1.09v1.766h-0.6562v-2.605c0-0.1758-0.007813-0.4961-0.03125-0.7148h0.625" fill="#231f1f"/>
<path d="m26.28 121.2c-0.01562-0.5234-0.3242-0.9375-0.9336-0.9375-0.5664 0-1 0.418-1.043 0.9375zm0.6562 0.4883h-2.633c0.01953 0.5703 0.4961 1.012 1.078 1.012 0.4492 0 0.7773-0.2266 0.9688-0.5039l0.4609 0.3711c-0.3555 0.4609-0.8398 0.6758-1.43 0.6758-1.008 0-1.75-0.6992-1.75-1.742 0-1.035 0.7422-1.758 1.715-1.758 0.9805 0 1.598 0.6641 1.598 1.723 0 0.07031 0 0.1484-0.007812 0.2227" fill="#231f1f"/>
<path d="m29.58 119.8h0.625c0.01172 0.168 0.02734 0.4219 0.02734 0.5625h0.01953c0.1836-0.3867 0.5664-0.6523 1.016-0.6523 0.08984 0 0.1836 0.007812 0.2617 0.02734l-0.03125 0.6094c-0.08203-0.01953-0.1953-0.03516-0.3008-0.03516-0.6289 0-0.9297 0.5117-0.9297 1.066v1.742h-0.6602v-2.605c0-0.1758-0.007813-0.4961-0.02734-0.7148" fill="#231f1f"/>
<path d="m34.45 121.2c-0.01562-0.5234-0.3242-0.9375-0.9336-0.9375-0.5664 0-1 0.418-1.043 0.9375zm0.6562 0.4883h-2.633c0.02344 0.5703 0.5 1.012 1.078 1.012 0.4492 0 0.7773-0.2266 0.9688-0.5039l0.4609 0.3711c-0.3555 0.4609-0.8398 0.6758-1.43 0.6758-1.008 0-1.75-0.6992-1.75-1.742 0-1.035 0.7422-1.758 1.715-1.758 0.9805 0 1.598 0.6641 1.598 1.723 0 0.07031 0 0.1484-0.007813 0.2227" fill="#231f1f"/>
<path d="m37.82 120.7c-0.1484-0.2383-0.4375-0.4141-0.7734-0.4141-0.3008 0-0.6172 0.1172-0.6172 0.4336 0 0.2812 0.2539 0.3828 0.7578 0.4961 0.6328 0.1406 1.113 0.3984 1.113 0.9805 0 0.7852-0.6484 1.07-1.324 1.07-0.5039 0-1.02-0.1953-1.336-0.5938l0.4688-0.3984c0.1758 0.2578 0.5117 0.4609 0.8828 0.4609 0.3281 0 0.6602-0.1172 0.6602-0.4805 0-0.3086-0.3047-0.4219-0.8711-0.5547-0.4414-0.1055-0.9648-0.293-0.9648-0.918 0-0.7148 0.6211-1.016 1.254-1.016 0.4688 0 0.9648 0.1914 1.203 0.5469l-0.4531 0.3867" fill="#231f1f"/>
<path d="m40.7 120.3c-0.707 0-1.109 0.5664-1.109 1.195 0 0.6328 0.4023 1.207 1.109 1.207 0.7148 0 1.105-0.5742 1.105-1.207 0-0.6289-0.3906-1.195-1.105-1.195zm0 2.953c-1.016 0-1.789-0.7344-1.789-1.758 0-1.02 0.7734-1.742 1.789-1.742s1.793 0.7227 1.793 1.742c0 1.023-0.7773 1.758-1.793 1.758" fill="#231f1f"/>
<path d="m43.38 119.8h0.625c0.01172 0.168 0.02734 0.4219 0.02734 0.5625h0.01953c0.1836-0.3867 0.5664-0.6523 1.016-0.6523 0.09375 0 0.1836 0.007812 0.2617 0.02734l-0.03125 0.6094c-0.08203-0.01953-0.1953-0.03516-0.3008-0.03516-0.6289 0-0.9297 0.5117-0.9297 1.066v1.742h-0.6602v-2.605c0-0.1758-0.003906-0.4961-0.02734-0.7148" fill="#231f1f"/>
<path d="m47.68 120.3c-0.6719 0-1.121 0.5664-1.121 1.203 0 0.6406 0.4492 1.199 1.121 1.199 0.7188 0 1.105-0.582 1.105-1.207 0-0.6211-0.3867-1.195-1.105-1.195zm-1.082 4.543h-0.6562v-5h0.6445v0.5195h0.01953c0.2188-0.3516 0.6523-0.6094 1.199-0.6094 0.9883 0 1.66 0.7656 1.66 1.742s-0.6523 1.758-1.676 1.758c-0.4688 0-0.9219-0.2148-1.168-0.5859h-0.02344v2.176" fill="#231f1f"/>
<path d="m52 120.4h-0.8828v1.73c0 0.4023 0.1406 0.5625 0.4688 0.5625 0.1211 0 0.2734-0.02734 0.3867-0.08594l0.01953 0.5391c-0.1523 0.05859-0.3555 0.08984-0.5586 0.08984-0.625 0-0.9688-0.3477-0.9688-1.035v-1.801h-0.6367v-0.5391h0.6367v-0.9492h0.6523v0.9492h0.8828v0.5391" fill="#231f1f"/>
<path d="m53.34 123.2h-0.6602v-3.32h0.6602zm-0.3281-4.098c-0.2383 0-0.4336-0.1875-0.4336-0.418 0-0.2383 0.1953-0.4297 0.4336-0.4297s0.4414 0.1836 0.4414 0.4297c0 0.2383-0.2031 0.418-0.4414 0.418" fill="#231f1f"/>
<path d="m56.06 120.3c-0.707 0-1.105 0.5664-1.105 1.195 0 0.6328 0.3984 1.207 1.105 1.207 0.7148 0 1.109-0.5742 1.109-1.207 0-0.6289-0.3945-1.195-1.109-1.195zm0 2.953c-1.016 0-1.785-0.7344-1.785-1.758 0-1.02 0.7695-1.742 1.785-1.742s1.793 0.7227 1.793 1.742c0 1.023-0.7773 1.758-1.793 1.758" fill="#231f1f"/>
<path d="m59.36 119.8c0.01562 0.168 0.02734 0.4062 0.02734 0.5469h0.02344c0.1602-0.3555 0.6016-0.6367 1.078-0.6367 0.8555 0 1.238 0.6094 1.238 1.352v2.059h-0.6562v-1.84c0-0.5391-0.1484-1.016-0.7578-1.016-0.5195 0-0.8906 0.4336-0.8906 1.09v1.766h-0.6562v-2.605c0-0.1758-0.007813-0.4961-0.02734-0.7148h0.6211" fill="#231f1f"/>
<path transform="matrix(.1 0 0 -.1 0 207.9)" d="m1965 1208v-115" fill="none" stroke="#231f1f" stroke-width="5"/>
<path d="m196.5 102.2c-0.6289-1.703-1.711-3.816-2.852-5.129l2.852 1.031 2.855-1.031c-1.145 1.312-2.223 3.426-2.855 5.129" fill="#231f1f"/>
<path d="m219 87.19h-45v-17.25h45v17.25" fill="#fef0ca"/>
<path transform="matrix(.1 0 0 -.1 0 207.9)" d="m2190 1207h-450v172.5h450z" fill="none" stroke="#231f1f" stroke-width="5"/>
<path d="m188.2 76.73c-0.293-0.3203-0.7773-0.5391-1.344-0.5391-1.164 0-1.895 0.9023-1.895 1.988 0 1.105 0.7305 1.988 1.914 1.988 0.4609 0 0.8672-0.08984 1.156-0.2422v-1.383h-1.102v-0.5859h1.785v2.402c-0.5156 0.2812-1.133 0.4336-1.859 0.4336-1.551 0-2.648-1.086-2.648-2.613 0-1.547 1.133-2.598 2.641-2.598 0.7852 0 1.43 0.2539 1.832 0.6445l-0.4805 0.5039" fill="#231f1f"/>
<path d="m190.6 80.66h-0.6914v-4.961h0.6914v4.961" fill="#231f1f"/>
<path d="m195.1 80.66h-0.6953v-4.352h-1.59v-0.6094h3.875v0.6094h-1.59v4.352" fill="#231f1f"/>
<path d="m196.7 77.34h0.625c0.01562 0.168 0.02734 0.4219 0.02734 0.5586h0.02344c0.1797-0.3828 0.5664-0.6484 1.016-0.6484 0.08984 0 0.1797 0.003906 0.2578 0.02734l-0.02734 0.6094c-0.08594-0.02344-0.1953-0.03516-0.3008-0.03516-0.6328 0-0.9336 0.5117-0.9336 1.062v1.746h-0.6562v-2.605c0-0.1758-0.007813-0.5-0.03125-0.7148" fill="#231f1f"/>
<path d="m201 79.08c-0.6523 0-1.477 0.07031-1.477 0.6328 0 0.3906 0.3477 0.5195 0.6758 0.5195 0.6172 0 0.9609-0.4141 0.9609-0.9766v-0.1758zm0.1602-0.5664c0-0.4883-0.3281-0.7266-0.8203-0.7266-0.3711 0-0.7188 0.1602-0.9453 0.3867l-0.3477-0.4219c0.3203-0.3086 0.8164-0.4961 1.359-0.4961 0.9492 0 1.383 0.5664 1.383 1.301v1.449c0 0.2266 0.01563 0.5 0.05078 0.6602h-0.5938c-0.03516-0.1484-0.05859-0.3242-0.05859-0.4766h-0.01953c-0.2383 0.3555-0.6172 0.5586-1.113 0.5586-0.5234 0-1.203-0.2578-1.203-1.023 0-1 1.188-1.117 2.309-1.117v-0.09375" fill="#231f1f"/>
<path d="m205.2 78.18c-0.1406-0.2148-0.4492-0.3789-0.7656-0.3789-0.6836 0-1.086 0.5625-1.086 1.199 0 0.6289 0.4023 1.195 1.094 1.195 0.3359 0 0.625-0.1406 0.7969-0.3633l0.4414 0.3984c-0.2773 0.3242-0.707 0.5195-1.238 0.5195-1.023 0-1.785-0.6953-1.785-1.75 0-1.043 0.7578-1.75 1.773-1.75 0.4688 0 0.9727 0.1875 1.246 0.543l-0.4766 0.3867" fill="#231f1f"/>
<path d="m208 77.88h-0.8828v1.73c0 0.3984 0.1406 0.5586 0.4688 0.5586 0.1211 0 0.2734-0.02734 0.3867-0.08203l0.01953 0.5391c-0.1523 0.05469-0.3555 0.08984-0.5586 0.08984-0.625 0-0.9688-0.3516-0.9688-1.035v-1.801h-0.6367v-0.5391h0.6367v-0.9531h0.6523v0.9531h0.8828v0.5391" fill="#231f1f"/>
<g clip-path="url(#b)">
<path d="m232.5 130.4h-72v-27h72v27" fill="#fef0ca"/>
<path transform="matrix(.1 0 0 -.1 0 207.9)" d="m2325 775h-720v270h720z" fill="none" stroke="#231f1f" stroke-width="5"/>
</g>
<path d="m166.8 114.8h-0.6914v-4.957h0.6914v4.957" fill="#231f1f"/>
<path d="m168.5 111.4c0.01172 0.168 0.02734 0.4062 0.02734 0.543h0.01953c0.1641-0.3555 0.6055-0.6367 1.078-0.6367 0.8555 0 1.242 0.6094 1.242 1.352v2.059h-0.6602v-1.84c0-0.5391-0.1445-1.016-0.7539-1.016-0.5195 0-0.8906 0.4336-0.8906 1.09v1.766h-0.6602v-2.605c0-0.1719-0.003907-0.4961-0.02734-0.7109h0.625" fill="#231f1f"/>
<path d="m174.3 112.3c-0.1406-0.2188-0.4492-0.3789-0.7656-0.3789-0.6875 0-1.086 0.5586-1.086 1.199 0 0.6289 0.3984 1.195 1.094 1.195 0.3359 0 0.625-0.1406 0.7969-0.3633l0.4414 0.3984c-0.2773 0.3203-0.707 0.5195-1.238 0.5195-1.023 0-1.785-0.6953-1.785-1.75 0-1.047 0.7539-1.754 1.77-1.754 0.4727 0 0.9766 0.1914 1.25 0.5469l-0.4766 0.3867" fill="#231f1f"/>
<path d="m175.4 111.4h0.625c0.01562 0.168 0.02734 0.418 0.02734 0.5586h0.02344c0.1797-0.3867 0.5664-0.6523 1.012-0.6523 0.09375 0 0.1836 0.007812 0.2617 0.02734l-0.02734 0.6094c-0.08594-0.01953-0.1953-0.03516-0.3008-0.03516-0.6328 0-0.9336 0.5117-0.9336 1.066v1.742h-0.6562v-2.605c0-0.1719-0.007813-0.4961-0.03125-0.7109" fill="#231f1f"/>
<path d="m180.3 112.8c-0.01172-0.5234-0.3203-0.9375-0.9297-0.9375-0.5664 0-1.004 0.418-1.043 0.9375zm0.6602 0.4883h-2.633c0.01953 0.5703 0.4961 1.012 1.078 1.012 0.4492 0 0.7773-0.2266 0.9648-0.5039l0.4648 0.3711c-0.3594 0.4609-0.8438 0.6797-1.43 0.6797-1.008 0-1.75-0.7031-1.75-1.746 0-1.035 0.7422-1.758 1.715-1.758 0.9805 0 1.598 0.668 1.598 1.723 0 0.07031 0 0.1484-0.007812 0.2227" fill="#231f1f"/>
<path d="m183.7 113.2c-0.6523 0-1.48 0.07031-1.48 0.6328 0 0.3906 0.3516 0.5156 0.6797 0.5156 0.6172 0 0.9609-0.4141 0.9609-0.9727v-0.1758zm0.1602-0.5664c0-0.4922-0.3281-0.7266-0.8203-0.7266-0.3711 0-0.7188 0.1602-0.9453 0.3828l-0.3516-0.418c0.3242-0.3086 0.8203-0.5 1.359-0.5 0.9531 0 1.387 0.5664 1.387 1.305v1.449c0 0.2227 0.01562 0.4961 0.05078 0.6562h-0.5938c-0.03516-0.1445-0.05859-0.3203-0.05859-0.4766h-0.01953c-0.2383 0.3594-0.6172 0.5625-1.113 0.5625-0.5273 0-1.207-0.2617-1.207-1.023 0-1 1.191-1.121 2.312-1.121v-0.08984" fill="#231f1f"/>
<path d="m187.4 112.3c-0.1445-0.2383-0.4336-0.4141-0.7695-0.4141-0.3008 0-0.6172 0.1172-0.6172 0.4336 0 0.2812 0.2539 0.3867 0.7578 0.4961 0.6289 0.1406 1.113 0.3984 1.113 0.9805 0 0.7852-0.6523 1.074-1.324 1.074-0.5039 0-1.023-0.1992-1.34-0.5977l0.4727-0.3984c0.1758 0.2578 0.5117 0.4609 0.8828 0.4609 0.3281 0 0.6562-0.1172 0.6562-0.4805 0-0.3086-0.3008-0.4219-0.8672-0.5547-0.4414-0.1055-0.9648-0.293-0.9648-0.918 0-0.7148 0.6211-1.016 1.254-1.016 0.4688 0 0.9648 0.1914 1.203 0.5469l-0.457 0.3867" fill="#231f1f"/>
<path d="m191.2 112.8c-0.01562-0.5234-0.3203-0.9375-0.9297-0.9375-0.5703 0-1.004 0.418-1.047 0.9375zm0.6602 0.4883h-2.637c0.02344 0.5703 0.5 1.012 1.082 1.012 0.4453 0 0.7773-0.2266 0.9648-0.5039l0.4609 0.3711c-0.3555 0.4609-0.8398 0.6797-1.426 0.6797-1.012 0-1.754-0.7031-1.754-1.746 0-1.035 0.7422-1.758 1.719-1.758 0.9805 0 1.594 0.668 1.594 1.723 0 0.07031 0 0.1484-0.003907 0.2227" fill="#231f1f"/>
<path d="m194.3 114.3c0.6758 0 1.121-0.5586 1.121-1.195 0-0.6406-0.4453-1.207-1.121-1.207-0.7188 0-1.098 0.5742-1.098 1.199 0 0.6211 0.3789 1.203 1.098 1.203zm-0.1094 0.5547c-1.023 0-1.676-0.7852-1.676-1.758 0-0.9805 0.6719-1.746 1.668-1.746 0.5391 0 0.9531 0.2656 1.184 0.5898h0.01562v-2.473h0.6562v5.293h-0.6367v-0.5234h-0.01562c-0.25 0.3984-0.7266 0.6172-1.195 0.6172" fill="#231f1f"/>
<path d="m199.6 114.8h-0.6602v-3.316h0.6602zm-0.3281-4.098c-0.2383 0-0.4336-0.1875-0.4336-0.418 0-0.2383 0.1953-0.4258 0.4336-0.4258 0.2383 0 0.4414 0.1797 0.4414 0.4258 0 0.2383-0.2031 0.418-0.4414 0.418" fill="#231f1f"/>
<path d="m201.4 111.4c0.01562 0.168 0.02734 0.4062 0.02734 0.543h0.02344c0.1602-0.3555 0.6016-0.6367 1.078-0.6367 0.8516 0 1.238 0.6094 1.238 1.352v2.059h-0.6602v-1.84c0-0.5391-0.1445-1.016-0.7539-1.016-0.5195 0-0.8906 0.4336-0.8906 1.09v1.766h-0.6562v-2.605c0-0.1719-0.007813-0.4961-0.03125-0.7109h0.625" fill="#231f1f"/>
<path d="m206.5 112h-0.8828v1.727c0 0.4023 0.1406 0.5625 0.4688 0.5625 0.1172 0 0.2734-0.02734 0.3828-0.08594l0.02344 0.5391c-0.1562 0.05859-0.3594 0.09375-0.5625 0.09375-0.6211 0-0.9648-0.3516-0.9648-1.039v-1.797h-0.6367v-0.5391h0.6367v-0.9531h0.6523v0.9531h0.8828v0.5391" fill="#231f1f"/>
<path d="m209.6 112.8c-0.01172-0.5234-0.3203-0.9375-0.9297-0.9375-0.5664 0-1.004 0.418-1.043 0.9375zm0.6602 0.4883h-2.633c0.01953 0.5703 0.4961 1.012 1.078 1.012 0.4492 0 0.7773-0.2266 0.9648-0.5039l0.4648 0.3711c-0.3594 0.4609-0.8438 0.6797-1.43 0.6797-1.008 0-1.75-0.7031-1.75-1.746 0-1.035 0.7422-1.758 1.715-1.758 0.9805 0 1.598 0.668 1.598 1.723 0 0.07031 0 0.1484-0.007813 0.2227" fill="#231f1f"/>
<path d="m212.9 112.3c-0.1484-0.2383-0.4336-0.4141-0.7695-0.4141-0.3008 0-0.6172 0.1172-0.6172 0.4336 0 0.2812 0.25 0.3867 0.7539 0.4961 0.6328 0.1406 1.117 0.3984 1.117 0.9805 0 0.7852-0.6523 1.074-1.324 1.074-0.5039 0-1.023-0.1992-1.34-0.5977l0.4688-0.3984c0.1758 0.2578 0.5117 0.4609 0.8828 0.4609 0.332 0 0.6602-0.1172 0.6602-0.4805 0-0.3086-0.3008-0.4219-0.8711-0.5547-0.4375-0.1055-0.9648-0.293-0.9648-0.918 0-0.7148 0.625-1.016 1.254-1.016 0.4688 0 0.9648 0.1914 1.203 0.5469l-0.4531 0.3867" fill="#231f1f"/>
<path d="m215.9 112h-0.8828v1.727c0 0.4023 0.1406 0.5625 0.4727 0.5625 0.1172 0 0.2695-0.02734 0.3828-0.08594l0.01953 0.5391c-0.1523 0.05859-0.3555 0.09375-0.5586 0.09375-0.6211 0-0.9648-0.3516-0.9648-1.039v-1.797h-0.6367v-0.5391h0.6367v-0.9531h0.6484v0.9531h0.8828v0.5391" fill="#231f1f"/>
<path d="m217.2 114.8h-0.6562v-3.316h0.6562zm-0.3281-4.098c-0.2383 0-0.4336-0.1875-0.4336-0.418 0-0.2383 0.1953-0.4258 0.4336-0.4258s0.4414 0.1797 0.4414 0.4258c0 0.2383-0.2031 0.418-0.4414 0.418" fill="#231f1f"/>
<path d="m219 111.4c0.01562 0.168 0.02734 0.4062 0.02734 0.543h0.02344c0.1602-0.3555 0.6016-0.6367 1.078-0.6367 0.8555 0 1.238 0.6094 1.238 1.352v2.059h-0.6562v-1.84c0-0.5391-0.1484-1.016-0.7578-1.016-0.5195 0-0.8906 0.4336-0.8906 1.09v1.766h-0.6562v-2.605c0-0.1719-0.007813-0.4961-0.02734-0.7109h0.6211" fill="#231f1f"/>
<path d="m224.4 113.2c-0.6523 0-1.48 0.07031-1.48 0.6328 0 0.3906 0.3516 0.5156 0.6797 0.5156 0.6172 0 0.9609-0.4141 0.9609-0.9727v-0.1758zm0.1602-0.5664c0-0.4922-0.3281-0.7266-0.8203-0.7266-0.3711 0-0.7227 0.1602-0.9453 0.3828l-0.3516-0.418c0.3242-0.3086 0.8203-0.5 1.359-0.5 0.9531 0 1.387 0.5664 1.387 1.305v1.449c0 0.2227 0.01562 0.4961 0.05078 0.6562h-0.5977c-0.03516-0.1445-0.05469-0.3203-0.05469-0.4766h-0.01953c-0.2383 0.3594-0.6172 0.5625-1.117 0.5625-0.5234 0-1.203-0.2617-1.203-1.023 0-1 1.191-1.121 2.312-1.121v-0.08984" fill="#231f1f"/>
<path d="m226.9 114.8h-0.6562v-5.293h0.6562v5.293" fill="#231f1f"/>
<path d="m168.7 120.7c-0.1406-0.2188-0.4492-0.3789-0.7656-0.3789-0.6836 0-1.082 0.5625-1.082 1.199 0 0.6289 0.3984 1.195 1.09 1.195 0.3359 0 0.625-0.1367 0.8008-0.3633l0.4414 0.3984c-0.2812 0.3242-0.7109 0.5195-1.242 0.5195-1.023 0-1.785-0.6914-1.785-1.75 0-1.043 0.7578-1.75 1.773-1.75 0.4688 0 0.9727 0.1875 1.246 0.543l-0.4766 0.3867" fill="#231f1f"/>
<path d="m171.7 121.6c-0.6523 0-1.48 0.07422-1.48 0.6328 0 0.3906 0.3516 0.5195 0.6797 0.5195 0.6172 0 0.9609-0.4141 0.9609-0.9766v-0.1758zm0.1602-0.5664c0-0.4883-0.3281-0.7266-0.8203-0.7266-0.3711 0-0.7227 0.1602-0.9453 0.3828l-0.3516-0.418c0.3242-0.3086 0.8203-0.4961 1.359-0.4961 0.9531 0 1.387 0.5664 1.387 1.301v1.449c0 0.2266 0.01172 0.4961 0.05078 0.6602h-0.5977c-0.03516-0.1484-0.05469-0.3242-0.05469-0.4766h-0.01953c-0.2422 0.3555-0.6172 0.5586-1.117 0.5586-0.5234 0-1.203-0.2578-1.203-1.02 0-1.004 1.191-1.121 2.312-1.121v-0.09375" fill="#231f1f"/>
<path d="m174.3 123.2h-0.6562v-5.297h0.6562v5.297" fill="#231f1f"/>
<path d="m177.7 120.7c-0.1367-0.2188-0.4453-0.3789-0.7617-0.3789-0.6875 0-1.086 0.5625-1.086 1.199 0 0.6289 0.3984 1.195 1.094 1.195 0.3359 0 0.6211-0.1367 0.7969-0.3633l0.4414 0.3984c-0.2812 0.3242-0.707 0.5195-1.238 0.5195-1.023 0-1.785-0.6914-1.785-1.75 0-1.043 0.7539-1.75 1.77-1.75 0.4688 0 0.9727 0.1875 1.246 0.543l-0.4766 0.3867" fill="#231f1f"/>
<path d="m179.5 123.2h-0.6602v-3.32h0.6602zm-0.332-4.098c-0.2383 0-0.4336-0.1914-0.4336-0.4219 0-0.2383 0.1953-0.4258 0.4336-0.4258 0.2383 0 0.4414 0.1836 0.4414 0.4258 0 0.2383-0.2031 0.4219-0.4414 0.4219" fill="#231f1f"/>
<path d="m183 123.2c-0.01562-0.168-0.02734-0.4062-0.02734-0.5469h-0.01562c-0.168 0.3477-0.6016 0.6367-1.082 0.6367-0.8555 0-1.242-0.6094-1.242-1.352v-2.059h0.6602v1.836c0 0.5469 0.1445 1.02 0.7539 1.02 0.5273 0 0.8906-0.4336 0.8906-1.09v-1.766h0.6602v2.605c0 0.1758 0.003906 0.4961 0.02734 0.7148h-0.625" fill="#231f1f"/>
<path d="m186.4 119.7c0.4414 0 0.8281 0.1953 1.031 0.6641 0.2227-0.4297 0.6562-0.6641 1.125-0.6641 0.8555 0 1.242 0.6094 1.242 1.352v2.059h-0.6602v-1.844c0-0.5391-0.1602-1.016-0.7344-1.016-0.6016 0-0.8398 0.5469-0.8398 1.066v1.793h-0.6602v-1.977c0-0.5195-0.1758-0.8828-0.6992-0.8828-0.4844 0-0.8477 0.4336-0.8477 1.094v1.766h-0.6602v-2.605c0-0.1758-0.003906-0.4961-0.02734-0.7148h0.625c0.01172 0.168 0.02734 0.4062 0.02734 0.5469h0.01953c0.168-0.3516 0.5547-0.6367 1.059-0.6367" fill="#231f1f"/>
<path d="m194.6 121.6c-0.6523 0-1.48 0.07422-1.48 0.6328 0 0.3906 0.3516 0.5195 0.6797 0.5195 0.6172 0 0.9609-0.4141 0.9609-0.9766v-0.1758zm0.1602-0.5664c0-0.4883-0.3281-0.7266-0.8203-0.7266-0.3711 0-0.7227 0.1602-0.9453 0.3828l-0.3516-0.418c0.3242-0.3086 0.8203-0.4961 1.359-0.4961 0.9531 0 1.387 0.5664 1.387 1.301v1.449c0 0.2266 0.01172 0.4961 0.05078 0.6602h-0.5977c-0.03516-0.1484-0.05469-0.3242-0.05469-0.4766h-0.01953c-0.2422 0.3555-0.6172 0.5586-1.117 0.5586-0.5234 0-1.203-0.2578-1.203-1.02 0-1.004 1.191-1.121 2.312-1.121v-0.09375" fill="#231f1f"/>
<path d="m198.2 120.3c-0.6719 0-1.121 0.5703-1.121 1.207 0 0.6367 0.4492 1.195 1.121 1.195 0.7227 0 1.109-0.5781 1.109-1.203s-0.3867-1.199-1.109-1.199zm-1.098 2.34v0.5273h-0.6367v-5.297h0.6562v2.473h0.02344c0.2227-0.3203 0.6367-0.5859 1.184-0.5859 0.9844 0 1.66 0.7617 1.66 1.742 0 0.9727-0.6523 1.758-1.676 1.758-0.4688 0-0.9375-0.2188-1.199-0.6172h-0.01172" fill="#231f1f"/>
<path d="m202.7 120.7c-0.1484-0.2383-0.4336-0.4141-0.7695-0.4141-0.3008 0-0.6172 0.1211-0.6172 0.4336 0 0.2812 0.25 0.3867 0.7539 0.5 0.6328 0.1367 1.117 0.3984 1.117 0.9805 0 0.7812-0.6523 1.07-1.324 1.07-0.5039 0-1.023-0.1953-1.34-0.5938l0.4688-0.3984c0.1758 0.2578 0.5117 0.4609 0.8828 0.4609 0.3281 0 0.6602-0.1211 0.6602-0.4844 0-0.3086-0.3008-0.418-0.8711-0.5547-0.4375-0.1055-0.9648-0.293-0.9648-0.9141 0-0.7148 0.625-1.016 1.254-1.016 0.4688 0 0.9648 0.1875 1.203 0.543l-0.4531 0.3867" fill="#231f1f"/>
<path d="m205.6 120.3c-0.707 0-1.105 0.5703-1.105 1.199 0 0.6289 0.3984 1.203 1.105 1.203 0.7148 0 1.105-0.5742 1.105-1.203 0-0.6289-0.3906-1.199-1.105-1.199zm0 2.957c-1.016 0-1.785-0.7344-1.785-1.758 0-1.023 0.7695-1.742 1.785-1.742s1.793 0.7188 1.793 1.742c0 1.023-0.7773 1.758-1.793 1.758" fill="#231f1f"/>
<path d="m208.3 119.8h0.625c0.01172 0.168 0.02734 0.4219 0.02734 0.5586h0.01953c0.1836-0.3828 0.5664-0.6484 1.016-0.6484 0.09375 0 0.1836 0.003906 0.2578 0.02734l-0.02734 0.6094c-0.08203-0.02344-0.1953-0.03516-0.3008-0.03516-0.6289 0-0.9297 0.5117-0.9297 1.062v1.746h-0.6602v-2.605c0-0.1758-0.003906-0.4961-0.02734-0.7148" fill="#231f1f"/>
<path d="m212.6 120.3c-0.6719 0-1.121 0.5703-1.121 1.207 0 0.6367 0.4492 1.195 1.121 1.195 0.7188 0 1.105-0.5781 1.105-1.203s-0.3867-1.199-1.105-1.199zm-1.078 4.547h-0.6602v-5h0.6445v0.5195h0.01953c0.2188-0.3516 0.6523-0.6094 1.199-0.6094 0.9883 0 1.66 0.7617 1.66 1.742 0 0.9727-0.6523 1.758-1.676 1.758-0.4688 0-0.9219-0.2188-1.168-0.5898h-0.01953v2.18" fill="#231f1f"/>
<path d="m216.9 120.4h-0.8828v1.73c0 0.3984 0.1406 0.5586 0.4688 0.5586 0.1211 0 0.2734-0.02734 0.3867-0.08203l0.01953 0.5391c-0.1523 0.05469-0.3555 0.08984-0.5586 0.08984-0.625 0-0.9688-0.3516-0.9688-1.035v-1.801h-0.6367v-0.5391h0.6367v-0.9531h0.6523v0.9531h0.8828v0.5391" fill="#231f1f"/>
<path d="m218.3 123.2h-0.6602v-3.32h0.6602zm-0.3281-4.098c-0.2383 0-0.4336-0.1914-0.4336-0.4219 0-0.2383 0.1953-0.4258 0.4336-0.4258 0.2383 0 0.4414 0.1836 0.4414 0.4258 0 0.2383-0.2031 0.4219-0.4414 0.4219" fill="#231f1f"/>
<path d="m221 120.3c-0.707 0-1.105 0.5703-1.105 1.199 0 0.6289 0.3984 1.203 1.105 1.203 0.7148 0 1.109-0.5742 1.109-1.203 0-0.6289-0.3945-1.199-1.109-1.199zm0 2.957c-1.016 0-1.785-0.7344-1.785-1.758 0-1.023 0.7695-1.742 1.785-1.742s1.793 0.7188 1.793 1.742c0 1.023-0.7773 1.758-1.793 1.758" fill="#231f1f"/>
<path d="m224.3 119.8c0.01562 0.168 0.02734 0.4062 0.02734 0.5469h0.02344c0.1602-0.3594 0.6016-0.6367 1.078-0.6367 0.8516 0 1.238 0.6094 1.238 1.352v2.059h-0.6602v-1.844c0-0.5391-0.1445-1.016-0.7539-1.016-0.5195 0-0.8906 0.4336-0.8906 1.094v1.766h-0.6562v-2.605c0-0.1758-0.007812-0.4961-0.03125-0.7148h0.625" fill="#231f1f"/>
<path transform="matrix(.1 0 0 -.1 0 207.9)" d="m1164 1902v-115" fill="none" stroke="#231f1f" stroke-width="5"/>
<path d="m116.4 32.83c-0.6328-1.703-1.711-3.816-2.852-5.129l2.852 1.031 2.855-1.031c-1.145 1.312-2.223 3.426-2.855 5.129" fill="#231f1f"/>
<path transform="matrix(.1 0 0 -.1 0 207.9)" d="m1164 1553v-115" fill="none" stroke="#231f1f" stroke-width="5"/>
<path d="m116.4 67.7c-0.6328-1.703-1.711-3.816-2.852-5.125l2.852 1.031 2.855-1.031c-1.145 1.309-2.223 3.422-2.855 5.125" fill="#231f1f"/>
<path transform="matrix(.1 0 0 -.1 0 207.9)" d="m1164 1208v-115" fill="none" stroke="#231f1f" stroke-width="5"/>
<path d="m116.4 102.2c-0.6328-1.707-1.711-3.82-2.852-5.129l2.852 1.031 2.855-1.031c-1.145 1.309-2.223 3.422-2.855 5.129" fill="#231f1f"/>
<path transform="matrix(.1 0 0 -.1 0 207.9)" d="m1164 776v-115" fill="none" stroke="#231f1f" stroke-width="5"/>
<path d="m116.4 145.4c-0.6328-1.703-1.711-3.816-2.852-5.125l2.852 1.031 2.855-1.031c-1.145 1.309-2.223 3.422-2.855 5.125" fill="#231f1f"/>
<path transform="matrix(.1 0 0 -.1 0 207.9)" d="m1164 341.8v-115" fill="none" stroke="#231f1f" stroke-width="5"/>
<path d="m116.4 188.8c-0.6328-1.703-1.711-3.82-2.852-5.129l2.852 1.031 2.855-1.031c-1.145 1.309-2.223 3.426-2.855 5.129" fill="#231f1f"/>
<path d="m143.4 17.5h-54v-17.25h54v17.25" fill="#fef0ca"/>
<path transform="matrix(.1 0 0 -.1 0 207.9)" d="m1434 1904h-540v172.5h540z" fill="none" stroke="#231f1f" stroke-width="5"/>
<path d="m97.81 8.207h0.7344c0.6797 0 1.156-0.2266 1.156-0.8125 0-0.5977-0.4883-0.793-1.141-0.793h-0.75zm-0.6953-2.191h1.516c1.07 0 1.77 0.4102 1.77 1.379 0 0.9922-0.7773 1.398-1.805 1.398h-0.7852v2.18h-0.6953v-4.957" fill="#231f1f"/>
<path d="m102.8 9.391c-0.6523 0-1.477 0.07031-1.477 0.6289 0 0.3906 0.3477 0.5195 0.6797 0.5195 0.6133 0 0.957-0.4141 0.957-0.9727v-0.1758zm0.1602-0.5703c0-0.4883-0.3281-0.7266-0.8203-0.7266-0.3711 0-0.7188 0.1602-0.9453 0.3867l-0.3477-0.4219c0.3203-0.3086 0.8203-0.4961 1.355-0.4961 0.9531 0 1.391 0.5664 1.391 1.301v1.449c0 0.2266 0.01172 0.5 0.04687 0.6602h-0.5938c-0.03516-0.1484-0.05859-0.3242-0.05859-0.4766h-0.01953c-0.2383 0.3555-0.6172 0.5586-1.113 0.5586-0.5273 0-1.207-0.2578-1.207-1.02 0-1.004 1.191-1.121 2.312-1.121v-0.09375" fill="#231f1f"/>
<path d="m104.6 7.652h0.625c0.01562 0.168 0.02734 0.4219 0.02734 0.5625h0.02344c0.1797-0.3867 0.5664-0.6523 1.016-0.6523 0.08984 0 0.1797 0.007812 0.2578 0.02734l-0.03125 0.6094c-0.08203-0.01953-0.1914-0.03516-0.3008-0.03516-0.6289 0-0.9297 0.5117-0.9297 1.062v1.746h-0.6602v-2.605c0-0.1758-0.003907-0.4961-0.02734-0.7148" fill="#231f1f"/>
<path d="m109 9.391c-0.6484 0-1.477 0.07031-1.477 0.6289 0 0.3906 0.3516 0.5195 0.6797 0.5195 0.6172 0 0.9609-0.4141 0.9609-0.9727v-0.1758zm0.1641-0.5703c0-0.4883-0.3281-0.7266-0.8203-0.7266-0.3711 0-0.7227 0.1602-0.9453 0.3867l-0.3516-0.4219c0.3242-0.3086 0.8203-0.4961 1.359-0.4961 0.9531 0 1.387 0.5664 1.387 1.301v1.449c0 0.2266 0.01563 0.5 0.05078 0.6602h-0.5977c-0.03125-0.1484-0.05469-0.3242-0.05469-0.4766h-0.01953c-0.2383 0.3555-0.6172 0.5586-1.113 0.5586-0.5273 0-1.207-0.2578-1.207-1.02 0-1.004 1.191-1.121 2.312-1.121v-0.09375" fill="#231f1f"/>
<path d="m112.4 8.191h-0.8828v1.73c0 0.3984 0.1406 0.5586 0.4688 0.5586 0.1211 0 0.2734-0.02734 0.3867-0.08203l0.02344 0.5391c-0.1562 0.05469-0.3594 0.08984-0.5625 0.08984-0.6211 0-0.9648-0.3477-0.9648-1.035v-1.801h-0.6406v-0.5391h0.6406v-0.9531h0.6484v0.9531h0.8828v0.5391" fill="#231f1f"/>
<path d="m113.8 8.156c0.1523-0.3281 0.5742-0.5938 1.047-0.5938 0.8555 0 1.242 0.6094 1.242 1.352v2.059h-0.6602v-1.836c0-0.5391-0.1367-1.016-0.75-1.016-0.5156 0-0.8945 0.4336-0.8945 1.094v1.758h-0.6562v-5.293h0.6562v2.477h0.01562" fill="#231f1f"/>
<path d="m118.5 10.26h0.01562l0.918-2.605h0.6992l-1.613 4.105c-0.2148 0.5508-0.4961 0.8945-1.145 0.8945-0.1406 0-0.2891-0.01172-0.4375-0.04688l0.06641-0.582c0.1016 0.03516 0.2227 0.05469 0.3281 0.05469 0.3438 0 0.4766-0.1953 0.6133-0.5508l0.2109-0.5547-1.422-3.32h0.7383l1.027 2.605" fill="#231f1f"/>
<path d="m120.7 7.652h0.625c0.01562 0.168 0.02734 0.4219 0.02734 0.5625h0.02344c0.1797-0.3867 0.5664-0.6523 1.012-0.6523 0.09375 0 0.1836 0.007812 0.2617 0.02734l-0.02734 0.6094c-0.08594-0.01953-0.1953-0.03516-0.3008-0.03516-0.6328 0-0.9336 0.5117-0.9336 1.062v1.746h-0.6562v-2.605c0-0.1758-0.007812-0.4961-0.03125-0.7148" fill="#231f1f"/>
<path d="m124.7 8.109c-0.707 0-1.109 0.5664-1.109 1.195 0 0.6328 0.4023 1.207 1.109 1.207 0.7148 0 1.105-0.5742 1.105-1.207 0-0.6289-0.3906-1.195-1.105-1.195zm0 2.953c-1.016 0-1.785-0.7344-1.785-1.758 0-1.023 0.7695-1.742 1.785-1.742s1.793 0.7188 1.793 1.742c0 1.023-0.7773 1.758-1.793 1.758" fill="#231f1f"/>
<path d="m128.1 10.97h-0.6562v-3.32h0.6562zm-0.3281-4.098c-0.2383 0-0.4336-0.1875-0.4336-0.4219s0.1953-0.4258 0.4336-0.4258 0.4414 0.1836 0.4414 0.4258c0 0.2383-0.2031 0.4219-0.4414 0.4219" fill="#231f1f"/>
<path d="m130.8 10.51c0.6719 0 1.121-0.5625 1.121-1.199s-0.4492-1.203-1.121-1.203c-0.7227 0-1.098 0.5742-1.098 1.195 0 0.625 0.375 1.207 1.098 1.207zm-0.1133 0.5508c-1.02 0-1.672-0.7852-1.672-1.758 0-0.9805 0.6719-1.742 1.668-1.742 0.5391 0 0.9492 0.2656 1.184 0.5859h0.01172v-2.469h0.6602v5.293h-0.6367v-0.5273h-0.01562c-0.2539 0.4023-0.7305 0.6172-1.199 0.6172" fill="#231f1f"/>
<path d="m135.5 8.492c-0.1484-0.2383-0.4336-0.4141-0.7695-0.4141-0.3008 0-0.6172 0.1211-0.6172 0.4375 0 0.2773 0.2539 0.3828 0.7578 0.4961 0.6289 0.1406 1.113 0.3984 1.113 0.9805 0 0.7852-0.6523 1.07-1.324 1.07-0.5039 0-1.023-0.1953-1.34-0.5938l0.4727-0.3984c0.1758 0.2578 0.5117 0.4609 0.8828 0.4609 0.3281 0 0.6562-0.1211 0.6562-0.4844 0-0.3086-0.3008-0.418-0.8672-0.5508-0.4414-0.1055-0.9688-0.2969-0.9688-0.918 0-0.7148 0.625-1.016 1.254-1.016 0.4688 0 0.9688 0.1875 1.207 0.5469l-0.457 0.3828" fill="#231f1f"/>
<path d="m138.9 52.27h-45v-17.25h45v17.25" fill="#fef0ca"/>
<path transform="matrix(.1 0 0 -.1 0 207.9)" d="m1389 1556h-450v172.5h450z" fill="none" stroke="#231f1f" stroke-width="5"/>
<path d="m111.2 42.98h0.7344c0.6797 0 1.156-0.2227 1.156-0.8125 0-0.5938-0.4922-0.793-1.145-0.793h-0.7461zm-0.6953-2.191h1.516c1.07 0 1.77 0.4141 1.77 1.379 0 0.9961-0.7773 1.402-1.809 1.402h-0.7812v2.176h-0.6953v-4.957" fill="#231f1f"/>
<path d="m116.4 45.74h-0.6914v-4.348h-1.59v-0.6094h3.871v0.6094h-1.59v4.348" fill="#231f1f"/>
<path d="m118.7 40.79h0.6953v2.074h2.504v-2.074h0.7031v4.957h-0.7031v-2.27h-2.504v2.27h-0.6953v-4.957" fill="#231f1f"/>
<path d="m138.9 87.19h-45v-17.25h45v17.25" fill="#fef0ca"/>
<path transform="matrix(.1 0 0 -.1 0 207.9)" d="m1389 1207h-450v172.5h450z" fill="none" stroke="#231f1f" stroke-width="5"/>
<path d="m106.4 77.89h0.01562l2.211-2.188h0.9609l-2.41 2.27 2.559 2.691h-0.9961l-2.324-2.562h-0.01562v2.562h-0.6914v-4.961h0.6914v2.188" fill="#231f1f"/>
<path d="m110.9 80.66h-0.6602v-3.32h0.6602zm-0.3281-4.098c-0.2383 0-0.4375-0.1875-0.4375-0.4219 0-0.2383 0.1992-0.4258 0.4375-0.4258 0.2383 0 0.4375 0.1836 0.4375 0.4258 0 0.2383-0.1992 0.4219-0.4375 0.4219" fill="#231f1f"/>
<path d="m113.6 80.2c0.6758 0 1.121-0.5586 1.121-1.195 0-0.6367-0.4453-1.203-1.121-1.203-0.7188 0-1.098 0.5742-1.098 1.195 0 0.625 0.3789 1.203 1.098 1.203zm-0.1094 0.5547c-1.023 0-1.676-0.7852-1.676-1.758 0-0.9805 0.6719-1.742 1.668-1.742 0.5391 0 0.9531 0.2656 1.184 0.5859h0.01562v-2.473h0.6562v5.297h-0.6367v-0.5273h-0.01562c-0.25 0.4023-0.7266 0.6172-1.195 0.6172" fill="#231f1f"/>
<path d="m117.1 77.34c0.01562 0.168 0.02734 0.4062 0.02734 0.5469h0.01953c0.1641-0.3594 0.6055-0.6367 1.078-0.6367 0.8555 0 1.242 0.6094 1.242 1.352v2.059h-0.6602v-1.844c0-0.5391-0.1445-1.016-0.7539-1.016-0.5195 0-0.8906 0.4336-0.8906 1.094v1.766h-0.6602v-2.605c0-0.1758-0.003906-0.4961-0.02734-0.7148h0.625" fill="#231f1f"/>
<path d="m123 78.71c-0.01172-0.5273-0.3203-0.9414-0.9297-0.9414-0.5664 0-1 0.4219-1.043 0.9414zm0.6602 0.4883h-2.633c0.01953 0.5664 0.4961 1.008 1.078 1.008 0.4492 0 0.7773-0.2227 0.9688-0.5039l0.4609 0.3711c-0.3594 0.4648-0.8398 0.6797-1.43 0.6797-1.008 0-1.75-0.6992-1.75-1.742 0-1.039 0.7422-1.758 1.715-1.758 0.9805 0 1.598 0.6641 1.598 1.723 0 0.07031 0 0.1445-0.007812 0.2227" fill="#231f1f"/>
<path d="m125.9 79.95h0.01172l0.918-2.605h0.6992l-1.609 4.105c-0.2148 0.5508-0.4961 0.8945-1.148 0.8945-0.1406 0-0.2852-0.01172-0.4336-0.04688l0.0625-0.582c0.1055 0.03516 0.2266 0.05469 0.3281 0.05469 0.3438 0 0.4766-0.1953 0.6172-0.5508l0.2109-0.5547-1.422-3.32h0.7344l1.031 2.605" fill="#231f1f"/>
<path d="m152.4 130.4h-72v-27h72v27" fill="#fef0ca"/>
<path transform="matrix(.1 0 0 -.1 0 207.9)" d="m1524 775h-720v270h720z" fill="none" stroke="#231f1f" stroke-width="5"/>
<path d="m89.68 114.8h-0.6914v-4.957h0.6914v4.957" fill="#231f1f"/>
<path d="m91.44 111.4c0.01562 0.168 0.02734 0.4062 0.02734 0.543h0.02344c0.1602-0.3555 0.6016-0.6367 1.078-0.6367 0.8516 0 1.238 0.6094 1.238 1.352v2.059h-0.6602v-1.84c0-0.5391-0.1445-1.016-0.7539-1.016-0.5195 0-0.8906 0.4336-0.8906 1.09v1.766h-0.6562v-2.605c0-0.1719-0.007812-0.4961-0.03125-0.7109h0.625" fill="#231f1f"/>
<path d="m97.25 112.3c-0.1406-0.2188-0.4492-0.3789-0.7656-0.3789-0.6836 0-1.082 0.5586-1.082 1.199 0 0.6289 0.3984 1.195 1.09 1.195 0.3359 0 0.625-0.1406 0.8008-0.3633l0.4414 0.3984c-0.2812 0.3203-0.7109 0.5195-1.242 0.5195-1.023 0-1.785-0.6953-1.785-1.75 0-1.047 0.7578-1.754 1.773-1.754 0.4688 0 0.9727 0.1914 1.246 0.5469l-0.4766 0.3867" fill="#231f1f"/>
<path d="m98.35 111.4h0.6211c0.01562 0.168 0.02734 0.418 0.02734 0.5586h0.02344c0.1797-0.3867 0.5664-0.6523 1.016-0.6523 0.08984 0 0.1797 0.007812 0.2578 0.02734l-0.02734 0.6094c-0.08594-0.01953-0.1953-0.03516-0.3008-0.03516-0.6328 0-0.9336 0.5117-0.9336 1.066v1.742h-0.6562v-2.605c0-0.1719-0.007812-0.4961-0.02734-0.7109" fill="#231f1f"/>
<path d="m103.2 112.8c-0.01562-0.5234-0.3242-0.9375-0.9336-0.9375-0.5664 0-1 0.418-1.043 0.9375zm0.6562 0.4883h-2.633c0.01953 0.5703 0.4961 1.012 1.078 1.012 0.4492 0 0.7773-0.2266 0.9648-0.5039l0.4648 0.3711c-0.3594 0.4609-0.8398 0.6797-1.43 0.6797-1.008 0-1.75-0.7031-1.75-1.746 0-1.035 0.7422-1.758 1.715-1.758 0.9805 0 1.598 0.668 1.598 1.723 0 0.07031 0 0.1484-0.007812 0.2227" fill="#231f1f"/>
<path d="m106.7 113.2c-0.6523 0-1.477 0.07031-1.477 0.6328 0 0.3906 0.3477 0.5156 0.6797 0.5156 0.6133 0 0.957-0.4141 0.957-0.9727v-0.1758zm0.1602-0.5664c0-0.4922-0.3281-0.7266-0.8164-0.7266-0.375 0-0.7227 0.1602-0.9492 0.3828l-0.3477-0.418c0.3203-0.3086 0.8203-0.5 1.359-0.5 0.9492 0 1.387 0.5664 1.387 1.305v1.449c0 0.2227 0.01172 0.4961 0.04688 0.6562h-0.5938c-0.03516-0.1445-0.05859-0.3203-0.05859-0.4766h-0.01953c-0.2383 0.3594-0.6172 0.5625-1.113 0.5625-0.5234 0-1.203-0.2617-1.203-1.023 0-1 1.188-1.121 2.309-1.121v-0.08984" fill="#231f1f"/>
<path d="m110.3 112.3c-0.1484-0.2383-0.4375-0.4141-0.7734-0.4141-0.3008 0-0.6133 0.1172-0.6133 0.4336 0 0.2812 0.25 0.3867 0.7539 0.4961 0.6328 0.1406 1.113 0.3984 1.113 0.9805 0 0.7852-0.6484 1.074-1.324 1.074-0.5039 0-1.02-0.1992-1.336-0.5977l0.4688-0.3984c0.1758 0.2578 0.5117 0.4609 0.8828 0.4609 0.3281 0 0.6602-0.1172 0.6602-0.4805 0-0.3086-0.3047-0.4219-0.8711-0.5547-0.4414-0.1055-0.9648-0.293-0.9648-0.918 0-0.7148 0.6211-1.016 1.254-1.016 0.4688 0 0.9648 0.1914 1.203 0.5469l-0.4531 0.3867" fill="#231f1f"/>
<path d="m114.1 112.8c-0.01172-0.5234-0.3203-0.9375-0.9297-0.9375-0.5664 0-1.004 0.418-1.043 0.9375zm0.6602 0.4883h-2.633c0.01953 0.5703 0.4961 1.012 1.078 1.012 0.4492 0 0.7773-0.2266 0.9648-0.5039l0.4648 0.3711c-0.3594 0.4609-0.8438 0.6797-1.43 0.6797-1.008 0-1.75-0.7031-1.75-1.746 0-1.035 0.7422-1.758 1.715-1.758 0.9805 0 1.598 0.668 1.598 1.723 0 0.07031 0 0.1484-0.007812 0.2227" fill="#231f1f"/>
<path d="m117.2 114.3c0.6719 0 1.121-0.5586 1.121-1.195 0-0.6406-0.4492-1.207-1.121-1.207-0.7227 0-1.102 0.5742-1.102 1.199 0 0.6211 0.3789 1.203 1.102 1.203zm-0.1133 0.5547c-1.023 0-1.676-0.7852-1.676-1.758 0-0.9805 0.6758-1.746 1.668-1.746 0.5391 0 0.9531 0.2656 1.184 0.5898h0.01562v-2.473h0.6562v5.293h-0.6367v-0.5234h-0.01172c-0.2539 0.3984-0.7305 0.6172-1.199 0.6172" fill="#231f1f"/>
<path d="m123.5 112h-0.8828v1.727c0 0.4023 0.1406 0.5625 0.4688 0.5625 0.1211 0 0.2734-0.02734 0.3867-0.08594l0.01953 0.5391c-0.1523 0.05859-0.3594 0.09375-0.5586 0.09375-0.625 0-0.9688-0.3516-0.9688-1.039v-1.797h-0.6367v-0.5391h0.6367v-0.9531h0.6523v0.9531h0.8828v0.5391" fill="#231f1f"/>
<path d="m126.5 114.8c-0.01172-0.168-0.02734-0.4062-0.02734-0.5469h-0.01562c-0.168 0.3516-0.6016 0.6406-1.082 0.6406-0.8555 0-1.242-0.6094-1.242-1.352v-2.059h0.6602v1.832c0 0.5469 0.1445 1.023 0.7539 1.023 0.5273 0 0.8906-0.4336 0.8906-1.094v-1.762h0.6602v2.602c0 0.1758 0.003907 0.5 0.02734 0.7148h-0.625" fill="#231f1f"/>
<path d="m130 111.9c-0.6758 0-1.121 0.5664-1.121 1.207 0 0.6367 0.4453 1.195 1.121 1.195 0.7188 0 1.105-0.582 1.105-1.203 0-0.625-0.3867-1.199-1.105-1.199zm-1.102 2.34v0.5234h-0.6367v-5.293h0.6562v2.473h0.02344c0.2227-0.3242 0.6367-0.5898 1.184-0.5898 0.9883 0 1.66 0.7656 1.66 1.746 0 0.9727-0.6523 1.758-1.676 1.758-0.4688 0-0.9375-0.2188-1.195-0.6172h-0.01562" fill="#231f1f"/>
<path d="m135 114.8c-0.01562-0.168-0.02734-0.4062-0.02734-0.5469h-0.01562c-0.168 0.3516-0.6016 0.6406-1.086 0.6406-0.8516 0-1.238-0.6094-1.238-1.352v-2.059h0.6562v1.832c0 0.5469 0.1484 1.023 0.7578 1.023 0.5273 0 0.8906-0.4336 0.8906-1.094v-1.762h0.6562v2.602c0 0.1758 0.007812 0.5 0.03125 0.7148h-0.625" fill="#231f1f"/>
<path d="m137.4 114.8h-0.6562v-5.293h0.6562v5.293" fill="#231f1f"/>
<path d="m140.5 113.2c-0.6523 0-1.48 0.07031-1.48 0.6328 0 0.3906 0.3516 0.5156 0.6797 0.5156 0.6172 0 0.9609-0.4141 0.9609-0.9727v-0.1758zm0.1602-0.5664c0-0.4922-0.3281-0.7266-0.8203-0.7266-0.3711 0-0.7188 0.1602-0.9453 0.3828l-0.3477-0.418c0.3203-0.3086 0.8164-0.5 1.355-0.5 0.9531 0 1.387 0.5664 1.387 1.305v1.449c0 0.2227 0.01562 0.4961 0.05078 0.6562h-0.5938c-0.03516-0.1445-0.05859-0.3203-0.05859-0.4766h-0.01953c-0.2383 0.3594-0.6172 0.5625-1.113 0.5625-0.5273 0-1.207-0.2617-1.207-1.023 0-1 1.191-1.121 2.312-1.121v-0.08984" fill="#231f1f"/>
<path d="m142.4 111.4h0.625c0.01172 0.168 0.02734 0.418 0.02734 0.5586h0.01953c0.1836-0.3867 0.5703-0.6523 1.016-0.6523 0.09375 0 0.1836 0.007812 0.2617 0.02734l-0.03125 0.6094c-0.08203-0.01953-0.1953-0.03516-0.3008-0.03516-0.6289 0-0.9297 0.5117-0.9297 1.066v1.742h-0.6602v-2.605c0-0.1719-0.007812-0.4961-0.02734-0.7109" fill="#231f1f"/>
<path d="m85.35 120.7c-0.1406-0.2188-0.4453-0.3789-0.7617-0.3789-0.6875 0-1.086 0.5625-1.086 1.199 0 0.6289 0.3984 1.195 1.094 1.195 0.3359 0 0.6211-0.1367 0.7969-0.3633l0.4414 0.3984c-0.2812 0.3242-0.707 0.5195-1.238 0.5195-1.023 0-1.789-0.6914-1.789-1.75 0-1.043 0.7578-1.75 1.773-1.75 0.4688 0 0.9727 0.1875 1.246 0.543l-0.4766 0.3867" fill="#231f1f"/>
<path d="m88.39 121.6c-0.6523 0-1.477 0.07422-1.477 0.6328 0 0.3906 0.3477 0.5195 0.6797 0.5195 0.6133 0 0.957-0.4141 0.957-0.9766v-0.1758zm0.1602-0.5664c0-0.4883-0.3281-0.7266-0.8203-0.7266-0.3711 0-0.7188 0.1602-0.9453 0.3828l-0.3477-0.418c0.3203-0.3086 0.8203-0.4961 1.355-0.4961 0.9531 0 1.387 0.5664 1.387 1.301v1.449c0 0.2266 0.01562 0.4961 0.05078 0.6602h-0.5938c-0.03516-0.1484-0.05859-0.3242-0.05859-0.4766h-0.01953c-0.2383 0.3555-0.6172 0.5586-1.113 0.5586-0.5273 0-1.207-0.2578-1.207-1.02 0-1.004 1.191-1.121 2.312-1.121v-0.09375" fill="#231f1f"/>
<path d="m90.95 123.2h-0.6602v-5.297h0.6602v5.297" fill="#231f1f"/>
<path d="m94.43 120.7c-0.1406-0.2188-0.4492-0.3789-0.7656-0.3789-0.6875 0-1.086 0.5625-1.086 1.199 0 0.6289 0.3984 1.195 1.094 1.195 0.3359 0 0.625-0.1367 0.7969-0.3633l0.4414 0.3984c-0.2773 0.3242-0.707 0.5195-1.238 0.5195-1.023 0-1.785-0.6914-1.785-1.75 0-1.043 0.7539-1.75 1.77-1.75 0.4727 0 0.9766 0.1875 1.25 0.543l-0.4766 0.3867" fill="#231f1f"/>
<path d="m96.22 123.2h-0.6602v-3.32h0.6602zm-0.3281-4.098c-0.2383 0-0.4336-0.1914-0.4336-0.4219 0-0.2383 0.1953-0.4258 0.4336-0.4258s0.4414 0.1836 0.4414 0.4258c0 0.2383-0.2031 0.4219-0.4414 0.4219" fill="#231f1f"/>
<path d="m99.71 123.2c-0.01172-0.168-0.02734-0.4062-0.02734-0.5469h-0.01172c-0.168 0.3477-0.6016 0.6367-1.086 0.6367-0.8555 0-1.242-0.6094-1.242-1.352v-2.059h0.6602v1.836c0 0.5469 0.1484 1.02 0.7578 1.02 0.5234 0 0.8867-0.4336 0.8867-1.09v-1.766h0.6602v2.605c0 0.1758 0.007812 0.4961 0.02734 0.7148h-0.625" fill="#231f1f"/>
<path d="m103.1 119.7c0.4414 0 0.8281 0.1953 1.031 0.6641 0.2227-0.4297 0.6562-0.6641 1.129-0.6641 0.8516 0 1.238 0.6094 1.238 1.352v2.059h-0.6602v-1.844c0-0.5391-0.1602-1.016-0.7344-1.016-0.6016 0-0.8398 0.5469-0.8398 1.066v1.793h-0.6602v-1.977c0-0.5195-0.1719-0.8828-0.6992-0.8828-0.4844 0-0.8477 0.4336-0.8477 1.094v1.766h-0.6562v-2.605c0-0.1758-0.007812-0.4961-0.03125-0.7148h0.625c0.01563 0.168 0.02734 0.4062 0.02734 0.5469h0.02344c0.168-0.3516 0.5508-0.6367 1.055-0.6367" fill="#231f1f"/>
<path d="m109.4 119.8h0.6211c0.01562 0.168 0.03125 0.4219 0.03125 0.5586h0.01953c0.1836-0.3828 0.5664-0.6484 1.016-0.6484 0.08984 0 0.1836 0.003906 0.2578 0.02734l-0.02734 0.6094c-0.08203-0.02344-0.1953-0.03516-0.3008-0.03516-0.6289 0-0.9297 0.5117-0.9297 1.062v1.746h-0.6602v-2.605c0-0.1758-0.007813-0.4961-0.02734-0.7148" fill="#231f1f"/>
<path d="m114.2 121.2c-0.01563-0.5234-0.3242-0.9375-0.9336-0.9375-0.5664 0-1 0.4219-1.043 0.9375zm0.6562 0.4922h-2.633c0.02344 0.5664 0.4961 1.008 1.078 1.008 0.4492 0 0.7773-0.2227 0.9688-0.5039l0.4609 0.3711c-0.3594 0.4609-0.8398 0.6797-1.43 0.6797-1.008 0-1.75-0.6992-1.75-1.742 0-1.039 0.7422-1.758 1.715-1.758 0.9805 0 1.598 0.6641 1.598 1.723 0 0.07031 0 0.1445-0.007812 0.2227" fill="#231f1f"/>
<path d="m117.7 121.6c-0.6484 0-1.477 0.07422-1.477 0.6328 0 0.3906 0.3516 0.5195 0.6797 0.5195 0.6172 0 0.9609-0.4141 0.9609-0.9766v-0.1758zm0.1641-0.5664c0-0.4883-0.332-0.7266-0.8203-0.7266-0.3711 0-0.7227 0.1602-0.9453 0.3828l-0.3516-0.418c0.3242-0.3086 0.8203-0.4961 1.359-0.4961 0.9492 0 1.387 0.5664 1.387 1.301v1.449c0 0.2266 0.01172 0.4961 0.04688 0.6602h-0.5938c-0.03516-0.1484-0.05859-0.3242-0.05859-0.4766h-0.01953c-0.2383 0.3555-0.6133 0.5586-1.113 0.5586-0.5234 0-1.203-0.2578-1.203-1.02 0-1.004 1.191-1.121 2.312-1.121v-0.09375" fill="#231f1f"/>
<path d="m121.3 120.3c-0.6719 0-1.121 0.5703-1.121 1.207 0 0.6367 0.4492 1.195 1.121 1.195 0.7227 0 1.105-0.5781 1.105-1.203s-0.3828-1.199-1.105-1.199zm-1.098 2.34v0.5273h-0.6406v-5.297h0.6602v2.473h0.01953c0.2266-0.3203 0.6406-0.5859 1.184-0.5859 0.9883 0 1.66 0.7617 1.66 1.742 0 0.9727-0.6484 1.758-1.672 1.758-0.4688 0-0.9414-0.2188-1.199-0.6172h-0.01172" fill="#231f1f"/>
<path d="m125.8 120.7c-0.1484-0.2383-0.4375-0.4141-0.7734-0.4141-0.3008 0-0.6133 0.1211-0.6133 0.4336 0 0.2812 0.25 0.3867 0.7539 0.5 0.6328 0.1367 1.113 0.3984 1.113 0.9805 0 0.7812-0.6484 1.07-1.324 1.07-0.5039 0-1.02-0.1953-1.336-0.5938l0.4688-0.3984c0.1758 0.2578 0.5117 0.4609 0.8828 0.4609 0.3281 0 0.6602-0.1211 0.6602-0.4844 0-0.3086-0.3047-0.418-0.8711-0.5547-0.4414-0.1055-0.9648-0.293-0.9648-0.9141 0-0.7148 0.6211-1.016 1.254-1.016 0.4688 0 0.9648 0.1875 1.203 0.543l-0.4531 0.3867" fill="#231f1f"/>
<path d="m128.7 120.3c-0.707 0-1.109 0.5703-1.109 1.199 0 0.6289 0.4023 1.203 1.109 1.203 0.7109 0 1.105-0.5742 1.105-1.203 0-0.6289-0.3945-1.199-1.105-1.199zm0 2.957c-1.016 0-1.789-0.7344-1.789-1.758 0-1.023 0.7734-1.742 1.789-1.742s1.793 0.7188 1.793 1.742c0 1.023-0.7773 1.758-1.793 1.758" fill="#231f1f"/>
<path d="m131.4 119.8h0.6211c0.01562 0.168 0.03125 0.4219 0.03125 0.5586h0.01953c0.1836-0.3828 0.5664-0.6484 1.016-0.6484 0.08984 0 0.1836 0.003906 0.2578 0.02734l-0.02734 0.6094c-0.08203-0.02344-0.1953-0.03516-0.3008-0.03516-0.6289 0-0.9297 0.5117-0.9297 1.062v1.746h-0.6602v-2.605c0-0.1758-0.007813-0.4961-0.02734-0.7148" fill="#231f1f"/>
<path d="m135.7 120.3c-0.6758 0-1.121 0.5703-1.121 1.207 0 0.6367 0.4453 1.195 1.121 1.195 0.7188 0 1.105-0.5781 1.105-1.203s-0.3867-1.199-1.105-1.199zm-1.082 4.547h-0.6562v-5h0.6445v0.5195h0.01953c0.2188-0.3516 0.6523-0.6094 1.199-0.6094 0.9883 0 1.66 0.7617 1.66 1.742 0 0.9727-0.6523 1.758-1.676 1.758-0.4688 0-0.9219-0.2188-1.168-0.5898h-0.02344v2.18" fill="#231f1f"/>
<path d="m140 120.4h-0.8828v1.73c0 0.3984 0.1406 0.5586 0.4688 0.5586 0.1211 0 0.2734-0.02734 0.3867-0.08203l0.01953 0.5391c-0.1523 0.05469-0.3555 0.08984-0.5586 0.08984-0.625 0-0.9688-0.3516-0.9688-1.035v-1.801h-0.6367v-0.5391h0.6367v-0.9531h0.6523v0.9531h0.8828v0.5391" fill="#231f1f"/>
<path d="m141.3 123.2h-0.6602v-3.32h0.6602zm-0.332-4.098c-0.2383 0-0.4336-0.1914-0.4336-0.4219 0-0.2383 0.1953-0.4258 0.4336-0.4258s0.4414 0.1836 0.4414 0.4258c0 0.2383-0.2031 0.4219-0.4414 0.4219" fill="#231f1f"/>
<path d="m144.1 120.3c-0.707 0-1.105 0.5703-1.105 1.199 0 0.6289 0.3984 1.203 1.105 1.203 0.7148 0 1.105-0.5742 1.105-1.203 0-0.6289-0.3906-1.199-1.105-1.199zm0 2.957c-1.016 0-1.785-0.7344-1.785-1.758 0-1.023 0.7695-1.742 1.785-1.742s1.793 0.7188 1.793 1.742c0 1.023-0.7773 1.758-1.793 1.758" fill="#231f1f"/>
<path d="m147.4 119.8c0.01172 0.168 0.02734 0.4062 0.02734 0.5469h0.01953c0.1641-0.3594 0.6055-0.6367 1.078-0.6367 0.8555 0 1.242 0.6094 1.242 1.352v2.059h-0.6602v-1.844c0-0.5391-0.1484-1.016-0.7539-1.016-0.5195 0-0.8906 0.4336-0.8906 1.094v1.766h-0.6602v-2.605c0-0.1758-0.003906-0.4961-0.02734-0.7148h0.625" fill="#231f1f"/>
<path d="m152.4 173.5h-72v-27h72v27" fill="#fef0ca"/>
<path transform="matrix(.1 0 0 -.1 0 207.9)" d="m1524 343.6h-720v270h720z" fill="none" stroke="#231f1f" stroke-width="5"/>
<path d="m87.21 157.3h0.8672c1.199 0 2.074-0.6875 2.074-1.871 0-1.227-0.875-1.879-2.074-1.879h-0.8672zm-0.6914-4.352h1.699c1.27 0 2.676 0.7227 2.676 2.48 0 1.695-1.406 2.48-2.676 2.48h-1.699v-4.961" fill="#231f1f"/>
<path d="m94.23 155.9c-0.01172-0.5234-0.3203-0.9375-0.9297-0.9375-0.5664 0-1.004 0.4219-1.043 0.9375zm0.6602 0.4922h-2.633c0.01953 0.5664 0.4961 1.008 1.078 1.008 0.4492 0 0.7773-0.2227 0.9648-0.5039l0.4648 0.3711c-0.3594 0.4648-0.8438 0.6797-1.43 0.6797-1.008 0-1.75-0.6992-1.75-1.742 0-1.039 0.7422-1.758 1.715-1.758 0.9805 0 1.598 0.6641 1.598 1.723 0 0.07031 0 0.1445-0.007813 0.2227" fill="#231f1f"/>
<path d="m98.14 155.4c-0.1406-0.2188-0.4453-0.3789-0.7617-0.3789-0.6875 0-1.086 0.5625-1.086 1.199 0 0.6289 0.3984 1.195 1.094 1.195 0.3359 0 0.6211-0.1406 0.7969-0.3633l0.4414 0.3984c-0.2812 0.3242-0.707 0.5195-1.238 0.5195-1.023 0-1.789-0.6953-1.789-1.75 0-1.043 0.7578-1.75 1.773-1.75 0.4688 0 0.9727 0.1875 1.246 0.543l-0.4766 0.3867" fill="#231f1f"/>
<path d="m99.25 154.6h0.625c0.01172 0.168 0.02734 0.418 0.02734 0.5586h0.01953c0.1836-0.3828 0.5664-0.6484 1.016-0.6484 0.08984 0 0.1836 0.003906 0.2578 0.02734l-0.02734 0.6094c-0.08203-0.02344-0.1953-0.03516-0.3008-0.03516-0.6289 0-0.9297 0.5117-0.9297 1.062v1.746h-0.6602v-2.605c0-0.1758-0.003907-0.5-0.02734-0.7148" fill="#231f1f"/>
<path d="m104.1 155.9c-0.01562-0.5234-0.3242-0.9375-0.9336-0.9375-0.5664 0-1 0.4219-1.043 0.9375zm0.6562 0.4922h-2.633c0.02344 0.5664 0.5 1.008 1.078 1.008 0.4492 0 0.7773-0.2227 0.9688-0.5039l0.4609 0.3711c-0.3555 0.4648-0.8398 0.6797-1.43 0.6797-1.008 0-1.75-0.6992-1.75-1.742 0-1.039 0.7422-1.758 1.715-1.758 0.9805 0 1.598 0.6641 1.598 1.723 0 0.07031 0 0.1445-0.007813 0.2227" fill="#231f1f"/>
<path d="m107.6 156.3c-0.6523 0-1.48 0.07031-1.48 0.6289 0 0.3906 0.3516 0.5156 0.6797 0.5156 0.6172 0 0.9609-0.4102 0.9609-0.9727v-0.1719zm0.1602-0.5703c0-0.4883-0.3281-0.7266-0.8203-0.7266-0.3711 0-0.7227 0.1602-0.9453 0.3828l-0.3516-0.418c0.3242-0.3086 0.8203-0.4961 1.359-0.4961 0.9531 0 1.387 0.5664 1.387 1.301v1.449c0 0.2227 0.01172 0.4961 0.04688 0.6602h-0.5938c-0.03516-0.1484-0.05469-0.3242-0.05469-0.4766h-0.01953c-0.2422 0.3555-0.6172 0.5586-1.117 0.5586-0.5234 0-1.203-0.2578-1.203-1.023 0-1 1.191-1.121 2.312-1.121v-0.08984" fill="#231f1f"/>
<path d="m111.2 155.4c-0.1484-0.2383-0.4336-0.4141-0.7695-0.4141-0.3008 0-0.6172 0.1211-0.6172 0.4336 0 0.2812 0.25 0.3867 0.7539 0.5 0.6328 0.1406 1.117 0.3984 1.117 0.9805 0 0.7812-0.6523 1.07-1.324 1.07-0.5039 0-1.023-0.1953-1.34-0.5938l0.4688-0.4023c0.1758 0.2617 0.5117 0.4648 0.8828 0.4648 0.332 0 0.6602-0.1211 0.6602-0.4844 0-0.3086-0.3008-0.418-0.8711-0.5547-0.4375-0.1016-0.9648-0.293-0.9648-0.918 0-0.7109 0.625-1.012 1.254-1.012 0.4688 0 0.9648 0.1875 1.203 0.543l-0.4531 0.3867" fill="#231f1f"/>
<path d="m115 155.9c-0.01562-0.5234-0.3242-0.9375-0.9336-0.9375-0.5664 0-1 0.4219-1.043 0.9375zm0.6562 0.4922h-2.633c0.01953 0.5664 0.4961 1.008 1.078 1.008 0.4492 0 0.7773-0.2227 0.9688-0.5039l0.4609 0.3711c-0.3594 0.4648-0.8398 0.6797-1.43 0.6797-1.008 0-1.75-0.6992-1.75-1.742 0-1.039 0.7422-1.758 1.715-1.758 0.9805 0 1.598 0.6641 1.598 1.723 0 0.07031 0 0.1445-0.007813 0.2227" fill="#231f1f"/>
<path d="m118.1 157.4c0.6719 0 1.121-0.5586 1.121-1.195s-0.4492-1.207-1.121-1.207c-0.7227 0-1.102 0.5742-1.102 1.199s0.3789 1.203 1.102 1.203zm-0.1094 0.5547c-1.027 0-1.676-0.7852-1.676-1.758 0-0.9805 0.6719-1.742 1.668-1.742 0.5391 0 0.9531 0.2656 1.18 0.5859h0.01562v-2.473h0.6602v5.297h-0.6367v-0.5273h-0.01562c-0.25 0.4023-0.7305 0.6172-1.195 0.6172" fill="#231f1f"/>
<path d="m125.1 155.4c-0.1406-0.2188-0.4492-0.3789-0.7656-0.3789-0.6875 0-1.086 0.5625-1.086 1.199 0 0.6289 0.3984 1.195 1.094 1.195 0.3359 0 0.6211-0.1406 0.7969-0.3633l0.4414 0.3984c-0.2812 0.3242-0.707 0.5195-1.238 0.5195-1.023 0-1.785-0.6953-1.785-1.75 0-1.043 0.7539-1.75 1.77-1.75 0.4688 0 0.9727 0.1875 1.25 0.543l-0.4766 0.3867" fill="#231f1f"/>
<path d="m128.1 156.3c-0.6484 0-1.477 0.07031-1.477 0.6289 0 0.3906 0.3477 0.5156 0.6797 0.5156 0.6133 0 0.957-0.4102 0.957-0.9727v-0.1719zm0.1602-0.5703c0-0.4883-0.3281-0.7266-0.8164-0.7266-0.3711 0-0.7227 0.1602-0.9453 0.3828l-0.3516-0.418c0.3203-0.3086 0.8203-0.4961 1.359-0.4961 0.9492 0 1.387 0.5664 1.387 1.301v1.449c0 0.2227 0.01172 0.4961 0.04688 0.6602h-0.5938c-0.03516-0.1484-0.05469-0.3242-0.05469-0.4766h-0.02344c-0.2383 0.3555-0.6133 0.5586-1.113 0.5586-0.5234 0-1.203-0.2578-1.203-1.023 0-1 1.188-1.121 2.309-1.121v-0.08984" fill="#231f1f"/>
<path d="m130.7 157.9h-0.6602v-5.297h0.6602v5.297" fill="#231f1f"/>
<path d="m134.2 155.4c-0.1406-0.2188-0.4492-0.3789-0.7617-0.3789-0.6875 0-1.086 0.5625-1.086 1.199 0 0.6289 0.3984 1.195 1.09 1.195 0.3359 0 0.625-0.1406 0.8008-0.3633l0.4414 0.3984c-0.2812 0.3242-0.707 0.5195-1.242 0.5195-1.02 0-1.785-0.6953-1.785-1.75 0-1.043 0.7578-1.75 1.773-1.75 0.4688 0 0.9727 0.1875 1.246 0.543l-0.4766 0.3867" fill="#231f1f"/>
<path d="m136 157.9h-0.6562v-3.32h0.6562zm-0.3281-4.098c-0.2383 0-0.4336-0.1914-0.4336-0.4219 0-0.2383 0.1953-0.4258 0.4336-0.4258s0.4414 0.1836 0.4414 0.4258c0 0.2383-0.2031 0.4219-0.4414 0.4219" fill="#231f1f"/>
<path d="m139.4 157.9c-0.01562-0.168-0.02734-0.4062-0.02734-0.5469h-0.01562c-0.168 0.3477-0.6016 0.6367-1.086 0.6367-0.8516 0-1.238-0.6094-1.238-1.352v-2.059h0.6562v1.836c0 0.543 0.1484 1.02 0.7578 1.02 0.5273 0 0.8906-0.4336 0.8906-1.09v-1.766h0.6562v2.605c0 0.1758 0.007813 0.4961 0.02734 0.7148h-0.6211" fill="#231f1f"/>
<path d="m142.9 154.5c0.4414 0 0.8242 0.1953 1.027 0.6641 0.2266-0.4258 0.6602-0.6641 1.129-0.6641 0.8555 0 1.238 0.6094 1.238 1.348v2.062h-0.6562v-1.844c0-0.5391-0.1641-1.016-0.7344-1.016-0.6055 0-0.8438 0.5469-0.8438 1.066v1.793h-0.6562v-1.977c0-0.5195-0.1758-0.8828-0.6992-0.8828-0.4844 0-0.8477 0.4336-0.8477 1.094v1.766h-0.6602v-2.605c0-0.1758-0.007812-0.5-0.02734-0.7148h0.6211c0.01562 0.168 0.03125 0.4062 0.03125 0.5469h0.01953c0.168-0.3516 0.5508-0.6367 1.059-0.6367" fill="#231f1f"/>
<path d="m104.5 164.3c-0.01172-0.5273-0.3203-0.9375-0.9297-0.9375-0.5664 0-1.004 0.418-1.043 0.9375zm0.6602 0.4883h-2.633c0.01953 0.5703 0.4961 1.012 1.078 1.012 0.4453 0 0.7773-0.2266 0.9648-0.5078l0.4648 0.3711c-0.3594 0.4648-0.8438 0.6797-1.43 0.6797-1.008 0-1.754-0.6992-1.754-1.742 0-1.035 0.7461-1.758 1.719-1.758 0.9805 0 1.598 0.6641 1.598 1.723 0 0.07031 0 0.1484-0.007813 0.2227" fill="#231f1f"/>
<path d="m106.8 164.6-1.211-1.578h0.8125l0.8125 1.141 0.8164-1.141h0.7734l-1.199 1.57 1.34 1.75h-0.8203l-0.9258-1.297-0.9375 1.297h-0.793l1.332-1.742" fill="#231f1f"/>
<path d="m111.8 163.8c-0.1367-0.2148-0.4492-0.375-0.7617-0.375-0.6875 0-1.086 0.5586-1.086 1.195 0 0.6328 0.3984 1.199 1.094 1.199 0.3359 0 0.6211-0.1406 0.7969-0.3633l0.4414 0.3984c-0.2812 0.3203-0.707 0.5156-1.238 0.5156-1.023 0-1.789-0.6914-1.789-1.75 0-1.043 0.7578-1.75 1.773-1.75 0.4688 0 0.9727 0.1875 1.246 0.5469l-0.4766 0.3828" fill="#231f1f"/>
<path d="m112.9 163h0.625c0.01172 0.168 0.02734 0.4219 0.02734 0.5625h0.01953c0.1836-0.3867 0.5664-0.6523 1.016-0.6523 0.08984 0 0.1836 0.007813 0.2578 0.02734l-0.02734 0.6094c-0.08203-0.01953-0.1953-0.03516-0.3008-0.03516-0.6289 0-0.9297 0.5117-0.9297 1.066v1.742h-0.6602v-2.605c0-0.1758-0.007812-0.4961-0.02734-0.7148" fill="#231f1f"/>
<path d="m117.8 164.3c-0.01562-0.5273-0.3203-0.9375-0.9336-0.9375-0.5664 0-1 0.418-1.043 0.9375zm0.6562 0.4883h-2.633c0.02344 0.5703 0.5 1.012 1.082 1.012 0.4453 0 0.7734-0.2266 0.9648-0.5078l0.4609 0.3711c-0.3555 0.4648-0.8398 0.6797-1.426 0.6797-1.012 0-1.754-0.6992-1.754-1.742 0-1.035 0.7422-1.758 1.715-1.758 0.9844 0 1.598 0.6641 1.598 1.723 0 0.07031 0 0.1484-0.007813 0.2227" fill="#231f1f"/>
<path d="m121 163.5h-0.8828v1.73c0 0.3984 0.1406 0.5625 0.4727 0.5625 0.1172 0 0.2734-0.03125 0.3828-0.08594l0.02344 0.5391c-0.1562 0.05469-0.3594 0.09375-0.5625 0.09375-0.6211 0-0.9648-0.3516-0.9648-1.039v-1.801h-0.6367v-0.5391h0.6367v-0.9531h0.6484v0.9531h0.8828v0.5391" fill="#231f1f"/>
<path d="m122.3 166.3h-0.6562v-3.32h0.6562zm-0.3281-4.098c-0.2383 0-0.4336-0.1875-0.4336-0.418 0-0.2383 0.1953-0.4297 0.4336-0.4297 0.2383 0 0.4414 0.1836 0.4414 0.4297 0 0.2383-0.2031 0.418-0.4414 0.418" fill="#231f1f"/>
<path d="m125.1 163.4c-0.707 0-1.109 0.5664-1.109 1.195 0 0.6328 0.4023 1.207 1.109 1.207 0.7148 0 1.105-0.5742 1.105-1.207 0-0.6289-0.3906-1.195-1.105-1.195zm0 2.953c-1.02 0-1.785-0.7344-1.785-1.758 0-1.02 0.7656-1.742 1.785-1.742 1.012 0 1.793 0.7227 1.793 1.742 0 1.023-0.7812 1.758-1.793 1.758" fill="#231f1f"/>
<path d="m128.3 163c0.01172 0.168 0.02344 0.4062 0.02344 0.5469h0.02344c0.1602-0.3555 0.6016-0.6367 1.078-0.6367 0.8555 0 1.242 0.6094 1.242 1.352v2.059h-0.6602v-1.84c0-0.543-0.1484-1.016-0.7578-1.016-0.5195 0-0.8906 0.4336-0.8906 1.09v1.766h-0.6562v-2.605c0-0.1758-0.007812-0.4961-0.02734-0.7148h0.625" fill="#231f1f"/>
<g clip-path="url(#a)">
<path d="m152.4 207.6h-72v-17.25h72v17.25" fill="#fef0ca"/>
<path transform="matrix(.1 0 0 -.1 0 207.9)" d="m1524 2.506h-720v172.5h720z" fill="none" stroke="#231f1f" stroke-width="5"/>
</g>
<path d="m96.71 197.1 1.43 1.434v0.7148l-1.18-1.18v4.09h-0.5039v-4.09l-1.18 1.18v-0.7148l1.434-1.434" fill="#231f1f"/>
<path d="m103.4 198.1c-0.1953-0.2695-0.5547-0.4609-0.9688-0.4609-0.4453 0-0.9648 0.2461-0.9648 0.8086 0 0.5391 0.457 0.6836 1.016 0.8672 0.6641 0.2109 1.457 0.4609 1.457 1.449 0 1.027-0.8359 1.504-1.715 1.504-0.625 0-1.254-0.2422-1.633-0.7188l0.5391-0.457c0.2305 0.3438 0.6523 0.582 1.105 0.582 0.4609 0 0.9961-0.2578 0.9961-0.8477 0-0.6016-0.5469-0.7617-1.176-0.9609-0.6328-0.1953-1.289-0.4805-1.289-1.391 0-0.9883 0.8828-1.418 1.699-1.418 0.5742 0 1.113 0.2266 1.422 0.5703l-0.4883 0.4727" fill="#231f1f"/>
<path d="m107.3 200.2c-0.01562-0.5273-0.3242-0.9375-0.9336-0.9375-0.5664 0-1 0.418-1.043 0.9375zm0.6562 0.4883h-2.633c0.01953 0.5703 0.4961 1.012 1.078 1.012 0.4492 0 0.7773-0.2266 0.9648-0.5078l0.4648 0.3711c-0.3594 0.4648-0.8398 0.6797-1.43 0.6797-1.008 0-1.75-0.6992-1.75-1.742 0-1.035 0.7422-1.758 1.715-1.758 0.9805 0 1.598 0.6641 1.598 1.723 0 0.07031 0 0.1445-0.007813 0.2227" fill="#231f1f"/>
<path d="m108.8 198.8h0.625c0.01172 0.168 0.02734 0.4219 0.02734 0.5625h0.01953c0.1836-0.3867 0.5664-0.6523 1.016-0.6523 0.09375 0 0.1836 0.007812 0.2617 0.02734l-0.03125 0.6094c-0.08203-0.01953-0.1953-0.03516-0.3008-0.03516-0.6289 0-0.9297 0.5117-0.9297 1.066v1.742h-0.6602v-2.605c0-0.1758-0.007813-0.4961-0.02734-0.7148" fill="#231f1f"/>
<path d="m113.7 202.1c-0.01563-0.168-0.02734-0.4062-0.02734-0.5469h-0.01562c-0.168 0.3516-0.6016 0.6367-1.086 0.6367-0.8555 0-1.238-0.6094-1.238-1.352v-2.059h0.6562v1.836c0 0.5469 0.1484 1.023 0.7578 1.023 0.5234 0 0.8906-0.4336 0.8906-1.094v-1.766h0.6562v2.605c0 0.1758 0.007812 0.4961 0.02734 0.7148h-0.6211" fill="#231f1f"/>
<path d="m117.1 198.7c0.4453 0 0.8281 0.1953 1.031 0.6641 0.2227-0.4258 0.6602-0.6641 1.129-0.6641 0.8555 0 1.238 0.6094 1.238 1.352v2.059h-0.6562v-1.84c0-0.543-0.1641-1.016-0.7383-1.016-0.6016 0-0.8398 0.543-0.8398 1.062v1.793h-0.6562v-1.977c0-0.5156-0.1758-0.8789-0.7031-0.8789-0.4805 0-0.8477 0.4336-0.8477 1.09v1.766h-0.6562v-2.605c0-0.1758-0.007812-0.4961-0.03125-0.7148h0.625c0.01563 0.168 0.02734 0.4062 0.02734 0.5469h0.02344c0.168-0.3477 0.5547-0.6367 1.055-0.6367" fill="#231f1f"/>
<path d="m127.7 201.4c-0.3828 0.5234-1.023 0.8945-1.891 0.8945-1.52 0-2.609-1.086-2.609-2.609 0-1.551 1.133-2.602 2.637-2.602 0.6797 0 1.418 0.2695 1.781 0.7734l-0.5469 0.418c-0.2383-0.3359-0.7227-0.582-1.234-0.582-1.148 0-1.883 0.9062-1.883 1.992 0 1.113 0.7227 1.996 1.863 1.996 0.5547 0 1.035-0.2344 1.332-0.6602l0.5508 0.3789" fill="#231f1f"/>
<path d="m130.1 200.5c-0.6484 0-1.477 0.07031-1.477 0.6289 0 0.3945 0.3516 0.5195 0.6797 0.5195 0.6172 0 0.9609-0.4141 0.9609-0.9727v-0.1758zm0.1641-0.5664c0-0.4922-0.332-0.7305-0.8203-0.7305-0.3711 0-0.7227 0.1602-0.9453 0.3867l-0.3516-0.4219c0.3242-0.3086 0.8203-0.4961 1.359-0.4961 0.9531 0 1.387 0.5664 1.387 1.305v1.449c0 0.2227 0.01172 0.4961 0.04687 0.6562h-0.5938c-0.03516-0.1484-0.05469-0.3203-0.05469-0.4766h-0.02344c-0.2383 0.3594-0.6133 0.5586-1.113 0.5586-0.5234 0-1.203-0.2578-1.203-1.02 0-1 1.191-1.121 2.312-1.121v-0.08984" fill="#231f1f"/>
<path d="m133.3 198.4h1.109v0.4102h-1.109v1.113h-0.4102v-1.113h-1.113v-0.4102h1.113v-1.109h0.4102v1.109" fill="#231f1f"/>
<path d="m136.7 198.4h1.113v0.4102h-1.113v1.113h-0.4102v-1.113h-1.109v-0.4102h1.109v-1.109h0.4102v1.109" fill="#231f1f"/>
<path d="m143.5 72.49h-0.4883v-2.953l-0.668 0.5586-0.2852-0.332 1.004-0.8164h0.4375v3.543" fill="#231f1f"/>
<path d="m145.2 73.15h-0.3984l0.3438-1.25h0.4688l-0.4141 1.25" fill="#231f1f"/>
<path d="m148.5 72.49h-2.316v-0.4648l1.414-1.402c0.2148-0.2227 0.3906-0.4492 0.3906-0.75 0-0.3711-0.2812-0.6133-0.6328-0.6133-0.3594 0-0.6055 0.2617-0.6641 0.6172l-0.4766-0.07812c0.08594-0.543 0.543-0.9453 1.148-0.9453 0.5898 0 1.121 0.3477 1.121 1.008 0 0.457-0.2617 0.7656-0.5703 1.07l-1.152 1.121h1.738v0.4375" fill="#231f1f"/>
<path d="m151.3 69.38h-1.461l-0.03125 0.9297c0.1328-0.04297 0.3125-0.06641 0.457-0.06641 0.6797 0 1.188 0.4336 1.188 1.117 0 0.7422-0.5312 1.223-1.238 1.223-0.5508 0-0.9414-0.2812-1.133-0.7109l0.4414-0.1758c0.1094 0.2852 0.375 0.4766 0.6914 0.4766 0.4141 0 0.7422-0.3047 0.7422-0.7617 0-0.5352-0.3906-0.7773-0.832-0.7773-0.2656 0-0.5664 0.08203-0.7852 0.1953l0.05078-1.879h1.91v0.4297" fill="#231f1f"/>
<path d="m153.1 73.05-0.3438 0.2188c-0.4375-0.5898-0.7305-1.391-0.7305-2.227s0.293-1.637 0.7305-2.227l0.3438 0.2188c-0.3945 0.5469-0.6484 1.277-0.6484 2.008s0.2539 1.461 0.6484 2.008" fill="#231f1f"/>
<path d="m155.5 69.29c-0.8164 0-1.336 0.6445-1.336 1.422 0 0.7891 0.5273 1.422 1.336 1.422 0.8203 0 1.348-0.6328 1.348-1.422 0-0.7773-0.5195-1.422-1.348-1.422zm0 3.289c-1.074 0-1.871-0.7773-1.871-1.867 0-1.105 0.7969-1.859 1.871-1.859 1.082 0 1.883 0.7539 1.883 1.859 0 1.09-0.8008 1.867-1.883 1.867" fill="#231f1f"/>
<path d="m158.1 68.95h0.4961v1.48h1.793v-1.48h0.5v3.543h-0.5v-1.621h-1.793v1.621h-0.4961v-3.543" fill="#231f1f"/>
<path d="m161.6 69.04 0.3398-0.2188c0.4414 0.5898 0.7305 1.391 0.7305 2.227s-0.2891 1.637-0.7305 2.227l-0.3398-0.2188c0.3867-0.5469 0.6445-1.277 0.6445-2.008s-0.2578-1.461-0.6445-2.008" fill="#231f1f"/>
<path d="m165.5 74.49h-2.312v-0.4648l1.41-1.402c0.2148-0.2227 0.3906-0.4492 0.3906-0.75 0-0.3711-0.2812-0.6133-0.6289-0.6133-0.3633 0-0.6094 0.2617-0.668 0.6172l-0.4727-0.07812c0.08203-0.543 0.5391-0.9453 1.145-0.9453 0.5898 0 1.121 0.3477 1.121 1.008 0 0.457-0.2617 0.7656-0.5703 1.07l-1.152 1.121h1.738v0.4375" fill="#231f1f"/>
<path d="m166.8 72.05h0.6211c0.8594 0 1.484-0.4883 1.484-1.336 0-0.875-0.625-1.34-1.484-1.34h-0.6211zm-0.4922-3.105h1.215c0.9062 0 1.91 0.5156 1.91 1.77 0 1.211-1.004 1.773-1.91 1.773h-1.215v-3.543" fill="#231f1f"/>
<path transform="matrix(.1 0 0 -.1 0 207.9)" d="m362.5 1652v-215.4" fill="none" stroke="#231f1f" stroke-width="5"/>
<path d="m36.25 68.31c-0.6328-1.703-1.711-3.816-2.852-5.129l2.852 1.035 2.852-1.035c-1.141 1.312-2.219 3.426-2.852 5.129" fill="#231f1f"/>
<path transform="matrix(.1 0 0 -.1 0 207.9)" d="m1556 1632v-17.66" fill="none" stroke="#231f1f" stroke-linecap="square" stroke-width="5.892"/>
<path transform="matrix(.1 0 0 -.1 0 207.9)" d="m1556 1579v-122.7" fill="none" stroke="#231f1f" stroke-dasharray="35.0403,35.0403" stroke-linecap="square" stroke-width="5.892"/>
<path transform="matrix(.1 0 0 -.1 0 207.9)" d="m1556 1439v-17.7" fill="none" stroke="#231f1f" stroke-linecap="square" stroke-width="5.892"/>
<path transform="matrix(.1 0 0 -.1 0 207.9)" d="m1556 1632h-15" fill="none" stroke="#231f1f" stroke-width="5"/>
<path transform="matrix(.1 0 0 -.1 0 207.9)" d="m1514 1632h-41.64" fill="none" stroke="#231f1f" stroke-dasharray="27.7406,27.7406" stroke-width="5"/>
<path transform="matrix(.1 0 0 -.1 0 207.9)" d="m1458 1632h-15" fill="none" stroke="#231f1f" stroke-width="5"/>
<path d="m140.9 44.69c1.617-0.6016 3.625-1.625 4.871-2.711l-0.9805 2.711 0.9805 2.711c-1.246-1.086-3.254-2.113-4.871-2.711" fill="#231f1f"/>
<path d="m164.4 45.32h-2.508v-0.8633h2.508v0.8633" fill="#231f1f"/>
<path transform="matrix(.1 0 0 -.1 0 207.9)" d="m1661 1632c0-15.66-12.7-28.36-28.36-28.36s-28.36 12.7-28.36 28.36c0 15.66 12.7 28.36 28.36 28.36s28.36-12.7 28.36-28.36z" fill="none" stroke="#231f1f" stroke-width="5"/>
</svg>
