<?xml version="1.0" encoding="UTF-8"?>
<svg width="397.2pt" height="201.8pt" version="1.1" viewBox="0 0 397.2 201.8" xmlns="http://www.w3.org/2000/svg">
<defs>
<clipPath id="d">
<path d="m322 0h75.25v24h-75.25z"/>
</clipPath>
<clipPath id="c">
<path d="m322 80h75.25v24h-75.25z"/>
</clipPath>
<clipPath id="b">
<path d="m316 178h76v23.75h-76z"/>
</clipPath>
<clipPath id="a">
<path d="m191 178h76v23.75h-76z"/>
</clipPath>
</defs>
<path transform="matrix(.1 0 0 -.1 0 201.8)" d="m3596 1785v-520" fill="none" stroke="#231f1f" stroke-width="5"/>
<path d="m359.6 78.87c-0.6328-1.707-1.711-3.82-2.855-5.129l2.855 1.031 2.852-1.031c-1.145 1.309-2.223 3.422-2.852 5.129" fill="#231f1f"/>
<path transform="matrix(.1 0 0 -.1 0 201.8)" d="m3366 193.8v175" fill="none" stroke="#231f1f" stroke-width="5"/>
<path d="m336.6 161.2c0.6328 1.703 1.711 3.816 2.855 5.129l-2.855-1.031-2.852 1.031c1.145-1.312 2.223-3.426 2.852-5.129" fill="#231f1f"/>
<path transform="matrix(.1 0 0 -.1 0 201.8)" d="m3769 60v883.8" fill="none" stroke="#231f1f" stroke-width="5"/>
<path d="m376.9 103.8c0.6328 1.703 1.711 3.816 2.855 5.129l-2.855-1.031-2.852 1.031c1.145-1.312 2.223-3.426 2.852-5.129" fill="#231f1f"/>
<path transform="matrix(.1 0 0 -.1 0 201.8)" d="m376.5 846.2v-175" fill="none" stroke="#231f1f" stroke-width="5"/>
<path d="m37.65 138.2c-0.6328-1.703-1.711-3.816-2.855-5.129l2.855 1.031 2.852-1.031c-1.141 1.312-2.223 3.426-2.852 5.129" fill="#231f1f"/>
<path transform="matrix(.1 0 0 -.1 0 201.8)" d="m376.5 1382v-308.8" fill="none" stroke="#231f1f" stroke-width="5"/>
<path d="m37.65 98c-0.6328-1.703-1.711-3.816-2.855-5.129l2.855 1.031 2.852-1.031c-1.141 1.312-2.223 3.426-2.852 5.129" fill="#231f1f"/>
<path transform="matrix(.1 0 0 -.1 0 201.8)" d="m1296 1824v-175" fill="none" stroke="#231f1f" stroke-width="5"/>
<path d="m129.6 40.5c-0.6328-1.703-1.711-3.816-2.855-5.129l2.855 1.031 2.852-1.031c-1.141 1.312-2.223 3.426-2.852 5.129" fill="#231f1f"/>
<path transform="matrix(.1 0 0 -.1 0 201.8)" d="m2293 846.2v-175" fill="none" stroke="#231f1f" stroke-width="5"/>
<path d="m229.3 138.2c-0.6328-1.703-1.711-3.816-2.852-5.129l2.852 1.031 2.852-1.031c-1.141 1.312-2.219 3.426-2.852 5.129" fill="#231f1f"/>
<path transform="matrix(.1 0 0 -.1 0 201.8)" d="m2292 443.7v-175" fill="none" stroke="#231f1f" stroke-width="5"/>
<path d="m229.2 178.5c-0.6328-1.703-1.711-3.816-2.855-5.129l2.855 1.031 2.852-1.031c-1.141 1.312-2.223 3.426-2.852 5.129" fill="#231f1f"/>
<path transform="matrix(.1 0 0 -.1 0 201.8)" d="m1670 1498h292.3" fill="none" stroke="#231f1f" stroke-width="5"/>
<path d="m199.8 52c-1.707 0.6328-3.82 1.711-5.129 2.852l1.031-2.852-1.031-2.852c1.309 1.141 3.422 2.219 5.129 2.852" fill="#231f1f"/>
<path transform="matrix(.1 0 0 -.1 0 201.8)" d="m2609 491.5h175" fill="none" stroke="#231f1f" stroke-width="5"/>
<path d="m282 152.6c-1.703 0.6328-3.816 1.711-5.129 2.855l1.031-2.855-1.031-2.852c1.312 1.141 3.426 2.223 5.129 2.852" fill="#231f1f"/>
<path transform="matrix(.1 0 0 -.1 0 201.8)" d="m961.2 894h-175" fill="none" stroke="#231f1f" stroke-width="5"/>
<path d="m75 112.4c1.703-0.6289 3.816-1.711 5.129-2.852l-1.031 2.852 1.031 2.855c-1.312-1.145-3.426-2.223-5.129-2.855" fill="#231f1f"/>
<path d="m167 23.25h-74.75v-23h74.75v23" fill="#fef0ca"/>
<path transform="matrix(.1 0 0 -.1 0 201.8)" d="m1670 1785h-747.5v230h747.5z" fill="none" stroke="#231f1f" stroke-width="5"/>
<path d="m115.3 9.664h-0.6797v-4.133l-0.9375 0.7852-0.3984-0.4688 1.406-1.145h0.6094v4.961" fill="#231f1f"/>
<path d="m117.6 10.6h-0.5586l0.4805-1.754h0.6602l-0.582 1.754" fill="#231f1f"/>
<path d="m122.3 9.664h-3.238v-0.6523l1.977-1.961c0.3008-0.3086 0.5469-0.6289 0.5469-1.051 0-0.5156-0.3945-0.8555-0.8828-0.8555-0.5039 0-0.8477 0.3672-0.9336 0.8633l-0.6641-0.1133c0.1211-0.7539 0.7578-1.316 1.605-1.316 0.8242 0 1.566 0.4844 1.566 1.41 0 0.6367-0.3633 1.07-0.7969 1.496l-1.613 1.57h2.434v0.6094" fill="#231f1f"/>
<path d="m126.2 5.309h-2.043l-0.04297 1.301c0.1836-0.0625 0.4336-0.08984 0.6367-0.08984 0.9531 0 1.66 0.6016 1.66 1.562 0 1.035-0.7422 1.707-1.73 1.707-0.7695 0-1.316-0.3906-1.582-0.9922l0.6172-0.2461c0.1523 0.3984 0.5234 0.6641 0.9648 0.6641 0.582 0 1.039-0.4258 1.039-1.062 0-0.75-0.5469-1.086-1.164-1.086-0.3711 0-0.7891 0.1133-1.098 0.2734l0.07031-2.637h2.672v0.6055" fill="#231f1f"/>
<path d="m130.5 10.45-0.4766 0.3125c-0.6172-0.8281-1.023-1.949-1.023-3.117 0-1.172 0.4062-2.293 1.023-3.117l0.4766 0.3086c-0.5469 0.7617-0.9023 1.785-0.9023 2.809 0 1.023 0.3555 2.043 0.9023 2.805" fill="#231f1f"/>
<path d="m133.9 5.188c-1.141 0-1.871 0.9062-1.871 1.992 0 1.105 0.7344 1.988 1.871 1.988 1.148 0 1.883-0.8828 1.883-1.988 0-1.086-0.7266-1.992-1.883-1.992zm0 4.602c-1.508 0-2.621-1.086-2.621-2.609 0-1.551 1.113-2.602 2.621-2.602 1.512 0 2.633 1.051 2.633 2.602 0 1.523-1.121 2.609-2.633 2.609" fill="#231f1f"/>
<path d="m137.5 4.703h0.6953v2.074h2.508v-2.074h0.6992v4.961h-0.6992v-2.27h-2.508v2.27h-0.6953v-4.961" fill="#231f1f"/>
<path d="m142.4 4.84 0.4727-0.3086c0.6172 0.8242 1.023 1.945 1.023 3.117 0 1.168-0.4062 2.289-1.023 3.117l-0.4727-0.3125c0.543-0.7617 0.9023-1.781 0.9023-2.805 0-1.023-0.3594-2.047-0.9023-2.809" fill="#231f1f"/>
<path d="m146.3 12h-1.883v-0.3789l1.148-1.141c0.1758-0.1797 0.3203-0.3672 0.3203-0.6133 0-0.3008-0.2305-0.4961-0.5156-0.4961-0.293 0-0.4922 0.2109-0.5391 0.5l-0.3867-0.0625c0.06641-0.4414 0.4375-0.7695 0.9297-0.7695 0.4844 0 0.9141 0.2812 0.9141 0.8203 0 0.3711-0.2109 0.625-0.4648 0.8711l-0.9375 0.9141h1.414v0.3555" fill="#231f1f"/>
<path d="m116.1 17.17h0.01953l1.492-4.062h0.75l-1.945 4.957h-0.6445l-1.934-4.957h0.7695l1.492 4.062" fill="#231f1f"/>
<path d="m119.5 18.06h-0.6562v-3.32h0.6562zm-0.3281-4.094c-0.2383 0-0.4336-0.1914-0.4336-0.4219 0-0.2383 0.1953-0.4258 0.4336-0.4258s0.4414 0.1797 0.4414 0.4258c0 0.2383-0.2031 0.4219-0.4414 0.4219" fill="#231f1f"/>
<path d="m122.3 15.29h-0.8828v1.73c0 0.3945 0.1406 0.5586 0.4688 0.5586 0.1211 0 0.2734-0.02734 0.3867-0.08594l0.01953 0.5391c-0.1523 0.05859-0.3555 0.09375-0.5586 0.09375-0.625 0-0.9688-0.3516-0.9688-1.035v-1.801h-0.6367v-0.543h0.6367v-0.9492h0.6523v0.9492h0.8828v0.543" fill="#231f1f"/>
<path d="m124.9 16.48c-0.6523 0-1.477 0.07031-1.477 0.6289 0 0.3945 0.3516 0.5195 0.6797 0.5195 0.6172 0 0.957-0.4102 0.957-0.9727v-0.1758zm0.1602-0.5664c0-0.4883-0.3281-0.7266-0.8164-0.7266-0.3711 0-0.7227 0.1602-0.9453 0.3828l-0.3516-0.4219c0.3203-0.3047 0.8203-0.4961 1.359-0.4961 0.9531 0 1.387 0.5703 1.387 1.305v1.449c0 0.2227 0.01172 0.4961 0.04687 0.6562h-0.5938c-0.03516-0.1445-0.05469-0.3203-0.05469-0.4727h-0.02344c-0.2383 0.3555-0.6172 0.5586-1.113 0.5586-0.5234 0-1.203-0.2578-1.203-1.023 0-1 1.188-1.121 2.309-1.121v-0.08984" fill="#231f1f"/>
<path d="m128.4 14.65c0.4414 0 0.8281 0.1953 1.031 0.6641 0.2227-0.4258 0.6602-0.6641 1.129-0.6641 0.8516 0 1.238 0.6094 1.238 1.352v2.059h-0.6562v-1.84c0-0.5391-0.1641-1.016-0.7383-1.016-0.6016 0-0.8398 0.5469-0.8398 1.062v1.793h-0.6602v-1.973c0-0.5195-0.1719-0.8828-0.6992-0.8828-0.4805 0-0.8477 0.4336-0.8477 1.094v1.762h-0.6562v-2.602c0-0.1758-0.007813-0.5-0.02734-0.7188h0.6211c0.01562 0.168 0.02734 0.4062 0.02734 0.5469h0.02344c0.168-0.3477 0.5508-0.6367 1.055-0.6367" fill="#231f1f"/>
<path d="m133.6 18.06h-0.6562v-3.32h0.6562zm-0.3281-4.094c-0.2383 0-0.4336-0.1914-0.4336-0.4219 0-0.2383 0.1953-0.4258 0.4336-0.4258 0.2383 0 0.4414 0.1797 0.4414 0.4258 0 0.2383-0.2031 0.4219-0.4414 0.4219" fill="#231f1f"/>
<path d="m135.4 14.74c0.01172 0.168 0.02734 0.4062 0.02734 0.5469h0.01953c0.1602-0.3555 0.6055-0.6367 1.078-0.6367 0.8555 0 1.242 0.6094 1.242 1.352v2.059h-0.6602v-1.84c0-0.5391-0.1445-1.016-0.7578-1.016-0.5156 0-0.8867 0.4336-0.8867 1.094v1.762h-0.6602v-2.602c0-0.1758-0.003906-0.5-0.02734-0.7188h0.625" fill="#231f1f"/>
<path d="m141.3 17.45h0.8672c1.199 0 2.074-0.6836 2.074-1.867 0-1.227-0.875-1.879-2.074-1.879h-0.8672zm-0.6953-4.348h1.703c1.266 0 2.676 0.7227 2.676 2.48 0 1.695-1.41 2.477-2.676 2.477h-1.703v-4.957" fill="#231f1f"/>
<path d="m75 63.5h-74.75v-23h74.75v23" fill="#fef0ca"/>
<path transform="matrix(.1 0 0 -.1 0 201.8)" d="m750 1382h-747.5v230h747.5z" fill="none" stroke="#231f1f" stroke-width="5"/>
<path d="m32.2 49.3h0.8672c1.199 0 2.074-0.6875 2.074-1.871 0-1.223-0.875-1.875-2.074-1.875h-0.8672zm-0.6953-4.352h1.703c1.266 0 2.676 0.7227 2.676 2.48 0 1.695-1.41 2.48-2.676 2.48h-1.703v-4.961" fill="#231f1f"/>
<path d="m37.46 49.91h-0.6562v-3.32h0.6562zm-0.3281-4.098c-0.2383 0-0.4336-0.1875-0.4336-0.4219s0.1953-0.4258 0.4336-0.4258c0.2383 0 0.4414 0.1836 0.4414 0.4258 0 0.2422-0.2031 0.4219-0.4414 0.4219" fill="#231f1f"/>
<path d="m41.04 47.96c-0.01172-0.5273-0.3203-0.9414-0.9297-0.9414-0.5703 0-1.004 0.4219-1.047 0.9414zm0.6602 0.4883h-2.637c0.02344 0.5703 0.5 1.012 1.082 1.012 0.4453 0 0.7773-0.2266 0.9648-0.5078l0.4609 0.3711c-0.3555 0.4648-0.8398 0.6797-1.426 0.6797-1.012 0-1.754-0.6992-1.754-1.742 0-1.035 0.7422-1.758 1.719-1.758 0.9805 0 1.594 0.6641 1.594 1.723 0 0.07031 0 0.1445-0.003907 0.2227" fill="#231f1f"/>
<path d="m44.24 47.13h-0.8828v1.73c0 0.3984 0.1406 0.5625 0.4688 0.5625 0.1172 0 0.2734-0.03125 0.3867-0.08594l0.01953 0.5391c-0.1523 0.05469-0.3555 0.08984-0.5625 0.08984-0.6211 0-0.9648-0.3477-0.9648-1.035v-1.801h-0.6367v-0.5391h0.6367v-0.9531h0.6523v0.9531h0.8828v0.5391" fill="#231f1f"/>
<path d="m25.76 58.31h-0.6797v-4.129l-0.9375 0.7812-0.3984-0.4688 1.406-1.141h0.6094v4.957" fill="#231f1f"/>
<path d="m28.36 55.84c0 0.8398 0.1797 2.031 1 2.031 0.8047 0 0.9961-1.191 0.9961-2.031 0-0.832-0.1914-2.039-0.9961-2.039-0.8203 0-1 1.207-1 2.039zm2.688 0c0 1.449-0.5117 2.605-1.688 2.605-1.184 0-1.695-1.156-1.695-2.605 0-1.445 0.5117-2.605 1.695-2.605 1.176 0 1.688 1.16 1.688 2.605" fill="#231f1f"/>
<path d="m32.52 55.84c0 0.8398 0.1836 2.031 1 2.031 0.8086 0 0.9961-1.191 0.9961-2.031 0-0.832-0.1875-2.039-0.9961-2.039-0.8164 0-1 1.207-1 2.039zm2.688 0c0 1.449-0.5078 2.605-1.688 2.605-1.184 0-1.695-1.156-1.695-2.605 0-1.445 0.5117-2.605 1.695-2.605 1.18 0 1.688 1.16 1.688 2.605" fill="#231f1f"/>
<path d="m36.68 55.84c0 0.8398 0.1836 2.031 1 2.031 0.8086 0 0.9961-1.191 0.9961-2.031 0-0.832-0.1875-2.039-0.9961-2.039-0.8164 0-1 1.207-1 2.039zm2.691 0c0 1.449-0.5117 2.605-1.691 2.605-1.18 0-1.691-1.156-1.691-2.605 0-1.445 0.5117-2.605 1.691-2.605 1.18 0 1.691 1.16 1.691 2.605" fill="#231f1f"/>
<path d="m43.78 54.9c0.4414 0 0.8281 0.1953 1.031 0.6641 0.2227-0.4258 0.6562-0.6641 1.129-0.6641 0.8516 0 1.238 0.6094 1.238 1.352v2.059h-0.6602v-1.84c0-0.5391-0.1602-1.016-0.7344-1.016-0.6016 0-0.8398 0.5469-0.8398 1.062v1.793h-0.6602v-1.973c0-0.5195-0.1719-0.8828-0.6992-0.8828-0.4844 0-0.8477 0.4336-0.8477 1.094v1.762h-0.6562v-2.602c0-0.1758-0.007812-0.5-0.03125-0.7188h0.625c0.01562 0.168 0.02734 0.4062 0.02734 0.5469h0.02344c0.168-0.3477 0.5508-0.6367 1.055-0.6367" fill="#231f1f"/>
<path d="m49.85 57.79c0.6797 0 1.129-0.5117 1.129-1.172 0-0.6289-0.457-1.168-1.129-1.168-0.6953 0-1.098 0.5312-1.098 1.168 0 0.6133 0.4023 1.172 1.098 1.172zm-1.305 1.094c0.2891 0.3203 0.7578 0.5391 1.215 0.5391 0.875 0 1.168-0.5391 1.168-1.227v-0.4258h-0.01563c-0.2422 0.3711-0.6992 0.5742-1.168 0.5742-1.016 0-1.672-0.7578-1.672-1.711 0-0.9531 0.6484-1.73 1.664-1.73 0.4766 0 0.9453 0.2109 1.199 0.625h0.01562v-0.5352h0.6367v3.152c0 0.9688-0.457 1.852-1.836 1.852-0.5742 0-1.211-0.2266-1.625-0.6016l0.418-0.5117" fill="#231f1f"/>
<path d="m167 63.5h-74.75v-23h74.75v23" fill="#fef0ca"/>
<path transform="matrix(.1 0 0 -.1 0 201.8)" d="m1670 1382h-747.5v230h747.5z" fill="none" stroke="#231f1f" stroke-width="5"/>
<path d="m113.1 48.09h1.855l-0.9258-2.324zm-0.7422 1.828h-0.7734l2.152-4.961h0.6289l2.129 4.961h-0.7852l-0.5039-1.219h-2.352l-0.4961 1.219" fill="#231f1f"/>
<path d="m118.8 47.05c-0.6719 0-1.121 0.5664-1.121 1.203 0 0.6367 0.4492 1.199 1.121 1.199 0.7227 0 1.105-0.582 1.105-1.207 0-0.6211-0.3828-1.195-1.105-1.195zm-1.098 2.34v0.5234h-0.6406v-5.297h0.6602v2.473h0.01953c0.2266-0.3203 0.6406-0.5859 1.184-0.5859 0.9883 0 1.66 0.7617 1.66 1.742 0 0.9766-0.6484 1.758-1.672 1.758-0.4688 0-0.9375-0.2148-1.199-0.6133h-0.01172" fill="#231f1f"/>
<path d="m123.3 47.43c-0.1484-0.2383-0.4375-0.4141-0.7734-0.4141-0.3008 0-0.6172 0.1211-0.6172 0.4336 0 0.2812 0.2539 0.3867 0.7578 0.5 0.6328 0.1406 1.113 0.3984 1.113 0.9805 0 0.7852-0.6484 1.07-1.324 1.07-0.5039 0-1.02-0.1953-1.336-0.5938l0.4688-0.3984c0.1758 0.2578 0.5117 0.4609 0.8828 0.4609 0.3281 0 0.6602-0.1172 0.6602-0.4844 0-0.3047-0.3047-0.418-0.8711-0.5508-0.4414-0.1055-0.9648-0.2969-0.9648-0.918 0-0.7148 0.6211-1.016 1.254-1.016 0.4688 0 0.9648 0.1875 1.203 0.5469l-0.4531 0.3828" fill="#231f1f"/>
<path d="m126.2 47.05c-0.707 0-1.109 0.5664-1.109 1.195 0 0.6328 0.4023 1.207 1.109 1.207 0.7148 0 1.105-0.5742 1.105-1.207 0-0.6289-0.3906-1.195-1.105-1.195zm0 2.953c-1.016 0-1.785-0.7344-1.785-1.758 0-1.02 0.7695-1.742 1.785-1.742 1.016 0 1.793 0.7227 1.793 1.742 0 1.023-0.7773 1.758-1.793 1.758" fill="#231f1f"/>
<path d="m128.9 46.59h0.625c0.01172 0.168 0.02734 0.4219 0.02734 0.5625h0.01953c0.1836-0.3867 0.5664-0.6523 1.016-0.6523 0.09375 0 0.1836 0.007813 0.2617 0.02734l-0.03125 0.6094c-0.08203-0.01953-0.1953-0.03516-0.3008-0.03516-0.6289 0-0.9297 0.5117-0.9297 1.066v1.742h-0.6602v-2.605c0-0.1758-0.007812-0.4961-0.02734-0.7148" fill="#231f1f"/>
<path d="m133.2 47.05c-0.6719 0-1.121 0.5664-1.121 1.203 0 0.6367 0.4492 1.199 1.121 1.199 0.7188 0 1.105-0.582 1.105-1.207 0-0.6211-0.3867-1.195-1.105-1.195zm-1.082 4.543h-0.6562v-5h0.6445v0.5195h0.01953c0.2188-0.3516 0.6523-0.6094 1.199-0.6094 0.9883 0 1.66 0.7617 1.66 1.742 0 0.9766-0.6523 1.758-1.676 1.758-0.4688 0-0.9219-0.2148-1.168-0.5859h-0.02344v2.176" fill="#231f1f"/>
<path d="m137.5 47.13h-0.8828v1.73c0 0.3984 0.1406 0.5625 0.4688 0.5625 0.1211 0 0.2734-0.03125 0.3867-0.08594l0.01953 0.5391c-0.1523 0.05469-0.3555 0.08984-0.5586 0.08984-0.625 0-0.9688-0.3477-0.9688-1.035v-1.801h-0.6367v-0.5391h0.6367v-0.9531h0.6523v0.9531h0.8828v0.5391" fill="#231f1f"/>
<path d="m138.8 49.91h-0.6602v-3.32h0.6602zm-0.3281-4.098c-0.2383 0-0.4336-0.1875-0.4336-0.4219s0.1953-0.4258 0.4336-0.4258c0.2383 0 0.4414 0.1836 0.4414 0.4258 0 0.2422-0.2031 0.4219-0.4414 0.4219" fill="#231f1f"/>
<path d="m141.5 47.05c-0.707 0-1.105 0.5664-1.105 1.195 0 0.6328 0.3984 1.207 1.105 1.207 0.7148 0 1.109-0.5742 1.109-1.207 0-0.6289-0.3945-1.195-1.109-1.195zm0 2.953c-1.016 0-1.785-0.7344-1.785-1.758 0-1.02 0.7695-1.742 1.785-1.742s1.793 0.7227 1.793 1.742c0 1.023-0.7773 1.758-1.793 1.758" fill="#231f1f"/>
<path d="m144.8 46.59c0.01562 0.168 0.02734 0.4062 0.02734 0.5469h0.02344c0.1602-0.3594 0.6016-0.6367 1.078-0.6367 0.8555 0 1.238 0.6094 1.238 1.352v2.059h-0.6562v-1.844c0-0.5391-0.1484-1.012-0.7578-1.012-0.5195 0-0.8906 0.4336-0.8906 1.09v1.766h-0.6562v-2.605c0-0.1758-0.007812-0.4961-0.02734-0.7148h0.6211" fill="#231f1f"/>
<path d="m118.7 55.44h0.2148c0.5664 0 1.109-0.1875 1.109-0.8242 0-0.5-0.4062-0.8203-0.8789-0.8203-0.4102 0-0.7188 0.2305-0.8672 0.6094l-0.6172-0.2188c0.2461-0.5938 0.8125-0.957 1.512-0.957 0.8281 0 1.527 0.4688 1.527 1.344 0 0.5547-0.3633 0.9922-0.875 1.129v0.01172c0.582 0.1211 1.008 0.5742 1.008 1.211 0 0.9883-0.8086 1.516-1.66 1.516-0.7812 0-1.414-0.3516-1.688-1.094l0.6328-0.2109c0.1445 0.4258 0.5234 0.7305 1.043 0.7305 0.4961 0 0.9961-0.3164 0.9961-0.9453 0-0.6953-0.6602-0.918-1.25-0.918h-0.207v-0.5625" fill="#231f1f"/>
<path d="m122.4 55.84c0 0.8398 0.1797 2.031 1 2.031 0.8047 0 0.9961-1.191 0.9961-2.031 0-0.832-0.1914-2.039-0.9961-2.039-0.8203 0-1 1.207-1 2.039zm2.688 0c0 1.449-0.5117 2.605-1.688 2.605-1.184 0-1.695-1.156-1.695-2.605 0-1.445 0.5117-2.605 1.695-2.605 1.176 0 1.688 1.16 1.688 2.605" fill="#231f1f"/>
<path d="m126.6 55.84c0 0.8398 0.1836 2.031 1 2.031 0.8086 0 0.9961-1.191 0.9961-2.031 0-0.832-0.1875-2.039-0.9961-2.039-0.8164 0-1 1.207-1 2.039zm2.688 0c0 1.449-0.5078 2.605-1.688 2.605-1.184 0-1.695-1.156-1.695-2.605 0-1.445 0.5117-2.605 1.695-2.605 1.18 0 1.688 1.16 1.688 2.605" fill="#231f1f"/>
<path d="m133.7 54.9c0.4414 0 0.8281 0.1953 1.031 0.6641 0.2227-0.4258 0.6562-0.6641 1.125-0.6641 0.8555 0 1.242 0.6094 1.242 1.352v2.059h-0.6602v-1.84c0-0.5391-0.1602-1.016-0.7344-1.016-0.6016 0-0.8398 0.5469-0.8398 1.062v1.793h-0.6602v-1.973c0-0.5195-0.1758-0.8828-0.6992-0.8828-0.4844 0-0.8477 0.4336-0.8477 1.094v1.762h-0.6602v-2.602c0-0.1758-0.003906-0.5-0.02734-0.7188h0.625c0.01172 0.168 0.02734 0.4062 0.02734 0.5469h0.02344c0.168-0.3477 0.5508-0.6367 1.055-0.6367" fill="#231f1f"/>
<path d="m139.8 57.79c0.6797 0 1.125-0.5117 1.125-1.172 0-0.6289-0.4531-1.168-1.125-1.168-0.6953 0-1.102 0.5312-1.102 1.168 0 0.6133 0.4062 1.172 1.102 1.172zm-1.305 1.094c0.2891 0.3203 0.7578 0.5391 1.215 0.5391 0.875 0 1.168-0.5391 1.168-1.227v-0.4258h-0.01562c-0.2422 0.3711-0.6992 0.5742-1.168 0.5742-1.016 0-1.676-0.7578-1.676-1.711 0-0.9531 0.6523-1.73 1.668-1.73 0.4766 0 0.9453 0.2109 1.199 0.625h0.01172v-0.5352h0.6406v3.152c0 0.9688-0.457 1.852-1.836 1.852-0.5742 0-1.211-0.2266-1.625-0.6016l0.418-0.5117" fill="#231f1f"/>
<path d="m397 23.25h-74.75v-23h74.75v23" fill="#fef0ca"/>
<g clip-path="url(#d)">
<path transform="matrix(.1 0 0 -.1 0 201.8)" d="m3970 1785h-747.5v230h747.5z" fill="none" stroke="#231f1f" stroke-width="5"/>
</g>
<path d="m335.2 9.074h0.8672c0.5898 0 1.234-0.1797 1.234-0.8516 0-0.582-0.4141-0.8359-1.168-0.8359h-0.9336zm0-2.273h0.9023c0.5352 0 0.9727-0.2344 0.9727-0.7734 0-0.5312-0.4258-0.7422-1.086-0.7422h-0.7891zm-0.6914-2.098h1.707c0.75 0 1.555 0.3125 1.555 1.258 0 0.543-0.3516 0.9375-0.8672 1.074v0.01562c0.6367 0.07812 1.098 0.5117 1.098 1.207 0 0.9531-0.8242 1.406-1.863 1.406h-1.629v-4.961" fill="#231f1f"/>
<path d="m340.5 6.801c-0.707 0-1.105 0.5664-1.105 1.195 0 0.6328 0.3984 1.207 1.105 1.207 0.7188 0 1.109-0.5742 1.109-1.207 0-0.6289-0.3906-1.195-1.109-1.195zm0 2.953c-1.016 0-1.781-0.7344-1.781-1.758 0-1.02 0.7656-1.742 1.781-1.742 1.02 0 1.793 0.7227 1.793 1.742 0 1.023-0.7734 1.758-1.793 1.758" fill="#231f1f"/>
<path d="m343.8 6.344c0.01172 0.168 0.02734 0.4062 0.02734 0.5469h0.01953c0.1602-0.3594 0.6016-0.6367 1.078-0.6367 0.8555 0 1.238 0.6094 1.238 1.352v2.059h-0.6562v-1.844c0-0.5391-0.1484-1.012-0.7578-1.012-0.5156 0-0.8906 0.4336-0.8906 1.09v1.766h-0.6562v-2.605c0-0.1758-0.007812-0.4961-0.02734-0.7148h0.625" fill="#231f1f"/>
<path d="m349.7 7.711c-0.01172-0.5273-0.3203-0.9414-0.9297-0.9414-0.5703 0-1.004 0.4219-1.043 0.9414zm0.6602 0.4883h-2.633c0.01953 0.5703 0.4961 1.012 1.078 1.012 0.4492 0 0.7773-0.2266 0.9648-0.5078l0.4609 0.3711c-0.3555 0.4648-0.8398 0.6797-1.426 0.6797-1.008 0-1.75-0.6992-1.75-1.742 0-1.035 0.7422-1.758 1.715-1.758 0.9805 0 1.594 0.6641 1.594 1.723 0 0.07031 0 0.1445-0.003906 0.2227" fill="#231f1f"/>
<path d="m353.8 9.664h-0.6914v-4.961h3.094v0.6133h-2.402v1.539h2.25v0.5938h-2.25v2.215" fill="#231f1f"/>
<path d="m358.3 6.801c-0.707 0-1.105 0.5664-1.105 1.195 0 0.6328 0.3984 1.207 1.105 1.207 0.7148 0 1.109-0.5742 1.109-1.207 0-0.6289-0.3945-1.195-1.109-1.195zm0 2.953c-1.016 0-1.785-0.7344-1.785-1.758 0-1.02 0.7695-1.742 1.785-1.742s1.793 0.7227 1.793 1.742c0 1.023-0.7773 1.758-1.793 1.758" fill="#231f1f"/>
<path d="m361 6.344h0.625c0.01562 0.168 0.02734 0.4219 0.02734 0.5625h0.02344c0.1797-0.3867 0.5664-0.6523 1.016-0.6523 0.08984 0 0.1797 0.007813 0.2578 0.02734l-0.02734 0.6094c-0.08594-0.01953-0.1953-0.03516-0.3008-0.03516-0.6328 0-0.9336 0.5117-0.9336 1.066v1.742h-0.6562v-2.605c0-0.1758-0.007813-0.4961-0.03125-0.7148" fill="#231f1f"/>
<path d="m365.2 6.254c0.4414 0 0.8281 0.1953 1.031 0.6641 0.2227-0.4258 0.6562-0.6641 1.125-0.6641 0.8555 0 1.242 0.6094 1.242 1.352v2.059h-0.6602v-1.844c0-0.5391-0.1602-1.012-0.7344-1.012-0.6016 0-0.8398 0.543-0.8398 1.062v1.793h-0.6602v-1.977c0-0.5156-0.1719-0.8789-0.6992-0.8789-0.4844 0-0.8477 0.4336-0.8477 1.09v1.766h-0.6562v-2.605c0-0.1758-0.007812-0.4961-0.03125-0.7148h0.625c0.01562 0.168 0.02734 0.4062 0.02734 0.5469h0.01953c0.168-0.3516 0.5547-0.6367 1.059-0.6367" fill="#231f1f"/>
<path d="m371.6 8.082c-0.6523 0-1.48 0.07031-1.48 0.6289 0 0.3945 0.3516 0.5195 0.6797 0.5195 0.6172 0 0.9609-0.4141 0.9609-0.9727v-0.1758zm0.1602-0.5664c0-0.4922-0.3281-0.7305-0.8203-0.7305-0.3711 0-0.7188 0.1602-0.9453 0.3867l-0.3477-0.4219c0.3203-0.3086 0.8164-0.4961 1.355-0.4961 0.9531 0 1.387 0.5664 1.387 1.301v1.453c0 0.2227 0.01562 0.4961 0.05078 0.6562h-0.5938c-0.03516-0.1484-0.05859-0.3203-0.05859-0.4766h-0.01953c-0.2383 0.3594-0.6172 0.5586-1.113 0.5586-0.5273 0-1.207-0.2578-1.207-1.02 0-1.004 1.191-1.121 2.312-1.121v-0.08984" fill="#231f1f"/>
<path d="m375.1 6.883h-0.8828v1.73c0 0.3984 0.1406 0.5625 0.4688 0.5625 0.1211 0 0.2773-0.03125 0.3867-0.08594l0.01953 0.5391c-0.1523 0.05469-0.3555 0.08984-0.5586 0.08984-0.6211 0-0.9688-0.3477-0.9688-1.035v-1.801h-0.6367v-0.5391h0.6367v-0.9531h0.6523v0.9531h0.8828v0.5391" fill="#231f1f"/>
<path d="m376.4 9.664h-0.6562v-3.32h0.6562zm-0.3281-4.098c-0.2383 0-0.4336-0.1875-0.4336-0.4219s0.1953-0.4258 0.4336-0.4258c0.2383 0 0.4414 0.1836 0.4414 0.4258 0 0.2422-0.2031 0.4219-0.4414 0.4219" fill="#231f1f"/>
<path d="m379.1 6.801c-0.707 0-1.109 0.5664-1.109 1.195 0 0.6328 0.4023 1.207 1.109 1.207 0.7148 0 1.105-0.5742 1.105-1.207 0-0.6289-0.3906-1.195-1.105-1.195zm0 2.953c-1.02 0-1.789-0.7344-1.789-1.758 0-1.02 0.7695-1.742 1.789-1.742 1.012 0 1.793 0.7227 1.793 1.742 0 1.023-0.7812 1.758-1.793 1.758" fill="#231f1f"/>
<path d="m382.4 6.344c0.01172 0.168 0.02734 0.4062 0.02734 0.5469h0.01953c0.1602-0.3594 0.6016-0.6367 1.078-0.6367 0.8555 0 1.242 0.6094 1.242 1.352v2.059h-0.6602v-1.844c0-0.5391-0.1484-1.012-0.7578-1.012-0.5195 0-0.8906 0.4336-0.8906 1.09v1.766h-0.6562v-2.605c0-0.1758-0.007813-0.4961-0.02734-0.7148h0.625" fill="#231f1f"/>
<path d="m350.8 18.06h-3.238v-0.6523l1.977-1.957c0.3008-0.3086 0.5469-0.6328 0.5469-1.051 0-0.5195-0.3945-0.8555-0.8828-0.8555-0.5039 0-0.8477 0.3633-0.9336 0.8594l-0.6641-0.1094c0.1211-0.7578 0.7578-1.316 1.605-1.316 0.8242 0 1.566 0.4805 1.566 1.406 0 0.6367-0.3633 1.074-0.7969 1.5l-1.613 1.566h2.434v0.6094" fill="#231f1f"/>
<path d="m352.4 15.59c0 0.8398 0.1797 2.031 1 2.031 0.8047 0 0.9961-1.191 0.9961-2.031 0-0.832-0.1914-2.039-0.9961-2.039-0.8203 0-1 1.207-1 2.039zm2.688 0c0 1.449-0.5117 2.605-1.688 2.605-1.184 0-1.695-1.156-1.695-2.605 0-1.445 0.5117-2.605 1.695-2.605 1.176 0 1.688 1.16 1.688 2.605" fill="#231f1f"/>
<path d="m356.6 15.59c0 0.8398 0.1836 2.031 1.004 2.031 0.8008 0 0.9922-1.191 0.9922-2.031 0-0.832-0.1914-2.039-0.9922-2.039-0.8203 0-1.004 1.207-1.004 2.039zm2.688 0c0 1.449-0.5117 2.605-1.684 2.605-1.184 0-1.699-1.156-1.699-2.605 0-1.445 0.5156-2.605 1.699-2.605 1.172 0 1.684 1.16 1.684 2.605" fill="#231f1f"/>
<path d="m363.7 14.65c0.4414 0 0.8281 0.1953 1.031 0.6641 0.2227-0.4258 0.6562-0.6641 1.125-0.6641 0.8555 0 1.242 0.6094 1.242 1.352v2.059h-0.6602v-1.84c0-0.5391-0.1602-1.016-0.7344-1.016-0.6016 0-0.8398 0.5469-0.8398 1.062v1.793h-0.6602v-1.973c0-0.5195-0.1758-0.8828-0.6992-0.8828-0.4844 0-0.8477 0.4336-0.8477 1.094v1.762h-0.6602v-2.602c0-0.1758-0.003906-0.5-0.02734-0.7188h0.625c0.01172 0.168 0.02734 0.4062 0.02734 0.5469h0.02344c0.168-0.3477 0.5508-0.6367 1.055-0.6367" fill="#231f1f"/>
<path d="m369.8 17.54c0.6797 0 1.125-0.5117 1.125-1.172 0-0.6289-0.4531-1.168-1.125-1.168-0.6953 0-1.102 0.5312-1.102 1.168 0 0.6133 0.4062 1.172 1.102 1.172zm-1.301 1.094c0.2852 0.3203 0.7539 0.5391 1.211 0.5391 0.875 0 1.168-0.5391 1.168-1.227v-0.4258h-0.01172c-0.2461 0.3711-0.7031 0.5742-1.172 0.5742-1.016 0-1.676-0.7578-1.676-1.711 0-0.9531 0.6523-1.73 1.668-1.73 0.4766 0 0.9453 0.2109 1.199 0.625h0.01172v-0.5352h0.6406v3.152c0 0.9688-0.457 1.852-1.836 1.852-0.5742 0-1.211-0.2266-1.625-0.6016l0.4219-0.5117" fill="#231f1f"/>
<path d="m397 103.8h-74.75v-23h74.75v23" fill="#fef0ca"/>
<g clip-path="url(#c)">
<path transform="matrix(.1 0 0 -.1 0 201.8)" d="m3970 980h-747.5v230h747.5z" fill="none" stroke="#231f1f" stroke-width="5"/>
</g>
<path d="m335 89.57h0.8672c0.5898 0 1.23-0.1797 1.23-0.8516 0-0.582-0.4102-0.8359-1.168-0.8359h-0.9297zm0-2.273h0.9023c0.5312 0 0.9727-0.2344 0.9727-0.7734 0-0.5312-0.4258-0.7422-1.086-0.7422h-0.7891zm-0.6953-2.098h1.711c0.7461 0 1.555 0.3125 1.555 1.258 0 0.543-0.3516 0.9375-0.8711 1.074v0.01562c0.6367 0.07812 1.102 0.5117 1.102 1.207 0 0.9531-0.8281 1.406-1.863 1.406h-1.633v-4.961" fill="#231f1f"/>
<path d="m340.3 87.3c-0.707 0-1.105 0.5664-1.105 1.195 0 0.6328 0.3984 1.207 1.105 1.207 0.7148 0 1.109-0.5742 1.109-1.207 0-0.6289-0.3945-1.195-1.109-1.195zm0 2.953c-1.016 0-1.785-0.7344-1.785-1.758 0-1.02 0.7695-1.742 1.785-1.742s1.793 0.7227 1.793 1.742c0 1.023-0.7773 1.758-1.793 1.758" fill="#231f1f"/>
<path d="m343.6 86.84c0.01562 0.168 0.02734 0.4062 0.02734 0.5469h0.02344c0.1602-0.3594 0.6016-0.6367 1.078-0.6367 0.8555 0 1.238 0.6094 1.238 1.352v2.059h-0.6562v-1.844c0-0.5391-0.1484-1.012-0.7578-1.012-0.5195 0-0.8906 0.4336-0.8906 1.09v1.766h-0.6562v-2.605c0-0.1758-0.007813-0.4961-0.03125-0.7148h0.625" fill="#231f1f"/>
<path d="m349.5 88.21c-0.01562-0.5273-0.3242-0.9414-0.9336-0.9414-0.5664 0-1 0.4219-1.043 0.9414zm0.6562 0.4883h-2.633c0.01953 0.5703 0.4961 1.012 1.078 1.012 0.4492 0 0.7773-0.2266 0.9688-0.5078l0.4609 0.3711c-0.3555 0.4648-0.8398 0.6797-1.43 0.6797-1.008 0-1.75-0.6992-1.75-1.742 0-1.035 0.7422-1.758 1.715-1.758 0.9805 0 1.598 0.6641 1.598 1.723 0 0.07031 0 0.1445-0.007813 0.2227" fill="#231f1f"/>
<path d="m353.6 87.38h0.7969c0.6523 0 1.164-0.207 1.164-0.8008s-0.5117-0.7852-1.113-0.7852h-0.8477zm0 2.785h-0.6914v-4.961h1.59c0.957 0 1.762 0.3672 1.762 1.375 0 0.7305-0.4961 1.191-1.203 1.309l1.387 2.277h-0.8398l-1.262-2.207h-0.7422v2.207" fill="#231f1f"/>
<path d="m359.5 88.21c-0.01172-0.5273-0.3203-0.9414-0.9297-0.9414-0.5664 0-1 0.4219-1.043 0.9414zm0.6602 0.4883h-2.633c0.01953 0.5703 0.4961 1.012 1.078 1.012 0.4492 0 0.7773-0.2266 0.9648-0.5078l0.4648 0.3711c-0.3594 0.4648-0.8398 0.6797-1.43 0.6797-1.008 0-1.75-0.6992-1.75-1.742 0-1.035 0.7422-1.758 1.715-1.758 0.9805 0 1.598 0.6641 1.598 1.723 0 0.07031 0 0.1445-0.007812 0.2227" fill="#231f1f"/>
<path d="m362.9 87.68c-0.1445-0.2383-0.4336-0.4141-0.7695-0.4141-0.3008 0-0.6172 0.1211-0.6172 0.4336 0 0.2812 0.25 0.3867 0.7578 0.5 0.6289 0.1406 1.113 0.3984 1.113 0.9805 0 0.7852-0.6523 1.07-1.324 1.07-0.5039 0-1.023-0.1953-1.34-0.5938l0.4688-0.3984c0.1797 0.2578 0.5156 0.4609 0.8828 0.4609 0.332 0 0.6602-0.1172 0.6602-0.4844 0-0.3047-0.3008-0.418-0.8672-0.5508-0.4414-0.1055-0.9688-0.2969-0.9688-0.918 0-0.7148 0.625-1.016 1.254-1.016 0.4688 0 0.9688 0.1875 1.203 0.5469l-0.4531 0.3828" fill="#231f1f"/>
<path d="m365.8 87.3c-0.707 0-1.105 0.5664-1.105 1.195 0 0.6328 0.3984 1.207 1.105 1.207 0.7148 0 1.105-0.5742 1.105-1.207 0-0.6289-0.3906-1.195-1.105-1.195zm0 2.953c-1.016 0-1.785-0.7344-1.785-1.758 0-1.02 0.7695-1.742 1.785-1.742s1.793 0.7227 1.793 1.742c0 1.023-0.7773 1.758-1.793 1.758" fill="#231f1f"/>
<path d="m368.4 86.84h0.6211c0.01562 0.168 0.02734 0.4219 0.02734 0.5625h0.02344c0.1797-0.3867 0.5664-0.6523 1.016-0.6523 0.08984 0 0.1797 0.007813 0.2578 0.02734l-0.02734 0.6094c-0.08203-0.01953-0.1953-0.03516-0.3008-0.03516-0.6328 0-0.9336 0.5117-0.9336 1.066v1.742h-0.6562v-2.605c0-0.1758-0.007813-0.4961-0.02734-0.7148" fill="#231f1f"/>
<path d="m372.7 87.3c-0.6719 0-1.121 0.5664-1.121 1.203 0 0.6367 0.4492 1.199 1.121 1.199 0.7227 0 1.105-0.582 1.105-1.207 0-0.6211-0.3828-1.195-1.105-1.195zm-1.078 4.543h-0.6602v-5h0.6484v0.5195h0.01953c0.2148-0.3516 0.6523-0.6094 1.199-0.6094 0.9844 0 1.656 0.7617 1.656 1.742 0 0.9766-0.6523 1.758-1.672 1.758-0.4688 0-0.9258-0.2148-1.172-0.5859h-0.01953v2.176" fill="#231f1f"/>
<path d="m377.1 87.38h-0.8828v1.73c0 0.3984 0.1406 0.5625 0.4688 0.5625 0.1172 0 0.2734-0.03125 0.3828-0.08594l0.02344 0.5391c-0.1562 0.05469-0.3594 0.08984-0.5625 0.08984-0.6211 0-0.9648-0.3477-0.9648-1.035v-1.801h-0.6367v-0.5391h0.6367v-0.9531h0.6523v0.9531h0.8828v0.5391" fill="#231f1f"/>
<path d="m378.4 90.16h-0.6602v-3.32h0.6602zm-0.332-4.098c-0.2383 0-0.4336-0.1875-0.4336-0.4219s0.1953-0.4258 0.4336-0.4258 0.4414 0.1836 0.4414 0.4258c0 0.2422-0.2031 0.4219-0.4414 0.4219" fill="#231f1f"/>
<path d="m381.1 87.3c-0.707 0-1.105 0.5664-1.105 1.195 0 0.6328 0.3984 1.207 1.105 1.207 0.7148 0 1.105-0.5742 1.105-1.207 0-0.6289-0.3906-1.195-1.105-1.195zm0 2.953c-1.016 0-1.785-0.7344-1.785-1.758 0-1.02 0.7695-1.742 1.785-1.742s1.793 0.7227 1.793 1.742c0 1.023-0.7773 1.758-1.793 1.758" fill="#231f1f"/>
<path d="m384.4 86.84c0.01172 0.168 0.02734 0.4062 0.02734 0.5469h0.01953c0.1602-0.3594 0.6055-0.6367 1.078-0.6367 0.8555 0 1.242 0.6094 1.242 1.352v2.059h-0.6602v-1.844c0-0.5391-0.1445-1.012-0.7578-1.012-0.5156 0-0.8867 0.4336-0.8867 1.09v1.766h-0.6602v-2.605c0-0.1758-0.003906-0.4961-0.02734-0.7148h0.625" fill="#231f1f"/>
<path d="m353.5 98.56h-3.238v-0.6523l1.977-1.957c0.3008-0.3086 0.5469-0.6328 0.5469-1.051 0-0.5195-0.3945-0.8555-0.8828-0.8555-0.5039 0-0.8477 0.3633-0.9336 0.8594l-0.6641-0.1094c0.1211-0.7578 0.7578-1.316 1.605-1.316 0.8242 0 1.566 0.4805 1.566 1.406 0 0.6367-0.3633 1.074-0.7969 1.5l-1.613 1.566h2.434v0.6094" fill="#231f1f"/>
<path d="m355.1 96.09c0 0.8398 0.1797 2.031 1 2.031 0.8047 0 0.9961-1.191 0.9961-2.031 0-0.832-0.1914-2.039-0.9961-2.039-0.8203 0-1 1.207-1 2.039zm2.688 0c0 1.449-0.5117 2.605-1.688 2.605-1.184 0-1.695-1.156-1.695-2.605 0-1.445 0.5117-2.605 1.695-2.605 1.176 0 1.688 1.16 1.688 2.605" fill="#231f1f"/>
<path d="m359.2 96.09c0 0.8398 0.1836 2.031 1.004 2.031 0.8008 0 0.9922-1.191 0.9922-2.031 0-0.832-0.1914-2.039-0.9922-2.039-0.8203 0-1.004 1.207-1.004 2.039zm2.688 0c0 1.449-0.5117 2.605-1.684 2.605-1.184 0-1.699-1.156-1.699-2.605 0-1.445 0.5156-2.605 1.699-2.605 1.172 0 1.684 1.16 1.684 2.605" fill="#231f1f"/>
<path d="m366.3 95.15c0.4414 0 0.8281 0.1953 1.031 0.6641 0.2227-0.4258 0.6562-0.6641 1.125-0.6641 0.8555 0 1.242 0.6094 1.242 1.352v2.059h-0.6602v-1.84c0-0.5391-0.1602-1.016-0.7344-1.016-0.6016 0-0.8398 0.5469-0.8398 1.062v1.793h-0.6602v-1.973c0-0.5195-0.1758-0.8828-0.6992-0.8828-0.4844 0-0.8477 0.4336-0.8477 1.094v1.762h-0.6602v-2.602c0-0.1758-0.003906-0.5-0.02734-0.7188h0.625c0.01172 0.168 0.02734 0.4062 0.02734 0.5469h0.02344c0.168-0.3477 0.5508-0.6367 1.055-0.6367" fill="#231f1f"/>
<path d="m372.4 98.04c0.6797 0 1.125-0.5117 1.125-1.172 0-0.6289-0.4531-1.168-1.125-1.168-0.6953 0-1.102 0.5312-1.102 1.168 0 0.6133 0.4062 1.172 1.102 1.172zm-1.301 1.094c0.2852 0.3203 0.7539 0.5391 1.211 0.5391 0.875 0 1.168-0.5391 1.168-1.227v-0.4258h-0.01172c-0.2461 0.3711-0.7031 0.5742-1.172 0.5742-1.016 0-1.676-0.7578-1.676-1.711 0-0.9531 0.6523-1.73 1.668-1.73 0.4766 0 0.9453 0.2109 1.199 0.625h0.01172v-0.5352h0.6406v3.152c0 0.9688-0.457 1.852-1.836 1.852-0.5742 0-1.211-0.2266-1.625-0.6016l0.4219-0.5117" fill="#231f1f"/>
<path d="m266.6 161.2h-74.75v-23h74.75v23" fill="#fef0ca"/>
<path transform="matrix(.1 0 0 -.1 0 201.8)" d="m2666 405h-747.5v230h747.5z" fill="none" stroke="#231f1f" stroke-width="5"/>
<path d="m219.3 149.1h0.01562l2.211-2.184h0.9609l-2.41 2.27 2.559 2.688h-0.9961l-2.324-2.562h-0.01562v2.562h-0.6953v-4.957h0.6953v2.184" fill="#231f1f"/>
<path d="m223.9 151.9h-0.6602v-3.32h0.6602zm-0.332-4.098c-0.2344 0-0.4336-0.1875-0.4336-0.418 0-0.2383 0.1992-0.4297 0.4336-0.4297 0.2422 0 0.4453 0.1836 0.4453 0.4297 0 0.2383-0.2031 0.418-0.4453 0.418" fill="#231f1f"/>
<path d="m226.6 151.4c0.6719 0 1.121-0.5586 1.121-1.195 0-0.6406-0.4492-1.207-1.121-1.207-0.7188 0-1.098 0.5742-1.098 1.195 0 0.625 0.3789 1.207 1.098 1.207zm-0.1094 0.5547c-1.023 0-1.676-0.7852-1.676-1.762 0-0.9766 0.6719-1.742 1.668-1.742 0.5391 0 0.9531 0.2656 1.184 0.5898h0.01172v-2.473h0.6602v5.293h-0.6367v-0.5234h-0.01562c-0.25 0.3984-0.7266 0.6172-1.195 0.6172" fill="#231f1f"/>
<path d="m230 148.5c0.01562 0.168 0.02734 0.4102 0.02734 0.5469h0.02344c0.1602-0.3555 0.6016-0.6367 1.078-0.6367 0.8516 0 1.238 0.6094 1.238 1.352v2.059h-0.6602v-1.84c0-0.5391-0.1445-1.016-0.7539-1.016-0.5195 0-0.8906 0.4336-0.8906 1.09v1.766h-0.6602v-2.605c0-0.1719-0.003907-0.4961-0.02734-0.7148h0.625" fill="#231f1f"/>
<path d="m236 149.9c-0.01562-0.5234-0.3242-0.9375-0.9336-0.9375-0.5664 0-1 0.418-1.043 0.9375zm0.6562 0.4883h-2.633c0.01953 0.5703 0.4961 1.012 1.078 1.012 0.4492 0 0.7773-0.2266 0.9648-0.5039l0.4648 0.3711c-0.3594 0.4609-0.8398 0.6797-1.43 0.6797-1.008 0-1.75-0.7031-1.75-1.746 0-1.035 0.7422-1.758 1.715-1.758 0.9805 0 1.598 0.6641 1.598 1.723 0 0.07031 0 0.1484-0.007813 0.2227" fill="#231f1f"/>
<path d="m238.8 151.1h0.01562l0.9141-2.605h0.7031l-1.613 4.105c-0.2148 0.5547-0.4961 0.8945-1.148 0.8945-0.1406 0-0.2852-0.01172-0.4336-0.04688l0.0625-0.582c0.1055 0.03516 0.2266 0.05859 0.332 0.05859 0.3398 0 0.4766-0.1992 0.6133-0.5547l0.2109-0.5547-1.422-3.32h0.7344l1.031 2.605" fill="#231f1f"/>
<g clip-path="url(#b)">
<path d="m391.2 201.5h-74.75v-23h74.75v23" fill="#fef0ca"/>
<path transform="matrix(.1 0 0 -.1 0 201.8)" d="m3912 2.5h-747.5v230h747.5z" fill="none" stroke="#231f1f" stroke-width="5"/>
</g>
<path d="m348.6 189.3h0.7344c0.6797 0 1.156-0.2227 1.156-0.8125 0-0.5938-0.4883-0.793-1.141-0.793h-0.75zm-0.6953-2.191h1.516c1.07 0 1.77 0.4141 1.77 1.379 0 0.9961-0.7773 1.402-1.805 1.402h-0.7852v2.176h-0.6953v-4.957" fill="#231f1f"/>
<path d="m353.7 192.1h-0.6914v-4.348h-1.59v-0.6094h3.871v0.6094h-1.59v4.348" fill="#231f1f"/>
<path d="m356 187.2h0.6914v2.074h2.508v-2.074h0.6992v4.957h-0.6992v-2.27h-2.508v2.27h-0.6914v-4.957" fill="#231f1f"/>
<path d="m75 121h-74.75v-23h74.75v23" fill="#fef0ca"/>
<path transform="matrix(.1 0 0 -.1 0 201.8)" d="m750 807.5h-747.5v230h747.5z" fill="none" stroke="#231f1f" stroke-width="5"/>
<path d="m25.12 111.6h-0.6953v-4.957h0.6953v4.957" fill="#231f1f"/>
<path d="m26.89 108.3c0.01562 0.168 0.02734 0.4102 0.02734 0.5469h0.02344c0.1602-0.3555 0.6016-0.6367 1.078-0.6367 0.8555 0 1.238 0.6094 1.238 1.352v2.059h-0.6562v-1.84c0-0.5391-0.1484-1.016-0.7578-1.016-0.5156 0-0.8906 0.4336-0.8906 1.09v1.766h-0.6562v-2.605c0-0.1719-0.007813-0.4961-0.02734-0.7148h0.6211" fill="#231f1f"/>
<path d="m31.99 108.8h-0.8828v1.727c0 0.4023 0.1406 0.5625 0.4688 0.5625 0.1211 0 0.2734-0.02734 0.3867-0.08594l0.01953 0.5391c-0.1523 0.05859-0.3555 0.08984-0.5625 0.08984-0.6211 0-0.9648-0.3477-0.9648-1.035v-1.797h-0.6367v-0.543h0.6367v-0.9492h0.6523v0.9492h0.8828v0.543" fill="#231f1f"/>
<path d="m35.1 109.7c-0.01172-0.5234-0.3203-0.9375-0.9297-0.9375-0.5664 0-1 0.418-1.043 0.9375zm0.6602 0.4883h-2.633c0.01953 0.5703 0.4961 1.012 1.078 1.012 0.4492 0 0.7773-0.2266 0.9648-0.5039l0.4648 0.3711c-0.3594 0.4609-0.8398 0.6797-1.43 0.6797-1.008 0-1.75-0.7031-1.75-1.746 0-1.035 0.7422-1.758 1.715-1.758 0.9805 0 1.598 0.6641 1.598 1.723 0 0.07031 0 0.1484-0.007813 0.2227" fill="#231f1f"/>
<path d="m38.47 109.1c-0.1445-0.2383-0.4336-0.4141-0.7695-0.4141-0.3008 0-0.6172 0.1172-0.6172 0.4336 0 0.2812 0.2539 0.3828 0.7578 0.4961 0.6289 0.1406 1.113 0.3984 1.113 0.9805 0 0.7852-0.6523 1.074-1.324 1.074-0.5039 0-1.023-0.1992-1.336-0.5977l0.4688-0.3984c0.1758 0.2578 0.5117 0.4609 0.8828 0.4609 0.3281 0 0.6562-0.1172 0.6562-0.4805 0-0.3086-0.3008-0.4219-0.8672-0.5547-0.4414-0.1055-0.9688-0.293-0.9688-0.918 0-0.7148 0.625-1.016 1.254-1.016 0.4727 0 0.9688 0.1914 1.207 0.5469l-0.457 0.3867" fill="#231f1f"/>
<path d="m41.41 108.8h-0.8828v1.727c0 0.4023 0.1406 0.5625 0.4688 0.5625 0.1172 0 0.2734-0.02734 0.3867-0.08594l0.01953 0.5391c-0.1523 0.05859-0.3594 0.08984-0.5625 0.08984-0.6211 0-0.9648-0.3477-0.9648-1.035v-1.797h-0.6367v-0.543h0.6367v-0.9492h0.6523v0.9492h0.8828v0.543" fill="#231f1f"/>
<path d="m42.76 111.6h-0.6602v-3.32h0.6602zm-0.332-4.098c-0.2344 0-0.4336-0.1875-0.4336-0.418 0-0.2383 0.1992-0.4297 0.4336-0.4297 0.2383 0 0.4414 0.1836 0.4414 0.4297 0 0.2383-0.2031 0.418-0.4414 0.418" fill="#231f1f"/>
<path d="m44.5 108.3c0.01562 0.168 0.02734 0.4102 0.02734 0.5469h0.01953c0.1641-0.3555 0.6055-0.6367 1.082-0.6367 0.8516 0 1.238 0.6094 1.238 1.352v2.059h-0.6602v-1.84c0-0.5391-0.1445-1.016-0.7539-1.016-0.5195 0-0.8906 0.4336-0.8906 1.09v1.766h-0.6562v-2.605c0-0.1719-0.007812-0.4961-0.03125-0.7148h0.625" fill="#231f1f"/>
<path d="m50.41 109.7c-0.01172-0.5234-0.3203-0.9375-0.9297-0.9375-0.5664 0-1 0.418-1.043 0.9375zm0.6602 0.4883h-2.633c0.01953 0.5703 0.4961 1.012 1.078 1.012 0.4492 0 0.7773-0.2266 0.9648-0.5039l0.4648 0.3711c-0.3594 0.4609-0.8398 0.6797-1.43 0.6797-1.008 0-1.75-0.7031-1.75-1.746 0-1.035 0.7422-1.758 1.715-1.758 0.9805 0 1.598 0.6641 1.598 1.723 0 0.07031 0 0.1484-0.007813 0.2227" fill="#231f1f"/>
<path d="m75 161.2h-74.75v-23h74.75v23" fill="#fef0ca"/>
<path transform="matrix(.1 0 0 -.1 0 201.8)" d="m750 405h-747.5v230h747.5z" fill="none" stroke="#231f1f" stroke-width="5"/>
<path d="m29.8 147.7h-0.6914v-4.957h3.098v0.6055h-2.406v1.543h2.25v0.5938h-2.25v2.215" fill="#231f1f"/>
<path d="m35.15 145.7c-0.01172-0.5273-0.3203-0.9414-0.9297-0.9414-0.5703 0-1.004 0.4219-1.047 0.9414zm0.6602 0.4883h-2.637c0.02344 0.5664 0.5 1.008 1.082 1.008 0.4453 0 0.7773-0.2227 0.9648-0.5039l0.4609 0.3711c-0.3555 0.4609-0.8398 0.6797-1.426 0.6797-1.012 0-1.754-0.6992-1.754-1.742 0-1.039 0.7422-1.758 1.719-1.758 0.9805 0 1.594 0.6641 1.594 1.723 0 0.06641 0 0.1445-0.003906 0.2227" fill="#231f1f"/>
<path d="m39.05 145.2c-0.1406-0.2148-0.4492-0.3789-0.7656-0.3789-0.6836 0-1.082 0.5625-1.082 1.199 0 0.6289 0.3984 1.199 1.09 1.199 0.3359 0 0.625-0.1406 0.8008-0.3672l0.4414 0.3984c-0.2812 0.3242-0.707 0.5195-1.242 0.5195-1.02 0-1.785-0.6914-1.785-1.75 0-1.043 0.7578-1.75 1.773-1.75 0.4688 0 0.9727 0.1875 1.246 0.543l-0.4766 0.3867" fill="#231f1f"/>
<path d="m42.62 145.7c-0.01563-0.5273-0.3203-0.9414-0.9297-0.9414-0.5703 0-1.004 0.4219-1.043 0.9414zm0.6602 0.4883h-2.633c0.01953 0.5664 0.4961 1.008 1.078 1.008 0.4453 0 0.7773-0.2227 0.9648-0.5039l0.4609 0.3711c-0.3555 0.4609-0.8398 0.6797-1.426 0.6797-1.012 0-1.754-0.6992-1.754-1.742 0-1.039 0.7422-1.758 1.719-1.758 0.9805 0 1.594 0.6641 1.594 1.723 0 0.06641 0 0.1445-0.003906 0.2227" fill="#231f1f"/>
<path d="m45.99 145.2c-0.1484-0.2383-0.4336-0.4141-0.7734-0.4141-0.3008 0-0.6133 0.1211-0.6133 0.4375 0 0.2773 0.25 0.3828 0.7539 0.4961 0.6328 0.1406 1.113 0.3984 1.113 0.9805 0 0.7852-0.6484 1.07-1.32 1.07-0.5039 0-1.023-0.1953-1.34-0.5938l0.4688-0.3984c0.1758 0.2578 0.5117 0.4609 0.8828 0.4609 0.3281 0 0.6602-0.1211 0.6602-0.4844 0-0.3086-0.3008-0.4219-0.8711-0.5547-0.4375-0.1016-0.9648-0.293-0.9648-0.9141 0-0.7148 0.6211-1.016 1.254-1.016 0.4688 0 0.9648 0.1875 1.203 0.543l-0.4531 0.3867" fill="#231f1f"/>
<path d="m27.27 153.2c0.4492 0 0.8125-0.3516 0.8125-0.8047 0-0.4766-0.3711-0.8125-0.8125-0.8125-0.4688 0-0.8125 0.3359-0.8125 0.8125 0 0.4531 0.3438 0.8047 0.8125 0.8047zm0 2.465c0.5586 0 0.9648-0.3828 0.9648-0.9453 0-0.5391-0.4062-0.9375-0.9648-0.9375-0.5664 0-0.9727 0.3906-0.9727 0.9375 0 0.5625 0.3984 0.9453 0.9727 0.9453zm1.66-0.9102c0 0.9336-0.7656 1.477-1.66 1.477-0.9023 0-1.668-0.543-1.668-1.477 0-0.6562 0.4297-1.121 0.9375-1.258v-0.01562c-0.4414-0.1562-0.7617-0.5625-0.7617-1.105 0-0.8203 0.6719-1.352 1.492-1.352 0.8125 0 1.484 0.5078 1.484 1.336 0 0.5391-0.3164 0.9727-0.7617 1.121v0.01562c0.5312 0.1328 0.9375 0.6211 0.9375 1.258" fill="#231f1f"/>
<path d="m30.44 153.6c0 0.8359 0.1797 2.027 1 2.027 0.8047 0 0.9961-1.191 0.9961-2.027 0-0.8359-0.1914-2.043-0.9961-2.043-0.8203 0-1 1.207-1 2.043zm2.688 0c0 1.449-0.5117 2.602-1.688 2.602-1.184 0-1.695-1.152-1.695-2.602 0-1.445 0.5117-2.605 1.695-2.605 1.176 0 1.688 1.16 1.688 2.605" fill="#231f1f"/>
<path d="m34.6 153.6c0 0.8359 0.1836 2.027 1 2.027 0.8086 0 0.9961-1.191 0.9961-2.027 0-0.8359-0.1875-2.043-0.9961-2.043-0.8164 0-1 1.207-1 2.043zm2.688 0c0 1.449-0.5078 2.602-1.688 2.602-1.184 0-1.695-1.152-1.695-2.602 0-1.445 0.5117-2.605 1.695-2.605 1.18 0 1.688 1.16 1.688 2.605" fill="#231f1f"/>
<path d="m41.7 152.7c0.4414 0 0.8281 0.1953 1.031 0.6641 0.2227-0.4258 0.6562-0.6641 1.125-0.6641 0.8555 0 1.242 0.6094 1.242 1.352v2.059h-0.6602v-1.84c0-0.5391-0.1602-1.016-0.7344-1.016-0.6016 0-0.8398 0.5469-0.8398 1.062v1.793h-0.6602v-1.973c0-0.5195-0.1719-0.8828-0.6992-0.8828-0.4844 0-0.8477 0.4336-0.8477 1.09v1.766h-0.6602v-2.605c0-0.1758-0.003906-0.4961-0.02734-0.7148h0.625c0.01172 0.168 0.02734 0.4062 0.02734 0.5469h0.02344c0.1641-0.3516 0.5508-0.6367 1.055-0.6367" fill="#231f1f"/>
<path d="m47.77 155.5c0.6797 0 1.129-0.5117 1.129-1.172 0-0.6289-0.457-1.168-1.129-1.168-0.6953 0-1.102 0.5312-1.102 1.168 0 0.6094 0.4062 1.172 1.102 1.172zm-1.305 1.09c0.2891 0.3242 0.7578 0.5391 1.211 0.5391 0.8789 0 1.172-0.5391 1.172-1.223v-0.4297h-0.01562c-0.2422 0.3711-0.6992 0.5742-1.168 0.5742-1.016 0-1.676-0.7539-1.676-1.707 0-0.9531 0.6523-1.73 1.668-1.73 0.4766 0 0.9453 0.2109 1.199 0.6211h0.01172v-0.5312h0.6406v3.152c0 0.9648-0.457 1.848-1.836 1.848-0.5742 0-1.211-0.2227-1.625-0.6016l0.418-0.5117" fill="#231f1f"/>
<path d="m167 121h-74.75v-23h74.75v23" fill="#fef0ca"/>
<path transform="matrix(.1 0 0 -.1 0 201.8)" d="m1670 807.5h-747.5v230h747.5z" fill="none" stroke="#231f1f" stroke-width="5"/>
<path d="m115.9 106.8h2.594v0.6172h-3.285v-4.957h3.18v0.6055h-2.488v1.484h2.34v0.5977h-2.34v1.652" fill="#231f1f"/>
<path d="m120.2 105.7-1.211-1.574h0.8086l0.8164 1.141 0.8164-1.141h0.7695l-1.195 1.566 1.336 1.754h-0.8164l-0.9258-1.297-0.9375 1.297h-0.793l1.332-1.746" fill="#231f1f"/>
<path d="m125.2 104.9c-0.1406-0.2148-0.4492-0.3789-0.7656-0.3789-0.6836 0-1.086 0.5625-1.086 1.199 0 0.6289 0.4023 1.199 1.094 1.199 0.3359 0 0.625-0.1406 0.7969-0.3672l0.4414 0.3984c-0.2773 0.3242-0.707 0.5195-1.238 0.5195-1.023 0-1.785-0.6914-1.785-1.75 0-1.043 0.7578-1.75 1.773-1.75 0.4688 0 0.9727 0.1875 1.246 0.543l-0.4766 0.3867" fill="#231f1f"/>
<path d="m126.3 104.1h0.6211c0.01562 0.168 0.02734 0.4219 0.02734 0.5586h0.02344c0.1797-0.3828 0.5664-0.6484 1.016-0.6484 0.08984 0 0.1797 0.003906 0.2578 0.02734l-0.02734 0.6094c-0.08594-0.02344-0.1953-0.03516-0.3008-0.03516-0.6328 0-0.9336 0.5117-0.9336 1.062v1.746h-0.6562v-2.605c0-0.1758-0.007813-0.4961-0.02734-0.7148" fill="#231f1f"/>
<path d="m131.2 105.5c-0.01172-0.5273-0.3203-0.9414-0.9297-0.9414-0.5664 0-1.004 0.4219-1.043 0.9414zm0.6602 0.4883h-2.633c0.01953 0.5664 0.4961 1.008 1.078 1.008 0.4492 0 0.7773-0.2227 0.9648-0.5039l0.4648 0.3711c-0.3594 0.4609-0.8438 0.6797-1.43 0.6797-1.008 0-1.75-0.6992-1.75-1.742 0-1.039 0.7422-1.758 1.715-1.758 0.9805 0 1.598 0.6641 1.598 1.723 0 0.06641 0 0.1445-0.007812 0.2227" fill="#231f1f"/>
<path d="m134.4 104.6h-0.8828v1.73c0 0.3984 0.1406 0.5586 0.4688 0.5586 0.1211 0 0.2734-0.02734 0.3867-0.08203l0.01953 0.5391c-0.1523 0.05469-0.3555 0.08984-0.5586 0.08984-0.625 0-0.9688-0.3516-0.9688-1.035v-1.801h-0.6367v-0.5391h0.6367v-0.9531h0.6523v0.9531h0.8828v0.5391" fill="#231f1f"/>
<path d="m135.7 107.4h-0.6602v-3.32h0.6602zm-0.3281-4.098c-0.2383 0-0.4336-0.1875-0.4336-0.4219 0-0.2383 0.1953-0.4258 0.4336-0.4258 0.2383 0 0.4414 0.1797 0.4414 0.4258 0 0.2383-0.2031 0.4219-0.4414 0.4219" fill="#231f1f"/>
<path d="m138.4 104.5c-0.707 0-1.105 0.5703-1.105 1.199s0.3984 1.207 1.105 1.207c0.7148 0 1.109-0.5781 1.109-1.207s-0.3945-1.199-1.109-1.199zm0 2.957c-1.016 0-1.785-0.7344-1.785-1.758 0-1.023 0.7695-1.742 1.785-1.742s1.793 0.7188 1.793 1.742c0 1.023-0.7773 1.758-1.793 1.758" fill="#231f1f"/>
<path d="m141.7 104.1c0.01562 0.168 0.02734 0.4062 0.02734 0.5469h0.02344c0.1602-0.3594 0.6016-0.6367 1.078-0.6367 0.8555 0 1.238 0.6055 1.238 1.352v2.059h-0.6562v-1.844c0-0.5391-0.1484-1.016-0.7578-1.016-0.5195 0-0.8906 0.4336-0.8906 1.094v1.766h-0.6562v-2.605c0-0.1758-0.007812-0.4961-0.02734-0.7148h0.6211" fill="#231f1f"/>
<path d="m119.8 115.8h-0.6797v-4.133l-0.9375 0.7852-0.3984-0.4688 1.406-1.141h0.6094v4.957" fill="#231f1f"/>
<path d="m122.4 113.3c0 0.8359 0.1797 2.027 1 2.027 0.8047 0 0.9961-1.191 0.9961-2.027 0-0.8359-0.1914-2.043-0.9961-2.043-0.8203 0-1 1.207-1 2.043zm2.688 0c0 1.449-0.5117 2.602-1.688 2.602-1.184 0-1.695-1.152-1.695-2.602 0-1.445 0.5117-2.605 1.695-2.605 1.176 0 1.688 1.16 1.688 2.605" fill="#231f1f"/>
<path d="m126.6 113.3c0 0.8359 0.1836 2.027 1 2.027 0.8086 0 0.9961-1.191 0.9961-2.027 0-0.8359-0.1875-2.043-0.9961-2.043-0.8164 0-1 1.207-1 2.043zm2.688 0c0 1.449-0.5078 2.602-1.688 2.602-1.184 0-1.695-1.152-1.695-2.602 0-1.445 0.5117-2.605 1.695-2.605 1.18 0 1.688 1.16 1.688 2.605" fill="#231f1f"/>
<path d="m133.7 112.4c0.4414 0 0.8281 0.1953 1.031 0.6641 0.2227-0.4258 0.6562-0.6641 1.125-0.6641 0.8555 0 1.242 0.6094 1.242 1.352v2.059h-0.6602v-1.84c0-0.5391-0.1602-1.016-0.7344-1.016-0.6016 0-0.8398 0.5469-0.8398 1.062v1.793h-0.6602v-1.973c0-0.5195-0.1758-0.8828-0.6992-0.8828-0.4844 0-0.8477 0.4336-0.8477 1.09v1.766h-0.6602v-2.605c0-0.1758-0.003906-0.4961-0.02734-0.7148h0.625c0.01172 0.168 0.02734 0.4062 0.02734 0.5469h0.02344c0.168-0.3516 0.5508-0.6367 1.055-0.6367" fill="#231f1f"/>
<path d="m139.8 115.3c0.6797 0 1.125-0.5117 1.125-1.172 0-0.6289-0.4531-1.168-1.125-1.168-0.6953 0-1.102 0.5312-1.102 1.168 0 0.6094 0.4062 1.172 1.102 1.172zm-1.305 1.09c0.2891 0.3242 0.7578 0.5391 1.215 0.5391 0.875 0 1.168-0.5391 1.168-1.223v-0.4297h-0.01562c-0.2422 0.3711-0.6992 0.5742-1.168 0.5742-1.016 0-1.676-0.7539-1.676-1.707 0-0.9531 0.6523-1.73 1.668-1.73 0.4766 0 0.9453 0.2109 1.199 0.6211h0.01172v-0.5312h0.6406v3.152c0 0.9648-0.457 1.848-1.836 1.848-0.5742 0-1.211-0.2227-1.625-0.6016l0.418-0.5117" fill="#231f1f"/>
<path d="m266.6 121h-74.75v-23h74.75v23" fill="#fef0ca"/>
<path transform="matrix(.1 0 0 -.1 0 201.8)" d="m2666 807.5h-747.5v230h747.5z" fill="none" stroke="#231f1f" stroke-width="5"/>
<path d="m218.2 107.4h-0.6914v-4.957h3.094v0.6055h-2.402v1.543h2.25v0.5938h-2.25v2.215" fill="#231f1f"/>
<path d="m222 107.4h-0.6602v-3.32h0.6602zm-0.3281-4.098c-0.2383 0-0.4375-0.1875-0.4375-0.4219 0-0.2383 0.1992-0.4258 0.4375-0.4258 0.2344 0 0.4375 0.1797 0.4375 0.4258 0 0.2383-0.2031 0.4219-0.4375 0.4219" fill="#231f1f"/>
<path d="m223.8 107.4h-0.6602v-5.297h0.6602v5.297" fill="#231f1f"/>
<path d="m226.6 104.6h-0.8828v1.73c0 0.3984 0.1367 0.5586 0.4688 0.5586 0.1172 0 0.2734-0.02734 0.3828-0.08203l0.02344 0.5391c-0.1562 0.05469-0.3594 0.08984-0.5625 0.08984-0.6211 0-0.9648-0.3516-0.9648-1.035v-1.801h-0.6367v-0.5391h0.6367v-0.9531h0.6523v0.9531h0.8828v0.5391" fill="#231f1f"/>
<path d="m229.7 105.5c-0.01172-0.5273-0.3203-0.9414-0.9297-0.9414-0.5664 0-1.004 0.4219-1.043 0.9414zm0.6602 0.4883h-2.633c0.01953 0.5664 0.4961 1.008 1.078 1.008 0.4492 0 0.7773-0.2227 0.9648-0.5039l0.4609 0.3711c-0.3555 0.4609-0.8398 0.6797-1.426 0.6797-1.008 0-1.75-0.6992-1.75-1.742 0-1.039 0.7422-1.758 1.715-1.758 0.9805 0 1.594 0.6641 1.594 1.723 0 0.06641 0 0.1445-0.003906 0.2227" fill="#231f1f"/>
<path d="m231.3 104.1h0.6211c0.01563 0.168 0.02734 0.4219 0.02734 0.5586h0.02344c0.1797-0.3828 0.5664-0.6484 1.016-0.6484 0.08984 0 0.1797 0.003906 0.2578 0.02734l-0.02734 0.6094c-0.08203-0.02344-0.1953-0.03516-0.3008-0.03516-0.6328 0-0.9336 0.5117-0.9336 1.062v1.746h-0.6562v-2.605c0-0.1758-0.007812-0.4961-0.02734-0.7148" fill="#231f1f"/>
<path d="m236.1 105.5c-0.01562-0.5273-0.3242-0.9414-0.9336-0.9414-0.5664 0-1 0.4219-1.043 0.9414zm0.6562 0.4883h-2.633c0.01953 0.5664 0.4961 1.008 1.078 1.008 0.4492 0 0.7773-0.2227 0.9648-0.5039l0.4648 0.3711c-0.3594 0.4609-0.8398 0.6797-1.43 0.6797-1.008 0-1.75-0.6992-1.75-1.742 0-1.039 0.7422-1.758 1.715-1.758 0.9805 0 1.598 0.6641 1.598 1.723 0 0.06641 0 0.1445-0.007813 0.2227" fill="#231f1f"/>
<path d="m239.3 107c0.6719 0 1.121-0.5625 1.121-1.199 0-0.6367-0.4492-1.207-1.121-1.207-0.7227 0-1.098 0.5742-1.098 1.199s0.375 1.207 1.098 1.207zm-0.1133 0.5508c-1.02 0-1.672-0.7852-1.672-1.758 0-0.9805 0.6719-1.742 1.664-1.742 0.543 0 0.9531 0.2656 1.188 0.5859h0.01172v-2.473h0.6602v5.297h-0.6406v-0.5273h-0.01172c-0.2539 0.3984-0.7305 0.6172-1.199 0.6172" fill="#231f1f"/>
<path d="m216.8 111.3c-0.6094 0-1.031 0.4492-1.031 1.066 0 0.5977 0.4062 1.039 1.023 1.039 0.625 0 1.035-0.4375 1.035-1.047 0-0.5781-0.4102-1.059-1.027-1.059zm0.4609 2.516-0.007812-0.003906c-0.06641 0.03906-0.1719 0.07422-0.2852 0.09766-0.1133 0.01953-0.2305 0.03516-0.3359 0.03516-0.8711 0-1.547-0.6523-1.547-1.555 0-0.9883 0.7422-1.652 1.715-1.652 0.9805 0 1.707 0.6914 1.707 1.629 0 0.5391-0.1953 0.9531-0.4727 1.41l-1.297 2.043h-0.8047l1.328-2.004" fill="#231f1f"/>
<path d="m220 113.3c0 0.8359 0.1797 2.027 1 2.027 0.8047 0 0.9961-1.191 0.9961-2.027 0-0.8359-0.1914-2.043-0.9961-2.043-0.8203 0-1 1.207-1 2.043zm2.691 0c0 1.449-0.5156 2.602-1.691 2.602-1.184 0-1.695-1.152-1.695-2.602 0-1.445 0.5117-2.605 1.695-2.605 1.176 0 1.691 1.16 1.691 2.605" fill="#231f1f"/>
<path d="m224.1 113.3c0 0.8359 0.1836 2.027 1 2.027 0.8086 0 0.9961-1.191 0.9961-2.027 0-0.8359-0.1875-2.043-0.9961-2.043-0.8164 0-1 1.207-1 2.043zm2.691 0c0 1.449-0.5117 2.602-1.691 2.602-1.18 0-1.691-1.152-1.691-2.602 0-1.445 0.5117-2.605 1.691-2.605 1.18 0 1.691 1.16 1.691 2.605" fill="#231f1f"/>
<path d="m228.3 113.3c0 0.8359 0.1836 2.027 1.004 2.027 0.8047 0 0.9922-1.191 0.9922-2.027 0-0.8359-0.1875-2.043-0.9922-2.043-0.8203 0-1.004 1.207-1.004 2.043zm2.691 0c0 1.449-0.5117 2.602-1.688 2.602-1.184 0-1.695-1.152-1.695-2.602 0-1.445 0.5117-2.605 1.695-2.605 1.176 0 1.688 1.16 1.688 2.605" fill="#231f1f"/>
<path d="m235.4 112.4c0.4414 0 0.8242 0.1953 1.027 0.6641 0.2227-0.4258 0.6602-0.6641 1.129-0.6641 0.8555 0 1.238 0.6094 1.238 1.352v2.059h-0.6562v-1.84c0-0.5391-0.1641-1.016-0.7383-1.016-0.6016 0-0.8398 0.5469-0.8398 1.062v1.793h-0.6562v-1.973c0-0.5195-0.1758-0.8828-0.7031-0.8828-0.4805 0-0.8477 0.4336-0.8477 1.09v1.766h-0.6562v-2.605c0-0.1758-0.007813-0.4961-0.02734-0.7148h0.6211c0.01562 0.168 0.03125 0.4062 0.03125 0.5469h0.01953c0.168-0.3516 0.5508-0.6367 1.059-0.6367" fill="#231f1f"/>
<path d="m241.5 115.3c0.6797 0 1.129-0.5117 1.129-1.172 0-0.6289-0.457-1.168-1.129-1.168-0.6914 0-1.098 0.5312-1.098 1.168 0 0.6094 0.4062 1.172 1.098 1.172zm-1.301 1.09c0.2852 0.3242 0.7539 0.5391 1.211 0.5391 0.875 0 1.168-0.5391 1.168-1.223v-0.4297h-0.01172c-0.2461 0.3711-0.6992 0.5742-1.172 0.5742-1.016 0-1.672-0.7539-1.672-1.707 0-0.9531 0.6523-1.73 1.664-1.73 0.4805 0 0.9492 0.2109 1.199 0.6211h0.01562v-0.5312h0.6367v3.152c0 0.9648-0.457 1.848-1.836 1.848-0.5742 0-1.211-0.2227-1.625-0.6016l0.4219-0.5117" fill="#231f1f"/>
<g clip-path="url(#a)">
<path d="m266.6 201.5h-74.75v-23h74.75v23" fill="#fef0ca"/>
<path transform="matrix(.1 0 0 -.1 0 201.8)" d="m2666 2.5h-747.5v230h747.5z" fill="none" stroke="#231f1f" stroke-width="5"/>
</g>
<path d="m221.1 186.1v-3.121h0.6953v3.078c0 0.6797 0.3086 1.379 1.23 1.379 0.9258 0 1.234-0.6992 1.234-1.379v-3.078h0.6914v3.121c0 1.016-0.6133 1.961-1.926 1.961-1.309 0-1.926-0.9453-1.926-1.961" fill="#231f1f"/>
<path d="m226.1 184.6h0.6211c0.01562 0.168 0.03125 0.4219 0.03125 0.5586h0.01953c0.1836-0.3828 0.5664-0.6484 1.016-0.6484 0.08984 0 0.1836 0.003906 0.2578 0.02734l-0.02734 0.6094c-0.08203-0.02344-0.1953-0.03516-0.3008-0.03516-0.6289 0-0.9297 0.5117-0.9297 1.062v1.746h-0.6602v-2.605c0-0.1758-0.007812-0.4961-0.02734-0.7148" fill="#231f1f"/>
<path d="m229.3 187.9h-0.6562v-3.32h0.6562zm-0.3281-4.098c-0.2383 0-0.4336-0.1875-0.4336-0.4219 0-0.2383 0.1953-0.4258 0.4336-0.4258s0.4414 0.1797 0.4414 0.4258c0 0.2383-0.2031 0.4219-0.4414 0.4219" fill="#231f1f"/>
<path d="m231 184.6c0.01563 0.168 0.02734 0.4062 0.02734 0.5469h0.02344c0.1602-0.3594 0.6016-0.6367 1.078-0.6367 0.8555 0 1.238 0.6055 1.238 1.352v2.059h-0.6562v-1.844c0-0.5391-0.1484-1.016-0.7578-1.016-0.5156 0-0.8867 0.4336-0.8867 1.094v1.766h-0.6602v-2.605c0-0.1758-0.007812-0.4961-0.02734-0.7148h0.6211" fill="#231f1f"/>
<path d="m236.9 186c-0.01172-0.5273-0.3203-0.9414-0.9297-0.9414-0.5703 0-1.004 0.4219-1.047 0.9414zm0.6602 0.4883h-2.637c0.02344 0.5664 0.5 1.008 1.082 1.008 0.4453 0 0.7734-0.2227 0.9648-0.5039l0.4609 0.3711c-0.3555 0.4609-0.8398 0.6797-1.426 0.6797-1.012 0-1.754-0.6992-1.754-1.742 0-1.039 0.7422-1.758 1.719-1.758 0.9805 0 1.594 0.6641 1.594 1.723 0 0.06641 0 0.1445-0.003906 0.2227" fill="#231f1f"/>
<path d="m220.5 196.3h-3.238v-0.6484l1.977-1.965c0.3008-0.3047 0.5469-0.6289 0.5469-1.051 0-0.5156-0.3945-0.8555-0.8828-0.8555-0.5039 0-0.8477 0.3672-0.9297 0.8633l-0.668-0.1133c0.1211-0.7539 0.7578-1.312 1.605-1.312 0.8242 0 1.566 0.4805 1.566 1.406 0 0.6367-0.3633 1.07-0.7969 1.5l-1.609 1.566h2.43v0.6094" fill="#231f1f"/>
<path d="m222.1 193.8c0 0.8438 0.1836 2.031 1 2.031 0.8086 0 0.9961-1.188 0.9961-2.031 0-0.832-0.1875-2.039-0.9961-2.039-0.8164 0-1 1.207-1 2.039zm2.691 0c0 1.453-0.5117 2.605-1.691 2.605-1.184 0-1.695-1.152-1.695-2.605 0-1.441 0.5117-2.602 1.695-2.602 1.18 0 1.691 1.16 1.691 2.602" fill="#231f1f"/>
<path d="m226.2 193.8c0 0.8438 0.1836 2.031 1.004 2.031 0.8047 0 0.9922-1.188 0.9922-2.031 0-0.832-0.1875-2.039-0.9922-2.039-0.8203 0-1.004 1.207-1.004 2.039zm2.691 0c0 1.453-0.5117 2.605-1.688 2.605-1.184 0-1.695-1.152-1.695-2.605 0-1.441 0.5117-2.602 1.695-2.602 1.176 0 1.688 1.16 1.688 2.602" fill="#231f1f"/>
<path d="m233.3 192.9c0.4414 0 0.8281 0.1953 1.031 0.6641 0.2227-0.4258 0.6602-0.6641 1.129-0.6641 0.8555 0 1.238 0.6094 1.238 1.352v2.059h-0.6602v-1.84c0-0.5391-0.1602-1.016-0.7344-1.016-0.6016 0-0.8398 0.543-0.8398 1.062v1.793h-0.6562v-1.977c0-0.5156-0.1758-0.8789-0.7031-0.8789-0.4805 0-0.8477 0.4336-0.8477 1.09v1.766h-0.6562v-2.605c0-0.1758-0.007812-0.4961-0.02734-0.7148h0.6211c0.01562 0.1719 0.02734 0.4062 0.02734 0.5469h0.02344c0.168-0.3516 0.5508-0.6367 1.055-0.6367" fill="#231f1f"/>
<path d="m239.4 195.8c0.6797 0 1.129-0.5117 1.129-1.172 0-0.6289-0.457-1.168-1.129-1.168-0.6914 0-1.098 0.5312-1.098 1.168 0 0.6094 0.4062 1.172 1.098 1.172zm-1.301 1.09c0.2852 0.3242 0.7539 0.5391 1.211 0.5391 0.875 0 1.168-0.5391 1.168-1.223v-0.4297h-0.01172c-0.2461 0.3711-0.7031 0.5742-1.172 0.5742-1.016 0-1.672-0.7578-1.672-1.707 0-0.9531 0.6484-1.73 1.664-1.73 0.4766 0 0.9453 0.2109 1.199 0.6211h0.01562v-0.5312h0.6367v3.152c0 0.9648-0.457 1.848-1.836 1.848-0.5742 0-1.211-0.2227-1.625-0.6016l0.4219-0.5117" fill="#231f1f"/>
<path d="m356.8 161.2h-74.75v-23h74.75v23" fill="#fef0ca"/>
<path transform="matrix(.1 0 0 -.1 0 201.8)" d="m3568 405h-747.5v230h747.5z" fill="none" stroke="#231f1f" stroke-width="5"/>
<path d="m301 144.9h0.7969c0.6523 0 1.164-0.2031 1.164-0.7969s-0.5117-0.7852-1.113-0.7852h-0.8477zm0 2.789h-0.6953v-4.957h1.59c0.9609 0 1.766 0.3633 1.766 1.371 0 0.7305-0.4961 1.191-1.203 1.309l1.387 2.277h-0.8398l-1.262-2.207h-0.7422v2.207" fill="#231f1f"/>
<path d="m307 145.7c-0.01172-0.5273-0.3203-0.9414-0.9297-0.9414-0.5664 0-1.004 0.4219-1.043 0.9414zm0.6602 0.4883h-2.633c0.01953 0.5703 0.4961 1.012 1.078 1.012 0.4492 0 0.7773-0.2266 0.9648-0.5039l0.4648 0.3711c-0.3594 0.4609-0.8438 0.6758-1.43 0.6758-1.008 0-1.75-0.6992-1.75-1.742 0-1.035 0.7422-1.758 1.715-1.758 0.9805 0 1.598 0.6641 1.598 1.723 0 0.07031 0 0.1445-0.007812 0.2227" fill="#231f1f"/>
<path d="m310.4 146.1c-0.6523 0-1.477 0.07031-1.477 0.6289 0 0.3945 0.3477 0.5195 0.6758 0.5195 0.6172 0 0.9609-0.4141 0.9609-0.9727v-0.1758zm0.1602-0.5664c0-0.4922-0.3281-0.7305-0.8203-0.7305-0.3672 0-0.7188 0.1602-0.9453 0.3867l-0.3477-0.4219c0.3203-0.3086 0.8164-0.4961 1.359-0.4961 0.9531 0 1.383 0.5664 1.383 1.301v1.453c0 0.2227 0.01563 0.4961 0.05078 0.6562h-0.5938c-0.03516-0.1484-0.05859-0.3203-0.05859-0.4766h-0.01953c-0.2383 0.3555-0.6172 0.5586-1.113 0.5586-0.5234 0-1.203-0.2578-1.203-1.02 0-1.004 1.188-1.121 2.309-1.121v-0.08984" fill="#231f1f"/>
<path d="m314 144.8c-0.6719 0-1.121 0.5703-1.121 1.207 0 0.6367 0.4492 1.199 1.121 1.199 0.7227 0 1.105-0.582 1.105-1.207 0-0.6211-0.3828-1.199-1.105-1.199zm-1.102 2.344v0.5234h-0.6367v-5.297h0.6602v2.473h0.01953c0.2266-0.3203 0.6367-0.5859 1.184-0.5859 0.9883 0 1.66 0.7617 1.66 1.742 0 0.9766-0.6523 1.758-1.676 1.758-0.4688 0-0.9375-0.2148-1.195-0.6133h-0.01563" fill="#231f1f"/>
<path d="m318.5 145.2c-0.1445-0.2383-0.4336-0.4141-0.7695-0.4141-0.3008 0-0.6172 0.1211-0.6172 0.4375 0 0.2773 0.2539 0.3828 0.7578 0.4961 0.6289 0.1406 1.113 0.3984 1.113 0.9805 0 0.7852-0.6523 1.07-1.324 1.07-0.5039 0-1.023-0.1953-1.34-0.5938l0.4727-0.3984c0.1758 0.2578 0.5117 0.4609 0.8828 0.4609 0.3281 0 0.6562-0.1172 0.6562-0.4844 0-0.3047-0.3008-0.418-0.8672-0.5508-0.4414-0.1055-0.9688-0.2969-0.9688-0.918 0-0.7148 0.625-1.016 1.254-1.016 0.4727 0 0.9688 0.1875 1.207 0.543l-0.457 0.3867" fill="#231f1f"/>
<path d="m321.4 144.8c-0.7109 0-1.109 0.5703-1.109 1.199 0 0.6328 0.3984 1.207 1.109 1.207 0.7109 0 1.105-0.5742 1.105-1.207 0-0.6289-0.3945-1.199-1.105-1.199zm0 2.957c-1.02 0-1.789-0.7344-1.789-1.758 0-1.02 0.7695-1.742 1.789-1.742 1.012 0 1.793 0.7227 1.793 1.742 0 1.023-0.7812 1.758-1.793 1.758" fill="#231f1f"/>
<path d="m324.1 144.3h0.6211c0.01562 0.168 0.02734 0.4219 0.02734 0.5625h0.02344c0.1797-0.3867 0.5664-0.6523 1.016-0.6523 0.08984 0 0.1836 0.007813 0.2578 0.02734l-0.02734 0.6094c-0.08203-0.01953-0.1953-0.03516-0.3008-0.03516-0.6289 0-0.9336 0.5117-0.9336 1.062v1.746h-0.6562v-2.605c0-0.1758-0.007812-0.4961-0.02734-0.7148" fill="#231f1f"/>
<path d="m328.4 144.8c-0.6719 0-1.121 0.5703-1.121 1.207 0 0.6367 0.4492 1.199 1.121 1.199 0.7227 0 1.105-0.582 1.105-1.207 0-0.6211-0.3828-1.199-1.105-1.199zm-1.098 2.344v0.5234h-0.6406v-5.297h0.6602v2.473h0.01953c0.2227-0.3203 0.6367-0.5859 1.184-0.5859 0.9883 0 1.66 0.7617 1.66 1.742 0 0.9766-0.6523 1.758-1.676 1.758-0.4648 0-0.9375-0.2148-1.195-0.6133h-0.01172" fill="#231f1f"/>
<path d="m333.5 145.7c-0.01172-0.5273-0.3203-0.9414-0.9297-0.9414-0.5664 0-1.004 0.4219-1.043 0.9414zm0.6602 0.4883h-2.633c0.01953 0.5703 0.4961 1.012 1.078 1.012 0.4492 0 0.7773-0.2266 0.9648-0.5039l0.4648 0.3711c-0.3594 0.4609-0.8438 0.6758-1.43 0.6758-1.008 0-1.75-0.6992-1.75-1.742 0-1.035 0.7422-1.758 1.715-1.758 0.9805 0 1.598 0.6641 1.598 1.723 0 0.07031 0 0.1445-0.007812 0.2227" fill="#231f1f"/>
<path d="m336.7 147.2c0.6719 0 1.121-0.5625 1.121-1.199 0-0.6367-0.4492-1.207-1.121-1.207-0.7227 0-1.098 0.5781-1.098 1.199 0 0.625 0.375 1.207 1.098 1.207zm-0.1133 0.5508c-1.02 0-1.672-0.7812-1.672-1.758 0-0.9805 0.6719-1.742 1.664-1.742 0.543 0 0.9531 0.2656 1.184 0.5859h0.01562v-2.473h0.6602v5.297h-0.6406v-0.5234h-0.01172c-0.2539 0.3984-0.7305 0.6133-1.199 0.6133" fill="#231f1f"/>
<path d="m306.9 153.2c0.4492 0 0.8125-0.3477 0.8125-0.8047 0-0.4766-0.3711-0.8125-0.8125-0.8125-0.4688 0-0.8125 0.3359-0.8125 0.8125 0 0.457 0.3438 0.8047 0.8125 0.8047zm0 2.465c0.5586 0 0.9648-0.3828 0.9648-0.9453 0-0.5391-0.4062-0.9375-0.9648-0.9375-0.5664 0-0.9727 0.3945-0.9727 0.9375 0 0.5625 0.3984 0.9453 0.9727 0.9453zm1.66-0.9102c0 0.9336-0.7656 1.48-1.66 1.48-0.9062 0-1.668-0.5469-1.668-1.48 0-0.6562 0.4258-1.117 0.9414-1.258v-0.01562c-0.4453-0.1523-0.7656-0.5586-0.7656-1.105 0-0.8203 0.6719-1.352 1.492-1.352 0.8125 0 1.484 0.5117 1.484 1.336 0 0.5391-0.3164 0.9727-0.7656 1.121v0.01562c0.5352 0.1328 0.9414 0.6211 0.9414 1.258" fill="#231f1f"/>
<path d="m311.1 153.2c0.4492 0 0.8125-0.3477 0.8125-0.8047 0-0.4766-0.3711-0.8125-0.8125-0.8125-0.4688 0-0.8125 0.3359-0.8125 0.8125 0 0.457 0.3438 0.8047 0.8125 0.8047zm0 2.465c0.5586 0 0.9648-0.3828 0.9648-0.9453 0-0.5391-0.4062-0.9375-0.9648-0.9375-0.5664 0-0.9727 0.3945-0.9727 0.9375 0 0.5625 0.3984 0.9453 0.9727 0.9453zm1.66-0.9102c0 0.9336-0.7617 1.48-1.66 1.48-0.9023 0-1.668-0.5469-1.668-1.48 0-0.6562 0.4297-1.117 0.9414-1.258v-0.01562c-0.4414-0.1523-0.7656-0.5586-0.7656-1.105 0-0.8203 0.6719-1.352 1.492-1.352 0.8125 0 1.484 0.5117 1.484 1.336 0 0.5391-0.3164 0.9727-0.7617 1.121v0.01562c0.5312 0.1328 0.9375 0.6211 0.9375 1.258" fill="#231f1f"/>
<path d="m314.3 153.6c0 0.8398 0.1797 2.031 1 2.031 0.8047 0 0.9961-1.191 0.9961-2.031 0-0.8359-0.1914-2.039-0.9961-2.039-0.8203 0-1 1.203-1 2.039zm2.691 0c0 1.449-0.5156 2.605-1.691 2.605-1.184 0-1.695-1.156-1.695-2.605 0-1.445 0.5117-2.605 1.695-2.605 1.176 0 1.691 1.16 1.691 2.605" fill="#231f1f"/>
<path d="m318.4 153.6c0 0.8398 0.1836 2.031 1.004 2.031 0.8047 0 0.9922-1.191 0.9922-2.031 0-0.8359-0.1875-2.039-0.9922-2.039-0.8203 0-1.004 1.203-1.004 2.039zm2.688 0c0 1.449-0.5078 2.605-1.684 2.605-1.184 0-1.699-1.156-1.699-2.605 0-1.445 0.5156-2.605 1.699-2.605 1.176 0 1.684 1.16 1.684 2.605" fill="#231f1f"/>
<path d="m325.5 152.7c0.4414 0 0.8281 0.1953 1.031 0.6641 0.2227-0.4258 0.6602-0.6641 1.125-0.6641 0.8555 0 1.242 0.6094 1.242 1.352v2.059h-0.6602v-1.84c0-0.5391-0.1602-1.016-0.7344-1.016-0.6016 0-0.8398 0.5469-0.8398 1.062v1.793h-0.6602v-1.973c0-0.5195-0.1758-0.8828-0.6992-0.8828-0.4805 0-0.8477 0.4336-0.8477 1.09v1.766h-0.6562v-2.605c0-0.1719-0.007812-0.4961-0.02734-0.7148h0.6211c0.01562 0.1719 0.02734 0.4062 0.02734 0.5469h0.02344c0.168-0.3477 0.5508-0.6367 1.055-0.6367" fill="#231f1f"/>
<path d="m331.6 155.5c0.6797 0 1.129-0.5117 1.129-1.172 0-0.6289-0.457-1.168-1.129-1.168-0.6953 0-1.098 0.5312-1.098 1.168 0 0.6133 0.4023 1.172 1.098 1.172zm-1.301 1.094c0.2852 0.3203 0.7539 0.5391 1.211 0.5391 0.875 0 1.168-0.5391 1.168-1.227v-0.4258h-0.01563c-0.2422 0.3711-0.6992 0.5742-1.168 0.5742-1.016 0-1.676-0.7578-1.676-1.711 0-0.9531 0.6523-1.73 1.668-1.73 0.4766 0 0.9453 0.2109 1.199 0.625h0.01172v-0.5352h0.6406v3.152c0 0.9688-0.457 1.852-1.836 1.852-0.5742 0-1.211-0.2266-1.625-0.6016l0.4219-0.5117" fill="#231f1f"/>
<path transform="matrix(.1 0 0 -.1 0 201.8)" d="m3050 1584h-419" fill="none" stroke="#231f1f" stroke-width="5"/>
<path d="m259 43.36c1.703-0.6328 3.816-1.711 5.129-2.855l-1.031 2.855 1.031 2.848c-1.312-1.141-3.426-2.219-5.129-2.848" fill="#231f1f"/>
<path transform="matrix(.1 0 0 -.1 0 201.8)" d="m3050 1585v-489.9h166.6" fill="none" stroke="#231f1f" stroke-width="5"/>
<path transform="matrix(.1 0 0 -.1 0 201.8)" d="m1066 1207v134.5" fill="none" stroke="#231f1f" stroke-width="5"/>
<path d="m106.6 63.5c0.6328 1.703 1.711 3.816 2.855 5.129l-2.855-1.031-2.848 1.031c1.141-1.312 2.219-3.426 2.848-5.129" fill="#231f1f"/>
<path transform="matrix(.1 0 0 -.1 0 201.8)" d="m1067 1207h-432.4v-166.6" fill="none" stroke="#231f1f" stroke-width="5"/>
<path transform="matrix(.1 0 0 -.1 0 201.8)" d="m2935 1411h-304" fill="none" stroke="#231f1f" stroke-width="5"/>
<path d="m259 60.61c1.703-0.6328 3.816-1.711 5.129-2.855l-1.031 2.855 1.031 2.848c-1.312-1.141-3.426-2.219-5.129-2.848" fill="#231f1f"/>
<path transform="matrix(.1 0 0 -.1 0 201.8)" d="m2935 1412v-777.4" fill="none" stroke="#231f1f" stroke-width="5"/>
<path transform="matrix(.1 0 0 -.1 0 201.8)" d="m2302 1922h873.1" fill="none" stroke="#231f1f" stroke-width="5"/>
<path d="m321.7 9.551c-1.703-0.6289-3.816-1.711-5.125-2.852l1.031 2.852-1.031 2.852c1.309-1.141 3.422-2.219 5.125-2.852" fill="#231f1f"/>
<path transform="matrix(.1 0 0 -.1 0 201.8)" d="m2302 1923v-252.9" fill="none" stroke="#231f1f" stroke-width="5"/>
<path transform="matrix(.1 0 0 -.1 0 201.8)" d="m2302 1382v-167.7" fill="none" stroke="#231f1f" stroke-width="5"/>
<path transform="matrix(.1 0 0 -.1 0 201.8)" d="m1296 1096v120h1006v-120" fill="none" stroke="#231f1f" stroke-width="5"/>
<path d="m230.2 95.77c-0.6328-1.703-1.711-3.82-2.855-5.129l2.855 1.031 2.855-1.031c-1.145 1.309-2.223 3.426-2.855 5.129" fill="#231f1f"/>
<path d="m129.6 95.77c-0.6289-1.703-1.711-3.82-2.852-5.129l2.852 1.031 2.855-1.031c-1.145 1.309-2.223 3.426-2.855 5.129" fill="#231f1f"/>
<path d="m259 69.25h-57.5v-34.5h57.5v34.5" fill="#fef0ca"/>
<path transform="matrix(.1 0 0 -.1 0 201.8)" d="m2590 1325h-575v345h575z" fill="none" stroke="#231f1f" stroke-width="5"/>
<path d="m221.9 49.32h0.8711c0.5859 0 1.23-0.1797 1.23-0.8516 0-0.582-0.4102-0.8359-1.168-0.8359h-0.9336zm0-2.273h0.9062c0.5312 0 0.9727-0.2344 0.9727-0.7734 0-0.5312-0.4258-0.7422-1.086-0.7422h-0.793zm-0.6914-2.098h1.707c0.75 0 1.559 0.3125 1.559 1.258 0 0.543-0.3516 0.9375-0.8711 1.074v0.01562c0.6367 0.07812 1.102 0.5117 1.102 1.207 0 0.9531-0.8281 1.406-1.863 1.406h-1.633v-4.961" fill="#231f1f"/>
<path d="m226.3 49.91h-0.6602v-5.297h0.6602v5.297" fill="#231f1f"/>
<path d="m229.1 47.05c-0.707 0-1.105 0.5664-1.105 1.195 0 0.6328 0.3984 1.207 1.105 1.207 0.7148 0 1.105-0.5742 1.105-1.207 0-0.6289-0.3906-1.195-1.105-1.195zm0 2.953c-1.016 0-1.785-0.7344-1.785-1.758 0-1.02 0.7695-1.742 1.785-1.742s1.793 0.7227 1.793 1.742c0 1.023-0.7773 1.758-1.793 1.758" fill="#231f1f"/>
<path d="m233.3 47.05c-0.707 0-1.105 0.5664-1.105 1.195 0 0.6328 0.3984 1.207 1.105 1.207 0.7148 0 1.105-0.5742 1.105-1.207 0-0.6289-0.3906-1.195-1.105-1.195zm0 2.953c-1.016 0-1.785-0.7344-1.785-1.758 0-1.02 0.7695-1.742 1.785-1.742 1.016 0 1.793 0.7227 1.793 1.742 0 1.023-0.7773 1.758-1.793 1.758" fill="#231f1f"/>
<path d="m237.6 49.45c0.6758 0 1.121-0.5625 1.121-1.199 0-0.6367-0.4453-1.203-1.121-1.203-0.7188 0-1.098 0.5742-1.098 1.195 0 0.625 0.3789 1.207 1.098 1.207zm-0.1094 0.5508c-1.023 0-1.676-0.7812-1.676-1.758 0-0.9805 0.6719-1.742 1.668-1.742 0.5391 0 0.9531 0.2656 1.184 0.5859h0.01172v-2.473h0.6602v5.297h-0.6367v-0.5234h-0.01562c-0.25 0.3984-0.7266 0.6133-1.195 0.6133" fill="#231f1f"/>
<path d="m222.1 57.54c-0.3867 0.5273-1.023 0.8984-1.891 0.8984-1.52 0-2.613-1.086-2.613-2.613 0-1.547 1.133-2.598 2.641-2.598 0.6797 0 1.414 0.2656 1.777 0.7695l-0.543 0.4219c-0.2422-0.3359-0.7227-0.582-1.234-0.582-1.148 0-1.883 0.9023-1.883 1.988 0 1.113 0.7188 1.996 1.863 1.996 0.5508 0 1.035-0.2305 1.328-0.6602l0.5547 0.3789" fill="#231f1f"/>
<path d="m224.6 56.73c-0.6523 0-1.48 0.07031-1.48 0.6289 0 0.3945 0.3516 0.5195 0.6797 0.5195 0.6172 0 0.9609-0.4102 0.9609-0.9727v-0.1758zm0.1602-0.5664c0-0.4883-0.3281-0.7266-0.8203-0.7266-0.3711 0-0.7188 0.1602-0.9453 0.3828l-0.3477-0.4219c0.3203-0.3047 0.8164-0.4961 1.355-0.4961 0.9531 0 1.387 0.5703 1.387 1.305v1.449c0 0.2227 0.01562 0.4961 0.05078 0.6562h-0.5938c-0.03516-0.1445-0.05859-0.3203-0.05859-0.4727h-0.01953c-0.2383 0.3555-0.6172 0.5586-1.113 0.5586-0.5273 0-1.207-0.2578-1.207-1.023 0-1 1.191-1.121 2.312-1.121v-0.08984" fill="#231f1f"/>
<path d="m227.1 58.31h-0.6562v-5.293h0.6562v5.293" fill="#231f1f"/>
<path d="m230.6 55.84c-0.1406-0.2188-0.4492-0.3789-0.7656-0.3789-0.6875 0-1.086 0.5586-1.086 1.195 0 0.6328 0.3984 1.199 1.094 1.199 0.3359 0 0.6211-0.1406 0.7969-0.3633l0.4414 0.3984c-0.2812 0.3242-0.707 0.5195-1.238 0.5195-1.023 0-1.785-0.6953-1.785-1.754 0-1.043 0.7539-1.75 1.77-1.75 0.4688 0 0.9727 0.1914 1.246 0.5469l-0.4727 0.3867" fill="#231f1f"/>
<path d="m232.4 58.31h-0.6602v-3.32h0.6602zm-0.3281-4.094c-0.2422 0-0.4375-0.1914-0.4375-0.4219 0-0.2383 0.1953-0.4258 0.4375-0.4258 0.2344 0 0.4375 0.1797 0.4375 0.4258 0 0.2383-0.2031 0.4219-0.4375 0.4219" fill="#231f1f"/>
<path d="m235.9 58.31c-0.01172-0.168-0.02734-0.4062-0.02734-0.543h-0.01172c-0.168 0.3477-0.6055 0.6367-1.086 0.6367-0.8555 0-1.242-0.6094-1.242-1.352v-2.062h0.6602v1.836c0 0.5469 0.1484 1.023 0.7578 1.023 0.5234 0 0.8867-0.4336 0.8867-1.094v-1.766h0.6602v2.609c0 0.1719 0.007812 0.4961 0.02734 0.7109h-0.625" fill="#231f1f"/>
<path d="m239.3 54.9c0.4414 0 0.8281 0.1953 1.031 0.6641 0.2227-0.4258 0.6562-0.6641 1.125-0.6641 0.8555 0 1.242 0.6094 1.242 1.352v2.059h-0.6602v-1.84c0-0.5391-0.1602-1.016-0.7344-1.016-0.6016 0-0.8398 0.5469-0.8398 1.062v1.793h-0.6602v-1.973c0-0.5195-0.1758-0.8828-0.6992-0.8828-0.4844 0-0.8477 0.4336-0.8477 1.094v1.762h-0.6602v-2.602c0-0.1758-0.003907-0.5-0.02734-0.7188h0.625c0.01172 0.168 0.02734 0.4062 0.02734 0.5469h0.01953c0.168-0.3477 0.5547-0.6367 1.059-0.6367" fill="#231f1f"/>
</svg>
