<?xml version="1.0" encoding="UTF-8"?>
<svg width="339.8pt" height="115.5pt" version="1.1" viewBox="0 0 339.8 115.5" xmlns="http://www.w3.org/2000/svg">
<defs>
<clipPath id="e">
<path d="m0 92h75v23.5h-75z"/>
</clipPath>
<clipPath id="d">
<path d="m0 92h76v23.5h-76z"/>
</clipPath>
<clipPath id="c">
<path d="m86 92h76v23.5h-76z"/>
</clipPath>
<clipPath id="b">
<path d="m178 92h76v23.5h-76z"/>
</clipPath>
<clipPath id="a">
<path d="m264 92h75.75v23.5h-75.75z"/>
</clipPath>
</defs>
<path d="m192.8 17.5h-46v-17.25h46v17.25" fill="#fef0ca"/>
<path transform="matrix(.1 0 0 -.1 0 115.5)" d="m1928 980h-460v172.5h460z" fill="none" stroke="#231f1f" stroke-width="5"/>
<g clip-path="url(#e)">
<path d="m75 115.2h-74.75v-23h74.75v23" fill="#fef0ca"/>
</g>
<g clip-path="url(#d)">
<path transform="matrix(.1 0 0 -.1 0 115.5)" d="m750 2.5h-747.5v230h747.5z" fill="none" stroke="#231f1f" stroke-width="5"/>
</g>
<path d="m129.5 63.16h-97.75v-16.77h97.75v16.77" fill="#fef0ca"/>
<path transform="matrix(.1 0 0 -.1 0 115.5)" d="m1295 523.4h-977.5v167.7h977.5z" fill="none" stroke="#231f1f" stroke-width="5"/>
<path d="m167.3 8.125c-0.6719 0-1.121 0.5664-1.121 1.203s0.4492 1.199 1.121 1.199c0.7188 0 1.105-0.582 1.105-1.207 0-0.6211-0.3867-1.195-1.105-1.195zm-1.082 4.547h-0.6562v-5.004h0.6445v0.5195h0.01953c0.2188-0.3516 0.6523-0.6094 1.199-0.6094 0.9883 0 1.66 0.7617 1.66 1.742 0 0.9766-0.6523 1.758-1.676 1.758-0.4688 0-0.9219-0.2148-1.168-0.5859h-0.02344v2.18" fill="#231f1f"/>
<path d="m170.1 6.031h0.6953v2.07h2.508v-2.07h0.6992v4.957h-0.6992v-2.27h-2.508v2.27h-0.6953v-4.957" fill="#231f1f"/>
<path d="m66.91 55.06h1.855l-0.9258-2.324zm-0.7422 1.832h-0.7695l2.148-4.961h0.6289l2.129 4.961h-0.7812l-0.5078-1.223h-2.352l-0.4961 1.223" fill="#231f1f"/>
<path d="m73.23 54.41c-0.1406-0.2188-0.4492-0.3789-0.7617-0.3789-0.6875 0-1.086 0.5586-1.086 1.195 0 0.6328 0.3984 1.199 1.09 1.199 0.3398 0 0.625-0.1406 0.8008-0.3633l0.4414 0.3984c-0.2812 0.3242-0.707 0.5195-1.242 0.5195-1.02 0-1.785-0.6953-1.785-1.754 0-1.043 0.7578-1.75 1.773-1.75 0.4688 0 0.9727 0.1914 1.246 0.5469l-0.4766 0.3867" fill="#231f1f"/>
<path d="m75.03 56.89h-0.6562v-3.32h0.6562zm-0.3281-4.098c-0.2383 0-0.4336-0.1914-0.4336-0.4219 0-0.2383 0.1953-0.4258 0.4336-0.4258s0.4414 0.1797 0.4414 0.4258c0 0.2383-0.2031 0.4219-0.4414 0.4219" fill="#231f1f"/>
<path d="m77.74 56.43c0.6719 0 1.121-0.5586 1.121-1.199 0-0.6367-0.4492-1.203-1.121-1.203-0.7227 0-1.098 0.5742-1.098 1.199 0 0.6211 0.375 1.203 1.098 1.203zm-0.1133 0.5547c-1.023 0-1.672-0.7852-1.672-1.758 0-0.9805 0.6719-1.746 1.664-1.746 0.543 0 0.9531 0.2656 1.184 0.5898h0.01562v-2.473h0.6602v5.297h-0.6367v-0.5273h-0.01562c-0.2539 0.3984-0.7305 0.6172-1.199 0.6172" fill="#231f1f"/>
<path d="m83.05 54.93c-0.01172-0.5234-0.3203-0.9375-0.9297-0.9375-0.5703 0-1.004 0.418-1.043 0.9375zm0.6602 0.4922h-2.633c0.01953 0.5664 0.4961 1.008 1.078 1.008 0.4453 0 0.7773-0.2227 0.9648-0.5039l0.4648 0.3711c-0.3594 0.4609-0.8438 0.6797-1.43 0.6797-1.008 0-1.754-0.6992-1.754-1.746 0-1.035 0.7461-1.758 1.719-1.758 0.9805 0 1.598 0.668 1.598 1.723 0 0.07031 0 0.1484-0.007812 0.2266" fill="#231f1f"/>
<path d="m86.34 53.48c0.4414 0 0.8242 0.1953 1.027 0.668 0.2266-0.4297 0.6602-0.668 1.129-0.668 0.8555 0 1.238 0.6094 1.238 1.352v2.062h-0.6562v-1.844c0-0.5391-0.1641-1.016-0.7383-1.016-0.6016 0-0.8398 0.5469-0.8398 1.062v1.797h-0.6562v-1.977c0-0.5195-0.1758-0.8828-0.7031-0.8828-0.4805 0-0.8477 0.4336-0.8477 1.094v1.766h-0.6562v-2.609c0-0.1719-0.007813-0.4961-0.02734-0.7109h0.6211c0.01562 0.168 0.03125 0.4062 0.03125 0.543h0.01953c0.168-0.3477 0.5547-0.6367 1.059-0.6367" fill="#231f1f"/>
<path d="m91.51 56.89h-0.6602v-3.32h0.6602zm-0.332-4.098c-0.2344 0-0.4336-0.1914-0.4336-0.4219 0-0.2383 0.1992-0.4258 0.4336-0.4258 0.2383 0 0.4414 0.1797 0.4414 0.4258 0 0.2383-0.2031 0.4219-0.4414 0.4219" fill="#231f1f"/>
<path d="m94.56 55.3c-0.6523 0-1.477 0.07031-1.477 0.6328 0 0.3906 0.3477 0.5156 0.6797 0.5156 0.6172 0 0.957-0.4141 0.957-0.9727v-0.1758zm0.1602-0.5664c0-0.4922-0.3281-0.7266-0.8164-0.7266-0.3711 0-0.7227 0.1602-0.9453 0.3828l-0.3516-0.418c0.3203-0.3086 0.8203-0.5 1.359-0.5 0.9531 0 1.387 0.5664 1.387 1.305v1.449c0 0.2227 0.01172 0.4961 0.04688 0.6602h-0.5938c-0.03516-0.1484-0.05469-0.3242-0.05469-0.4805h-0.02344c-0.2383 0.3594-0.6172 0.5625-1.113 0.5625-0.5234 0-1.203-0.2578-1.203-1.023 0-1 1.188-1.121 2.309-1.121v-0.08984" fill="#231f1f"/>
<path d="m27 95.93v5.566c0.2656-0.2734 0.9805-0.8594 1.402-1.195l0.2422 0.2422c-0.7188 0.6094-1.211 1.102-1.84 1.762-0.6328-0.6602-1.121-1.152-1.844-1.762l0.2461-0.2422c0.4219 0.3359 1.133 0.9219 1.398 1.195v-5.566h0.3945" fill="#231f1f"/>
<path d="m31.22 97.2h0.6953v2.07h2.508v-2.07h0.6992v4.957h-0.6992v-2.27h-2.508v2.27h-0.6953v-4.957" fill="#231f1f"/>
<path d="m40.58 101.4c-0.3867 0.5234-1.023 0.8945-1.891 0.8945-1.52 0-2.613-1.086-2.613-2.613 0-1.547 1.137-2.598 2.641-2.598 0.6797 0 1.414 0.2695 1.777 0.7734l-0.543 0.418c-0.2383-0.3359-0.7227-0.582-1.234-0.582-1.148 0-1.883 0.9062-1.883 1.988 0 1.117 0.7188 1.996 1.863 1.996 0.5508 0 1.035-0.2305 1.328-0.6562l0.5547 0.3789" fill="#231f1f"/>
<path d="m43.57 97.68c-1.141 0-1.871 0.9062-1.871 1.988 0 1.109 0.7344 1.992 1.871 1.992 1.148 0 1.883-0.8828 1.883-1.992 0-1.082-0.7266-1.988-1.883-1.988zm0 4.602c-1.508 0-2.621-1.086-2.621-2.613 0-1.547 1.113-2.598 2.621-2.598 1.512 0 2.633 1.051 2.633 2.598 0 1.527-1.121 2.613-2.633 2.613" fill="#231f1f"/>
<path d="m47.41 102.8h0.125c0.332 0 0.6445-0.1094 0.6445-0.4805 0-0.2891-0.2344-0.4766-0.5078-0.4766-0.2422 0-0.4219 0.1328-0.5039 0.3555l-0.3594-0.1289c0.1406-0.3438 0.4727-0.5586 0.8789-0.5586 0.4805 0 0.8906 0.2734 0.8906 0.7852 0 0.3203-0.2148 0.5781-0.5117 0.6562v0.007812c0.3398 0.06641 0.5859 0.332 0.5859 0.7031 0 0.5742-0.4727 0.8828-0.9648 0.8828-0.457 0-0.8242-0.207-0.9805-0.6367l0.3672-0.125c0.08594 0.25 0.3047 0.4258 0.6055 0.4258 0.2891 0 0.5781-0.1836 0.5781-0.5508 0-0.4023-0.3828-0.5312-0.7227-0.5312h-0.125v-0.3281" fill="#231f1f"/>
<path d="m50.47 98.98h-1.383v-0.3047h1.383v0.3047" fill="#231f1f"/>
<path d="m10.89 109.4h0.01562l1.461-3.809h1.082v4.957h-0.6953v-4.145h-0.01562l-1.645 4.145h-0.4414l-1.641-4.145h-0.01172v4.145h-0.6719v-4.957h1.078l1.484 3.809" fill="#231f1f"/>
<path d="m17.04 108.6c-0.01172-0.5234-0.3203-0.9375-0.9297-0.9375-0.5703 0-1.004 0.4219-1.043 0.9375zm0.6602 0.4883h-2.633c0.01953 0.5703 0.4961 1.012 1.078 1.012 0.4453 0 0.7773-0.2227 0.9648-0.5039l0.4648 0.3711c-0.3594 0.4609-0.8438 0.6797-1.43 0.6797-1.008 0-1.75-0.7031-1.75-1.746 0-1.035 0.7422-1.758 1.715-1.758 0.9805 0 1.598 0.668 1.598 1.723 0 0.07031 0 0.1484-0.007813 0.2227" fill="#231f1f"/>
<path d="m20.25 107.8h-0.8828v1.727c0 0.4023 0.1406 0.5625 0.4688 0.5625 0.1211 0 0.2734-0.02734 0.3867-0.08594l0.01953 0.5391c-0.1523 0.05859-0.3555 0.09375-0.5586 0.09375-0.625 0-0.9688-0.3516-0.9688-1.039v-1.797h-0.6367v-0.543h0.6367v-0.9492h0.6523v0.9492h0.8828v0.543" fill="#231f1f"/>
<path d="m22.83 109c-0.6523 0-1.477 0.07031-1.477 0.6328 0 0.3906 0.3477 0.5156 0.6797 0.5156 0.6172 0 0.957-0.4102 0.957-0.9727v-0.1758zm0.1602-0.5664c0-0.4883-0.3281-0.7266-0.8203-0.7266-0.3711 0-0.7188 0.1602-0.9453 0.3828l-0.3477-0.418c0.3203-0.3086 0.8203-0.5 1.359-0.5 0.9531 0 1.387 0.5664 1.387 1.305v1.449c0 0.2227 0.01172 0.4961 0.04688 0.6562h-0.5938c-0.03516-0.1445-0.05469-0.3203-0.05469-0.4766h-0.02344c-0.2383 0.3594-0.6172 0.5625-1.113 0.5625-0.5234 0-1.203-0.2617-1.203-1.023 0-1 1.188-1.121 2.309-1.121v-0.08984" fill="#231f1f"/>
<path d="m26.47 107.7c-0.6719 0-1.121 0.5664-1.121 1.207 0 0.6367 0.4492 1.195 1.121 1.195 0.7227 0 1.105-0.582 1.105-1.203 0-0.625-0.3828-1.199-1.105-1.199zm-1.102 2.34v0.5234h-0.6367v-5.293h0.6602v2.473h0.01953c0.2266-0.3242 0.6367-0.5898 1.184-0.5898 0.9883 0 1.66 0.7656 1.66 1.746 0 0.9727-0.6523 1.758-1.672 1.758-0.4727 0-0.9414-0.2188-1.199-0.6172h-0.01562" fill="#231f1f"/>
<path d="m30.74 107.7c-0.707 0-1.105 0.5664-1.105 1.199 0 0.6289 0.3984 1.203 1.105 1.203 0.7148 0 1.105-0.5742 1.105-1.203 0-0.6328-0.3906-1.199-1.105-1.199zm0 2.957c-1.016 0-1.785-0.7383-1.785-1.758 0-1.023 0.7695-1.746 1.785-1.746 1.016 0 1.793 0.7227 1.793 1.746 0 1.02-0.7773 1.758-1.793 1.758" fill="#231f1f"/>
<path d="m34.11 110.6h-0.6562v-5.293h0.6562v5.293" fill="#231f1f"/>
<path d="m35.93 110.6h-0.6602v-3.32h0.6602zm-0.332-4.094c-0.2383 0-0.4336-0.1914-0.4336-0.4219 0-0.2383 0.1953-0.4258 0.4336-0.4258 0.2383 0 0.4414 0.1797 0.4414 0.4258 0 0.2383-0.2031 0.4219-0.4414 0.4219" fill="#231f1f"/>
<path d="m39.4 108.1c-0.1406-0.2188-0.4492-0.3789-0.7656-0.3789-0.6836 0-1.086 0.5586-1.086 1.199 0 0.6289 0.4023 1.195 1.094 1.195 0.3359 0 0.625-0.1406 0.8008-0.3633l0.4375 0.3984c-0.2773 0.3203-0.707 0.5195-1.238 0.5195-1.023 0-1.785-0.6953-1.785-1.75 0-1.047 0.7539-1.754 1.773-1.754 0.4688 0 0.9727 0.1914 1.246 0.5469l-0.4766 0.3867" fill="#231f1f"/>
<path d="m44.19 109c-0.6484 0-1.477 0.07031-1.477 0.6328 0 0.3906 0.3516 0.5156 0.6797 0.5156 0.6172 0 0.9609-0.4102 0.9609-0.9727v-0.1758zm0.1641-0.5664c0-0.4883-0.332-0.7266-0.8203-0.7266-0.3711 0-0.7227 0.1602-0.9453 0.3828l-0.3516-0.418c0.3242-0.3086 0.8203-0.5 1.359-0.5 0.9531 0 1.387 0.5664 1.387 1.305v1.449c0 0.2227 0.01172 0.4961 0.05078 0.6562h-0.5977c-0.03516-0.1445-0.05469-0.3203-0.05469-0.4766h-0.02344c-0.2383 0.3594-0.6133 0.5625-1.113 0.5625-0.5234 0-1.203-0.2617-1.203-1.023 0-1 1.191-1.121 2.312-1.121v-0.08984" fill="#231f1f"/>
<path d="m48.4 108.1c-0.1406-0.2188-0.4453-0.3789-0.7617-0.3789-0.6875 0-1.086 0.5586-1.086 1.199 0 0.6289 0.3984 1.195 1.094 1.195 0.3359 0 0.6211-0.1406 0.7969-0.3633l0.4414 0.3984c-0.2812 0.3203-0.707 0.5195-1.238 0.5195-1.023 0-1.789-0.6953-1.789-1.75 0-1.047 0.7578-1.754 1.773-1.754 0.4688 0 0.9727 0.1914 1.246 0.5469l-0.4766 0.3867" fill="#231f1f"/>
<path d="m50.2 110.6h-0.6602v-3.32h0.6602zm-0.332-4.094c-0.2383 0-0.4336-0.1914-0.4336-0.4219 0-0.2383 0.1953-0.4258 0.4336-0.4258 0.2383 0 0.4414 0.1797 0.4414 0.4258 0 0.2383-0.2031 0.4219-0.4414 0.4219" fill="#231f1f"/>
<path d="m52.91 110.1c0.6719 0 1.121-0.5586 1.121-1.195 0-0.6406-0.4492-1.207-1.121-1.207-0.7227 0-1.098 0.5742-1.098 1.199 0 0.6211 0.375 1.203 1.098 1.203zm-0.1133 0.5547c-1.02 0-1.672-0.7852-1.672-1.758 0-0.9805 0.6719-1.746 1.668-1.746 0.5391 0 0.9492 0.2656 1.184 0.5898h0.01172v-2.473h0.6602v5.293h-0.6367v-0.5234h-0.01562c-0.2539 0.3984-0.7266 0.6172-1.199 0.6172" fill="#231f1f"/>
<path d="m57.36 107.7c-0.707 0-1.105 0.5664-1.105 1.199 0 0.6289 0.3984 1.203 1.105 1.203 0.7148 0 1.105-0.5742 1.105-1.203 0-0.6328-0.3906-1.199-1.105-1.199zm0 2.957c-1.016 0-1.785-0.7383-1.785-1.758 0-1.023 0.7695-1.746 1.785-1.746s1.793 0.7227 1.793 1.746c0 1.02-0.7773 1.758-1.793 1.758" fill="#231f1f"/>
<path d="m61.86 108.1c-0.1445-0.2383-0.4336-0.4141-0.7695-0.4141-0.3008 0-0.6172 0.1172-0.6172 0.4336 0 0.2812 0.2539 0.3867 0.7578 0.4961 0.6289 0.1406 1.113 0.4023 1.113 0.9805 0 0.7852-0.6523 1.074-1.324 1.074-0.5039 0-1.023-0.1992-1.336-0.5977l0.4688-0.3984c0.1758 0.2578 0.5117 0.4609 0.8828 0.4609 0.3281 0 0.6562-0.1172 0.6562-0.4805 0-0.3086-0.3008-0.4219-0.8672-0.5547-0.4414-0.1055-0.9688-0.293-0.9688-0.918 0-0.7148 0.625-1.016 1.254-1.016 0.4727 0 0.9688 0.1914 1.207 0.5469l-0.457 0.3867" fill="#231f1f"/>
<path d="m63.84 110.6h-0.6562v-3.32h0.6562zm-0.3281-4.094c-0.2383 0-0.4336-0.1914-0.4336-0.4219 0-0.2383 0.1953-0.4258 0.4336-0.4258 0.2383 0 0.4414 0.1797 0.4414 0.4258 0 0.2383-0.2031 0.4219-0.4414 0.4219" fill="#231f1f"/>
<path d="m66.78 108.1c-0.1484-0.2383-0.4336-0.4141-0.7695-0.4141-0.3008 0-0.6172 0.1172-0.6172 0.4336 0 0.2812 0.2539 0.3867 0.7578 0.4961 0.6289 0.1406 1.113 0.4023 1.113 0.9805 0 0.7852-0.6523 1.074-1.324 1.074-0.5039 0-1.023-0.1992-1.34-0.5977l0.4727-0.3984c0.1719 0.2578 0.5078 0.4609 0.8789 0.4609 0.332 0 0.6602-0.1172 0.6602-0.4805 0-0.3086-0.3008-0.4219-0.8672-0.5547-0.4414-0.1055-0.9688-0.293-0.9688-0.918 0-0.7148 0.625-1.016 1.254-1.016 0.4688 0 0.9688 0.1914 1.203 0.5469l-0.4531 0.3867" fill="#231f1f"/>
<g clip-path="url(#c)">
<path d="m161.2 115.2h-74.75v-23h74.75v23" fill="#fef0ca"/>
<path transform="matrix(.1 0 0 -.1 0 115.5)" d="m1612 2.5h-747.5v230h747.5z" fill="none" stroke="#231f1f" stroke-width="5"/>
</g>
<path d="m116.2 102.2v-5.566c-0.2656 0.2695-0.9805 0.8594-1.402 1.195l-0.2461-0.2461c0.7227-0.6094 1.215-1.098 1.844-1.758 0.6289 0.6602 1.121 1.148 1.84 1.758l-0.2422 0.2461c-0.4219-0.3359-1.137-0.9258-1.402-1.195v5.566h-0.3906" fill="#231f1f"/>
<path d="m125.1 101.4c-0.3867 0.5234-1.023 0.8945-1.891 0.8945-1.52 0-2.613-1.086-2.613-2.613 0-1.547 1.133-2.598 2.641-2.598 0.6797 0 1.414 0.2695 1.777 0.7734l-0.5469 0.418c-0.2383-0.3359-0.7188-0.582-1.23-0.582-1.148 0-1.883 0.9062-1.883 1.988 0 1.117 0.7188 1.996 1.859 1.996 0.5547 0 1.039-0.2305 1.332-0.6562l0.5547 0.3789" fill="#231f1f"/>
<path d="m128.1 97.68c-1.145 0-1.871 0.9062-1.871 1.988 0 1.109 0.7344 1.992 1.871 1.992 1.148 0 1.883-0.8828 1.883-1.992 0-1.082-0.7305-1.988-1.883-1.988zm0 4.602c-1.508 0-2.621-1.086-2.621-2.613 0-1.547 1.113-2.598 2.621-2.598 1.512 0 2.633 1.051 2.633 2.598 0 1.527-1.121 2.613-2.633 2.613" fill="#231f1f"/>
<path d="m133.2 104.5h-1.883v-0.3789l1.148-1.141c0.1758-0.1797 0.3203-0.3672 0.3203-0.6133 0-0.3008-0.2305-0.4961-0.5156-0.4961-0.293 0-0.4922 0.2109-0.5391 0.5l-0.3867-0.0625c0.06641-0.4414 0.4375-0.7695 0.9336-0.7695 0.4766 0 0.9102 0.2852 0.9102 0.8203 0 0.3711-0.2109 0.625-0.4648 0.8711l-0.9375 0.9141h1.414v0.3555" fill="#231f1f"/>
<path d="m93.2 107.8h0.7969c0.6523 0 1.164-0.2031 1.164-0.8008 0-0.5938-0.5117-0.7812-1.113-0.7812h-0.8477zm0 2.785h-0.6953v-4.957h1.59c0.9609 0 1.766 0.3633 1.766 1.371 0 0.7305-0.4961 1.191-1.203 1.312l1.387 2.273h-0.8398l-1.262-2.203h-0.7422v2.203" fill="#231f1f"/>
<path d="m99.11 108.6c-0.01172-0.5234-0.3203-0.9375-0.9297-0.9375-0.5664 0-1.004 0.4219-1.043 0.9375zm0.6602 0.4883h-2.633c0.01953 0.5703 0.4961 1.012 1.078 1.012 0.4492 0 0.7773-0.2227 0.9648-0.5039l0.4648 0.3711c-0.3594 0.4609-0.8438 0.6797-1.43 0.6797-1.008 0-1.75-0.7031-1.75-1.746 0-1.035 0.7422-1.758 1.715-1.758 0.9805 0 1.598 0.668 1.598 1.723 0 0.07031 0 0.1484-0.007812 0.2227" fill="#231f1f"/>
<path d="m102.5 108.1c-0.1484-0.2383-0.4336-0.4141-0.7695-0.4141-0.3008 0-0.6172 0.1172-0.6172 0.4336 0 0.2812 0.2539 0.3867 0.7578 0.4961 0.6289 0.1406 1.113 0.4023 1.113 0.9805 0 0.7852-0.6523 1.074-1.324 1.074-0.5039 0-1.023-0.1992-1.34-0.5977l0.4688-0.3984c0.1758 0.2578 0.5117 0.4609 0.8828 0.4609 0.332 0 0.6602-0.1172 0.6602-0.4805 0-0.3086-0.3008-0.4219-0.8672-0.5547-0.4414-0.1055-0.9688-0.293-0.9688-0.918 0-0.7148 0.625-1.016 1.254-1.016 0.4688 0 0.9688 0.1914 1.203 0.5469l-0.4531 0.3867" fill="#231f1f"/>
<path d="m105.5 107.7c-0.6719 0-1.121 0.5664-1.121 1.207 0 0.6367 0.4492 1.195 1.121 1.195 0.7227 0 1.109-0.582 1.109-1.203 0-0.625-0.3867-1.199-1.109-1.199zm-1.078 4.547h-0.6562v-5.004h0.6445v0.5195h0.01953c0.2188-0.3477 0.6523-0.6094 1.195-0.6094 0.9883 0 1.66 0.7656 1.66 1.746 0 0.9727-0.6484 1.758-1.672 1.758-0.4688 0-0.9258-0.2188-1.172-0.5898h-0.01953v2.18" fill="#231f1f"/>
<path d="m108.9 110.6h-0.6602v-3.32h0.6602zm-0.3281-4.094c-0.2383 0-0.4336-0.1914-0.4336-0.4219 0-0.2383 0.1953-0.4258 0.4336-0.4258s0.4414 0.1797 0.4414 0.4258c0 0.2383-0.2031 0.4219-0.4414 0.4219" fill="#231f1f"/>
<path d="m110 107.2h0.6211c0.01562 0.1719 0.02734 0.4219 0.02734 0.5625h0.02344c0.1797-0.3867 0.5664-0.6523 1.016-0.6523 0.08984 0 0.1797 0.007813 0.2578 0.02734l-0.02734 0.6094c-0.08594-0.01953-0.1953-0.03516-0.3008-0.03516-0.6289 0-0.9336 0.5117-0.9336 1.066v1.742h-0.6562v-2.605c0-0.1719-0.007813-0.4961-0.02734-0.7148" fill="#231f1f"/>
<path d="m114.4 109c-0.6523 0-1.477 0.07031-1.477 0.6328 0 0.3906 0.3477 0.5156 0.6797 0.5156 0.6133 0 0.957-0.4102 0.957-0.9727v-0.1758zm0.1602-0.5664c0-0.4883-0.3281-0.7266-0.8203-0.7266-0.3711 0-0.7188 0.1602-0.9453 0.3828l-0.3477-0.418c0.3203-0.3086 0.8203-0.5 1.359-0.5 0.9492 0 1.383 0.5664 1.383 1.305v1.449c0 0.2227 0.01562 0.4961 0.05078 0.6562h-0.5938c-0.03516-0.1445-0.05859-0.3203-0.05859-0.4766h-0.01953c-0.2383 0.3594-0.6172 0.5625-1.113 0.5625-0.5273 0-1.203-0.2617-1.203-1.023 0-1 1.188-1.121 2.309-1.121v-0.08984" fill="#231f1f"/>
<path d="m117.8 107.8h-0.8828v1.727c0 0.4023 0.1406 0.5625 0.4688 0.5625 0.1172 0 0.2734-0.02734 0.3828-0.08594l0.02344 0.5391c-0.1562 0.05859-0.3594 0.09375-0.5625 0.09375-0.6211 0-0.9648-0.3516-0.9648-1.039v-1.797h-0.6367v-0.543h0.6367v-0.9492h0.6523v0.9492h0.8828v0.543" fill="#231f1f"/>
<path d="m120.1 107.7c-0.707 0-1.109 0.5664-1.109 1.199 0 0.6289 0.4023 1.203 1.109 1.203 0.7148 0 1.105-0.5742 1.105-1.203 0-0.6328-0.3906-1.199-1.105-1.199zm0 2.957c-1.016 0-1.785-0.7383-1.785-1.758 0-1.023 0.7695-1.746 1.785-1.746s1.793 0.7227 1.793 1.746c0 1.02-0.7773 1.758-1.793 1.758" fill="#231f1f"/>
<path d="m122.8 107.2h0.625c0.01172 0.1719 0.02734 0.4219 0.02734 0.5625h0.01953c0.1836-0.3867 0.5703-0.6523 1.016-0.6523 0.09375 0 0.1836 0.007813 0.2617 0.02734l-0.03125 0.6094c-0.08203-0.01953-0.1953-0.03516-0.3008-0.03516-0.6289 0-0.9297 0.5117-0.9297 1.066v1.742h-0.6602v-2.605c0-0.1719-0.007813-0.4961-0.02734-0.7148" fill="#231f1f"/>
<path d="m126.6 109.8h0.01172l0.918-2.605h0.7031l-1.613 4.105c-0.2148 0.5547-0.4961 0.8984-1.148 0.8984-0.1406 0-0.2852-0.01562-0.4336-0.05078l0.0625-0.582c0.1055 0.03516 0.2227 0.05859 0.3281 0.05859 0.3438 0 0.4766-0.1992 0.6172-0.5547l0.2109-0.5547-1.422-3.32h0.7344l1.031 2.605" fill="#231f1f"/>
<path d="m132.5 109c-0.6523 0-1.48 0.07031-1.48 0.6328 0 0.3906 0.3516 0.5156 0.6797 0.5156 0.6172 0 0.9609-0.4102 0.9609-0.9727v-0.1758zm0.1602-0.5664c0-0.4883-0.3281-0.7266-0.8203-0.7266-0.3711 0-0.7188 0.1602-0.9453 0.3828l-0.3477-0.418c0.3203-0.3086 0.8164-0.5 1.355-0.5 0.9531 0 1.387 0.5664 1.387 1.305v1.449c0 0.2227 0.01562 0.4961 0.05078 0.6562h-0.5938c-0.03516-0.1445-0.05859-0.3203-0.05859-0.4766h-0.01953c-0.2383 0.3594-0.6172 0.5625-1.113 0.5625-0.5273 0-1.207-0.2617-1.207-1.023 0-1 1.191-1.121 2.312-1.121v-0.08984" fill="#231f1f"/>
<path d="m136.7 108.1c-0.1406-0.2188-0.4492-0.3789-0.7656-0.3789-0.6875 0-1.086 0.5586-1.086 1.199 0 0.6289 0.3984 1.195 1.094 1.195 0.3359 0 0.625-0.1406 0.7969-0.3633l0.4414 0.3984c-0.2773 0.3203-0.707 0.5195-1.238 0.5195-1.023 0-1.785-0.6953-1.785-1.75 0-1.047 0.7539-1.754 1.77-1.754 0.4727 0 0.9766 0.1914 1.25 0.5469l-0.4766 0.3867" fill="#231f1f"/>
<path d="m138.5 110.6h-0.6602v-3.32h0.6602zm-0.3281-4.094c-0.2383 0-0.4336-0.1914-0.4336-0.4219 0-0.2383 0.1953-0.4258 0.4336-0.4258 0.2383 0 0.4414 0.1797 0.4414 0.4258 0 0.2383-0.2031 0.4219-0.4414 0.4219" fill="#231f1f"/>
<path d="m141.2 110.1c0.6758 0 1.121-0.5586 1.121-1.195 0-0.6406-0.4453-1.207-1.121-1.207-0.7188 0-1.098 0.5742-1.098 1.199 0 0.6211 0.3789 1.203 1.098 1.203zm-0.1094 0.5547c-1.023 0-1.676-0.7852-1.676-1.758 0-0.9805 0.6719-1.746 1.668-1.746 0.5391 0 0.9531 0.2656 1.184 0.5898h0.01562v-2.473h0.6562v5.293h-0.6367v-0.5234h-0.01562c-0.25 0.3984-0.7266 0.6172-1.195 0.6172" fill="#231f1f"/>
<path d="m145.7 107.7c-0.707 0-1.105 0.5664-1.105 1.199 0 0.6289 0.3984 1.203 1.105 1.203 0.7148 0 1.105-0.5742 1.105-1.203 0-0.6328-0.3906-1.199-1.105-1.199zm0 2.957c-1.016 0-1.785-0.7383-1.785-1.758 0-1.023 0.7695-1.746 1.785-1.746s1.793 0.7227 1.793 1.746c0 1.02-0.7773 1.758-1.793 1.758" fill="#231f1f"/>
<path d="m150.2 108.1c-0.1484-0.2383-0.4375-0.4141-0.7734-0.4141-0.3008 0-0.6133 0.1172-0.6133 0.4336 0 0.2812 0.25 0.3867 0.7539 0.4961 0.6328 0.1406 1.113 0.4023 1.113 0.9805 0 0.7852-0.6484 1.074-1.32 1.074-0.5039 0-1.023-0.1992-1.34-0.5977l0.4688-0.3984c0.1758 0.2578 0.5117 0.4609 0.8828 0.4609 0.3281 0 0.6602-0.1172 0.6602-0.4805 0-0.3086-0.3008-0.4219-0.8711-0.5547-0.4414-0.1055-0.9648-0.293-0.9648-0.918 0-0.7148 0.625-1.016 1.254-1.016 0.4688 0 0.9648 0.1914 1.203 0.5469l-0.4531 0.3867" fill="#231f1f"/>
<path d="m152.2 110.6h-0.6602v-3.32h0.6602zm-0.332-4.094c-0.2344 0-0.4336-0.1914-0.4336-0.4219 0-0.2383 0.1992-0.4258 0.4336-0.4258 0.2383 0 0.4414 0.1797 0.4414 0.4258 0 0.2383-0.2031 0.4219-0.4414 0.4219" fill="#231f1f"/>
<path d="m155.1 108.1c-0.1484-0.2383-0.4375-0.4141-0.7734-0.4141-0.3008 0-0.6172 0.1172-0.6172 0.4336 0 0.2812 0.2539 0.3867 0.7578 0.4961 0.6328 0.1406 1.113 0.4023 1.113 0.9805 0 0.7852-0.6523 1.074-1.324 1.074-0.5039 0-1.023-0.1992-1.336-0.5977l0.4688-0.3984c0.1758 0.2578 0.5117 0.4609 0.8828 0.4609 0.3281 0 0.6562-0.1172 0.6562-0.4805 0-0.3086-0.3008-0.4219-0.8672-0.5547-0.4414-0.1055-0.9648-0.293-0.9648-0.918 0-0.7148 0.6211-1.016 1.254-1.016 0.4688 0 0.9648 0.1914 1.203 0.5469l-0.4531 0.3867" fill="#231f1f"/>
<path transform="matrix(.1 0 0 -.1 0 115.5)" d="m1698 974.2v-109.2" fill="none" stroke="#231f1f" stroke-width="5"/>
<path transform="matrix(.1 0 0 -.1 0 115.5)" d="m806.6 745.2v120h1782v-120" fill="none" stroke="#231f1f" stroke-width="5"/>
<path d="m258.9 44.6c-0.6328-1.707-1.711-3.82-2.852-5.129l2.852 1.031 2.855-1.031c-1.145 1.309-2.223 3.422-2.855 5.129" fill="#231f1f"/>
<path d="m80.66 44.6c-0.6328-1.707-1.711-3.82-2.852-5.129l2.852 1.031 2.852-1.031c-1.141 1.309-2.219 3.422-2.852 5.129" fill="#231f1f"/>
<path transform="matrix(.1 0 0 -.1 0 115.5)" d="m806.2 520v-109.2" fill="none" stroke="#231f1f" stroke-width="5"/>
<path transform="matrix(.1 0 0 -.1 0 115.5)" d="m374.8 291.1v120h862.9v-120" fill="none" stroke="#231f1f" stroke-width="5"/>
<path d="m123.8 90.02c-0.6289-1.707-1.707-3.82-2.852-5.129l2.852 1.031 2.855-1.031c-1.145 1.309-2.223 3.422-2.855 5.129" fill="#231f1f"/>
<path d="m37.48 90.02c-0.6328-1.707-1.711-3.82-2.852-5.129l2.852 1.031 2.855-1.031c-1.145 1.309-2.223 3.422-2.855 5.129" fill="#231f1f"/>
<g clip-path="url(#b)">
<path d="m253.2 115.2h-74.75v-23h74.75v23" fill="#fef0ca"/>
<path transform="matrix(.1 0 0 -.1 0 115.5)" d="m2532 2.5h-747.5v230h747.5z" fill="none" stroke="#231f1f" stroke-width="5"/>
</g>
<path d="m307.8 63.16h-97.75v-16.77h97.75v16.77" fill="#fef0ca"/>
<path transform="matrix(.1 0 0 -.1 0 115.5)" d="m3078 523.4h-977.5v167.7h977.5z" fill="none" stroke="#231f1f" stroke-width="5"/>
<path d="m244.5 55.06h1.855l-0.9258-2.324zm-0.7422 1.832h-0.7695l2.148-4.961h0.6289l2.133 4.961h-0.7852l-0.5039-1.223h-2.355l-0.4961 1.223" fill="#231f1f"/>
<path d="m249.1 56.89h-0.6562v-5.297h0.6562v5.297" fill="#231f1f"/>
<path d="m251 55.01h0.01953l1.395-1.441h0.8828l-1.555 1.504 1.688 1.816h-0.9102l-1.5-1.727h-0.01953v1.727h-0.6562v-5.297h0.6562v3.418" fill="#231f1f"/>
<path d="m255.8 55.3c-0.6523 0-1.477 0.07031-1.477 0.6328 0 0.3906 0.3516 0.5156 0.6797 0.5156 0.6172 0 0.9609-0.4141 0.9609-0.9727v-0.1758zm0.1641-0.5664c0-0.4922-0.332-0.7266-0.8203-0.7266-0.3711 0-0.7227 0.1602-0.9453 0.3828l-0.3516-0.418c0.3242-0.3086 0.8203-0.5 1.359-0.5 0.9531 0 1.387 0.5664 1.387 1.305v1.449c0 0.2227 0.01172 0.4961 0.04688 0.6602h-0.5938c-0.03516-0.1484-0.05469-0.3242-0.05469-0.4805h-0.01953c-0.2422 0.3594-0.6211 0.5625-1.117 0.5625-0.5234 0-1.203-0.2578-1.203-1.023 0-1 1.191-1.121 2.312-1.121v-0.08984" fill="#231f1f"/>
<path d="m258.4 56.89h-0.6562v-5.297h0.6562v5.297" fill="#231f1f"/>
<path d="m262 54.93c-0.01172-0.5234-0.3242-0.9375-0.9297-0.9375-0.5703 0-1.004 0.418-1.047 0.9375zm0.6562 0.4922h-2.633c0.02344 0.5664 0.5 1.008 1.082 1.008 0.4453 0 0.7734-0.2227 0.9648-0.5039l0.4609 0.3711c-0.3555 0.4609-0.8398 0.6797-1.426 0.6797-1.012 0-1.754-0.6992-1.754-1.746 0-1.035 0.7422-1.758 1.719-1.758 0.9766 0 1.594 0.668 1.594 1.723 0 0.07031 0 0.1484-0.007813 0.2266" fill="#231f1f"/>
<path d="m265.3 53.48c0.4414 0 0.8281 0.1953 1.031 0.668 0.2227-0.4297 0.6602-0.668 1.129-0.668 0.8516 0 1.238 0.6094 1.238 1.352v2.062h-0.6602v-1.844c0-0.5391-0.1602-1.016-0.7344-1.016-0.6016 0-0.8398 0.5469-0.8398 1.062v1.797h-0.6602v-1.977c0-0.5195-0.1719-0.8828-0.6992-0.8828-0.4805 0-0.8477 0.4336-0.8477 1.094v1.766h-0.6562v-2.609c0-0.1719-0.007812-0.4961-0.03125-0.7109h0.625c0.01563 0.168 0.02734 0.4062 0.02734 0.543h0.02344c0.168-0.3477 0.5508-0.6367 1.055-0.6367" fill="#231f1f"/>
<path d="m270.4 56.89h-0.6562v-3.32h0.6562zm-0.3281-4.098c-0.2383 0-0.4336-0.1914-0.4336-0.4219 0-0.2383 0.1953-0.4258 0.4336-0.4258s0.4414 0.1797 0.4414 0.4258c0 0.2383-0.2031 0.4219-0.4414 0.4219" fill="#231f1f"/>
<path d="m273.5 55.3c-0.6523 0-1.477 0.07031-1.477 0.6328 0 0.3906 0.3477 0.5156 0.6758 0.5156 0.6172 0 0.9609-0.4141 0.9609-0.9727v-0.1758zm0.1602-0.5664c0-0.4922-0.3281-0.7266-0.8164-0.7266-0.375 0-0.7227 0.1602-0.9492 0.3828l-0.3477-0.418c0.3203-0.3086 0.8164-0.5 1.355-0.5 0.9531 0 1.387 0.5664 1.387 1.305v1.449c0 0.2227 0.01562 0.4961 0.05078 0.6602h-0.5938c-0.03516-0.1484-0.05859-0.3242-0.05859-0.4805h-0.01953c-0.2383 0.3594-0.6172 0.5625-1.113 0.5625-0.5273 0-1.203-0.2578-1.203-1.023 0-1 1.188-1.121 2.309-1.121v-0.08984" fill="#231f1f"/>
<path d="m204.9 102.2v-5.566c-0.2656 0.2695-0.9766 0.8594-1.398 1.195l-0.2461-0.2461c0.7227-0.6094 1.211-1.098 1.844-1.758 0.6289 0.6602 1.121 1.148 1.84 1.758l-0.2461 0.2461c-0.418-0.3359-1.133-0.9258-1.398-1.195v5.566h-0.3945" fill="#231f1f"/>
<path d="m209.5 97.2h0.6953v2.07h2.508v-2.07h0.6992v4.957h-0.6992v-2.27h-2.508v2.27h-0.6953v-4.957" fill="#231f1f"/>
<path d="m218.8 101.4c-0.3867 0.5234-1.023 0.8945-1.891 0.8945-1.52 0-2.613-1.086-2.613-2.613 0-1.547 1.137-2.598 2.641-2.598 0.6797 0 1.414 0.2695 1.777 0.7734l-0.5469 0.418c-0.2344-0.3359-0.7188-0.582-1.23-0.582-1.148 0-1.883 0.9062-1.883 1.988 0 1.117 0.7188 1.996 1.863 1.996 0.5508 0 1.035-0.2305 1.328-0.6562l0.5547 0.3789" fill="#231f1f"/>
<path d="m221.8 97.68c-1.141 0-1.871 0.9062-1.871 1.988 0 1.109 0.7344 1.992 1.871 1.992 1.148 0 1.883-0.8828 1.883-1.992 0-1.082-0.7266-1.988-1.883-1.988zm0 4.602c-1.508 0-2.621-1.086-2.621-2.613 0-1.547 1.113-2.598 2.621-2.598 1.512 0 2.633 1.051 2.633 2.598 0 1.527-1.121 2.613-2.633 2.613" fill="#231f1f"/>
<path d="m225.7 102.8h0.125c0.332 0 0.6445-0.1094 0.6445-0.4805 0-0.2891-0.2344-0.4766-0.5078-0.4766-0.2422 0-0.4219 0.1328-0.5039 0.3555l-0.3594-0.1289c0.1406-0.3438 0.4727-0.5586 0.8789-0.5586 0.4805 0 0.8867 0.2734 0.8867 0.7852 0 0.3203-0.2109 0.5781-0.5078 0.6562v0.007812c0.3398 0.06641 0.5859 0.332 0.5859 0.7031 0 0.5742-0.4727 0.8828-0.9648 0.8828-0.457 0-0.8242-0.207-0.9805-0.6367l0.3672-0.125c0.08203 0.25 0.3047 0.4258 0.6055 0.4258 0.2891 0 0.5781-0.1836 0.5781-0.5508 0-0.4023-0.3828-0.5312-0.7266-0.5312h-0.1211v-0.3281" fill="#231f1f"/>
<path d="m228.7 98.98h-1.387v-0.3047h1.387v0.3047" fill="#231f1f"/>
<path d="m188.5 109.4h0.01562l1.465-3.809h1.078v4.957h-0.6953v-4.145h-0.01172l-1.648 4.145h-0.4414l-1.637-4.145h-0.01562v4.145h-0.6719v-4.957h1.078l1.484 3.809" fill="#231f1f"/>
<path d="m194.6 108.6c-0.01172-0.5234-0.3203-0.9375-0.9297-0.9375-0.5664 0-1 0.4219-1.043 0.9375zm0.6602 0.4883h-2.633c0.01953 0.5703 0.4961 1.012 1.078 1.012 0.4492 0 0.7773-0.2227 0.9648-0.5039l0.4648 0.3711c-0.3594 0.4609-0.8398 0.6797-1.43 0.6797-1.008 0-1.75-0.7031-1.75-1.746 0-1.035 0.7422-1.758 1.715-1.758 0.9805 0 1.598 0.668 1.598 1.723 0 0.07031 0 0.1484-0.007813 0.2227" fill="#231f1f"/>
<path d="m197.8 107.8h-0.8828v1.727c0 0.4023 0.1406 0.5625 0.4688 0.5625 0.1211 0 0.2734-0.02734 0.3867-0.08594l0.01953 0.5391c-0.1523 0.05859-0.3555 0.09375-0.5586 0.09375-0.625 0-0.9688-0.3516-0.9688-1.039v-1.797h-0.6367v-0.543h0.6367v-0.9492h0.6523v0.9492h0.8828v0.543" fill="#231f1f"/>
<path d="m200.4 109c-0.6484 0-1.477 0.07031-1.477 0.6328 0 0.3906 0.3516 0.5156 0.6797 0.5156 0.6172 0 0.9609-0.4102 0.9609-0.9727v-0.1758zm0.1641-0.5664c0-0.4883-0.332-0.7266-0.8203-0.7266-0.3711 0-0.7227 0.1602-0.9453 0.3828l-0.3516-0.418c0.3242-0.3086 0.8203-0.5 1.359-0.5 0.9531 0 1.387 0.5664 1.387 1.305v1.449c0 0.2227 0.01172 0.4961 0.04688 0.6562h-0.5938c-0.03516-0.1445-0.05469-0.3203-0.05469-0.4766h-0.02344c-0.2383 0.3594-0.6133 0.5625-1.113 0.5625-0.5234 0-1.203-0.2617-1.203-1.023 0-1 1.191-1.121 2.312-1.121v-0.08984" fill="#231f1f"/>
<path d="m204 107.7c-0.6719 0-1.121 0.5664-1.121 1.207 0 0.6367 0.4492 1.195 1.121 1.195 0.7227 0 1.105-0.582 1.105-1.203 0-0.625-0.3828-1.199-1.105-1.199zm-1.098 2.34v0.5234h-0.6367v-5.293h0.6562v2.473h0.01953c0.2266-0.3242 0.6406-0.5898 1.184-0.5898 0.9883 0 1.66 0.7656 1.66 1.746 0 0.9727-0.6484 1.758-1.672 1.758-0.4688 0-0.9375-0.2188-1.199-0.6172h-0.01172" fill="#231f1f"/>
<path d="m208.3 107.7c-0.707 0-1.105 0.5664-1.105 1.199 0 0.6289 0.3984 1.203 1.105 1.203 0.7148 0 1.105-0.5742 1.105-1.203 0-0.6328-0.3906-1.199-1.105-1.199zm0 2.957c-1.016 0-1.785-0.7383-1.785-1.758 0-1.023 0.7695-1.746 1.785-1.746s1.793 0.7227 1.793 1.746c0 1.02-0.7773 1.758-1.793 1.758" fill="#231f1f"/>
<path d="m211.7 110.6h-0.6602v-5.293h0.6602v5.293" fill="#231f1f"/>
<path d="m213.5 110.6h-0.6602v-3.32h0.6602zm-0.3281-4.094c-0.2383 0-0.4375-0.1914-0.4375-0.4219 0-0.2383 0.1992-0.4258 0.4375-0.4258s0.4414 0.1797 0.4414 0.4258c0 0.2383-0.2031 0.4219-0.4414 0.4219" fill="#231f1f"/>
<path d="m217 108.1c-0.1406-0.2188-0.4492-0.3789-0.7656-0.3789-0.6836 0-1.082 0.5586-1.082 1.199 0 0.6289 0.3984 1.195 1.09 1.195 0.3359 0 0.625-0.1406 0.8008-0.3633l0.4414 0.3984c-0.2812 0.3203-0.707 0.5195-1.242 0.5195-1.02 0-1.785-0.6953-1.785-1.75 0-1.047 0.7578-1.754 1.773-1.754 0.4688 0 0.9727 0.1914 1.246 0.5469l-0.4766 0.3867" fill="#231f1f"/>
<path d="m221.8 109c-0.6523 0-1.48 0.07031-1.48 0.6328 0 0.3906 0.3516 0.5156 0.6797 0.5156 0.6172 0 0.9609-0.4102 0.9609-0.9727v-0.1758zm0.1602-0.5664c0-0.4883-0.3281-0.7266-0.8203-0.7266-0.3711 0-0.7227 0.1602-0.9453 0.3828l-0.3516-0.418c0.3242-0.3086 0.8203-0.5 1.359-0.5 0.9531 0 1.387 0.5664 1.387 1.305v1.449c0 0.2227 0.01562 0.4961 0.05078 0.6562h-0.5977c-0.03516-0.1445-0.05469-0.3203-0.05469-0.4766h-0.01953c-0.2383 0.3594-0.6172 0.5625-1.113 0.5625-0.5273 0-1.207-0.2617-1.207-1.023 0-1 1.191-1.121 2.312-1.121v-0.08984" fill="#231f1f"/>
<path d="m224.3 110.6h-0.6562v-5.293h0.6562v5.293" fill="#231f1f"/>
<path d="m226.1 108.7h0.02344l1.395-1.445h0.8789l-1.555 1.508 1.688 1.812h-0.9102l-1.496-1.719h-0.02344v1.719h-0.6562v-5.293h0.6562v3.418" fill="#231f1f"/>
<path d="m231 109c-0.6523 0-1.48 0.07031-1.48 0.6328 0 0.3906 0.3516 0.5156 0.6797 0.5156 0.6172 0 0.9609-0.4102 0.9609-0.9727v-0.1758zm0.1602-0.5664c0-0.4883-0.3281-0.7266-0.8203-0.7266-0.3711 0-0.7227 0.1602-0.9453 0.3828l-0.3516-0.418c0.3242-0.3086 0.8203-0.5 1.359-0.5 0.9531 0 1.387 0.5664 1.387 1.305v1.449c0 0.2227 0.01172 0.4961 0.04688 0.6562h-0.5938c-0.03516-0.1445-0.05469-0.3203-0.05469-0.4766h-0.01953c-0.2422 0.3594-0.6172 0.5625-1.117 0.5625-0.5234 0-1.203-0.2617-1.203-1.023 0-1 1.191-1.121 2.312-1.121v-0.08984" fill="#231f1f"/>
<path d="m233.6 110.6h-0.6562v-5.293h0.6562v5.293" fill="#231f1f"/>
<path d="m236.3 107.7c-0.707 0-1.109 0.5664-1.109 1.199 0 0.6289 0.4023 1.203 1.109 1.203 0.7148 0 1.105-0.5742 1.105-1.203 0-0.6328-0.3906-1.199-1.105-1.199zm0 2.957c-1.02 0-1.789-0.7383-1.789-1.758 0-1.023 0.7695-1.746 1.789-1.746 1.016 0 1.793 0.7227 1.793 1.746 0 1.02-0.7773 1.758-1.793 1.758" fill="#231f1f"/>
<path d="m240.8 108.1c-0.1484-0.2383-0.4336-0.4141-0.7695-0.4141-0.3008 0-0.6172 0.1172-0.6172 0.4336 0 0.2812 0.25 0.3867 0.7539 0.4961 0.6328 0.1406 1.117 0.4023 1.117 0.9805 0 0.7852-0.6523 1.074-1.324 1.074-0.5039 0-1.023-0.1992-1.34-0.5977l0.4688-0.3984c0.1758 0.2578 0.5156 0.4609 0.8867 0.4609 0.3281 0 0.6562-0.1172 0.6562-0.4805 0-0.3086-0.3008-0.4219-0.8672-0.5547-0.4414-0.1055-0.9688-0.293-0.9688-0.918 0-0.7148 0.625-1.016 1.254-1.016 0.4688 0 0.9688 0.1914 1.203 0.5469l-0.4531 0.3867" fill="#231f1f"/>
<path d="m242.8 110.6h-0.6602v-3.32h0.6602zm-0.3281-4.094c-0.2383 0-0.4336-0.1914-0.4336-0.4219 0-0.2383 0.1953-0.4258 0.4336-0.4258 0.2383 0 0.4414 0.1797 0.4414 0.4258 0 0.2383-0.2031 0.4219-0.4414 0.4219" fill="#231f1f"/>
<path d="m245.7 108.1c-0.1484-0.2383-0.4375-0.4141-0.7734-0.4141-0.2969 0-0.6133 0.1172-0.6133 0.4336 0 0.2812 0.25 0.3867 0.7539 0.4961 0.6328 0.1406 1.113 0.4023 1.113 0.9805 0 0.7852-0.6484 1.074-1.324 1.074-0.5039 0-1.02-0.1992-1.336-0.5977l0.4688-0.3984c0.1758 0.2578 0.5117 0.4609 0.8828 0.4609 0.332 0 0.6602-0.1172 0.6602-0.4805 0-0.3086-0.3047-0.4219-0.8711-0.5547-0.4414-0.1055-0.9648-0.293-0.9648-0.918 0-0.7148 0.6211-1.016 1.254-1.016 0.4688 0 0.9648 0.1914 1.203 0.5469l-0.4531 0.3867" fill="#231f1f"/>
<g clip-path="url(#a)">
<path d="m339.5 115.2h-74.75v-23h74.75v23" fill="#fef0ca"/>
<path transform="matrix(.1 0 0 -.1 0 115.5)" d="m3395 2.5h-747.5v230h747.5z" fill="none" stroke="#231f1f" stroke-width="5"/>
</g>
<path d="m294.9 95.93v5.566c0.2656-0.2734 0.9805-0.8594 1.402-1.195l0.2461 0.2422c-0.7227 0.6094-1.215 1.102-1.844 1.762-0.6289-0.6602-1.121-1.152-1.844-1.762l0.2461-0.2422c0.418 0.3359 1.137 0.9219 1.402 1.195v-5.566h0.3906" fill="#231f1f"/>
<path d="m303.3 101.4c-0.3867 0.5234-1.023 0.8945-1.895 0.8945-1.516 0-2.609-1.086-2.609-2.613 0-1.547 1.133-2.598 2.641-2.598 0.6797 0 1.414 0.2695 1.777 0.7734l-0.5469 0.418c-0.2383-0.3359-0.7188-0.582-1.23-0.582-1.148 0-1.883 0.9062-1.883 1.988 0 1.117 0.7188 1.996 1.863 1.996 0.5508 0 1.035-0.2305 1.328-0.6562l0.5547 0.3789" fill="#231f1f"/>
<path d="m306.3 97.68c-1.141 0-1.867 0.9062-1.867 1.988 0 1.109 0.7344 1.992 1.867 1.992 1.152 0 1.887-0.8828 1.887-1.992 0-1.082-0.7305-1.988-1.887-1.988zm0 4.602c-1.504 0-2.617-1.086-2.617-2.613 0-1.547 1.113-2.598 2.617-2.598 1.516 0 2.637 1.051 2.637 2.598 0 1.527-1.121 2.613-2.637 2.613" fill="#231f1f"/>
<path d="m311.4 104.5h-1.879v-0.3789l1.145-1.141c0.1758-0.1797 0.3203-0.3672 0.3203-0.6133 0-0.3008-0.2305-0.4961-0.5117-0.4961-0.2969 0-0.4961 0.2109-0.543 0.5l-0.3867-0.0625c0.06641-0.4414 0.4375-0.7695 0.9336-0.7695 0.4766 0 0.9102 0.2852 0.9102 0.8203 0 0.3711-0.2109 0.625-0.4648 0.8711l-0.9375 0.9141h1.414v0.3555" fill="#231f1f"/>
<path d="m270.8 107.8h0.7969c0.6523 0 1.164-0.2031 1.164-0.8008 0-0.5938-0.5117-0.7812-1.113-0.7812h-0.8477zm0 2.785h-0.6914v-4.957h1.59c0.957 0 1.766 0.3633 1.766 1.371 0 0.7305-0.5 1.191-1.207 1.312l1.387 2.273h-0.8398l-1.262-2.203h-0.7422v2.203" fill="#231f1f"/>
<path d="m276.7 108.6c-0.01562-0.5234-0.3242-0.9375-0.9336-0.9375-0.5664 0-1 0.4219-1.043 0.9375zm0.6562 0.4883h-2.633c0.02344 0.5703 0.4961 1.012 1.078 1.012 0.4492 0 0.7773-0.2227 0.9688-0.5039l0.4609 0.3711c-0.3594 0.4609-0.8398 0.6797-1.43 0.6797-1.008 0-1.75-0.7031-1.75-1.746 0-1.035 0.7422-1.758 1.715-1.758 0.9805 0 1.598 0.668 1.598 1.723 0 0.07031 0 0.1484-0.007812 0.2227" fill="#231f1f"/>
<path d="m280.1 108.1c-0.1484-0.2383-0.4336-0.4141-0.7695-0.4141-0.3008 0-0.6172 0.1172-0.6172 0.4336 0 0.2812 0.2539 0.3867 0.7578 0.4961 0.6289 0.1406 1.113 0.4023 1.113 0.9805 0 0.7852-0.6523 1.074-1.324 1.074-0.5039 0-1.023-0.1992-1.336-0.5977l0.4688-0.3984c0.1719 0.2578 0.5117 0.4609 0.8828 0.4609 0.3281 0 0.6562-0.1172 0.6562-0.4805 0-0.3086-0.3008-0.4219-0.8672-0.5547-0.4414-0.1055-0.9648-0.293-0.9648-0.918 0-0.7148 0.6211-1.016 1.254-1.016 0.4648 0 0.9648 0.1914 1.203 0.5469l-0.457 0.3867" fill="#231f1f"/>
<path d="m283.1 107.7c-0.668 0-1.117 0.5664-1.117 1.207 0 0.6367 0.4492 1.195 1.117 1.195 0.7227 0 1.109-0.582 1.109-1.203 0-0.625-0.3867-1.199-1.109-1.199zm-1.078 4.547h-0.6562v-5.004h0.6445v0.5195h0.01953c0.2188-0.3477 0.6523-0.6094 1.199-0.6094 0.9883 0 1.66 0.7656 1.66 1.746 0 0.9727-0.6523 1.758-1.676 1.758-0.4688 0-0.9219-0.2188-1.168-0.5898h-0.02344v2.18" fill="#231f1f"/>
<path d="m286.5 110.6h-0.6562v-3.32h0.6562zm-0.3281-4.094c-0.2383 0-0.4336-0.1914-0.4336-0.4219 0-0.2383 0.1953-0.4258 0.4336-0.4258s0.4414 0.1797 0.4414 0.4258c0 0.2383-0.2031 0.4219-0.4414 0.4219" fill="#231f1f"/>
<path d="m287.6 107.2h0.625c0.01172 0.1719 0.02734 0.4219 0.02734 0.5625h0.01953c0.1836-0.3867 0.5664-0.6523 1.016-0.6523 0.08984 0 0.1836 0.007813 0.2578 0.02734l-0.02734 0.6094c-0.08203-0.01953-0.1953-0.03516-0.3008-0.03516-0.6289 0-0.9297 0.5117-0.9297 1.066v1.742h-0.6602v-2.605c0-0.1719-0.007813-0.4961-0.02734-0.7148" fill="#231f1f"/>
<path d="m292 109c-0.6523 0-1.477 0.07031-1.477 0.6328 0 0.3906 0.3516 0.5156 0.6797 0.5156 0.6133 0 0.9609-0.4102 0.9609-0.9727v-0.1758zm0.1641-0.5664c0-0.4883-0.332-0.7266-0.8203-0.7266-0.3711 0-0.7227 0.1602-0.9453 0.3828l-0.3516-0.418c0.3242-0.3086 0.8203-0.5 1.359-0.5 0.9531 0 1.387 0.5664 1.387 1.305v1.449c0 0.2227 0.01172 0.4961 0.05078 0.6562h-0.5977c-0.03516-0.1445-0.05469-0.3203-0.05469-0.4766h-0.02344c-0.2383 0.3594-0.6172 0.5625-1.113 0.5625-0.5234 0-1.203-0.2617-1.203-1.023 0-1 1.191-1.121 2.312-1.121v-0.08984" fill="#231f1f"/>
<path d="m295.4 107.8h-0.8828v1.727c0 0.4023 0.1406 0.5625 0.4688 0.5625 0.1172 0 0.2734-0.02734 0.3867-0.08594l0.01953 0.5391c-0.1523 0.05859-0.3555 0.09375-0.5586 0.09375-0.625 0-0.9688-0.3516-0.9688-1.039v-1.797h-0.6367v-0.543h0.6367v-0.9492h0.6523v0.9492h0.8828v0.543" fill="#231f1f"/>
<path d="m297.7 107.7c-0.707 0-1.105 0.5664-1.105 1.199 0 0.6289 0.3984 1.203 1.105 1.203 0.7148 0 1.105-0.5742 1.105-1.203 0-0.6328-0.3906-1.199-1.105-1.199zm0 2.957c-1.016 0-1.785-0.7383-1.785-1.758 0-1.023 0.7695-1.746 1.785-1.746s1.793 0.7227 1.793 1.746c0 1.02-0.7773 1.758-1.793 1.758" fill="#231f1f"/>
<path d="m300.3 107.2h0.625c0.01562 0.1719 0.02734 0.4219 0.02734 0.5625h0.02344c0.1797-0.3867 0.5664-0.6523 1.012-0.6523 0.09375 0 0.1836 0.007813 0.2617 0.02734l-0.02734 0.6094c-0.08594-0.01953-0.1953-0.03516-0.3047-0.03516-0.6289 0-0.9297 0.5117-0.9297 1.066v1.742h-0.6602v-2.605c0-0.1719-0.003906-0.4961-0.02734-0.7148" fill="#231f1f"/>
<path d="m304.2 109.8h0.01562l0.918-2.605h0.6992l-1.613 4.105c-0.2148 0.5547-0.4961 0.8984-1.148 0.8984-0.1367 0-0.2852-0.01562-0.4336-0.05078l0.0625-0.582c0.1055 0.03516 0.2266 0.05859 0.3281 0.05859 0.3438 0 0.4805-0.1992 0.6172-0.5547l0.2109-0.5547-1.422-3.32h0.7383l1.027 2.605" fill="#231f1f"/>
<path d="m310.1 109c-0.6523 0-1.477 0.07031-1.477 0.6328 0 0.3906 0.3477 0.5156 0.6797 0.5156 0.6133 0 0.957-0.4102 0.957-0.9727v-0.1758zm0.1602-0.5664c0-0.4883-0.3281-0.7266-0.8164-0.7266-0.3711 0-0.7227 0.1602-0.9453 0.3828l-0.3516-0.418c0.3203-0.3086 0.8203-0.5 1.359-0.5 0.9531 0 1.387 0.5664 1.387 1.305v1.449c0 0.2227 0.01172 0.4961 0.04688 0.6562h-0.5938c-0.03516-0.1445-0.05469-0.3203-0.05469-0.4766h-0.02344c-0.2383 0.3594-0.6172 0.5625-1.113 0.5625-0.5273 0-1.203-0.2617-1.203-1.023 0-1 1.188-1.121 2.309-1.121v-0.08984" fill="#231f1f"/>
<path d="m312.6 110.6h-0.6602v-5.293h0.6602v5.293" fill="#231f1f"/>
<path d="m314.5 108.7h0.01953l1.395-1.445h0.8828l-1.555 1.508 1.688 1.812h-0.9102l-1.5-1.719h-0.01953v1.719h-0.6602v-5.293h0.6602v3.418" fill="#231f1f"/>
<path d="m319.3 109c-0.6523 0-1.48 0.07031-1.48 0.6328 0 0.3906 0.3516 0.5156 0.6797 0.5156 0.6172 0 0.9609-0.4102 0.9609-0.9727v-0.1758zm0.1602-0.5664c0-0.4883-0.3281-0.7266-0.8203-0.7266-0.3711 0-0.7188 0.1602-0.9453 0.3828l-0.3477-0.418c0.3203-0.3086 0.8164-0.5 1.355-0.5 0.9531 0 1.391 0.5664 1.391 1.305v1.449c0 0.2227 0.01172 0.4961 0.04688 0.6562h-0.5938c-0.03516-0.1445-0.05859-0.3203-0.05859-0.4766h-0.01953c-0.2383 0.3594-0.6172 0.5625-1.113 0.5625-0.5273 0-1.207-0.2617-1.207-1.023 0-1 1.191-1.121 2.312-1.121v-0.08984" fill="#231f1f"/>
<path d="m321.9 110.6h-0.6562v-5.293h0.6562v5.293" fill="#231f1f"/>
<path d="m324.6 107.7c-0.707 0-1.105 0.5664-1.105 1.199 0 0.6289 0.3984 1.203 1.105 1.203 0.7148 0 1.105-0.5742 1.105-1.203 0-0.6328-0.3906-1.199-1.105-1.199zm0 2.957c-1.016 0-1.785-0.7383-1.785-1.758 0-1.023 0.7695-1.746 1.785-1.746 1.016 0 1.793 0.7227 1.793 1.746 0 1.02-0.7773 1.758-1.793 1.758" fill="#231f1f"/>
<path d="m329.1 108.1c-0.1445-0.2383-0.4336-0.4141-0.7695-0.4141-0.3008 0-0.6133 0.1172-0.6133 0.4336 0 0.2812 0.25 0.3867 0.7539 0.4961 0.6289 0.1406 1.113 0.4023 1.113 0.9805 0 0.7852-0.6523 1.074-1.324 1.074-0.5039 0-1.023-0.1992-1.336-0.5977l0.4688-0.3984c0.1758 0.2578 0.5117 0.4609 0.8828 0.4609 0.3281 0 0.6562-0.1172 0.6562-0.4805 0-0.3086-0.3008-0.4219-0.8672-0.5547-0.4414-0.1055-0.9648-0.293-0.9648-0.918 0-0.7148 0.6211-1.016 1.25-1.016 0.4727 0 0.9688 0.1914 1.207 0.5469l-0.457 0.3867" fill="#231f1f"/>
<path d="m331.1 110.6h-0.6602v-3.32h0.6602zm-0.332-4.094c-0.2383 0-0.4336-0.1914-0.4336-0.4219 0-0.2383 0.1953-0.4258 0.4336-0.4258s0.4414 0.1797 0.4414 0.4258c0 0.2383-0.2031 0.4219-0.4414 0.4219" fill="#231f1f"/>
<path d="m334 108.1c-0.1445-0.2383-0.4336-0.4141-0.7695-0.4141-0.3008 0-0.6172 0.1172-0.6172 0.4336 0 0.2812 0.2539 0.3867 0.7578 0.4961 0.6289 0.1406 1.113 0.4023 1.113 0.9805 0 0.7852-0.6523 1.074-1.324 1.074-0.5039 0-1.023-0.1992-1.336-0.5977l0.4688-0.3984c0.1719 0.2578 0.5117 0.4609 0.8789 0.4609 0.332 0 0.6602-0.1172 0.6602-0.4805 0-0.3086-0.3008-0.4219-0.8672-0.5547-0.4414-0.1055-0.9688-0.293-0.9688-0.918 0-0.7148 0.625-1.016 1.254-1.016 0.4727 0 0.9688 0.1914 1.207 0.5469l-0.457 0.3867" fill="#231f1f"/>
<path transform="matrix(.1 0 0 -.1 0 115.5)" d="m2589 520v-109.2" fill="none" stroke="#231f1f" stroke-width="5"/>
<path transform="matrix(.1 0 0 -.1 0 115.5)" d="m2157 291.1v120h862.9v-120" fill="none" stroke="#231f1f" stroke-width="5"/>
<path d="m302 90.02c-0.6289-1.707-1.707-3.82-2.852-5.129l2.852 1.031 2.855-1.031c-1.145 1.309-2.223 3.422-2.855 5.129" fill="#231f1f"/>
<path d="m215.7 90.02c-0.6289-1.707-1.711-3.82-2.852-5.129l2.852 1.031 2.855-1.031c-1.145 1.309-2.223 3.422-2.855 5.129" fill="#231f1f"/>
<path d="m106.9 19.89-2.695 1.234 2.68 1.23v0.5977l-3.555-1.617v-0.4219l3.57-1.617v0.5938" fill="#231f1f"/>
<path d="m111 18.91-1.988 4.344h-0.7773l2.062-4.355h-2.457v-0.6055h3.16v0.6172" fill="#231f1f"/>
<path d="m112.5 23.29c-0.2617 0-0.4688-0.2109-0.4688-0.457 0-0.25 0.2031-0.4609 0.4688-0.4609s0.4688 0.2031 0.4688 0.4531c0 0.2461-0.2031 0.4648-0.4688 0.4648" fill="#231f1f"/>
<path d="m114.9 20.38h0.2188c0.5664 0 1.105-0.1875 1.105-0.8281 0-0.4961-0.4062-0.8203-0.875-0.8203-0.4141 0-0.7188 0.2344-0.8672 0.6133l-0.6172-0.2188c0.2461-0.5938 0.8125-0.9609 1.512-0.9609 0.8281 0 1.527 0.4688 1.527 1.348 0 0.5508-0.3633 0.9922-0.875 1.125v0.01562c0.582 0.1172 1.008 0.5742 1.008 1.211 0 0.9883-0.8125 1.512-1.66 1.512-0.7812 0-1.414-0.3477-1.688-1.094l0.6328-0.207c0.1445 0.4258 0.5234 0.7266 1.043 0.7266 0.4961 0 0.9922-0.3164 0.9922-0.9453 0-0.6914-0.6562-0.918-1.246-0.918h-0.2109v-0.5586" fill="#231f1f"/>
<path d="m121.2 18.91-1.988 4.344h-0.7773l2.066-4.355h-2.461v-0.6055h3.16v0.6172" fill="#231f1f"/>
<path d="m218.3 19.3 3.555 1.617v0.4219l-3.555 1.617v-0.5977l2.68-1.23-2.68-1.234v-0.5938" fill="#231f1f"/>
<path d="m226 18.91-1.988 4.344h-0.7773l2.066-4.355h-2.461v-0.6055h3.16v0.6172" fill="#231f1f"/>
<path d="m227.5 23.29c-0.2617 0-0.4688-0.2109-0.4688-0.457 0-0.25 0.2031-0.4609 0.4688-0.4609s0.4688 0.2031 0.4688 0.4531c0 0.2461-0.2031 0.4648-0.4688 0.4648" fill="#231f1f"/>
<path d="m230.9 19.07h-0.01562l-1.57 2.484h1.586zm0.6562 2.484h0.7148v0.582h-0.7148v1.113h-0.6562v-1.113h-2.285v-0.6172l2.109-3.23h0.832v3.266" fill="#231f1f"/>
<path d="m235.1 19.07h-0.01562l-1.566 2.484h1.582zm0.6562 2.484h0.7148v0.582h-0.7148v1.113h-0.6562v-1.113h-2.285v-0.6172l2.109-3.23h0.832v3.266" fill="#231f1f"/>
</svg>
