<?xml version="1.0" encoding="UTF-8"?>
<svg width="227.1pt" height="130.9pt" version="1.1" viewBox="0 0 227.1 130.9" xmlns="http://www.w3.org/2000/svg">
<defs>
<clipPath id="d">
<path d="m181 113h46v17.91h-46z"/>
</clipPath>
<clipPath id="c">
<path d="m181 113h46.08v17.91h-46.08z"/>
</clipPath>
<clipPath id="b">
<path d="m11 113h69v17.91h-69z"/>
</clipPath>
<clipPath id="a">
<path d="m90 113h70v17.91h-70z"/>
</clipPath>
</defs>
<path transform="matrix(.1 0 0 -.1 0 130.9)" d="m737.3 166v260.4h170.1" fill="none" stroke="#231f1f" stroke-dasharray="20,20" stroke-width="5"/>
<path d="m93.46 88.27c-1.277 0.4766-2.863 1.285-3.848 2.141l0.7773-2.141-0.7773-2.141c0.9844 0.8594 2.57 1.668 3.848 2.141" fill="#231f1f"/>
<path transform="matrix(.1 0 0 -.1 0 130.9)" d="m2.5 85.23v1135h567" fill="none" stroke="#231f1f" stroke-width="5"/>
<path d="m59.66 8.844c-1.277 0.4766-2.863 1.285-3.844 2.141l0.7734-2.141-0.7734-2.141c0.9805 0.8594 2.566 1.668 3.844 2.141" fill="#231f1f"/>
<g clip-path="url(#d)">
<path d="m226.8 130.7h-45.13v-17.01h45.13v17.01" fill="#fef0ca"/>
</g>
<g clip-path="url(#c)">
<path transform="matrix(.1 0 0 -.1 0 130.9)" d="m2268 2.498h-451.3v170.1h451.3z" fill="none" stroke="#231f1f" stroke-width="5"/>
</g>
<g clip-path="url(#b)">
<path d="m79.63 130.7h-68.04v-17.01h68.04v17.01" fill="#fef0ca"/>
<path transform="matrix(.1 0 0 -.1 0 130.9)" d="m796.3 2.498h-680.4v170.1h680.4z" fill="none" stroke="#231f1f" stroke-width="5"/>
</g>
<path d="m108 17.26h-45.36v-17.01h45.36v17.01" fill="#fef0ca"/>
<path transform="matrix(.1 0 0 -.1 0 130.9)" d="m1080 1137h-453.6v170.1h453.6z" fill="none" stroke="#231f1f" stroke-width="5"/>
<path d="m80.16 7.457c-0.3516-0.2305-0.7344-0.3477-1.379-0.3477-1.156 0-1.926 0.8438-1.926 1.969 0 1.18 0.8477 1.965 1.891 1.965 0.4961 0 0.625-0.05078 0.8047-0.08594v-1.527h-1.059v-0.5898h1.777v2.613c-0.2734 0.09375-0.75 0.2227-1.531 0.2227-1.59 0-2.645-1.02-2.645-2.621 0-1.547 1.121-2.578 2.652-2.578 0.7305 0 1.055 0.1094 1.473 0.2539l-0.05859 0.7266" fill="#231f1f"/>
<path d="m81.48 7.918h0.6562v0.582h0.01562c0.1992-0.418 0.6875-0.668 1.199-0.668 0.9492 0 1.371 0.5898 1.371 1.578v2.18h-0.6758v-1.902c0-0.8555-0.1875-1.273-0.7734-1.309-0.7695 0-1.117 0.6172-1.117 1.512v1.699h-0.6758v-3.672" fill="#231f1f"/>
<path d="m86.62 8.723h0.6094c0.6836 0 1.086-0.3008 1.086-0.7852 0-0.4531-0.3438-0.7383-1.008-0.7383h-0.6875zm-0.7188-2.16h1.23c0.9883 0 1.945 0.1602 1.945 1.363 0 0.6094-0.4531 1.043-1.035 1.145v0.01563c0.2227 0.08594 0.332 0.1914 0.4883 0.5039l0.9492 2h-0.8203l-0.7656-1.742c-0.2266-0.4883-0.4609-0.4883-0.8438-0.4883h-0.4297v2.23h-0.7188v-5.027" fill="#231f1f"/>
<path d="m90.37 6.562h0.7188v2.105h2.398v-2.105h0.7188v5.027h-0.7188v-2.289h-2.398v2.289h-0.7188v-5.027" fill="#231f1f"/>
<path d="m56.95 62.62h-22.68v-17.01h22.68v17.01" fill="#fef0ca"/>
<path transform="matrix(.1 0 0 -.1 0 130.9)" d="m569.5 682.9h-226.8v170.1h226.8z" fill="none" stroke="#231f1f" stroke-width="5"/>
<path d="m41.85 51.92h0.7188v4.395h2.098v0.6328h-2.816v-5.027" fill="#231f1f"/>
<path d="m45.49 51.92h0.7188v2.105h2.402v-2.105h0.7188v5.027h-0.7188v-2.289h-2.402v2.289h-0.7188v-5.027" fill="#231f1f"/>
<path transform="matrix(.1 0 0 -.1 0 130.9)" d="m456.1 682.9v-113.4" fill="none" stroke="#231f1f" stroke-width="5"/>
<path d="m45.61 76.68c-0.4727-1.277-1.281-2.863-2.141-3.848l2.141 0.7734 2.141-0.7734c-0.8555 0.9844-1.664 2.57-2.141 3.848" fill="#231f1f"/>
<path d="m68.29 96.64h-45.36v-17.01h45.36v17.01" fill="#fef0ca"/>
<path transform="matrix(.1 0 0 -.1 0 130.9)" d="m682.9 342.7h-453.6v170.1h453.6z" fill="none" stroke="#231f1f" stroke-width="5"/>
<path transform="matrix(.1 0 0 -.1 0 130.9)" d="m456.1 342.7v-113.4" fill="none" stroke="#231f1f" stroke-width="5"/>
<path d="m45.61 110.7c-0.4727-1.277-1.281-2.863-2.141-3.844l2.141 0.7695 2.141-0.7695c-0.8555 0.9805-1.664 2.566-2.141 3.844" fill="#231f1f"/>
<path transform="matrix(.1 0 0 -.1 0 130.9)" d="m853 1136v-113.4" fill="none" stroke="#231f1f" stroke-width="5"/>
<path transform="matrix(.1 0 0 -.1 0 130.9)" d="m456.1 909.7v113.4h793.8v-113.4" fill="none" stroke="#231f1f" stroke-width="5"/>
<path d="m125 42.66c-0.4727-1.277-1.281-2.863-2.137-3.848l2.137 0.7734 2.141-0.7734c-0.8555 0.9844-1.664 2.57-2.141 3.848" fill="#231f1f"/>
<path d="m45.61 42.66c-0.4727-1.277-1.281-2.863-2.141-3.848l2.141 0.7734 2.141-0.7734c-0.8555 0.9844-1.664 2.57-2.141 3.848" fill="#231f1f"/>
<path d="m136.3 62.62h-22.68v-17.01h22.68v17.01" fill="#fef0ca"/>
<path transform="matrix(.1 0 0 -.1 0 130.9)" d="m1363 682.9h-226.8v170.1h226.8z" fill="none" stroke="#231f1f" stroke-width="5"/>
<path d="m119.4 51.92h2.668v0.6328h-1.949v1.473h1.863v0.6328h-1.863v2.289h-0.7188v-5.027" fill="#231f1f"/>
<path d="m125.3 52.68c-0.3672-0.1445-0.5664-0.2109-0.9414-0.2109-0.4023 0-0.8789 0.1445-0.8789 0.6719 0 0.9648 2.156 0.7422 2.156 2.398 0 1.074-0.8242 1.496-1.832 1.496-0.3516 0-0.6953-0.1016-1.027-0.207l0.07422-0.6719c0.2422 0.1016 0.6758 0.2461 1.039 0.2461 0.4102 0 0.9883-0.2305 0.9883-0.8203 0-1.125-2.16-0.8164-2.16-2.379 0-0.8906 0.707-1.367 1.613-1.367 0.3281 0 0.7227 0.05859 1.07 0.1797l-0.1016 0.6641" fill="#231f1f"/>
<path d="m126.7 51.92h0.7227v2.105h2.398v-2.105h0.7188v5.027h-0.7188v-2.289h-2.398v2.289h-0.7227v-5.027" fill="#231f1f"/>
<path d="m153.3 96.64h-56.7v-17.01h56.7v17.01" fill="#fef0ca"/>
<path transform="matrix(.1 0 0 -.1 0 130.9)" d="m1533 342.7h-567v170.1h567z" fill="none" stroke="#231f1f" stroke-width="5"/>
<g clip-path="url(#a)">
<path d="m159 130.7h-68.04v-17.01h68.04v17.01" fill="#fef0ca"/>
<path transform="matrix(.1 0 0 -.1 0 130.9)" d="m1590 2.498h-680.4v170.1h680.4z" fill="none" stroke="#231f1f" stroke-width="5"/>
</g>
<path transform="matrix(.1 0 0 -.1 0 130.9)" d="m1250 682.9v-113.4" fill="none" stroke="#231f1f" stroke-width="5"/>
<path d="m125 76.68c-0.4727-1.277-1.281-2.863-2.137-3.848l2.137 0.7773 2.141-0.7773c-0.8555 0.9844-1.664 2.57-2.141 3.848" fill="#231f1f"/>
<path transform="matrix(.1 0 0 -.1 0 130.9)" d="m1250 342.7v-113.4" fill="none" stroke="#231f1f" stroke-width="5"/>
<path d="m125 110.7c-0.4727-1.277-1.281-2.863-2.137-3.844l2.137 0.7695 2.141-0.7695c-0.8555 0.9805-1.664 2.566-2.141 3.844" fill="#231f1f"/>
<path transform="matrix(.1 0 0 -.1 0 130.9)" d="m1533 429.1h113.4" fill="none" stroke="#231f1f" stroke-width="5"/>
<path d="m167.4 88c-1.277 0.4727-2.863 1.281-3.844 2.141l0.7734-2.141-0.7734-2.141c0.9805 0.8555 2.566 1.668 3.844 2.141" fill="#231f1f"/>
<path d="m204.4 96.64h-34.02v-17.01h34.02v17.01" fill="#fef0ca"/>
<path transform="matrix(.1 0 0 -.1 0 130.9)" d="m2044 342.7h-340.2v170.1h340.2z" fill="none" stroke="#231f1f" stroke-width="5"/>
<path d="m173 85.94h0.7188v5.027h-0.7188v-5.027" fill="#231f1f"/>
<path d="m175 87.3h0.6523v0.582h0.01562c0.1992-0.418 0.6914-0.668 1.199-0.668 0.9492 0 1.375 0.5898 1.375 1.578v2.18h-0.6758v-1.902c0-0.8555-0.1875-1.273-0.7773-1.309-0.7695 0-1.113 0.6172-1.113 1.512v1.699h-0.6758v-3.672" fill="#231f1f"/>
<path d="m179.3 85.57h0.6758v2.254h0.01172c0.2461-0.3867 0.668-0.6094 1.18-0.6094 0.9492 0 1.371 0.5898 1.371 1.578v2.18h-0.6758v-1.902c0-0.8555-0.1836-1.273-0.7734-1.309-0.7695 0-1.113 0.6172-1.113 1.512v1.699h-0.6758v-5.402" fill="#231f1f"/>
<path d="m183.8 87.3h0.6758v3.672h-0.6758zm0.7188-0.8203h-0.7617v-0.7656h0.7617v0.7656" fill="#231f1f"/>
<path d="m187.5 87.76c-0.7344 0-1.086 0.6992-1.086 1.383 0 0.6133 0.3164 1.367 1.078 1.367 0.7266 0 1.027-0.8125 1.016-1.391 0.01172-0.6602-0.2734-1.359-1.008-1.359zm-1.762-2.191h0.6758v2.234h0.01563c0.207-0.3398 0.5742-0.5898 1.215-0.5898 1.062 0 1.578 0.8711 1.578 1.855 0 1.012-0.4648 1.988-1.57 1.988-0.6562 0-1.074-0.3281-1.254-0.6055h-0.01172v0.5195h-0.6484v-5.402" fill="#231f1f"/>
<path d="m190.2 87.3h0.6758v3.672h-0.6758zm0.7188-0.8203h-0.7617v-0.7656h0.7617v0.7656" fill="#231f1f"/>
<path d="m192.1 87.3h0.6523v0.582h0.01562c0.1992-0.418 0.6875-0.668 1.199-0.668 0.9492 0 1.375 0.5898 1.375 1.578v2.18h-0.6758v-1.902c0-0.8555-0.1875-1.273-0.7773-1.309-0.7695 0-1.113 0.6172-1.113 1.512v1.699h-0.6758v-3.672" fill="#231f1f"/>
<path d="m199.3 90.38h0.5391c0.6445 0 1.227-0.1367 1.227-0.8125 0-0.7773-0.6797-0.8867-1.301-0.8867h-0.4648zm0-2.289h0.3945c0.6953 0 1.285-0.06641 1.285-0.8086 0-0.5977-0.5078-0.75-0.9258-0.75h-0.7539zm-0.7188-2.148h1.359c1.039 0 1.758 0.3398 1.758 1.27 0 0.6914-0.4023 1.035-1.035 1.195v0.01562c0.6836 0.05469 1.164 0.5039 1.164 1.207 0 1.082-0.8906 1.34-1.91 1.34h-1.336v-5.027" fill="#231f1f"/>
<path transform="matrix(.1 0 0 -.1 0 130.9)" d="m1874 512.8v252h-453.6" fill="none" stroke="#231f1f" stroke-width="5"/>
<path d="m139.3 54.43c1.277-0.4727 2.863-1.281 3.848-2.141l-0.7773 2.141 0.7773 2.141c-0.9844-0.8555-2.57-1.668-3.848-2.141" fill="#231f1f"/>
<path transform="matrix(.1 0 0 -.1 0 130.9)" d="m2.109 769.3h283.9" fill="none" stroke="#231f1f" stroke-width="5"/>
<path d="m31.32 53.98c-1.277 0.4727-2.863 1.281-3.848 2.141l0.7734-2.141-0.7734-2.141c0.9844 0.8555 2.57 1.668 3.848 2.141" fill="#231f1f"/>
<path transform="matrix(.1 0 0 -.1 0 130.9)" d="m2.5 87.58h85.98" fill="none" stroke="#231f1f" stroke-width="5"/>
<path d="m104.5 86.84c-0.3516-0.2305-0.7305-0.3477-1.379-0.3477-1.156 0-1.926 0.8438-1.926 1.969 0 1.18 0.8477 1.965 1.891 1.965 0.4961 0 0.625-0.05078 0.8047-0.08594v-1.527h-1.059v-0.5898h1.777v2.613c-0.2734 0.09375-0.75 0.2227-1.531 0.2227-1.59 0-2.645-1.02-2.645-2.621 0-1.547 1.121-2.578 2.652-2.578 0.7305 0 1.055 0.1094 1.473 0.2539l-0.05859 0.7266" fill="#231f1f"/>
<path d="m105.8 87.3h0.6328v0.5703h0.01172c0.1797-0.3828 0.5703-0.6562 0.957-0.6562 0.1992 0 0.3008 0.01953 0.4453 0.05078v0.6055c-0.1211-0.05078-0.2578-0.06641-0.375-0.06641-0.6016 0-0.9961 0.5742-0.9961 1.5v1.668h-0.6758v-3.672" fill="#231f1f"/>
<path d="m110.7 89.22c-0.1406 0-0.2852-0.01562-0.4297-0.01562-0.3672 0-1.273 0.05859-1.273 0.707 0 0.3906 0.375 0.5977 0.6836 0.5977 0.668 0 1.02-0.418 1.02-0.9648zm-2.004-1.664c0.3359-0.1992 0.7383-0.3438 1.207-0.3438 1.051 0 1.473 0.5195 1.473 1.52v1.52c0 0.418 0.01562 0.6133 0.03125 0.7188h-0.6328v-0.4727h-0.01562c-0.1602 0.2227-0.5195 0.5586-1.137 0.5586-0.7891 0-1.344-0.3438-1.344-1.145 0-0.9219 1.008-1.211 1.703-1.211 0.2656 0 0.4531 0 0.7188 0.01562 0-0.6328-0.2305-0.957-0.9023-0.957-0.3828 0-0.793 0.1445-1.066 0.375l-0.03516-0.5781" fill="#231f1f"/>
<path d="m112.6 87.3h0.6562v0.582h0.01172c0.2031-0.418 0.6914-0.668 1.203-0.668 0.9492 0 1.371 0.5898 1.371 1.578v2.18h-0.6758v-1.902c0-0.8555-0.1875-1.273-0.7773-1.309-0.7656 0-1.113 0.6172-1.113 1.512v1.699h-0.6758v-3.672" fill="#231f1f"/>
<path d="m120.2 90.97h-0.6523v-0.582h-0.01562c-0.2031 0.418-0.6914 0.668-1.199 0.668-0.9492 0-1.375-0.5898-1.375-1.574v-2.184h0.6758v1.902c0 0.8555 0.1875 1.273 0.7773 1.309 0.7695 0 1.113-0.6172 1.113-1.512v-1.699h0.6758v3.672" fill="#231f1f"/>
<path d="m121.4 85.57h0.6758v5.402h-0.6758v-5.402" fill="#231f1f"/>
<path d="m125 90.51c0.7891 0 1.141-0.7188 1.141-1.375 0-0.6992-0.4258-1.375-1.141-1.375-0.7266 0-1.152 0.6758-1.152 1.375 0 0.6562 0.3516 1.375 1.152 1.375zm0-3.297c1.113 0 1.859 0.8047 1.859 1.922 0 1.051-0.7617 1.922-1.859 1.922-1.109 0-1.871-0.8711-1.871-1.922 0-1.117 0.7461-1.922 1.871-1.922" fill="#231f1f"/>
<path d="m127.5 90.25c0.2656 0.1719 0.6445 0.2578 0.8398 0.2578 0.3086 0 0.6914-0.1289 0.6914-0.5234 0-0.6719-1.59-0.6133-1.59-1.645 0-0.7617 0.5664-1.129 1.293-1.129 0.3164 0 0.5742 0.0625 0.8398 0.1445l-0.05469 0.5898c-0.1523-0.09375-0.5547-0.1875-0.7148-0.1875-0.3438 0-0.6445 0.1445-0.6445 0.4453 0 0.75 1.59 0.5352 1.59 1.707 0 0.7852-0.6289 1.145-1.281 1.145-0.3438 0-0.6992-0.03516-1.008-0.1992l0.03906-0.6055" fill="#231f1f"/>
<path d="m132.7 89.22c-0.1445 0-0.2852-0.01562-0.4336-0.01562-0.3633 0-1.27 0.05859-1.27 0.707 0 0.3906 0.375 0.5977 0.6836 0.5977 0.668 0 1.02-0.418 1.02-0.9648zm-2.004-1.664c0.3359-0.1992 0.7383-0.3438 1.207-0.3438 1.047 0 1.473 0.5195 1.473 1.52v1.52c0 0.418 0.01562 0.6133 0.02734 0.7188h-0.6328v-0.4727h-0.01172c-0.1602 0.2227-0.5195 0.5586-1.137 0.5586-0.7891 0-1.344-0.3438-1.344-1.145 0-0.9219 1.008-1.211 1.703-1.211 0.2656 0 0.4531 0 0.7188 0.01562 0-0.6328-0.2305-0.957-0.9062-0.957-0.3789 0-0.7891 0.1445-1.062 0.375l-0.03516-0.5781" fill="#231f1f"/>
<path d="m138.9 87.91c-0.2578-0.1055-0.5156-0.1562-0.7344-0.1562-0.7539 0-1.176 0.6758-1.176 1.375 0 0.6562 0.3516 1.375 1.219 1.375 0.2305 0 0.5195-0.07031 0.7266-0.207l0.05078 0.6055c-0.2812 0.1289-0.6016 0.1484-0.8477 0.1484-1.105 0-1.867-0.8711-1.867-1.922 0-1.117 0.7461-1.922 1.867-1.922 0.2734 0 0.625 0.0625 0.8203 0.1445l-0.05859 0.5586" fill="#231f1f"/>
<path d="m142.1 88.78c0-0.5625-0.3281-1.023-0.9102-1.023-0.6602 0-0.9336 0.5469-0.9844 1.023zm0.4414 2.035c-0.2617 0.09375-0.5547 0.2383-1.16 0.2383-1.301 0-1.895-0.7891-1.895-1.988 0-1.086 0.6836-1.855 1.715-1.855 1.223 0 1.617 0.8906 1.617 2.074h-2.613c0 0.7266 0.5664 1.223 1.207 1.223 0.4453 0 0.9609-0.2305 1.129-0.3672v0.6758" fill="#231f1f"/>
<path d="m143.8 85.57h0.6758v5.402h-0.6758v-5.402" fill="#231f1f"/>
<path d="m145.8 85.57h0.6758v5.402h-0.6758v-5.402" fill="#231f1f"/>
<path d="m147.5 90.25c0.2656 0.1719 0.6484 0.2578 0.8398 0.2578 0.3086 0 0.6914-0.1289 0.6914-0.5234 0-0.6719-1.59-0.6133-1.59-1.645 0-0.7617 0.5703-1.129 1.293-1.129 0.3164 0 0.5742 0.0625 0.8438 0.1445l-0.05859 0.5898c-0.1523-0.09375-0.5547-0.1875-0.7109-0.1875-0.3438 0-0.6484 0.1445-0.6484 0.4453 0 0.75 1.59 0.5352 1.59 1.707 0 0.7852-0.625 1.145-1.281 1.145-0.3438 0-0.6953-0.03516-1.004-0.1992l0.03516-0.6055" fill="#231f1f"/>
<path d="m29.46 86.58h-1.562v-0.6367h3.84v0.6367h-1.559v4.391h-0.7188v-4.391" fill="#231f1f"/>
<path d="m32.39 85.57h0.6758v2.254h0.01562c0.2422-0.3867 0.668-0.6094 1.176-0.6094 0.9492 0 1.375 0.5898 1.375 1.578v2.18h-0.6758v-1.902c0-0.8555-0.1875-1.273-0.7773-1.309-0.7695 0-1.113 0.6172-1.113 1.512v1.699h-0.6758v-5.402" fill="#231f1f"/>
<path d="m39.16 88.78c0-0.5625-0.332-1.023-0.9141-1.023-0.6602 0-0.9336 0.5469-0.9844 1.023zm0.4375 2.035c-0.2578 0.09375-0.5547 0.2383-1.156 0.2383-1.301 0-1.898-0.7891-1.898-1.988 0-1.086 0.6836-1.855 1.719-1.855 1.223 0 1.617 0.8906 1.617 2.074h-2.617c0 0.7266 0.5703 1.223 1.207 1.223 0.4453 0 0.9648-0.2305 1.129-0.3672v0.6758" fill="#231f1f"/>
<path d="m43.11 87.91c-0.2578-0.1055-0.5156-0.1562-0.7305-0.1562-0.7578 0-1.18 0.6758-1.18 1.375 0 0.6562 0.3516 1.375 1.223 1.375 0.2305 0 0.5156-0.07031 0.7266-0.207l0.05078 0.6055c-0.2812 0.1289-0.6055 0.1484-0.8516 0.1484-1.105 0-1.867-0.8711-1.867-1.922 0-1.117 0.7461-1.922 1.867-1.922 0.2734 0 0.625 0.0625 0.8203 0.1445l-0.05859 0.5586" fill="#231f1f"/>
<path d="m46.15 89.22c-0.1445 0-0.2891-0.01562-0.4297-0.01562-0.3672 0-1.273 0.05859-1.273 0.707 0 0.3906 0.375 0.5977 0.6836 0.5977 0.668 0 1.02-0.418 1.02-0.9648zm-2.004-1.664c0.3359-0.1992 0.7383-0.3438 1.207-0.3438 1.051 0 1.473 0.5195 1.473 1.52v1.52c0 0.418 0.01562 0.6133 0.02734 0.7188h-0.6328v-0.4727h-0.01172c-0.1602 0.2227-0.5195 0.5586-1.137 0.5586-0.7891 0-1.344-0.3438-1.344-1.145 0-0.9219 1.008-1.211 1.703-1.211 0.2656 0 0.4531 0 0.7188 0.01562 0-0.6328-0.2305-0.957-0.9062-0.957-0.3789 0-0.7891 0.1445-1.062 0.375l-0.03516-0.5781" fill="#231f1f"/>
<path d="m52.3 87.91c-0.2578-0.1055-0.5156-0.1562-0.7344-0.1562-0.7539 0-1.176 0.6758-1.176 1.375 0 0.6562 0.3516 1.375 1.219 1.375 0.2305 0 0.5195-0.07031 0.7266-0.207l0.05078 0.6055c-0.2812 0.1289-0.6016 0.1484-0.8477 0.1484-1.105 0-1.867-0.8711-1.867-1.922 0-1.117 0.7461-1.922 1.867-1.922 0.2734 0 0.625 0.0625 0.8203 0.1445l-0.05859 0.5586" fill="#231f1f"/>
<path d="m55.54 88.78c0-0.5625-0.3281-1.023-0.9102-1.023-0.6602 0-0.9336 0.5469-0.9844 1.023zm0.4414 2.035c-0.2617 0.09375-0.5547 0.2383-1.156 0.2383-1.301 0-1.898-0.7891-1.898-1.988 0-1.086 0.6797-1.855 1.719-1.855 1.219 0 1.613 0.8906 1.613 2.074h-2.613c0 0.7266 0.5664 1.223 1.207 1.223 0.4453 0 0.9609-0.2305 1.129-0.3672v0.6758" fill="#231f1f"/>
<path d="m57.24 85.57h0.6758v5.402h-0.6758v-5.402" fill="#231f1f"/>
<path d="m59.26 85.57h0.6719v5.402h-0.6719v-5.402" fill="#231f1f"/>
<path d="m60.91 90.25c0.2656 0.1719 0.6484 0.2578 0.8398 0.2578 0.3086 0 0.6914-0.1289 0.6914-0.5234 0-0.6719-1.59-0.6133-1.59-1.645 0-0.7617 0.5703-1.129 1.297-1.129 0.3125 0 0.5742 0.0625 0.8398 0.1445l-0.05859 0.5898c-0.1523-0.09375-0.5547-0.1875-0.7109-0.1875-0.3477 0-0.6484 0.1445-0.6484 0.4453 0 0.75 1.59 0.5352 1.59 1.707 0 0.7852-0.625 1.145-1.281 1.145-0.3438 0-0.6953-0.03516-1.004-0.1992l0.03516-0.6055" fill="#231f1f"/>
<path d="m19.02 120.6-0.9961 2.492h1.996zm-0.3516-0.6797h0.7539l2.121 5.027h-0.7812l-0.5117-1.266h-2.457l-0.5117 1.266h-0.7539l2.141-5.027" fill="#231f1f"/>
<path d="m22.21 121.3h0.6523v0.582h0.01562c0.2031-0.418 0.6914-0.668 1.203-0.668 0.9453 0 1.371 0.5898 1.371 1.578v2.18h-0.6758v-1.898c0-0.8594-0.1875-1.277-0.7773-1.312-0.7695 0-1.113 0.6211-1.113 1.512v1.699h-0.6758v-3.672" fill="#231f1f"/>
<path d="m28.09 124.5c0.7617 0 1.078-0.7539 1.078-1.367 0-0.6836-0.3516-1.383-1.086-1.383-0.7344 0-1.02 0.6914-1.008 1.363-0.01172 0.5742 0.2891 1.387 1.016 1.387zm1.105-0.05469h-0.01562c-0.1797 0.2734-0.5938 0.6016-1.25 0.6016-1.105 0-1.574-0.9844-1.574-1.984 0-0.9883 0.5195-1.859 1.582-1.859 0.6406 0 1.008 0.25 1.215 0.5898h0.01562v-2.23h0.6758v5.398h-0.6484v-0.5156" fill="#231f1f"/>
<path d="m31 121.3h0.6328v0.5703h0.01172c0.1797-0.3828 0.5703-0.6562 0.957-0.6562 0.1992 0 0.3008 0.01953 0.4453 0.05078v0.6055c-0.1211-0.05078-0.2578-0.06641-0.375-0.06641-0.6016 0-0.9961 0.5781-0.9961 1.5v1.668h-0.6758v-3.672" fill="#231f1f"/>
<path d="m35.42 124.5c0.7891 0 1.141-0.7188 1.141-1.375 0-0.6992-0.4219-1.375-1.141-1.375-0.7266 0-1.152 0.6758-1.152 1.375 0 0.6562 0.3516 1.375 1.152 1.375zm0-3.297c1.113 0 1.859 0.8047 1.859 1.922 0 1.051-0.7617 1.922-1.859 1.922-1.109 0-1.871-0.8711-1.871-1.922 0-1.117 0.75-1.922 1.871-1.922" fill="#231f1f"/>
<path d="m37.92 124.3c0.2656 0.1719 0.6445 0.2578 0.8398 0.2578 0.3086 0 0.6914-0.1289 0.6914-0.5234 0-0.6719-1.59-0.6133-1.59-1.645 0-0.7617 0.5664-1.129 1.293-1.129 0.3164 0 0.5742 0.06641 0.8398 0.1445l-0.05469 0.5898c-0.1523-0.09375-0.5547-0.1875-0.7148-0.1875-0.3438 0-0.6445 0.1445-0.6445 0.4453 0 0.75 1.586 0.5352 1.586 1.707 0 0.7852-0.625 1.145-1.277 1.145-0.3438 0-0.6953-0.03516-1.004-0.1992l0.03516-0.6055" fill="#231f1f"/>
<path d="m42.93 121.9h-0.9688v2.012c0 0.4219 0.2578 0.6523 0.5664 0.6523 0.2109 0 0.3594-0.0625 0.4609-0.1289v0.5781c-0.1523 0.04297-0.3594 0.09766-0.5742 0.09766-0.6992 0-1.129-0.3281-1.129-1.062v-2.148h-0.8281v-0.5469h0.8281v-0.8477l0.6758-0.2188v1.066h0.9688v0.5469" fill="#231f1f"/>
<path d="m46.16 122.8c0-0.5625-0.332-1.023-0.9141-1.023-0.6602 0-0.9336 0.5469-0.9844 1.023zm0.4375 2.039c-0.2578 0.09375-0.5547 0.2344-1.156 0.2344-1.301 0-1.898-0.7891-1.898-1.984 0-1.09 0.6836-1.859 1.719-1.859 1.223 0 1.617 0.8945 1.617 2.074h-2.617c0 0.7266 0.5703 1.223 1.207 1.223 0.4453 0 0.9648-0.2305 1.129-0.3672v0.6797" fill="#231f1f"/>
<path d="m47.78 121.3h0.6562v0.582h0.01562c0.1992-0.418 0.6875-0.668 1.199-0.668 0.9453 0 1.371 0.5898 1.371 1.578v2.18h-0.6758v-1.898c0-0.8594-0.1875-1.277-0.7734-1.312-0.7695 0-1.117 0.6211-1.117 1.512v1.699h-0.6758v-3.672" fill="#231f1f"/>
<path d="m54.55 122.8c0-0.5625-0.3281-1.023-0.9102-1.023-0.6641 0-0.9336 0.5469-0.9844 1.023zm0.4375 2.039c-0.2578 0.09375-0.5508 0.2344-1.156 0.2344-1.301 0-1.895-0.7891-1.895-1.984 0-1.09 0.6797-1.859 1.715-1.859 1.223 0 1.617 0.8945 1.617 2.074h-2.613c0 0.7266 0.5664 1.223 1.207 1.223 0.4453 0 0.9609-0.2305 1.125-0.3672v0.6797" fill="#231f1f"/>
<path d="m57.66 124.5c0.7656 0 1.078-0.7539 1.078-1.367 0-0.6836-0.3516-1.383-1.082-1.383-0.7344 0-1.02 0.6914-1.008 1.363-0.01172 0.5742 0.2891 1.387 1.012 1.387zm1.109-0.05469h-0.01562c-0.1797 0.2734-0.5977 0.6016-1.25 0.6016-1.105 0-1.574-0.9844-1.574-1.984 0-0.9883 0.5195-1.859 1.582-1.859 0.6406 0 1.008 0.25 1.215 0.5898h0.01172v-2.23h0.6758v5.398h-0.6445v-0.5156" fill="#231f1f"/>
<path d="m60.66 121.3h0.6758v3.672h-0.6758zm0.7148-0.8203h-0.7617v-0.7656h0.7617v0.7656" fill="#231f1f"/>
<path d="m64.19 124.5c0.7891 0 1.145-0.7188 1.145-1.375 0-0.6992-0.4258-1.375-1.145-1.375-0.7266 0-1.148 0.6758-1.148 1.375 0 0.6562 0.3516 1.375 1.148 1.375zm0-3.297c1.113 0 1.863 0.8047 1.863 1.922 0 1.051-0.7617 1.922-1.863 1.922-1.105 0-1.867-0.8711-1.867-1.922 0-1.117 0.7461-1.922 1.867-1.922" fill="#231f1f"/>
<path d="m66.96 121.3h0.6523v0.582h0.01562c0.2031-0.418 0.6914-0.668 1.199-0.668 0.9492 0 1.375 0.5898 1.375 1.578v2.18h-0.6758v-1.898c0-0.8594-0.1875-1.277-0.7773-1.312-0.7695 0-1.113 0.6211-1.113 1.512v1.699h-0.6758v-3.672" fill="#231f1f"/>
<path d="m73.73 122.8c0-0.5625-0.332-1.023-0.9141-1.023-0.6602 0-0.9336 0.5469-0.9844 1.023zm0.4375 2.039c-0.2578 0.09375-0.5547 0.2344-1.156 0.2344-1.301 0-1.898-0.7891-1.898-1.984 0-1.09 0.6836-1.859 1.719-1.859 1.223 0 1.617 0.8945 1.617 2.074h-2.617c0 0.7266 0.5703 1.223 1.207 1.223 0.4453 0 0.9648-0.2305 1.129-0.3672v0.6797" fill="#231f1f"/>
<path d="m111.1 120h2.812v0.6367h-2.094v1.469h1.906v0.6328h-1.906v1.656h2.094v0.6328h-2.812v-5.027" fill="#231f1f"/>
<path d="m114.7 124.3c0.2695 0.1719 0.6484 0.2578 0.8438 0.2578 0.3086 0 0.6875-0.1289 0.6875-0.5234 0-0.6719-1.586-0.6133-1.586-1.645 0-0.7617 0.5664-1.129 1.293-1.129 0.3164 0 0.5742 0.06641 0.8398 0.1445l-0.05859 0.5898c-0.1484-0.09375-0.5508-0.1875-0.7109-0.1875-0.3438 0-0.6445 0.1445-0.6445 0.4453 0 0.75 1.586 0.5352 1.586 1.707 0 0.7852-0.625 1.145-1.277 1.145-0.3477 0-0.6992-0.03516-1.008-0.1992l0.03516-0.6055" fill="#231f1f"/>
<path d="m119.7 121.9h-0.9688v2.012c0 0.4219 0.2578 0.6523 0.5664 0.6523 0.2109 0 0.3594-0.0625 0.4609-0.1289v0.5781c-0.1523 0.04297-0.3594 0.09766-0.5742 0.09766-0.6992 0-1.129-0.3281-1.129-1.062v-2.148h-0.8281v-0.5469h0.8281v-0.8477l0.6758-0.2188v1.066h0.9688v0.5469" fill="#231f1f"/>
<path d="m120.6 121.3h0.6328v0.5703h0.01562c0.1797-0.3828 0.5664-0.6562 0.957-0.6562 0.1992 0 0.3008 0.01953 0.4453 0.05078v0.6055c-0.125-0.05078-0.2617-0.06641-0.375-0.06641-0.6016 0-1 0.5781-1 1.5v1.668h-0.6758v-3.672" fill="#231f1f"/>
<path d="m125.6 123.2c-0.1445 0-0.2891-0.01172-0.4336-0.01172-0.3633 0-1.27 0.05469-1.27 0.7031 0 0.3906 0.3711 0.5977 0.6797 0.5977 0.6719 0 1.023-0.418 1.023-0.9648zm-2.004-1.664c0.3359-0.1992 0.7383-0.3438 1.207-0.3438 1.047 0 1.473 0.5195 1.473 1.52v1.52c0 0.418 0.01172 0.6133 0.02734 0.7188h-0.6328v-0.4727h-0.01562c-0.1562 0.2227-0.5156 0.5586-1.133 0.5586-0.793 0-1.344-0.3438-1.344-1.145 0-0.9219 1.004-1.207 1.703-1.207 0.2656 0 0.4531 0 0.7188 0.01172 0-0.6328-0.2305-0.957-0.9062-0.957-0.3789 0-0.7891 0.1445-1.062 0.375l-0.03516-0.5781" fill="#231f1f"/>
<path d="m128.9 124.5c0.7617 0 1.078-0.7539 1.078-1.367 0-0.6836-0.3516-1.383-1.086-1.383s-1.02 0.6914-1.004 1.363c-0.01562 0.5742 0.2852 1.387 1.012 1.387zm1.105-0.05469h-0.01562c-0.1758 0.2734-0.5938 0.6016-1.25 0.6016-1.105 0-1.574-0.9844-1.574-1.984 0-0.9883 0.5195-1.859 1.582-1.859 0.6406 0 1.008 0.25 1.215 0.5898h0.01563v-2.23h0.6758v5.398h-0.6484v-0.5156" fill="#231f1f"/>
<path d="m131.8 121.3h0.6758v3.672h-0.6758zm0.7188-0.8203h-0.7617v-0.7656h0.7617v0.7656" fill="#231f1f"/>
<path d="m135.4 124.5c0.793 0 1.145-0.7188 1.145-1.375 0-0.6992-0.4258-1.375-1.145-1.375-0.7266 0-1.148 0.6758-1.148 1.375 0 0.6562 0.3516 1.375 1.148 1.375zm0-3.297c1.113 0 1.863 0.8047 1.863 1.922 0 1.051-0.7617 1.922-1.863 1.922-1.105 0-1.867-0.8711-1.867-1.922 0-1.117 0.7461-1.922 1.867-1.922" fill="#231f1f"/>
<path d="m138.2 119.6h0.6758v5.398h-0.6758v-5.398" fill="#231f1f"/>
<path d="m190.1 124.4c1.195 0 1.707-0.9648 1.707-1.965 0-1.023-0.5664-1.973-1.707-1.965-1.141-0.007813-1.703 0.9414-1.703 1.965 0 1 0.5117 1.965 1.703 1.965zm0-4.566c1.574 0 2.492 1.109 2.492 2.602 0 1.527-0.9102 2.602-2.492 2.602-1.578 0-2.492-1.074-2.492-2.602 0-1.492 0.9219-2.602 2.492-2.602" fill="#231f1f"/>
<path d="m195.3 125h-0.832l-1.355-3.676h0.7656l1.023 2.996h0.01172l1.047-2.996h0.6953l-1.355 3.676" fill="#231f1f"/>
<path d="m200.7 125h-0.6758v-0.5859h-0.01562c-0.207 0.418-0.7109 0.6719-1.238 0.6719-0.9766 0-1.414-0.5898-1.414-1.578v-2.184h0.6953v1.902c0 0.8555 0.1914 1.273 0.8008 1.312 0.793 0 1.148-0.6211 1.148-1.516v-1.699h0.6992v3.676" fill="#231f1f"/>
<path d="m202 119.6h0.6953v5.402h-0.6953v-5.402" fill="#231f1f"/>
<path d="m206.2 123.2c-0.1484 0-0.2969-0.01563-0.4453-0.01563-0.3789 0-1.312 0.05859-1.312 0.707 0 0.3867 0.3867 0.5977 0.7031 0.5977 0.6914 0 1.055-0.418 1.055-0.9648zm-2.07-1.664c0.3516-0.2031 0.7656-0.3477 1.246-0.3477 1.082 0 1.52 0.5195 1.52 1.52v1.52c0 0.418 0.01562 0.6133 0.03125 0.7227h-0.6523v-0.4766h-0.01562c-0.1641 0.2227-0.5312 0.5625-1.172 0.5625-0.8164 0-1.387-0.3477-1.387-1.145 0-0.9219 1.039-1.211 1.758-1.211 0.2734 0 0.4688 0 0.7422 0.01172 0-0.6328-0.2383-0.957-0.9336-0.957-0.3945 0-0.8164 0.1445-1.098 0.375l-0.03906-0.5742" fill="#231f1f"/>
<path d="m210.1 121.9h-1v2.012c0 0.4258 0.2656 0.6562 0.5859 0.6562 0.2148 0 0.3711-0.06641 0.4727-0.1328v0.5781c-0.1562 0.04297-0.3711 0.1016-0.5938 0.1016-0.7188 0-1.164-0.332-1.164-1.066v-2.148h-0.8516v-0.5469h0.8516v-0.8477l0.6992-0.2188v1.066h1v0.5469" fill="#231f1f"/>
<path d="m211 121.3h0.6992v3.676h-0.6992zm0.7422-0.8203h-0.7852v-0.7617h0.7852v0.7617" fill="#231f1f"/>
<path d="m214.7 124.5c0.8164 0 1.18-0.7227 1.18-1.379 0-0.6953-0.4375-1.375-1.18-1.375-0.7461 0-1.184 0.6797-1.184 1.375 0 0.6562 0.3633 1.379 1.184 1.379zm0-3.301c1.152 0 1.922 0.8086 1.922 1.922 0 1.055-0.7852 1.926-1.922 1.926-1.141 0-1.926-0.8711-1.926-1.926 0-1.113 0.7695-1.922 1.926-1.922" fill="#231f1f"/>
<path d="m217.5 121.3h0.6719v0.5859h0.01562c0.207-0.418 0.7109-0.6719 1.238-0.6719 0.9805 0 1.418 0.5898 1.418 1.578v2.184h-0.6992v-1.902c0-0.8594-0.1914-1.277-0.8008-1.312-0.793 0-1.148 0.6211-1.148 1.512v1.703h-0.6953v-3.676" fill="#231f1f"/>
<path transform="matrix(.1 0 0 -.1 0 130.9)" d="m1590 88.9h170" fill="none" stroke="#231f1f" stroke-width="5"/>
<path d="m178.7 122c-1.277 0.4727-2.867 1.285-3.848 2.141l0.7734-2.141-0.7734-2.141c0.9805 0.8594 2.57 1.668 3.848 2.141" fill="#231f1f"/>
<path transform="matrix(.1 0 0 -.1 0 130.9)" d="m1533 342.7 226.8-170.1" fill="none" stroke="#231f1f" stroke-width="5"/>
<path d="m178.2 115.3c-1.305-0.3867-3.059-0.6914-4.359-0.5938l1.902-1.246 0.6641-2.176c0.2734 1.273 1.055 2.871 1.793 4.016" fill="#231f1f"/>
<path d="m35.36 2.602h2.777v0.8242h-2.777v-0.8242" fill="#231f1f"/>
<path transform="matrix(.1 0 0 -.1 0 130.9)" d="m397.1 1278c0-15.66-12.7-28.36-28.36-28.36-15.66 0-28.36 12.7-28.36 28.36 0 15.66 12.7 28.36 28.36 28.36 15.66 0 28.36-12.7 28.36-28.36z" fill="none" stroke="#231f1f" stroke-width="5"/>
<path d="m18.35 47.96h2.777v0.8203h-2.777v-0.8203" fill="#231f1f"/>
<path transform="matrix(.1 0 0 -.1 0 130.9)" d="m227 824.6c0-15.66-12.7-28.36-28.36-28.36-15.62 0-28.32 12.7-28.32 28.36 0 15.66 12.7 28.36 28.32 28.36 15.66 0 28.36-12.7 28.36-28.36z" fill="none" stroke="#231f1f" stroke-width="5"/>
<path d="m160.1 47.96h2.777v0.8203h-2.777v-0.8203" fill="#231f1f"/>
<path transform="matrix(.1 0 0 -.1 0 130.9)" d="m1645 824.6c0-15.66-12.7-28.36-28.36-28.36-15.62 0-28.32 12.7-28.32 28.36 0 15.66 12.7 28.36 28.32 28.36 15.66 0 28.36-12.7 28.36-28.36z" fill="none" stroke="#231f1f" stroke-width="5"/>
<path d="m11.08 122.2c-1.277 0.4766-2.863 1.285-3.848 2.141l0.7734-2.141-0.7734-2.137c0.9844 0.8555 2.57 1.664 3.848 2.137" fill="#231f1f"/>
</svg>
