<?xml version="1.0" encoding="UTF-8"?>
<svg width="465.6pt" height="212.7pt" version="1.1" viewBox="0 0 465.6 212.7" xmlns="http://www.w3.org/2000/svg">
<defs>
<clipPath id="c">
<path d="m98 124h100v88.67h-100z"/>
</clipPath>
<clipPath id="b">
<path d="m262 124h104v88.67h-104z"/>
</clipPath>
<clipPath id="a">
<path d="m262 20h203.6v180h-203.6z"/>
</clipPath>
</defs>
<path transform="matrix(.1 0 0 -.1 0 212.7)" d="m1939 1847s-496.4-35.16-1094-459.1l-127.4-90.08s-144.3-99.3-72.5-175.7c0 0 90.59-39.53 191.4 78.01" fill="none" stroke="#0f0e0c" stroke-width="5"/>
<path transform="matrix(.1 0 0 -.1 0 212.7)" d="m625.5 854.1s37.66-35.39 101.3 0c0 0 15.39 19.77 68.09 15.39 0 0 17.58-2.188 48.36 10.98 0 0 37.34 35.16 90.04 15.39 0 0 90.08-19.77 129.6 19.77 0 0 10.98 10.98 39.53 0 0 0 28.55-10.98 52.7 10.98 0 0 30.78 21.95 81.29 0 0 0 37.34-6.836 54.92 9.766 0 0 4.414 25.16 54.92 0 0 0 61.52-16.37 81.29-9.766 0 0 28.55 7.5 39.53-13.16l-142.8-11.72s-50.55-18.24-79.1-8.75c0 0-48.32-23.48-81.29-16.88l-43.91-2.227s-39.57-28.55-87.89-15.35c0 0-72.85 4.258-48.32-11.02 0 0-32.97-6.562-52.73 0 0 0-37.34 8.086-30.74-9.141 0 0-50.55-16.09-112-16.64 0 0-180.2 5.898-243.9-55.55" fill="none" stroke="#0f0e0c" stroke-width="5"/>
<path transform="matrix(.1 0 0 -.1 0 212.7)" d="m599.4 657.7s74.77 18.91 105.5 0c0 0 312.9-45.31 407.9 0 0 0-78.48-34.22-69.61-115.5 0 0-14.49-66.8 136.2-168.5 0 0-191.1 99.61-628.3 76.91 0 0 9.453 29.1-13.95 38.36l19.8 11.45s56.37-6.602 13.16 30.74c0 0-35.86 11.72-4.375 27.85 0 0 25.43 20.9-3.398 40.47 0 0-3.398 31.21 24.53 24.3z" fill="none" stroke="#0f0e0c" stroke-width="5"/>
<path transform="matrix(.1 0 0 -.1 0 212.7)" d="m549 479.4s488.5 25.74 506.1 6.445" fill="none" stroke="#0f0e0c" stroke-width="5"/>
<path transform="matrix(.1 0 0 -.1 0 212.7)" d="m802.1 486.2s288-41.95 343.7-85.43" fill="none" stroke="#0f0e0c" stroke-width="5"/>
<path transform="matrix(.1 0 0 -.1 0 212.7)" d="m589.7 519.9 358.3 9.805 21.99 21.95-394 27.89" fill="none" stroke="#0f0e0c" stroke-width="5"/>
<path transform="matrix(.1 0 0 -.1 0 212.7)" d="m1047 579.6-33.79-24.49-7.344-5.312h-8.359l-27.5 1.914-21.99-21.95 98.98-22.66-3.828 35.12-58.52 7.578" fill="none" stroke="#0f0e0c" stroke-width="5"/>
<path transform="matrix(.1 0 0 -.1 0 212.7)" d="m597.1 632.6 290.1-32.66s102.3-24.02 152.3-5.43l-42.03 15.51-59.73 6.055-79.49 25.59 196.8-19.73 27.66 10.66" fill="none" stroke="#0f0e0c" stroke-width="5"/>
<path transform="matrix(.1 0 0 -.1 0 212.7)" d="m2672 1847s536 65.16 1251-456.2c0 0 228.5-137.7 155.2-231.4 0 0-48.24-70.27-300.9 174.3" fill="none" stroke="#0f0e0c" stroke-width="5"/>
<path transform="matrix(.1 0 0 -.1 0 212.7)" d="m4013 717.9s4.414 87.89-68.09 116.4c0 0-54.92 52.73-54.92 109.8 0 0-19.77 39.53-68.09 52.73l-46.13 59.3s-61.52 72.5-193.3 43.95c0 0-79.1-32.97-103.3-54.92l-123-68.12-79.1-79.06s-116.4-76.33-41.72 14.3c0 0 4.414 45 41.72 47.23 0 0 39.57 24.14 48.36 48.32 0 0 2.695 41.72 70.31 35.16 0 0 4.375 6.562 24.14 35.16 0 0 8.789 30.9 70.31 28.63 0 0 61.48-2.305 85.66 30.66 0 0 13.2 23.01 61.52 12.62 0 0 66.72-12.58 98.83 0 0 0 41.76 4.961 48.36-34.57 0 0-0.4297-15.39 22.85-21.99 0 0 43.4-22.07 40.82-64.14 0 0 19.14-27.3 54.96-25.9 0 0 35.12-4.414 24.14-57.15 0 0 35.16-90.08 74.69-103.2" fill="none" stroke="#0f0e0c" stroke-width="5"/>
<path transform="matrix(.1 0 0 -.1 0 212.7)" d="m3364 745.1s512.1-86.48 635.6-11.8c0 0-17.11-50.51-34.69-61.48 0 0-284.2-35.16-353-6.602l-59.57-21.68s34.96-30.9 151.1 10.55" fill="none" stroke="#0f0e0c" stroke-width="5"/>
<path transform="matrix(.1 0 0 -.1 0 212.7)" d="m3598 588.3 109.8 30.78h301.5" fill="none" stroke="#0f0e0c" stroke-width="5"/>
<path transform="matrix(.1 0 0 -.1 0 212.7)" d="m3975 588.3-214.1-13.16-123.6 24.06" fill="none" stroke="#0f0e0c" stroke-width="5"/>
<path transform="matrix(.1 0 0 -.1 0 212.7)" d="m3598 575.1 48.36-21.95 114.2 21.95" fill="none" stroke="#0f0e0c" stroke-width="5"/>
<path transform="matrix(.1 0 0 -.1 0 212.7)" d="m4017 553.1-243.6-15.39-92.03 22.19-35.39-6.797-48.63-4.297 53.01-11.09 74.69-19.77 48.36 19.77" fill="none" stroke="#0f0e0c" stroke-width="5"/>
<path transform="matrix(.1 0 0 -.1 0 212.7)" d="m3566 463s89.57 65.98 159.9 55" fill="none" stroke="#0f0e0c" stroke-width="5"/>
<path transform="matrix(.1 0 0 -.1 0 212.7)" d="m3521 419.4s123.5 71.17 220.1 71.68h76.37l28.91 11.48h163.2l-9.766 16.6-274.1-1.211" fill="none" stroke="#0f0e0c" stroke-width="5"/>
<path transform="matrix(.1 0 0 -.1 0 212.7)" d="m3624 661.4c2.188-0.625 90.66 44.18 90.66 44.18" fill="none" stroke="#0f0e0c" stroke-width="5"/>
<path transform="matrix(.1 0 0 -.1 0 212.7)" d="m0.4688 1031s251.9-23.44 664.9 269.5c0 0 436.4 415.9 1189 565.3h38.09l14.65 17.54h32.19v-134.7s-928.5-111.3-1289-817.2c0 0-31.64-71.25 10.2-73.52 2.266-0.1172 4.688-0.03906 7.383 0.2734 52.73 5.859 27.85 5.859 39.57 16.09 0 0 60.04 23.44 102.5 13.2l24.88 13.16s48.36 33.71 115.7 16.13c0 0 67.38-14.65 102.5 19.02 0 0 2.93 14.65 52.7 7.305 0 0 35.16-2.891 51.29 11.72 0 0 39.53 11.72 70.27 8.789 0 0 27.85-21.95 64.45 5.859 0 0 30.74 19.06 68.83-8.789 0 0 43.95-20.47 76.17-10.23 0 0 51.25 5.859 65.9-43.95 0 0 26.37-19.02-54.18-11.72l-38.09-4.375-41.02-5.859s-13.16-7.344-58.59-7.344c0 0-7.305-21.95-67.34-7.305 0 0-11.72-25.51-62.97-12.03 0 0-24.92-16.99-67.38-3.945 0 0-30.74-27.97-60.04-16.25 0 0-17.58-13.05-42.46-2.852 0 0-29.3-27.89-71.8-13.24 0 0 2.93-19.06-70.27-11.72 0 0-33.71-10.27-80.55-10.27h-42.5s-26.33-8.789-55.62-10.23c0 0-27.85-8.789-42.5-8.789l-42.46-10.27-24.88-17.54s20.51-13.2-4.414-42.5c0 0-38.09-27.81 11.72-42.46 0 0 16.13-1.484 11.72-21.95 0 0 2.93-23.44-23.44-23.44 0 0-33.67-14.65-2.93-30.78 0 0 24.92-20.51-7.305-32.19 0 0-38.09-14.65 4.375-27.85l17.58-7.305s16.13-21.99-30.74-23.44c0 0-38.09-7.305-8.789-23.44l2.93-26.37s-284.1-52.73-538.9-257.8" fill="none" stroke="#231f1f" stroke-width="10"/>
<g clip-path="url(#c)">
<path transform="matrix(.1 0 0 -.1 0 212.7)" d="m1922 797v21.95s-57.15 11.02-92.27-10.98l-70.31 1.367s-39.53-14.53-83.48-12.34c-43.95 2.188-10.98-0.2344-10.98-0.2344s-494.3-41.52-610.7-188.7c0 0-35.16-101.1 19.77-145 0 0 298.8-305.4 848-424v59.3" fill="none" stroke="#231f1f" stroke-width="10"/>
</g>
<g clip-path="url(#b)">
<path transform="matrix(.1 0 0 -.1 0 212.7)" d="m2684 72.01v-65.9c578.2 118.6 881.7 456.9 881.7 456.9 57.85 44.02 20.82 145 20.82 145-175.1 213.7-642.7 188.8-642.7 188.8s34.65 2.383-11.6 0.2344c-46.33-2.148-87.93 12.42-87.93 12.42l-73.95-1.406c-37.03 21.99-86.33 10.98-86.33 10.98v-21.99" fill="none" stroke="#0f0e0c" stroke-width="10"/>
</g>
<path transform="matrix(.1 0 0 -.1 0 212.7)" d="m1542 935.3h690.5" fill="none" stroke="#0f0e0c" stroke-width="10"/>
<path transform="matrix(.1 0 0 -.1 0 212.7)" d="m2436 935.3h729.3" fill="none" stroke="#0f0e0c" stroke-width="10"/>
<path transform="matrix(.1 0 0 -.1 0 212.7)" d="m887.2 1102 329.5 195.5h618.4" fill="none" stroke="#0f0e0c" stroke-width="10"/>
<path transform="matrix(.1 0 0 -.1 0 212.7)" d="m3833 1177-274.6 120.9h-762.3" fill="none" stroke="#0f0e0c" stroke-width="10"/>
<path transform="matrix(.1 0 0 -.1 0 212.7)" d="m1922 775.7v-45" fill="none" stroke="#0f0e0c" stroke-linecap="round" stroke-linejoin="round" stroke-width="7.5"/>
<path transform="matrix(.1 0 0 -.1 0 212.7)" d="m1922 674.9v-45" fill="none" stroke="#0f0e0c" stroke-linecap="round" stroke-linejoin="round" stroke-width="7.5"/>
<path transform="matrix(.1 0 0 -.1 0 212.7)" d="m1922 574v-45" fill="none" stroke="#0f0e0c" stroke-linecap="round" stroke-linejoin="round" stroke-width="7.5"/>
<path transform="matrix(.1 0 0 -.1 0 212.7)" d="m1922 473.1v-45" fill="none" stroke="#0f0e0c" stroke-linecap="round" stroke-linejoin="round" stroke-width="7.5"/>
<path transform="matrix(.1 0 0 -.1 0 212.7)" d="m1922 372.2v-45" fill="none" stroke="#0f0e0c" stroke-linecap="round" stroke-linejoin="round" stroke-width="7.5"/>
<path transform="matrix(.1 0 0 -.1 0 212.7)" d="m1922 271.3v-45" fill="none" stroke="#0f0e0c" stroke-linecap="round" stroke-linejoin="round" stroke-width="7.5"/>
<path transform="matrix(.1 0 0 -.1 0 212.7)" d="m1922 170.5v-45" fill="none" stroke="#0f0e0c" stroke-linecap="round" stroke-linejoin="round" stroke-width="7.5"/>
<path transform="matrix(.1 0 0 -.1 0 212.7)" d="m2684 766.2v-45" fill="none" stroke="#0f0e0c" stroke-linecap="round" stroke-linejoin="round" stroke-width="7.5"/>
<path transform="matrix(.1 0 0 -.1 0 212.7)" d="m2684 665.3v-45" fill="none" stroke="#0f0e0c" stroke-linecap="round" stroke-linejoin="round" stroke-width="7.5"/>
<path transform="matrix(.1 0 0 -.1 0 212.7)" d="m2684 564.4v-45" fill="none" stroke="#0f0e0c" stroke-linecap="round" stroke-linejoin="round" stroke-width="7.5"/>
<path transform="matrix(.1 0 0 -.1 0 212.7)" d="m2684 463.5v-45" fill="none" stroke="#0f0e0c" stroke-linecap="round" stroke-linejoin="round" stroke-width="7.5"/>
<path transform="matrix(.1 0 0 -.1 0 212.7)" d="m2684 362.6v-45" fill="none" stroke="#0f0e0c" stroke-linecap="round" stroke-linejoin="round" stroke-width="7.5"/>
<path transform="matrix(.1 0 0 -.1 0 212.7)" d="m2684 261.8v-45" fill="none" stroke="#0f0e0c" stroke-linecap="round" stroke-linejoin="round" stroke-width="7.5"/>
<path transform="matrix(.1 0 0 -.1 0 212.7)" d="m2684 160.9v-45" fill="none" stroke="#0f0e0c" stroke-linecap="round" stroke-linejoin="round" stroke-width="7.5"/>
<path transform="matrix(.1 0 0 -.1 0 212.7)" d="m2328 1455v-60" fill="none" stroke="#0f0e0c" stroke-linecap="round" stroke-linejoin="round" stroke-width="10"/>
<path transform="matrix(.1 0 0 -.1 0 212.7)" d="m2328 1358v-60" fill="none" stroke="#0f0e0c" stroke-linecap="round" stroke-linejoin="round" stroke-width="10"/>
<path transform="matrix(.1 0 0 -.1 0 212.7)" d="m2328 1260v-60" fill="none" stroke="#0f0e0c" stroke-linecap="round" stroke-linejoin="round" stroke-width="10"/>
<path transform="matrix(.1 0 0 -.1 0 212.7)" d="m1962 430.4h249.9" fill="none" stroke="#0f0e0c" stroke-width="10"/>
<path transform="matrix(.1 0 0 -.1 0 212.7)" d="m2417 430.4h228.5" fill="none" stroke="#0f0e0c" stroke-width="10"/>
<path transform="matrix(.1 0 0 -.1 0 212.7)" d="m2478 1808h197.1" fill="none" stroke="#0f0e0c" stroke-width="10"/>
<path transform="matrix(.1 0 0 -.1 0 212.7)" d="m1939 1808h225.5" fill="none" stroke="#0f0e0c" stroke-width="10"/>
<g clip-path="url(#a)">
<path transform="matrix(.1 0 0 -.1 0 212.7)" d="m4579 1086s-228.4-14.65-609.2 304.6c0 0-582.9 512.6-1298 492.1v-96.02s763.4-31.37 1136-489.1c0 0 152.9-123.8 202.7-431.3l-51.95 49.06-8.789 30.74-2.227 48.36-26.37 32.93s-50.51-13.16-57.11 48.32c0 0-22.38 32.97-56.21 39.57 0 0-11.88 61.48-86.56 52.7 0 0-54.92-4.375-85.66 13.2 0 0-50.55 13.16-94.49-28.55 0 0-32.93-17.58-70.31-10.98 0 0-59.3-4.414-79.06-59.34 0 0-10.98-26.37-68.09-30.74 0 0-37.38-13.2-39.57-43.95 0 0-10.98-37.34-54.92-48.32 0 0-17.58-19.77-21.95-43.95l-43.95-49.06s-10.98-45.39 48.32-27.81c0 0 41.76 19.77 61.52 32.93l76.88 54.92s197 162.1 305.4 155.2c3.789-0.2734 7.461-0.7031 11.02-1.367 105.4-19.77 72.5-32.97 107.7-70.31l63.67-52.73s37.34-37.34 37.34-63.67c0 0 11.02-55.86 50.55-71.88 0 0 118.6-62.15 39.53-150 0 0-30.74-28.59 41.76-21.99 0 0 35.12-17.58-15.39-41.72 0 0-50.55-26.37 21.95-30.78 0 0 26.37 2.188-2.188-35.16 0 0-39.53-54.88 46.13-43.91 0 0 391-67.85 595.4-322.9" fill="none" stroke="#0f0e0c" stroke-width="7.5"/>
</g>
<path transform="matrix(.1 0 0 -.1 0 212.7)" d="m576 1001s17.97 12.07 36.64 0c0 0 13.16-21.84-26.37-53.75 0 0-26.37-30.82-29.69-49.49 0 0-17.54-51.6-42.81-23.09 0 0-15.39 12.11 5.469 37.38 0 0 22.11 36.21 29.73 57.11 0 0 3.516 26.84 27.03 31.84z" fill="none" stroke="#0f0e0c" stroke-width="10"/>
<path transform="matrix(.1 0 0 -.1 0 212.7)" d="m4054 1022s37.34 18.63 53.83-32.97v-10.98s18.67-53.83 0-67.03c0 0-19.77-28.55-28.55 5.508 0 0-6.602 26.37-2.227 39.53 0 0-46.13 30.78-23.05 65.94z" fill="none" stroke="#0f0e0c" stroke-width="10"/>
<path transform="matrix(.1 0 0 -.1 0 212.7)" d="m617.8 1038s38.09-1.445 35.86-26.33" fill="none" stroke="#0f0e0c" stroke-width="5"/>
<path transform="matrix(.1 0 0 -.1 0 212.7)" d="m587 1044s-29.3-8.047-39.57-22.7" fill="none" stroke="#0f0e0c" stroke-width="5"/>
<path transform="matrix(.1 0 0 -.1 0 212.7)" d="m576 1025s-35.86-10.98-60.78-65.16l-12.42-23.05s-8.086-9.18-2.93-20.16" fill="none" stroke="#0f0e0c" stroke-width="5"/>
<path transform="matrix(.1 0 0 -.1 0 212.7)" d="m635.7 987.4s3.984-22.7-27.5-46.13c0 0-22.7-24.88-27.11-49.06 0 0-20.47-53.44-58.55-46.88" fill="none" stroke="#0f0e0c" stroke-width="5"/>
<path transform="matrix(.1 0 0 -.1 0 212.7)" d="m647.8 969.8s-9.102-25-38.79-53.44" fill="none" stroke="#0f0e0c" stroke-width="5"/>
<path transform="matrix(.1 0 0 -.1 0 212.7)" d="m597.1 888.5s0.8984-53.44-69.41-74.69c0 0-30-6.562-38.79 24.92" fill="none" stroke="#0f0e0c" stroke-width="5"/>
<path transform="matrix(.1 0 0 -.1 0 212.7)" d="m475 898s-8.789-10.98 0-28.55c0 0-5.117-13.91 0-17.58 5.156-3.672-3.906 0-3.906 0" fill="none" stroke="#0f0e0c" stroke-width="5"/>
<path transform="matrix(.1 0 0 -.1 0 212.7)" d="m4030 1029v-8.359l-7.656-14.26s-4.18-36.41 31.84-71.45l-6.484-24.14s-4.844-37.34 34.3-39.53" fill="none" stroke="#0f0e0c" stroke-width="5"/>
<path transform="matrix(.1 0 0 -.1 0 212.7)" d="m4136 974.9s-10 57.97-59.34 76.91c0 0-10.98 33.59 45.04-13.2 0 0 28.55-34.26 28.55-75.9" fill="none" stroke="#0f0e0c" stroke-width="5"/>
<path transform="matrix(.1 0 0 -.1 0 212.7)" d="m4159 950.5s5.508-37.11-8.789-45.9l-12.07-14.3s-17.93-39.53-46.29-38.44" fill="none" stroke="#0f0e0c" stroke-width="5"/>
<path transform="matrix(.1 0 0 -.1 0 212.7)" d="m4076 851.9s-28.79 1.133-35.39 26.41" fill="none" stroke="#0f0e0c" stroke-width="5"/>
<path transform="matrix(.1 0 0 -.1 0 212.7)" d="m4029 901.2s0 14.41 6.602 25.39c0 0-49.41 64.8-31.88 98.87l9.961 13.16" fill="none" stroke="#0f0e0c" stroke-width="5"/>
<path transform="matrix(.1 0 0 -.1 0 212.7)" d="m4212 1366h-120.2v-396.1" fill="none" stroke="#0f0e0c" stroke-width="10"/>
<path transform="matrix(.1 0 0 -.1 0 212.7)" d="m4147 1523h-130.7v-470.8" fill="none" stroke="#0f0e0c" stroke-width="10"/>
<path transform="matrix(.1 0 0 -.1 0 212.7)" d="m471.8 1482h130.7v-443.8" fill="none" stroke="#0f0e0c" stroke-width="10"/>
<path transform="matrix(.1 0 0 -.1 0 212.7)" d="m401.8 1315h159.8v-358.1" fill="none" stroke="#0f0e0c" stroke-width="10"/>
<path transform="matrix(.1 0 0 -.1 0 212.7)" d="m922.7 953.7-94.84 145.4" fill="none" stroke="#0f0e0c" stroke-width="5"/>
<path transform="matrix(.1 0 0 -.1 0 212.7)" d="m3831 1122 18.2 24.06" fill="none" stroke="#0f0e0c" stroke-width="5"/>
<path d="m80.64 99.49c1.574 1.164 3.801 2.445 5.602 2.953l-3.184 0.75-1.969 2.613c0.2578-1.855-0.02344-4.402-0.4492-6.316" fill="#0f0e0c"/>
<path d="m387.5 94.97c-0.5586 1.875-0.9961 4.402-0.8594 6.273l-1.797-2.734-3.125-0.9531c1.832-0.3945 4.129-1.531 5.781-2.586" fill="#0f0e0c"/>
<path d="m227 59.8-0.8242-2.176-0.8398 2.176zm-1.211-3.309h0.8242l2.305 5.348h-1.09l-0.4961-1.223h-2.32l-0.4844 1.223h-1.062l2.324-5.348" fill="#231f1f"/>
<path d="m229.4 58.22h0.8594v0.582h0.01562c0.1562-0.3633 0.5898-0.6875 1.125-0.6875 0.9453 0 1.336 0.7266 1.336 1.465v2.266h-0.9062v-2.008c0-0.4336-0.09766-0.9688-0.6797-0.9688-0.5742 0-0.8438 0.5-0.8438 0.9844v1.992h-0.9062v-3.625" fill="#231f1f"/>
<path d="m234.5 60.01c0 0.5742 0.3828 1.148 1.035 1.148 0.6719 0 1.078-0.543 1.078-1.148 0-0.625-0.4141-1.156-1.07-1.156-0.6602 0-1.043 0.5156-1.043 1.156zm2.977-1.789v3.301c0 1.305-0.6367 2.137-2.047 2.137-0.5898 0-1.332-0.2109-1.801-0.5977l0.5234-0.7031c0.3477 0.3359 0.8164 0.5156 1.27 0.5156 0.875 0 1.148-0.5273 1.148-1.246v-0.2656h-0.01563c-0.2656 0.3555-0.6875 0.543-1.188 0.543-1.086 0-1.789-0.8594-1.789-1.887 0-1.051 0.6797-1.902 1.773-1.902 0.5078 0 0.9844 0.2109 1.246 0.6484h0.01562v-0.543h0.8633" fill="#231f1f"/>
<path d="m238.6 56.13h0.9062v5.711h-0.9062v-5.711" fill="#231f1f"/>
<path d="m243.1 59.67c0-0.4688-0.2656-0.875-0.8516-0.875-0.5391 0-0.9688 0.3711-1.004 0.875zm0.8984 0.6484h-2.754c0.03516 0.5156 0.5039 0.8945 1.031 0.8945 0.4531 0 0.7578-0.1836 0.9609-0.4688l0.6055 0.4844c-0.3555 0.4805-0.8711 0.7227-1.559 0.7227-1.117 0-1.949-0.7188-1.949-1.895 0-1.172 0.8242-1.941 1.922-1.941 1.008 0 1.75 0.6562 1.75 1.961 0 0.08594 0 0.1602-0.007812 0.2422" fill="#231f1f"/>
<path d="m223.2 29.89c-0.2773-0.3867-0.7852-0.5508-1.215-0.5508-1.102 0-1.852 0.8516-1.852 1.953 0 1.164 0.7109 1.973 1.812 1.973 0.5742 0 1.027-0.25 1.301-0.6172l0.7617 0.5352c-0.4688 0.5898-1.164 0.9336-2.07 0.9336-1.668 0-2.852-1.152-2.852-2.824 0-1.715 1.25-2.793 2.898-2.793 0.6953 0 1.52 0.2578 1.941 0.8164l-0.7266 0.5742" fill="#231f1f"/>
<path d="m226.2 33.33c0.7188 0 1.051-0.6094 1.051-1.176s-0.332-1.164-1.051-1.164-1.051 0.5977-1.051 1.164 0.332 1.176 1.051 1.176zm0-3.082c1.094 0 1.969 0.7656 1.969 1.906s-0.875 1.934-1.969 1.934-1.973-0.793-1.973-1.934 0.8789-1.906 1.973-1.906" fill="#231f1f"/>
<path d="m229.1 30.36h0.8672v0.6016h0.01563c0.1953-0.4141 0.582-0.7109 1.059-0.7109 0.06641 0 0.1602 0.01172 0.2188 0.02344v0.832c-0.1211-0.03125-0.1953-0.03906-0.2812-0.03906-0.8125 0-0.9727 0.7109-0.9727 0.9766v1.941h-0.9062v-3.625" fill="#231f1f"/>
<path d="m231.8 30.36h0.8594v0.582h0.01562c0.1602-0.3633 0.5898-0.6914 1.125-0.6914 0.9453 0 1.336 0.7266 1.336 1.469v2.266h-0.9023v-2.012c0-0.4297-0.1016-0.9648-0.6836-0.9648-0.5703 0-0.8438 0.5-0.8438 0.9805v1.996h-0.9062v-3.625" fill="#231f1f"/>
<path d="m238.8 31.8c0-0.4688-0.2656-0.875-0.8555-0.875-0.5352 0-0.9648 0.3711-1.004 0.875zm0.8984 0.6484h-2.758c0.03906 0.5156 0.5078 0.8906 1.035 0.8906 0.4531 0 0.7578-0.1797 0.9609-0.4648l0.6016 0.4805c-0.3555 0.4844-0.8672 0.7266-1.555 0.7266-1.117 0-1.949-0.7188-1.949-1.895 0-1.172 0.8242-1.945 1.918-1.945 1.012 0 1.754 0.6602 1.754 1.965 0 0.08594 0 0.1602-0.007813 0.2422" fill="#231f1f"/>
<path d="m242.8 32.32h-0.2031c-0.5742 0-1.383 0.07031-1.383 0.6055 0 0.3477 0.3242 0.4531 0.6367 0.4531 0.6172 0 0.9492-0.3555 0.9492-0.9297zm0.01562 1.195h-0.02344c-0.1797 0.3164-0.6094 0.5508-1.125 0.5508-0.582 0-1.359-0.2812-1.359-1.125 0-1.082 1.359-1.23 2.492-1.23v-0.09375c0-0.4453-0.3789-0.6641-0.8281-0.6641-0.3867 0-0.7578 0.1836-0.9922 0.418l-0.4688-0.5547c0.4102-0.375 0.9844-0.5742 1.535-0.5742 1.297 0 1.617 0.8047 1.617 1.527v2.207h-0.8477v-0.4609" fill="#231f1f"/>
<path d="m162.4 0.5117h1.758l3.469 5.586h0.02344v-5.586h1.328v7.465h-1.688l-3.543-5.766h-0.01953v5.766h-1.328v-7.465" fill="#231f1f"/>
<path d="m173 7.07c1.004 0 1.465-0.8555 1.465-1.645 0-0.793-0.4609-1.625-1.465-1.625-1 0-1.465 0.832-1.465 1.625 0 0.7891 0.4648 1.645 1.465 1.645zm0-4.301c1.527 0 2.754 1.062 2.754 2.656 0 1.59-1.227 2.699-2.754 2.699s-2.75-1.109-2.75-2.699c0-1.594 1.223-2.656 2.75-2.656" fill="#231f1f"/>
<path d="m176.9 2.914h1.211v0.8438h0.02344c0.2734-0.5781 0.8125-0.9883 1.477-0.9883 0.09375 0 0.2188 0.007813 0.3047 0.03125v1.16c-0.168-0.04688-0.2734-0.05469-0.3906-0.05469-1.137 0-1.359 0.9922-1.359 1.359v2.711h-1.266v-5.062" fill="#231f1f"/>
<path d="m188.7 4.812v3.164h-1.266v-2.805c0-0.6016-0.1367-1.352-0.9492-1.352-0.7891 0-1.117 0.7383-1.117 1.395v2.762h-1.266v-3.059c0-0.6211-0.293-1.098-0.9375-1.098-0.7578 0-1.105 0.6992-1.105 1.371v2.785h-1.266v-5.062h1.199v0.8125h0.02344c0.2188-0.4961 0.7578-0.957 1.57-0.957 0.7812 0 1.297 0.3867 1.582 0.957 0.3359-0.6133 0.9062-0.957 1.664-0.957 1.32 0 1.867 1.012 1.867 2.043" fill="#231f1f"/>
<path d="m193.3 5.668h-0.2812c-0.8047 0-1.93 0.09375-1.93 0.8438 0 0.4844 0.4531 0.6328 0.8828 0.6328 0.8672 0 1.328-0.4961 1.328-1.297zm0.02344 1.664h-0.03125c-0.2539 0.4453-0.8555 0.7695-1.57 0.7695-0.8125 0-1.898-0.3867-1.898-1.57 0-1.508 1.898-1.719 3.477-1.719v-0.125c0-0.6211-0.5234-0.9297-1.156-0.9297-0.5391 0-1.055 0.2539-1.383 0.582l-0.6523-0.7695c0.5664-0.5312 1.371-0.8008 2.137-0.8008 1.816 0 2.258 1.117 2.258 2.129v3.078h-1.18v-0.6445" fill="#231f1f"/>
<path d="m196 0.003906h1.266v7.973h-1.266v-7.973" fill="#231f1f"/>
<path d="m268.5 5.129-1.152-3.035-1.168 3.035zm-1.688-4.617h1.148l3.215 7.465h-1.52l-0.6953-1.707h-3.234l-0.6758 1.707h-1.488l3.25-7.465" fill="#231f1f"/>
<path d="m274.5 3.801c-0.9297 0-1.488 0.8555-1.488 1.645 0 0.7891 0.5586 1.625 1.488 1.625 0.9766 0 1.453-0.8555 1.453-1.645 0-0.793-0.4766-1.625-1.453-1.625zm-1.445-3.797v3.555h0.03125c0.2617-0.3281 0.7695-0.7891 1.695-0.7891 1.445 0 2.457 1.156 2.457 2.656 0 1.473-0.9492 2.699-2.488 2.699-0.707 0-1.391-0.3281-1.738-0.9062h-0.02344v0.7578h-1.199v-7.973h1.266" fill="#231f1f"/>
<path d="m278.5 2.914h1.199v0.8125h0.02344c0.2188-0.5039 0.8203-0.957 1.57-0.957 1.316 0 1.867 1.012 1.867 2.043v3.164h-1.266v-2.805c0-0.6016-0.1367-1.352-0.9492-1.352-0.8008 0-1.184 0.6992-1.184 1.371v2.785h-1.262v-5.062" fill="#231f1f"/>
<path d="m287.1 7.07c1 0 1.465-0.8555 1.465-1.645 0-0.793-0.4648-1.625-1.465-1.625-1.004 0-1.465 0.832-1.465 1.625 0 0.7891 0.4609 1.645 1.465 1.645zm0-4.301c1.527 0 2.75 1.062 2.75 2.656 0 1.59-1.223 2.699-2.75 2.699-1.531 0-2.754-1.109-2.754-2.699 0-1.594 1.223-2.656 2.754-2.656" fill="#231f1f"/>
<path d="m291.1 2.914h1.211v0.8438h0.01953c0.2773-0.5781 0.8125-0.9883 1.477-0.9883 0.09766 0 0.2227 0.007813 0.3086 0.03125v1.16c-0.1719-0.04688-0.2773-0.05469-0.3906-0.05469-1.141 0-1.359 0.9922-1.359 1.359v2.711h-1.266v-5.062" fill="#231f1f"/>
<path d="m302.8 4.812v3.164h-1.266v-2.805c0-0.6016-0.1367-1.352-0.9492-1.352-0.793 0-1.117 0.7383-1.117 1.395v2.762h-1.266v-3.059c0-0.6211-0.2969-1.098-0.9375-1.098-0.7617 0-1.109 0.6992-1.109 1.371v2.785h-1.262v-5.062h1.199v0.8125h0.02344c0.2188-0.4961 0.7578-0.957 1.57-0.957 0.7773 0 1.297 0.3867 1.582 0.957 0.3359-0.6133 0.9062-0.957 1.664-0.957 1.316 0 1.867 1.012 1.867 2.043" fill="#231f1f"/>
<path d="m307.4 5.668h-0.2852c-0.8008 0-1.93 0.09375-1.93 0.8438 0 0.4844 0.4531 0.6328 0.8867 0.6328 0.8633 0 1.328-0.4961 1.328-1.297zm0.01953 1.664h-0.03125c-0.2539 0.4453-0.8516 0.7695-1.57 0.7695-0.8125 0-1.898-0.3867-1.898-1.57 0-1.508 1.898-1.719 3.48-1.719v-0.125c0-0.6211-0.5273-0.9297-1.16-0.9297-0.5391 0-1.055 0.2539-1.379 0.582l-0.6562-0.7695c0.5703-0.5312 1.371-0.8008 2.141-0.8008 1.812 0 2.258 1.117 2.258 2.129v3.078h-1.184v-0.6445" fill="#231f1f"/>
<path d="m310.1 0.003906h1.266v7.973h-1.266v-7.973" fill="#231f1f"/>
<path d="m189.2 79.99h1.262l2.484 4h0.01562v-4h0.9492v5.348h-1.207l-2.539-4.133h-0.01172v4.133h-0.9531v-5.348" fill="#231f1f"/>
<path d="m196.8 84.69c0.7188 0 1.051-0.6094 1.051-1.176 0-0.5664-0.332-1.164-1.051-1.164s-1.051 0.5977-1.051 1.164c0 0.5664 0.332 1.176 1.051 1.176zm0-3.082c1.098 0 1.973 0.7656 1.973 1.906s-0.875 1.934-1.973 1.934c-1.094 0-1.973-0.793-1.973-1.934s0.8789-1.906 1.973-1.906" fill="#231f1f"/>
<path d="m199.7 81.71h0.8711v0.6016h0.01172c0.1992-0.4141 0.582-0.7109 1.059-0.7109 0.06641 0 0.1602 0.007812 0.2188 0.02344v0.832c-0.1211-0.03125-0.1953-0.03906-0.2773-0.03906-0.8164 0-0.9766 0.7109-0.9766 0.9766v1.941h-0.9062v-3.625" fill="#231f1f"/>
<path d="m208.1 83.07v2.27h-0.9062v-2.012c0-0.4297-0.09766-0.9648-0.6797-0.9648-0.5664 0-0.8008 0.5273-0.8008 0.9961v1.98h-0.9062v-2.191c0-0.4453-0.2109-0.7852-0.6719-0.7852-0.543 0-0.793 0.4961-0.793 0.9805v1.996h-0.9062v-3.625h0.8594v0.582h0.01563c0.1602-0.3555 0.5469-0.6914 1.129-0.6914 0.5586 0 0.9258 0.2812 1.129 0.6914 0.2422-0.4414 0.6523-0.6914 1.195-0.6914 0.9453 0 1.336 0.7266 1.336 1.465" fill="#231f1f"/>
<path d="m211.4 83.68h-0.207c-0.5742 0-1.379 0.07031-1.379 0.6055 0 0.3477 0.3242 0.4531 0.6328 0.4531 0.6211 0 0.9531-0.3555 0.9531-0.9297zm0.01172 1.195h-0.01953c-0.1836 0.3164-0.6133 0.5508-1.125 0.5508-0.582 0-1.363-0.2812-1.363-1.125 0-1.082 1.363-1.234 2.496-1.234v-0.08984c0-0.4453-0.3789-0.6641-0.832-0.6641-0.3867 0-0.7539 0.1836-0.9883 0.4141l-0.4688-0.5508c0.4062-0.375 0.9805-0.5742 1.531-0.5742 1.301 0 1.617 0.8008 1.617 1.527v2.207h-0.8477v-0.4609" fill="#231f1f"/>
<path d="m213.3 79.63h0.9062v5.711h-0.9062v-5.711" fill="#231f1f"/>
<path d="m9.184 57.33h-1.641v-0.832h4.23v0.832h-1.637v4.516h-0.9531v-4.516" fill="#231f1f"/>
<path d="m11.67 58.22h0.8672v0.6016h0.01562c0.1992-0.4141 0.582-0.707 1.059-0.707 0.06641 0 0.1602 0.007813 0.2188 0.02344v0.8281c-0.1211-0.02734-0.1953-0.03516-0.2812-0.03516-0.8125 0-0.9727 0.707-0.9727 0.9727v1.941h-0.9062v-3.625" fill="#231f1f"/>
<path d="m16.55 60.19h-0.2031c-0.5742 0-1.383 0.06641-1.383 0.6016 0 0.3477 0.3242 0.4531 0.6328 0.4531 0.6211 0 0.9531-0.3555 0.9531-0.9297zm0.01562 1.191h-0.02344c-0.1797 0.3164-0.6094 0.5508-1.125 0.5508-0.582 0-1.359-0.2773-1.359-1.125 0-1.078 1.359-1.23 2.492-1.23v-0.08984c0-0.4492-0.3789-0.668-0.832-0.668-0.3828 0-0.7539 0.1836-0.9883 0.418l-0.4688-0.5508c0.4102-0.3789 0.9844-0.5742 1.535-0.5742 1.297 0 1.617 0.8008 1.617 1.523v2.207h-0.8477v-0.4609" fill="#231f1f"/>
<path d="m20.43 58.85c-0.6641 0-1.062 0.6133-1.062 1.18s0.3984 1.164 1.062 1.164c0.7031 0 1.043-0.6133 1.043-1.18s-0.3398-1.164-1.043-1.164zm-1.035-2.719v2.547h0.02344c0.1875-0.2344 0.5508-0.5664 1.219-0.5664 1.031 0 1.758 0.8281 1.758 1.902 0 1.059-0.6797 1.934-1.781 1.934-0.5078 0-1-0.2344-1.246-0.6484h-0.01563v0.543h-0.8633v-5.711h0.9062" fill="#231f1f"/>
<path d="m25.82 59.67c0-0.4688-0.2656-0.875-0.8555-0.875-0.5352 0-0.9648 0.3711-1.004 0.875zm0.8984 0.6484h-2.758c0.03906 0.5156 0.5078 0.8945 1.035 0.8945 0.4531 0 0.7578-0.1836 0.9609-0.4688l0.6055 0.4844c-0.3555 0.4805-0.8711 0.7227-1.559 0.7227-1.117 0-1.949-0.7188-1.949-1.895 0-1.172 0.8242-1.941 1.918-1.941 1.016 0 1.754 0.6562 1.754 1.961 0 0.08594 0 0.1602-0.007813 0.2422" fill="#231f1f"/>
<path d="m30.09 59.22c-0.1445-0.2031-0.4531-0.3555-0.75-0.3555-0.6641 0-0.9961 0.5977-0.9961 1.164s0.3398 1.164 1.027 1.164c0.2812 0 0.5898-0.1133 0.7617-0.3242l0.5664 0.5703c-0.3008 0.3281-0.8008 0.5078-1.336 0.5078-1.074 0-1.965-0.7109-1.965-1.918 0-1.18 0.8789-1.918 1.941-1.918 0.5312 0 1.082 0.2109 1.367 0.5664l-0.6172 0.543" fill="#231f1f"/>
<path d="m34.6 61.84h-0.8594v-0.582h-0.01563c-0.1602 0.3633-0.5898 0.6875-1.125 0.6875-0.9453 0-1.336-0.7227-1.336-1.465v-2.266h0.9023v2.008c0 0.4297 0.1016 0.9688 0.6797 0.9688 0.5742 0 0.8477-0.5 0.8477-0.9805v-1.996h0.9062v3.625" fill="#231f1f"/>
<path d="m35.71 56.13h0.9062v5.711h-0.9062v-5.711" fill="#231f1f"/>
<path d="m39.95 60.19h-0.2031c-0.5742 0-1.383 0.06641-1.383 0.6016 0 0.3477 0.3242 0.4531 0.6367 0.4531 0.6172 0 0.9492-0.3555 0.9492-0.9297zm0.01562 1.191h-0.02344c-0.1797 0.3164-0.6094 0.5508-1.125 0.5508-0.582 0-1.359-0.2773-1.359-1.125 0-1.078 1.359-1.23 2.492-1.23v-0.08984c0-0.4492-0.375-0.668-0.8281-0.668-0.3867 0-0.7578 0.1836-0.9922 0.418l-0.4688-0.5508c0.4102-0.3789 0.9844-0.5742 1.535-0.5742 1.297 0 1.617 0.8008 1.617 1.523v2.207h-0.8477v-0.4609" fill="#231f1f"/>
<path d="m41.87 58.22h0.8672v0.6016h0.01562c0.1953-0.4141 0.582-0.707 1.055-0.707 0.07031 0 0.1602 0.007813 0.2227 0.02344v0.8281c-0.1211-0.02734-0.1992-0.03516-0.2812-0.03516-0.8164 0-0.9727 0.707-0.9727 0.9727v1.941h-0.9062v-3.625" fill="#231f1f"/>
<path d="m8.059 64.69h0.8594v0.582h0.01562c0.1602-0.3594 0.5898-0.6836 1.125-0.6836 0.9453 0 1.336 0.7227 1.336 1.465v2.266h-0.9062v-2.012c0-0.4297-0.09766-0.9648-0.6797-0.9648-0.5742 0-0.8438 0.4961-0.8438 0.9805v1.996h-0.9062v-3.629" fill="#231f1f"/>
<path d="m15.01 66.14c0-0.4688-0.2656-0.875-0.8555-0.875-0.5352 0-0.9648 0.3672-1.004 0.875zm0.8984 0.6484h-2.758c0.03906 0.5156 0.5078 0.8906 1.035 0.8906 0.4531 0 0.7539-0.1797 0.9609-0.4688l0.6016 0.4844c-0.3555 0.4844-0.8672 0.7266-1.555 0.7266-1.117 0-1.949-0.7188-1.949-1.898 0-1.168 0.8242-1.938 1.918-1.938 1.012 0 1.754 0.6562 1.754 1.961 0 0.08203 0 0.1602-0.007812 0.2422" fill="#231f1f"/>
<path d="m16.27 65.42v-0.7266h0.6328v-1.047h0.8906v1.047h0.9062v0.7266h-0.9062v1.684c0 0.3281 0.07812 0.5586 0.4766 0.5586 0.1211 0 0.2812-0.01953 0.3867-0.07422l0.02734 0.7109c-0.1562 0.05859-0.3984 0.09766-0.6016 0.09766-0.9609 0-1.18-0.5898-1.18-1.285v-1.691h-0.6328" fill="#231f1f"/>
<path d="m18.84 64.69h0.9844l0.7539 2.598h0.01562l0.7773-2.598h0.9688l0.7852 2.598h0.01562l0.7695-2.598h0.9414l-1.254 3.629h-0.9219l-0.8203-2.539h-0.01562l-0.8164 2.539h-0.9219l-1.262-3.629" fill="#231f1f"/>
<path d="m27.19 67.67c0.7188 0 1.051-0.6133 1.051-1.18 0-0.5664-0.332-1.164-1.051-1.164s-1.051 0.5977-1.051 1.164c0 0.5664 0.332 1.18 1.051 1.18zm0-3.082c1.094 0 1.973 0.7617 1.973 1.902 0 1.141-0.8789 1.934-1.973 1.934s-1.973-0.793-1.973-1.934c0-1.141 0.8789-1.902 1.973-1.902" fill="#231f1f"/>
<path d="m30.04 64.69h0.8711v0.6055h0.01172c0.1992-0.4141 0.582-0.707 1.059-0.707 0.06641 0 0.1602 0.003906 0.2188 0.01953v0.832c-0.1211-0.03125-0.1953-0.03906-0.2773-0.03906-0.8164 0-0.9766 0.7109-0.9766 0.9766v1.941h-0.9062v-3.629" fill="#231f1f"/>
<path d="m32.8 62.61h0.9062v3.609h0.02344l1.375-1.527h1.164l-1.574 1.641 1.672 1.988h-1.203l-1.434-1.859h-0.02344v1.859h-0.9062v-5.711" fill="#231f1f"/>
<path d="m422.9 57.33h-1.637v-0.832h4.23v0.832h-1.641v4.516h-0.9531v-4.516" fill="#231f1f"/>
<path d="m425.4 58.22h0.8672v0.6016h0.01562c0.1953-0.4141 0.582-0.707 1.059-0.707 0.06641 0 0.1602 0.007813 0.2188 0.02344v0.8281c-0.1211-0.02734-0.1953-0.03516-0.2812-0.03516-0.8125 0-0.9727 0.707-0.9727 0.9727v1.941h-0.9062v-3.625" fill="#231f1f"/>
<path d="m430.3 60.19h-0.2031c-0.5742 0-1.383 0.06641-1.383 0.6016 0 0.3477 0.3242 0.4531 0.6367 0.4531 0.6172 0 0.9492-0.3555 0.9492-0.9297zm0.01563 1.191h-0.02344c-0.1797 0.3164-0.6094 0.5508-1.125 0.5508-0.582 0-1.359-0.2773-1.359-1.125 0-1.078 1.359-1.23 2.492-1.23v-0.08984c0-0.4492-0.3789-0.668-0.832-0.668-0.3828 0-0.7539 0.1836-0.9883 0.418l-0.4688-0.5508c0.4062-0.3789 0.9805-0.5742 1.535-0.5742 1.297 0 1.613 0.8008 1.613 1.523v2.207h-0.8438v-0.4609" fill="#231f1f"/>
<path d="m434.2 58.85c-0.6641 0-1.062 0.6133-1.062 1.18s0.3984 1.164 1.062 1.164c0.7031 0 1.043-0.6133 1.043-1.18s-0.3398-1.164-1.043-1.164zm-1.035-2.719v2.547h0.02344c0.1875-0.2344 0.5508-0.5664 1.215-0.5664 1.035 0 1.762 0.8281 1.762 1.902 0 1.059-0.6797 1.934-1.781 1.934-0.5078 0-1-0.2344-1.246-0.6484h-0.01562v0.543h-0.8633v-5.711h0.9062" fill="#231f1f"/>
<path d="m439.6 59.67c0-0.4688-0.2656-0.875-0.8555-0.875-0.5352 0-0.9648 0.3711-1.004 0.875zm0.8984 0.6484h-2.758c0.03906 0.5156 0.5078 0.8945 1.035 0.8945 0.4531 0 0.7539-0.1836 0.957-0.4688l0.6055 0.4844c-0.3555 0.4805-0.8672 0.7227-1.555 0.7227-1.117 0-1.949-0.7188-1.949-1.895 0-1.172 0.8242-1.941 1.918-1.941 1.012 0 1.754 0.6562 1.754 1.961 0 0.08594 0 0.1602-0.007813 0.2422" fill="#231f1f"/>
<path d="m443.8 59.22c-0.1406-0.2031-0.4531-0.3555-0.7461-0.3555-0.6641 0-0.9961 0.5977-0.9961 1.164s0.3398 1.164 1.027 1.164c0.2773 0 0.5859-0.1133 0.7617-0.3242l0.5664 0.5703c-0.3008 0.3281-0.8008 0.5078-1.336 0.5078-1.074 0-1.965-0.7109-1.965-1.918 0-1.18 0.8789-1.918 1.941-1.918 0.5273 0 1.078 0.2109 1.367 0.5664l-0.6211 0.543" fill="#231f1f"/>
<path d="m448.3 61.84h-0.8594v-0.582h-0.01562c-0.1602 0.3633-0.5898 0.6875-1.125 0.6875-0.9453 0-1.34-0.7227-1.34-1.465v-2.266h0.9062v2.008c0 0.4297 0.1016 0.9688 0.6797 0.9688 0.5742 0 0.8477-0.5 0.8477-0.9805v-1.996h0.9062v3.625" fill="#231f1f"/>
<path d="m449.4 56.13h0.9062v5.711h-0.9062v-5.711" fill="#231f1f"/>
<path d="m453.7 60.19h-0.2031c-0.5742 0-1.383 0.06641-1.383 0.6016 0 0.3477 0.3242 0.4531 0.6328 0.4531 0.6211 0 0.9531-0.3555 0.9531-0.9297zm0.01562 1.191h-0.02344c-0.1797 0.3164-0.6133 0.5508-1.125 0.5508-0.582 0-1.359-0.2773-1.359-1.125 0-1.078 1.359-1.23 2.492-1.23v-0.08984c0-0.4492-0.375-0.668-0.832-0.668-0.3828 0-0.7539 0.1836-0.9883 0.418l-0.4688-0.5508c0.4102-0.3789 0.9844-0.5742 1.535-0.5742 1.297 0 1.617 0.8008 1.617 1.523v2.207h-0.8477v-0.4609" fill="#231f1f"/>
<path d="m455.6 58.22h0.8711v0.6016h0.01172c0.1992-0.4141 0.582-0.707 1.059-0.707 0.06641 0 0.1602 0.007813 0.2188 0.02344v0.8281c-0.1211-0.02734-0.1953-0.03516-0.2773-0.03516-0.8164 0-0.9766 0.707-0.9766 0.9727v1.941h-0.9062v-3.625" fill="#231f1f"/>
<path d="m421.8 64.69h0.8633v0.582h0.01562c0.1562-0.3594 0.5898-0.6836 1.125-0.6836 0.9414 0 1.336 0.7227 1.336 1.465v2.266h-0.9062v-2.012c0-0.4297-0.09766-0.9648-0.6797-0.9648-0.5742 0-0.8477 0.4961-0.8477 0.9805v1.996h-0.9062v-3.629" fill="#231f1f"/>
<path d="m428.7 66.14c0-0.4688-0.2617-0.875-0.8516-0.875-0.5352 0-0.9648 0.3672-1.004 0.875zm0.9023 0.6484h-2.758c0.03906 0.5156 0.5078 0.8906 1.035 0.8906 0.4531 0 0.7539-0.1797 0.957-0.4688l0.6055 0.4844c-0.3555 0.4844-0.8672 0.7266-1.555 0.7266-1.117 0-1.949-0.7188-1.949-1.898 0-1.168 0.8242-1.938 1.918-1.938 1.012 0 1.75 0.6562 1.75 1.961 0 0.08203 0 0.1602-0.003906 0.2422" fill="#231f1f"/>
<path d="m430 65.42v-0.7266h0.6328v-1.047h0.8906v1.047h0.9062v0.7266h-0.9062v1.684c0 0.3281 0.07422 0.5586 0.4766 0.5586 0.1211 0 0.2773-0.01953 0.3867-0.07422l0.02734 0.7109c-0.1562 0.05859-0.3984 0.09766-0.6055 0.09766-0.957 0-1.176-0.5898-1.176-1.285v-1.691h-0.6328" fill="#231f1f"/>
<path d="m432.6 64.69h0.9805l0.7578 2.598h0.01172l0.7812-2.598h0.9648l0.7852 2.598h0.01562l0.7695-2.598h0.9453l-1.254 3.629h-0.9219l-0.8203-2.539h-0.01953l-0.8125 2.539h-0.9219l-1.262-3.629" fill="#231f1f"/>
<path d="m440.9 67.67c0.7188 0 1.051-0.6133 1.051-1.18 0-0.5664-0.332-1.164-1.051-1.164s-1.051 0.5977-1.051 1.164c0 0.5664 0.332 1.18 1.051 1.18zm0-3.082c1.094 0 1.969 0.7617 1.969 1.902 0 1.141-0.875 1.934-1.969 1.934-1.098 0-1.973-0.793-1.973-1.934 0-1.141 0.875-1.902 1.973-1.902" fill="#231f1f"/>
<path d="m443.8 64.69h0.8672v0.6055h0.01562c0.1953-0.4141 0.582-0.707 1.059-0.707 0.06641 0 0.1562 0.003906 0.2188 0.01953v0.832c-0.1211-0.03125-0.1953-0.03906-0.2812-0.03906-0.8125 0-0.9727 0.7109-0.9727 0.9766v1.941h-0.9062v-3.629" fill="#231f1f"/>
<path d="m446.5 62.61h0.9062v3.609h0.02344l1.375-1.527h1.16l-1.57 1.641 1.668 1.988h-1.199l-1.434-1.859h-0.02344v1.859h-0.9062v-5.711" fill="#231f1f"/>
<path d="m11.96 78.86c-0.2773-0.3828-0.7852-0.5508-1.215-0.5508-1.102 0-1.852 0.8555-1.852 1.957 0 1.164 0.7109 1.973 1.812 1.973 0.5742 0 1.027-0.25 1.301-0.6211l0.7617 0.5352c-0.4688 0.5898-1.164 0.9375-2.066 0.9375-1.672 0-2.855-1.156-2.855-2.824 0-1.715 1.254-2.793 2.898-2.793 0.6953 0 1.52 0.2539 1.941 0.8125l-0.7266 0.5742" fill="#231f1f"/>
<path d="m15.41 81.3h-0.2031c-0.5742 0-1.383 0.06641-1.383 0.6055 0 0.3477 0.3242 0.4531 0.6367 0.4531 0.6172 0 0.9492-0.3555 0.9492-0.9297zm0.01563 1.191h-0.02344c-0.1797 0.3203-0.6094 0.5547-1.125 0.5547-0.582 0-1.359-0.2812-1.359-1.125 0-1.082 1.359-1.234 2.492-1.234v-0.08984c0-0.4453-0.375-0.6641-0.8281-0.6641-0.3867 0-0.7578 0.1797-0.9922 0.4141l-0.4688-0.5508c0.4102-0.375 0.9844-0.5742 1.535-0.5742 1.301 0 1.617 0.8008 1.617 1.527v2.207h-0.8477v-0.4648" fill="#231f1f"/>
<path d="m17.34 79.33h0.8594v0.582h0.01563c0.1562-0.3633 0.5898-0.6875 1.125-0.6875 0.9453 0 1.336 0.7266 1.336 1.465v2.27h-0.9062v-2.012c0-0.4297-0.09766-0.9688-0.6797-0.9688-0.5742 0-0.8438 0.5-0.8438 0.9844v1.996h-0.9062v-3.629" fill="#231f1f"/>
<path d="m23.96 81.3h-0.2031c-0.5742 0-1.383 0.06641-1.383 0.6055 0 0.3477 0.3281 0.4531 0.6367 0.4531 0.6172 0 0.9492-0.3555 0.9492-0.9297zm0.01562 1.191h-0.01953c-0.1836 0.3203-0.6133 0.5547-1.129 0.5547-0.5781 0-1.359-0.2812-1.359-1.125 0-1.082 1.359-1.234 2.492-1.234v-0.08984c0-0.4453-0.375-0.6641-0.8281-0.6641-0.3867 0-0.7578 0.1797-0.9883 0.4141l-0.4727-0.5508c0.4102-0.375 0.9844-0.5742 1.535-0.5742 1.301 0 1.617 0.8008 1.617 1.527v2.207h-0.8477v-0.4648" fill="#231f1f"/>
<path d="m25.9 77.25h0.9062v5.711h-0.9062v-5.711" fill="#231f1f"/>
<path d="m31.56 82.31c0.7188 0 1.051-0.6133 1.051-1.176 0-0.5703-0.332-1.164-1.051-1.164s-1.051 0.5938-1.051 1.164c0 0.5625 0.332 1.176 1.051 1.176zm0-3.082c1.094 0 1.973 0.7617 1.973 1.906 0 1.137-0.8789 1.934-1.973 1.934s-1.973-0.7969-1.973-1.934c0-1.145 0.8789-1.906 1.973-1.906" fill="#231f1f"/>
<path d="m34.55 80.06h-0.6875v-0.7266h0.6875v-0.5352c0-0.8672 0.3398-1.641 1.465-1.641 0.1953 0 0.3242 0.01562 0.4609 0.05469l-0.0625 0.7695c-0.09766-0.03125-0.2188-0.05078-0.3438-0.05078-0.5234 0-0.6133 0.4531-0.6133 0.8125v0.5898h0.8359v0.7266h-0.8359v2.902h-0.9062v-2.902" fill="#231f1f"/>
<path d="m10.83 85.2c-0.2031-0.2617-0.6016-0.4609-0.9805-0.4609-0.4375 0-0.9453 0.2109-0.9453 0.7344 0 0.4922 0.418 0.6328 1.02 0.8242 0.6875 0.2109 1.566 0.5117 1.566 1.562 0 1.148-0.8984 1.707-1.949 1.707-0.6953 0-1.414-0.2656-1.836-0.7617l0.6797-0.6367c0.2617 0.3633 0.7461 0.5898 1.172 0.5898 0.4453 0 0.9648-0.2188 0.9648-0.793 0-0.5586-0.5586-0.7188-1.23-0.9297-0.6484-0.2031-1.352-0.5195-1.352-1.52 0-1.086 0.9883-1.57 1.957-1.57 0.5352 0 1.145 0.1914 1.555 0.5742l-0.6211 0.6797" fill="#231f1f"/>
<path d="m14.87 86.81c-0.1445-0.2031-0.4531-0.3555-0.75-0.3555-0.6641 0-0.9961 0.5977-0.9961 1.164s0.3398 1.164 1.027 1.164c0.2812 0 0.5898-0.1133 0.7617-0.3242l0.5664 0.5703c-0.3008 0.3281-0.7969 0.5078-1.336 0.5078-1.07 0-1.961-0.7109-1.961-1.918 0-1.18 0.875-1.918 1.938-1.918 0.5312 0 1.082 0.2109 1.367 0.5664l-0.6172 0.543" fill="#231f1f"/>
<path d="m19.43 87.17v2.266h-0.9062v-1.992c0-0.4336-0.08984-0.9609-0.6719-0.9609-0.5742 0-0.8555 0.4922-0.8555 0.9727v1.98h-0.9062v-5.711h0.9062v2.59h0.01562c0.1445-0.3008 0.543-0.6094 1.082-0.6094 0.9414 0 1.336 0.7227 1.336 1.465" fill="#231f1f"/>
<path d="m20.51 83.72h0.9062v5.711h-0.9062v-5.711" fill="#231f1f"/>
<path d="m25.07 87.26c0-0.4688-0.2656-0.875-0.8555-0.875-0.5352 0-0.9648 0.3711-1.004 0.875zm0.8984 0.6484h-2.758c0.03906 0.5156 0.5078 0.8945 1.035 0.8945 0.4531 0 0.7539-0.1836 0.9609-0.4688l0.6016 0.4844c-0.3555 0.4805-0.8672 0.7227-1.555 0.7227-1.117 0-1.949-0.7188-1.949-1.895 0-1.172 0.8242-1.941 1.918-1.941 1.012 0 1.754 0.6562 1.754 1.961 0 0.08594 0 0.1602-0.007812 0.2422" fill="#231f1f"/>
<path d="m32.52 87.17v2.266h-0.9062v-2.008c0-0.4336-0.09766-0.9688-0.6797-0.9688-0.5664 0-0.8008 0.5273-0.8008 0.9961v1.98h-0.9062v-2.191c0-0.4453-0.2109-0.7852-0.6719-0.7852-0.543 0-0.793 0.5-0.793 0.9844v1.992h-0.9062v-3.625h0.8633v0.582h0.01172c0.1602-0.3555 0.5469-0.6875 1.125-0.6875 0.5625 0 0.9297 0.2773 1.133 0.6875 0.2422-0.4375 0.6523-0.6875 1.195-0.6875 0.9453 0 1.336 0.7227 1.336 1.465" fill="#231f1f"/>
<path d="m39.24 87.17v2.266h-0.9062v-2.008c0-0.4336-0.09766-0.9688-0.6797-0.9688-0.5664 0-0.8008 0.5273-0.8008 0.9961v1.98h-0.9062v-2.191c0-0.4453-0.2109-0.7852-0.6719-0.7852-0.543 0-0.793 0.5-0.793 0.9844v1.992h-0.9062v-3.625h0.8633v0.582h0.01562c0.1562-0.3555 0.543-0.6875 1.125-0.6875 0.5586 0 0.9297 0.2773 1.133 0.6875 0.2422-0.4375 0.6484-0.6875 1.191-0.6875 0.9453 0 1.336 0.7227 1.336 1.465" fill="#231f1f"/>
<path d="m428.3 75.2c-0.2812-0.3867-0.7891-0.5508-1.219-0.5508-1.102 0-1.848 0.8555-1.848 1.957 0 1.16 0.707 1.969 1.812 1.969 0.5742 0 1.027-0.25 1.297-0.6172l0.7656 0.5352c-0.4688 0.5898-1.164 0.9375-2.07 0.9375-1.668 0-2.855-1.156-2.855-2.824 0-1.715 1.254-2.797 2.898-2.797 0.6953 0 1.52 0.2578 1.941 0.8164l-0.7227 0.5742" fill="#231f1f"/>
<path d="m431.7 77.64h-0.2031c-0.5742 0-1.379 0.06641-1.379 0.6016 0 0.3477 0.3242 0.4531 0.6328 0.4531 0.6172 0 0.9492-0.3555 0.9492-0.9297zm0.01563 1.191h-0.01953c-0.1836 0.3164-0.6133 0.5508-1.125 0.5508-0.582 0-1.363-0.2773-1.363-1.125 0-1.078 1.363-1.23 2.492-1.23v-0.08984c0-0.4453-0.375-0.668-0.8281-0.668-0.3867 0-0.7539 0.1836-0.9922 0.418l-0.4648-0.5508c0.4062-0.3789 0.9805-0.5742 1.531-0.5742 1.301 0 1.617 0.8008 1.617 1.523v2.207h-0.8477v-0.4609" fill="#231f1f"/>
<path d="m433.6 75.67h0.8594v0.582h0.01563c0.1602-0.3633 0.5898-0.6875 1.125-0.6875 0.9453 0 1.336 0.7227 1.336 1.465v2.266h-0.9062v-2.008c0-0.4336-0.09766-0.9688-0.6797-0.9688-0.5742 0-0.8438 0.5-0.8438 0.9844v1.992h-0.9062v-3.625" fill="#231f1f"/>
<path d="m440.3 77.64h-0.2031c-0.5703 0-1.383 0.06641-1.383 0.6016 0 0.3477 0.3281 0.4531 0.6367 0.4531 0.6172 0 0.9492-0.3555 0.9492-0.9297zm0.01953 1.191h-0.02344c-0.1836 0.3164-0.6133 0.5508-1.129 0.5508-0.5781 0-1.359-0.2773-1.359-1.125 0-1.078 1.359-1.23 2.492-1.23v-0.08984c0-0.4453-0.375-0.668-0.8281-0.668-0.3867 0-0.7578 0.1836-0.9883 0.418l-0.4688-0.5508c0.4062-0.3789 0.9805-0.5742 1.531-0.5742 1.301 0 1.617 0.8008 1.617 1.523v2.207h-0.8438v-0.4609" fill="#231f1f"/>
<path d="m442.2 73.59h0.9023v5.711h-0.9023v-5.711" fill="#231f1f"/>
<path d="m447.9 78.65c0.7188 0 1.051-0.6133 1.051-1.18s-0.332-1.164-1.051-1.164-1.051 0.5977-1.051 1.164 0.332 1.18 1.051 1.18zm0-3.082c1.094 0 1.973 0.7617 1.973 1.902s-0.8789 1.934-1.973 1.934c-1.098 0-1.973-0.793-1.973-1.934s0.875-1.902 1.973-1.902" fill="#231f1f"/>
<path d="m450.9 76.4h-0.6875v-0.7266h0.6875v-0.5352c0-0.8711 0.3398-1.641 1.465-1.641 0.1953 0 0.3242 0.01562 0.4609 0.05469l-0.0625 0.7695c-0.09375-0.03125-0.2148-0.05469-0.3438-0.05469-0.5234 0-0.6133 0.4531-0.6133 0.8164v0.5898h0.8359v0.7266h-0.8359v2.898h-0.9062v-2.898" fill="#231f1f"/>
<path d="m427.1 81.54c-0.207-0.2656-0.6055-0.4609-0.9844-0.4609-0.4375 0-0.9414 0.2109-0.9414 0.7305 0 0.4922 0.4141 0.6367 1.016 0.8242 0.6914 0.2109 1.566 0.5156 1.566 1.562 0 1.148-0.8984 1.707-1.949 1.707-0.6953 0-1.414-0.2617-1.836-0.7617l0.6797-0.6328c0.2656 0.3594 0.7461 0.5898 1.172 0.5898 0.4453 0 0.9648-0.2188 0.9648-0.793 0-0.5625-0.5586-0.7188-1.23-0.9297-0.6484-0.2031-1.352-0.5234-1.352-1.52 0-1.086 0.9883-1.57 1.957-1.57 0.5352 0 1.148 0.1875 1.555 0.5742l-0.6172 0.6797" fill="#231f1f"/>
<path d="m431.2 83.15c-0.1445-0.207-0.4531-0.3555-0.7461-0.3555-0.668 0-1 0.5977-1 1.164 0 0.5664 0.3398 1.16 1.031 1.16 0.2773 0 0.5859-0.1133 0.7617-0.3242l0.5664 0.5742c-0.3047 0.3242-0.8008 0.5078-1.336 0.5078-1.074 0-1.965-0.7109-1.965-1.918 0-1.18 0.875-1.922 1.941-1.922 0.5273 0 1.078 0.2148 1.367 0.5664l-0.6211 0.5469" fill="#231f1f"/>
<path d="m435.7 83.51v2.266h-0.9062v-1.996c0-0.4297-0.08984-0.957-0.6719-0.957-0.5742 0-0.8555 0.4883-0.8555 0.9727v1.98h-0.9062v-5.711h0.9062v2.59h0.01562c0.1445-0.3008 0.5469-0.6133 1.082-0.6133 0.9453 0 1.336 0.7266 1.336 1.469" fill="#231f1f"/>
<path d="m436.8 80.06h0.9062v5.711h-0.9062v-5.711" fill="#231f1f"/>
<path d="m441.4 83.6c0-0.4688-0.2656-0.875-0.8555-0.875-0.5352 0-0.9648 0.3672-1.004 0.875zm0.8984 0.6484h-2.758c0.03906 0.5156 0.5078 0.8906 1.035 0.8906 0.4531 0 0.7539-0.1797 0.9609-0.4648l0.6016 0.4805c-0.3516 0.4844-0.8672 0.7266-1.555 0.7266-1.117 0-1.949-0.7188-1.949-1.898 0-1.168 0.8242-1.941 1.918-1.941 1.016 0 1.754 0.6602 1.754 1.965 0 0.08594 0 0.1602-0.007812 0.2422" fill="#231f1f"/>
<path d="m448.8 83.51v2.266h-0.9062v-2.012c0-0.4297-0.1016-0.9648-0.6836-0.9648-0.5625 0-0.7969 0.5273-0.7969 0.9961v1.98h-0.9102v-2.191c0-0.4453-0.2109-0.7852-0.6719-0.7852-0.543 0-0.793 0.5-0.793 0.9805v1.996h-0.9062v-3.625h0.8633v0.5781h0.01562c0.1562-0.3555 0.543-0.6875 1.125-0.6875 0.5586 0 0.9297 0.2812 1.133 0.6875 0.2422-0.4375 0.6484-0.6875 1.191-0.6875 0.9453 0 1.34 0.7266 1.34 1.469" fill="#231f1f"/>
<path d="m455.6 83.51v2.266h-0.9062v-2.012c0-0.4297-0.09766-0.9648-0.6797-0.9648-0.5664 0-0.8008 0.5273-0.8008 0.9961v1.98h-0.9062v-2.191c0-0.4453-0.2109-0.7852-0.6719-0.7852-0.543 0-0.793 0.5-0.793 0.9805v1.996h-0.9062v-3.625h0.8594v0.5781h0.01562c0.1602-0.3555 0.543-0.6875 1.125-0.6875 0.5586 0 0.9297 0.2812 1.133 0.6875 0.2422-0.4375 0.6523-0.6875 1.195-0.6875 0.9414 0 1.336 0.7266 1.336 1.469" fill="#231f1f"/>
<path d="m253.1 81.25c-0.2812-0.3867-0.7852-0.5547-1.215-0.5547-1.105 0-1.852 0.8555-1.852 1.957 0 1.164 0.7109 1.973 1.812 1.973 0.5742 0 1.027-0.25 1.301-0.6172l0.7617 0.5352c-0.4688 0.5898-1.164 0.9336-2.07 0.9336-1.668 0-2.855-1.152-2.855-2.824 0-1.715 1.254-2.793 2.902-2.793 0.6914 0 1.516 0.2578 1.941 0.8164l-0.7266 0.5742" fill="#231f1f"/>
<path d="m254.5 79.63h0.9062v5.711h-0.9062v-5.711" fill="#231f1f"/>
<path d="m258.3 84.69c0.7188 0 1.051-0.6094 1.051-1.176 0-0.5664-0.332-1.164-1.051-1.164s-1.051 0.5977-1.051 1.164c0 0.5664 0.332 1.176 1.051 1.176zm0-3.082c1.098 0 1.973 0.7656 1.973 1.906s-0.875 1.934-1.973 1.934c-1.094 0-1.973-0.793-1.973-1.934s0.8789-1.906 1.973-1.906" fill="#231f1f"/>
<path d="m263.1 82.68c-0.1602-0.2109-0.4609-0.3945-0.793-0.3945-0.2891 0-0.582 0.1094-0.582 0.3945 0 0.2812 0.2773 0.3555 0.7852 0.4766 0.5352 0.1289 1.172 0.3672 1.172 1.078 0 0.8828-0.7188 1.211-1.512 1.211-0.5586 0-1.141-0.2148-1.488-0.5977l0.5977-0.5586c0.1953 0.2578 0.5352 0.4531 0.9297 0.4531 0.2617 0 0.582-0.1055 0.582-0.4297 0-0.3047-0.2812-0.3945-0.832-0.5234-0.5391-0.1289-1.074-0.3477-1.074-1.027 0-0.8086 0.7266-1.156 1.445-1.156 0.5195 0 1.062 0.1836 1.359 0.5547l-0.5898 0.5195" fill="#231f1f"/>
<path d="m267 83.16c0-0.4688-0.2617-0.8789-0.8516-0.8789-0.5352 0-0.9688 0.3711-1.004 0.8789zm0.8984 0.6484h-2.754c0.03516 0.5117 0.5039 0.8906 1.035 0.8906 0.4492 0 0.7539-0.1797 0.957-0.4688l0.6055 0.4844c-0.3555 0.4844-0.8711 0.7266-1.555 0.7266-1.121 0-1.949-0.7188-1.949-1.895 0-1.172 0.8242-1.945 1.918-1.945 1.012 0 1.75 0.6602 1.75 1.965 0 0.08203 0 0.1602-0.007812 0.2422" fill="#231f1f"/>
<path d="m270.6 84.69c0.668 0 1.066-0.5938 1.066-1.164 0-0.5625-0.3984-1.176-1.066-1.176-0.6992 0-1.039 0.5977-1.039 1.164 0 0.5664 0.3398 1.176 1.039 1.176zm1.941 0.6523h-0.8594v-0.543h-0.01562c-0.25 0.4141-0.7383 0.6484-1.246 0.6484-1.102 0-1.781-0.8789-1.781-1.934 0-1.074 0.7227-1.906 1.758-1.906 0.6641 0 1.027 0.3359 1.219 0.5703h0.01953v-2.547h0.9062v5.711" fill="#231f1f"/>
<path d="m228.3 115.7h0.9531v5.352h-0.9531v-5.352" fill="#231f1f"/>
<path d="m230.4 117.4h0.8672v0.6055h0.01563c0.1992-0.4141 0.582-0.7109 1.059-0.7109 0.06641 0 0.1602 0.007812 0.2188 0.02344v0.832c-0.1211-0.03125-0.1953-0.03906-0.2812-0.03906-0.8125 0-0.9727 0.7109-0.9727 0.9766v1.941h-0.9062v-3.629" fill="#231f1f"/>
<path d="m233.1 117.4h0.9062v3.629h-0.9062zm0.4453-1.773c0.332 0 0.5898 0.2344 0.5898 0.543 0 0.3086-0.2578 0.543-0.5898 0.543-0.332 0-0.5742-0.2539-0.5742-0.543 0-0.2852 0.2422-0.543 0.5742-0.543" fill="#231f1f"/>
<path d="m237.1 118.4c-0.1602-0.2109-0.4609-0.3945-0.793-0.3945-0.2891 0-0.582 0.1055-0.582 0.3945 0 0.2773 0.2773 0.3555 0.7852 0.4766 0.5352 0.1289 1.172 0.3672 1.172 1.078 0 0.8828-0.7188 1.211-1.512 1.211-0.5586 0-1.141-0.2148-1.488-0.5977l0.5977-0.5586c0.1953 0.2539 0.5352 0.4531 0.9297 0.4531 0.2617 0 0.5781-0.1055 0.5781-0.4336 0-0.3008-0.2773-0.3906-0.8281-0.5195-0.5391-0.1289-1.074-0.3477-1.074-1.027 0-0.8086 0.7266-1.156 1.445-1.156 0.5195 0 1.062 0.1836 1.359 0.5508l-0.5898 0.5234" fill="#231f1f"/>
<path d="m224.4 165.4h0.9492v4.5h2.273v0.8477h-3.223v-5.348" fill="#231f1f"/>
<path d="m230.7 168.6c0-0.4688-0.2656-0.875-0.8555-0.875-0.5352 0-0.9648 0.3711-1.004 0.875zm0.8984 0.6484h-2.758c0.03906 0.5156 0.5078 0.8945 1.035 0.8945 0.4531 0 0.7578-0.1836 0.9609-0.4688l0.6016 0.4805c-0.3555 0.4844-0.8672 0.7266-1.555 0.7266-1.117 0-1.949-0.7188-1.949-1.895 0-1.172 0.8242-1.941 1.918-1.941 1.012 0 1.754 0.6562 1.754 1.965 0 0.08203 0 0.1562-0.007813 0.2383" fill="#231f1f"/>
<path d="m232.4 167.1h0.8633v0.582h0.01562c0.1562-0.3633 0.5859-0.6875 1.125-0.6875 0.9453 0 1.336 0.7227 1.336 1.465v2.266h-0.9062v-2.008c0-0.4297-0.09766-0.9688-0.6797-0.9688-0.5742 0-0.8477 0.5-0.8477 0.9805v1.996h-0.9062v-3.625" fill="#231f1f"/>
<path d="m238.8 168.1c-0.1562-0.2109-0.4609-0.3906-0.793-0.3906-0.2852 0-0.582 0.1055-0.582 0.3906 0 0.2812 0.2812 0.3555 0.7852 0.4766 0.5391 0.1289 1.172 0.3711 1.172 1.082 0 0.8828-0.7148 1.207-1.508 1.207-0.5625 0-1.145-0.2109-1.488-0.5977l0.5938-0.5586c0.1992 0.2578 0.5391 0.4531 0.9297 0.4531 0.2656 0 0.582-0.1055 0.582-0.4297 0-0.3008-0.2812-0.3945-0.832-0.5195-0.5352-0.1289-1.07-0.3477-1.07-1.027 0-0.8086 0.7227-1.156 1.441-1.156 0.5234 0 1.066 0.1797 1.359 0.5508l-0.5898 0.5195" fill="#231f1f"/>
</svg>
