<?xml version="1.0" encoding="UTF-8"?>
<svg width="115.6pt" height="212.8pt" version="1.1" viewBox="0 0 115.6 212.8" xmlns="http://www.w3.org/2000/svg">
<defs>
<clipPath id="e">
<path d="m0 161h115.6v51.77h-115.6z"/>
</clipPath>
<clipPath id="d">
<path d="m0 160h115.6v52.77h-115.6z"/>
</clipPath>
<clipPath id="c">
<path d="m0 101h115.6v41h-115.6z"/>
</clipPath>
<clipPath id="b">
<path d="m0 40h115.6v40h-115.6z"/>
</clipPath>
<clipPath id="a">
<path d="m0 39h115.6v42h-115.6z"/>
</clipPath>
</defs>
<path transform="matrix(.1 0 0 -.1 0 212.8)" d="m577.5 1958v-175" fill="none" stroke="#231f1f" stroke-width="5"/>
<path d="m57.75 38.14c-0.6328-1.703-1.711-3.82-2.852-5.129l2.852 1.031 2.852-1.031c-1.141 1.309-2.219 3.426-2.852 5.129" fill="#231f1f"/>
<path transform="matrix(.1 0 0 -.1 0 212.8)" d="m577.5 1325v-175" fill="none" stroke="#231f1f" stroke-width="5"/>
<path d="m57.75 101.4c-0.6328-1.703-1.711-3.82-2.852-5.129l2.852 1.031 2.852-1.031c-1.141 1.309-2.219 3.426-2.852 5.129" fill="#231f1f"/>
<g clip-path="url(#e)">
<path d="m115.3 212.5h-115v-51.27h115v51.27" fill="#fef0ca"/>
</g>
<g clip-path="url(#d)">
<path transform="matrix(.1 0 0 -.1 0 212.8)" d="m1153 2.505h-1150v512.7h1150z" fill="none" stroke="#231f1f" stroke-width="5"/>
</g>
<path d="m9.676 174.6h1.855l-0.9258-2.324zm-0.7422 1.828h-0.7695l2.148-4.957h0.6289l2.133 4.957h-0.7852l-0.5078-1.215h-2.352l-0.4961 1.215" fill="#231f1f"/>
<path d="m15.46 173.9c-0.1484-0.2383-0.4336-0.4141-0.7695-0.4141-0.3008 0-0.6172 0.1211-0.6172 0.4336 0 0.2812 0.2539 0.3867 0.7578 0.4961 0.6289 0.1406 1.113 0.4023 1.113 0.9844 0 0.7812-0.6523 1.07-1.324 1.07-0.5039 0-1.023-0.1953-1.34-0.5977l0.4727-0.3984c0.1719 0.2617 0.5078 0.4648 0.8789 0.4648 0.332 0 0.6602-0.1211 0.6602-0.4844 0-0.3086-0.3008-0.4219-0.8672-0.5547-0.4414-0.1055-0.9688-0.293-0.9688-0.918 0-0.7148 0.625-1.016 1.254-1.016 0.4688 0 0.9648 0.1914 1.203 0.5469l-0.4531 0.3867" fill="#231f1f"/>
<path d="m18.57 173.9c-0.1484-0.2383-0.4375-0.4141-0.7734-0.4141-0.3008 0-0.6133 0.1211-0.6133 0.4336 0 0.2812 0.25 0.3867 0.7539 0.4961 0.6328 0.1406 1.113 0.4023 1.113 0.9844 0 0.7812-0.6484 1.07-1.324 1.07-0.5039 0-1.02-0.1953-1.336-0.5977l0.4688-0.3984c0.1758 0.2617 0.5117 0.4648 0.8828 0.4648 0.3281 0 0.6602-0.1211 0.6602-0.4844 0-0.3086-0.3047-0.4219-0.8711-0.5547-0.4414-0.1055-0.9648-0.293-0.9648-0.918 0-0.7148 0.6211-1.016 1.254-1.016 0.4688 0 0.9648 0.1914 1.203 0.5469l-0.4531 0.3867" fill="#231f1f"/>
<path d="m22.32 174.4c-0.01172-0.5234-0.3203-0.9375-0.9297-0.9375-0.5664 0-1 0.4219-1.043 0.9375zm0.6602 0.4922h-2.633c0.01953 0.5664 0.4961 1.008 1.078 1.008 0.4492 0 0.7773-0.2227 0.9648-0.5039l0.4648 0.3711c-0.3594 0.4609-0.8398 0.6797-1.43 0.6797-1.008 0-1.75-0.6992-1.75-1.746 0-1.035 0.7422-1.758 1.715-1.758 0.9805 0 1.598 0.668 1.598 1.723 0 0.07031 0 0.1484-0.007813 0.2266" fill="#231f1f"/>
<path d="m25.69 173.9c-0.1484-0.2383-0.4336-0.4141-0.7695-0.4141-0.3008 0-0.6172 0.1211-0.6172 0.4336 0 0.2812 0.25 0.3867 0.7578 0.4961 0.6289 0.1406 1.113 0.4023 1.113 0.9844 0 0.7812-0.6523 1.07-1.324 1.07-0.5039 0-1.023-0.1953-1.34-0.5977l0.4688-0.3984c0.1758 0.2617 0.5117 0.4648 0.8828 0.4648 0.332 0 0.6602-0.1211 0.6602-0.4844 0-0.3086-0.3008-0.4219-0.8672-0.5547-0.4414-0.1055-0.9688-0.293-0.9688-0.918 0-0.7148 0.625-1.016 1.254-1.016 0.4688 0 0.9688 0.1914 1.207 0.5469l-0.457 0.3867" fill="#231f1f"/>
<path d="m28.8 173.9c-0.1484-0.2383-0.4375-0.4141-0.7734-0.4141-0.3008 0-0.6133 0.1211-0.6133 0.4336 0 0.2812 0.25 0.3867 0.7539 0.4961 0.6328 0.1406 1.113 0.4023 1.113 0.9844 0 0.7812-0.6484 1.07-1.32 1.07-0.5078 0-1.023-0.1953-1.34-0.5977l0.4688-0.3984c0.1758 0.2617 0.5117 0.4648 0.8828 0.4648 0.3281 0 0.6602-0.1211 0.6602-0.4844 0-0.3086-0.3008-0.4219-0.8711-0.5547-0.4414-0.1055-0.9648-0.293-0.9648-0.918 0-0.7148 0.6211-1.016 1.254-1.016 0.4688 0 0.9648 0.1914 1.203 0.5469l-0.4531 0.3867" fill="#231f1f"/>
<path d="m33.42 175.5h0.02344l1.492-4.062h0.7461l-1.945 4.957h-0.6445l-1.934-4.957h0.7695l1.492 4.062" fill="#231f1f"/>
<path d="m38.37 174.4c-0.01172-0.5234-0.3203-0.9375-0.9297-0.9375-0.5664 0-1.004 0.4219-1.043 0.9375zm0.6602 0.4922h-2.633c0.01953 0.5664 0.4961 1.008 1.078 1.008 0.4492 0 0.7773-0.2227 0.9648-0.5039l0.4648 0.3711c-0.3594 0.4609-0.8438 0.6797-1.43 0.6797-1.008 0-1.75-0.6992-1.75-1.746 0-1.035 0.7422-1.758 1.715-1.758 0.9805 0 1.598 0.668 1.598 1.723 0 0.07031 0 0.1484-0.007812 0.2266" fill="#231f1f"/>
<path d="m40.54 173.1c0.01562 0.1641 0.03125 0.4062 0.03125 0.5469h0.01953c0.1602-0.3594 0.6016-0.6406 1.078-0.6406 0.8555 0 1.238 0.6094 1.238 1.352v2.059h-0.6562v-1.84c0-0.5391-0.1484-1.016-0.7578-1.016-0.5156 0-0.8867 0.4336-0.8867 1.094v1.762h-0.6602v-2.602c0-0.1758-0.007813-0.5-0.02734-0.7148h0.6211" fill="#231f1f"/>
<path d="m45.65 173.6h-0.8828v1.73c0 0.3984 0.1406 0.5586 0.4688 0.5586 0.1211 0 0.2734-0.02734 0.3867-0.08594l0.01953 0.5391c-0.1523 0.05859-0.3555 0.09375-0.5586 0.09375-0.625 0-0.9688-0.3516-0.9688-1.035v-1.801h-0.6367v-0.5391h0.6367v-0.9531h0.6523v0.9531h0.8828v0.5391" fill="#231f1f"/>
<path d="m46.99 176.4h-0.6602v-3.316h0.6602zm-0.3281-4.094c-0.2383 0-0.4375-0.1914-0.4375-0.4219 0-0.2383 0.1992-0.4258 0.4375-0.4258 0.2383 0 0.4375 0.1797 0.4375 0.4258 0 0.2383-0.1992 0.4219-0.4375 0.4219" fill="#231f1f"/>
<path d="m48.81 176.4h-0.6602v-5.293h0.6602v5.293" fill="#231f1f"/>
<path d="m51.86 174.8c-0.6484 0-1.477 0.07031-1.477 0.6328 0 0.3906 0.3477 0.5156 0.6797 0.5156 0.6172 0 0.9609-0.4102 0.9609-0.9727v-0.1758zm0.1641-0.5664c0-0.4883-0.332-0.7266-0.8203-0.7266-0.3711 0-0.7227 0.1602-0.9453 0.3828l-0.3516-0.418c0.3203-0.3086 0.8203-0.5 1.359-0.5 0.9531 0 1.387 0.5703 1.387 1.305v1.449c0 0.2227 0.01172 0.4961 0.04688 0.6562h-0.5938c-0.03516-0.1445-0.05469-0.3203-0.05469-0.4727h-0.02344c-0.2383 0.3555-0.6172 0.5586-1.113 0.5586-0.5234 0-1.203-0.2578-1.203-1.023 0-1 1.191-1.121 2.312-1.121v-0.08984" fill="#231f1f"/>
<path d="m55.31 173.6h-0.8828v1.73c0 0.3984 0.1406 0.5586 0.4688 0.5586 0.1211 0 0.2734-0.02734 0.3867-0.08594l0.01953 0.5391c-0.1523 0.05859-0.3555 0.09375-0.5586 0.09375-0.625 0-0.9688-0.3516-0.9688-1.035v-1.801h-0.6367v-0.5391h0.6367v-0.9531h0.6523v0.9531h0.8828v0.5391" fill="#231f1f"/>
<path d="m56.65 176.4h-0.6602v-3.316h0.6602zm-0.3281-4.094c-0.2383 0-0.4375-0.1914-0.4375-0.4219 0-0.2383 0.1992-0.4258 0.4375-0.4258 0.2344 0 0.4414 0.1797 0.4414 0.4258 0 0.2383-0.207 0.4219-0.4414 0.4219" fill="#231f1f"/>
<path d="m59.37 173.5c-0.707 0-1.105 0.5664-1.105 1.199 0 0.6289 0.3984 1.203 1.105 1.203 0.7148 0 1.105-0.5742 1.105-1.203 0-0.6328-0.3906-1.199-1.105-1.199zm0 2.957c-1.016 0-1.785-0.7344-1.785-1.758 0-1.023 0.7695-1.746 1.785-1.746 1.016 0 1.793 0.7227 1.793 1.746 0 1.023-0.7773 1.758-1.793 1.758" fill="#231f1f"/>
<path d="m62.66 173.1c0.01563 0.1641 0.02734 0.4062 0.02734 0.5469h0.02344c0.1602-0.3594 0.6016-0.6406 1.078-0.6406 0.8555 0 1.238 0.6094 1.238 1.352v2.059h-0.6602v-1.84c0-0.5391-0.1445-1.016-0.7539-1.016-0.5195 0-0.8906 0.4336-0.8906 1.094v1.762h-0.6562v-2.602c0-0.1758-0.007812-0.5-0.03125-0.7148h0.625" fill="#231f1f"/>
<path d="m9.879 181.1c0.6875 0 1.238 0.5547 1.238 1.238 0 0.6875-0.5508 1.242-1.238 1.242s-1.242-0.5547-1.242-1.242c0-0.6836 0.5547-1.238 1.242-1.238" fill="#231f1f"/>
<path d="m14.67 182h0.8008c0.6484 0 1.16-0.2031 1.16-0.7969 0-0.5977-0.5117-0.7852-1.113-0.7852h-0.8477zm0 2.789h-0.6914v-4.957h1.59c0.9609 0 1.766 0.3633 1.766 1.371 0 0.7266-0.5 1.191-1.207 1.309l1.387 2.277h-0.8398l-1.262-2.207h-0.7422v2.207" fill="#231f1f"/>
<path d="m20.59 182.8c-0.01562-0.5273-0.3242-0.9414-0.9336-0.9414-0.5664 0-1 0.4219-1.043 0.9414zm0.6562 0.4883h-2.633c0.02344 0.5664 0.4961 1.008 1.078 1.008 0.4492 0 0.7773-0.2227 0.9688-0.5039l0.4609 0.3711c-0.3555 0.4648-0.8398 0.6797-1.43 0.6797-1.008 0-1.75-0.6992-1.75-1.742 0-1.039 0.7422-1.758 1.715-1.758 0.9805 0 1.598 0.6641 1.598 1.723 0 0.07031 0 0.1484-0.007812 0.2227" fill="#231f1f"/>
<path d="m23.96 182.3c-0.1484-0.2383-0.4375-0.4141-0.7734-0.4141-0.3008 0-0.6133 0.1211-0.6133 0.4375 0 0.2773 0.25 0.3828 0.7539 0.4961 0.6328 0.1406 1.113 0.3984 1.113 0.9805 0 0.7852-0.6523 1.07-1.324 1.07-0.5039 0-1.023-0.1953-1.336-0.5938l0.4688-0.3984c0.1758 0.2578 0.5117 0.4609 0.8828 0.4609 0.3281 0 0.6562-0.1211 0.6562-0.4844 0-0.3086-0.3008-0.418-0.8672-0.5508-0.4414-0.1055-0.9648-0.2969-0.9648-0.918 0-0.7148 0.6211-1.016 1.254-1.016 0.4688 0 0.9648 0.1875 1.203 0.5469l-0.4531 0.3828" fill="#231f1f"/>
<path d="m27.02 181.9c-0.6719 0-1.121 0.5664-1.121 1.203s0.4492 1.199 1.121 1.199c0.7188 0 1.105-0.582 1.105-1.207 0-0.6211-0.3867-1.195-1.105-1.195zm-1.078 4.543h-0.6602v-5h0.6445v0.5195h0.01953c0.2188-0.3516 0.6523-0.6094 1.199-0.6094 0.9883 0 1.66 0.7617 1.66 1.742 0 0.9727-0.6523 1.758-1.676 1.758-0.4688 0-0.9219-0.2148-1.168-0.5859h-0.01953v2.176" fill="#231f1f"/>
<path d="m30.38 184.8h-0.6602v-3.32h0.6602zm-0.332-4.098c-0.2383 0-0.4336-0.1875-0.4336-0.4219s0.1953-0.4258 0.4336-0.4258 0.4414 0.1836 0.4414 0.4258c0 0.2383-0.2031 0.4219-0.4414 0.4219" fill="#231f1f"/>
<path d="m31.5 181.5h0.625c0.01172 0.168 0.02734 0.4219 0.02734 0.5625h0.01953c0.1836-0.3867 0.5664-0.6523 1.016-0.6523 0.09375 0 0.1836 0.003906 0.2617 0.02734l-0.03125 0.6094c-0.08203-0.01953-0.1953-0.03516-0.3008-0.03516-0.6289 0-0.9297 0.5117-0.9297 1.066v1.742h-0.6602v-2.605c0-0.1758-0.003906-0.4961-0.02734-0.7148" fill="#231f1f"/>
<path d="m35.88 183.2c-0.6484 0-1.477 0.07031-1.477 0.6289 0 0.3906 0.3516 0.5195 0.6797 0.5195 0.6172 0 0.9609-0.4141 0.9609-0.9727v-0.1758zm0.1641-0.5703c0-0.4883-0.332-0.7266-0.8203-0.7266-0.3711 0-0.7227 0.1602-0.9453 0.3867l-0.3516-0.4219c0.3242-0.3086 0.8203-0.4961 1.359-0.4961 0.9531 0 1.387 0.5664 1.387 1.301v1.449c0 0.2266 0.01562 0.5 0.05078 0.6602h-0.5977c-0.03516-0.1484-0.05469-0.3242-0.05469-0.4766h-0.02344c-0.2383 0.3555-0.6133 0.5586-1.113 0.5586-0.5234 0-1.203-0.2578-1.203-1.02 0-1.004 1.191-1.121 2.312-1.121v-0.09375" fill="#231f1f"/>
<path d="m39.32 182h-0.8828v1.73c0 0.3984 0.1406 0.5586 0.4688 0.5586 0.1211 0 0.2734-0.02734 0.3867-0.08203l0.01953 0.5391c-0.1523 0.05469-0.3555 0.08984-0.5586 0.08984-0.625 0-0.9688-0.3477-0.9688-1.035v-1.801h-0.6367v-0.5391h0.6367v-0.9531h0.6523v0.9531h0.8828v0.5391" fill="#231f1f"/>
<path d="m41.57 181.9c-0.707 0-1.105 0.5664-1.105 1.195 0 0.6328 0.3984 1.207 1.105 1.207 0.7148 0 1.105-0.5742 1.105-1.207 0-0.6289-0.3906-1.195-1.105-1.195zm0 2.953c-1.016 0-1.785-0.7344-1.785-1.758 0-1.023 0.7695-1.742 1.785-1.742s1.793 0.7188 1.793 1.742c0 1.023-0.7773 1.758-1.793 1.758" fill="#231f1f"/>
<path d="m44.24 181.5h0.625c0.01562 0.168 0.02734 0.4219 0.02734 0.5625h0.02344c0.1797-0.3867 0.5664-0.6523 1.016-0.6523 0.08984 0 0.1797 0.003906 0.2578 0.02734l-0.02734 0.6094c-0.08594-0.01953-0.1953-0.03516-0.3008-0.03516-0.6328 0-0.9336 0.5117-0.9336 1.066v1.742h-0.6562v-2.605c0-0.1758-0.007812-0.4961-0.03125-0.7148" fill="#231f1f"/>
<path d="m48.06 184.1h0.01562l0.918-2.605h0.6992l-1.609 4.105c-0.2188 0.5508-0.5 0.8945-1.152 0.8945-0.1367 0-0.2852-0.01172-0.4336-0.04687l0.06641-0.582c0.1016 0.03516 0.2227 0.05469 0.3281 0.05469 0.3438 0 0.4766-0.1953 0.6172-0.5547l0.207-0.5508-1.422-3.32h0.7383l1.027 2.605" fill="#231f1f"/>
<path d="m53.64 184.3c0.6758 0 1.121-0.5625 1.121-1.199s-0.4453-1.203-1.121-1.203c-0.7188 0-1.098 0.5742-1.098 1.195 0 0.625 0.3789 1.207 1.098 1.207zm-0.1094 0.5508c-1.023 0-1.676-0.7852-1.676-1.758 0-0.9805 0.6719-1.742 1.668-1.742 0.5391 0 0.9531 0.2656 1.184 0.5859h0.01172v-2.473h0.6602v5.297h-0.6367v-0.5273h-0.01563c-0.25 0.4023-0.7266 0.6172-1.195 0.6172" fill="#231f1f"/>
<path d="m56.5 181.5h0.625c0.01562 0.168 0.02734 0.4219 0.02734 0.5625h0.01953c0.1836-0.3867 0.5703-0.6523 1.016-0.6523 0.09375 0 0.1836 0.003906 0.2617 0.02734l-0.02734 0.6094c-0.08594-0.01953-0.1992-0.03516-0.3047-0.03516-0.6289 0-0.9297 0.5117-0.9297 1.066v1.742h-0.6562v-2.605c0-0.1758-0.007813-0.4961-0.03125-0.7148" fill="#231f1f"/>
<path d="m59.72 184.8h-0.6562v-3.32h0.6562zm-0.3281-4.098c-0.2383 0-0.4336-0.1875-0.4336-0.4219s0.1953-0.4258 0.4336-0.4258 0.4414 0.1836 0.4414 0.4258c0 0.2383-0.2031 0.4219-0.4414 0.4219" fill="#231f1f"/>
<path d="m62.43 184.8h-0.7148l-1.352-3.32h0.7305l0.9727 2.613h0.01563l0.9805-2.613h0.6992l-1.332 3.32" fill="#231f1f"/>
<path d="m66.83 182.8c-0.01562-0.5273-0.3242-0.9414-0.9336-0.9414-0.5664 0-1 0.4219-1.043 0.9414zm0.6562 0.4883h-2.633c0.01953 0.5664 0.4961 1.008 1.078 1.008 0.4492 0 0.7773-0.2227 0.9688-0.5039l0.4609 0.3711c-0.3555 0.4648-0.8398 0.6797-1.43 0.6797-1.008 0-1.75-0.6992-1.75-1.742 0-1.039 0.7422-1.758 1.715-1.758 0.9805 0 1.598 0.6641 1.598 1.723 0 0.07031 0 0.1484-0.007813 0.2227" fill="#231f1f"/>
<path d="m72.07 183.2c-0.6523 0-1.477 0.07031-1.477 0.6289 0 0.3906 0.3477 0.5195 0.6797 0.5195 0.6133 0 0.957-0.4141 0.957-0.9727v-0.1758zm0.1602-0.5703c0-0.4883-0.3281-0.7266-0.8203-0.7266-0.3711 0-0.7188 0.1602-0.9453 0.3867l-0.3477-0.4219c0.3203-0.3086 0.8164-0.4961 1.359-0.4961 0.9492 0 1.387 0.5664 1.387 1.301v1.449c0 0.2266 0.01172 0.5 0.04688 0.6602h-0.5938c-0.03516-0.1484-0.05859-0.3242-0.05859-0.4766h-0.01953c-0.2383 0.3555-0.6172 0.5586-1.113 0.5586-0.5273 0-1.207-0.2578-1.207-1.02 0-1.004 1.191-1.121 2.312-1.121v-0.09375" fill="#231f1f"/>
<path d="m75.52 184.3c0.6758 0 1.121-0.5625 1.121-1.199s-0.4453-1.203-1.121-1.203c-0.7188 0-1.098 0.5742-1.098 1.195 0 0.625 0.3789 1.207 1.098 1.207zm-0.1094 0.5508c-1.023 0-1.676-0.7852-1.676-1.758 0-0.9805 0.6719-1.742 1.668-1.742 0.5391 0 0.9531 0.2656 1.184 0.5859h0.01172v-2.473h0.6602v5.297h-0.6367v-0.5273h-0.01563c-0.25 0.4023-0.7266 0.6172-1.195 0.6172" fill="#231f1f"/>
<path d="m80.83 182.8c-0.01562-0.5273-0.3242-0.9414-0.9336-0.9414-0.5664 0-1 0.4219-1.043 0.9414zm0.6562 0.4883h-2.633c0.01953 0.5664 0.4961 1.008 1.078 1.008 0.4492 0 0.7773-0.2227 0.9688-0.5039l0.4609 0.3711c-0.3594 0.4648-0.8398 0.6797-1.43 0.6797-1.008 0-1.75-0.6992-1.75-1.742 0-1.039 0.7422-1.758 1.715-1.758 0.9805 0 1.598 0.6641 1.598 1.723 0 0.07031 0 0.1484-0.007813 0.2227" fill="#231f1f"/>
<path d="m83.97 184.3c0.6719 0 1.121-0.5625 1.121-1.199s-0.4492-1.203-1.121-1.203c-0.7227 0-1.098 0.5742-1.098 1.195 0 0.625 0.375 1.207 1.098 1.207zm1.066-0.03516c-0.2461 0.3711-0.707 0.5859-1.18 0.5859-1.02 0-1.672-0.7852-1.672-1.758 0-0.9805 0.6719-1.742 1.668-1.742 0.5391 0 0.9727 0.2578 1.195 0.6094h0.02344v-0.5195h0.6367v5h-0.6602v-2.176h-0.01172" fill="#231f1f"/>
<path d="m89.18 184.8c-0.01172-0.168-0.02734-0.4062-0.02734-0.5469h-0.01172c-0.168 0.3516-0.6055 0.6367-1.086 0.6367-0.8555 0-1.242-0.6094-1.242-1.352v-2.059h0.6602v1.836c0 0.5469 0.1484 1.023 0.7578 1.023 0.5234 0 0.8867-0.4375 0.8867-1.094v-1.766h0.6602v2.605c0 0.1758 0.007812 0.4961 0.02734 0.7148h-0.625" fill="#231f1f"/>
<path d="m92.82 183.2c-0.6523 0-1.477 0.07031-1.477 0.6289 0 0.3906 0.3516 0.5195 0.6797 0.5195 0.6172 0 0.957-0.4141 0.957-0.9727v-0.1758zm0.1602-0.5703c0-0.4883-0.3281-0.7266-0.8164-0.7266-0.3711 0-0.7227 0.1602-0.9453 0.3867l-0.3516-0.4219c0.3203-0.3086 0.8203-0.4961 1.359-0.4961 0.9531 0 1.387 0.5664 1.387 1.301v1.449c0 0.2266 0.01172 0.5 0.04688 0.6602h-0.5938c-0.03516-0.1484-0.05469-0.3242-0.05469-0.4766h-0.02344c-0.2383 0.3555-0.6172 0.5586-1.113 0.5586-0.5234 0-1.203-0.2578-1.203-1.02 0-1.004 1.188-1.121 2.309-1.121v-0.09375" fill="#231f1f"/>
<path d="m96.27 182h-0.8828v1.73c0 0.3984 0.1406 0.5586 0.4688 0.5586 0.1172 0 0.2734-0.02734 0.3867-0.08203l0.01953 0.5391c-0.1523 0.05469-0.3555 0.08984-0.5586 0.08984-0.625 0-0.9688-0.3477-0.9688-1.035v-1.801h-0.6367v-0.5391h0.6367v-0.9531h0.6523v0.9531h0.8828v0.5391" fill="#231f1f"/>
<path d="m99.37 182.8c-0.01172-0.5273-0.3203-0.9414-0.9297-0.9414-0.5664 0-1 0.4219-1.043 0.9414zm0.6602 0.4883h-2.633c0.01953 0.5664 0.4961 1.008 1.078 1.008 0.4492 0 0.7773-0.2227 0.9688-0.5039l0.4609 0.3711c-0.3594 0.4648-0.8398 0.6797-1.43 0.6797-1.008 0-1.75-0.6992-1.75-1.742 0-1.039 0.7422-1.758 1.715-1.758 0.9805 0 1.598 0.6641 1.598 1.723 0 0.07031 0 0.1484-0.007812 0.2227" fill="#231f1f"/>
<path d="m102.2 184.8c-0.2578 0-0.4688-0.2109-0.4688-0.457 0-0.25 0.2031-0.4609 0.4688-0.4609 0.2695 0 0.4727 0.2031 0.4727 0.4531 0 0.2461-0.2031 0.4648-0.4727 0.4648zm0.2969-1.449h-0.6602v-0.3359c0-0.4922 0.1914-0.75 0.5117-1.047l0.2578-0.2422c0.2031-0.1758 0.3594-0.375 0.3594-0.6953 0-0.4492-0.3164-0.7344-0.7656-0.7344-0.4609 0-0.7617 0.3438-0.8047 0.7695l-0.6719-0.07812c0.1211-0.8047 0.7266-1.293 1.52-1.293 0.7773 0 1.422 0.4531 1.422 1.293 0 0.5977-0.2734 0.8633-0.6719 1.199-0.3789 0.3203-0.4961 0.4531-0.4961 0.918v0.2461" fill="#231f1f"/>
<path d="m9.879 189.5c0.6875 0 1.238 0.5547 1.238 1.242 0 0.6836-0.5508 1.238-1.238 1.238s-1.242-0.5547-1.242-1.238c0-0.6875 0.5547-1.242 1.242-1.242" fill="#231f1f"/>
<path d="m16.54 192h0.01562l1.461-3.809h1.078v4.957h-0.6914v-4.145h-0.01562l-1.645 4.145h-0.4414l-1.641-4.145h-0.01172v4.145h-0.6719v-4.957h1.078l1.484 3.809" fill="#231f1f"/>
<path d="m20.93 193.2h-0.6562v-3.32h0.6562zm-0.3281-4.098c-0.2383 0-0.4336-0.1875-0.4336-0.418 0-0.2383 0.1953-0.4258 0.4336-0.4258 0.2383 0 0.4414 0.1797 0.4414 0.4258 0 0.2383-0.2031 0.418-0.4414 0.418" fill="#231f1f"/>
<path d="m22.67 189.9c0.01562 0.1719 0.03125 0.4062 0.03125 0.5469h0.01953c0.1602-0.3555 0.6016-0.6367 1.078-0.6367 0.8555 0 1.242 0.6094 1.242 1.352v2.059h-0.6602v-1.84c0-0.5391-0.1484-1.016-0.7578-1.016-0.5156 0-0.8867 0.4336-0.8867 1.094v1.762h-0.6602v-2.605c0-0.1719-0.007813-0.4961-0.02734-0.7148h0.6211" fill="#231f1f"/>
<path d="m28.49 193.2c-0.01563-0.168-0.02734-0.4062-0.02734-0.5469h-0.01562c-0.168 0.3516-0.6016 0.6406-1.086 0.6406-0.8516 0-1.238-0.6094-1.238-1.352v-2.062h0.6562v1.836c0 0.5469 0.1484 1.023 0.7578 1.023 0.5273 0 0.8906-0.4336 0.8906-1.094v-1.766h0.6562v2.605c0 0.1758 0.007812 0.5 0.02734 0.7148h-0.6211" fill="#231f1f"/>
<path d="m31.85 190.4h-0.8828v1.727c0 0.4023 0.1406 0.5625 0.4688 0.5625 0.1211 0 0.2734-0.02734 0.3867-0.08594l0.01953 0.5391c-0.1523 0.05859-0.3555 0.09375-0.5586 0.09375-0.625 0-0.9688-0.3516-0.9688-1.039v-1.797h-0.6367v-0.543h0.6367v-0.9492h0.6523v0.9492h0.8828v0.543" fill="#231f1f"/>
<path d="m34.96 191.2c-0.01563-0.5234-0.3242-0.9375-0.9336-0.9375-0.5664 0-1 0.418-1.043 0.9375zm0.6562 0.4922h-2.633c0.02344 0.5664 0.4961 1.008 1.078 1.008 0.4492 0 0.7773-0.2266 0.9688-0.5039l0.4609 0.3711c-0.3555 0.4609-0.8398 0.6797-1.43 0.6797-1.008 0-1.75-0.7031-1.75-1.746 0-1.035 0.7422-1.758 1.715-1.758 0.9805 0 1.598 0.6641 1.598 1.723 0 0.07031 0 0.1484-0.007812 0.2266" fill="#231f1f"/>
<path d="m39.85 193.2h-0.7148l-1.352-3.32h0.7305l0.9727 2.613h0.01562l0.9766-2.613h0.7031l-1.332 3.32" fill="#231f1f"/>
<path d="m44.25 191.2c-0.01562-0.5234-0.3242-0.9375-0.9336-0.9375-0.5664 0-1 0.418-1.043 0.9375zm0.6562 0.4922h-2.633c0.01953 0.5664 0.4961 1.008 1.078 1.008 0.4492 0 0.7773-0.2266 0.9688-0.5039l0.4609 0.3711c-0.3594 0.4609-0.8398 0.6797-1.43 0.6797-1.008 0-1.75-0.7031-1.75-1.746 0-1.035 0.7422-1.758 1.715-1.758 0.9805 0 1.598 0.6641 1.598 1.723 0 0.07031 0 0.1484-0.007812 0.2266" fill="#231f1f"/>
<path d="m46.43 189.9c0.01172 0.1719 0.02734 0.4062 0.02734 0.5469h0.01953c0.1641-0.3555 0.6055-0.6367 1.078-0.6367 0.8555 0 1.242 0.6094 1.242 1.352v2.059h-0.6602v-1.84c0-0.5391-0.1484-1.016-0.7539-1.016-0.5195 0-0.8906 0.4336-0.8906 1.094v1.762h-0.6602v-2.605c0-0.1719-0.003906-0.4961-0.02734-0.7148h0.625" fill="#231f1f"/>
<path d="m51.53 190.4h-0.8828v1.727c0 0.4023 0.1406 0.5625 0.4688 0.5625 0.1211 0 0.2734-0.02734 0.3867-0.08594l0.01953 0.5391c-0.1523 0.05859-0.3555 0.09375-0.5586 0.09375-0.625 0-0.9688-0.3516-0.9688-1.039v-1.797h-0.6367v-0.543h0.6367v-0.9492h0.6523v0.9492h0.8828v0.543" fill="#231f1f"/>
<path d="m52.87 193.2h-0.6562v-3.32h0.6562zm-0.3281-4.098c-0.2383 0-0.4336-0.1875-0.4336-0.418 0-0.2383 0.1953-0.4258 0.4336-0.4258s0.4414 0.1797 0.4414 0.4258c0 0.2383-0.2031 0.418-0.4414 0.418" fill="#231f1f"/>
<path d="m54.69 193.2h-0.6602v-5.293h0.6602v5.293" fill="#231f1f"/>
<path d="m57.74 191.6c-0.6484 0-1.477 0.07031-1.477 0.6289 0 0.3945 0.3516 0.5195 0.6797 0.5195 0.6172 0 0.9609-0.4141 0.9609-0.9727v-0.1758zm0.1641-0.5664c0-0.4922-0.3281-0.7305-0.8203-0.7305-0.3711 0-0.7227 0.1641-0.9453 0.3867l-0.3516-0.4219c0.3242-0.3086 0.8203-0.4961 1.359-0.4961 0.9531 0 1.387 0.5664 1.387 1.305v1.449c0 0.2227 0.01562 0.4961 0.05078 0.6562h-0.5977c-0.03516-0.1445-0.05469-0.3203-0.05469-0.4766h-0.02344c-0.2344 0.3594-0.6133 0.5625-1.113 0.5625-0.5234 0-1.203-0.2617-1.203-1.023 0-1 1.191-1.121 2.312-1.121v-0.08984" fill="#231f1f"/>
<path d="m61.19 190.4h-0.8828v1.727c0 0.4023 0.1406 0.5625 0.4688 0.5625 0.1211 0 0.2734-0.02734 0.3867-0.08594l0.01953 0.5391c-0.1523 0.05859-0.3555 0.09375-0.5586 0.09375-0.625 0-0.9648-0.3516-0.9648-1.039v-1.797h-0.6406v-0.543h0.6406v-0.9492h0.6484v0.9492h0.8828v0.543" fill="#231f1f"/>
<path d="m62.53 193.2h-0.6602v-3.32h0.6602zm-0.3281-4.098c-0.2383 0-0.4336-0.1875-0.4336-0.418 0-0.2383 0.1953-0.4258 0.4336-0.4258s0.4414 0.1797 0.4414 0.4258c0 0.2383-0.2031 0.418-0.4414 0.418" fill="#231f1f"/>
<path d="m65.25 190.3c-0.707 0-1.105 0.5664-1.105 1.199 0 0.6289 0.3984 1.203 1.105 1.203 0.7148 0 1.109-0.5742 1.109-1.203 0-0.6328-0.3945-1.199-1.109-1.199zm0 2.957c-1.016 0-1.785-0.7383-1.785-1.758 0-1.023 0.7695-1.746 1.785-1.746s1.793 0.7227 1.793 1.746c0 1.02-0.7773 1.758-1.793 1.758" fill="#231f1f"/>
<path d="m68.54 189.9c0.01562 0.1719 0.03125 0.4062 0.03125 0.5469h0.01953c0.1602-0.3555 0.6016-0.6367 1.078-0.6367 0.8555 0 1.238 0.6094 1.238 1.352v2.059h-0.6562v-1.84c0-0.5391-0.1484-1.016-0.7578-1.016-0.5195 0-0.8906 0.4336-0.8906 1.094v1.762h-0.6562v-2.605c0-0.1719-0.007813-0.4961-0.02734-0.7148h0.6211" fill="#231f1f"/>
<path d="m75.68 191.6c-0.6484 0-1.477 0.07031-1.477 0.6289 0 0.3945 0.3516 0.5195 0.6797 0.5195 0.6172 0 0.9609-0.4141 0.9609-0.9727v-0.1758zm0.1641-0.5664c0-0.4922-0.3281-0.7305-0.8203-0.7305-0.3711 0-0.7227 0.1641-0.9453 0.3867l-0.3516-0.4219c0.3242-0.3086 0.8203-0.4961 1.359-0.4961 0.9531 0 1.387 0.5664 1.387 1.305v1.449c0 0.2227 0.01562 0.4961 0.05078 0.6562h-0.5977c-0.03516-0.1445-0.05469-0.3203-0.05469-0.4766h-0.02344c-0.2344 0.3594-0.6133 0.5625-1.113 0.5625-0.5234 0-1.203-0.2617-1.203-1.023 0-1 1.191-1.121 2.312-1.121v-0.08984" fill="#231f1f"/>
<path d="m79.13 192.7c0.6719 0 1.121-0.5586 1.121-1.199 0-0.6367-0.4492-1.203-1.121-1.203-0.7227 0-1.102 0.5742-1.102 1.199 0 0.6211 0.3789 1.203 1.102 1.203zm-0.1133 0.5547c-1.023 0-1.672-0.7852-1.672-1.758 0-0.9805 0.6719-1.746 1.664-1.746 0.5391 0 0.9531 0.2656 1.188 0.5898h0.01172v-2.473h0.6602v5.293h-0.6406v-0.5234h-0.01172c-0.2539 0.3984-0.7305 0.6172-1.199 0.6172" fill="#231f1f"/>
<path d="m84.44 191.2c-0.01172-0.5234-0.3203-0.9375-0.9297-0.9375-0.5664 0-1.004 0.418-1.043 0.9375zm0.6602 0.4922h-2.633c0.01953 0.5664 0.4961 1.008 1.078 1.008 0.4453 0 0.7773-0.2266 0.9648-0.5039l0.4609 0.3711c-0.3555 0.4609-0.8398 0.6797-1.426 0.6797-1.012 0-1.754-0.7031-1.754-1.746 0-1.035 0.7422-1.758 1.719-1.758 0.9805 0 1.594 0.6641 1.594 1.723 0 0.07031 0 0.1484-0.003907 0.2266" fill="#231f1f"/>
<path d="m87.59 192.7c0.6719 0 1.121-0.5586 1.121-1.199 0-0.6367-0.4492-1.203-1.121-1.203-0.7227 0-1.102 0.5742-1.102 1.199 0 0.6211 0.3789 1.203 1.102 1.203zm1.062-0.03516c-0.2461 0.3711-0.707 0.5898-1.176 0.5898-1.023 0-1.676-0.7852-1.676-1.758 0-0.9805 0.6719-1.746 1.668-1.746 0.5391 0 0.9727 0.2617 1.199 0.6094h0.01953v-0.5195h0.6367v5.004h-0.6562v-2.18h-0.01562" fill="#231f1f"/>
<path d="m92.79 193.2c-0.01562-0.168-0.02734-0.4062-0.02734-0.5469h-0.01562c-0.168 0.3516-0.6016 0.6406-1.086 0.6406-0.8516 0-1.238-0.6094-1.238-1.352v-2.062h0.6602v1.836c0 0.5469 0.1445 1.023 0.7539 1.023 0.5273 0 0.8906-0.4336 0.8906-1.094v-1.766h0.6562v2.605c0 0.1758 0.007812 0.5 0.02734 0.7148h-0.6211" fill="#231f1f"/>
<path d="m96.43 191.6c-0.6523 0-1.48 0.07031-1.48 0.6289 0 0.3945 0.3516 0.5195 0.6797 0.5195 0.6172 0 0.9609-0.4141 0.9609-0.9727v-0.1758zm0.1602-0.5664c0-0.4922-0.3281-0.7305-0.8203-0.7305-0.3711 0-0.7227 0.1641-0.9453 0.3867l-0.3516-0.4219c0.3242-0.3086 0.8203-0.4961 1.359-0.4961 0.9531 0 1.387 0.5664 1.387 1.305v1.449c0 0.2227 0.01562 0.4961 0.05078 0.6562h-0.5977c-0.03125-0.1445-0.05469-0.3203-0.05469-0.4766h-0.01953c-0.2383 0.3594-0.6172 0.5625-1.113 0.5625-0.5273 0-1.207-0.2617-1.207-1.023 0-1 1.191-1.121 2.312-1.121v-0.08984" fill="#231f1f"/>
<path d="m99.88 190.4h-0.8828v1.727c0 0.4023 0.1406 0.5625 0.4727 0.5625 0.1172 0 0.2695-0.02734 0.3828-0.08594l0.02344 0.5391c-0.1562 0.05859-0.3594 0.09375-0.5625 0.09375-0.625 0-0.9648-0.3516-0.9648-1.039v-1.797h-0.6367v-0.543h0.6367v-0.9492h0.6484v0.9492h0.8828v0.543" fill="#231f1f"/>
<path d="m103 191.2c-0.01172-0.5234-0.3203-0.9375-0.9297-0.9375-0.5703 0-1.004 0.418-1.043 0.9375zm0.6602 0.4922h-2.633c0.01953 0.5664 0.4961 1.008 1.078 1.008 0.4453 0 0.7773-0.2266 0.9648-0.5039l0.4609 0.3711c-0.3555 0.4609-0.8398 0.6797-1.426 0.6797-1.012 0-1.75-0.7031-1.75-1.746 0-1.035 0.7383-1.758 1.715-1.758 0.9805 0 1.594 0.6641 1.594 1.723 0 0.07031 0 0.1484-0.003907 0.2266" fill="#231f1f"/>
<path d="m105.8 193.2c-0.2578 0-0.4688-0.2109-0.4688-0.457 0-0.25 0.2031-0.4609 0.4688-0.4609s0.4688 0.2031 0.4688 0.457c0 0.2422-0.2031 0.4609-0.4688 0.4609zm0.293-1.449h-0.6562v-0.3359c0-0.4922 0.1875-0.75 0.5117-1.043l0.2578-0.2461c0.2031-0.1758 0.3555-0.3711 0.3555-0.6914 0-0.4492-0.3125-0.7383-0.7617-0.7383-0.4609 0-0.7617 0.3438-0.8047 0.7695l-0.6719-0.07422c0.1172-0.8047 0.7266-1.297 1.52-1.297 0.7773 0 1.422 0.457 1.422 1.297 0 0.5938-0.2734 0.8594-0.6719 1.195-0.3789 0.3242-0.5 0.457-0.5 0.918v0.2461" fill="#231f1f"/>
<path d="m9.879 197.9c0.6875 0 1.238 0.5508 1.238 1.238s-0.5508 1.238-1.238 1.238-1.242-0.5508-1.242-1.238 0.5547-1.238 1.242-1.238" fill="#231f1f"/>
<path d="m14.8 199.8h1.855l-0.9258-2.328zm-0.7422 1.828h-0.7734l2.152-4.961h0.6289l2.129 4.961h-0.7852l-0.5039-1.219h-2.352l-0.4961 1.219" fill="#231f1f"/>
<path d="m19.52 201h0.8711c0.5859 0 1.23-0.1836 1.23-0.8555 0-0.582-0.4141-0.832-1.168-0.832h-0.9336zm0-2.277h0.9023c0.5352 0 0.9766-0.2305 0.9766-0.7695 0-0.5312-0.4297-0.7422-1.086-0.7422h-0.793zm-0.6914-2.094h1.707c0.75 0 1.555 0.3086 1.555 1.254 0 0.5469-0.3477 0.9414-0.8672 1.078v0.01562c0.6367 0.07812 1.098 0.5117 1.098 1.203 0 0.9531-0.8242 1.41-1.859 1.41h-1.633v-4.961" fill="#231f1f"/>
<path d="m27.07 197.7c-0.2969-0.3203-0.7773-0.5391-1.348-0.5391-1.16 0-1.891 0.9023-1.891 1.988 0 1.109 0.7305 1.988 1.914 1.988 0.4609 0 0.8672-0.08984 1.156-0.2422v-1.383h-1.102v-0.5859h1.785v2.402c-0.5156 0.2773-1.133 0.4336-1.863 0.4336-1.547 0-2.645-1.086-2.645-2.613 0-1.547 1.133-2.598 2.641-2.598 0.7812 0 1.426 0.2539 1.832 0.6445l-0.4805 0.5039" fill="#231f1f"/>
<path d="m32.28 199.1c-0.1445-0.2383-0.4336-0.4141-0.7695-0.4141-0.3008 0-0.6172 0.1211-0.6172 0.4336 0 0.2812 0.2539 0.3867 0.7578 0.5 0.6289 0.1367 1.113 0.3984 1.113 0.9805 0 0.7812-0.6523 1.07-1.324 1.07-0.5039 0-1.023-0.1953-1.336-0.5938l0.4688-0.4023c0.1758 0.2617 0.5117 0.4648 0.8828 0.4648 0.3281 0 0.6562-0.1211 0.6562-0.4844 0-0.3086-0.3008-0.418-0.8672-0.5547-0.4414-0.1016-0.9648-0.293-0.9648-0.918 0-0.7109 0.6211-1.016 1.254-1.016 0.4688 0 0.9648 0.1914 1.203 0.5469l-0.457 0.3867" fill="#231f1f"/>
<path d="m34.28 198.8c0.1523-0.3281 0.5742-0.5977 1.051-0.5977 0.8516 0 1.238 0.6133 1.238 1.355v2.059h-0.6602v-1.836c0-0.5391-0.1367-1.016-0.7461-1.016-0.5195 0-0.8984 0.4336-0.8984 1.094v1.758h-0.6562v-5.297h0.6562v2.48h0.01562" fill="#231f1f"/>
<path d="m39.25 198.7c-0.707 0-1.105 0.5703-1.105 1.199 0 0.6289 0.3984 1.203 1.105 1.203 0.7148 0 1.105-0.5742 1.105-1.203 0-0.6289-0.3906-1.199-1.105-1.199zm0 2.957c-1.016 0-1.785-0.7344-1.785-1.758 0-1.023 0.7695-1.746 1.785-1.746s1.793 0.7227 1.793 1.746c0 1.023-0.7773 1.758-1.793 1.758" fill="#231f1f"/>
<path d="m42.2 198.3 0.75 2.535h0.01563l0.7891-2.535h0.6953l0.8047 2.535h0.01562l0.75-2.535h0.6914l-1.102 3.32h-0.6836l-0.8203-2.496h-0.01172l-0.8125 2.496h-0.6875l-1.109-3.32h0.7148" fill="#231f1f"/>
<path d="m49.16 199.1c-0.1484-0.2383-0.4336-0.4141-0.7695-0.4141-0.3008 0-0.6172 0.1211-0.6172 0.4336 0 0.2812 0.25 0.3867 0.7578 0.5 0.6289 0.1367 1.113 0.3984 1.113 0.9805 0 0.7812-0.6523 1.07-1.324 1.07-0.5039 0-1.023-0.1953-1.34-0.5938l0.4688-0.4023c0.1758 0.2617 0.5117 0.4648 0.8828 0.4648 0.3281 0 0.6602-0.1211 0.6602-0.4844 0-0.3086-0.3008-0.418-0.8711-0.5547-0.4414-0.1016-0.9648-0.293-0.9648-0.918 0-0.7109 0.625-1.016 1.254-1.016 0.4688 0 0.9648 0.1914 1.203 0.5469l-0.4531 0.3867" fill="#231f1f"/>
<path d="m52.91 198.8c0.1562-0.3281 0.5742-0.5977 1.051-0.5977 0.8555 0 1.242 0.6133 1.242 1.355v2.059h-0.6602v-1.836c0-0.5391-0.1406-1.016-0.75-1.016-0.5195 0-0.8945 0.4336-0.8945 1.094v1.758h-0.6602v-5.297h0.6602v2.48h0.01172" fill="#231f1f"/>
<path d="m57.57 200.9h0.01172l0.918-2.605h0.7031l-1.613 4.105c-0.2188 0.5508-0.4961 0.8945-1.148 0.8945-0.1406 0-0.2852-0.01562-0.4336-0.05078l0.0625-0.5781c0.1055 0.03516 0.2227 0.05469 0.3281 0.05469 0.3438 0 0.4766-0.1953 0.6172-0.5547l0.2109-0.5508-1.422-3.32h0.7344l1.031 2.605" fill="#231f1f"/>
<path d="m61.57 198.7c-0.6719 0-1.121 0.5703-1.121 1.207s0.4492 1.195 1.121 1.195c0.7188 0 1.105-0.5781 1.105-1.203s-0.3867-1.199-1.105-1.199zm-1.078 4.547h-0.6602v-5h0.6445v0.5195h0.02344c0.2148-0.3516 0.6484-0.6133 1.195-0.6133 0.9883 0 1.66 0.7656 1.66 1.746 0 0.9727-0.6523 1.758-1.676 1.758-0.4688 0-0.9219-0.2188-1.168-0.5898h-0.01953v2.18" fill="#231f1f"/>
<path d="m66.7 199.6c-0.01172-0.5234-0.3203-0.9375-0.9297-0.9375-0.5664 0-1 0.4219-1.043 0.9375zm0.6602 0.4922h-2.633c0.01953 0.5664 0.4961 1.008 1.078 1.008 0.4492 0 0.7773-0.2227 0.9648-0.5039l0.4648 0.3711c-0.3594 0.4609-0.8398 0.6797-1.43 0.6797-1.008 0-1.75-0.6992-1.75-1.746 0-1.035 0.7422-1.758 1.715-1.758 0.9805 0 1.598 0.668 1.598 1.727 0 0.06641 0 0.1445-0.007813 0.2227" fill="#231f1f"/>
<path d="m68.26 198.3h0.625c0.01172 0.168 0.02734 0.418 0.02734 0.5586h0.01953c0.1836-0.3828 0.5664-0.6523 1.016-0.6523 0.08984 0 0.1836 0.007812 0.2578 0.03125l-0.02734 0.6094c-0.08203-0.02344-0.1953-0.03516-0.3008-0.03516-0.6289 0-0.9297 0.5117-0.9297 1.062v1.746h-0.6602v-2.605c0-0.1758-0.007812-0.5-0.02734-0.7148" fill="#231f1f"/>
<path d="m73.02 199.1c-0.1406-0.2188-0.4492-0.3789-0.7656-0.3789-0.6836 0-1.086 0.5625-1.086 1.199 0 0.6289 0.4023 1.195 1.094 1.195 0.3359 0 0.625-0.1406 0.7969-0.3633l0.4453 0.3984c-0.2812 0.3242-0.7109 0.5195-1.242 0.5195-1.023 0-1.785-0.6953-1.785-1.75 0-1.043 0.7578-1.754 1.77-1.754 0.4727 0 0.9766 0.1914 1.25 0.5469l-0.4766 0.3867" fill="#231f1f"/>
<path d="m76.05 200c-0.6484 0-1.477 0.06641-1.477 0.6289 0 0.3906 0.3516 0.5195 0.6797 0.5195 0.6172 0 0.9609-0.4141 0.9609-0.9766v-0.1719zm0.1641-0.5703c0-0.4883-0.332-0.7266-0.8203-0.7266-0.3711 0-0.7227 0.1602-0.9453 0.3828l-0.3516-0.418c0.3242-0.3086 0.8203-0.5 1.359-0.5 0.9531 0 1.387 0.5703 1.387 1.305v1.449c0 0.2266 0.01562 0.4961 0.05078 0.6602h-0.5977c-0.03516-0.1484-0.05469-0.3242-0.05469-0.4766h-0.02344c-0.2383 0.3555-0.6133 0.5586-1.113 0.5586-0.5234 0-1.203-0.2578-1.203-1.023 0-1 1.191-1.117 2.312-1.117v-0.09375" fill="#231f1f"/>
<path d="m79.68 198.7c-0.6719 0-1.121 0.5703-1.121 1.207s0.4492 1.195 1.121 1.195c0.7188 0 1.105-0.5781 1.105-1.203s-0.3867-1.199-1.105-1.199zm-1.082 4.547h-0.6562v-5h0.6445v0.5195h0.01953c0.2188-0.3516 0.6523-0.6133 1.199-0.6133 0.9883 0 1.66 0.7656 1.66 1.746 0 0.9727-0.6523 1.758-1.676 1.758-0.4688 0-0.9219-0.2188-1.168-0.5898h-0.02344v2.18" fill="#231f1f"/>
<path d="m82.98 198.3c0.01563 0.168 0.03125 0.4062 0.03125 0.5469h0.01953c0.1602-0.3594 0.6016-0.6406 1.078-0.6406 0.8555 0 1.238 0.6133 1.238 1.355v2.059h-0.6562v-1.844c0-0.5391-0.1484-1.016-0.7578-1.016-0.5156 0-0.8867 0.4336-0.8867 1.094v1.766h-0.6602v-2.605c0-0.1758-0.007812-0.5-0.02734-0.7148h0.6211" fill="#231f1f"/>
<path d="m87.12 201.6h-0.6562v-3.32h0.6562zm-0.3281-4.098c-0.2383 0-0.4336-0.1914-0.4336-0.4219 0-0.2383 0.1953-0.4258 0.4336-0.4258s0.4414 0.1836 0.4414 0.4258c0 0.2383-0.2031 0.4219-0.4414 0.4219" fill="#231f1f"/>
<path d="m90.18 200c-0.6523 0-1.477 0.06641-1.477 0.6289 0 0.3906 0.3477 0.5195 0.6758 0.5195 0.6172 0 0.9609-0.4141 0.9609-0.9766v-0.1719zm0.1602-0.5703c0-0.4883-0.3281-0.7266-0.8203-0.7266-0.3711 0-0.7188 0.1602-0.9453 0.3828l-0.3477-0.418c0.3203-0.3086 0.8164-0.5 1.355-0.5 0.9531 0 1.387 0.5703 1.387 1.305v1.449c0 0.2266 0.01562 0.4961 0.05078 0.6602h-0.5977c-0.03125-0.1484-0.05469-0.3242-0.05469-0.4766h-0.01953c-0.2383 0.3555-0.6172 0.5586-1.113 0.5586-0.5273 0-1.207-0.2578-1.207-1.023 0-1 1.191-1.117 2.312-1.117v-0.09375" fill="#231f1f"/>
<path d="m93.31 201.6c-0.2578 0-0.4688-0.2109-0.4688-0.457 0-0.2539 0.2031-0.4609 0.4688-0.4609 0.2695 0 0.4727 0.2031 0.4727 0.4531 0 0.2461-0.2031 0.4648-0.4727 0.4648zm0.2969-1.453h-0.6602v-0.3359c0-0.4883 0.1914-0.75 0.5117-1.043l0.2617-0.2461c0.1992-0.1719 0.3555-0.3711 0.3555-0.6914 0-0.4492-0.3164-0.7344-0.7656-0.7344-0.4609 0-0.7617 0.3398-0.8047 0.7695l-0.6719-0.07812c0.1211-0.8047 0.7305-1.297 1.52-1.297 0.7773 0 1.422 0.457 1.422 1.297 0 0.5977-0.2734 0.8633-0.6719 1.199-0.3789 0.3203-0.4961 0.4531-0.4961 0.9141v0.2461" fill="#231f1f"/>
<path transform="matrix(.1 0 0 -.1 0 212.8)" d="m577.5 726.4v-175" fill="none" stroke="#231f1f" stroke-width="5"/>
<path d="m57.75 161.2c-0.6328-1.703-1.711-3.82-2.852-5.129l2.852 1.031 2.852-1.031c-1.141 1.309-2.219 3.426-2.852 5.129" fill="#231f1f"/>
<g clip-path="url(#c)">
<path d="m115.2 141.2h-115v-39.77h115v39.77" fill="#fef0ca"/>
<path transform="matrix(.1 0 0 -.1 0 212.8)" d="m1152 716.1h-1150v397.7h1150z" fill="none" stroke="#231f1f" stroke-width="5"/>
</g>
<path d="m10.3 113.2h1.855l-0.9219-2.324zm-0.7422 1.828h-0.7695l2.148-4.961h0.6328l2.129 4.961h-0.7852l-0.5039-1.219h-2.355l-0.4961 1.219" fill="#231f1f"/>
<path d="m16.09 112.5c-0.1445-0.2383-0.4336-0.4141-0.7695-0.4141-0.3008 0-0.6172 0.1211-0.6172 0.4336 0 0.2812 0.2539 0.3867 0.7578 0.5 0.6289 0.1406 1.113 0.3984 1.113 0.9805 0 0.7852-0.6523 1.07-1.324 1.07-0.5039 0-1.023-0.1953-1.336-0.5938l0.4688-0.3984c0.1719 0.2578 0.5117 0.4609 0.8828 0.4609 0.3281 0 0.6562-0.1211 0.6562-0.4844 0-0.3086-0.3008-0.418-0.8672-0.5508-0.4414-0.1055-0.9688-0.2969-0.9688-0.918 0-0.7148 0.625-1.016 1.254-1.016 0.4727 0 0.9688 0.1875 1.207 0.5469l-0.457 0.3828" fill="#231f1f"/>
<path d="m19.2 112.5c-0.1484-0.2383-0.4336-0.4141-0.7695-0.4141-0.3008 0-0.6172 0.1211-0.6172 0.4336 0 0.2812 0.25 0.3867 0.7578 0.5 0.6289 0.1406 1.109 0.3984 1.109 0.9805 0 0.7852-0.6484 1.07-1.32 1.07-0.5039 0-1.023-0.1953-1.34-0.5938l0.4688-0.3984c0.1758 0.2578 0.5117 0.4609 0.8828 0.4609 0.332 0 0.6602-0.1211 0.6602-0.4844 0-0.3086-0.3008-0.418-0.8711-0.5508-0.4414-0.1055-0.9648-0.2969-0.9648-0.918 0-0.7148 0.625-1.016 1.254-1.016 0.4688 0 0.9648 0.1875 1.203 0.5469l-0.4531 0.3828" fill="#231f1f"/>
<path d="m22.95 113c-0.01562-0.5273-0.3242-0.9414-0.9336-0.9414-0.5664 0-1 0.4219-1.043 0.9414zm0.6562 0.4883h-2.633c0.01953 0.5664 0.4961 1.008 1.078 1.008 0.4492 0 0.7773-0.2227 0.9688-0.5039l0.4609 0.3711c-0.3594 0.4648-0.8398 0.6797-1.43 0.6797-1.008 0-1.75-0.6992-1.75-1.742 0-1.039 0.7422-1.758 1.715-1.758 0.9805 0 1.598 0.6641 1.598 1.723 0 0.07031 0 0.1445-0.007812 0.2227" fill="#231f1f"/>
<path d="m26.32 112.5c-0.1445-0.2383-0.4336-0.4141-0.7695-0.4141-0.3008 0-0.6172 0.1211-0.6172 0.4336 0 0.2812 0.2539 0.3867 0.7578 0.5 0.6289 0.1406 1.113 0.3984 1.113 0.9805 0 0.7852-0.6523 1.07-1.324 1.07-0.5039 0-1.023-0.1953-1.336-0.5938l0.4688-0.3984c0.1758 0.2578 0.5117 0.4609 0.8828 0.4609 0.3281 0 0.6562-0.1211 0.6562-0.4844 0-0.3086-0.3008-0.418-0.8672-0.5508-0.4414-0.1055-0.9648-0.2969-0.9648-0.918 0-0.7148 0.6211-1.016 1.25-1.016 0.4688 0 0.9688 0.1875 1.207 0.5469l-0.457 0.3828" fill="#231f1f"/>
<path d="m29.43 112.5c-0.1484-0.2383-0.4336-0.4141-0.7695-0.4141-0.3008 0-0.6172 0.1211-0.6172 0.4336 0 0.2812 0.25 0.3867 0.7539 0.5 0.6328 0.1406 1.117 0.3984 1.117 0.9805 0 0.7852-0.6523 1.07-1.324 1.07-0.5039 0-1.023-0.1953-1.34-0.5938l0.4688-0.3984c0.1758 0.2578 0.5117 0.4609 0.8828 0.4609 0.332 0 0.6602-0.1211 0.6602-0.4844 0-0.3086-0.3008-0.418-0.8672-0.5508-0.4414-0.1055-0.9688-0.2969-0.9688-0.918 0-0.7148 0.625-1.016 1.254-1.016 0.4688 0 0.9688 0.1875 1.203 0.5469l-0.4531 0.3828" fill="#231f1f"/>
<path d="m34.9 110.5c-1.145 0-1.871 0.9062-1.871 1.988 0 1.109 0.7344 1.988 1.871 1.988 1.145 0 1.883-0.8789 1.883-1.988 0-1.082-0.7305-1.988-1.883-1.988zm0 4.602c-1.508 0-2.621-1.086-2.621-2.613 0-1.547 1.113-2.598 2.621-2.598 1.512 0 2.633 1.051 2.633 2.598 0 1.527-1.121 2.613-2.633 2.613" fill="#231f1f"/>
<path d="m39.25 113.2-1.211-1.574h0.8125l0.8125 1.141 0.8164-1.141h0.7734l-1.199 1.57 1.34 1.75h-0.8203l-0.9258-1.297-0.9375 1.297h-0.793l1.332-1.746" fill="#231f1f"/>
<path d="m43.27 114.3h0.01562l0.918-2.605h0.6992l-1.609 4.105c-0.2188 0.5508-0.5 0.8945-1.148 0.8945-0.1406 0-0.2891-0.01172-0.4336-0.04688l0.0625-0.582c0.1055 0.03516 0.2227 0.05469 0.3281 0.05469 0.3438 0 0.4766-0.1953 0.6172-0.5508l0.207-0.5547-1.418-3.32h0.7344l1.027 2.605" fill="#231f1f"/>
<path d="m47.11 114.5c0.6758 0 1.125-0.5078 1.125-1.168 0-0.6328-0.4531-1.168-1.125-1.168-0.6953 0-1.102 0.5312-1.102 1.168 0 0.6094 0.4062 1.168 1.102 1.168zm-1.305 1.094c0.2891 0.3242 0.7578 0.5391 1.211 0.5391 0.875 0 1.172-0.5391 1.172-1.227v-0.4258h-0.01562c-0.2461 0.3711-0.6992 0.5742-1.168 0.5742-1.016 0-1.676-0.7578-1.676-1.707 0-0.9531 0.6523-1.73 1.668-1.73 0.4766 0 0.9453 0.207 1.199 0.6211h0.01172v-0.5312h0.6367v3.152c0 0.9648-0.4531 1.848-1.832 1.848-0.5781 0-1.215-0.2227-1.625-0.6016l0.418-0.5117" fill="#231f1f"/>
<path d="m52.4 113c-0.01563-0.5273-0.3242-0.9414-0.9336-0.9414-0.5664 0-1 0.4219-1.043 0.9414zm0.6562 0.4883h-2.633c0.01953 0.5664 0.4961 1.008 1.078 1.008 0.4492 0 0.7773-0.2227 0.9648-0.5039l0.4648 0.3711c-0.3594 0.4648-0.8398 0.6797-1.43 0.6797-1.008 0-1.75-0.6992-1.75-1.742 0-1.039 0.7422-1.758 1.715-1.758 0.9805 0 1.598 0.6641 1.598 1.723 0 0.07031 0 0.1445-0.007812 0.2227" fill="#231f1f"/>
<path d="m54.57 111.7c0.01172 0.168 0.02734 0.4062 0.02734 0.5469h0.01953c0.1602-0.3594 0.6016-0.6367 1.078-0.6367 0.8555 0 1.242 0.6094 1.242 1.352v2.059h-0.6602v-1.844c0-0.5391-0.1484-1.016-0.7578-1.016-0.5156 0-0.8867 0.4336-0.8867 1.094v1.766h-0.6602v-2.605c0-0.1758-0.007812-0.4961-0.02734-0.7148h0.625" fill="#231f1f"/>
<path d="m59.96 113.4c-0.6523 0-1.48 0.07031-1.48 0.6289 0 0.3906 0.3516 0.5195 0.6797 0.5195 0.6172 0 0.9609-0.4141 0.9609-0.9727v-0.1758zm0.1602-0.5703c0-0.4883-0.3281-0.7266-0.8203-0.7266-0.3711 0-0.7188 0.1602-0.9453 0.3828l-0.3477-0.418c0.3203-0.3086 0.8164-0.4961 1.355-0.4961 0.9531 0 1.387 0.5664 1.387 1.301v1.449c0 0.2266 0.01562 0.5 0.05078 0.6602h-0.5938c-0.03906-0.1484-0.05859-0.3242-0.05859-0.4766h-0.01953c-0.2383 0.3555-0.6172 0.5586-1.113 0.5586-0.5273 0-1.207-0.2578-1.207-1.02 0-1.004 1.191-1.121 2.312-1.121v-0.09375" fill="#231f1f"/>
<path d="m63.4 112.2h-0.8828v1.73c0 0.3984 0.1406 0.5586 0.4688 0.5586 0.1211 0 0.2773-0.02734 0.3867-0.08203l0.02344 0.5391c-0.1562 0.05469-0.3594 0.08984-0.5625 0.08984-0.6211 0-0.9648-0.3477-0.9648-1.035v-1.801h-0.6406v-0.5391h0.6406v-0.9531h0.6484v0.9531h0.8828v0.5391" fill="#231f1f"/>
<path d="m64.74 115h-0.6562v-3.32h0.6562zm-0.3281-4.098c-0.2383 0-0.4336-0.1914-0.4336-0.4219 0-0.2383 0.1953-0.4258 0.4336-0.4258 0.2383 0 0.4414 0.1836 0.4414 0.4258 0 0.2383-0.2031 0.4219-0.4414 0.4219" fill="#231f1f"/>
<path d="m67.46 112.1c-0.707 0-1.109 0.5664-1.109 1.195 0 0.6328 0.4023 1.203 1.109 1.203 0.7109 0 1.105-0.5703 1.105-1.203 0-0.6289-0.3945-1.195-1.105-1.195zm0 2.953c-1.016 0-1.789-0.7344-1.789-1.758 0-1.023 0.7734-1.742 1.789-1.742 1.016 0 1.793 0.7188 1.793 1.742 0 1.023-0.7773 1.758-1.793 1.758" fill="#231f1f"/>
<path d="m70.76 111.7c0.01172 0.168 0.02734 0.4062 0.02734 0.5469h0.01953c0.1602-0.3594 0.6016-0.6367 1.078-0.6367 0.8555 0 1.238 0.6094 1.238 1.352v2.059h-0.6562v-1.844c0-0.5391-0.1484-1.016-0.7578-1.016-0.5156 0-0.8867 0.4336-0.8867 1.094v1.766h-0.6602v-2.605c0-0.1758-0.007812-0.4961-0.02734-0.7148h0.625" fill="#231f1f"/>
<path d="m10.51 119.7c0.6875 0 1.238 0.5547 1.238 1.242 0 0.6836-0.5508 1.238-1.238 1.238s-1.238-0.5547-1.238-1.238c0-0.6875 0.5508-1.242 1.238-1.242" fill="#231f1f"/>
<path d="m15.3 122.8h0.8672c1.195 0 2.074-0.6836 2.074-1.867 0-1.227-0.8789-1.879-2.074-1.879h-0.8672zm-0.6953-4.348h1.703c1.266 0 2.676 0.7188 2.676 2.48 0 1.691-1.41 2.477-2.676 2.477h-1.703v-4.957" fill="#231f1f"/>
<path d="m22.33 121.4c-0.01562-0.5234-0.3203-0.9375-0.9297-0.9375-0.5703 0-1.004 0.418-1.047 0.9375zm0.6562 0.4922h-2.633c0.02344 0.5664 0.5 1.008 1.078 1.008 0.4492 0 0.7812-0.2266 0.9688-0.5039l0.4609 0.3711c-0.3555 0.4609-0.8398 0.6797-1.43 0.6797-1.008 0-1.75-0.7031-1.75-1.746 0-1.035 0.7422-1.758 1.719-1.758 0.9805 0 1.594 0.6641 1.594 1.723 0 0.07031 0 0.1484-0.007813 0.2266" fill="#231f1f"/>
<path d="m26.24 120.9c-0.1406-0.2188-0.4492-0.3789-0.7656-0.3789-0.6836 0-1.082 0.5586-1.082 1.195 0 0.6328 0.3984 1.199 1.09 1.199 0.3359 0 0.625-0.1406 0.8008-0.3633l0.4414 0.3984c-0.2812 0.3203-0.707 0.5195-1.242 0.5195-1.02 0-1.785-0.6953-1.785-1.754 0-1.043 0.7578-1.75 1.773-1.75 0.4688 0 0.9727 0.1914 1.246 0.5469l-0.4766 0.3867" fill="#231f1f"/>
<path d="m27.34 120.1h0.6211c0.01562 0.168 0.02734 0.4219 0.02734 0.5625h0.02344c0.1797-0.3867 0.5664-0.6523 1.016-0.6523 0.08984 0 0.1797 0.007812 0.2578 0.02734l-0.02734 0.6094c-0.08594-0.01953-0.1953-0.03516-0.3008-0.03516-0.6289 0-0.9336 0.5117-0.9336 1.066v1.742h-0.6562v-2.605c0-0.1758-0.007813-0.4961-0.02734-0.7148" fill="#231f1f"/>
<path d="m32.21 121.4c-0.01563-0.5234-0.3242-0.9375-0.9336-0.9375-0.5664 0-1 0.418-1.043 0.9375zm0.6562 0.4922h-2.633c0.01953 0.5664 0.4961 1.008 1.078 1.008 0.4492 0 0.7773-0.2266 0.9648-0.5039l0.4648 0.3711c-0.3594 0.4609-0.8398 0.6797-1.43 0.6797-1.008 0-1.75-0.7031-1.75-1.746 0-1.035 0.7422-1.758 1.715-1.758 0.9805 0 1.598 0.6641 1.598 1.723 0 0.07031 0 0.1484-0.007812 0.2266" fill="#231f1f"/>
<path d="m35.65 121.8c-0.6523 0-1.477 0.07031-1.477 0.6289 0 0.3945 0.3477 0.5195 0.6797 0.5195 0.6133 0 0.957-0.4141 0.957-0.9727v-0.1758zm0.1602-0.5664c0-0.4922-0.3281-0.7305-0.8203-0.7305-0.3711 0-0.7188 0.1641-0.9453 0.3867l-0.3477-0.4219c0.3203-0.3047 0.8203-0.4961 1.359-0.4961 0.9531 0 1.387 0.5664 1.387 1.305v1.449c0 0.2227 0.01172 0.4961 0.04688 0.6562h-0.5938c-0.03516-0.1484-0.05469-0.3203-0.05469-0.4766h-0.02344c-0.2383 0.3594-0.6172 0.5625-1.113 0.5625-0.5273 0-1.203-0.2578-1.203-1.023 0-1 1.188-1.121 2.309-1.121v-0.08984" fill="#231f1f"/>
<path d="m39.34 120.9c-0.1484-0.2383-0.4336-0.4141-0.7734-0.4141-0.3008 0-0.6133 0.1172-0.6133 0.4336 0 0.2812 0.25 0.3828 0.7539 0.4961 0.6328 0.1406 1.113 0.4023 1.113 0.9805 0 0.7852-0.6484 1.074-1.324 1.074-0.5039 0-1.02-0.1992-1.336-0.5977l0.4688-0.3984c0.1758 0.2578 0.5117 0.4609 0.8828 0.4609 0.3281 0 0.6602-0.1172 0.6602-0.4805 0-0.3086-0.3047-0.4219-0.8711-0.5547-0.4414-0.1055-0.9648-0.2969-0.9648-0.918 0-0.7148 0.6211-1.016 1.254-1.016 0.4688 0 0.9648 0.1914 1.203 0.5469l-0.4531 0.3867" fill="#231f1f"/>
<path d="m43.08 121.4c-0.01172-0.5234-0.3203-0.9375-0.9297-0.9375-0.5664 0-1 0.418-1.043 0.9375zm0.6602 0.4922h-2.633c0.01953 0.5664 0.4961 1.008 1.078 1.008 0.4492 0 0.7773-0.2266 0.9648-0.5039l0.4648 0.3711c-0.3594 0.4609-0.8398 0.6797-1.43 0.6797-1.008 0-1.75-0.7031-1.75-1.746 0-1.035 0.7422-1.758 1.715-1.758 0.9805 0 1.598 0.6641 1.598 1.723 0 0.07031 0 0.1484-0.007813 0.2266" fill="#231f1f"/>
<path d="m46.22 122.9c0.6719 0 1.121-0.5625 1.121-1.199s-0.4492-1.203-1.121-1.203c-0.7227 0-1.102 0.5742-1.102 1.195 0 0.625 0.3789 1.207 1.102 1.207zm-0.1133 0.5547c-1.023 0-1.672-0.7852-1.672-1.762 0-0.9805 0.6719-1.742 1.664-1.742 0.543 0 0.9531 0.2656 1.184 0.5898h0.01562v-2.473h0.6602v5.293h-0.6406v-0.5234h-0.01172c-0.2539 0.3984-0.7305 0.6172-1.199 0.6172" fill="#231f1f"/>
<path d="m52.43 120.5c-0.707 0-1.109 0.5664-1.109 1.195 0 0.6328 0.4023 1.207 1.109 1.207 0.7148 0 1.105-0.5742 1.105-1.207 0-0.6289-0.3906-1.195-1.105-1.195zm0 2.957c-1.016 0-1.789-0.7383-1.789-1.762 0-1.02 0.7734-1.742 1.789-1.742s1.793 0.7227 1.793 1.742c0 1.023-0.7773 1.762-1.793 1.762" fill="#231f1f"/>
<path d="m55.87 121.6-1.211-1.578h0.8125l0.8125 1.145 0.8203-1.145h0.7695l-1.199 1.57 1.34 1.75h-0.8203l-0.9258-1.293-0.9375 1.293h-0.793l1.332-1.742" fill="#231f1f"/>
<path d="m59.89 122.7h0.01172l0.918-2.605h0.6992l-1.609 4.105c-0.2188 0.5547-0.4961 0.8984-1.148 0.8984-0.1406 0-0.2891-0.01562-0.4336-0.05078l0.0625-0.582c0.1055 0.03516 0.2227 0.05859 0.3281 0.05859 0.3438 0 0.4766-0.1992 0.6172-0.5547l0.2109-0.5547-1.422-3.32h0.7344l1.031 2.605" fill="#231f1f"/>
<path d="m63.72 122.9c0.6797 0 1.125-0.5117 1.125-1.172 0-0.6289-0.4531-1.168-1.125-1.168-0.6953 0-1.102 0.5312-1.102 1.168 0 0.6094 0.4062 1.172 1.102 1.172zm-1.305 1.094c0.2891 0.3203 0.7578 0.5391 1.215 0.5391 0.875 0 1.168-0.5391 1.168-1.227v-0.4297h-0.01562c-0.2422 0.375-0.6992 0.5781-1.168 0.5781-1.016 0-1.676-0.7578-1.676-1.711 0-0.9531 0.6523-1.73 1.668-1.73 0.4766 0 0.9453 0.2109 1.199 0.625h0.01172v-0.5352h0.6406v3.152c0 0.9688-0.457 1.852-1.836 1.852-0.5742 0-1.215-0.2266-1.625-0.6055l0.418-0.5078" fill="#231f1f"/>
<path d="m69.02 121.4c-0.01562-0.5234-0.3242-0.9375-0.9336-0.9375-0.5664 0-1 0.418-1.043 0.9375zm0.6562 0.4922h-2.633c0.01953 0.5664 0.4961 1.008 1.078 1.008 0.4492 0 0.7773-0.2266 0.9688-0.5039l0.4609 0.3711c-0.3555 0.4609-0.8398 0.6797-1.43 0.6797-1.008 0-1.75-0.7031-1.75-1.746 0-1.035 0.7422-1.758 1.715-1.758 0.9805 0 1.598 0.6641 1.598 1.723 0 0.07031 0 0.1484-0.007813 0.2266" fill="#231f1f"/>
<path d="m71.19 120.1c0.01172 0.168 0.02734 0.4062 0.02734 0.5469h0.01953c0.1641-0.3555 0.6055-0.6367 1.078-0.6367 0.8555 0 1.242 0.6094 1.242 1.352v2.059h-0.6602v-1.84c0-0.5391-0.1445-1.016-0.7539-1.016-0.5195 0-0.8906 0.4336-0.8906 1.094v1.762h-0.6602v-2.605c0-0.1758-0.003906-0.4961-0.02734-0.7148h0.625" fill="#231f1f"/>
<path d="m78.21 120.9c-0.1445-0.2383-0.4336-0.4141-0.7695-0.4141-0.3008 0-0.6172 0.1172-0.6172 0.4336 0 0.2812 0.2539 0.3828 0.7578 0.4961 0.6289 0.1406 1.113 0.4023 1.113 0.9805 0 0.7852-0.6523 1.074-1.324 1.074-0.5039 0-1.023-0.1992-1.336-0.5977l0.4688-0.3984c0.1758 0.2578 0.5117 0.4609 0.8828 0.4609 0.3281 0 0.6562-0.1172 0.6562-0.4805 0-0.3086-0.3008-0.4219-0.8672-0.5547-0.4414-0.1055-0.9648-0.2969-0.9648-0.918 0-0.7148 0.6211-1.016 1.25-1.016 0.4688 0 0.9688 0.1914 1.207 0.5469l-0.457 0.3867" fill="#231f1f"/>
<path d="m81.43 121.8c-0.6484 0-1.477 0.07031-1.477 0.6289 0 0.3945 0.3516 0.5195 0.6797 0.5195 0.6172 0 0.9609-0.4141 0.9609-0.9727v-0.1758zm0.1641-0.5664c0-0.4922-0.3281-0.7305-0.8203-0.7305-0.3711 0-0.7227 0.1641-0.9453 0.3867l-0.3516-0.4219c0.3242-0.3047 0.8203-0.4961 1.359-0.4961 0.9531 0 1.387 0.5664 1.387 1.305v1.449c0 0.2227 0.01562 0.4961 0.05078 0.6562h-0.5977c-0.03516-0.1484-0.05469-0.3203-0.05469-0.4766h-0.01953c-0.2383 0.3594-0.6172 0.5625-1.117 0.5625-0.5234 0-1.203-0.2578-1.203-1.023 0-1 1.191-1.121 2.312-1.121v-0.08984" fill="#231f1f"/>
<path d="m84.88 120.6h-0.8828v1.73c0 0.3984 0.1406 0.5625 0.4688 0.5625 0.1211 0 0.2734-0.02734 0.3867-0.08594l0.01953 0.5391c-0.1523 0.05859-0.3555 0.09375-0.5586 0.09375-0.625 0-0.9648-0.3516-0.9648-1.039v-1.801h-0.6406v-0.5391h0.6406v-0.9531h0.6484v0.9531h0.8828v0.5391" fill="#231f1f"/>
<path d="m87.89 123.4c-0.01562-0.168-0.03125-0.4062-0.03125-0.5469h-0.01172c-0.168 0.3516-0.6016 0.6406-1.086 0.6406-0.8555 0-1.238-0.6094-1.238-1.352v-2.062h0.6562v1.836c0 0.5469 0.1484 1.023 0.7578 1.023 0.5234 0 0.8906-0.4336 0.8906-1.094v-1.766h0.6562v2.605c0 0.1758 0.007813 0.5 0.02734 0.7148h-0.6211" fill="#231f1f"/>
<path d="m89.6 120.1h0.625c0.01562 0.168 0.02734 0.4219 0.02734 0.5625h0.02344c0.1797-0.3867 0.5664-0.6523 1.016-0.6523 0.08984 0 0.1797 0.007812 0.2578 0.02734l-0.02734 0.6094c-0.08594-0.01953-0.1953-0.03516-0.3008-0.03516-0.6328 0-0.9336 0.5117-0.9336 1.066v1.742h-0.6562v-2.605c0-0.1758-0.007812-0.4961-0.03125-0.7148" fill="#231f1f"/>
<path d="m93.98 121.8c-0.6523 0-1.48 0.07031-1.48 0.6289 0 0.3945 0.3516 0.5195 0.6797 0.5195 0.6172 0 0.9609-0.4141 0.9609-0.9727v-0.1758zm0.1602-0.5664c0-0.4922-0.3281-0.7305-0.8203-0.7305-0.3711 0-0.7188 0.1641-0.9453 0.3867l-0.3477-0.4219c0.3203-0.3047 0.8164-0.4961 1.355-0.4961 0.9531 0 1.387 0.5664 1.387 1.305v1.449c0 0.2227 0.01562 0.4961 0.05078 0.6562h-0.5977c-0.03125-0.1484-0.05469-0.3203-0.05469-0.4766h-0.01953c-0.2383 0.3594-0.6172 0.5625-1.113 0.5625-0.5273 0-1.207-0.2578-1.207-1.023 0-1 1.191-1.121 2.312-1.121v-0.08984" fill="#231f1f"/>
<path d="m97.42 120.6h-0.8828v1.73c0 0.3984 0.1406 0.5625 0.4727 0.5625 0.1172 0 0.2734-0.02734 0.3828-0.08594l0.02344 0.5391c-0.1562 0.05859-0.3594 0.09375-0.5625 0.09375-0.6211 0-0.9648-0.3516-0.9648-1.039v-1.801h-0.6367v-0.5391h0.6367v-0.9531h0.6484v0.9531h0.8828v0.5391" fill="#231f1f"/>
<path d="m98.76 123.4h-0.6562v-3.32h0.6562zm-0.3281-4.098c-0.2383 0-0.4336-0.1875-0.4336-0.418 0-0.2383 0.1953-0.4297 0.4336-0.4297 0.2383 0 0.4414 0.1836 0.4414 0.4297 0 0.2383-0.2031 0.418-0.4414 0.418" fill="#231f1f"/>
<path d="m101.5 120.5c-0.707 0-1.109 0.5664-1.109 1.195 0 0.6328 0.4023 1.207 1.109 1.207 0.7148 0 1.105-0.5742 1.105-1.207 0-0.6289-0.3906-1.195-1.105-1.195zm0 2.957c-1.016 0-1.785-0.7383-1.785-1.762 0-1.02 0.7695-1.742 1.785-1.742s1.793 0.7227 1.793 1.742c0 1.023-0.7773 1.762-1.793 1.762" fill="#231f1f"/>
<path d="m104.8 120.1c0.01172 0.168 0.02734 0.4062 0.02734 0.5469h0.01953c0.1602-0.3555 0.6016-0.6367 1.078-0.6367 0.8555 0 1.242 0.6094 1.242 1.352v2.059h-0.6602v-1.84c0-0.5391-0.1445-1.016-0.7539-1.016-0.5195 0-0.8906 0.4336-0.8906 1.094v1.762h-0.6602v-2.605c0-0.1758-0.007813-0.4961-0.02734-0.7148h0.625" fill="#231f1f"/>
<path d="m109.5 123.4c-0.2578 0-0.4688-0.2109-0.4688-0.457 0-0.25 0.2031-0.4609 0.4688-0.4609s0.4688 0.2031 0.4688 0.457c0 0.2461-0.2031 0.4609-0.4688 0.4609zm0.2969-1.449h-0.6602v-0.3359c0-0.4922 0.1875-0.75 0.5117-1.043l0.2578-0.2461c0.2031-0.1758 0.3594-0.3711 0.3594-0.6953 0-0.4453-0.3164-0.7344-0.7656-0.7344-0.4609 0-0.7617 0.3438-0.8047 0.7695l-0.6719-0.07422c0.1211-0.8086 0.7305-1.297 1.52-1.297 0.7773 0 1.422 0.4531 1.422 1.297 0 0.5938-0.2734 0.8594-0.6719 1.195-0.3789 0.3242-0.4961 0.457-0.4961 0.918v0.2461" fill="#231f1f"/>
<path d="m10.51 128.1c0.6875 0 1.238 0.5508 1.238 1.238s-0.5508 1.238-1.238 1.238-1.238-0.5508-1.238-1.238 0.5508-1.238 1.238-1.238" fill="#231f1f"/>
<path d="m15.84 130.8h0.01172l1.164-3.949h0.7656l1.152 3.949h0.01562l1.094-3.949h0.7344l-1.457 4.961h-0.7227l-1.203-3.984h-0.01562l-1.203 3.984h-0.7227l-1.457-4.961h0.75l1.094 3.949" fill="#231f1f"/>
<path d="m22.07 131.8h-0.6562v-3.32h0.6562zm-0.3281-4.098c-0.2383 0-0.4336-0.1914-0.4336-0.4219 0-0.2383 0.1953-0.4258 0.4336-0.4258 0.2383 0 0.4414 0.1797 0.4414 0.4258 0 0.2383-0.2031 0.4219-0.4414 0.4219" fill="#231f1f"/>
<path d="m24.78 131.3c0.6719 0 1.121-0.5586 1.121-1.195 0-0.6406-0.4492-1.207-1.121-1.207-0.7227 0-1.102 0.5742-1.102 1.199s0.3789 1.203 1.102 1.203zm-0.1133 0.5547c-1.02 0-1.672-0.7852-1.672-1.758 0-0.9805 0.6719-1.742 1.664-1.742 0.543 0 0.9531 0.2656 1.188 0.5859h0.01172v-2.473h0.6602v5.297h-0.6367v-0.5273h-0.01562c-0.2539 0.3984-0.7266 0.6172-1.199 0.6172" fill="#231f1f"/>
<path d="m30.09 129.8c-0.01172-0.5234-0.3203-0.9375-0.9297-0.9375-0.5664 0-1.004 0.4219-1.043 0.9375zm0.6602 0.4922h-2.633c0.01953 0.5664 0.4961 1.008 1.078 1.008 0.4492 0 0.7773-0.2227 0.9648-0.5039l0.4648 0.3711c-0.3594 0.4609-0.8438 0.6797-1.43 0.6797-1.008 0-1.75-0.6992-1.75-1.742 0-1.039 0.7422-1.758 1.715-1.758 0.9805 0 1.598 0.6641 1.598 1.723 0 0.07031 0 0.1445-0.007813 0.2227" fill="#231f1f"/>
<path d="m32.27 128.5c0.01562 0.168 0.02734 0.4062 0.02734 0.5469h0.02344c0.1602-0.3594 0.6016-0.6367 1.078-0.6367 0.8555 0 1.238 0.6055 1.238 1.348v2.062h-0.6562v-1.844c0-0.5391-0.1484-1.016-0.7578-1.016-0.5156 0-0.8867 0.4336-0.8867 1.094v1.766h-0.6602v-2.605c0-0.1758-0.007812-0.5-0.02734-0.7148h0.6211" fill="#231f1f"/>
<path d="m38.18 129.8c-0.01563-0.5234-0.3242-0.9375-0.9336-0.9375-0.5664 0-1 0.4219-1.043 0.9375zm0.6602 0.4922h-2.637c0.02344 0.5664 0.5 1.008 1.078 1.008 0.4492 0 0.7773-0.2227 0.9688-0.5039l0.4609 0.3711c-0.3555 0.4609-0.8398 0.6797-1.43 0.6797-1.008 0-1.75-0.6992-1.75-1.742 0-1.039 0.7422-1.758 1.715-1.758 0.9805 0 1.598 0.6641 1.598 1.723 0 0.07031 0 0.1445-0.003906 0.2227" fill="#231f1f"/>
<path d="m41.32 131.3c0.6719 0 1.117-0.5586 1.117-1.195 0-0.6406-0.4453-1.207-1.117-1.207-0.7227 0-1.102 0.5742-1.102 1.199s0.3789 1.203 1.102 1.203zm-0.1133 0.5547c-1.023 0-1.676-0.7852-1.676-1.758 0-0.9805 0.6719-1.742 1.668-1.742 0.5391 0 0.9531 0.2656 1.184 0.5859h0.01562v-2.473h0.6562v5.297h-0.6367v-0.5273h-0.01562c-0.25 0.3984-0.7266 0.6172-1.195 0.6172" fill="#231f1f"/>
<path d="m46.81 130h1.855l-0.9219-2.324zm-0.7422 1.828h-0.7695l2.152-4.961h0.6289l2.129 4.961h-0.7852l-0.5039-1.219h-2.352l-0.5 1.219" fill="#231f1f"/>
<path d="m52.17 130.4h-1.625v-0.5586h1.625v0.5586" fill="#231f1f"/>
<path d="m54.95 130.2c-0.6523 0-1.48 0.06641-1.48 0.6289 0 0.3906 0.3516 0.5156 0.6797 0.5156 0.6172 0 0.9609-0.4102 0.9609-0.9727v-0.1719zm0.1602-0.5703c0-0.4883-0.332-0.7266-0.8203-0.7266-0.3711 0-0.7227 0.1602-0.9453 0.3828l-0.3516-0.418c0.3242-0.3086 0.8203-0.4961 1.359-0.4961 0.9531 0 1.387 0.5664 1.387 1.301v1.449c0 0.2227 0.01562 0.4961 0.05078 0.6602h-0.5977c-0.03516-0.1484-0.05469-0.3242-0.05469-0.4766h-0.01953c-0.2383 0.3555-0.6172 0.5586-1.113 0.5586-0.5273 0-1.207-0.2578-1.207-1.023 0-1 1.191-1.121 2.312-1.121v-0.08984" fill="#231f1f"/>
<path d="m60.15 131.3c0.6797 0 1.129-0.5117 1.129-1.168 0-0.6328-0.457-1.172-1.129-1.172-0.6953 0-1.102 0.5352-1.102 1.172 0 0.6094 0.4062 1.168 1.102 1.168zm-1.305 1.094c0.2891 0.3203 0.7578 0.5391 1.215 0.5391 0.875 0 1.168-0.5391 1.168-1.227v-0.4258h-0.01172c-0.2461 0.3711-0.7031 0.5742-1.172 0.5742-1.016 0-1.676-0.7578-1.676-1.711s0.6523-1.727 1.668-1.727c0.4766 0 0.9453 0.207 1.199 0.6211h0.01172v-0.5312h0.6406v3.152c0 0.9648-0.457 1.848-1.836 1.848-0.5742 0-1.211-0.2227-1.625-0.6016l0.418-0.5117" fill="#231f1f"/>
<path d="m62.98 128.5h0.625c0.01562 0.168 0.02734 0.418 0.02734 0.5586h0.02344c0.1797-0.3828 0.5664-0.6484 1.016-0.6484 0.08984 0 0.1797 0.003907 0.2578 0.02734l-0.02734 0.6094c-0.08594-0.02344-0.1953-0.03516-0.3008-0.03516-0.6328 0-0.9336 0.5078-0.9336 1.062v1.746h-0.6562v-2.605c0-0.1758-0.007813-0.5-0.03125-0.7148" fill="#231f1f"/>
<path d="m67.36 130.2c-0.6523 0-1.48 0.06641-1.48 0.6289 0 0.3906 0.3516 0.5156 0.6797 0.5156 0.6172 0 0.9609-0.4102 0.9609-0.9727v-0.1719zm0.1602-0.5703c0-0.4883-0.3281-0.7266-0.8203-0.7266-0.3711 0-0.7227 0.1602-0.9453 0.3828l-0.3516-0.418c0.3242-0.3086 0.8203-0.4961 1.359-0.4961 0.9531 0 1.387 0.5664 1.387 1.301v1.449c0 0.2227 0.01562 0.4961 0.05078 0.6602h-0.5977c-0.03125-0.1484-0.05469-0.3242-0.05469-0.4766h-0.01953c-0.2383 0.3555-0.6172 0.5586-1.113 0.5586-0.5273 0-1.207-0.2578-1.207-1.023 0-1 1.191-1.121 2.312-1.121v-0.08984" fill="#231f1f"/>
<path d="m70.81 131.3c0.6719 0 1.121-0.5586 1.121-1.195 0-0.6406-0.4492-1.207-1.121-1.207-0.7188 0-1.098 0.5742-1.098 1.199s0.3789 1.203 1.098 1.203zm-0.1094 0.5547c-1.023 0-1.676-0.7852-1.676-1.758 0-0.9805 0.6719-1.742 1.668-1.742 0.5391 0 0.9531 0.2656 1.184 0.5859h0.01172v-2.473h0.6602v5.297h-0.6367v-0.5273h-0.01562c-0.25 0.3984-0.7266 0.6172-1.195 0.6172" fill="#231f1f"/>
<path d="m74.36 131.8h-0.6562v-3.32h0.6562zm-0.3281-4.098c-0.2383 0-0.4336-0.1914-0.4336-0.4219 0-0.2383 0.1953-0.4258 0.4336-0.4258s0.4414 0.1797 0.4414 0.4258c0 0.2383-0.2031 0.4219-0.4414 0.4219" fill="#231f1f"/>
<path d="m77.94 129.8c-0.01562-0.5234-0.3242-0.9375-0.9336-0.9375-0.5664 0-1 0.4219-1.043 0.9375zm0.6562 0.4922h-2.633c0.01953 0.5664 0.4961 1.008 1.078 1.008 0.4492 0 0.7773-0.2227 0.9648-0.5039l0.4648 0.3711c-0.3594 0.4609-0.8398 0.6797-1.43 0.6797-1.008 0-1.75-0.6992-1.75-1.742 0-1.039 0.7422-1.758 1.715-1.758 0.9805 0 1.598 0.6641 1.598 1.723 0 0.07031 0 0.1445-0.007813 0.2227" fill="#231f1f"/>
<path d="m80.11 128.5c0.01562 0.168 0.03125 0.4062 0.03125 0.5469h0.01953c0.1602-0.3594 0.6016-0.6367 1.078-0.6367 0.8555 0 1.242 0.6055 1.242 1.348v2.062h-0.6602v-1.844c0-0.5391-0.1484-1.016-0.7578-1.016-0.5156 0-0.8867 0.4336-0.8867 1.094v1.766h-0.6602v-2.605c0-0.1758-0.007812-0.5-0.02734-0.7148h0.6211" fill="#231f1f"/>
<path d="m85.22 129h-0.8828v1.73c0 0.3984 0.1406 0.5586 0.4688 0.5586 0.1211 0 0.2734-0.02734 0.3867-0.08203l0.01953 0.5391c-0.1523 0.05469-0.3555 0.08984-0.5586 0.08984-0.625 0-0.9688-0.3516-0.9688-1.035v-1.801h-0.6367v-0.5391h0.6367v-0.9531h0.6523v0.9531h0.8828v0.5391" fill="#231f1f"/>
<path d="m87.14 131.8c-0.2617 0-0.4688-0.207-0.4688-0.4531 0-0.2539 0.2031-0.4609 0.4688-0.4609s0.4688 0.1992 0.4688 0.4531c0 0.2461-0.2031 0.4609-0.4688 0.4609zm0.293-1.449h-0.6562v-0.3359c0-0.4883 0.1875-0.75 0.5078-1.043l0.2617-0.2461c0.2031-0.1719 0.3555-0.3711 0.3555-0.6914 0-0.4492-0.3125-0.7344-0.7617-0.7344-0.4648 0-0.7656 0.3398-0.8047 0.7695l-0.6758-0.07812c0.1211-0.8047 0.7305-1.297 1.52-1.297 0.7812 0 1.422 0.457 1.422 1.297 0 0.5938-0.2695 0.8633-0.6719 1.199-0.3789 0.3203-0.4961 0.4531-0.4961 0.918v0.2422" fill="#231f1f"/>
<g clip-path="url(#b)">
<path d="m115.2 79.8h-115v-39.78h115v39.78" fill="#fef0ca"/>
</g>
<g clip-path="url(#a)">
<path transform="matrix(.1 0 0 -.1 0 212.8)" d="m1152 1330h-1150v397.8h1150z" fill="none" stroke="#231f1f" stroke-width="5"/>
</g>
<path d="m14.11 49.58c-0.1992-0.2734-0.5547-0.4648-0.9688-0.4648-0.4492 0-0.9648 0.2461-0.9648 0.8047 0 0.543 0.4531 0.6875 1.016 0.8711 0.6641 0.2109 1.457 0.4609 1.457 1.449 0 1.027-0.8359 1.504-1.719 1.504-0.6211 0-1.254-0.2422-1.629-0.7188l0.5391-0.457c0.2305 0.3438 0.6484 0.582 1.105 0.582 0.4609 0 0.9922-0.2578 0.9922-0.8477 0-0.6016-0.543-0.7656-1.176-0.9609-0.6289-0.1953-1.289-0.4805-1.289-1.391 0-0.9883 0.8828-1.418 1.703-1.418 0.5742 0 1.113 0.2266 1.422 0.5703l-0.4883 0.4766" fill="#231f1f"/>
<path d="m18.02 51.67c-0.01172-0.5273-0.3203-0.9375-0.9297-0.9375-0.5664 0-1.004 0.418-1.043 0.9375zm0.6602 0.4883h-2.633c0.01953 0.5703 0.4961 1.008 1.078 1.008 0.4492 0 0.7773-0.2227 0.9648-0.5039l0.4609 0.3711c-0.3555 0.4648-0.8398 0.6797-1.426 0.6797-1.008 0-1.754-0.6992-1.754-1.742 0-1.035 0.7461-1.758 1.719-1.758 0.9805 0 1.598 0.6641 1.598 1.723 0 0.07031 0 0.1484-0.007813 0.2227" fill="#231f1f"/>
<path d="m21.92 51.14c-0.1406-0.2148-0.4492-0.375-0.7617-0.375-0.6875 0-1.086 0.5586-1.086 1.195 0 0.6328 0.3984 1.199 1.09 1.199 0.3398 0 0.625-0.1406 0.8008-0.3633l0.4414 0.3984c-0.2812 0.3203-0.707 0.5156-1.242 0.5156-1.02 0-1.785-0.6914-1.785-1.75 0-1.043 0.7578-1.75 1.773-1.75 0.4688 0 0.9727 0.1875 1.246 0.5469l-0.4766 0.3828" fill="#231f1f"/>
<path d="m25.39 53.62c-0.01562-0.168-0.02734-0.4062-0.02734-0.5469h-0.01563c-0.168 0.3516-0.6016 0.6367-1.086 0.6367-0.8516 0-1.238-0.6094-1.238-1.352v-2.059h0.6562v1.836c0 0.5469 0.1484 1.023 0.7578 1.023 0.5273 0 0.8906-0.4336 0.8906-1.094v-1.766h0.6562v2.605c0 0.1758 0.007813 0.4961 0.03125 0.7148h-0.625" fill="#231f1f"/>
<path d="m27.1 50.3h0.6211c0.01562 0.168 0.03125 0.4219 0.03125 0.5625h0.01953c0.1836-0.3867 0.5664-0.6523 1.016-0.6523 0.08984 0 0.1836 0.007812 0.2578 0.02734l-0.02734 0.6094c-0.08203-0.01953-0.1953-0.03516-0.3008-0.03516-0.6289 0-0.9297 0.5117-0.9297 1.066v1.742h-0.6602v-2.605c0-0.1758-0.007812-0.4961-0.02734-0.7148" fill="#231f1f"/>
<path d="m31.97 51.67c-0.01562-0.5273-0.3242-0.9375-0.9336-0.9375-0.5664 0-1 0.418-1.043 0.9375zm0.6562 0.4883h-2.633c0.02344 0.5703 0.4961 1.008 1.078 1.008 0.4492 0 0.7773-0.2227 0.9688-0.5039l0.4609 0.3711c-0.3555 0.4648-0.8398 0.6797-1.43 0.6797-1.008 0-1.75-0.6992-1.75-1.742 0-1.035 0.7422-1.758 1.715-1.758 0.9805 0 1.598 0.6641 1.598 1.723 0 0.07031 0 0.1484-0.007812 0.2227" fill="#231f1f"/>
<path d="m36.15 51.79h1.855l-0.9219-2.324zm-0.7422 1.828h-0.7695l2.148-4.957h0.6328l2.129 4.957h-0.7852l-0.5039-1.219h-2.355l-0.4961 1.219" fill="#231f1f"/>
<path d="m40.82 53.62h-0.6602v-3.32h0.6602zm-0.332-4.098c-0.2383 0-0.4336-0.1875-0.4336-0.418 0-0.2383 0.1953-0.4297 0.4336-0.4297s0.4414 0.1836 0.4414 0.4297c0 0.2383-0.2031 0.418-0.4414 0.418" fill="#231f1f"/>
<path d="m41.93 50.3h0.625c0.01172 0.168 0.02734 0.4219 0.02734 0.5625h0.01953c0.1836-0.3867 0.5664-0.6523 1.016-0.6523 0.09375 0 0.1836 0.007812 0.2617 0.02734l-0.03125 0.6094c-0.08203-0.01953-0.1953-0.03516-0.3008-0.03516-0.6289 0-0.9297 0.5117-0.9297 1.066v1.742h-0.6602v-2.605c0-0.1758-0.003907-0.4961-0.02734-0.7148" fill="#231f1f"/>
<path d="m44.74 50.3 0.75 2.535h0.01172l0.793-2.535h0.6914l0.8047 2.535h0.01562l0.75-2.535h0.6953l-1.102 3.32h-0.6875l-0.8164-2.492h-0.01563l-0.8125 2.492h-0.6875l-1.105-3.32h0.7148" fill="#231f1f"/>
<path d="m51.81 52.04c-0.6523 0-1.477 0.07031-1.477 0.6289 0 0.3945 0.3477 0.5195 0.6797 0.5195 0.6133 0 0.957-0.4141 0.957-0.9727v-0.1758zm0.1602-0.5664c0-0.4922-0.3281-0.7305-0.8203-0.7305-0.3711 0-0.7188 0.1602-0.9453 0.3867l-0.3477-0.4219c0.3203-0.3086 0.8164-0.4961 1.359-0.4961 0.9492 0 1.383 0.5664 1.383 1.301v1.453c0 0.2227 0.01563 0.4961 0.05078 0.6562h-0.5938c-0.03516-0.1484-0.05859-0.3203-0.05859-0.4766h-0.01953c-0.2383 0.3594-0.6172 0.5625-1.113 0.5625-0.5273 0-1.207-0.2617-1.207-1.023 0-1.004 1.191-1.121 2.312-1.121v-0.08984" fill="#231f1f"/>
<path d="m54.96 52.91h0.01562l0.918-2.605h0.6992l-1.609 4.105c-0.2188 0.5547-0.5 0.8945-1.148 0.8945-0.1406 0-0.2891-0.01172-0.4375-0.04688l0.06641-0.582c0.1016 0.03516 0.2227 0.05469 0.3281 0.05469 0.3438 0 0.4766-0.1953 0.6172-0.5508l0.207-0.5547-1.422-3.32h0.7383l1.027 2.605" fill="#231f1f"/>
<path d="m12.79 58.3c0.6875 0 1.242 0.5547 1.242 1.242 0 0.6836-0.5547 1.238-1.242 1.238-0.6836 0-1.238-0.5547-1.238-1.238 0-0.6875 0.5547-1.242 1.238-1.242" fill="#231f1f"/>
<path d="m17.71 60.19h1.855l-0.9219-2.324zm-0.7422 1.828h-0.7695l2.148-4.957h0.6328l2.129 4.957h-0.7852l-0.5039-1.219h-2.352l-0.5 1.219" fill="#231f1f"/>
<path d="m22.37 62.02h-0.6602v-3.316h0.6602zm-0.332-4.094c-0.2383 0-0.4336-0.1914-0.4336-0.4219 0-0.2383 0.1953-0.4258 0.4336-0.4258 0.2383 0 0.4414 0.1797 0.4414 0.4258 0 0.2383-0.2031 0.4219-0.4414 0.4219" fill="#231f1f"/>
<path d="m23.49 58.7h0.625c0.01562 0.168 0.02734 0.418 0.02734 0.5586h0.01953c0.1836-0.3828 0.5703-0.6523 1.016-0.6523 0.09375 0 0.1836 0.007813 0.2617 0.02734l-0.03125 0.6094c-0.08203-0.01953-0.1953-0.03125-0.3008-0.03125-0.6289 0-0.9297 0.5078-0.9297 1.062v1.742h-0.6562v-2.605c0-0.1719-0.007812-0.4961-0.03125-0.7109" fill="#231f1f"/>
<path d="m26.3 58.7 0.75 2.535h0.01172l0.793-2.535h0.6914l0.8086 2.535h0.01172l0.75-2.535h0.6953l-1.102 3.316h-0.6875l-0.8164-2.492h-0.01562l-0.8125 2.492h-0.6875l-1.105-3.316h0.7148" fill="#231f1f"/>
<path d="m33.37 60.44c-0.6523 0-1.477 0.07031-1.477 0.6328 0 0.3906 0.3477 0.5156 0.6797 0.5156 0.6133 0 0.957-0.4102 0.957-0.9727v-0.1758zm0.1602-0.5664c0-0.4883-0.3281-0.7266-0.8164-0.7266-0.3711 0-0.7227 0.1602-0.9453 0.3828l-0.3516-0.418c0.3203-0.3086 0.8203-0.5 1.359-0.5 0.9492 0 1.387 0.5703 1.387 1.305v1.449c0 0.2227 0.01172 0.4961 0.04688 0.6562h-0.5938c-0.03516-0.1445-0.05859-0.3203-0.05859-0.4727h-0.01953c-0.2383 0.3555-0.6172 0.5586-1.113 0.5586-0.5234 0-1.203-0.2578-1.203-1.023 0-1 1.188-1.121 2.309-1.121v-0.08984" fill="#231f1f"/>
<path d="m36.52 61.31h0.01562l0.918-2.605h0.6992l-1.609 4.102c-0.2188 0.5547-0.5 0.8984-1.148 0.8984-0.1406 0-0.2891-0.01562-0.4336-0.05078l0.0625-0.582c0.1016 0.03516 0.2227 0.05859 0.3281 0.05859 0.3438 0 0.4766-0.1953 0.6172-0.5547l0.207-0.5547-1.418-3.316h0.7344l1.027 2.605" fill="#231f1f"/>
<path d="m42.27 59.16c-0.6719 0-1.117 0.5664-1.117 1.207 0 0.6367 0.4453 1.195 1.117 1.195 0.7227 0 1.109-0.582 1.109-1.203 0-0.625-0.3867-1.199-1.109-1.199zm-1.078 4.547h-0.6562v-5h0.6445v0.5156h0.01953c0.2188-0.3477 0.6523-0.6094 1.199-0.6094 0.9883 0 1.66 0.7656 1.66 1.746 0 0.9727-0.6523 1.758-1.676 1.758-0.4688 0-0.9219-0.2188-1.168-0.5898h-0.02344v2.18" fill="#231f1f"/>
<path d="m46.88 60.44c-0.6523 0-1.48 0.07031-1.48 0.6328 0 0.3906 0.3516 0.5156 0.6797 0.5156 0.6172 0 0.9609-0.4102 0.9609-0.9727v-0.1758zm0.1602-0.5664c0-0.4883-0.3281-0.7266-0.8203-0.7266-0.3711 0-0.7227 0.1602-0.9453 0.3828l-0.3516-0.418c0.3242-0.3086 0.8203-0.5 1.359-0.5 0.9531 0 1.387 0.5703 1.387 1.305v1.449c0 0.2227 0.01562 0.4961 0.05078 0.6562h-0.5977c-0.03516-0.1445-0.05469-0.3203-0.05469-0.4727h-0.01953c-0.2383 0.3555-0.6172 0.5586-1.117 0.5586-0.5234 0-1.203-0.2578-1.203-1.023 0-1 1.191-1.121 2.312-1.121v-0.08984" fill="#231f1f"/>
<path d="m50.32 59.24h-0.8828v1.73c0 0.3984 0.1406 0.5586 0.4688 0.5586 0.1211 0 0.2734-0.02734 0.3867-0.08594l0.01953 0.5391c-0.1523 0.05859-0.3555 0.09375-0.5586 0.09375-0.625 0-0.9688-0.3516-0.9688-1.039v-1.797h-0.6367v-0.5391h0.6367v-0.9531h0.6523v0.9531h0.8828v0.5391" fill="#231f1f"/>
<path d="m53.43 60.07c-0.01563-0.5234-0.3242-0.9375-0.9336-0.9375-0.5664 0-1 0.4219-1.043 0.9375zm0.6602 0.4922h-2.637c0.02344 0.5664 0.5 1.008 1.078 1.008 0.4492 0 0.7773-0.2227 0.9688-0.5039l0.4609 0.3711c-0.3555 0.4609-0.8398 0.6797-1.43 0.6797-1.008 0-1.75-0.7031-1.75-1.746 0-1.035 0.7422-1.758 1.715-1.758 0.9805 0 1.598 0.668 1.598 1.723 0 0.07031 0 0.1484-0.003906 0.2266" fill="#231f1f"/>
<path d="m55.61 58.7c0.01562 0.168 0.02734 0.4062 0.02734 0.543h0.02344c0.1602-0.3555 0.6016-0.6367 1.078-0.6367 0.8516 0 1.238 0.6094 1.238 1.352v2.059h-0.6562v-1.84c0-0.5391-0.1484-1.016-0.7578-1.016-0.5195 0-0.8906 0.4336-0.8906 1.094v1.762h-0.6562v-2.605c0-0.1719-0.007813-0.4961-0.03125-0.7109h0.625" fill="#231f1f"/>
<path d="m60.71 59.24h-0.8828v1.73c0 0.3984 0.1367 0.5586 0.4688 0.5586 0.1172 0 0.2734-0.02734 0.3828-0.08594l0.02344 0.5391c-0.1562 0.05859-0.3594 0.09375-0.5625 0.09375-0.6211 0-0.9648-0.3516-0.9648-1.039v-1.797h-0.6367v-0.5391h0.6367v-0.9531h0.6523v0.9531h0.8828v0.5391" fill="#231f1f"/>
<path d="m62.63 62.06c-0.2578 0-0.4688-0.2109-0.4688-0.4531 0-0.2539 0.2031-0.4648 0.4688-0.4648 0.2656 0 0.4688 0.2031 0.4688 0.457 0 0.2461-0.2031 0.4609-0.4688 0.4609zm0.293-1.449h-0.6562v-0.3359c0-0.4883 0.1875-0.75 0.5117-1.043l0.2578-0.2461c0.2031-0.1758 0.3594-0.3711 0.3594-0.6914 0-0.4492-0.3164-0.7383-0.7656-0.7383-0.4609 0-0.7617 0.3438-0.8047 0.7734l-0.6719-0.07812c0.1172-0.8047 0.7266-1.297 1.52-1.297 0.7773 0 1.422 0.457 1.422 1.297 0 0.5938-0.2734 0.8594-0.6719 1.195-0.3789 0.3242-0.5 0.457-0.5 0.918v0.2461" fill="#231f1f"/>
<path d="m12.79 66.7c0.6875 0 1.242 0.5547 1.242 1.238 0 0.6875-0.5547 1.242-1.242 1.242-0.6836 0-1.238-0.5547-1.238-1.242 0-0.6836 0.5547-1.238 1.238-1.238" fill="#231f1f"/>
<path d="m21.14 69.65c-0.3867 0.5234-1.023 0.8945-1.891 0.8945-1.52 0-2.613-1.086-2.613-2.613 0-1.547 1.133-2.598 2.641-2.598 0.6797 0 1.414 0.2656 1.777 0.7695l-0.5469 0.4219c-0.2344-0.3359-0.7188-0.582-1.23-0.582-1.148 0-1.883 0.9023-1.883 1.988 0 1.117 0.7188 1.996 1.863 1.996 0.5508 0 1.035-0.2305 1.328-0.6562l0.5547 0.3789" fill="#231f1f"/>
<path d="m23.59 68.84c-0.6523 0-1.48 0.07031-1.48 0.6289 0 0.3906 0.3516 0.5195 0.6797 0.5195 0.6172 0 0.9609-0.4141 0.9609-0.9766v-0.1719zm0.1602-0.5703c0-0.4883-0.3281-0.7266-0.8203-0.7266-0.3711 0-0.7227 0.1602-0.9453 0.3867l-0.3516-0.4219c0.3242-0.3086 0.8203-0.4961 1.359-0.4961 0.9531 0 1.387 0.5664 1.387 1.301v1.449c0 0.2266 0.01562 0.5 0.05078 0.6602h-0.5977c-0.03516-0.1484-0.05469-0.3242-0.05469-0.4766h-0.01953c-0.2383 0.3555-0.6172 0.5625-1.113 0.5625-0.5273 0-1.207-0.2617-1.207-1.023 0-1.004 1.191-1.121 2.312-1.121v-0.09375" fill="#231f1f"/>
<path d="m26.07 67.1c0.01172 0.168 0.02734 0.4062 0.02734 0.5469h0.01953c0.1602-0.3594 0.6016-0.6367 1.078-0.6367 0.8555 0 1.242 0.6094 1.242 1.352v2.059h-0.6602v-1.844c0-0.5391-0.1445-1.016-0.7539-1.016-0.5195 0-0.8906 0.4336-0.8906 1.094v1.766h-0.6602v-2.605c0-0.1758-0.007812-0.4961-0.02734-0.7148h0.625" fill="#231f1f"/>
<path d="m33.04 67.56c-0.6719 0-1.121 0.5664-1.121 1.203s0.4492 1.199 1.121 1.199c0.7227 0 1.105-0.582 1.105-1.207 0-0.6211-0.3828-1.195-1.105-1.195zm-1.078 4.543h-0.6602v-5h0.6445v0.5195h0.02344c0.2148-0.3516 0.6484-0.6094 1.195-0.6094 0.9883 0 1.66 0.7617 1.66 1.742 0 0.9727-0.6523 1.758-1.672 1.758-0.4727 0-0.9258-0.2148-1.172-0.5859h-0.01953v2.176" fill="#231f1f"/>
<path d="m37.64 68.84c-0.6523 0-1.477 0.07031-1.477 0.6289 0 0.3906 0.3477 0.5195 0.6758 0.5195 0.6172 0 0.9609-0.4141 0.9609-0.9766v-0.1719zm0.1602-0.5703c0-0.4883-0.3281-0.7266-0.8203-0.7266-0.3711 0-0.7188 0.1602-0.9453 0.3867l-0.3477-0.4219c0.3203-0.3086 0.8203-0.4961 1.355-0.4961 0.9531 0 1.387 0.5664 1.387 1.301v1.449c0 0.2266 0.01562 0.5 0.05078 0.6602h-0.5938c-0.03516-0.1484-0.05859-0.3242-0.05859-0.4766h-0.01953c-0.2383 0.3555-0.6172 0.5625-1.113 0.5625-0.5273 0-1.207-0.2617-1.207-1.023 0-1.004 1.191-1.121 2.312-1.121v-0.09375" fill="#231f1f"/>
<path d="m41.09 67.64h-0.8828v1.73c0 0.3984 0.1367 0.5586 0.4688 0.5586 0.1172 0 0.2734-0.02734 0.3828-0.08203l0.02344 0.5391c-0.1562 0.05469-0.3594 0.08984-0.5625 0.08984-0.6211 0-0.9648-0.3477-0.9648-1.035v-1.801h-0.6367v-0.5391h0.6367v-0.9531h0.6523v0.9531h0.8828v0.5391" fill="#231f1f"/>
<path d="m42.43 70.42h-0.6562v-3.32h0.6562zm-0.3281-4.098c-0.2383 0-0.4336-0.1875-0.4336-0.4219 0-0.2383 0.1953-0.4258 0.4336-0.4258 0.2383 0 0.4414 0.1836 0.4414 0.4258 0 0.2383-0.2031 0.4219-0.4414 0.4219" fill="#231f1f"/>
<path d="m46.01 68.47c-0.01172-0.5273-0.3203-0.9414-0.9297-0.9414-0.5664 0-1 0.4219-1.043 0.9414zm0.6602 0.4883h-2.633c0.01953 0.5664 0.4961 1.008 1.078 1.008 0.4492 0 0.7773-0.2227 0.9648-0.5039l0.4648 0.3711c-0.3594 0.4648-0.8398 0.6797-1.43 0.6797-1.008 0-1.75-0.6992-1.75-1.742 0-1.039 0.7422-1.758 1.715-1.758 0.9805 0 1.598 0.6641 1.598 1.723 0 0.07031 0 0.1484-0.007812 0.2227" fill="#231f1f"/>
<path d="m48.18 67.1c0.01562 0.168 0.03125 0.4062 0.03125 0.5469h0.01953c0.1602-0.3594 0.6016-0.6367 1.078-0.6367 0.8555 0 1.238 0.6094 1.238 1.352v2.059h-0.6562v-1.844c0-0.5391-0.1484-1.016-0.7578-1.016-0.5156 0-0.8867 0.4336-0.8867 1.094v1.766h-0.6602v-2.605c0-0.1758-0.007813-0.4961-0.02734-0.7148h0.6211" fill="#231f1f"/>
<path d="m53.29 67.64h-0.8828v1.73c0 0.3984 0.1406 0.5586 0.4688 0.5586 0.1211 0 0.2734-0.02734 0.3867-0.08203l0.01953 0.5391c-0.1523 0.05469-0.3555 0.08984-0.5586 0.08984-0.625 0-0.9688-0.3477-0.9688-1.035v-1.801h-0.6367v-0.5391h0.6367v-0.9531h0.6523v0.9531h0.8828v0.5391" fill="#231f1f"/>
<path d="m57.45 67.56c-0.6719 0-1.121 0.5664-1.121 1.203s0.4492 1.199 1.121 1.199c0.7227 0 1.105-0.582 1.105-1.207 0-0.6211-0.3828-1.195-1.105-1.195zm-1.078 4.543h-0.6562v-5h0.6406v0.5195h0.02344c0.2148-0.3516 0.6523-0.6094 1.199-0.6094 0.9844 0 1.656 0.7617 1.656 1.742 0 0.9727-0.6484 1.758-1.672 1.758-0.4688 0-0.9258-0.2148-1.168-0.5859h-0.02344v2.176" fill="#231f1f"/>
<path d="m60.13 67.1h0.6211c0.01562 0.168 0.02734 0.4219 0.02734 0.5586h0.02344c0.1797-0.3828 0.5664-0.6484 1.016-0.6484 0.08984 0 0.1797 0.003906 0.2578 0.02734l-0.02734 0.6094c-0.08594-0.01953-0.1992-0.03516-0.3008-0.03516-0.6328 0-0.9336 0.5117-0.9336 1.062v1.746h-0.6562v-2.605c0-0.1758-0.007812-0.4961-0.02734-0.7148" fill="#231f1f"/>
<path d="m64.13 67.56c-0.707 0-1.109 0.5664-1.109 1.195 0 0.6328 0.4023 1.207 1.109 1.207 0.7148 0 1.105-0.5742 1.105-1.207 0-0.6289-0.3906-1.195-1.105-1.195zm0 2.953c-1.016 0-1.789-0.7344-1.789-1.758 0-1.023 0.7734-1.742 1.789-1.742 1.016 0 1.793 0.7188 1.793 1.742 0 1.023-0.7773 1.758-1.793 1.758" fill="#231f1f"/>
<path d="m68.46 67.64h-0.8828v1.73c0 0.3984 0.1406 0.5586 0.4688 0.5586 0.1211 0 0.2734-0.02734 0.3867-0.08203l0.01953 0.5391c-0.1523 0.05469-0.3555 0.08984-0.5586 0.08984-0.625 0-0.9688-0.3477-0.9688-1.035v-1.801h-0.6367v-0.5391h0.6367v-0.9531h0.6523v0.9531h0.8828v0.5391" fill="#231f1f"/>
<path d="m71.57 68.47c-0.01562-0.5273-0.3242-0.9414-0.9297-0.9414-0.5703 0-1.004 0.4219-1.047 0.9414zm0.6562 0.4883h-2.633c0.02344 0.5664 0.5 1.008 1.078 1.008 0.4492 0 0.7773-0.2227 0.9688-0.5039l0.4609 0.3711c-0.3555 0.4648-0.8398 0.6797-1.43 0.6797-1.008 0-1.75-0.6992-1.75-1.742 0-1.039 0.7422-1.758 1.719-1.758 0.9766 0 1.594 0.6641 1.594 1.723 0 0.07031 0 0.1484-0.007813 0.2227" fill="#231f1f"/>
<path d="m75.47 67.94c-0.1406-0.2148-0.4492-0.3789-0.7656-0.3789-0.6836 0-1.086 0.5625-1.086 1.199 0 0.6289 0.4023 1.199 1.094 1.199 0.3359 0 0.625-0.1406 0.8008-0.3672l0.4414 0.3984c-0.2812 0.3242-0.7109 0.5195-1.242 0.5195-1.023 0-1.785-0.6914-1.785-1.75 0-1.043 0.7578-1.75 1.773-1.75 0.4688 0 0.9727 0.1875 1.246 0.5469l-0.4766 0.3828" fill="#231f1f"/>
<path d="m78.23 67.64h-0.8828v1.73c0 0.3984 0.1406 0.5586 0.4688 0.5586 0.1172 0 0.2734-0.02734 0.3867-0.08203l0.01953 0.5391c-0.1523 0.05469-0.3594 0.08984-0.5625 0.08984-0.6211 0-0.9648-0.3477-0.9648-1.035v-1.801h-0.6367v-0.5391h0.6367v-0.9531h0.6523v0.9531h0.8828v0.5391" fill="#231f1f"/>
<path d="m82.56 68.84c-0.6523 0-1.477 0.07031-1.477 0.6289 0 0.3906 0.3477 0.5195 0.6797 0.5195 0.6133 0 0.957-0.4141 0.957-0.9766v-0.1719zm0.1602-0.5703c0-0.4883-0.3281-0.7266-0.8164-0.7266-0.375 0-0.7227 0.1602-0.9453 0.3867l-0.3516-0.4219c0.3203-0.3086 0.8203-0.4961 1.359-0.4961 0.9492 0 1.387 0.5664 1.387 1.301v1.449c0 0.2266 0.01172 0.5 0.04688 0.6602h-0.5938c-0.03516-0.1484-0.05469-0.3242-0.05469-0.4766h-0.02344c-0.2383 0.3555-0.6172 0.5625-1.113 0.5625-0.5234 0-1.203-0.2617-1.203-1.023 0-1.004 1.188-1.121 2.309-1.121v-0.09375" fill="#231f1f"/>
<path d="m85.12 70.42h-0.6602v-3.32h0.6602zm-0.3281-4.098c-0.2383 0-0.4375-0.1875-0.4375-0.4219 0-0.2383 0.1992-0.4258 0.4375-0.4258 0.2383 0 0.4414 0.1836 0.4414 0.4258 0 0.2383-0.2031 0.4219-0.4414 0.4219" fill="#231f1f"/>
<path d="m86.23 67.1h0.625c0.01562 0.168 0.02734 0.4219 0.02734 0.5586h0.02344c0.1797-0.3828 0.5664-0.6484 1.016-0.6484 0.08984 0 0.1797 0.003906 0.2578 0.02734l-0.02734 0.6094c-0.08594-0.01953-0.1953-0.03516-0.3008-0.03516-0.6328 0-0.9336 0.5117-0.9336 1.062v1.746h-0.6562v-2.605c0-0.1758-0.007813-0.4961-0.03125-0.7148" fill="#231f1f"/>
<path d="m89.04 67.1 0.75 2.535h0.01562l0.7891-2.535h0.6953l0.8047 2.535h0.01172l0.75-2.535h0.6953l-1.102 3.32h-0.6836l-0.8203-2.492h-0.01562l-0.8125 2.492h-0.6836l-1.109-3.32h0.7148" fill="#231f1f"/>
<path d="m96.11 68.84c-0.6484 0-1.477 0.07031-1.477 0.6289 0 0.3906 0.3516 0.5195 0.6797 0.5195 0.6172 0 0.9609-0.4141 0.9609-0.9766v-0.1719zm0.1641-0.5703c0-0.4883-0.332-0.7266-0.8203-0.7266-0.3711 0-0.7227 0.1602-0.9453 0.3867l-0.3516-0.4219c0.3203-0.3086 0.8203-0.4961 1.359-0.4961 0.9531 0 1.387 0.5664 1.387 1.301v1.449c0 0.2266 0.01172 0.5 0.05078 0.6602h-0.5977c-0.03516-0.1484-0.05469-0.3242-0.05469-0.4766h-0.02344c-0.2383 0.3555-0.6172 0.5625-1.113 0.5625-0.5234 0-1.203-0.2617-1.203-1.023 0-1.004 1.191-1.121 2.312-1.121v-0.09375" fill="#231f1f"/>
<path d="m99.27 69.71h0.01172l0.918-2.605h0.6992l-1.609 4.105c-0.2188 0.5508-0.4961 0.8945-1.148 0.8945-0.1406 0-0.2891-0.01172-0.4336-0.04687l0.0625-0.582c0.1055 0.03516 0.2227 0.05469 0.3281 0.05469 0.3438 0 0.4766-0.1953 0.6172-0.5508l0.2109-0.5547-1.422-3.32h0.7344l1.031 2.605" fill="#231f1f"/>
<path d="m102.8 70.46c-0.2578 0-0.4688-0.2109-0.4688-0.457 0-0.25 0.2031-0.4609 0.4688-0.4609 0.2695 0 0.4688 0.2031 0.4688 0.4531 0 0.2461-0.1992 0.4648-0.4688 0.4648zm0.293-1.453h-0.6562v-0.3359c0-0.4883 0.1875-0.7461 0.5117-1.043l0.2578-0.2422c0.2031-0.1758 0.3594-0.375 0.3594-0.6953 0-0.4492-0.3164-0.7344-0.7656-0.7344-0.4609 0-0.7617 0.3438-0.8047 0.7695l-0.6719-0.07812c0.1211-0.8047 0.7266-1.293 1.52-1.293 0.7773 0 1.422 0.4531 1.422 1.293 0 0.5977-0.2734 0.8633-0.6719 1.199-0.3789 0.3203-0.5 0.4531-0.5 0.918v0.2422" fill="#231f1f"/>
<path d="m103.8 17.5h-92v-17.25h92v17.25" fill="#fef0ca"/>
<path transform="matrix(.1 0 0 -.1 0 212.8)" d="m1038 1953h-920v172.5h920z" fill="none" stroke="#231f1f" stroke-width="5"/>
<path d="m19.16 10.04h1.855l-0.9258-2.324zm-0.7422 1.828h-0.7695l2.148-4.957h0.6289l2.129 4.957h-0.7812l-0.5039-1.219h-2.355l-0.4961 1.219" fill="#231f1f"/>
<path d="m25.48 9.391c-0.1406-0.2188-0.4492-0.3789-0.7617-0.3789-0.6875 0-1.086 0.5586-1.086 1.199 0 0.6289 0.3984 1.195 1.094 1.195 0.3359 0 0.6211-0.1406 0.7969-0.3633l0.4414 0.3984c-0.2812 0.3203-0.707 0.5195-1.238 0.5195-1.023 0-1.789-0.6953-1.789-1.75 0-1.047 0.7578-1.754 1.773-1.754 0.4688 0 0.9727 0.1914 1.246 0.5469l-0.4766 0.3867" fill="#231f1f"/>
<path d="m28.96 11.87c-0.01172-0.168-0.02734-0.4062-0.02734-0.5469h-0.01563c-0.168 0.3516-0.6016 0.6406-1.086 0.6406-0.8516 0-1.238-0.6094-1.238-1.352v-2.059h0.6602v1.832c0 0.5469 0.1445 1.023 0.7539 1.023 0.5273 0 0.8906-0.4336 0.8906-1.094v-1.762h0.6562v2.602c0 0.1758 0.007813 0.5 0.03125 0.7148h-0.625" fill="#231f1f"/>
<path d="m32.32 9.09h-0.8828v1.727c0 0.4023 0.1406 0.5625 0.4688 0.5625 0.1211 0 0.2734-0.02734 0.3867-0.08594l0.01953 0.5391c-0.1523 0.05859-0.3555 0.09375-0.5586 0.09375-0.625 0-0.9688-0.3516-0.9688-1.039v-1.797h-0.6367v-0.5391h0.6367v-0.9531h0.6523v0.9531h0.8828v0.5391" fill="#231f1f"/>
<path d="m35.43 9.914c-0.01562-0.5234-0.3242-0.9375-0.9336-0.9375-0.5664 0-1 0.418-1.043 0.9375zm0.6562 0.4922h-2.633c0.02344 0.5664 0.5 1.008 1.078 1.008 0.4492 0 0.7773-0.2266 0.9688-0.5039l0.4609 0.3711c-0.3555 0.4609-0.8398 0.6797-1.43 0.6797-1.008 0-1.75-0.7031-1.75-1.746 0-1.035 0.7422-1.758 1.715-1.758 0.9805 0 1.598 0.6641 1.598 1.723 0 0.07031 0 0.1484-0.007813 0.2266" fill="#231f1f"/>
<path d="m39.48 9.082h0.7969c0.6523 0 1.164-0.2031 1.164-0.8008 0-0.5938-0.5117-0.7812-1.113-0.7812h-0.8477zm0 2.785h-0.6953v-4.957h1.594c0.957 0 1.762 0.3633 1.762 1.371 0 0.7305-0.4961 1.191-1.203 1.312l1.387 2.273h-0.8398l-1.262-2.203h-0.7422v2.203" fill="#231f1f"/>
<path d="m45.4 9.914c-0.01562-0.5234-0.3242-0.9375-0.9336-0.9375-0.5664 0-1 0.418-1.043 0.9375zm0.6562 0.4922h-2.633c0.01953 0.5664 0.4961 1.008 1.078 1.008 0.4492 0 0.7773-0.2266 0.9648-0.5039l0.4648 0.3711c-0.3594 0.4609-0.8398 0.6797-1.43 0.6797-1.008 0-1.75-0.7031-1.75-1.746 0-1.035 0.7422-1.758 1.715-1.758 0.9805 0 1.598 0.6641 1.598 1.723 0 0.07031 0 0.1484-0.007812 0.2266" fill="#231f1f"/>
<path d="m48.77 9.391c-0.1445-0.2383-0.4336-0.4141-0.7695-0.4141-0.3008 0-0.6172 0.1172-0.6172 0.4336 0 0.2812 0.2539 0.3867 0.7578 0.4961 0.6289 0.1406 1.113 0.3984 1.113 0.9805 0 0.7852-0.6523 1.074-1.324 1.074-0.5039 0-1.023-0.1992-1.34-0.5977l0.4727-0.3984c0.1719 0.2578 0.5117 0.4609 0.8828 0.4609 0.3281 0 0.6562-0.1172 0.6562-0.4805 0-0.3086-0.3008-0.4219-0.8672-0.5547-0.4414-0.1055-0.9688-0.293-0.9688-0.918 0-0.7148 0.625-1.016 1.254-1.016 0.4688 0 0.9688 0.1914 1.207 0.5469l-0.457 0.3867" fill="#231f1f"/>
<path d="m51.82 9.004c-0.6719 0-1.117 0.5664-1.117 1.207 0 0.6367 0.4453 1.195 1.117 1.195 0.7227 0 1.109-0.582 1.109-1.203 0-0.625-0.3867-1.199-1.109-1.199zm-1.078 4.547h-0.6562v-5h0.6445v0.5156h0.01953c0.2188-0.3516 0.6523-0.6094 1.199-0.6094 0.9883 0 1.66 0.7656 1.66 1.746 0 0.9727-0.6523 1.758-1.676 1.758-0.4688 0-0.9258-0.2188-1.168-0.5898h-0.02344v2.18" fill="#231f1f"/>
<path d="m55.19 11.87h-0.6562v-3.316h0.6562zm-0.3281-4.098c-0.2383 0-0.4336-0.1875-0.4336-0.418 0-0.2383 0.1953-0.4258 0.4336-0.4258s0.4414 0.1797 0.4414 0.4258c0 0.2383-0.2031 0.418-0.4414 0.418" fill="#231f1f"/>
<path d="m56.31 8.551h0.6211c0.01562 0.1641 0.03125 0.418 0.03125 0.5586h0.01953c0.1797-0.3867 0.5664-0.6523 1.016-0.6523 0.08984 0 0.1797 0.007813 0.2578 0.02734l-0.02734 0.6094c-0.08203-0.01953-0.1953-0.03516-0.3008-0.03516-0.6289 0-0.9336 0.5117-0.9336 1.066v1.742h-0.6562v-2.605c0-0.1719-0.007813-0.4961-0.02734-0.7109" fill="#231f1f"/>
<path d="m60.69 10.29c-0.6523 0-1.477 0.07031-1.477 0.6289 0 0.3945 0.3477 0.5195 0.6797 0.5195 0.6172 0 0.957-0.4141 0.957-0.9727v-0.1758zm0.1602-0.5664c0-0.4922-0.3281-0.7305-0.8164-0.7305-0.375 0-0.7227 0.1641-0.9453 0.3867l-0.3516-0.4219c0.3203-0.3047 0.8203-0.4961 1.359-0.4961 0.9492 0 1.387 0.5664 1.387 1.305v1.449c0 0.2227 0.01172 0.4961 0.04688 0.6562h-0.5938c-0.03516-0.1445-0.05469-0.3203-0.05469-0.4766h-0.02344c-0.2383 0.3594-0.6172 0.5625-1.113 0.5625-0.5234 0-1.203-0.2617-1.203-1.023 0-1 1.188-1.121 2.309-1.121v-0.08984" fill="#231f1f"/>
<path d="m64.13 9.09h-0.8828v1.727c0 0.4023 0.1406 0.5625 0.4688 0.5625 0.1172 0 0.2734-0.02734 0.3828-0.08594l0.02344 0.5391c-0.1562 0.05859-0.3555 0.09375-0.5586 0.09375-0.625 0-0.9688-0.3516-0.9688-1.039v-1.797h-0.6367v-0.5391h0.6367v-0.9531h0.6523v0.9531h0.8828v0.5391" fill="#231f1f"/>
<path d="m66.38 9.004c-0.707 0-1.105 0.5664-1.105 1.199 0 0.6289 0.3984 1.203 1.105 1.203 0.7148 0 1.105-0.5742 1.105-1.203 0-0.6328-0.3906-1.199-1.105-1.199zm0 2.957c-1.016 0-1.785-0.7383-1.785-1.758 0-1.023 0.7695-1.746 1.785-1.746s1.793 0.7227 1.793 1.746c0 1.02-0.7773 1.758-1.793 1.758" fill="#231f1f"/>
<path d="m69.05 8.551h0.625c0.01172 0.1641 0.02734 0.418 0.02734 0.5586h0.01953c0.1836-0.3867 0.5703-0.6523 1.016-0.6523 0.09375 0 0.1836 0.007813 0.2617 0.02734l-0.03125 0.6094c-0.08203-0.01953-0.1953-0.03516-0.3008-0.03516-0.6289 0-0.9297 0.5117-0.9297 1.066v1.742h-0.6602v-2.605c0-0.1719-0.003906-0.4961-0.02734-0.7109" fill="#231f1f"/>
<path d="m72.88 11.15h0.01172l0.918-2.602h0.7031l-1.613 4.102c-0.2148 0.5547-0.4961 0.8984-1.148 0.8984-0.1406 0-0.2852-0.01562-0.4336-0.05078l0.0625-0.582c0.1055 0.03516 0.2227 0.05859 0.3281 0.05859 0.3438 0 0.4766-0.1992 0.6172-0.5547l0.2109-0.5547-1.422-3.316h0.7344l1.031 2.602" fill="#231f1f"/>
<path d="m77.62 11.87h-0.6953v-4.957h3.098v0.6094h-2.402v1.539h2.246v0.5977h-2.246v2.211" fill="#231f1f"/>
<path d="m82.44 10.29c-0.6523 0-1.477 0.07031-1.477 0.6289 0 0.3945 0.3477 0.5195 0.6758 0.5195 0.6172 0 0.9609-0.4141 0.9609-0.9727v-0.1758zm0.1602-0.5664c0-0.4922-0.3281-0.7305-0.8203-0.7305-0.3711 0-0.7188 0.1641-0.9453 0.3867l-0.3516-0.4219c0.3242-0.3047 0.8203-0.4961 1.359-0.4961 0.9531 0 1.387 0.5664 1.387 1.305v1.449c0 0.2227 0.01563 0.4961 0.05078 0.6562h-0.5977c-0.03125-0.1445-0.05469-0.3203-0.05469-0.4766h-0.01953c-0.2383 0.3594-0.6172 0.5625-1.113 0.5625-0.5273 0-1.207-0.2617-1.207-1.023 0-1 1.191-1.121 2.312-1.121v-0.08984" fill="#231f1f"/>
<path d="m84.99 11.87h-0.6602v-3.316h0.6602zm-0.332-4.098c-0.2383 0-0.4336-0.1875-0.4336-0.418 0-0.2383 0.1953-0.4258 0.4336-0.4258 0.2383 0 0.4414 0.1797 0.4414 0.4258 0 0.2383-0.2031 0.418-0.4414 0.418" fill="#231f1f"/>
<path d="m86.81 11.87h-0.6602v-5.293h0.6602v5.293" fill="#231f1f"/>
<path d="m90.3 11.87c-0.01172-0.168-0.02734-0.4062-0.02734-0.5469h-0.01172c-0.1719 0.3516-0.6055 0.6406-1.09 0.6406-0.8516 0-1.238-0.6094-1.238-1.352v-2.059h0.6602v1.832c0 0.5469 0.1445 1.023 0.7539 1.023 0.5273 0 0.8906-0.4336 0.8906-1.094v-1.762h0.6602v2.602c0 0.1758 0.003907 0.5 0.02734 0.7148h-0.625" fill="#231f1f"/>
<path d="m92 8.551h0.625c0.01172 0.1641 0.02734 0.418 0.02734 0.5586h0.01953c0.1836-0.3867 0.5664-0.6523 1.016-0.6523 0.08984 0 0.1836 0.007813 0.2617 0.02734l-0.03125 0.6094c-0.08203-0.01953-0.1953-0.03516-0.3008-0.03516-0.6289 0-0.9297 0.5117-0.9297 1.066v1.742h-0.6602v-2.605c0-0.1719-0.003906-0.4961-0.02734-0.7109" fill="#231f1f"/>
<path d="m96.87 9.914c-0.01562-0.5234-0.3242-0.9375-0.9297-0.9375-0.5703 0-1.004 0.418-1.047 0.9375zm0.6602 0.4922h-2.637c0.02344 0.5664 0.5 1.008 1.078 1.008 0.4492 0 0.7773-0.2266 0.9688-0.5039l0.4609 0.3711c-0.3555 0.4609-0.8398 0.6797-1.43 0.6797-1.008 0-1.75-0.7031-1.75-1.746 0-1.035 0.7422-1.758 1.719-1.758 0.9766 0 1.594 0.6641 1.594 1.723 0 0.07031 0 0.1484-0.003906 0.2266" fill="#231f1f"/>
</svg>
