<?xml version="1.0" encoding="UTF-8"?>
<svg width="468.6pt" height="243.1pt" version="1.1" viewBox="0 0 468.6 243.1" xmlns="http://www.w3.org/2000/svg">
<defs>
<clipPath id="c">
<path d="m361 44h107.6v35h-107.6z"/>
</clipPath>
<clipPath id="b">
<path d="m289 217h83v26.08h-83z"/>
</clipPath>
<clipPath id="a">
<path d="m384 217h82v26.08h-82z"/>
</clipPath>
</defs>
<path transform="matrix(.1 0 0 -.1 0 243.1)" d="m2137 2025v120h2014v-120" fill="none" stroke="#231f1f" stroke-width="5"/>
<path transform="matrix(.1 0 0 -.1 0 243.1)" d="m3144 2255v-110.2" fill="none" stroke="#231f1f" stroke-width="5"/>
<path d="m415.1 43.15c-0.6367-1.703-1.711-3.816-2.855-5.129l2.855 1.031 2.852-1.031c-1.141 1.312-2.219 3.426-2.852 5.129" fill="#231f1f"/>
<path d="m213.7 43.21c-0.6328-1.703-1.711-3.82-2.855-5.129l2.855 1.031 2.852-1.031c-1.141 1.309-2.223 3.426-2.852 5.129" fill="#231f1f"/>
<path d="m404.4 17.5h-180v-17.25h180v17.25" fill="#fef0ca"/>
<path transform="matrix(.1 0 0 -.1 0 243.1)" d="m4044 2256h-1800v172.5h1800z" fill="none" stroke="#231f1f" stroke-width="5"/>
<path d="m229.9 6.016h0.6914v2.074h2.508v-2.074h0.6992v4.961h-0.6992v-2.27h-2.508v2.27h-0.6914v-4.961" fill="#231f1f"/>
<path d="m235.7 10.98h-0.6953v-4.961h0.6953v4.961" fill="#231f1f"/>
<path d="m238.6 10.08h0.01953l1.492-4.062h0.75l-1.945 4.961h-0.6445l-1.934-4.961h0.7695l1.492 4.062" fill="#231f1f"/>
<path d="m242.6 9.547h-1.625v-0.5625h1.625v0.5625" fill="#231f1f"/>
<path d="m245.6 10.98h-0.6797v-4.133l-0.9375 0.7852-0.3984-0.4727 1.406-1.141h0.6094v4.961" fill="#231f1f"/>
<path d="m247.6 11.2-0.4961-0.168 2.152-5.258 0.4961 0.1836-2.152 5.242" fill="#231f1f"/>
<path d="m253.4 10.98h-3.238v-0.6523l1.977-1.961c0.3008-0.3086 0.5469-0.6328 0.5469-1.051 0-0.5195-0.3945-0.8555-0.8828-0.8555-0.5078 0-0.8477 0.3633-0.9336 0.8633l-0.6641-0.1133c0.1172-0.7578 0.7539-1.316 1.605-1.316 0.8242 0 1.566 0.4805 1.566 1.406 0 0.6367-0.3633 1.07-0.7969 1.5l-1.613 1.566h2.434v0.6133" fill="#231f1f"/>
<path d="m258.1 9.391c-0.6523 0-1.48 0.07031-1.48 0.6328 0 0.3906 0.3516 0.5156 0.6797 0.5156 0.6172 0 0.9609-0.4102 0.9609-0.9727v-0.1758zm0.1602-0.5664c0-0.4883-0.3281-0.7266-0.8203-0.7266-0.3711 0-0.7227 0.1602-0.9453 0.3828l-0.3477-0.418c0.3203-0.3086 0.8164-0.5 1.355-0.5 0.9531 0 1.387 0.5703 1.387 1.305v1.449c0 0.2227 0.01563 0.4961 0.05078 0.6602h-0.5977c-0.03125-0.1484-0.05469-0.3242-0.05469-0.4766h-0.01953c-0.2383 0.3555-0.6172 0.5586-1.113 0.5586-0.5273 0-1.207-0.2578-1.207-1.023 0-1 1.191-1.121 2.312-1.121v-0.08984" fill="#231f1f"/>
<path d="m260.6 7.656c0.01172 0.168 0.02734 0.4062 0.02734 0.543h0.01953c0.1602-0.3555 0.6055-0.6367 1.078-0.6367 0.8555 0 1.242 0.6094 1.242 1.352v2.062h-0.6602v-1.844c0-0.5391-0.1445-1.016-0.7539-1.016-0.5195 0-0.8906 0.4336-0.8906 1.094v1.766h-0.6602v-2.609c0-0.1719-0.003907-0.4961-0.02734-0.7109h0.625" fill="#231f1f"/>
<path d="m265.7 8.195h-0.8828v1.73c0 0.3984 0.1406 0.5586 0.4688 0.5586 0.1211 0 0.2734-0.02734 0.3867-0.08594l0.01953 0.5391c-0.1523 0.05859-0.3555 0.09375-0.5586 0.09375-0.625 0-0.9648-0.3516-0.9648-1.039v-1.797h-0.6406v-0.5391h0.6406v-0.9531h0.6484v0.9531h0.8828v0.5391" fill="#231f1f"/>
<path d="m267.1 10.98h-0.6602v-3.32h0.6602zm-0.3281-4.098c-0.2383 0-0.4336-0.1914-0.4336-0.4219 0-0.2383 0.1953-0.4258 0.4336-0.4258 0.2383 0 0.4414 0.1797 0.4414 0.4258 0 0.2383-0.2031 0.4219-0.4414 0.4219" fill="#231f1f"/>
<path d="m269.8 10.45c0.6758 0 1.125-0.5117 1.125-1.168 0-0.6328-0.4531-1.172-1.125-1.172-0.6953 0-1.102 0.5312-1.102 1.172 0 0.6094 0.4062 1.168 1.102 1.168zm-1.305 1.094c0.2891 0.3203 0.7578 0.5391 1.211 0.5391 0.8789 0 1.172-0.5391 1.172-1.227v-0.4258h-0.01562c-0.2422 0.3711-0.6992 0.5742-1.168 0.5742-1.016 0-1.676-0.7578-1.676-1.711s0.6523-1.73 1.668-1.73c0.4766 0 0.9453 0.2109 1.199 0.625h0.01172v-0.5312h0.6367v3.152c0 0.9648-0.4531 1.848-1.836 1.848-0.5703 0-1.211-0.2266-1.625-0.6016l0.4219-0.5117" fill="#231f1f"/>
<path d="m275.1 9.02c-0.01562-0.5234-0.3242-0.9375-0.9336-0.9375-0.5664 0-1 0.4219-1.043 0.9375zm0.6562 0.4922h-2.633c0.01953 0.5664 0.4961 1.008 1.078 1.008 0.4492 0 0.7773-0.2227 0.9688-0.5039l0.4609 0.3711c-0.3594 0.4609-0.8398 0.6797-1.43 0.6797-1.008 0-1.75-0.7031-1.75-1.746 0-1.035 0.7422-1.758 1.715-1.758 0.9805 0 1.598 0.668 1.598 1.723 0 0.07031 0 0.1484-0.007812 0.2266" fill="#231f1f"/>
<path d="m277.2 7.656c0.01562 0.168 0.03125 0.4062 0.03125 0.543h0.01953c0.1602-0.3555 0.6016-0.6367 1.078-0.6367 0.8555 0 1.242 0.6094 1.242 1.352v2.062h-0.6602v-1.844c0-0.5391-0.1445-1.016-0.7539-1.016-0.5195 0-0.8906 0.4336-0.8906 1.094v1.766h-0.6602v-2.609c0-0.1719-0.003907-0.4961-0.02734-0.7109h0.6211" fill="#231f1f"/>
<path d="m280.6 11.2-0.5-0.168 2.152-5.258 0.4961 0.1836-2.148 5.242" fill="#231f1f"/>
<path d="m285.3 9.391c-0.6523 0-1.477 0.07031-1.477 0.6328 0 0.3906 0.3477 0.5156 0.6758 0.5156 0.6172 0 0.9609-0.4102 0.9609-0.9727v-0.1758zm0.1602-0.5664c0-0.4883-0.3281-0.7266-0.8203-0.7266-0.3711 0-0.7227 0.1602-0.9453 0.3828l-0.3516-0.418c0.3242-0.3086 0.8203-0.5 1.359-0.5 0.9531 0 1.387 0.5703 1.387 1.305v1.449c0 0.2227 0.01562 0.4961 0.05078 0.6602h-0.5977c-0.03516-0.1484-0.05469-0.3242-0.05469-0.4766h-0.01953c-0.2383 0.3555-0.6172 0.5586-1.113 0.5586-0.5273 0-1.207-0.2578-1.207-1.023 0-1 1.191-1.121 2.312-1.121v-0.08984" fill="#231f1f"/>
<path d="m287.8 7.656c0.01172 0.168 0.02734 0.4062 0.02734 0.543h0.01953c0.1641-0.3555 0.6016-0.6367 1.078-0.6367 0.8555 0 1.242 0.6094 1.242 1.352v2.062h-0.6602v-1.844c0-0.5391-0.1484-1.016-0.7539-1.016-0.5195 0-0.8906 0.4336-0.8906 1.094v1.766h-0.6602v-2.609c0-0.1719-0.007812-0.4961-0.02734-0.7109h0.625" fill="#231f1f"/>
<path d="m292.9 8.195h-0.8828v1.73c0 0.3984 0.1406 0.5586 0.4688 0.5586 0.1211 0 0.2734-0.02734 0.3867-0.08594l0.01953 0.5391c-0.1523 0.05859-0.3555 0.09375-0.5586 0.09375-0.625 0-0.9688-0.3516-0.9688-1.039v-1.797h-0.6367v-0.5391h0.6367v-0.9531h0.6523v0.9531h0.8828v0.5391" fill="#231f1f"/>
<path d="m294.2 10.98h-0.6562v-3.32h0.6562zm-0.3281-4.098c-0.2383 0-0.4336-0.1914-0.4336-0.4219 0-0.2383 0.1953-0.4258 0.4336-0.4258 0.2383 0 0.4414 0.1797 0.4414 0.4258 0 0.2383-0.2031 0.4219-0.4414 0.4219" fill="#231f1f"/>
<path d="m297.1 8.109c-0.6719 0-1.121 0.5664-1.121 1.207 0 0.6367 0.4492 1.195 1.121 1.195 0.7227 0 1.109-0.582 1.109-1.203 0-0.625-0.3867-1.199-1.109-1.199zm-1.098 2.34v0.5273h-0.6406v-5.297h0.6602v2.473h0.02344c0.2227-0.3242 0.6367-0.5898 1.18-0.5898 0.9883 0 1.66 0.7656 1.66 1.746 0 0.9727-0.6523 1.758-1.672 1.758-0.4688 0-0.9414-0.2188-1.199-0.6172h-0.01172" fill="#231f1f"/>
<path d="m301.4 8.109c-0.707 0-1.105 0.5664-1.105 1.199 0 0.6289 0.3984 1.203 1.105 1.203 0.7148 0 1.105-0.5742 1.105-1.203 0-0.6328-0.3906-1.199-1.105-1.199zm0 2.957c-1.016 0-1.785-0.7383-1.785-1.758 0-1.023 0.7695-1.746 1.785-1.746s1.793 0.7227 1.793 1.746c0 1.02-0.7773 1.758-1.793 1.758" fill="#231f1f"/>
<path d="m305.6 10.51c0.6719 0 1.117-0.5586 1.117-1.195 0-0.6406-0.4453-1.207-1.117-1.207-0.7227 0-1.102 0.5742-1.102 1.199 0 0.6211 0.3789 1.203 1.102 1.203zm-0.1133 0.5547c-1.023 0-1.676-0.7852-1.676-1.758 0-0.9805 0.6719-1.746 1.668-1.746 0.5391 0 0.9531 0.2656 1.184 0.5898h0.01562v-2.473h0.6562v5.297h-0.6367v-0.5273h-0.01172c-0.2539 0.3984-0.7305 0.6172-1.199 0.6172" fill="#231f1f"/>
<path d="m309.8 10.26h0.01562l0.918-2.605h0.6992l-1.609 4.102c-0.2188 0.5547-0.4961 0.8984-1.148 0.8984-0.1406 0-0.2891-0.01562-0.4336-0.05078l0.05859-0.582c0.1094 0.03516 0.2266 0.05859 0.332 0.05859 0.3438 0 0.4766-0.1953 0.6172-0.5547l0.207-0.5508-1.418-3.32h0.7344l1.027 2.605" fill="#231f1f"/>
<path d="m316.1 8.496c-0.1406-0.2188-0.4492-0.3789-0.7656-0.3789-0.6836 0-1.082 0.5586-1.082 1.199 0 0.6289 0.3984 1.195 1.09 1.195 0.3359 0 0.625-0.1406 0.8008-0.3633l0.4414 0.3984c-0.2812 0.3242-0.7109 0.5195-1.242 0.5195-1.02 0-1.785-0.6953-1.785-1.75 0-1.047 0.7578-1.754 1.773-1.754 0.4688 0 0.9727 0.1914 1.246 0.5469l-0.4766 0.3867" fill="#231f1f"/>
<path d="m318.8 8.109c-0.707 0-1.105 0.5664-1.105 1.199 0 0.6289 0.3984 1.203 1.105 1.203 0.7148 0 1.109-0.5742 1.109-1.203 0-0.6328-0.3945-1.199-1.109-1.199zm0 2.957c-1.012 0-1.785-0.7383-1.785-1.758 0-1.023 0.7734-1.746 1.785-1.746 1.02 0 1.793 0.7227 1.793 1.746 0 1.02-0.7734 1.758-1.793 1.758" fill="#231f1f"/>
<path d="m323.2 7.562c0.4414 0 0.8242 0.1992 1.027 0.668 0.2266-0.4297 0.6602-0.668 1.129-0.668 0.8555 0 1.238 0.6094 1.238 1.352v2.062h-0.6562v-1.844c0-0.5391-0.1602-1.016-0.7383-1.016-0.6016 0-0.8398 0.5469-0.8398 1.066v1.793h-0.6562v-1.977c0-0.5195-0.1758-0.8828-0.7031-0.8828-0.4805 0-0.8438 0.4336-0.8438 1.094v1.766h-0.6602v-2.609c0-0.1719-0.007813-0.4961-0.02734-0.7109h0.6211c0.01562 0.168 0.02734 0.4062 0.02734 0.543h0.02344c0.168-0.3477 0.5547-0.6367 1.059-0.6367" fill="#231f1f"/>
<path d="m329.5 8.109c-0.6719 0-1.121 0.5664-1.121 1.207 0 0.6367 0.4492 1.195 1.121 1.195 0.7227 0 1.105-0.582 1.105-1.203 0-0.625-0.3828-1.199-1.105-1.199zm-1.102 2.34v0.5273h-0.6367v-5.297h0.6602v2.473h0.01953c0.2227-0.3242 0.6367-0.5898 1.184-0.5898 0.9883 0 1.66 0.7656 1.66 1.746 0 0.9727-0.6523 1.758-1.672 1.758-0.4727 0-0.9414-0.2188-1.199-0.6172h-0.01562" fill="#231f1f"/>
<path d="m332.9 10.98h-0.6562v-3.32h0.6562zm-0.3281-4.098c-0.2383 0-0.4336-0.1914-0.4336-0.4219 0-0.2383 0.1953-0.4258 0.4336-0.4258 0.2383 0 0.4414 0.1797 0.4414 0.4258 0 0.2383-0.2031 0.4219-0.4414 0.4219" fill="#231f1f"/>
<path d="m334.6 7.656c0.01172 0.168 0.02734 0.4062 0.02734 0.543h0.01953c0.1641-0.3555 0.6016-0.6367 1.082-0.6367 0.8516 0 1.238 0.6094 1.238 1.352v2.062h-0.6602v-1.844c0-0.5391-0.1484-1.016-0.7539-1.016-0.5195 0-0.8906 0.4336-0.8906 1.094v1.766h-0.6602v-2.609c0-0.1719-0.007812-0.4961-0.02734-0.7109h0.625" fill="#231f1f"/>
<path d="m340 9.391c-0.6523 0-1.477 0.07031-1.477 0.6328 0 0.3906 0.3477 0.5156 0.6797 0.5156 0.6133 0 0.957-0.4102 0.957-0.9727v-0.1758zm0.1602-0.5664c0-0.4883-0.3281-0.7266-0.8203-0.7266-0.3711 0-0.7188 0.1602-0.9453 0.3828l-0.3477-0.418c0.3203-0.3086 0.8203-0.5 1.359-0.5 0.9531 0 1.383 0.5703 1.383 1.305v1.449c0 0.2227 0.01562 0.4961 0.05078 0.6602h-0.5938c-0.03516-0.1484-0.05859-0.3242-0.05859-0.4766h-0.01953c-0.2383 0.3555-0.6172 0.5586-1.113 0.5586-0.5234 0-1.207-0.2578-1.207-1.023 0-1 1.191-1.121 2.312-1.121v-0.08984" fill="#231f1f"/>
<path d="m343.4 8.195h-0.8828v1.73c0 0.3984 0.1406 0.5586 0.4688 0.5586 0.1172 0 0.2734-0.02734 0.3828-0.08594l0.02344 0.5391c-0.1562 0.05859-0.3594 0.09375-0.5625 0.09375-0.6211 0-0.9648-0.3516-0.9648-1.039v-1.797h-0.6367v-0.5391h0.6367v-0.9531h0.6523v0.9531h0.8828v0.5391" fill="#231f1f"/>
<path d="m344.8 10.98h-0.6602v-3.32h0.6602zm-0.332-4.098c-0.2383 0-0.4336-0.1914-0.4336-0.4219 0-0.2383 0.1953-0.4258 0.4336-0.4258s0.4414 0.1797 0.4414 0.4258c0 0.2383-0.2031 0.4219-0.4414 0.4219" fill="#231f1f"/>
<path d="m347.5 8.109c-0.707 0-1.105 0.5664-1.105 1.199 0 0.6289 0.3984 1.203 1.105 1.203 0.7148 0 1.105-0.5742 1.105-1.203 0-0.6328-0.3906-1.199-1.105-1.199zm0 2.957c-1.016 0-1.785-0.7383-1.785-1.758 0-1.023 0.7695-1.746 1.785-1.746s1.793 0.7227 1.793 1.746c0 1.02-0.7773 1.758-1.793 1.758" fill="#231f1f"/>
<path d="m350.8 7.656c0.01172 0.168 0.02734 0.4062 0.02734 0.543h0.01953c0.1602-0.3555 0.6055-0.6367 1.078-0.6367 0.8555 0 1.242 0.6094 1.242 1.352v2.062h-0.6602v-1.844c0-0.5391-0.1445-1.016-0.7578-1.016-0.5156 0-0.8867 0.4336-0.8867 1.094v1.766h-0.6602v-2.609c0-0.1719-0.003906-0.4961-0.02734-0.7109h0.625" fill="#231f1f"/>
<path d="m356.7 10.98h-0.6602v-3.32h0.6602zm-0.332-4.098c-0.2383 0-0.4336-0.1914-0.4336-0.4219 0-0.2383 0.1953-0.4258 0.4336-0.4258s0.4414 0.1797 0.4414 0.4258c0 0.2383-0.2031 0.4219-0.4414 0.4219" fill="#231f1f"/>
<path d="m359.5 7.562c0.4414 0 0.8281 0.1992 1.031 0.668 0.2227-0.4297 0.6562-0.668 1.125-0.668 0.8555 0 1.242 0.6094 1.242 1.352v2.062h-0.6602v-1.844c0-0.5391-0.1602-1.016-0.7344-1.016-0.6016 0-0.8398 0.5469-0.8398 1.066v1.793h-0.6602v-1.977c0-0.5195-0.1758-0.8828-0.6992-0.8828-0.4844 0-0.8477 0.4336-0.8477 1.094v1.766h-0.6602v-2.609c0-0.1719-0.007812-0.4961-0.02734-0.7109h0.625c0.01172 0.168 0.02734 0.4062 0.02734 0.543h0.01953c0.168-0.3477 0.5547-0.6367 1.059-0.6367" fill="#231f1f"/>
<path d="m365.7 7.562c0.4453 0 0.8281 0.1992 1.031 0.668 0.2227-0.4297 0.6602-0.668 1.129-0.668 0.8516 0 1.238 0.6094 1.238 1.352v2.062h-0.6562v-1.844c0-0.5391-0.1641-1.016-0.7383-1.016-0.6016 0-0.8398 0.5469-0.8398 1.066v1.793h-0.6562v-1.977c0-0.5195-0.1758-0.8828-0.7031-0.8828-0.4805 0-0.8477 0.4336-0.8477 1.094v1.766h-0.6562v-2.609c0-0.1719-0.007812-0.4961-0.02734-0.7109h0.6211c0.01562 0.168 0.02734 0.4062 0.02734 0.543h0.02344c0.168-0.3477 0.5508-0.6367 1.055-0.6367" fill="#231f1f"/>
<path d="m372.6 10.98c-0.01562-0.168-0.02734-0.4102-0.02734-0.5469h-0.01562c-0.168 0.3477-0.6016 0.6367-1.086 0.6367-0.8516 0-1.238-0.6094-1.238-1.352v-2.059h0.6602v1.832c0 0.5469 0.1484 1.023 0.7539 1.023 0.5273 0 0.8906-0.4336 0.8906-1.09v-1.766h0.6602v2.605c0 0.1719 0.007813 0.4961 0.02734 0.7148h-0.625" fill="#231f1f"/>
<path d="m374.9 7.656c0.01172 0.168 0.02734 0.4062 0.02734 0.543h0.01953c0.1602-0.3555 0.6055-0.6367 1.078-0.6367 0.8555 0 1.242 0.6094 1.242 1.352v2.062h-0.6602v-1.844c0-0.5391-0.1445-1.016-0.7578-1.016-0.5156 0-0.8867 0.4336-0.8867 1.094v1.766h-0.6602v-2.609c0-0.1719-0.003906-0.4961-0.02734-0.7109h0.625" fill="#231f1f"/>
<path d="m380 8.109c-0.707 0-1.105 0.5664-1.105 1.199 0 0.6289 0.3984 1.203 1.105 1.203 0.7148 0 1.105-0.5742 1.105-1.203 0-0.6328-0.3906-1.199-1.105-1.199zm0 2.957c-1.016 0-1.785-0.7383-1.785-1.758 0-1.023 0.7695-1.746 1.785-1.746s1.793 0.7227 1.793 1.746c0 1.02-0.7773 1.758-1.793 1.758" fill="#231f1f"/>
<path d="m384.6 9.391c-0.6523 0-1.477 0.07031-1.477 0.6328 0 0.3906 0.3477 0.5156 0.6797 0.5156 0.6133 0 0.957-0.4102 0.957-0.9727v-0.1758zm0.1602-0.5664c0-0.4883-0.3281-0.7266-0.8203-0.7266-0.3711 0-0.7188 0.1602-0.9414 0.3828l-0.3516-0.418c0.3203-0.3086 0.8203-0.5 1.359-0.5 0.9531 0 1.383 0.5703 1.383 1.305v1.449c0 0.2227 0.01563 0.4961 0.05078 0.6602h-0.5938c-0.03516-0.1484-0.05469-0.3242-0.05469-0.4766h-0.02344c-0.2383 0.3555-0.6172 0.5586-1.113 0.5586-0.5234 0-1.207-0.2578-1.207-1.023 0-1 1.191-1.121 2.312-1.121v-0.08984" fill="#231f1f"/>
<path d="m388.2 8.496c-0.1445-0.2383-0.4336-0.4141-0.7695-0.4141-0.3008 0-0.6172 0.1172-0.6172 0.4336 0 0.2812 0.2539 0.3867 0.7578 0.5 0.6289 0.1367 1.113 0.3984 1.113 0.9766 0 0.7852-0.6523 1.074-1.324 1.074-0.5039 0-1.02-0.1953-1.336-0.5977l0.4688-0.3984c0.1758 0.2578 0.5117 0.4609 0.8828 0.4609 0.3281 0 0.6562-0.1172 0.6562-0.4805 0-0.3086-0.3008-0.4219-0.8672-0.5547-0.4414-0.1055-0.9648-0.293-0.9648-0.918 0-0.7148 0.6211-1.016 1.254-1.016 0.4688 0 0.9648 0.1914 1.203 0.5469l-0.457 0.3867" fill="#231f1f"/>
<path d="m391.4 8.496c-0.1484-0.2383-0.4336-0.4141-0.7695-0.4141-0.3008 0-0.6172 0.1172-0.6172 0.4336 0 0.2812 0.2539 0.3867 0.7578 0.5 0.6289 0.1367 1.113 0.3984 1.113 0.9766 0 0.7852-0.6523 1.074-1.324 1.074-0.5039 0-1.023-0.1953-1.336-0.5977l0.4688-0.3984c0.1719 0.2578 0.5078 0.4609 0.8789 0.4609 0.332 0 0.6602-0.1172 0.6602-0.4805 0-0.3086-0.3008-0.4219-0.8672-0.5547-0.4414-0.1055-0.9688-0.293-0.9688-0.918 0-0.7148 0.625-1.016 1.254-1.016 0.4688 0 0.9688 0.1914 1.207 0.5469l-0.457 0.3867" fill="#231f1f"/>
<path d="m394.6 9.391c-0.6484 0-1.477 0.07031-1.477 0.6328 0 0.3906 0.3516 0.5156 0.6797 0.5156 0.6172 0 0.9609-0.4102 0.9609-0.9727v-0.1758zm0.1641-0.5664c0-0.4883-0.332-0.7266-0.8203-0.7266-0.3711 0-0.7227 0.1602-0.9453 0.3828l-0.3516-0.418c0.3242-0.3086 0.8203-0.5 1.359-0.5 0.9531 0 1.387 0.5703 1.387 1.305v1.449c0 0.2227 0.01562 0.4961 0.04688 0.6602h-0.5938c-0.03516-0.1484-0.05469-0.3242-0.05469-0.4766h-0.02344c-0.2344 0.3555-0.6133 0.5586-1.109 0.5586-0.5273 0-1.207-0.2578-1.207-1.023 0-1 1.191-1.121 2.312-1.121v-0.08984" fill="#231f1f"/>
<path d="m397.7 10.26h0.01172l0.918-2.605h0.6992l-1.609 4.102c-0.2188 0.5547-0.4961 0.8984-1.148 0.8984-0.1406 0-0.2852-0.01562-0.4336-0.05078l0.0625-0.582c0.1055 0.03516 0.2227 0.05859 0.3281 0.05859 0.3438 0 0.4766-0.1953 0.6172-0.5547l0.2109-0.5508-1.422-3.32h0.7344l1.031 2.605" fill="#231f1f"/>
<g clip-path="url(#c)">
<path d="m468.3 78.36h-106.5v-33.84h106.5v33.84" fill="#fef0ca"/>
<path transform="matrix(.1 0 0 -.1 0 243.1)" d="m4683 1647h-1065v338.4h1065z" fill="none" stroke="#231f1f" stroke-width="5"/>
</g>
<path d="m413.5 55.93-0.4766 0.3086c-0.6172-0.8281-1.02-1.949-1.02-3.117 0-1.168 0.4023-2.289 1.02-3.117l0.4766 0.3086c-0.5469 0.7656-0.9023 1.785-0.9023 2.809 0 1.023 0.3555 2.043 0.9023 2.809" fill="#231f1f"/>
<path d="m415.9 53.71h-1.625v-0.5625h1.625v0.5625" fill="#231f1f"/>
<path d="m416.7 50.31 0.4727-0.3086c0.6172 0.8281 1.023 1.949 1.023 3.117 0 1.168-0.4062 2.289-1.023 3.117l-0.4727-0.3086c0.543-0.7656 0.8984-1.785 0.8984-2.809 0-1.023-0.3555-2.043-0.8984-2.809" fill="#231f1f"/>
<path d="m372.7 62.54h0.01562v-3.965h0.6914v4.961h-0.875l-2.621-4.051h-0.01562v4.051h-0.6914v-4.961h0.9023l2.594 3.965" fill="#231f1f"/>
<path d="m377 61.58c-0.01562-0.5273-0.3242-0.9414-0.9336-0.9414-0.5664 0-1 0.4219-1.043 0.9414zm0.6562 0.4883h-2.633c0.02344 0.5664 0.4961 1.008 1.078 1.008 0.4492 0 0.7773-0.2227 0.9648-0.5039l0.4648 0.3711c-0.3555 0.4648-0.8398 0.6797-1.43 0.6797-1.008 0-1.75-0.6992-1.75-1.742 0-1.039 0.7422-1.758 1.715-1.758 0.9805 0 1.598 0.6641 1.598 1.723 0 0.07031 0 0.1445-0.007813 0.2227" fill="#231f1f"/>
<path d="m380.1 63.01c0.6797 0 1.129-0.5117 1.129-1.168 0-0.6289-0.457-1.168-1.129-1.168-0.6953 0-1.098 0.5312-1.098 1.168 0 0.6094 0.4023 1.168 1.098 1.168zm-1.301 1.094c0.2852 0.3242 0.7539 0.5391 1.211 0.5391 0.875 0 1.168-0.5391 1.168-1.227v-0.4258h-0.01172c-0.2461 0.3711-0.6992 0.5742-1.172 0.5742-1.016 0-1.672-0.7578-1.672-1.707 0-0.9531 0.6484-1.73 1.664-1.73 0.4805 0 0.9453 0.2109 1.199 0.6211h0.01172v-0.5312h0.6406v3.152c0 0.9648-0.457 1.848-1.836 1.848-0.5742 0-1.211-0.2227-1.625-0.6016l0.4219-0.5117" fill="#231f1f"/>
<path d="m384.9 61.95c-0.6484 0-1.477 0.07031-1.477 0.6289 0 0.3906 0.3516 0.5195 0.6797 0.5195 0.6172 0 0.9609-0.4141 0.9609-0.9727v-0.1758zm0.1641-0.5703c0-0.4883-0.332-0.7266-0.8203-0.7266-0.3711 0-0.7227 0.1602-0.9453 0.3828l-0.3516-0.418c0.3242-0.3086 0.8203-0.4961 1.359-0.4961 0.9531 0 1.387 0.5664 1.387 1.301v1.449c0 0.2266 0.01562 0.5 0.05078 0.6602h-0.5977c-0.03125-0.1484-0.05469-0.3242-0.05469-0.4766h-0.01953c-0.2383 0.3555-0.6172 0.5586-1.113 0.5586-0.5273 0-1.207-0.2578-1.207-1.02 0-1.004 1.191-1.121 2.312-1.121v-0.09375" fill="#231f1f"/>
<path d="m388.4 60.75h-0.8828v1.73c0 0.3984 0.1406 0.5586 0.4688 0.5586 0.1211 0 0.2773-0.02734 0.3867-0.08203l0.01953 0.5391c-0.1523 0.05469-0.3555 0.08984-0.5586 0.08984-0.6211 0-0.9688-0.3477-0.9688-1.035v-1.801h-0.6367v-0.5391h0.6367v-0.9531h0.6523v0.9531h0.8828v0.5391" fill="#231f1f"/>
<path d="m389.7 63.54h-0.6562v-3.32h0.6562zm-0.3281-4.098c-0.2383 0-0.4375-0.1875-0.4375-0.4219 0-0.2383 0.1992-0.4258 0.4375-0.4258s0.4414 0.1836 0.4414 0.4258c0 0.2383-0.2031 0.4219-0.4414 0.4219" fill="#231f1f"/>
<path d="m392.4 63.54h-0.7148l-1.352-3.32h0.7266l0.9766 2.613h0.01172l0.9805-2.613h0.6992l-1.328 3.32" fill="#231f1f"/>
<path d="m396.8 61.58c-0.01172-0.5273-0.3242-0.9414-0.9297-0.9414-0.5664 0-1.004 0.4219-1.043 0.9414zm0.6602 0.4883h-2.633c0.01953 0.5664 0.4961 1.008 1.074 1.008 0.4492 0 0.7773-0.2227 0.9688-0.5039l0.4648 0.3711c-0.3594 0.4648-0.8438 0.6797-1.434 0.6797-1.008 0-1.75-0.6992-1.75-1.742 0-1.039 0.7422-1.758 1.719-1.758 0.9805 0 1.598 0.6641 1.598 1.723 0 0.07031 0 0.1445-0.007812 0.2227" fill="#231f1f"/>
<path d="m401.7 60.75h-0.7695v2.781h-0.6602v-2.781h-0.6602v-0.5391h0.6602v-0.6953c0-0.7773 0.3438-1.363 1.238-1.363 0.1562 0 0.2891 0.01562 0.4141 0.04688l-0.07422 0.5703c-0.1016-0.03125-0.207-0.05078-0.332-0.05078-0.4961 0-0.5859 0.3906-0.5859 0.7969v0.6953h0.7695v0.5391" fill="#231f1f"/>
<path d="m403.9 60.67c-0.707 0-1.105 0.5664-1.105 1.195 0 0.6289 0.3984 1.203 1.105 1.203 0.7148 0 1.105-0.5742 1.105-1.203 0-0.6289-0.3906-1.195-1.105-1.195zm0 2.953c-1.016 0-1.785-0.7344-1.785-1.758 0-1.023 0.7695-1.742 1.785-1.742s1.793 0.7188 1.793 1.742c0 1.023-0.7773 1.758-1.793 1.758" fill="#231f1f"/>
<path d="m406.6 60.21h0.625c0.01172 0.168 0.02734 0.4219 0.02734 0.5586h0.02344c0.1797-0.3828 0.5625-0.6484 1.012-0.6484 0.09375 0 0.1836 0.007812 0.2617 0.02734l-0.02734 0.6094c-0.08594-0.02344-0.1992-0.03516-0.3008-0.03516-0.6328 0-0.9336 0.5117-0.9336 1.062v1.746h-0.6602v-2.605c0-0.1758-0.003906-0.4961-0.02734-0.7148" fill="#231f1f"/>
<path d="m410.9 58.57h0.6953v2.074h2.508v-2.074h0.6992v4.961h-0.6992v-2.27h-2.508v2.27h-0.6953v-4.961" fill="#231f1f"/>
<path d="m416.7 63.54h-0.6914v-4.961h0.6914v4.961" fill="#231f1f"/>
<path d="m419.5 62.64h0.01953l1.492-4.062h0.75l-1.949 4.961h-0.6445l-1.934-4.961h0.7734l1.492 4.062" fill="#231f1f"/>
<path d="m423.6 62.11h-1.625v-0.5586h1.625v0.5586" fill="#231f1f"/>
<path d="m426.5 63.54h-0.6758v-4.133l-0.9414 0.7852-0.3984-0.4688 1.406-1.145h0.6094v4.961" fill="#231f1f"/>
<path d="m432.2 61.95c-0.6523 0-1.48 0.07031-1.48 0.6289 0 0.3906 0.3516 0.5195 0.6797 0.5195 0.6172 0 0.9609-0.4141 0.9609-0.9727v-0.1758zm0.1602-0.5703c0-0.4883-0.3281-0.7266-0.8164-0.7266-0.3711 0-0.7227 0.1602-0.9492 0.3828l-0.3477-0.418c0.3203-0.3086 0.8164-0.4961 1.355-0.4961 0.9531 0 1.387 0.5664 1.387 1.301v1.449c0 0.2266 0.01563 0.5 0.05078 0.6602h-0.5977c-0.03125-0.1484-0.05469-0.3242-0.05469-0.4766h-0.01953c-0.2383 0.3555-0.6172 0.5586-1.113 0.5586-0.5273 0-1.203-0.2578-1.203-1.02 0-1.004 1.188-1.121 2.309-1.121v-0.09375" fill="#231f1f"/>
<path d="m434.7 60.21c0.01172 0.168 0.02734 0.4062 0.02734 0.5469h0.01953c0.1602-0.3594 0.6055-0.6367 1.078-0.6367 0.8555 0 1.242 0.6094 1.242 1.352v2.059h-0.6602v-1.844c0-0.5391-0.1445-1.016-0.7539-1.016-0.5195 0-0.8906 0.4336-0.8906 1.094v1.766h-0.6562v-2.605c0-0.1758-0.007813-0.4961-0.03125-0.7148h0.625" fill="#231f1f"/>
<path d="m439.8 63.07c0.6719 0 1.121-0.5586 1.121-1.195s-0.4492-1.203-1.121-1.203c-0.7188 0-1.098 0.5742-1.098 1.195 0 0.625 0.3789 1.203 1.098 1.203zm-0.1133 0.5547c-1.02 0-1.672-0.7852-1.672-1.758 0-0.9805 0.6719-1.742 1.668-1.742 0.5391 0 0.9492 0.2656 1.184 0.5859h0.01172v-2.473h0.6602v5.297h-0.6406v-0.5273h-0.01172c-0.2539 0.4023-0.7266 0.6172-1.199 0.6172" fill="#231f1f"/>
<path d="m444.4 58.57h0.6953v2.074h2.508v-2.074h0.6992v4.961h-0.6992v-2.27h-2.508v2.27h-0.6953v-4.961" fill="#231f1f"/>
<path d="m450.2 63.54h-0.6914v-4.961h0.6914v4.961" fill="#231f1f"/>
<path d="m453.1 62.64h0.01953l1.492-4.062h0.75l-1.949 4.961h-0.6445l-1.934-4.961h0.7734l1.492 4.062" fill="#231f1f"/>
<path d="m457.1 62.11h-1.625v-0.5586h1.625v0.5586" fill="#231f1f"/>
<path d="m461.1 63.54h-3.238v-0.6523l1.977-1.961c0.3008-0.3086 0.5469-0.6289 0.5469-1.051 0-0.5195-0.3945-0.8555-0.8828-0.8555-0.5039 0-0.8477 0.3672-0.9336 0.8633l-0.6641-0.1133c0.1211-0.7539 0.7578-1.316 1.605-1.316 0.8281 0 1.566 0.4844 1.566 1.41 0 0.6367-0.3594 1.07-0.7969 1.496l-1.609 1.57h2.43v0.6094" fill="#231f1f"/>
<path d="m371.8 70.35c-0.6523 0-1.48 0.07031-1.48 0.6289 0 0.3945 0.3516 0.5195 0.6797 0.5195 0.6172 0 0.9609-0.4141 0.9609-0.9727v-0.1758zm0.1602-0.5664c0-0.4922-0.3281-0.7305-0.8203-0.7305-0.3711 0-0.7227 0.1641-0.9453 0.3867l-0.3477-0.4219c0.3203-0.3047 0.8164-0.4961 1.355-0.4961 0.9531 0 1.387 0.5664 1.387 1.305v1.449c0 0.2227 0.01562 0.4961 0.05078 0.6562h-0.5977c-0.03125-0.1484-0.05469-0.3203-0.05469-0.4727h-0.01953c-0.2383 0.3555-0.6172 0.5586-1.113 0.5586-0.5273 0-1.207-0.2617-1.207-1.023 0-1 1.191-1.121 2.312-1.121v-0.08984" fill="#231f1f"/>
<path d="m374.2 68.61c0.01562 0.168 0.03125 0.4062 0.03125 0.5469h0.01953c0.1602-0.3555 0.6055-0.6367 1.078-0.6367 0.8555 0 1.238 0.6094 1.238 1.352v2.059h-0.6562v-1.84c0-0.5391-0.1445-1.016-0.7578-1.016-0.5156 0-0.8867 0.4336-0.8867 1.09v1.766h-0.6602v-2.605c0-0.1758-0.003906-0.4961-0.02734-0.7148h0.6211" fill="#231f1f"/>
<path d="m379.3 69.15h-0.8828v1.73c0 0.3984 0.1406 0.5625 0.4688 0.5625 0.1211 0 0.2734-0.03125 0.3867-0.08594l0.01953 0.5391c-0.1523 0.05859-0.3555 0.09375-0.5586 0.09375-0.625 0-0.9648-0.3516-0.9648-1.039v-1.801h-0.6406v-0.5391h0.6406v-0.9531h0.6484v0.9531h0.8828v0.5391" fill="#231f1f"/>
<path d="m380.7 71.93h-0.6602v-3.32h0.6602zm-0.3281-4.098c-0.2383 0-0.4336-0.1875-0.4336-0.418 0-0.2383 0.1953-0.4297 0.4336-0.4297s0.4414 0.1836 0.4414 0.4297c0 0.2383-0.2031 0.418-0.4414 0.418" fill="#231f1f"/>
<path d="m383.6 69.07c-0.6719 0-1.121 0.5664-1.121 1.203 0 0.6367 0.4492 1.199 1.121 1.199 0.7227 0 1.105-0.582 1.105-1.207 0-0.6211-0.3828-1.195-1.105-1.195zm-1.102 2.34v0.5234h-0.6328v-5.293h0.6562v2.473h0.01953c0.2266-0.3242 0.6367-0.5898 1.188-0.5898 0.9844 0 1.656 0.7617 1.656 1.742 0 0.9766-0.6484 1.758-1.672 1.758-0.4688 0-0.9375-0.2148-1.199-0.6133h-0.01562" fill="#231f1f"/>
<path d="m387.9 69.07c-0.707 0-1.105 0.5664-1.105 1.195 0 0.6328 0.3984 1.207 1.105 1.207 0.7148 0 1.109-0.5742 1.109-1.207 0-0.6289-0.3945-1.195-1.109-1.195zm0 2.953c-1.016 0-1.785-0.7344-1.785-1.758 0-1.02 0.7695-1.742 1.785-1.742 1.016 0 1.793 0.7227 1.793 1.742 0 1.023-0.7773 1.758-1.793 1.758" fill="#231f1f"/>
<path d="m392.1 71.47c0.6719 0 1.121-0.5625 1.121-1.199 0-0.6367-0.4492-1.203-1.121-1.203-0.7188 0-1.098 0.5742-1.098 1.195 0 0.625 0.3789 1.207 1.098 1.207zm-0.1094 0.5508c-1.023 0-1.676-0.7812-1.676-1.758 0-0.9805 0.6758-1.742 1.668-1.742 0.5391 0 0.9531 0.2656 1.184 0.5898h0.01172v-2.473h0.6602v5.293h-0.6367v-0.5234h-0.01562c-0.25 0.3984-0.7266 0.6133-1.195 0.6133" fill="#231f1f"/>
<path d="m395.7 71.93h-0.6602v-3.32h0.6602zm-0.3281-4.098c-0.2383 0-0.4375-0.1875-0.4375-0.418 0-0.2383 0.1992-0.4297 0.4375-0.4297 0.2344 0 0.4375 0.1836 0.4375 0.4297 0 0.2383-0.2031 0.418-0.4375 0.418" fill="#231f1f"/>
<path d="m399.2 69.98c-0.01563-0.5273-0.3242-0.9375-0.9336-0.9375-0.5664 0-1 0.418-1.043 0.9375zm0.6562 0.4922h-2.633c0.01953 0.5664 0.5 1.008 1.078 1.008 0.4492 0 0.7773-0.2266 0.9688-0.5039l0.4609 0.3711c-0.3594 0.4609-0.8398 0.6758-1.43 0.6758-1.008 0-1.75-0.6992-1.75-1.742 0-1.035 0.7422-1.758 1.715-1.758 0.9805 0 1.598 0.6641 1.598 1.723 0 0.07031 0 0.1484-0.007812 0.2266" fill="#231f1f"/>
<path d="m402.6 69.45c-0.1445-0.2344-0.4297-0.4102-0.7695-0.4102-0.3008 0-0.6172 0.1172-0.6172 0.4336 0 0.2812 0.2539 0.3828 0.7578 0.4961 0.6289 0.1406 1.113 0.3984 1.113 0.9805 0 0.7852-0.6523 1.07-1.324 1.07-0.5039 0-1.02-0.1953-1.336-0.5938l0.4688-0.3984c0.1758 0.2578 0.5117 0.4609 0.8828 0.4609 0.3281 0 0.6562-0.1172 0.6562-0.4805 0-0.3086-0.3008-0.4219-0.8672-0.5547-0.4414-0.1055-0.9648-0.2969-0.9648-0.918 0-0.7148 0.6211-1.016 1.25-1.016 0.4727 0 0.9688 0.1914 1.207 0.5469l-0.457 0.3828" fill="#231f1f"/>
<path d="m407.6 70.35c-0.6523 0-1.48 0.07031-1.48 0.6289 0 0.3945 0.3516 0.5195 0.6797 0.5195 0.6172 0 0.9609-0.4141 0.9609-0.9727v-0.1758zm0.1602-0.5664c0-0.4922-0.332-0.7305-0.8203-0.7305-0.3711 0-0.7227 0.1641-0.9453 0.3867l-0.3477-0.4219c0.3203-0.3047 0.8164-0.4961 1.355-0.4961 0.9531 0 1.387 0.5664 1.387 1.305v1.449c0 0.2227 0.01562 0.4961 0.05078 0.6562h-0.5977c-0.03125-0.1484-0.05469-0.3203-0.05469-0.4727h-0.01953c-0.2383 0.3555-0.6172 0.5586-1.113 0.5586-0.5273 0-1.207-0.2617-1.207-1.023 0-1 1.191-1.121 2.312-1.121v-0.08984" fill="#231f1f"/>
<path d="m410.1 68.61c0.01562 0.168 0.03125 0.4062 0.03125 0.5469h0.01953c0.1602-0.3555 0.6055-0.6367 1.078-0.6367 0.8555 0 1.242 0.6094 1.242 1.352v2.059h-0.6602v-1.84c0-0.5391-0.1445-1.016-0.7578-1.016-0.5156 0-0.8867 0.4336-0.8867 1.09v1.766h-0.6602v-2.605c0-0.1758-0.003906-0.4961-0.02734-0.7148h0.6211" fill="#231f1f"/>
<path d="m415.1 71.47c0.6719 0 1.121-0.5625 1.121-1.199 0-0.6367-0.4492-1.203-1.121-1.203-0.7188 0-1.098 0.5742-1.098 1.195 0 0.625 0.3789 1.207 1.098 1.207zm-0.1133 0.5508c-1.02 0-1.672-0.7812-1.672-1.758 0-0.9805 0.6719-1.742 1.664-1.742 0.5391 0 0.9531 0.2656 1.188 0.5898h0.01172v-2.473h0.6602v5.293h-0.6367v-0.5234h-0.01563c-0.2539 0.3984-0.7266 0.6133-1.199 0.6133" fill="#231f1f"/>
<path d="m421.5 69.07c-0.6719 0-1.121 0.5664-1.121 1.203 0 0.6367 0.4492 1.199 1.121 1.199 0.7188 0 1.105-0.582 1.105-1.207 0-0.6211-0.3867-1.195-1.105-1.195zm-1.082 4.547h-0.6562v-5.004h0.6445v0.5195h0.01953c0.2188-0.3516 0.6523-0.6094 1.199-0.6094 0.9883 0 1.66 0.7617 1.66 1.742 0 0.9766-0.6523 1.758-1.672 1.758-0.4727 0-0.9258-0.2148-1.172-0.5859h-0.02344v2.18" fill="#231f1f"/>
<path d="m427.3 71.93h-3.238v-0.6523l1.977-1.961c0.3008-0.3047 0.5469-0.6289 0.5469-1.051 0-0.5156-0.3945-0.8516-0.8828-0.8516-0.5039 0-0.8477 0.3633-0.9336 0.8594l-0.6641-0.1133c0.1211-0.7539 0.7578-1.312 1.605-1.312 0.8281 0 1.566 0.4805 1.566 1.406 0 0.6367-0.3594 1.07-0.7969 1.5l-1.609 1.566h2.43v0.6094" fill="#231f1f"/>
<path d="m430.3 67.75h-0.01172l-1.57 2.484h1.582zm0.6602 2.484h0.7148v0.582h-0.7148v1.113h-0.6602v-1.113h-2.281v-0.6172l2.105-3.227h0.8359v3.262" fill="#231f1f"/>
<path d="m436.2 70.35c-0.6484 0-1.477 0.07031-1.477 0.6289 0 0.3945 0.3477 0.5195 0.6797 0.5195 0.6133 0 0.957-0.4141 0.957-0.9727v-0.1758zm0.1602-0.5664c0-0.4922-0.3281-0.7305-0.8164-0.7305-0.3711 0-0.7227 0.1641-0.9453 0.3867l-0.3516-0.4219c0.3203-0.3047 0.8203-0.4961 1.359-0.4961 0.9531 0 1.387 0.5664 1.387 1.305v1.449c0 0.2227 0.01562 0.4961 0.05078 0.6562h-0.5977c-0.03516-0.1484-0.05469-0.3203-0.05469-0.4727h-0.01953c-0.2383 0.3555-0.6172 0.5586-1.117 0.5586-0.5234 0-1.203-0.2617-1.203-1.023 0-1 1.188-1.121 2.309-1.121v-0.08984" fill="#231f1f"/>
<path d="m438.6 68.61c0.01562 0.168 0.03125 0.4062 0.03125 0.5469h0.01953c0.1602-0.3555 0.6016-0.6367 1.078-0.6367 0.8555 0 1.238 0.6094 1.238 1.352v2.059h-0.6562v-1.84c0-0.5391-0.1484-1.016-0.7578-1.016-0.5156 0-0.8867 0.4336-0.8867 1.09v1.766h-0.6602v-2.605c0-0.1758-0.007813-0.4961-0.03125-0.7148h0.625" fill="#231f1f"/>
<path d="m443.8 69.15h-0.8828v1.73c0 0.3984 0.1406 0.5625 0.4688 0.5625 0.1211 0 0.2734-0.03125 0.3867-0.08594l0.01953 0.5391c-0.1523 0.05859-0.3555 0.09375-0.5586 0.09375-0.625 0-0.9688-0.3516-0.9688-1.039v-1.801h-0.6367v-0.5391h0.6367v-0.9531h0.6523v0.9531h0.8828v0.5391" fill="#231f1f"/>
<path d="m445.1 71.93h-0.6602v-3.32h0.6602zm-0.3281-4.098c-0.2422 0-0.4375-0.1875-0.4375-0.418 0-0.2383 0.1953-0.4297 0.4375-0.4297 0.2383 0 0.4414 0.1836 0.4414 0.4297 0 0.2383-0.2031 0.418-0.4414 0.418" fill="#231f1f"/>
<path d="m447.8 71.41c0.6797 0 1.129-0.5117 1.129-1.172 0-0.6289-0.457-1.168-1.129-1.168-0.6914 0-1.098 0.5312-1.098 1.168 0 0.6094 0.4062 1.172 1.098 1.172zm-1.301 1.094c0.2852 0.3203 0.7578 0.5352 1.211 0.5352 0.875 0 1.172-0.5352 1.172-1.223v-0.4297h-0.01562c-0.2461 0.3711-0.6992 0.5742-1.172 0.5742-1.012 0-1.672-0.7539-1.672-1.707s0.6523-1.73 1.664-1.73c0.4805 0 0.9492 0.2109 1.199 0.625h0.01562v-0.5352h0.6367v3.152c0 0.9688-0.4531 1.852-1.836 1.852-0.5742 0-1.211-0.2266-1.625-0.6055l0.4219-0.5078" fill="#231f1f"/>
<path d="m453.1 69.98c-0.01172-0.5273-0.3242-0.9375-0.9336-0.9375-0.5625 0-1 0.418-1.043 0.9375zm0.6602 0.4922h-2.637c0.02344 0.5664 0.5 1.008 1.078 1.008 0.4492 0 0.7773-0.2266 0.9688-0.5039l0.4648 0.3711c-0.3594 0.4609-0.8438 0.6758-1.434 0.6758-1.008 0-1.75-0.6992-1.75-1.742 0-1.035 0.7422-1.758 1.715-1.758 0.9844 0 1.602 0.6641 1.602 1.723 0 0.07031 0 0.1484-0.007813 0.2266" fill="#231f1f"/>
<path d="m455.3 68.61c0.01562 0.168 0.03125 0.4062 0.03125 0.5469h0.01953c0.1602-0.3555 0.6016-0.6367 1.078-0.6367 0.8555 0 1.238 0.6094 1.238 1.352v2.059h-0.6562v-1.84c0-0.5391-0.1484-1.016-0.7578-1.016-0.5156 0-0.8867 0.4336-0.8867 1.09v1.766h-0.6602v-2.605c0-0.1758-0.007813-0.4961-0.03125-0.7148h0.625" fill="#231f1f"/>
<path d="m460 68.8c-0.4688 0-1.059 0.04687-1.059 0.4492 0 0.2812 0.25 0.3711 0.4883 0.3711 0.4375 0 0.6836-0.2969 0.6836-0.6953v-0.125zm0.1133-0.4062c0-0.3516-0.2344-0.5195-0.5859-0.5195-0.2617 0-0.5117 0.1133-0.6719 0.2734l-0.2539-0.3008c0.2305-0.2188 0.5859-0.3555 0.9727-0.3555 0.6797 0 0.9922 0.4062 0.9922 0.9336v1.035c0 0.1602 0.007813 0.3555 0.03516 0.4688h-0.4258c-0.02734-0.1055-0.03906-0.2305-0.03906-0.3398h-0.01953c-0.168 0.2578-0.4375 0.4023-0.793 0.4023-0.375 0-0.8633-0.1875-0.8633-0.7305 0-0.7188 0.8516-0.8008 1.652-0.8008v-0.06641" fill="#231f1f"/>
<path transform="matrix(.1 0 0 -.1 0 243.1)" d="m2141 1477v-110.2" fill="none" stroke="#231f1f" stroke-width="5"/>
<path d="m227.6 61.77h-27v-17.25h27v17.25" fill="#fef0ca"/>
<path transform="matrix(.1 0 0 -.1 0 243.1)" d="m2276 1813h-270v172.5h270z" fill="none" stroke="#231f1f" stroke-width="5"/>
<path d="m211.4 56.03-0.4766 0.3086c-0.6172-0.8242-1.023-1.945-1.023-3.117 0-1.168 0.4062-2.289 1.023-3.117l0.4766 0.3086c-0.5469 0.7656-0.9062 1.785-0.9062 2.809s0.3594 2.047 0.9062 2.809" fill="#231f1f"/>
<path d="m214.5 52.83h1.555v0.5742h-1.555v1.555h-0.5742v-1.555h-1.555v-0.5742h1.555v-1.555h0.5742v1.555" fill="#231f1f"/>
<path d="m217 50.41 0.4766-0.3086c0.6172 0.8281 1.023 1.949 1.023 3.117 0 1.172-0.4062 2.293-1.023 3.117l-0.4766-0.3086c0.5469-0.7617 0.9023-1.785 0.9023-2.809s-0.3555-2.043-0.9023-2.809" fill="#231f1f"/>
<path d="m304.1 95.04h-180v-17.25h180v17.25" fill="#fef0ca"/>
<path transform="matrix(.1 0 0 -.1 0 243.1)" d="m3041 1480h-1800v172.5h1800z" fill="none" stroke="#231f1f" stroke-width="5"/>
<path d="m134 83.55h0.6953v2.074h2.508v-2.074h0.6992v4.961h-0.6992v-2.27h-2.508v2.27h-0.6953v-4.961" fill="#231f1f"/>
<path d="m139.8 88.51h-0.6914v-4.961h0.6914v4.961" fill="#231f1f"/>
<path d="m142.7 87.61h0.01953l1.492-4.062h0.75l-1.949 4.961h-0.6406l-1.938-4.961h0.7734l1.492 4.062" fill="#231f1f"/>
<path d="m146.7 87.08h-1.625v-0.5625h1.625v0.5625" fill="#231f1f"/>
<path d="m149.7 88.51h-0.6797v-4.133l-0.9414 0.7812-0.3984-0.4688 1.406-1.141h0.6133v4.961" fill="#231f1f"/>
<path d="m151.6 88.74-0.4961-0.168 2.148-5.262 0.5 0.1836-2.152 5.246" fill="#231f1f"/>
<path d="m154.4 83.55h0.6914v2.074h2.508v-2.074h0.6992v4.961h-0.6992v-2.27h-2.508v2.27h-0.6914v-4.961" fill="#231f1f"/>
<path d="m160.2 88.51h-0.6914v-4.961h0.6914v4.961" fill="#231f1f"/>
<path d="m163.1 87.61h0.01953l1.492-4.062h0.75l-1.945 4.961h-0.6484l-1.93-4.961h0.7695l1.492 4.062" fill="#231f1f"/>
<path d="m167.1 87.08h-1.625v-0.5625h1.625v0.5625" fill="#231f1f"/>
<path d="m171 88.51h-3.234v-0.6523l1.973-1.961c0.3008-0.3086 0.5469-0.6328 0.5469-1.051 0-0.5195-0.3906-0.8555-0.8828-0.8555-0.5039 0-0.8477 0.3633-0.9297 0.8633l-0.6641-0.1133c0.1172-0.7578 0.7539-1.316 1.602-1.316 0.8281 0 1.57 0.4805 1.57 1.406 0 0.6367-0.3672 1.07-0.8008 1.5l-1.609 1.566h2.43v0.6133" fill="#231f1f"/>
<path d="m175.8 86.92c-0.6523 0-1.477 0.07031-1.477 0.6328 0 0.3906 0.3516 0.5156 0.6797 0.5156 0.6172 0 0.9609-0.4141 0.9609-0.9727v-0.1758zm0.1641-0.5664c0-0.4922-0.332-0.7266-0.8203-0.7266-0.3711 0-0.7227 0.1602-0.9453 0.3828l-0.3516-0.418c0.3242-0.3086 0.8203-0.5 1.359-0.5 0.9531 0 1.387 0.5664 1.387 1.305v1.449c0 0.2227 0.01172 0.4961 0.04688 0.6602h-0.5938c-0.03516-0.1484-0.05469-0.3242-0.05469-0.4766h-0.02344c-0.2383 0.3555-0.6172 0.5586-1.113 0.5586-0.5234 0-1.203-0.2578-1.203-1.023 0-1 1.191-1.121 2.312-1.121v-0.08984" fill="#231f1f"/>
<path d="m178.3 85.19c0.01563 0.168 0.02734 0.4062 0.02734 0.543h0.02344c0.1602-0.3555 0.6016-0.6367 1.078-0.6367 0.8555 0 1.238 0.6094 1.238 1.352v2.062h-0.6562v-1.844c0-0.5391-0.1484-1.016-0.7578-1.016-0.5195 0-0.8906 0.4336-0.8906 1.094v1.766h-0.6562v-2.609c0-0.1719-0.007812-0.4961-0.02734-0.7109h0.6211" fill="#231f1f"/>
<path d="m183.4 85.73h-0.8828v1.727c0 0.4023 0.1406 0.5625 0.4688 0.5625 0.1172 0 0.2734-0.02734 0.3867-0.08203l0.01953 0.5391c-0.1562 0.05469-0.3594 0.08984-0.5586 0.08984-0.625 0-0.9688-0.3516-0.9688-1.039v-1.797h-0.6367v-0.5391h0.6367v-0.9531h0.6523v0.9531h0.8828v0.5391" fill="#231f1f"/>
<path d="m184.7 88.51h-0.6602v-3.32h0.6602zm-0.332-4.098c-0.2344 0-0.4336-0.1914-0.4336-0.4219 0-0.2383 0.1992-0.4258 0.4336-0.4258 0.2383 0 0.4414 0.1797 0.4414 0.4258 0 0.2383-0.2031 0.4219-0.4414 0.4219" fill="#231f1f"/>
<path d="m187.6 85.64c-0.6719 0-1.121 0.5703-1.121 1.207 0 0.6367 0.4492 1.195 1.121 1.195 0.7188 0 1.105-0.582 1.105-1.203 0-0.625-0.3867-1.199-1.105-1.199zm-1.102 2.34v0.5273h-0.6367v-5.297h0.6602v2.473h0.01953c0.2227-0.3242 0.6367-0.5898 1.184-0.5898 0.9883 0 1.66 0.7656 1.66 1.746 0 0.9727-0.6523 1.758-1.676 1.758-0.4688 0-0.9375-0.2188-1.195-0.6172h-0.01562" fill="#231f1f"/>
<path d="m191.9 85.64c-0.7109 0-1.105 0.5703-1.105 1.199s0.3945 1.203 1.105 1.203c0.7148 0 1.105-0.5742 1.105-1.203s-0.3906-1.199-1.105-1.199zm0 2.957c-1.016 0-1.785-0.7383-1.785-1.758 0-1.023 0.7695-1.746 1.785-1.746s1.793 0.7227 1.793 1.746c0 1.02-0.7773 1.758-1.793 1.758" fill="#231f1f"/>
<path d="m196.1 88.04c0.6719 0 1.121-0.5586 1.121-1.195 0-0.6367-0.4492-1.207-1.121-1.207-0.7227 0-1.098 0.5742-1.098 1.199 0 0.6211 0.375 1.203 1.098 1.203zm-0.1133 0.5547c-1.02 0-1.672-0.7852-1.672-1.758 0-0.9805 0.6719-1.746 1.668-1.746 0.5391 0 0.9492 0.2656 1.184 0.5898h0.01172v-2.473h0.6602v5.297h-0.6406v-0.5273h-0.01172c-0.2539 0.3984-0.7305 0.6172-1.199 0.6172" fill="#231f1f"/>
<path d="m200.3 87.79h0.01172l0.918-2.602h0.7031l-1.613 4.102c-0.2148 0.5547-0.4961 0.8984-1.148 0.8984-0.1406 0-0.2852-0.01562-0.4336-0.05078l0.0625-0.5781c0.1055 0.03125 0.2266 0.05469 0.3281 0.05469 0.3438 0 0.4766-0.1992 0.6172-0.5547l0.2109-0.5508-1.422-3.32h0.7344l1.031 2.602" fill="#231f1f"/>
<path d="m205.9 88.04c0.6719 0 1.121-0.5586 1.121-1.195 0-0.6367-0.4492-1.207-1.121-1.207-0.7227 0-1.098 0.5742-1.098 1.199 0 0.6211 0.375 1.203 1.098 1.203zm-0.1133 0.5547c-1.02 0-1.672-0.7852-1.672-1.758 0-0.9805 0.6719-1.746 1.668-1.746 0.5391 0 0.9492 0.2656 1.184 0.5898h0.01172v-2.473h0.6602v5.297h-0.6367v-0.5273h-0.01563c-0.2539 0.3984-0.7266 0.6172-1.199 0.6172" fill="#231f1f"/>
<path d="m209.4 88.51h-0.6602v-3.32h0.6602zm-0.332-4.098c-0.2383 0-0.4336-0.1914-0.4336-0.4219 0-0.2383 0.1953-0.4258 0.4336-0.4258s0.4414 0.1797 0.4414 0.4258c0 0.2383-0.2031 0.4219-0.4414 0.4219" fill="#231f1f"/>
<path d="m212.1 85.73h-0.7695v2.781h-0.6602v-2.781h-0.6562v-0.5391h0.6562v-0.6953c0-0.7773 0.3438-1.363 1.242-1.363 0.1523 0 0.2852 0.01172 0.4141 0.04688l-0.07812 0.5664c-0.09766-0.02734-0.2031-0.04688-0.3281-0.04688-0.5 0-0.5898 0.3906-0.5898 0.7969v0.6953h0.7695v0.5391" fill="#231f1f"/>
<path d="m214.1 85.73h-0.7695v2.781h-0.6602v-2.781h-0.6562v-0.5391h0.6562v-0.6953c0-0.7773 0.3438-1.363 1.242-1.363 0.1523 0 0.2852 0.01172 0.4102 0.04688l-0.07422 0.5664c-0.09766-0.02734-0.2031-0.04688-0.3281-0.04688-0.5 0-0.5898 0.3906-0.5898 0.7969v0.6953h0.7695v0.5391" fill="#231f1f"/>
<path d="m217.2 86.55c-0.01563-0.5234-0.3242-0.9375-0.9336-0.9375-0.5664 0-1 0.4219-1.043 0.9375zm0.6562 0.4922h-2.633c0.02344 0.5664 0.5 1.008 1.078 1.008 0.4492 0 0.7773-0.2227 0.9688-0.5039l0.4609 0.3711c-0.3555 0.4609-0.8398 0.6797-1.43 0.6797-1.008 0-1.75-0.7031-1.75-1.746 0-1.035 0.7422-1.758 1.715-1.758 0.9844 0 1.598 0.668 1.598 1.723 0 0.07031 0 0.1484-0.007812 0.2266" fill="#231f1f"/>
<path d="m218.7 85.19h0.625c0.01172 0.168 0.02734 0.418 0.02734 0.5586h0.01953c0.1836-0.3867 0.5703-0.6523 1.016-0.6523 0.09375 0 0.1836 0.007812 0.2617 0.02734l-0.02734 0.6094c-0.08594-0.01953-0.1992-0.03516-0.3008-0.03516-0.6328 0-0.9336 0.5156-0.9336 1.066v1.746h-0.6562v-2.609c0-0.1719-0.007813-0.4961-0.03125-0.7109" fill="#231f1f"/>
<path d="m223.6 86.55c-0.01172-0.5234-0.3203-0.9375-0.9336-0.9375-0.5625 0-1 0.4219-1.043 0.9375zm0.6602 0.4922h-2.637c0.02344 0.5664 0.5 1.008 1.082 1.008 0.4453 0 0.7773-0.2227 0.9648-0.5039l0.4609 0.3711c-0.3555 0.4609-0.8398 0.6797-1.426 0.6797-1.012 0-1.754-0.7031-1.754-1.746 0-1.035 0.7422-1.758 1.715-1.758 0.9844 0 1.602 0.668 1.602 1.723 0 0.07031 0 0.1484-0.007813 0.2266" fill="#231f1f"/>
<path d="m225.8 85.19c0.01562 0.168 0.02734 0.4062 0.02734 0.543h0.02344c0.1602-0.3555 0.6016-0.6367 1.078-0.6367 0.8555 0 1.238 0.6094 1.238 1.352v2.062h-0.6562v-1.844c0-0.5391-0.1484-1.016-0.7578-1.016-0.5195 0-0.8906 0.4336-0.8906 1.094v1.766h-0.6562v-2.609c0-0.1719-0.007813-0.4961-0.02734-0.7109h0.6211" fill="#231f1f"/>
<path d="m230.9 85.73h-0.8828v1.727c0 0.4023 0.1406 0.5625 0.4688 0.5625 0.1172 0 0.2734-0.02734 0.3867-0.08203l0.01953 0.5391c-0.1523 0.05469-0.3555 0.08984-0.5586 0.08984-0.625 0-0.9688-0.3516-0.9688-1.039v-1.797h-0.6367v-0.5391h0.6367v-0.9531h0.6523v0.9531h0.8828v0.5391" fill="#231f1f"/>
<path d="m232.2 88.51h-0.6602v-3.32h0.6602zm-0.332-4.098c-0.2383 0-0.4336-0.1914-0.4336-0.4219 0-0.2383 0.1953-0.4258 0.4336-0.4258s0.4414 0.1797 0.4414 0.4258c0 0.2383-0.2031 0.4219-0.4414 0.4219" fill="#231f1f"/>
<path d="m235.3 86.92c-0.6523 0-1.477 0.07031-1.477 0.6328 0 0.3906 0.3477 0.5156 0.6797 0.5156 0.6133 0 0.957-0.4141 0.957-0.9727v-0.1758zm0.1602-0.5664c0-0.4922-0.3281-0.7266-0.8203-0.7266-0.3711 0-0.7188 0.1602-0.9414 0.3828l-0.3516-0.418c0.3203-0.3086 0.8203-0.5 1.359-0.5 0.9531 0 1.387 0.5664 1.387 1.305v1.449c0 0.2227 0.01172 0.4961 0.04688 0.6602h-0.5938c-0.03516-0.1484-0.05469-0.3242-0.05469-0.4766h-0.02344c-0.2383 0.3555-0.6172 0.5586-1.113 0.5586-0.5234 0-1.203-0.2578-1.203-1.023 0-1 1.188-1.121 2.309-1.121v-0.08984" fill="#231f1f"/>
<path d="m238.7 85.73h-0.8828v1.727c0 0.4023 0.1406 0.5625 0.4688 0.5625 0.1172 0 0.2734-0.02734 0.3828-0.08203l0.02344 0.5391c-0.1523 0.05469-0.3555 0.08984-0.5625 0.08984-0.6211 0-0.9648-0.3516-0.9648-1.039v-1.797h-0.6367v-0.5391h0.6367v-0.9531h0.6523v0.9531h0.8828v0.5391" fill="#231f1f"/>
<path d="m240.1 88.51h-0.6602v-3.32h0.6602zm-0.332-4.098c-0.2383 0-0.4336-0.1914-0.4336-0.4219 0-0.2383 0.1953-0.4258 0.4336-0.4258s0.4414 0.1797 0.4414 0.4258c0 0.2383-0.2031 0.4219-0.4414 0.4219" fill="#231f1f"/>
<path d="m242.8 85.64c-0.707 0-1.105 0.5703-1.105 1.199s0.3984 1.203 1.105 1.203c0.7148 0 1.105-0.5742 1.105-1.203s-0.3906-1.199-1.105-1.199zm0 2.957c-1.016 0-1.785-0.7383-1.785-1.758 0-1.023 0.7695-1.746 1.785-1.746s1.793 0.7227 1.793 1.746c0 1.02-0.7773 1.758-1.793 1.758" fill="#231f1f"/>
<path d="m246.1 85.19c0.01562 0.168 0.02734 0.4062 0.02734 0.543h0.01953c0.1641-0.3555 0.6055-0.6367 1.078-0.6367 0.8555 0 1.242 0.6094 1.242 1.352v2.062h-0.6602v-1.844c0-0.5391-0.1445-1.016-0.7539-1.016-0.5195 0-0.8906 0.4336-0.8906 1.094v1.766h-0.6562v-2.609c0-0.1719-0.007813-0.4961-0.03125-0.7109h0.625" fill="#231f1f"/>
<path d="m252 88.51h-0.6602v-3.32h0.6602zm-0.3281-4.098c-0.2422 0-0.4375-0.1914-0.4375-0.4219 0-0.2383 0.1953-0.4258 0.4375-0.4258 0.2383 0 0.4375 0.1797 0.4375 0.4258 0 0.2383-0.1992 0.4219-0.4375 0.4219" fill="#231f1f"/>
<path d="m254.8 85.09c0.4414 0 0.8281 0.1953 1.031 0.668 0.2227-0.4297 0.6562-0.668 1.129-0.668 0.8516 0 1.238 0.6094 1.238 1.352v2.062h-0.6602v-1.844c0-0.5391-0.1602-1.016-0.7344-1.016-0.6016 0-0.8398 0.5469-0.8398 1.066v1.793h-0.6602v-1.977c0-0.5195-0.1758-0.8828-0.6992-0.8828-0.4844 0-0.8477 0.4336-0.8477 1.094v1.766h-0.6602v-2.609c0-0.1719-0.007812-0.4961-0.02734-0.7109h0.625c0.01562 0.168 0.02734 0.4062 0.02734 0.543h0.02344c0.168-0.3477 0.5508-0.6367 1.055-0.6367" fill="#231f1f"/>
<path d="m261 85.09c0.4453 0 0.8281 0.1953 1.031 0.668 0.2227-0.4297 0.6602-0.668 1.129-0.668 0.8516 0 1.238 0.6094 1.238 1.352v2.062h-0.6562v-1.844c0-0.5391-0.1641-1.016-0.7383-1.016-0.6016 0-0.8398 0.5469-0.8398 1.066v1.793h-0.6562v-1.977c0-0.5195-0.1758-0.8828-0.7031-0.8828-0.4805 0-0.8477 0.4336-0.8477 1.094v1.766h-0.6562v-2.609c0-0.1719-0.007813-0.4961-0.02734-0.7109h0.625c0.01172 0.168 0.02344 0.4062 0.02344 0.543h0.02344c0.168-0.3477 0.5508-0.6367 1.055-0.6367" fill="#231f1f"/>
<path d="m267.9 88.51c-0.01172-0.168-0.02734-0.4062-0.02734-0.5469h-0.01562c-0.168 0.3477-0.6016 0.6367-1.086 0.6367-0.8516 0-1.238-0.6094-1.238-1.352v-2.059h0.6602v1.832c0 0.5469 0.1484 1.023 0.7578 1.023 0.5234 0 0.8867-0.4336 0.8867-1.094v-1.762h0.6602v2.602c0 0.1797 0.007812 0.5 0.02734 0.7188h-0.625" fill="#231f1f"/>
<path d="m270.2 85.19c0.01562 0.168 0.02734 0.4062 0.02734 0.543h0.01953c0.1602-0.3555 0.6016-0.6367 1.078-0.6367 0.8555 0 1.242 0.6094 1.242 1.352v2.062h-0.6602v-1.844c0-0.5391-0.1445-1.016-0.7578-1.016-0.5156 0-0.8867 0.4336-0.8867 1.094v1.766h-0.6602v-2.609c0-0.1719-0.003907-0.4961-0.02734-0.7109h0.625" fill="#231f1f"/>
<path d="m275.2 85.64c-0.707 0-1.105 0.5703-1.105 1.199s0.3984 1.203 1.105 1.203c0.7148 0 1.105-0.5742 1.105-1.203s-0.3906-1.199-1.105-1.199zm0 2.957c-1.016 0-1.785-0.7383-1.785-1.758 0-1.023 0.7695-1.746 1.785-1.746s1.793 0.7227 1.793 1.746c0 1.02-0.7773 1.758-1.793 1.758" fill="#231f1f"/>
<path d="m279.9 86.92c-0.6523 0-1.477 0.07031-1.477 0.6328 0 0.3906 0.3477 0.5156 0.6797 0.5156 0.6172 0 0.957-0.4141 0.957-0.9727v-0.1758zm0.1602-0.5664c0-0.4922-0.3281-0.7266-0.8203-0.7266-0.3711 0-0.7188 0.1602-0.9414 0.3828l-0.3516-0.418c0.3203-0.3086 0.8203-0.5 1.359-0.5 0.9531 0 1.383 0.5664 1.383 1.305v1.449c0 0.2227 0.01562 0.4961 0.05078 0.6602h-0.5938c-0.03516-0.1484-0.05469-0.3242-0.05469-0.4766h-0.02344c-0.2383 0.3555-0.6172 0.5586-1.113 0.5586-0.5234 0-1.207-0.2578-1.207-1.023 0-1 1.191-1.121 2.312-1.121v-0.08984" fill="#231f1f"/>
<path d="m283.5 86.03c-0.1445-0.2383-0.4336-0.4141-0.7656-0.4141-0.3047 0-0.6211 0.1172-0.6211 0.4336 0 0.2812 0.2539 0.3867 0.7578 0.5 0.6289 0.1367 1.113 0.3984 1.113 0.9766 0 0.7852-0.6523 1.074-1.324 1.074-0.5039 0-1.02-0.1953-1.336-0.5977l0.4688-0.3984c0.1758 0.2578 0.5117 0.4609 0.8828 0.4609 0.3281 0 0.6562-0.1172 0.6562-0.4805 0-0.3086-0.3008-0.4219-0.8672-0.5547-0.4414-0.1055-0.9648-0.293-0.9648-0.918 0-0.7148 0.6211-1.016 1.254-1.016 0.4688 0 0.9648 0.1914 1.203 0.5469l-0.457 0.3867" fill="#231f1f"/>
<path d="m286.6 86.03c-0.1484-0.2383-0.4336-0.4141-0.7695-0.4141-0.3008 0-0.6172 0.1172-0.6172 0.4336 0 0.2812 0.2539 0.3867 0.7578 0.5 0.6289 0.1367 1.113 0.3984 1.113 0.9766 0 0.7852-0.6523 1.074-1.324 1.074-0.5039 0-1.023-0.1953-1.336-0.5977l0.4688-0.3984c0.1719 0.2578 0.5078 0.4609 0.8789 0.4609 0.332 0 0.6602-0.1172 0.6602-0.4805 0-0.3086-0.3008-0.4219-0.8672-0.5547-0.4414-0.1055-0.9648-0.293-0.9648-0.918 0-0.7148 0.6211-1.016 1.25-1.016 0.4688 0 0.9688 0.1914 1.207 0.5469l-0.457 0.3867" fill="#231f1f"/>
<path d="m289.9 86.92c-0.6484 0-1.477 0.07031-1.477 0.6328 0 0.3906 0.3516 0.5156 0.6797 0.5156 0.6172 0 0.9609-0.4141 0.9609-0.9727v-0.1758zm0.1641-0.5664c0-0.4922-0.332-0.7266-0.8203-0.7266-0.3711 0-0.7227 0.1602-0.9453 0.3828l-0.3516-0.418c0.3242-0.3086 0.8203-0.5 1.359-0.5 0.9531 0 1.387 0.5664 1.387 1.305v1.449c0 0.2227 0.01562 0.4961 0.05078 0.6602h-0.5977c-0.03516-0.1484-0.05469-0.3242-0.05469-0.4766h-0.02344c-0.2344 0.3555-0.6133 0.5586-1.109 0.5586-0.5273 0-1.207-0.2578-1.207-1.023 0-1 1.191-1.121 2.312-1.121v-0.08984" fill="#231f1f"/>
<path d="m293 87.79h0.01172l0.918-2.602h0.6992l-1.609 4.102c-0.2188 0.5547-0.4961 0.8984-1.148 0.8984-0.1406 0-0.2852-0.01562-0.4336-0.05078l0.0625-0.5781c0.1055 0.03125 0.2227 0.05469 0.332 0.05469 0.3398 0 0.4727-0.1992 0.6133-0.5547l0.2109-0.5508-1.422-3.32h0.7344l1.031 2.602" fill="#231f1f"/>
<path transform="matrix(.1 0 0 -.1 0 243.1)" d="m2141 1813v-115" fill="none" stroke="#231f1f" stroke-width="5"/>
<path d="m214.1 76.89c-0.6328-1.703-1.711-3.816-2.852-5.129l2.852 1.031 2.852-1.031c-1.141 1.312-2.223 3.426-2.852 5.129" fill="#231f1f"/>
<path transform="matrix(.1 0 0 -.1 0 243.1)" d="m3776 863.4v-115" fill="none" stroke="#231f1f" stroke-width="5"/>
<path d="m377.6 171.9c-0.6328-1.703-1.711-3.816-2.852-5.125l2.852 1.031 2.852-1.031c-1.141 1.309-2.219 3.422-2.852 5.125" fill="#231f1f"/>
<path d="m404.8 190.2h-54v-17.25h54v17.25" fill="#fef0ca"/>
<path transform="matrix(.1 0 0 -.1 0 243.1)" d="m4048 528.7h-540v172.5h540z" fill="none" stroke="#231f1f" stroke-width="5"/>
<path d="m359.2 178.7h0.6914v2.07h2.508v-2.07h0.7031v4.957h-0.7031v-2.27h-2.508v2.27h-0.6914v-4.957" fill="#231f1f"/>
<path d="m365 183.7h-0.6914v-4.957h0.6914v4.957" fill="#231f1f"/>
<path d="m367.9 182.8h0.01953l1.488-4.059h0.75l-1.945 4.957h-0.6445l-1.93-4.957h0.7656l1.496 4.059" fill="#231f1f"/>
<path d="m371.9 182.3h-1.625v-0.5586h1.625v0.5586" fill="#231f1f"/>
<path d="m374.9 183.7h-0.6758v-4.133l-0.9414 0.7852-0.3984-0.4688 1.41-1.141h0.6055v4.957" fill="#231f1f"/>
<path d="m382.2 182.7h0.01172v-3.961h0.6953v4.957h-0.875l-2.621-4.047h-0.01172v4.047h-0.6953v-4.957h0.9062l2.59 3.961" fill="#231f1f"/>
<path d="m385.1 181.9h1.859l-0.9258-2.324zm-0.7383 1.828h-0.7734l2.152-4.957h0.6289l2.129 4.957h-0.7852l-0.5-1.219h-2.355l-0.4961 1.219" fill="#231f1f"/>
<path d="m390.1 181.9h1.855l-0.9258-2.324zm-0.7422 1.828h-0.7734l2.152-4.957h0.6289l2.129 4.957h-0.7852l-0.5039-1.219h-2.352l-0.4961 1.219" fill="#231f1f"/>
<path d="m395.4 183.7h-0.6914v-4.348h-1.594v-0.6094h3.875v0.6094h-1.59v4.348" fill="#231f1f"/>
<path transform="matrix(.1 0 0 -.1 0 243.1)" d="m3778 530.8v-110.2" fill="none" stroke="#231f1f" stroke-width="5"/>
<path transform="matrix(.1 0 0 -.1 0 243.1)" d="m3303 300.6v120h946v-120" fill="none" stroke="#231f1f" stroke-width="5"/>
<path d="m424.9 216.6c-0.6328-1.703-1.711-3.816-2.855-5.129l2.855 1.031 2.852-1.031c-1.141 1.312-2.219 3.426-2.852 5.129" fill="#231f1f"/>
<path d="m330.3 216.6c-0.6328-1.703-1.711-3.816-2.855-5.129l2.855 1.031 2.852-1.031c-1.141 1.312-2.219 3.426-2.852 5.129" fill="#231f1f"/>
<path d="m370.8 242.8h-81v-25.19h81v25.19" fill="#fef0ca"/>
<g clip-path="url(#b)">
<path transform="matrix(.1 0 0 -.1 0 243.1)" d="m3708 2.519h-810v251.9h810z" fill="none" stroke="#231f1f" stroke-width="5"/>
</g>
<path d="m309.5 223.2h0.6914v2.07h2.508v-2.07h0.7031v4.957h-0.7031v-2.27h-2.508v2.27h-0.6914v-4.957" fill="#231f1f"/>
<path d="m315.3 228.1h-0.6953v-4.957h0.6953v4.957" fill="#231f1f"/>
<path d="m318.2 227.2h0.02344l1.488-4.059h0.75l-1.945 4.957h-0.6445l-1.934-4.957h0.7695l1.492 4.059" fill="#231f1f"/>
<path d="m326.2 227.1h0.01562v-3.961h0.6914v4.957h-0.875l-2.621-4.051h-0.01172v4.051h-0.6953v-4.957h0.9023l2.594 3.961" fill="#231f1f"/>
<path d="m329 226.3h1.855l-0.9258-2.324zm-0.7461 1.828h-0.7695l2.152-4.957h0.6289l2.129 4.957h-0.7852l-0.5039-1.219h-2.352l-0.5 1.219" fill="#231f1f"/>
<path d="m334 226.3h1.855l-0.9258-2.324zm-0.7422 1.828h-0.7734l2.152-4.957h0.6289l2.129 4.957h-0.7852l-0.5-1.219h-2.355l-0.4961 1.219" fill="#231f1f"/>
<path d="m339.3 228.1h-0.6953v-4.352h-1.59v-0.6055h3.875v0.6055h-1.59v4.352" fill="#231f1f"/>
<path d="m344.3 228.9-0.4805 0.3047c-0.6133-0.8242-1.02-1.945-1.02-3.117 0-1.168 0.4062-2.289 1.02-3.117l0.4805 0.3125c-0.5469 0.7617-0.9062 1.785-0.9062 2.805 0 1.023 0.3594 2.047 0.9062 2.812" fill="#231f1f"/>
<path d="m347.4 225.7h1.555v0.5742h-1.555v1.555h-0.5742v-1.555h-1.555v-0.5742h1.555v-1.555h0.5742v1.555" fill="#231f1f"/>
<path d="m349.9 223.3 0.4766-0.3125c0.6133 0.8281 1.02 1.949 1.02 3.117 0 1.172-0.4062 2.293-1.02 3.117l-0.4766-0.3047c0.543-0.7656 0.9023-1.789 0.9023-2.812 0-1.02-0.3594-2.043-0.9023-2.805" fill="#231f1f"/>
<path d="m297.8 234.7h1.855l-0.9258-2.324zm-0.7422 1.828h-0.7695l2.148-4.957h0.6289l2.129 4.957h-0.7812l-0.5039-1.219h-2.355l-0.4961 1.219" fill="#231f1f"/>
<path d="m304.1 234.1c-0.1406-0.2188-0.4492-0.3789-0.7617-0.3789-0.6875 0-1.086 0.5586-1.086 1.195 0 0.6328 0.3984 1.199 1.09 1.199 0.3398 0 0.625-0.1406 0.8008-0.3633l0.4414 0.3984c-0.2812 0.3203-0.7109 0.5156-1.242 0.5156-1.023 0-1.785-0.6914-1.785-1.75 0-1.043 0.7578-1.75 1.773-1.75 0.4688 0 0.9727 0.1875 1.246 0.5469l-0.4766 0.3867" fill="#231f1f"/>
<path d="m307.6 236.5c-0.01562-0.168-0.02734-0.4062-0.02734-0.5469h-0.01563c-0.168 0.3516-0.6016 0.6367-1.086 0.6367-0.8516 0-1.238-0.6055-1.238-1.352v-2.059h0.6562v1.836c0 0.5469 0.1484 1.023 0.7578 1.023 0.5273 0 0.8906-0.4336 0.8906-1.094v-1.766h0.6562v2.605c0 0.1758 0.007813 0.5 0.02734 0.7148h-0.6211" fill="#231f1f"/>
<path d="m311 233.8h-0.8828v1.727c0 0.4023 0.1406 0.5625 0.4688 0.5625 0.1211 0 0.2734-0.02734 0.3867-0.08594l0.01953 0.5391c-0.1523 0.05859-0.3555 0.09375-0.5586 0.09375-0.625 0-0.9688-0.3516-0.9688-1.039v-1.797h-0.6367v-0.543h0.6367v-0.9492h0.6523v0.9492h0.8828v0.543" fill="#231f1f"/>
<path d="m314.1 234.6c-0.01562-0.5234-0.3242-0.9375-0.9336-0.9375-0.5664 0-1 0.418-1.043 0.9375zm0.6562 0.4883h-2.633c0.02344 0.5703 0.4961 1.012 1.078 1.012 0.4492 0 0.7773-0.2266 0.9648-0.5039l0.4648 0.3711c-0.3555 0.4609-0.8398 0.6758-1.43 0.6758-1.008 0-1.75-0.6992-1.75-1.742 0-1.035 0.7422-1.758 1.715-1.758 0.9805 0 1.598 0.6641 1.598 1.723 0 0.07031 0 0.1484-0.007813 0.2227" fill="#231f1f"/>
<path d="m317.4 231.6h0.6953v2.07h2.508v-2.07h0.6992v4.957h-0.6992v-2.27h-2.508v2.27h-0.6953v-4.957" fill="#231f1f"/>
<path d="m323.2 236.5h-0.6914v-4.957h0.6914v4.957" fill="#231f1f"/>
<path d="m326.1 235.6h0.01953l1.492-4.062h0.75l-1.949 4.957h-0.6445l-1.934-4.957h0.7734l1.492 4.062" fill="#231f1f"/>
<path d="m330.1 235.1h-1.625v-0.5586h1.625v0.5586" fill="#231f1f"/>
<path d="m333.1 236.5h-0.6758v-4.133l-0.9414 0.7852-0.3984-0.4688 1.406-1.141h0.6094v4.957" fill="#231f1f"/>
<path d="m337.6 236.5h-0.6602v-3.32h0.6602zm-0.332-4.098c-0.2383 0-0.4297-0.1875-0.4297-0.418 0-0.2383 0.1914-0.4297 0.4297-0.4297 0.2422 0 0.4453 0.1836 0.4453 0.4297 0 0.2383-0.2031 0.418-0.4453 0.418" fill="#231f1f"/>
<path d="m339.3 233.2c0.01172 0.168 0.02734 0.4062 0.02734 0.5469h0.02344c0.1602-0.3555 0.6016-0.6367 1.078-0.6367 0.8516 0 1.238 0.6094 1.238 1.352v2.059h-0.6602v-1.84c0-0.5391-0.1445-1.016-0.7539-1.016-0.5195 0-0.8906 0.4336-0.8906 1.09v1.766h-0.6602v-2.605c0-0.1719-0.003906-0.4961-0.02734-0.7148h0.625" fill="#231f1f"/>
<path d="m344.3 233.8h-0.7695v2.777h-0.6602v-2.777h-0.6562v-0.543h0.6562v-0.6914c0-0.7773 0.3477-1.367 1.242-1.367 0.1523 0 0.2852 0.01562 0.4141 0.05078l-0.07812 0.5664c-0.09766-0.02734-0.2031-0.04688-0.3281-0.04688-0.5 0-0.5898 0.3906-0.5898 0.7969v0.6914h0.7695v0.543" fill="#231f1f"/>
<path d="m347.4 234.6c-0.01562-0.5234-0.3203-0.9375-0.9297-0.9375-0.5664 0-1.004 0.418-1.047 0.9375zm0.6602 0.4883h-2.637c0.02344 0.5703 0.5 1.012 1.082 1.012 0.4492 0 0.7773-0.2266 0.9648-0.5039l0.4609 0.3711c-0.3555 0.4609-0.8398 0.6758-1.426 0.6758-1.008 0-1.754-0.6992-1.754-1.742 0-1.035 0.7461-1.758 1.719-1.758 0.9805 0 1.598 0.6641 1.598 1.723 0 0.07031 0 0.1484-0.007813 0.2227" fill="#231f1f"/>
<path d="m351.3 234.1c-0.1406-0.2188-0.4492-0.3789-0.7656-0.3789-0.6836 0-1.082 0.5586-1.082 1.195 0 0.6328 0.3984 1.199 1.09 1.199 0.3359 0 0.625-0.1406 0.8008-0.3633l0.4414 0.3984c-0.2812 0.3203-0.707 0.5156-1.242 0.5156-1.02 0-1.785-0.6914-1.785-1.75 0-1.043 0.7578-1.75 1.773-1.75 0.4688 0 0.9727 0.1875 1.246 0.5469l-0.4766 0.3867" fill="#231f1f"/>
<path d="m354 233.8h-0.8828v1.727c0 0.4023 0.1406 0.5625 0.4688 0.5625 0.1211 0 0.2734-0.02734 0.3867-0.08594l0.01953 0.5391c-0.1523 0.05859-0.3555 0.09375-0.5586 0.09375-0.625 0-0.9688-0.3516-0.9688-1.039v-1.797h-0.6367v-0.543h0.6367v-0.9492h0.6523v0.9492h0.8828v0.543" fill="#231f1f"/>
<path d="m355.4 236.5h-0.6602v-3.32h0.6602zm-0.3281-4.098c-0.2422 0-0.4375-0.1875-0.4375-0.418 0-0.2383 0.1953-0.4297 0.4375-0.4297 0.2383 0 0.4375 0.1836 0.4375 0.4297 0 0.2383-0.1992 0.418-0.4375 0.418" fill="#231f1f"/>
<path d="m358.1 233.7c-0.707 0-1.105 0.5664-1.105 1.195 0 0.6328 0.3984 1.207 1.105 1.207 0.7148 0 1.109-0.5742 1.109-1.207 0-0.6289-0.3945-1.195-1.109-1.195zm0 2.953c-1.016 0-1.785-0.7344-1.785-1.758 0-1.02 0.7695-1.742 1.785-1.742 1.016 0 1.793 0.7227 1.793 1.742 0 1.023-0.7773 1.758-1.793 1.758" fill="#231f1f"/>
<path d="m361.4 233.2c0.01562 0.168 0.02734 0.4062 0.02734 0.5469h0.02344c0.1602-0.3555 0.6016-0.6367 1.078-0.6367 0.8555 0 1.238 0.6094 1.238 1.352v2.059h-0.6602v-1.84c0-0.5391-0.1445-1.016-0.7539-1.016-0.5195 0-0.8906 0.4336-0.8906 1.09v1.766h-0.6562v-2.605c0-0.1719-0.007813-0.4961-0.03125-0.7148h0.625" fill="#231f1f"/>
<path d="m465.4 242.8h-81v-25.19h81v25.19" fill="#fef0ca"/>
<g clip-path="url(#a)">
<path transform="matrix(.1 0 0 -.1 0 243.1)" d="m4654 2.519h-810v251.9h810z" fill="none" stroke="#231f1f" stroke-width="5"/>
</g>
<path d="m405.4 223.2h0.6953v2.07h2.508v-2.07h0.7031v4.957h-0.7031v-2.27h-2.508v2.27h-0.6953v-4.957" fill="#231f1f"/>
<path d="m411.2 228.1h-0.6914v-4.957h0.6914v4.957" fill="#231f1f"/>
<path d="m414 227.2h0.01953l1.492-4.059h0.75l-1.949 4.957h-0.6406l-1.934-4.957h0.7695l1.492 4.059" fill="#231f1f"/>
<path d="m422 227.1h0.01172v-3.961h0.6953v4.957h-0.875l-2.621-4.051h-0.01172v4.051h-0.6953v-4.957h0.9023l2.594 3.961" fill="#231f1f"/>
<path d="m424.8 226.3h1.859l-0.9258-2.324zm-0.7422 1.828h-0.7695l2.152-4.957h0.6289l2.129 4.957h-0.7852l-0.5039-1.219h-2.355l-0.4961 1.219" fill="#231f1f"/>
<path d="m429.8 226.3h1.852l-0.9219-2.324zm-0.7422 1.828h-0.7734l2.148-4.957h0.6328l2.129 4.957h-0.7852l-0.5039-1.219h-2.352l-0.4961 1.219" fill="#231f1f"/>
<path d="m435.1 228.1h-0.6914v-4.352h-1.59v-0.6055h3.871v0.6055h-1.59v4.352" fill="#231f1f"/>
<path d="m440.1 228.9-0.4766 0.3047c-0.6172-0.8242-1.023-1.945-1.023-3.117 0-1.168 0.4062-2.289 1.023-3.117l0.4766 0.3125c-0.5469 0.7617-0.9023 1.785-0.9023 2.805 0 1.023 0.3555 2.047 0.9023 2.812" fill="#231f1f"/>
<path d="m442.5 226.7h-1.625v-0.5586h1.625v0.5586" fill="#231f1f"/>
<path d="m443.3 223.3 0.4766-0.3125c0.6172 0.8281 1.023 1.949 1.023 3.117 0 1.172-0.4062 2.293-1.023 3.117l-0.4766-0.3047c0.5469-0.7656 0.9023-1.789 0.9023-2.812 0-1.02-0.3555-2.043-0.9023-2.805" fill="#231f1f"/>
<path d="m397.8 235.5h0.01172v-3.965h0.6953v4.957h-0.8789l-2.617-4.047h-0.01562v4.047h-0.6914v-4.957h0.9023l2.594 3.965" fill="#231f1f"/>
<path d="m402.1 234.6c-0.01172-0.5234-0.3203-0.9375-0.9297-0.9375-0.5703 0-1 0.418-1.043 0.9375zm0.6602 0.4883h-2.633c0.01953 0.5703 0.4961 1.012 1.078 1.012 0.4453 0 0.7773-0.2266 0.9648-0.5039l0.4648 0.3711c-0.3594 0.4609-0.8398 0.6758-1.43 0.6758-1.012 0-1.75-0.6992-1.75-1.742 0-1.035 0.7383-1.758 1.715-1.758 0.9805 0 1.594 0.6641 1.594 1.723 0 0.07031 0 0.1484-0.003906 0.2227" fill="#231f1f"/>
<path d="m405.3 236c0.6836 0 1.133-0.5117 1.133-1.172 0-0.6289-0.457-1.168-1.133-1.168-0.6914 0-1.098 0.5312-1.098 1.168 0 0.6094 0.4062 1.172 1.098 1.172zm-1.301 1.094c0.2852 0.3203 0.7578 0.5391 1.211 0.5391 0.875 0 1.172-0.5391 1.172-1.227v-0.4297h-0.01562c-0.2461 0.3711-0.6992 0.5742-1.168 0.5742-1.016 0-1.672-0.7539-1.672-1.707s0.6484-1.73 1.664-1.73c0.4766 0 0.9453 0.2109 1.199 0.625h0.01172v-0.5352h0.6367v3.152c0 0.9688-0.4531 1.852-1.836 1.852-0.5742 0-1.211-0.2266-1.625-0.6055l0.4219-0.5078" fill="#231f1f"/>
<path d="m410.1 235c-0.6523 0-1.48 0.07031-1.48 0.6289 0 0.3945 0.3555 0.5195 0.6836 0.5195 0.6172 0 0.9609-0.4141 0.9609-0.9727v-0.1758zm0.1641-0.5664c0-0.4922-0.332-0.7305-0.8242-0.7305-0.3711 0-0.7188 0.1641-0.9453 0.3867l-0.3477-0.4219c0.3242-0.3086 0.8203-0.4961 1.359-0.4961 0.9492 0 1.387 0.5664 1.387 1.305v1.449c0 0.2227 0.01172 0.4961 0.04688 0.6562h-0.5938c-0.03516-0.1445-0.05859-0.3203-0.05859-0.4766h-0.01953c-0.2383 0.3594-0.6172 0.5625-1.113 0.5625-0.5234 0-1.207-0.2617-1.207-1.023 0-1 1.195-1.121 2.316-1.121v-0.08984" fill="#231f1f"/>
<path d="m413.5 233.8h-0.8867v1.727c0 0.4023 0.1445 0.5625 0.4727 0.5625 0.1211 0 0.2695-0.02734 0.3867-0.08594l0.01953 0.5391c-0.1523 0.05859-0.3555 0.09375-0.5586 0.09375-0.625 0-0.9688-0.3516-0.9688-1.039v-1.797h-0.6367v-0.543h0.6367v-0.9492h0.6484v0.9492h0.8867v0.543" fill="#231f1f"/>
<path d="m414.8 236.5h-0.6602v-3.32h0.6602zm-0.3281-4.098c-0.2422 0-0.4336-0.1875-0.4336-0.418 0-0.2383 0.1914-0.4297 0.4336-0.4297 0.2383 0 0.4414 0.1836 0.4414 0.4297 0 0.2383-0.2031 0.418-0.4414 0.418" fill="#231f1f"/>
<path d="m417.6 236.5h-0.7109l-1.355-3.32h0.7305l0.9727 2.613h0.01172l0.9844-2.613h0.6992l-1.332 3.32" fill="#231f1f"/>
<path d="m422 234.6c-0.01562-0.5234-0.3203-0.9375-0.9336-0.9375-0.5664 0-1 0.418-1.043 0.9375zm0.6562 0.4883h-2.633c0.01953 0.5703 0.5 1.012 1.082 1.012 0.4453 0 0.7773-0.2266 0.9609-0.5039l0.4648 0.3711c-0.3555 0.4609-0.8398 0.6758-1.426 0.6758-1.012 0-1.754-0.6992-1.754-1.742 0-1.035 0.7422-1.758 1.715-1.758 0.9844 0 1.598 0.6641 1.598 1.723 0 0.07031 0 0.1484-0.007813 0.2227" fill="#231f1f"/>
<path d="m426.8 233.8h-0.7695v2.777h-0.6602v-2.777h-0.6562v-0.543h0.6562v-0.6914c0-0.7773 0.3477-1.367 1.242-1.367 0.1523 0 0.2852 0.01562 0.4102 0.05078l-0.07422 0.5664c-0.09766-0.02734-0.2031-0.04688-0.332-0.04688-0.4961 0-0.5859 0.3906-0.5859 0.7969v0.6914h0.7695v0.543" fill="#231f1f"/>
<path d="m429 233.7c-0.707 0-1.105 0.5664-1.105 1.195 0 0.6328 0.3984 1.207 1.105 1.207 0.7148 0 1.109-0.5742 1.109-1.207 0-0.6289-0.3945-1.195-1.109-1.195zm0 2.953c-1.012 0-1.785-0.7344-1.785-1.758 0-1.02 0.7734-1.742 1.785-1.742 1.016 0 1.793 0.7227 1.793 1.742 0 1.023-0.7773 1.758-1.793 1.758" fill="#231f1f"/>
<path d="m431.7 233.2h0.625c0.01562 0.168 0.03125 0.4219 0.03125 0.5625h0.01953c0.1836-0.3867 0.5664-0.6523 1.016-0.6523 0.08984 0 0.1797 0.007812 0.2578 0.02734l-0.02734 0.6094c-0.08594-0.01953-0.1953-0.03516-0.3008-0.03516-0.6289 0-0.9297 0.5117-0.9297 1.066v1.742h-0.6602v-2.605c0-0.1719-0.007812-0.4961-0.03125-0.7148" fill="#231f1f"/>
<path d="m436 231.6h0.6953v2.07h2.508v-2.07h0.6992v4.957h-0.6992v-2.27h-2.508v2.27h-0.6953v-4.957" fill="#231f1f"/>
<path d="m441.8 236.5h-0.6953v-4.957h0.6953v4.957" fill="#231f1f"/>
<path d="m444.7 235.6h0.02344l1.488-4.062h0.75l-1.945 4.957h-0.6484l-1.93-4.957h0.7695l1.492 4.062" fill="#231f1f"/>
<path d="m448.7 235.1h-1.621v-0.5586h1.621v0.5586" fill="#231f1f"/>
<path d="m451.7 236.5h-0.6797v-4.133l-0.9414 0.7852-0.3945-0.4688 1.406-1.141h0.6094v4.957" fill="#231f1f"/>
<path d="m455.3 233.1c-0.01172-0.375-0.2305-0.6719-0.668-0.6719-0.4062 0-0.7148 0.3008-0.7461 0.6719zm0.4688 0.3477h-1.883c0.01562 0.4062 0.3594 0.7227 0.7734 0.7227 0.3203 0 0.5547-0.1602 0.6875-0.3594l0.332 0.2656c-0.2539 0.3281-0.5977 0.4844-1.02 0.4844-0.7227 0-1.25-0.5-1.25-1.246 0-0.7422 0.5273-1.258 1.223-1.258 0.7031 0 1.141 0.4766 1.141 1.23 0 0.05078 0 0.1055-0.003906 0.1602" fill="#231f1f"/>
<path transform="matrix(.1 0 0 -.1 0 243.1)" d="m505.5 1247v120h3270v-120" fill="none" stroke="#231f1f" stroke-width="5"/>
<path d="m159.6 122c-0.6328-1.703-1.711-3.816-2.852-5.129l2.852 1.031 2.855-1.031c-1.141 1.312-2.219 3.426-2.855 5.129" fill="#231f1f"/>
<path d="m50.55 122c-0.6328-1.703-1.711-3.82-2.855-5.129l2.855 1.031 2.852-1.031c-1.141 1.309-2.223 3.426-2.852 5.129" fill="#231f1f"/>
<path d="m100.9 156.6h-100.6v-33.84h100.6v33.84" fill="#fef0ca"/>
<path transform="matrix(.1 0 0 -.1 0 243.1)" d="m1009 865h-1006v338.4h1006z" fill="none" stroke="#231f1f" stroke-width="5"/>
<path d="m36.88 127.5h0.6914v2.074h2.508v-2.074h0.6992v4.957h-0.6992v-2.266h-2.508v2.266h-0.6914v-4.957" fill="#231f1f"/>
<path d="m42.67 132.4h-0.6914v-4.957h0.6914v4.957" fill="#231f1f"/>
<path d="m45.52 131.5h0.01953l1.492-4.062h0.75l-1.945 4.957h-0.6445l-1.934-4.957h0.7695l1.492 4.062" fill="#231f1f"/>
<path d="m49.54 131h-1.625v-0.5625h1.625v0.5625" fill="#231f1f"/>
<path d="m52.5 132.4h-0.6797v-4.129l-0.9375 0.7812-0.4023-0.4688 1.41-1.141h0.6094v4.957" fill="#231f1f"/>
<path d="m57.49 133.2-0.4766 0.3086c-0.6133-0.8281-1.023-1.949-1.023-3.117s0.4102-2.289 1.023-3.117l0.4766 0.3086c-0.5469 0.7656-0.9023 1.785-0.9023 2.809 0 1.023 0.3555 2.047 0.9023 2.809" fill="#231f1f"/>
<path d="m60.58 130h1.555v0.5742h-1.555v1.555h-0.5781v-1.555h-1.555v-0.5742h1.555v-1.555h0.5781v1.555" fill="#231f1f"/>
<path d="m63.09 127.6 0.4727-0.3086c0.6172 0.8281 1.023 1.949 1.023 3.117s-0.4062 2.289-1.023 3.117l-0.4727-0.3086c0.543-0.7617 0.9023-1.785 0.9023-2.809 0-1.023-0.3594-2.043-0.9023-2.809" fill="#231f1f"/>
<path d="m38.09 135.9h0.6914v2.074h2.508v-2.074h0.6992v4.961h-0.6992v-2.27h-2.508v2.27h-0.6914v-4.961" fill="#231f1f"/>
<path d="m43.89 140.8h-0.6953v-4.961h0.6953v4.961" fill="#231f1f"/>
<path d="m46.73 139.9h0.01953l1.492-4.062h0.75l-1.945 4.961h-0.6445l-1.934-4.961h0.7695l1.492 4.062" fill="#231f1f"/>
<path d="m50.75 139.4h-1.625v-0.5586h1.625v0.5586" fill="#231f1f"/>
<path d="m54.71 140.8h-3.234v-0.6523l1.977-1.961c0.2969-0.3086 0.543-0.6289 0.543-1.051 0-0.5195-0.3906-0.8555-0.8828-0.8555-0.5039 0-0.8477 0.3633-0.9297 0.8633l-0.6641-0.1133c0.1172-0.7578 0.7539-1.316 1.602-1.316 0.8281 0 1.57 0.4844 1.57 1.406 0 0.6406-0.3633 1.074-0.8008 1.5l-1.609 1.57h2.43v0.6094" fill="#231f1f"/>
<path d="m58.7 141.6-0.4766 0.3086c-0.6172-0.8242-1.02-1.945-1.02-3.117 0-1.168 0.4023-2.289 1.02-3.113l0.4766 0.3047c-0.5469 0.7656-0.9023 1.789-0.9023 2.809 0 1.023 0.3555 2.047 0.9023 2.809" fill="#231f1f"/>
<path d="m61.11 139.4h-1.625v-0.5586h1.625v0.5586" fill="#231f1f"/>
<path d="m61.88 136 0.4727-0.3047c0.6172 0.8242 1.023 1.945 1.023 3.113 0 1.172-0.4062 2.293-1.023 3.117l-0.4727-0.3086c0.543-0.7617 0.9023-1.785 0.9023-2.809 0-1.02-0.3594-2.043-0.9023-2.809" fill="#231f1f"/>
<path d="m7.414 144.3h0.6914v2.07h2.508v-2.07h0.7031v4.957h-0.7031v-2.27h-2.508v2.27h-0.6914v-4.957" fill="#231f1f"/>
<path d="m13.21 149.2h-0.6953v-4.957h0.6953v4.957" fill="#231f1f"/>
<path d="m16.06 148.3h0.02344l1.492-4.062h0.7461l-1.945 4.957h-0.6445l-1.934-4.957h0.7695l1.492 4.062" fill="#231f1f"/>
<path d="m20.07 147.8h-1.625v-0.5586h1.625v0.5586" fill="#231f1f"/>
<path d="m23.03 149.2h-0.6797v-4.133l-0.9375 0.7852-0.3984-0.4688 1.406-1.141h0.6094v4.957" fill="#231f1f"/>
<path d="m28.77 147.7c-0.6523 0-1.48 0.07031-1.48 0.6289 0 0.3945 0.3516 0.5195 0.6797 0.5195 0.6172 0 0.9609-0.4141 0.9609-0.9727v-0.1758zm0.1602-0.5664c0-0.4922-0.3281-0.7305-0.8203-0.7305-0.3711 0-0.7188 0.1602-0.9453 0.3867l-0.3516-0.4219c0.3242-0.3086 0.8203-0.4961 1.359-0.4961 0.9531 0 1.387 0.5664 1.387 1.305v1.449c0 0.2227 0.01562 0.4961 0.05078 0.6562h-0.5938c-0.03516-0.1445-0.05859-0.3242-0.05859-0.4766h-0.01953c-0.2383 0.3594-0.6172 0.5625-1.113 0.5625-0.5273 0-1.207-0.2617-1.207-1.023 0-1 1.191-1.121 2.312-1.121v-0.08984" fill="#231f1f"/>
<path d="m31.25 145.9c0.01172 0.168 0.02734 0.4062 0.02734 0.5469h0.01953c0.1641-0.3555 0.6055-0.6367 1.078-0.6367 0.8555 0 1.242 0.6094 1.242 1.352v2.059h-0.6602v-1.84c0-0.543-0.1445-1.016-0.7539-1.016-0.5195 0-0.8906 0.4336-0.8906 1.09v1.766h-0.6602v-2.605c0-0.1758-0.003906-0.4961-0.02734-0.7148h0.625" fill="#231f1f"/>
<path d="m36.35 146.5h-0.8828v1.73c0 0.3984 0.1406 0.5586 0.4688 0.5586 0.1211 0 0.2734-0.02344 0.3867-0.08203l0.01953 0.5391c-0.1523 0.05859-0.3555 0.09375-0.5586 0.09375-0.625 0-0.9648-0.3516-0.9648-1.039v-1.801h-0.6406v-0.5391h0.6406v-0.9531h0.6484v0.9531h0.8828v0.5391" fill="#231f1f"/>
<path d="m37.7 149.2h-0.6562v-3.32h0.6562zm-0.3281-4.098c-0.2383 0-0.4336-0.1875-0.4336-0.418 0-0.2383 0.1953-0.4297 0.4336-0.4297 0.2383 0 0.4414 0.1836 0.4414 0.4297 0 0.2344-0.2031 0.418-0.4414 0.418" fill="#231f1f"/>
<path d="m40.59 146.4c-0.6719 0-1.121 0.5664-1.121 1.203s0.4492 1.199 1.121 1.199c0.7227 0 1.105-0.582 1.105-1.207 0-0.6211-0.3828-1.195-1.105-1.195zm-1.098 2.34v0.5234h-0.6406v-5.293h0.6602v2.469h0.01953c0.2266-0.3203 0.6367-0.5859 1.184-0.5859 0.9883 0 1.66 0.7617 1.66 1.742 0 0.9766-0.6523 1.758-1.672 1.758-0.4688 0-0.9375-0.2148-1.199-0.6133h-0.01172" fill="#231f1f"/>
<path d="m44.86 146.4c-0.707 0-1.105 0.5664-1.105 1.195 0 0.6328 0.3984 1.207 1.105 1.207 0.7148 0 1.105-0.5742 1.105-1.207 0-0.6289-0.3906-1.195-1.105-1.195zm0 2.953c-1.016 0-1.785-0.7344-1.785-1.758 0-1.02 0.7695-1.742 1.785-1.742s1.793 0.7227 1.793 1.742c0 1.023-0.7773 1.758-1.793 1.758" fill="#231f1f"/>
<path d="m49.13 148.8c0.6719 0 1.117-0.5625 1.117-1.199s-0.4453-1.203-1.117-1.203c-0.7227 0-1.102 0.5742-1.102 1.195 0 0.625 0.3789 1.207 1.102 1.207zm-0.1133 0.5508c-1.023 0-1.676-0.7812-1.676-1.758 0-0.9805 0.6758-1.742 1.668-1.742 0.5391 0 0.9531 0.2656 1.184 0.5859h0.01562v-2.469h0.6562v5.293h-0.6367v-0.5234h-0.01172c-0.2539 0.3984-0.7305 0.6133-1.199 0.6133" fill="#231f1f"/>
<path d="m52.68 149.2h-0.6602v-3.32h0.6602zm-0.3281-4.098c-0.2383 0-0.4375-0.1875-0.4375-0.418 0-0.2383 0.1992-0.4297 0.4375-0.4297 0.2383 0 0.4414 0.1836 0.4414 0.4297 0 0.2344-0.2031 0.418-0.4414 0.418" fill="#231f1f"/>
<path d="m56.25 147.3c-0.01562-0.5273-0.3242-0.9375-0.9336-0.9375-0.5664 0-1 0.418-1.043 0.9375zm0.6562 0.4883h-2.633c0.02344 0.5703 0.5 1.012 1.078 1.012 0.4492 0 0.7773-0.2266 0.9688-0.5078l0.4609 0.3711c-0.3555 0.4648-0.8398 0.6797-1.43 0.6797-1.008 0-1.75-0.6992-1.75-1.742 0-1.035 0.7422-1.758 1.715-1.758 0.9805 0 1.598 0.6641 1.598 1.723 0 0.07031 0 0.1484-0.007813 0.2227" fill="#231f1f"/>
<path d="m59.63 146.8c-0.1484-0.2383-0.4375-0.4102-0.7734-0.4102-0.3008 0-0.6172 0.1172-0.6172 0.4336 0 0.2773 0.2539 0.3828 0.7578 0.4961 0.6328 0.1406 1.113 0.3984 1.113 0.9805 0 0.7852-0.6484 1.07-1.324 1.07-0.5039 0-1.02-0.1953-1.336-0.5938l0.4688-0.3984c0.1758 0.2578 0.5117 0.4609 0.8828 0.4609 0.3281 0 0.6602-0.1172 0.6602-0.4844 0-0.3047-0.3047-0.418-0.8711-0.5508-0.4414-0.1055-0.9648-0.293-0.9648-0.918 0-0.7148 0.6211-1.016 1.254-1.016 0.4688 0 0.9648 0.1875 1.203 0.5469l-0.4531 0.3828" fill="#231f1f"/>
<path d="m64.25 148.8c0.6719 0 1.121-0.5625 1.121-1.199s-0.4492-1.203-1.121-1.203c-0.7227 0-1.098 0.5742-1.098 1.195 0 0.625 0.375 1.207 1.098 1.207zm-0.1133 0.5508c-1.023 0-1.672-0.7812-1.672-1.758 0-0.9805 0.6719-1.742 1.668-1.742 0.5352 0 0.9492 0.2656 1.184 0.5859h0.01172v-2.469h0.6602v5.293h-0.6406v-0.5234h-0.01172c-0.2539 0.3984-0.7305 0.6133-1.199 0.6133" fill="#231f1f"/>
<path d="m69.57 147.3c-0.01562-0.5273-0.3203-0.9375-0.9297-0.9375-0.5664 0-1.004 0.418-1.043 0.9375zm0.6602 0.4883h-2.633c0.01953 0.5703 0.4961 1.012 1.078 1.012 0.4453 0 0.7773-0.2266 0.9648-0.5078l0.4609 0.3711c-0.3555 0.4648-0.8398 0.6797-1.426 0.6797-1.012 0-1.754-0.6992-1.754-1.742 0-1.035 0.7422-1.758 1.719-1.758 0.9805 0 1.594 0.6641 1.594 1.723 0 0.07031 0 0.1484-0.003907 0.2227" fill="#231f1f"/>
<path d="m72.77 146.5h-0.8828v1.73c0 0.3984 0.1406 0.5586 0.4688 0.5586 0.1172 0 0.2734-0.02344 0.3867-0.08203l0.01953 0.5391c-0.1523 0.05859-0.3555 0.09375-0.5586 0.09375-0.625 0-0.9688-0.3516-0.9688-1.039v-1.801h-0.6367v-0.5391h0.6367v-0.9531h0.6523v0.9531h0.8828v0.5391" fill="#231f1f"/>
<path d="m75.88 147.3c-0.01562-0.5273-0.3242-0.9375-0.9336-0.9375-0.5664 0-1 0.418-1.043 0.9375zm0.6562 0.4883h-2.633c0.01953 0.5703 0.4961 1.012 1.078 1.012 0.4492 0 0.7773-0.2266 0.9688-0.5078l0.4609 0.3711c-0.3594 0.4648-0.8398 0.6797-1.43 0.6797-1.008 0-1.75-0.6992-1.75-1.742 0-1.035 0.7422-1.758 1.715-1.758 0.9805 0 1.598 0.6641 1.598 1.723 0 0.07031 0 0.1484-0.007813 0.2227" fill="#231f1f"/>
<path d="m79.79 146.8c-0.1367-0.2148-0.4453-0.375-0.7617-0.375-0.6875 0-1.086 0.5586-1.086 1.195 0 0.6289 0.3984 1.199 1.094 1.199 0.3359 0 0.6211-0.1406 0.7969-0.3672l0.4414 0.4023c-0.2812 0.3203-0.707 0.5156-1.238 0.5156-1.023 0-1.785-0.6914-1.785-1.75 0-1.043 0.7539-1.75 1.77-1.75 0.4688 0 0.9727 0.1875 1.246 0.5469l-0.4766 0.3828" fill="#231f1f"/>
<path d="m82.54 146.5h-0.8828v1.73c0 0.3984 0.1406 0.5586 0.4727 0.5586 0.1172 0 0.2734-0.02344 0.3828-0.08203l0.02344 0.5391c-0.1562 0.05859-0.3594 0.09375-0.5625 0.09375-0.6211 0-0.9648-0.3516-0.9648-1.039v-1.801h-0.6367v-0.5391h0.6367v-0.9531h0.6484v0.9531h0.8828v0.5391" fill="#231f1f"/>
<path d="m85.65 147.3c-0.01172-0.5273-0.3203-0.9375-0.9297-0.9375-0.5664 0-1.004 0.418-1.047 0.9375zm0.6602 0.4883h-2.637c0.02344 0.5703 0.5 1.012 1.082 1.012 0.4453 0 0.7773-0.2266 0.9648-0.5078l0.4609 0.3711c-0.3555 0.4648-0.8398 0.6797-1.426 0.6797-1.012 0-1.754-0.6992-1.754-1.742 0-1.035 0.7422-1.758 1.719-1.758 0.9805 0 1.598 0.6641 1.598 1.723 0 0.07031 0 0.1484-0.007812 0.2227" fill="#231f1f"/>
<path d="m88.8 148.8c0.6719 0 1.117-0.5625 1.117-1.199s-0.4453-1.203-1.117-1.203c-0.7227 0-1.102 0.5742-1.102 1.195 0 0.625 0.3789 1.207 1.102 1.207zm-0.1133 0.5508c-1.023 0-1.672-0.7812-1.672-1.758 0-0.9805 0.6719-1.742 1.664-1.742 0.5391 0 0.9531 0.2656 1.184 0.5859h0.01562v-2.469h0.6562v5.293h-0.6367v-0.5234h-0.01172c-0.2539 0.3984-0.7305 0.6133-1.199 0.6133" fill="#231f1f"/>
<path d="m92.77 145.2c-0.4805 0-0.8008 0.4062-0.8008 0.8633 0 0.4531 0.3203 0.8516 0.8008 0.8516 0.5117 0 0.7891-0.4141 0.7891-0.8594 0-0.4453-0.2773-0.8555-0.7891-0.8555zm-0.7891 1.672v0.375h-0.4531v-3.785h0.4688v1.77h0.01562c0.1602-0.2305 0.457-0.4219 0.8477-0.4219 0.7031 0 1.184 0.5469 1.184 1.246 0 0.6953-0.4648 1.258-1.195 1.258-0.3359 0-0.6719-0.1562-0.8555-0.4414h-0.01172" fill="#231f1f"/>
<path d="m319 156.6h-100.6v-33.84h100.6v33.84" fill="#fef0ca"/>
<path transform="matrix(.1 0 0 -.1 0 243.1)" d="m3190 865h-1006v338.4h1006z" fill="none" stroke="#231f1f" stroke-width="5"/>
<path d="m255 128.4h0.6914v2.074h2.508v-2.074h0.6992v4.957h-0.6992v-2.266h-2.508v2.266h-0.6914v-4.957" fill="#231f1f"/>
<path d="m260.8 133.4h-0.6914v-4.957h0.6914v4.957" fill="#231f1f"/>
<path d="m263.7 132.5h0.01953l1.492-4.062h0.75l-1.949 4.957h-0.6406l-1.938-4.957h0.7734l1.492 4.062" fill="#231f1f"/>
<path d="m267.7 131.9h-1.625v-0.5625h1.625v0.5625" fill="#231f1f"/>
<path d="m270.6 133.4h-0.6797v-4.129l-0.9375 0.7812-0.4023-0.4688 1.406-1.141h0.6133v4.957" fill="#231f1f"/>
<path d="m275.6 134.2-0.4766 0.3086c-0.6172-0.8281-1.02-1.949-1.02-3.117s0.4023-2.289 1.02-3.117l0.4766 0.3086c-0.5469 0.7656-0.9023 1.789-0.9023 2.809 0 1.023 0.3555 2.047 0.9023 2.809" fill="#231f1f"/>
<path d="m278.7 131h1.551v0.5742h-1.551v1.555h-0.5781v-1.555h-1.555v-0.5742h1.555v-1.555h0.5781v1.555" fill="#231f1f"/>
<path d="m281.2 128.5 0.4766-0.3086c0.6172 0.8281 1.023 1.949 1.023 3.117s-0.4062 2.289-1.023 3.117l-0.4766-0.3086c0.5469-0.7617 0.9062-1.785 0.9062-2.809 0-1.02-0.3594-2.043-0.9062-2.809" fill="#231f1f"/>
<path d="m255 136.8h0.6914v2.074h2.508v-2.074h0.6992v4.961h-0.6992v-2.27h-2.508v2.27h-0.6914v-4.961" fill="#231f1f"/>
<path d="m260.8 141.8h-0.6914v-4.961h0.6914v4.961" fill="#231f1f"/>
<path d="m263.7 140.9h0.01953l1.492-4.066h0.75l-1.949 4.961h-0.6406l-1.938-4.961h0.7734l1.492 4.066" fill="#231f1f"/>
<path d="m267.7 140.3h-1.625v-0.5586h1.625v0.5586" fill="#231f1f"/>
<path d="m271.6 141.8h-3.234v-0.6523l1.977-1.961c0.3008-0.3086 0.543-0.6289 0.543-1.051 0-0.5156-0.3906-0.8555-0.8828-0.8555-0.5039 0-0.8477 0.3672-0.9297 0.8633l-0.668-0.1133c0.1211-0.7539 0.7578-1.316 1.605-1.316 0.8242 0 1.566 0.4844 1.566 1.41 0 0.6367-0.3594 1.07-0.7969 1.496l-1.609 1.57h2.43v0.6094" fill="#231f1f"/>
<path d="m275.6 142.6-0.4766 0.3086c-0.6172-0.8242-1.02-1.945-1.02-3.113 0-1.172 0.4023-2.293 1.02-3.117l0.4766 0.3047c-0.5469 0.7656-0.9023 1.789-0.9023 2.812 0 1.02 0.3555 2.043 0.9023 2.805" fill="#231f1f"/>
<path d="m278.7 139.4h1.551v0.5742h-1.551v1.555h-0.5781v-1.555h-1.555v-0.5742h1.555v-1.555h0.5781v1.555" fill="#231f1f"/>
<path d="m281.2 136.9 0.4766-0.3047c0.6172 0.8242 1.023 1.945 1.023 3.117 0 1.168-0.4062 2.289-1.023 3.113l-0.4766-0.3086c0.5469-0.7617 0.9062-1.785 0.9062-2.805 0-1.023-0.3594-2.047-0.9062-2.812" fill="#231f1f"/>
<path d="m228.7 145.2h0.6914v2.07h2.508v-2.07h0.7031v4.957h-0.7031v-2.27h-2.508v2.27h-0.6914v-4.957" fill="#231f1f"/>
<path d="m234.5 150.2h-0.6953v-4.957h0.6953v4.957" fill="#231f1f"/>
<path d="m237.4 149.3h0.01953l1.492-4.062h0.75l-1.945 4.957h-0.6445l-1.934-4.957h0.7695l1.492 4.062" fill="#231f1f"/>
<path d="m243.7 148.6c-0.6523 0-1.48 0.07031-1.48 0.6289 0 0.3945 0.3516 0.5195 0.6797 0.5195 0.6172 0 0.9609-0.4141 0.9609-0.9727v-0.1758zm0.1602-0.5664c0-0.4922-0.3281-0.7305-0.8203-0.7305-0.3711 0-0.7188 0.1641-0.9453 0.3867l-0.3516-0.4219c0.3242-0.3086 0.8203-0.4961 1.359-0.4961 0.9531 0 1.387 0.5664 1.387 1.305v1.449c0 0.2227 0.01562 0.4961 0.05078 0.6562h-0.5938c-0.03516-0.1445-0.05859-0.3203-0.05859-0.4766h-0.01953c-0.2383 0.3594-0.6172 0.5625-1.113 0.5625-0.5273 0-1.207-0.2617-1.207-1.023 0-1 1.191-1.121 2.312-1.121v-0.08984" fill="#231f1f"/>
<path d="m246.2 146.9c0.01172 0.168 0.02734 0.4062 0.02734 0.5469h0.01953c0.1641-0.3555 0.6016-0.6367 1.078-0.6367 0.8555 0 1.242 0.6094 1.242 1.352v2.059h-0.6602v-1.84c0-0.5391-0.1484-1.016-0.7539-1.016-0.5195 0-0.8906 0.4336-0.8906 1.09v1.766h-0.6602v-2.605c0-0.1719-0.003906-0.4961-0.02734-0.7148h0.625" fill="#231f1f"/>
<path d="m251.3 147.4h-0.8828v1.727c0 0.4023 0.1406 0.5625 0.4688 0.5625 0.1211 0 0.2773-0.02734 0.3867-0.08594l0.02344 0.5391c-0.1562 0.05859-0.3594 0.09375-0.5625 0.09375-0.625 0-0.9688-0.3516-0.9688-1.039v-1.797h-0.6328v-0.543h0.6328v-0.9531h0.6523v0.9531h0.8828v0.543" fill="#231f1f"/>
<path d="m252.7 150.2h-0.6602v-3.32h0.6602zm-0.3281-4.098c-0.2383 0-0.4336-0.1875-0.4336-0.418 0-0.2383 0.1953-0.4297 0.4336-0.4297s0.4414 0.1836 0.4414 0.4297c0 0.2383-0.2031 0.418-0.4414 0.418" fill="#231f1f"/>
<path d="m255.6 147.3c-0.6719 0-1.121 0.5664-1.121 1.203s0.4492 1.199 1.121 1.199c0.7227 0 1.105-0.582 1.105-1.203 0-0.625-0.3828-1.199-1.105-1.199zm-1.102 2.34v0.5234h-0.6367v-5.293h0.6602v2.473h0.01953c0.2266-0.3242 0.6406-0.5898 1.188-0.5898 0.9844 0 1.656 0.7617 1.656 1.746 0 0.9727-0.6523 1.758-1.672 1.758-0.4727 0-0.9375-0.2188-1.199-0.6172h-0.01562" fill="#231f1f"/>
<path d="m259.8 147.3c-0.707 0-1.105 0.5664-1.105 1.199 0 0.6289 0.3984 1.203 1.105 1.203 0.7148 0 1.109-0.5742 1.109-1.203 0-0.6328-0.3945-1.199-1.109-1.199zm0 2.957c-1.016 0-1.785-0.7383-1.785-1.758 0-1.023 0.7695-1.746 1.785-1.746s1.793 0.7227 1.793 1.746c0 1.02-0.7773 1.758-1.793 1.758" fill="#231f1f"/>
<path d="m264.1 149.7c0.6719 0 1.121-0.5625 1.121-1.199s-0.4492-1.203-1.121-1.203c-0.7227 0-1.102 0.5742-1.102 1.199 0 0.6211 0.3789 1.203 1.102 1.203zm-0.1133 0.5547c-1.023 0-1.676-0.7852-1.676-1.758 0-0.9844 0.6758-1.746 1.668-1.746 0.5391 0 0.9531 0.2656 1.184 0.5898h0.01172v-2.473h0.6602v5.293h-0.6367v-0.5234h-0.01172c-0.2539 0.3984-0.7305 0.6172-1.199 0.6172" fill="#231f1f"/>
<path d="m267.6 150.2h-0.6602v-3.32h0.6602zm-0.3281-4.098c-0.2383 0-0.4375-0.1875-0.4375-0.418 0-0.2383 0.1992-0.4297 0.4375-0.4297 0.2383 0 0.4375 0.1836 0.4375 0.4297 0 0.2383-0.1992 0.418-0.4375 0.418" fill="#231f1f"/>
<path d="m271.2 148.2c-0.01562-0.5273-0.3203-0.9375-0.9336-0.9375-0.5664 0-1 0.418-1.043 0.9375zm0.6562 0.4883h-2.633c0.02344 0.5703 0.4961 1.012 1.078 1.012 0.4492 0 0.7812-0.2266 0.9688-0.5078l0.4609 0.375c-0.3555 0.4609-0.8398 0.6797-1.43 0.6797-1.008 0-1.75-0.7031-1.75-1.746 0-1.035 0.7422-1.758 1.715-1.758 0.9844 0 1.598 0.6641 1.598 1.723 0 0.07031 0 0.1484-0.007812 0.2227" fill="#231f1f"/>
<path d="m274.6 147.7c-0.1484-0.2344-0.4375-0.4102-0.7734-0.4102-0.3008 0-0.6172 0.1172-0.6172 0.4336 0 0.2812 0.2539 0.3867 0.7578 0.4961 0.6328 0.1406 1.113 0.3984 1.113 0.9805 0 0.7852-0.6484 1.074-1.324 1.074-0.5039 0-1.02-0.1992-1.336-0.5977l0.4688-0.3984c0.1758 0.2578 0.5117 0.4609 0.8828 0.4609 0.3281 0 0.6602-0.1172 0.6602-0.4805 0-0.3086-0.3047-0.4219-0.8711-0.5547-0.4414-0.1055-0.9648-0.293-0.9648-0.918 0-0.7148 0.6211-1.016 1.254-1.016 0.4688 0 0.9648 0.1875 1.203 0.5469l-0.4531 0.3828" fill="#231f1f"/>
<path d="m279.2 149.7c0.6719 0 1.121-0.5625 1.121-1.199s-0.4492-1.203-1.121-1.203c-0.7227 0-1.102 0.5742-1.102 1.199 0 0.6211 0.3789 1.203 1.102 1.203zm-0.1133 0.5547c-1.023 0-1.672-0.7852-1.672-1.758 0-0.9844 0.6719-1.746 1.668-1.746 0.5391 0 0.9492 0.2656 1.18 0.5898h0.01562v-2.473h0.6562v5.293h-0.6367v-0.5234h-0.01172c-0.2539 0.3984-0.7305 0.6172-1.199 0.6172" fill="#231f1f"/>
<path d="m284.5 148.2c-0.01172-0.5273-0.3242-0.9375-0.9297-0.9375-0.5703 0-1.004 0.418-1.043 0.9375zm0.6602 0.4883h-2.633c0.01953 0.5703 0.4961 1.012 1.078 1.012 0.4453 0 0.7734-0.2266 0.9648-0.5078l0.4648 0.375c-0.3594 0.4609-0.8438 0.6797-1.43 0.6797-1.012 0-1.75-0.7031-1.75-1.746 0-1.035 0.7383-1.758 1.715-1.758 0.9805 0 1.594 0.6641 1.594 1.723 0 0.07031 0 0.1484-0.003906 0.2227" fill="#231f1f"/>
<path d="m287.7 147.4h-0.8828v1.727c0 0.4023 0.1406 0.5625 0.4688 0.5625 0.1172 0 0.2734-0.02734 0.3828-0.08594l0.02344 0.5391c-0.1562 0.05859-0.3594 0.09375-0.5625 0.09375-0.6211 0-0.9648-0.3516-0.9648-1.039v-1.797h-0.6367v-0.543h0.6367v-0.9531h0.6523v0.9531h0.8828v0.543" fill="#231f1f"/>
<path d="m290.8 148.2c-0.01562-0.5273-0.3242-0.9375-0.9336-0.9375-0.5664 0-1.004 0.418-1.043 0.9375zm0.6562 0.4883h-2.633c0.01953 0.5703 0.4961 1.012 1.078 1.012 0.4492 0 0.7773-0.2266 0.9648-0.5078l0.4648 0.375c-0.3555 0.4609-0.8438 0.6797-1.43 0.6797-1.008 0-1.75-0.7031-1.75-1.746 0-1.035 0.7422-1.758 1.715-1.758 0.9805 0 1.598 0.6641 1.598 1.723 0 0.07031 0 0.1484-0.007812 0.2227" fill="#231f1f"/>
<path d="m294.7 147.7c-0.1406-0.2148-0.4453-0.375-0.7617-0.375-0.6836 0-1.086 0.5586-1.086 1.195 0 0.6328 0.4023 1.199 1.094 1.199 0.3359 0 0.6211-0.1406 0.7969-0.3633l0.4414 0.3984c-0.2812 0.3203-0.707 0.5195-1.238 0.5195-1.023 0-1.789-0.6953-1.789-1.754 0-1.043 0.7578-1.75 1.773-1.75 0.4688 0 0.9727 0.1875 1.25 0.5469l-0.4805 0.3828" fill="#231f1f"/>
<path d="m297.5 147.4h-0.8867v1.727c0 0.4023 0.1445 0.5625 0.4727 0.5625 0.1172 0 0.2695-0.02734 0.3828-0.08594l0.01953 0.5391c-0.1523 0.05859-0.3555 0.09375-0.5586 0.09375-0.625 0-0.9648-0.3516-0.9648-1.039v-1.797h-0.6367v-0.543h0.6367v-0.9531h0.6484v0.9531h0.8867v0.543" fill="#231f1f"/>
<path d="m300.6 148.2c-0.01172-0.5273-0.3242-0.9375-0.9297-0.9375-0.5703 0-1.004 0.418-1.043 0.9375zm0.6562 0.4883h-2.629c0.01953 0.5703 0.4961 1.012 1.078 1.012 0.4453 0 0.7734-0.2266 0.9648-0.5078l0.4609 0.375c-0.3555 0.4609-0.8398 0.6797-1.426 0.6797-1.008 0-1.75-0.7031-1.75-1.746 0-1.035 0.7422-1.758 1.715-1.758 0.9805 0 1.594 0.6641 1.594 1.723 0 0.07031 0 0.1484-0.007813 0.2227" fill="#231f1f"/>
<path d="m303.8 149.7c0.6719 0 1.121-0.5625 1.121-1.199s-0.4492-1.203-1.121-1.203c-0.7227 0-1.102 0.5742-1.102 1.199 0 0.6211 0.3789 1.203 1.102 1.203zm-0.1133 0.5547c-1.023 0-1.672-0.7852-1.672-1.758 0-0.9844 0.6719-1.746 1.664-1.746 0.5391 0 0.9531 0.2656 1.184 0.5898h0.01563v-2.473h0.6562v5.293h-0.6367v-0.5234h-0.01172c-0.2539 0.3984-0.7305 0.6172-1.199 0.6172" fill="#231f1f"/>
<path d="m307.6 147.8c0.4805 0 0.8008-0.4023 0.8008-0.8555 0-0.457-0.3203-0.8633-0.8008-0.8633-0.5156 0-0.7852 0.4102-0.7852 0.8555 0 0.4453 0.2695 0.8633 0.7852 0.8633zm-0.07812 0.3945c-0.7344 0-1.199-0.5625-1.199-1.258 0-0.6992 0.4805-1.246 1.191-1.246 0.3867 0 0.6797 0.1914 0.8477 0.4219h0.007812v-1.766h0.4727v3.781h-0.457v-0.375h-0.01172c-0.1797 0.2852-0.5156 0.4414-0.8516 0.4414" fill="#231f1f"/>
<path d="m209.9 156.6h-100.6v-33.84h100.6v33.84" fill="#fef0ca"/>
<path transform="matrix(.1 0 0 -.1 0 243.1)" d="m2099 865h-1006v338.4h1006z" fill="none" stroke="#231f1f" stroke-width="5"/>
<path d="m147.2 128.4h0.6953v2.074h2.508v-2.074h0.6992v4.957h-0.6992v-2.266h-2.508v2.266h-0.6953v-4.957" fill="#231f1f"/>
<path d="m153 133.4h-0.6914v-4.957h0.6914v4.957" fill="#231f1f"/>
<path d="m155.8 132.5h0.01953l1.492-4.062h0.75l-1.949 4.957h-0.6406l-1.938-4.957h0.7734l1.492 4.062" fill="#231f1f"/>
<path d="m159.8 131.9h-1.625v-0.5625h1.625v0.5625" fill="#231f1f"/>
<path d="m162.8 133.4h-0.6797v-4.129l-0.9414 0.7812-0.3984-0.4688 1.406-1.141h0.6133v4.957" fill="#231f1f"/>
<path d="m167.8 134.2-0.4766 0.3086c-0.6172-0.8281-1.023-1.949-1.023-3.117s0.4062-2.289 1.023-3.117l0.4766 0.3086c-0.5469 0.7656-0.9023 1.789-0.9023 2.809 0 1.023 0.3555 2.047 0.9023 2.809" fill="#231f1f"/>
<path d="m170.2 131.9h-1.625v-0.5625h1.625v0.5625" fill="#231f1f"/>
<path d="m170.9 128.5 0.4766-0.3086c0.6172 0.8281 1.023 1.949 1.023 3.117s-0.4062 2.289-1.023 3.117l-0.4766-0.3086c0.5469-0.7617 0.9062-1.785 0.9062-2.809 0-1.02-0.3594-2.043-0.9062-2.809" fill="#231f1f"/>
<path d="m145.9 136.8h0.6953v2.074h2.508v-2.074h0.6992v4.961h-0.6992v-2.27h-2.508v2.27h-0.6953v-4.961" fill="#231f1f"/>
<path d="m151.7 141.8h-0.6914v-4.961h0.6914v4.961" fill="#231f1f"/>
<path d="m154.6 140.9h0.01953l1.492-4.066h0.75l-1.949 4.961h-0.6406l-1.934-4.961h0.7695l1.492 4.066" fill="#231f1f"/>
<path d="m158.6 140.3h-1.625v-0.5586h1.625v0.5586" fill="#231f1f"/>
<path d="m162.6 141.8h-3.234v-0.6523l1.973-1.961c0.3008-0.3086 0.5469-0.6289 0.5469-1.051 0-0.5156-0.3906-0.8555-0.8828-0.8555-0.5039 0-0.8477 0.3672-0.9297 0.8633l-0.668-0.1133c0.1211-0.7539 0.7578-1.316 1.605-1.316 0.8281 0 1.57 0.4844 1.57 1.41 0 0.6367-0.3633 1.07-0.8008 1.496l-1.609 1.57h2.43v0.6094" fill="#231f1f"/>
<path d="m166.6 142.6-0.4766 0.3086c-0.6172-0.8242-1.023-1.945-1.023-3.113 0-1.172 0.4062-2.293 1.023-3.117l0.4766 0.3047c-0.5469 0.7656-0.9023 1.789-0.9023 2.812 0 1.02 0.3555 2.043 0.9023 2.805" fill="#231f1f"/>
<path d="m169.6 139.4h1.555v0.5742h-1.555v1.555h-0.5742v-1.555h-1.555v-0.5742h1.555v-1.555h0.5742v1.555" fill="#231f1f"/>
<path d="m172.2 136.9 0.4766-0.3047c0.6172 0.8242 1.023 1.945 1.023 3.117 0 1.168-0.4062 2.289-1.023 3.113l-0.4766-0.3086c0.5469-0.7617 0.9062-1.785 0.9062-2.805 0-1.023-0.3594-2.047-0.9062-2.812" fill="#231f1f"/>
<path d="m116.8 145.2h0.6914v2.07h2.508v-2.07h0.6992v4.957h-0.6992v-2.27h-2.508v2.27h-0.6914v-4.957" fill="#231f1f"/>
<path d="m122.6 150.2h-0.6953v-4.957h0.6953v4.957" fill="#231f1f"/>
<path d="m125.5 149.3h0.01953l1.492-4.062h0.75l-1.945 4.957h-0.6445l-1.934-4.957h0.7695l1.492 4.062" fill="#231f1f"/>
<path d="m129.5 148.7h-1.625v-0.5586h1.625v0.5586" fill="#231f1f"/>
<path d="m133.5 150.2h-3.234v-0.6484l1.977-1.961c0.3008-0.3125 0.543-0.6328 0.543-1.051 0-0.5195-0.3906-0.8555-0.8828-0.8555-0.5039 0-0.8438 0.3633-0.9297 0.8594l-0.6641-0.1094c0.1172-0.7578 0.7539-1.32 1.602-1.32 0.8281 0 1.57 0.4844 1.57 1.41 0 0.6367-0.3633 1.07-0.7969 1.5l-1.613 1.566h2.43v0.6094" fill="#231f1f"/>
<path d="m138.2 148.6c-0.6484 0-1.477 0.07031-1.477 0.6289 0 0.3945 0.3516 0.5195 0.6797 0.5195 0.6172 0 0.9609-0.4141 0.9609-0.9727v-0.1758zm0.1641-0.5664c0-0.4922-0.332-0.7305-0.8203-0.7305-0.3711 0-0.7227 0.1641-0.9453 0.3867l-0.3516-0.4219c0.3242-0.3086 0.8203-0.4961 1.359-0.4961 0.9531 0 1.387 0.5664 1.387 1.305v1.449c0 0.2227 0.01562 0.4961 0.05078 0.6562h-0.5977c-0.03516-0.1445-0.05469-0.3203-0.05469-0.4766h-0.01953c-0.2383 0.3594-0.6172 0.5625-1.117 0.5625-0.5234 0-1.203-0.2617-1.203-1.023 0-1 1.191-1.121 2.312-1.121v-0.08984" fill="#231f1f"/>
<path d="m140.7 146.9c0.01172 0.168 0.02734 0.4062 0.02734 0.5469h0.01953c0.1602-0.3555 0.6016-0.6367 1.078-0.6367 0.8555 0 1.238 0.6094 1.238 1.352v2.059h-0.6562v-1.84c0-0.5391-0.1484-1.016-0.7578-1.016-0.5156 0-0.8867 0.4336-0.8867 1.09v1.766h-0.6602v-2.605c0-0.1719-0.007813-0.4961-0.02734-0.7148h0.625" fill="#231f1f"/>
<path d="m145.8 147.4h-0.8828v1.727c0 0.4023 0.1406 0.5625 0.4688 0.5625 0.1211 0 0.2734-0.02734 0.3867-0.08594l0.01953 0.5391c-0.1523 0.05859-0.3555 0.09375-0.5586 0.09375-0.625 0-0.9688-0.3516-0.9688-1.039v-1.797h-0.6367v-0.543h0.6367v-0.9531h0.6523v0.9531h0.8828v0.543" fill="#231f1f"/>
<path d="m147.1 150.2h-0.6602v-3.32h0.6602zm-0.332-4.098c-0.2344 0-0.4336-0.1875-0.4336-0.418 0-0.2383 0.1992-0.4297 0.4336-0.4297 0.2422 0 0.4453 0.1836 0.4453 0.4297 0 0.2383-0.2031 0.418-0.4453 0.418" fill="#231f1f"/>
<path d="m150 147.3c-0.6719 0-1.121 0.5664-1.121 1.203s0.4492 1.199 1.121 1.199c0.7188 0 1.105-0.582 1.105-1.203 0-0.625-0.3867-1.199-1.105-1.199zm-1.102 2.34v0.5234h-0.6367v-5.293h0.6602v2.473h0.01953c0.2266-0.3242 0.6367-0.5898 1.184-0.5898 0.9883 0 1.66 0.7617 1.66 1.746 0 0.9727-0.6523 1.758-1.672 1.758-0.4727 0-0.9414-0.2188-1.199-0.6172h-0.01562" fill="#231f1f"/>
<path d="m154.3 147.3c-0.707 0-1.105 0.5664-1.105 1.199 0 0.6289 0.3984 1.203 1.105 1.203 0.7148 0 1.105-0.5742 1.105-1.203 0-0.6328-0.3906-1.199-1.105-1.199zm0 2.957c-1.016 0-1.785-0.7383-1.785-1.758 0-1.023 0.7695-1.746 1.785-1.746 1.016 0 1.793 0.7227 1.793 1.746 0 1.02-0.7773 1.758-1.793 1.758" fill="#231f1f"/>
<path d="m158.6 149.7c0.6719 0 1.121-0.5625 1.121-1.199s-0.4492-1.203-1.121-1.203c-0.7188 0-1.098 0.5742-1.098 1.199 0 0.6211 0.3789 1.203 1.098 1.203zm-0.1094 0.5547c-1.023 0-1.676-0.7852-1.676-1.758 0-0.9844 0.6719-1.746 1.668-1.746 0.5391 0 0.9531 0.2656 1.184 0.5898h0.01172v-2.473h0.6602v5.293h-0.6367v-0.5234h-0.01562c-0.25 0.3984-0.7266 0.6172-1.195 0.6172" fill="#231f1f"/>
<path d="m162.1 150.2h-0.6602v-3.32h0.6602zm-0.332-4.098c-0.2383 0-0.4336-0.1875-0.4336-0.418 0-0.2383 0.1953-0.4297 0.4336-0.4297s0.4414 0.1836 0.4414 0.4297c0 0.2383-0.2031 0.418-0.4414 0.418" fill="#231f1f"/>
<path d="m165.7 148.2c-0.01563-0.5273-0.3242-0.9375-0.9336-0.9375-0.5664 0-1 0.418-1.043 0.9375zm0.6562 0.4883h-2.633c0.01953 0.5703 0.4961 1.012 1.078 1.012 0.4492 0 0.7773-0.2266 0.9688-0.5078l0.4609 0.375c-0.3555 0.4609-0.8398 0.6797-1.43 0.6797-1.008 0-1.75-0.7031-1.75-1.746 0-1.035 0.7422-1.758 1.715-1.758 0.9805 0 1.598 0.6641 1.598 1.723 0 0.07031 0 0.1484-0.007812 0.2227" fill="#231f1f"/>
<path d="m169.1 147.7c-0.1445-0.2344-0.4336-0.4102-0.7695-0.4102-0.3008 0-0.6172 0.1172-0.6172 0.4336 0 0.2812 0.2539 0.3867 0.7578 0.4961 0.6289 0.1406 1.113 0.3984 1.113 0.9805 0 0.7852-0.6523 1.074-1.324 1.074-0.5039 0-1.023-0.1992-1.336-0.5977l0.4688-0.3984c0.1758 0.2578 0.5117 0.4609 0.8828 0.4609 0.3281 0 0.6562-0.1172 0.6562-0.4805 0-0.3086-0.3008-0.4219-0.8672-0.5547-0.4414-0.1055-0.9648-0.293-0.9648-0.918 0-0.7148 0.6211-1.016 1.25-1.016 0.4688 0 0.9688 0.1875 1.207 0.5469l-0.457 0.3828" fill="#231f1f"/>
<path d="m173.7 149.7c0.6719 0 1.121-0.5625 1.121-1.199s-0.4492-1.203-1.121-1.203c-0.7227 0-1.102 0.5742-1.102 1.199 0 0.6211 0.3789 1.203 1.102 1.203zm-0.1133 0.5547c-1.023 0-1.672-0.7852-1.672-1.758 0-0.9844 0.6719-1.746 1.664-1.746 0.5391 0 0.9531 0.2656 1.184 0.5898h0.01562v-2.473h0.6562v5.293h-0.6367v-0.5234h-0.01172c-0.2539 0.3984-0.7305 0.6172-1.199 0.6172" fill="#231f1f"/>
<path d="m179 148.2c-0.01563-0.5273-0.3203-0.9375-0.9297-0.9375-0.5703 0-1.004 0.418-1.047 0.9375zm0.6562 0.4883h-2.633c0.02344 0.5703 0.5 1.012 1.082 1.012 0.4453 0 0.7734-0.2266 0.9648-0.5078l0.4609 0.375c-0.3555 0.4609-0.8398 0.6797-1.426 0.6797-1.012 0-1.754-0.7031-1.754-1.746 0-1.035 0.7422-1.758 1.719-1.758s1.594 0.6641 1.594 1.723c0 0.07031 0 0.1484-0.007812 0.2227" fill="#231f1f"/>
<path d="m182.2 147.4h-0.8828v1.727c0 0.4023 0.1367 0.5625 0.4688 0.5625 0.1172 0 0.2734-0.02734 0.3828-0.08594l0.02344 0.5391c-0.1562 0.05859-0.3594 0.09375-0.5625 0.09375-0.6211 0-0.9648-0.3516-0.9648-1.039v-1.797h-0.6367v-0.543h0.6367v-0.9531h0.6523v0.9531h0.8828v0.543" fill="#231f1f"/>
<path d="m185.3 148.2c-0.01563-0.5273-0.3203-0.9375-0.9297-0.9375-0.5664 0-1.004 0.418-1.043 0.9375zm0.6602 0.4883h-2.633c0.01953 0.5703 0.4961 1.012 1.078 1.012 0.4453 0 0.7773-0.2266 0.9648-0.5078l0.4648 0.375c-0.3594 0.4609-0.8438 0.6797-1.43 0.6797-1.008 0-1.754-0.7031-1.754-1.746 0-1.035 0.7461-1.758 1.719-1.758 0.9805 0 1.598 0.6641 1.598 1.723 0 0.07031 0 0.1484-0.007812 0.2227" fill="#231f1f"/>
<path d="m189.2 147.7c-0.1406-0.2148-0.4453-0.375-0.7617-0.375-0.6875 0-1.086 0.5586-1.086 1.195 0 0.6328 0.3984 1.199 1.094 1.199 0.332 0 0.6211-0.1406 0.7969-0.3633l0.4414 0.3984c-0.2812 0.3203-0.707 0.5195-1.238 0.5195-1.023 0-1.789-0.6953-1.789-1.754 0-1.043 0.7578-1.75 1.773-1.75 0.4688 0 0.9727 0.1875 1.246 0.5469l-0.4766 0.3828" fill="#231f1f"/>
<path d="m192 147.4h-0.8828v1.727c0 0.4023 0.1406 0.5625 0.4688 0.5625 0.1211 0 0.2734-0.02734 0.3867-0.08594l0.01953 0.5391c-0.1523 0.05859-0.3555 0.09375-0.5586 0.09375-0.625 0-0.9648-0.3516-0.9648-1.039v-1.797h-0.6406v-0.543h0.6406v-0.9531h0.6484v0.9531h0.8828v0.543" fill="#231f1f"/>
<path d="m195.1 148.2c-0.01562-0.5273-0.3242-0.9375-0.9336-0.9375-0.5664 0-1 0.418-1.043 0.9375zm0.6562 0.4883h-2.633c0.02344 0.5703 0.5 1.012 1.078 1.012 0.4492 0 0.7773-0.2266 0.9688-0.5078l0.4609 0.375c-0.3555 0.4609-0.8398 0.6797-1.43 0.6797-1.008 0-1.75-0.7031-1.75-1.746 0-1.035 0.7422-1.758 1.715-1.758 0.9844 0 1.598 0.6641 1.598 1.723 0 0.07031 0 0.1484-0.007813 0.2227" fill="#231f1f"/>
<path d="m198.2 149.7c0.6758 0 1.121-0.5625 1.121-1.199s-0.4453-1.203-1.121-1.203c-0.7188 0-1.098 0.5742-1.098 1.199 0 0.6211 0.3789 1.203 1.098 1.203zm-0.1094 0.5547c-1.023 0-1.676-0.7852-1.676-1.758 0-0.9844 0.6719-1.746 1.668-1.746 0.5391 0 0.9531 0.2656 1.184 0.5898h0.01562v-2.473h0.6562v5.293h-0.6367v-0.5234h-0.01562c-0.25 0.3984-0.7266 0.6172-1.195 0.6172" fill="#231f1f"/>
<path d="m202.6 146.4c-0.09766-0.1562-0.3203-0.2695-0.543-0.2695-0.4922 0-0.7773 0.3984-0.7773 0.8555 0 0.4492 0.2852 0.8555 0.7812 0.8555 0.2422 0 0.4453-0.1016 0.5703-0.2617l0.3164 0.2852c-0.1992 0.2305-0.5078 0.3711-0.8867 0.3711-0.7305 0-1.277-0.4961-1.277-1.25 0-0.7461 0.543-1.254 1.27-1.254 0.332 0 0.6953 0.1367 0.8867 0.3906l-0.3398 0.2773" fill="#231f1f"/>
<path d="m428.1 156.6h-100.6v-33.84h100.6v33.84" fill="#fef0ca"/>
<path transform="matrix(.1 0 0 -.1 0 243.1)" d="m4281 865h-1006v338.4h1006z" fill="none" stroke="#231f1f" stroke-width="5"/>
<path d="m364.4 128.4h0.6914v2.074h2.508v-2.074h0.6992v4.957h-0.6992v-2.266h-2.508v2.266h-0.6914v-4.957" fill="#231f1f"/>
<path d="m370.2 133.4h-0.6914v-4.957h0.6914v4.957" fill="#231f1f"/>
<path d="m373.1 132.5h0.02344l1.492-4.062h0.75l-1.945 4.957h-0.6484l-1.93-4.957h0.7695l1.488 4.062" fill="#231f1f"/>
<path d="m377.1 131.9h-1.625v-0.5625h1.625v0.5625" fill="#231f1f"/>
<path d="m380 133.4h-0.6836v-4.129l-0.9336 0.7812-0.4023-0.4688 1.41-1.141h0.6094v4.957" fill="#231f1f"/>
<path d="m385 134.2-0.4766 0.3086c-0.6172-0.8281-1.023-1.949-1.023-3.117s0.4062-2.289 1.023-3.117l0.4766 0.3086c-0.5469 0.7656-0.9023 1.789-0.9023 2.809 0 1.023 0.3555 2.047 0.9023 2.809" fill="#231f1f"/>
<path d="m387.4 131.9h-1.625v-0.5625h1.625v0.5625" fill="#231f1f"/>
<path d="m388.2 128.5 0.4766-0.3086c0.6172 0.8281 1.023 1.949 1.023 3.117s-0.4062 2.289-1.023 3.117l-0.4766-0.3086c0.5469-0.7617 0.9023-1.785 0.9023-2.809 0-1.02-0.3555-2.043-0.9023-2.809" fill="#231f1f"/>
<path d="m352.1 138.9c-0.7109 0-1.109 0.5703-1.109 1.199 0 0.6289 0.3984 1.207 1.109 1.207 0.7109 0 1.102-0.5781 1.102-1.207 0-0.6289-0.3906-1.199-1.102-1.199zm0 2.957c-1.02 0-1.789-0.7344-1.789-1.758 0-1.02 0.7695-1.742 1.789-1.742 1.012 0 1.793 0.7227 1.793 1.742 0 1.023-0.7812 1.758-1.793 1.758" fill="#231f1f"/>
<path d="m354.8 138.5h0.6211c0.01563 0.168 0.02734 0.4219 0.02734 0.5625h0.02344c0.1797-0.3867 0.5664-0.6523 1.016-0.6523 0.08984 0 0.1836 0.003907 0.2578 0.02734l-0.02734 0.6094c-0.08203-0.01953-0.1953-0.03516-0.3008-0.03516-0.6328 0-0.9336 0.5117-0.9336 1.062v1.746h-0.6562v-2.605c0-0.1758-0.007812-0.4961-0.02734-0.7148" fill="#231f1f"/>
<path d="m359.7 141.8h-0.6602v-3.32h0.6602zm-0.332-4.098c-0.2344 0-0.4297-0.1875-0.4297-0.4219s0.1953-0.4258 0.4297-0.4258c0.2383 0 0.4453 0.1836 0.4453 0.4258 0 0.2383-0.207 0.4219-0.4453 0.4219" fill="#231f1f"/>
<path d="m361.5 138.5c0.01172 0.168 0.02734 0.4062 0.02734 0.5469h0.01953c0.1641-0.3594 0.6055-0.6367 1.078-0.6367 0.8594 0 1.242 0.6094 1.242 1.352v2.059h-0.6602v-1.844c0-0.5391-0.1445-1.016-0.7539-1.016-0.5195 0-0.8906 0.4375-0.8906 1.094v1.766h-0.6562v-2.605c0-0.1758-0.007813-0.4961-0.03125-0.7148h0.625" fill="#231f1f"/>
<path d="m366.5 141.3c0.6719 0 1.121-0.5625 1.121-1.199s-0.4492-1.207-1.121-1.207c-0.7188 0-1.098 0.5781-1.098 1.199 0 0.625 0.3789 1.207 1.098 1.207zm-0.1094 0.5508c-1.023 0-1.676-0.7852-1.676-1.758 0-0.9805 0.6719-1.742 1.668-1.742 0.5391 0 0.9531 0.2656 1.184 0.5859h0.01562v-2.473h0.6562v5.297h-0.6367v-0.5273h-0.01562c-0.25 0.4023-0.7266 0.6172-1.195 0.6172" fill="#231f1f"/>
<path d="m371.8 139.8c-0.01563-0.5273-0.3242-0.9414-0.9336-0.9414-0.5664 0-1 0.4219-1.043 0.9414zm0.6562 0.4883h-2.633c0.02344 0.5703 0.4961 1.008 1.078 1.008 0.4492 0 0.7773-0.2227 0.9648-0.5039l0.4648 0.3711c-0.3555 0.4648-0.8398 0.6797-1.43 0.6797-1.008 0-1.75-0.6992-1.75-1.742 0-1.035 0.7422-1.758 1.715-1.758 0.9805 0 1.598 0.6641 1.598 1.723 0 0.07031 0 0.1445-0.007812 0.2227" fill="#231f1f"/>
<path d="m375 139h-0.8828v1.73c0 0.3984 0.1406 0.5586 0.4727 0.5586 0.1172 0 0.2695-0.02734 0.3828-0.08203l0.01953 0.5391c-0.1523 0.05469-0.3555 0.08984-0.5586 0.08984-0.6211 0-0.9648-0.3477-0.9648-1.035v-1.801h-0.6406v-0.5391h0.6406v-0.9531h0.6484v0.9531h0.8828v0.5391" fill="#231f1f"/>
<path d="m378.1 139.8c-0.01172-0.5273-0.3242-0.9414-0.9297-0.9414-0.5703 0-1.004 0.4219-1.043 0.9414zm0.6602 0.4883h-2.633c0.01953 0.5703 0.4961 1.008 1.078 1.008 0.4453 0 0.7734-0.2227 0.9648-0.5039l0.4609 0.3711c-0.3555 0.4648-0.8398 0.6797-1.426 0.6797-1.012 0-1.754-0.6992-1.754-1.742 0-1.035 0.7422-1.758 1.719-1.758s1.594 0.6641 1.594 1.723c0 0.07031 0 0.1445-0.003906 0.2227" fill="#231f1f"/>
<path d="m379.7 138.5h0.625c0.01562 0.168 0.02734 0.4219 0.02734 0.5625h0.01953c0.1836-0.3867 0.5703-0.6523 1.02-0.6523 0.08984 0 0.1797 0.003907 0.2578 0.02734l-0.02734 0.6094c-0.08594-0.01953-0.1953-0.03516-0.3047-0.03516-0.6289 0-0.9297 0.5117-0.9297 1.062v1.746h-0.6602v-2.605c0-0.1758-0.003906-0.4961-0.02734-0.7148" fill="#231f1f"/>
<path d="m384 138.4c0.4414 0 0.8242 0.1953 1.027 0.6641 0.2266-0.4258 0.6602-0.6641 1.129-0.6641 0.8555 0 1.238 0.6094 1.238 1.352v2.059h-0.6562v-1.844c0-0.5391-0.1602-1.016-0.7344-1.016-0.6055 0-0.8398 0.5469-0.8398 1.066v1.793h-0.6602v-1.977c0-0.5156-0.1719-0.8828-0.6992-0.8828-0.4844 0-0.8477 0.4375-0.8477 1.094v1.766h-0.6562v-2.605c0-0.1758-0.007813-0.4961-0.03125-0.7148h0.625c0.01172 0.168 0.02734 0.4062 0.02734 0.5469h0.01953c0.168-0.3516 0.5547-0.6367 1.059-0.6367" fill="#231f1f"/>
<path d="m389.1 141.8h-0.6602v-3.32h0.6602zm-0.3281-4.098c-0.2383 0-0.4336-0.1875-0.4336-0.4219s0.1953-0.4258 0.4336-0.4258c0.2383 0 0.4414 0.1836 0.4414 0.4258 0 0.2383-0.2031 0.4219-0.4414 0.4219" fill="#231f1f"/>
<path d="m390.9 138.5c0.01172 0.168 0.02344 0.4062 0.02344 0.5469h0.02344c0.1602-0.3594 0.6016-0.6367 1.078-0.6367 0.8555 0 1.238 0.6094 1.238 1.352v2.059h-0.6562v-1.844c0-0.5391-0.1484-1.016-0.7578-1.016-0.5195 0-0.8906 0.4375-0.8906 1.094v1.766h-0.6562v-2.605c0-0.1758-0.007812-0.4961-0.02734-0.7148h0.625" fill="#231f1f"/>
<path d="m396.3 140.2c-0.6523 0-1.48 0.07031-1.48 0.6289 0 0.3906 0.3516 0.5195 0.6797 0.5195 0.6172 0 0.9609-0.4141 0.9609-0.9766v-0.1719zm0.1602-0.5703c0-0.4883-0.3281-0.7266-0.8203-0.7266-0.3711 0-0.7188 0.1602-0.9453 0.3867l-0.3516-0.4219c0.3242-0.3086 0.8203-0.4961 1.359-0.4961 0.9531 0 1.387 0.5664 1.387 1.301v1.449c0 0.2266 0.01562 0.5 0.05078 0.6602h-0.5977c-0.03125-0.1484-0.05469-0.3242-0.05469-0.4766h-0.01953c-0.2422 0.3555-0.6172 0.5586-1.117 0.5586-0.5234 0-1.203-0.2578-1.203-1.02 0-1.004 1.191-1.121 2.312-1.121v-0.09375" fill="#231f1f"/>
<path d="m399.7 139h-0.8828v1.73c0 0.3984 0.1406 0.5586 0.4727 0.5586 0.1172 0 0.2695-0.02734 0.3828-0.08203l0.01953 0.5391c-0.1523 0.05469-0.3555 0.08984-0.5586 0.08984-0.6211 0-0.9648-0.3477-0.9648-1.035v-1.801h-0.6406v-0.5391h0.6406v-0.9531h0.6484v0.9531h0.8828v0.5391" fill="#231f1f"/>
<path d="m402.8 139.8c-0.01562-0.5273-0.3242-0.9414-0.9297-0.9414-0.5703 0-1.004 0.4219-1.047 0.9414zm0.6602 0.4883h-2.637c0.01953 0.5703 0.5 1.008 1.082 1.008 0.4453 0 0.7734-0.2227 0.9648-0.5039l0.4609 0.3711c-0.3555 0.4648-0.8398 0.6797-1.426 0.6797-1.012 0-1.754-0.6992-1.754-1.742 0-1.035 0.7422-1.758 1.719-1.758 0.9766 0 1.594 0.6641 1.594 1.723 0 0.07031 0 0.1445-0.003907 0.2227" fill="#231f1f"/>
<path d="m365.3 145.2h0.6914v2.07h2.508v-2.07h0.6992v4.957h-0.6992v-2.27h-2.508v2.27h-0.6914v-4.957" fill="#231f1f"/>
<path d="m371.1 150.2h-0.6914v-4.957h0.6914v4.957" fill="#231f1f"/>
<path d="m373.9 149.3h0.02344l1.492-4.062h0.75l-1.945 4.957h-0.6484l-1.93-4.957h0.7695l1.488 4.062" fill="#231f1f"/>
<path d="m378 148.7h-1.625v-0.5586h1.625v0.5586" fill="#231f1f"/>
<path d="m381.9 150.2h-3.234v-0.6484l1.973-1.961c0.3008-0.3125 0.5469-0.6328 0.5469-1.051 0-0.5195-0.3945-0.8555-0.8828-0.8555-0.5039 0-0.8477 0.3633-0.9297 0.8594l-0.668-0.1094c0.1211-0.7578 0.7578-1.32 1.605-1.32 0.8242 0 1.566 0.4844 1.566 1.41 0 0.6367-0.3633 1.07-0.7969 1.5l-1.609 1.566h2.43v0.6094" fill="#231f1f"/>
<path d="m385.9 151-0.4766 0.3086c-0.6172-0.8281-1.023-1.949-1.023-3.117 0-1.172 0.4062-2.289 1.023-3.117l0.4766 0.3086c-0.5469 0.7617-0.9023 1.785-0.9023 2.809s0.3555 2.043 0.9023 2.809" fill="#231f1f"/>
<path d="m388.3 148.7h-1.625v-0.5586h1.625v0.5586" fill="#231f1f"/>
<path d="m389.1 145.3 0.4766-0.3086c0.6172 0.8281 1.023 1.945 1.023 3.117 0 1.168-0.4062 2.289-1.023 3.117l-0.4766-0.3086c0.5469-0.7656 0.9023-1.785 0.9023-2.809s-0.3555-2.047-0.9023-2.809" fill="#231f1f"/>
<path d="m377.6 122c-0.6328-1.703-1.711-3.816-2.855-5.129l2.855 1.031 2.852-1.031c-1.141 1.312-2.219 3.426-2.852 5.129" fill="#231f1f"/>
<path d="m268.7 122c-0.6289-1.703-1.711-3.816-2.852-5.129l2.852 1.031 2.855-1.031c-1.145 1.312-2.223 3.426-2.855 5.129" fill="#231f1f"/>
<path transform="matrix(.1 0 0 -.1 0 243.1)" d="m2687 1364v-110.2" fill="none" stroke="#231f1f" stroke-width="5"/>
<path transform="matrix(.1 0 0 -.1 0 243.1)" d="m1596 1364v-110.2" fill="none" stroke="#231f1f" stroke-width="5"/>
</svg>
