<?xml version="1.0" encoding="UTF-8"?>
<svg width="466.8pt" height="353.6pt" version="1.1" viewBox="0 0 466.8 353.6" xmlns="http://www.w3.org/2000/svg">
<defs>
<clipPath id="d">
<path d="m316 77h150.8v2h-150.8z"/>
</clipPath>
<clipPath id="c">
<path d="m316 197h1v156.6h-1z"/>
</clipPath>
<clipPath id="b">
<path d="m316 270h150.8v2h-150.8z"/>
</clipPath>
<clipPath id="a">
<path d="m465 51h1.75v4h-1.75z"/>
</clipPath>
</defs>
<g clip-path="url(#d)">
<path transform="matrix(.1 0 0 -.1 0 353.6)" d="m3167 2756h1498" fill="none" stroke="#231f1f" stroke-width="5"/>
</g>
<path transform="matrix(.1 0 0 -.1 0 353.6)" d="m3378 2756s-4.297 110.1 29.41 224.8c36.52 124.4 93.2 146 128.2 22.7 0 0 30.31-93.44 97.85-151.7 59.88-51.6 152.1-70 255.5-96.13 0 0-76.84-149.1-191.6-260.5-127.1-123.4-283.4 26.64-311.1 211.8z" fill="none" stroke="#231f1f" stroke-width="10"/>
<path transform="matrix(.1 0 0 -.1 0 353.6)" d="m3404 2968s56.68 310 158.7 13.32c0 0 33.36-117 154.6-161.3 133.6-48.79 26.64-10.31 171.6-64.8" fill="none" stroke="#231f1f" stroke-dasharray="21.9686,21.9686" stroke-width="10"/>
<path d="m362.6 146.8c-0.4375 0.5977-1.164 1.023-2.156 1.023-1.734 0-2.984-1.238-2.984-2.984 0-1.766 1.297-2.965 3.016-2.965 0.7773 0 1.617 0.3047 2.031 0.8789l-0.625 0.4805c-0.2695-0.3828-0.8242-0.6641-1.406-0.6641-1.312 0-2.152 1.031-2.152 2.27 0 1.273 0.8242 2.281 2.129 2.281 0.6328 0 1.184-0.2656 1.52-0.7539l0.6289 0.4336" fill="#231f1f"/>
<path d="m366 142.6c-1.301 0-2.133 1.031-2.133 2.27 0 1.266 0.8398 2.273 2.133 2.273 1.312 0 2.152-1.008 2.152-2.273 0-1.238-0.832-2.27-2.152-2.27zm0 5.254c-1.719 0-2.988-1.238-2.988-2.984 0-1.766 1.27-2.965 2.988-2.965 1.73 0 3.008 1.199 3.008 2.965 0 1.746-1.277 2.984-3.008 2.984" fill="#231f1f"/>
<path d="m370.8 144.6h0.8359c0.7773 0 1.32-0.2539 1.32-0.9258 0-0.6797-0.5586-0.9023-1.305-0.9023h-0.8516zm-0.793-2.5h1.727c1.223 0 2.023 0.4727 2.023 1.574 0 1.137-0.8906 1.598-2.062 1.598h-0.8945v2.488h-0.793v-5.66" fill="#231f1f"/>
<path d="m375.5 147h0.9922c1.367 0 2.367-0.7852 2.367-2.137 0-1.398-1-2.141-2.367-2.141h-0.9922zm-0.7891-4.965h1.941c1.449 0 3.055 0.8242 3.055 2.828 0 1.938-1.605 2.832-3.055 2.832h-1.941v-5.66" fill="#231f1f"/>
<path d="m271.5 37.5h2.957v0.707h-3.75v-5.66h3.633v0.6953h-2.84v1.695h2.672v0.6797h-2.672v1.883" fill="#231f1f"/>
<path d="m276.3 36.21-1.383-1.801h0.9258l0.9297 1.305 0.9336-1.305h0.8789l-1.367 1.793 1.527 2h-0.9336l-1.055-1.48-1.074 1.48h-0.9023l1.52-1.992" fill="#231f1f"/>
<path d="m281.4 34.93c-0.7695 0-1.277 0.6445-1.277 1.375 0 0.7266 0.5078 1.367 1.277 1.367 0.8242 0 1.266-0.6641 1.266-1.375 0-0.7148-0.4414-1.367-1.266-1.367zm-1.23 5.188h-0.7539v-5.711h0.7383v0.5938h0.02344c0.2461-0.3984 0.7422-0.6953 1.367-0.6953 1.125 0 1.895 0.8711 1.895 1.992 0 1.109-0.7422 2.004-1.91 2.004-0.5352 0-1.055-0.2461-1.336-0.6719h-0.02344v2.488" fill="#231f1f"/>
<path d="m285.1 38.2h-0.7539v-3.793h0.7539zm-0.375-4.68c-0.2734 0-0.4961-0.2148-0.4961-0.4766 0-0.2734 0.2227-0.4883 0.4961-0.4883 0.2695 0 0.5 0.207 0.5 0.4883 0 0.2695-0.2305 0.4766-0.5 0.4766" fill="#231f1f"/>
<path d="m286.3 34.41h0.7109c0.01562 0.1953 0.03516 0.4805 0.03516 0.6406h0.02344c0.207-0.4375 0.6445-0.7422 1.156-0.7422 0.1055 0 0.2109 0.007812 0.2969 0.03125l-0.03125 0.6953c-0.09766-0.02344-0.2227-0.03906-0.3438-0.03906-0.7188 0-1.062 0.582-1.062 1.215v1.992h-0.7539v-2.977c0-0.1992-0.007812-0.5664-0.03125-0.8164" fill="#231f1f"/>
<path d="m291.4 36.39c-0.7422 0-1.688 0.08203-1.688 0.7188 0 0.4492 0.3984 0.5938 0.7773 0.5938 0.7031 0 1.094-0.4727 1.094-1.113v-0.1992zm0.1836-0.6484c0-0.5586-0.375-0.832-0.9375-0.832-0.4219 0-0.8203 0.1875-1.078 0.4414l-0.3984-0.4805c0.3672-0.3516 0.9336-0.5664 1.551-0.5664 1.086 0 1.582 0.6484 1.582 1.488v1.652c0 0.2578 0.01562 0.5703 0.05469 0.7539h-0.6758c-0.04297-0.168-0.06641-0.3672-0.06641-0.543h-0.02344c-0.2734 0.4062-0.7031 0.6367-1.27 0.6367-0.6016 0-1.379-0.293-1.379-1.164 0-1.145 1.359-1.281 2.641-1.281v-0.1055" fill="#231f1f"/>
<path d="m295.3 35.03h-1.008v1.977c0 0.4531 0.1602 0.6367 0.5352 0.6367 0.1367 0 0.3125-0.03125 0.4375-0.09375l0.02734 0.6133c-0.1797 0.06641-0.4102 0.1055-0.6406 0.1055-0.7109 0-1.105-0.3984-1.105-1.184v-2.055h-0.7266v-0.6172h0.7266v-1.086h0.7461v1.086h1.008v0.6172" fill="#231f1f"/>
<path d="m297.8 34.93c-0.8047 0-1.262 0.6445-1.262 1.367 0 0.7188 0.457 1.375 1.262 1.375 0.8164 0 1.266-0.6562 1.266-1.375 0-0.7227-0.4492-1.367-1.266-1.367zm0 3.371c-1.156 0-2.035-0.8398-2.035-2.004 0-1.168 0.8789-1.992 2.035-1.992 1.16 0 2.047 0.8242 2.047 1.992 0 1.164-0.8867 2.004-2.047 2.004" fill="#231f1f"/>
<path d="m300.8 34.41h0.7109c0.01562 0.1953 0.03125 0.4805 0.03125 0.6406h0.02344c0.207-0.4375 0.6484-0.7422 1.16-0.7422 0.1016 0 0.207 0.007812 0.293 0.03125l-0.03125 0.6953c-0.09375-0.02344-0.2227-0.03906-0.3438-0.03906-0.7188 0-1.062 0.582-1.062 1.215v1.992h-0.75v-2.977c0-0.1992-0.007812-0.5664-0.03125-0.8164" fill="#231f1f"/>
<path d="m305.1 37.39h0.01562l1.047-2.977h0.8008l-1.84 4.688c-0.2461 0.6328-0.5664 1.023-1.312 1.023-0.1602 0-0.3281-0.01562-0.4961-0.05469l0.07422-0.6641c0.1211 0.03906 0.2578 0.0625 0.375 0.0625 0.3906 0 0.543-0.2227 0.7031-0.6289l0.2422-0.6328-1.625-3.793h0.8398l1.176 2.977" fill="#231f1f"/>
<path d="m281.3 47.8h-0.793v-5.66h3.535v0.6953h-2.742v1.762h2.566v0.6797h-2.566v2.523" fill="#231f1f"/>
<path d="m285.7 47.8h-0.7539v-6.043h0.7539v6.043" fill="#231f1f"/>
<path d="m288.7 44.53c-0.8086 0-1.262 0.6484-1.262 1.367s0.4531 1.375 1.262 1.375c0.8164 0 1.262-0.6562 1.262-1.375s-0.4453-1.367-1.262-1.367zm0 3.375c-1.16 0-2.039-0.8398-2.039-2.008 0-1.168 0.8789-1.992 2.039-1.992s2.047 0.8242 2.047 1.992c0 1.168-0.8867 2.008-2.047 2.008" fill="#231f1f"/>
<path d="m292 44.01 0.8555 2.895h0.01562l0.9023-2.895h0.793l0.918 2.895h0.01562l0.8555-2.895h0.793l-1.254 3.789h-0.7852l-0.9336-2.844h-0.01563l-0.9297 2.844h-0.7852l-1.262-3.789h0.8164" fill="#231f1f"/>
<path d="m270.8 123.3h-0.793v-5.66h0.793v5.66" fill="#231f1f"/>
<path d="m272.7 119.5c0.01562 0.1914 0.03516 0.4648 0.03516 0.625h0.02344c0.1836-0.4102 0.6875-0.7266 1.23-0.7266 0.9727 0 1.414 0.6953 1.414 1.543v2.348h-0.75v-2.102c0-0.6172-0.168-1.16-0.8633-1.16-0.5938 0-1.016 0.4961-1.016 1.25v2.012h-0.7539v-2.973c0-0.1992-0.007813-0.5664-0.03125-0.8164h0.7109" fill="#231f1f"/>
<path d="m278.7 120.4c-0.168-0.2734-0.4961-0.4727-0.8828-0.4727-0.3438 0-0.7031 0.1367-0.7031 0.4961 0 0.3203 0.2891 0.4375 0.8633 0.5664 0.7227 0.1602 1.273 0.457 1.273 1.121 0 0.8945-0.7422 1.223-1.512 1.223-0.5742 0-1.168-0.2227-1.527-0.6797l0.5352-0.457c0.1992 0.2969 0.5859 0.5273 1.008 0.5273 0.375 0 0.7539-0.1328 0.7539-0.5508 0-0.3516-0.3438-0.4805-0.9922-0.6289-0.5039-0.1211-1.105-0.3398-1.105-1.051 0-0.8125 0.7109-1.156 1.434-1.156 0.5352 0 1.102 0.2148 1.375 0.6211l-0.5195 0.4414" fill="#231f1f"/>
<path d="m282.1 120c-0.7656 0-1.277 0.6484-1.277 1.375s0.5117 1.367 1.277 1.367c0.8242 0 1.266-0.6641 1.266-1.375 0-0.7109-0.4414-1.367-1.266-1.367zm-1.23 5.191h-0.7539v-5.711h0.7383v0.5938h0.02344c0.2461-0.4023 0.7422-0.6953 1.367-0.6953 1.129 0 1.895 0.8672 1.895 1.988 0 1.113-0.7422 2.008-1.91 2.008-0.5352 0-1.055-0.2461-1.336-0.6719h-0.02344v2.488" fill="#231f1f"/>
<path d="m285.8 123.3h-0.75v-3.789h0.75zm-0.375-4.676c-0.2734 0-0.4961-0.2148-0.4961-0.4805 0-0.2695 0.2227-0.4883 0.4961-0.4883 0.2695 0 0.5039 0.2109 0.5039 0.4883 0 0.2734-0.2344 0.4805-0.5039 0.4805" fill="#231f1f"/>
<path d="m287 119.5h0.7109c0.01562 0.1914 0.03125 0.4805 0.03125 0.6406h0.02734c0.207-0.4414 0.6445-0.7422 1.156-0.7422 0.1055 0 0.2109 0.007813 0.2969 0.03125l-0.03125 0.6953c-0.09766-0.02734-0.2227-0.03906-0.3438-0.03906-0.7188 0-1.062 0.582-1.062 1.215v1.988h-0.7539v-2.973c0-0.1992-0.007813-0.5664-0.03125-0.8164" fill="#231f1f"/>
<path d="m292.1 121.5c-0.7422 0-1.688 0.07812-1.688 0.7188 0 0.4492 0.3984 0.5898 0.7773 0.5898 0.7031 0 1.094-0.4688 1.094-1.109v-0.1992zm0.1836-0.6484c0-0.5586-0.375-0.832-0.9375-0.832-0.4219 0-0.8203 0.1836-1.078 0.4414l-0.3984-0.4805c0.3672-0.3516 0.9336-0.5664 1.551-0.5664 1.086 0 1.582 0.6445 1.582 1.484v1.656c0 0.2539 0.01562 0.5664 0.05469 0.75h-0.6758c-0.04297-0.168-0.06641-0.3672-0.06641-0.543h-0.02344c-0.2734 0.4102-0.7031 0.6406-1.27 0.6406-0.6016 0-1.379-0.2969-1.379-1.168 0-1.145 1.363-1.277 2.641-1.277v-0.1055" fill="#231f1f"/>
<path d="m296 120.1h-1.008v1.973c0 0.457 0.1602 0.6406 0.5352 0.6406 0.1367 0 0.3125-0.03125 0.4375-0.09766l0.02344 0.6172c-0.1758 0.06641-0.4062 0.1055-0.6367 0.1055-0.7109 0-1.105-0.4023-1.105-1.184v-2.055h-0.7266v-0.6172h0.7266v-1.086h0.7461v1.086h1.008v0.6172" fill="#231f1f"/>
<path d="m298.5 120c-0.8047 0-1.262 0.6484-1.262 1.367s0.457 1.375 1.262 1.375c0.8164 0 1.266-0.6562 1.266-1.375s-0.4492-1.367-1.266-1.367zm0 3.375c-1.156 0-2.039-0.8398-2.039-2.008 0-1.168 0.8828-1.988 2.039-1.988 1.16 0 2.047 0.8203 2.047 1.988 0 1.168-0.8867 2.008-2.047 2.008" fill="#231f1f"/>
<path d="m301.5 119.5h0.7109c0.01562 0.1914 0.03125 0.4805 0.03125 0.6406h0.02344c0.207-0.4414 0.6484-0.7422 1.16-0.7422 0.1016 0 0.207 0.007813 0.293 0.03125l-0.03125 0.6953c-0.09375-0.02734-0.2227-0.03906-0.3438-0.03906-0.7188 0-1.062 0.582-1.062 1.215v1.988h-0.75v-2.973c0-0.1992-0.007812-0.5664-0.03125-0.8164" fill="#231f1f"/>
<path d="m305.8 122.5h0.01562l1.047-2.973h0.8008l-1.84 4.684c-0.2461 0.6328-0.5664 1.027-1.309 1.027-0.1602 0-0.3281-0.01562-0.4961-0.05859l0.07031-0.6641c0.1211 0.04297 0.2578 0.06641 0.375 0.06641 0.3945 0 0.5469-0.2266 0.7031-0.6328l0.2422-0.6328-1.625-3.789h0.8398l1.176 2.973" fill="#231f1f"/>
<path d="m281.3 132.9h-0.793v-5.66h3.535v0.6953h-2.742v1.758h2.566v0.6797h-2.566v2.527" fill="#231f1f"/>
<path d="m285.7 132.9h-0.7539v-6.043h0.7539v6.043" fill="#231f1f"/>
<path d="m288.7 129.6c-0.8086 0-1.262 0.6445-1.262 1.367 0 0.7188 0.4531 1.375 1.262 1.375 0.8164 0 1.262-0.6562 1.262-1.375 0-0.7227-0.4453-1.367-1.262-1.367zm0 3.375c-1.16 0-2.039-0.8398-2.039-2.008s0.8789-1.992 2.039-1.992 2.047 0.8242 2.047 1.992-0.8867 2.008-2.047 2.008" fill="#231f1f"/>
<path d="m292 129.1 0.8555 2.895h0.01562l0.9023-2.895h0.793l0.918 2.895h0.01562l0.8555-2.895h0.793l-1.254 3.789h-0.7852l-0.9336-2.848h-0.01563l-0.9297 2.848h-0.7852l-1.262-3.789h0.8164" fill="#231f1f"/>
<path d="m88.09 321.9h2.117l-1.055-2.656zm-0.8477 2.086h-0.8828l2.457-5.66h0.7188l2.43 5.66h-0.8945l-0.5742-1.391h-2.688l-0.5664 1.391" fill="#231f1f"/>
<path d="m94.62 321.2c-0.168-0.2734-0.4961-0.4727-0.8828-0.4727-0.3398 0-0.7031 0.1367-0.7031 0.4961 0 0.3203 0.2891 0.4375 0.8672 0.5664 0.7188 0.1602 1.27 0.457 1.27 1.121 0 0.8945-0.7461 1.223-1.512 1.223-0.5742 0-1.168-0.2266-1.527-0.6797l0.5352-0.457c0.1992 0.2969 0.5859 0.5273 1.008 0.5273 0.375 0 0.75-0.1367 0.75-0.5508 0-0.3516-0.3398-0.4805-0.9883-0.6328-0.5039-0.1211-1.105-0.3359-1.105-1.047 0-0.8164 0.7109-1.16 1.434-1.16 0.5352 0 1.102 0.2188 1.375 0.625l-0.5195 0.4414" fill="#231f1f"/>
<path d="m97.9 320.8h-1.008v1.973c0 0.457 0.1602 0.6406 0.5352 0.6406 0.1367 0 0.3125-0.03125 0.4414-0.09766l0.02344 0.6172c-0.1758 0.0625-0.4062 0.1055-0.6367 0.1055-0.7148 0-1.105-0.4023-1.105-1.184v-2.055h-0.7266v-0.6172h0.7266v-1.086h0.7422v1.086h1.008v0.6172" fill="#231f1f"/>
<path d="m99.38 320.8c0.1758-0.375 0.6562-0.6797 1.199-0.6797 0.9766 0 1.418 0.6953 1.418 1.543v2.352h-0.7539v-2.094c0-0.6172-0.1602-1.16-0.8555-1.16-0.5898 0-1.023 0.4961-1.023 1.25v2.004h-0.75v-6.043h0.75v2.828h0.01562" fill="#231f1f"/>
<path d="m105.1 320.1c0.5039 0 0.9414 0.2266 1.176 0.7617 0.2539-0.4883 0.75-0.7617 1.285-0.7617 0.9766 0 1.414 0.6953 1.414 1.543v2.352h-0.75v-2.102c0-0.6172-0.1836-1.16-0.8398-1.16-0.6875 0-0.957 0.625-0.957 1.215v2.047h-0.7539v-2.254c0-0.5898-0.1992-1.008-0.8008-1.008-0.5508 0-0.9648 0.4961-0.9648 1.246v2.016h-0.7539v-2.973c0-0.1992-0.007812-0.5664-0.03125-0.8164h0.7109c0.01562 0.1914 0.03125 0.4648 0.03125 0.625h0.02734c0.1914-0.4023 0.6289-0.7305 1.207-0.7305" fill="#231f1f"/>
<path d="m112.4 322.2c-0.7422 0-1.688 0.08203-1.688 0.7227 0 0.4453 0.4023 0.5898 0.7773 0.5898 0.7031 0 1.094-0.4688 1.094-1.109v-0.2031zm0.1836-0.6445c0-0.5625-0.375-0.832-0.9336-0.832-0.4258 0-0.8242 0.1836-1.082 0.4414l-0.3984-0.4805c0.3672-0.3516 0.9375-0.5703 1.551-0.5703 1.086 0 1.582 0.6484 1.582 1.488v1.656c0 0.2539 0.01562 0.5664 0.05859 0.75h-0.6797c-0.04297-0.168-0.06641-0.3672-0.06641-0.543h-0.02344c-0.2695 0.4102-0.7031 0.6406-1.27 0.6406-0.6016 0-1.375-0.2969-1.375-1.168 0-1.145 1.359-1.281 2.637-1.281v-0.1016" fill="#231f1f"/>
<path transform="matrix(.1 0 0 -.1 0 353.6)" d="m455 1580v-1561" fill="none" stroke="#231f1f" stroke-width="5"/>
<path transform="matrix(.1 0 0 -.1 0 353.6)" d="m455 3536v-1561" fill="none" stroke="#231f1f" stroke-width="5"/>
<path transform="matrix(.1 0 0 -.1 0 353.6)" d="m3167 3536v-1561" fill="none" stroke="#231f1f" stroke-width="5"/>
<path transform="matrix(.1 0 0 -.1 0 353.6)" d="m455 783.7h1504" fill="none" stroke="#231f1f" stroke-width="5"/>
<path transform="matrix(.1 0 0 -.1 0 353.6)" d="m652.1 780.7c5.938 142.5 42.93 363.1 57.66 427.8 42.97 188.3 106.3 185 204.3-7.617 54.88-107.8 170.3-327.4 262-417.1" fill="none" stroke="#231f1f" stroke-dasharray="20.2348,20.2348,20.2348,20.2348,20.2348,20.2348" stroke-width="10"/>
<path d="m1.492 231.3h2.957v0.7031h-3.75v-5.66h3.633v0.6953h-2.84v1.695h2.672v0.6797h-2.672v1.887" fill="#231f1f"/>
<path d="m6.316 230-1.383-1.801h0.9258l0.9297 1.305 0.9336-1.305h0.8789l-1.367 1.793 1.527 1.996h-0.9336l-1.059-1.477-1.07 1.477h-0.9023l1.52-1.988" fill="#231f1f"/>
<path d="m11.38 228.7c-0.7695 0-1.281 0.6484-1.281 1.375 0 0.7266 0.5117 1.367 1.281 1.367 0.8242 0 1.266-0.6641 1.266-1.375 0-0.7109-0.4414-1.367-1.266-1.367zm-1.23 5.191h-0.7539v-5.711h0.7383v0.5898h0.02344c0.2461-0.3984 0.7422-0.6953 1.367-0.6953 1.129 0 1.895 0.8711 1.895 1.992 0 1.113-0.7422 2.008-1.91 2.008-0.5352 0-1.055-0.25-1.336-0.6719h-0.02344v2.488" fill="#231f1f"/>
<path d="m15.15 232h-0.7539v-3.789h0.7539zm-0.375-4.676c-0.2734 0-0.4961-0.2148-0.4961-0.4805 0-0.2734 0.2227-0.4883 0.4961-0.4883 0.2695 0 0.5039 0.207 0.5039 0.4883 0 0.2734-0.2344 0.4805-0.5039 0.4805" fill="#231f1f"/>
<path d="m16.35 228.2h0.7109c0.01562 0.1914 0.03516 0.4805 0.03516 0.6406h0.02344c0.207-0.4414 0.6445-0.7461 1.156-0.7461 0.1055 0 0.2109 0.01172 0.2969 0.03516l-0.03125 0.6953c-0.09766-0.02734-0.2227-0.03906-0.3438-0.03906-0.7188 0-1.062 0.582-1.062 1.215v1.988h-0.7539v-2.973c0-0.1992-0.007812-0.5664-0.03125-0.8164" fill="#231f1f"/>
<path d="m21.37 230.2c-0.7422 0-1.688 0.07813-1.688 0.7188 0 0.4453 0.3984 0.5898 0.7773 0.5898 0.7031 0 1.094-0.4688 1.094-1.109v-0.1992zm0.1836-0.6484c0-0.5625-0.375-0.832-0.9375-0.832-0.4219 0-0.8203 0.1836-1.078 0.4375l-0.3984-0.4766c0.3672-0.3555 0.9336-0.5703 1.551-0.5703 1.086 0 1.582 0.6484 1.582 1.488v1.656c0 0.2539 0.01562 0.5664 0.05859 0.75h-0.6797c-0.04297-0.168-0.06641-0.3672-0.06641-0.543h-0.02344c-0.2734 0.4102-0.7031 0.6406-1.27 0.6406-0.6016 0-1.379-0.2969-1.379-1.168 0-1.145 1.363-1.281 2.641-1.281v-0.1016" fill="#231f1f"/>
<path d="m25.3 228.8h-1.004v1.973c0 0.457 0.1602 0.6406 0.5352 0.6406 0.1367 0 0.3125-0.03125 0.4375-0.09766l0.02344 0.6172c-0.1758 0.0625-0.4062 0.1055-0.6367 0.1055-0.7109 0-1.105-0.4023-1.105-1.184v-2.055h-0.7266v-0.6172h0.7266v-1.086h0.7461v1.086h1.004v0.6172" fill="#231f1f"/>
<path d="m27.79 228.7c-0.8047 0-1.262 0.6484-1.262 1.367s0.457 1.375 1.262 1.375c0.8164 0 1.266-0.6562 1.266-1.375s-0.4492-1.367-1.266-1.367zm0 3.375c-1.156 0-2.035-0.8398-2.035-2.008 0-1.168 0.8789-1.992 2.035-1.992 1.16 0 2.047 0.8242 2.047 1.992 0 1.168-0.8867 2.008-2.047 2.008" fill="#231f1f"/>
<path d="m30.77 228.2h0.7109c0.01562 0.1914 0.03125 0.4805 0.03125 0.6406h0.02344c0.207-0.4414 0.6484-0.7461 1.16-0.7461 0.1016 0 0.207 0.01172 0.293 0.03516l-0.03125 0.6953c-0.09375-0.02734-0.2227-0.03906-0.3438-0.03906-0.7188 0-1.062 0.582-1.062 1.215v1.988h-0.75v-2.973c0-0.1992-0.007813-0.5664-0.03125-0.8164" fill="#231f1f"/>
<path d="m35.06 231.2h0.01562l1.047-2.973h0.8008l-1.84 4.684c-0.2461 0.6328-0.5664 1.027-1.312 1.027-0.1602 0-0.3242-0.01953-0.4922-0.05859l0.07031-0.6641c0.1211 0.04297 0.2539 0.06641 0.375 0.06641 0.3906 0 0.543-0.2266 0.7031-0.6328l0.2422-0.6328-1.625-3.789h0.8398l1.176 2.973" fill="#231f1f"/>
<path d="m11.27 241.6h-0.793v-5.66h3.535v0.6953h-2.742v1.758h2.566v0.6797h-2.566v2.527" fill="#231f1f"/>
<path d="m15.66 241.6h-0.7539v-6.047h0.7539v6.047" fill="#231f1f"/>
<path d="m18.69 238.3c-0.8086 0-1.266 0.6445-1.266 1.367 0 0.7188 0.457 1.375 1.266 1.375 0.8164 0 1.262-0.6562 1.262-1.375 0-0.7227-0.4453-1.367-1.262-1.367zm0 3.375c-1.16 0-2.039-0.8398-2.039-2.008s0.8789-1.992 2.039-1.992 2.047 0.8242 2.047 1.992-0.8867 2.008-2.047 2.008" fill="#231f1f"/>
<path d="m21.98 237.8 0.8555 2.895h0.01562l0.9023-2.895h0.793l0.918 2.895h0.01562l0.8555-2.895h0.793l-1.254 3.789h-0.7852l-0.9336-2.848h-0.01562l-0.9297 2.848h-0.7852l-1.262-3.789h0.8164" fill="#231f1f"/>
<path d="m0.793 317h-0.793v-5.66h0.793v5.66" fill="#231f1f"/>
<path d="m2.727 313.2c0.01563 0.1953 0.03516 0.4648 0.03516 0.625h0.02344c0.1836-0.4062 0.6875-0.7266 1.23-0.7266 0.9727 0 1.414 0.6953 1.414 1.543v2.352h-0.75v-2.105c0-0.6133-0.168-1.156-0.8633-1.156-0.5938 0-1.016 0.4961-1.016 1.246v2.016h-0.7539v-2.977c0-0.1992-0.007813-0.5664-0.03125-0.8164h0.7109" fill="#231f1f"/>
<path d="m8.672 314.2c-0.168-0.2695-0.4961-0.4727-0.8789-0.4727-0.3438 0-0.707 0.1367-0.707 0.4961 0 0.3203 0.2891 0.4414 0.8633 0.5703 0.7227 0.1602 1.273 0.4531 1.273 1.117 0 0.8984-0.7422 1.223-1.512 1.223-0.5742 0-1.168-0.2227-1.527-0.6758l0.5352-0.457c0.1992 0.2969 0.5859 0.5273 1.008 0.5273 0.375 0 0.7539-0.1367 0.7539-0.5508 0-0.3516-0.3438-0.4805-0.9922-0.6328-0.5039-0.1211-1.105-0.3359-1.105-1.047 0-0.8164 0.7109-1.16 1.434-1.16 0.5352 0 1.102 0.2148 1.375 0.625l-0.5195 0.4375" fill="#231f1f"/>
<path d="m12.08 313.8c-0.7695 0-1.281 0.6484-1.281 1.375 0 0.7266 0.5117 1.367 1.281 1.367 0.8242 0 1.266-0.6641 1.266-1.375 0-0.7109-0.4414-1.367-1.266-1.367zm-1.23 5.188h-0.7539v-5.711h0.7383v0.5938h0.02344c0.2461-0.3984 0.7422-0.6953 1.367-0.6953 1.125 0 1.895 0.8711 1.895 1.992 0 1.109-0.7422 2.004-1.91 2.004-0.5352 0-1.055-0.2461-1.336-0.668h-0.02344v2.484" fill="#231f1f"/>
<path d="m15.85 317h-0.7539v-3.793h0.7539zm-0.375-4.68c-0.2734 0-0.4961-0.2148-0.4961-0.4766 0-0.2734 0.2227-0.4883 0.4961-0.4883 0.2695 0 0.5039 0.207 0.5039 0.4883 0 0.2695-0.2344 0.4766-0.5039 0.4766" fill="#231f1f"/>
<path d="m17.05 313.2h0.7109c0.01563 0.1953 0.03125 0.4805 0.03125 0.6406h0.02734c0.207-0.4375 0.6445-0.7422 1.156-0.7422 0.1055 0 0.2109 0.007813 0.2969 0.03125l-0.03125 0.6953c-0.09766-0.02344-0.2227-0.03906-0.3438-0.03906-0.7188 0-1.062 0.5859-1.062 1.215v1.992h-0.7539v-2.977c0-0.1992-0.007813-0.5664-0.03125-0.8164" fill="#231f1f"/>
<path d="m22.07 315.2c-0.7422 0-1.688 0.08203-1.688 0.7188 0 0.4492 0.3984 0.5938 0.7773 0.5938 0.7031 0 1.094-0.4727 1.094-1.109v-0.2031zm0.1836-0.6445c0-0.5625-0.375-0.832-0.9336-0.832-0.4258 0-0.8242 0.1836-1.082 0.4375l-0.3984-0.4805c0.3672-0.3516 0.9336-0.5664 1.551-0.5664 1.086 0 1.582 0.6484 1.582 1.488v1.652c0 0.2578 0.01562 0.5703 0.05859 0.7539h-0.6797c-0.04297-0.168-0.06641-0.3672-0.06641-0.543h-0.02344c-0.2734 0.4062-0.7031 0.6367-1.27 0.6367-0.6016 0-1.379-0.293-1.379-1.164 0-1.145 1.359-1.281 2.641-1.281v-0.1016" fill="#231f1f"/>
<path d="m26.01 313.9h-1.008v1.977c0 0.457 0.1602 0.6406 0.5352 0.6406 0.1367 0 0.3125-0.03516 0.4375-0.09766l0.02344 0.6133c-0.1719 0.06641-0.4062 0.1055-0.6367 0.1055-0.7109 0-1.105-0.3984-1.105-1.184v-2.055h-0.7266v-0.6172h0.7266v-1.086h0.7461v1.086h1.008v0.6172" fill="#231f1f"/>
<path d="m28.49 313.8c-0.8047 0-1.262 0.6484-1.262 1.367s0.457 1.375 1.262 1.375c0.8164 0 1.266-0.6562 1.266-1.375s-0.4492-1.367-1.266-1.367zm0 3.371c-1.156 0-2.035-0.8359-2.035-2.004s0.8789-1.992 2.035-1.992c1.16 0 2.047 0.8242 2.047 1.992s-0.8867 2.004-2.047 2.004" fill="#231f1f"/>
<path d="m31.47 313.2h0.7148c0.01562 0.1953 0.03125 0.4805 0.03125 0.6406h0.02344c0.207-0.4375 0.6484-0.7422 1.16-0.7422 0.1016 0 0.207 0.007813 0.2969 0.03125l-0.03516 0.6953c-0.09375-0.02344-0.2227-0.03906-0.3438-0.03906-0.7188 0-1.062 0.5859-1.062 1.215v1.992h-0.75v-2.977c0-0.1992-0.007812-0.5664-0.03516-0.8164" fill="#231f1f"/>
<path d="m35.76 316.2h0.01563l1.047-2.977h0.8008l-1.84 4.688c-0.2461 0.6328-0.5664 1.023-1.309 1.023-0.1602 0-0.3281-0.01562-0.4961-0.05469l0.07031-0.6641c0.1211 0.03906 0.2578 0.0625 0.375 0.0625 0.3945 0 0.5469-0.2227 0.7031-0.6289l0.2422-0.6328-1.625-3.793h0.8398l1.176 2.977" fill="#231f1f"/>
<path d="m11.27 326.6h-0.793v-5.664h3.535v0.6953h-2.742v1.762h2.566v0.6797h-2.566v2.527" fill="#231f1f"/>
<path d="m15.66 326.6h-0.7539v-6.047h0.7539v6.047" fill="#231f1f"/>
<path d="m18.69 323.4c-0.8086 0-1.266 0.6484-1.266 1.367s0.457 1.375 1.266 1.375c0.8164 0 1.262-0.6562 1.262-1.375s-0.4453-1.367-1.262-1.367zm0 3.375c-1.16 0-2.039-0.8398-2.039-2.008s0.8789-1.988 2.039-1.988 2.047 0.8203 2.047 1.988-0.8867 2.008-2.047 2.008" fill="#231f1f"/>
<path d="m21.98 322.8 0.8555 2.895h0.01562l0.9023-2.895h0.793l0.918 2.895h0.01562l0.8555-2.895h0.793l-1.254 3.793h-0.7852l-0.9336-2.848h-0.01562l-0.9297 2.848h-0.7852l-1.262-3.793h0.8164" fill="#231f1f"/>
<path d="m89.7 146.6h0.01562v-4.523h0.793v5.66h-1l-2.988-4.621h-0.01563v4.621h-0.793v-5.66h1.031l2.957 4.523" fill="#231f1f"/>
<path d="m93.56 144.5c-0.8086 0-1.266 0.6484-1.266 1.367s0.457 1.375 1.266 1.375c0.8164 0 1.262-0.6562 1.262-1.375s-0.4453-1.367-1.262-1.367zm0 3.371c-1.16 0-2.039-0.8359-2.039-2.004s0.8789-1.992 2.039-1.992 2.047 0.8242 2.047 1.992-0.8867 2.004-2.047 2.004" fill="#231f1f"/>
<path d="m96.54 143.9h0.7109c0.01562 0.1914 0.03125 0.4766 0.03125 0.6367h0.02344c0.2109-0.4375 0.6484-0.7422 1.16-0.7422 0.1055 0 0.207 0.007813 0.2969 0.03125l-0.03125 0.6953c-0.09766-0.02344-0.2227-0.03906-0.3438-0.03906-0.7227 0-1.062 0.5859-1.062 1.215v1.992h-0.7539v-2.973c0-0.2031-0.007812-0.5703-0.03125-0.8164" fill="#231f1f"/>
<path d="m101.3 143.8c0.5039 0 0.9453 0.2266 1.176 0.7617 0.2578-0.4883 0.7539-0.7617 1.289-0.7617 0.9766 0 1.414 0.6953 1.414 1.543v2.352h-0.75v-2.105c0-0.6133-0.1836-1.156-0.8398-1.156-0.6875 0-0.9609 0.625-0.9609 1.215v2.047h-0.75v-2.254c0-0.5938-0.1992-1.008-0.8008-1.008-0.5508 0-0.9688 0.4961-0.9688 1.246v2.016h-0.75v-2.973c0-0.2031-0.007813-0.5703-0.03125-0.8164h0.7109c0.01562 0.1914 0.03125 0.4609 0.03125 0.6211h0.02344c0.1914-0.3984 0.6328-0.7266 1.207-0.7266" fill="#231f1f"/>
<path d="m108.6 145.9c-0.7422 0-1.688 0.08203-1.688 0.7227 0 0.4453 0.3984 0.5898 0.7734 0.5898 0.707 0 1.098-0.4727 1.098-1.109v-0.2031zm0.1836-0.6445c0-0.5625-0.375-0.832-0.9375-0.832-0.4219 0-0.8203 0.1836-1.078 0.4375l-0.3984-0.4805c0.3672-0.3516 0.9336-0.5664 1.551-0.5664 1.086 0 1.582 0.6484 1.582 1.488v1.656c0 0.2539 0.01562 0.5664 0.05469 0.75h-0.6797c-0.03906-0.168-0.0625-0.3672-0.0625-0.543h-0.02344c-0.2734 0.4062-0.7031 0.6406-1.273 0.6406-0.5977 0-1.375-0.2969-1.375-1.168 0-1.145 1.359-1.281 2.641-1.281v-0.1016" fill="#231f1f"/>
<path d="m111.4 147.7h-0.75v-6.043h0.75v6.043" fill="#231f1f"/>
<path d="m54.1 85.48h-0.5938v-3.723h-1.359v-0.5234h3.316v0.5234h-1.363v3.723" fill="#231f1f"/>
<path d="m56.56 84.95h1.895v0.5273h-2.488v-4.246h0.5938v3.719" fill="#231f1f"/>
<path d="m62.61 84.82c-0.3281 0.4492-0.875 0.7695-1.617 0.7695-1.301 0-2.234-0.9297-2.234-2.238 0-1.324 0.9688-2.227 2.258-2.227 0.582 0 1.211 0.2305 1.523 0.6602l-0.4688 0.3594c-0.2031-0.2852-0.6172-0.4961-1.055-0.4961-0.9844 0-1.613 0.7734-1.613 1.703 0 0.9531 0.6172 1.707 1.598 1.707 0.4727 0 0.8867-0.1953 1.137-0.5625l0.4727 0.3242" fill="#231f1f"/>
<path d="m145.7 83.09h0.6836c0.5586 0 0.9961-0.1758 0.9961-0.6836 0-0.5117-0.4375-0.6719-0.9531-0.6719h-0.7266zm0 2.387h-0.5898v-4.246h1.359c0.8203 0 1.512 0.3125 1.512 1.176 0 0.625-0.4258 1.02-1.031 1.121l1.188 1.949h-0.7227l-1.078-1.891h-0.6367v1.891" fill="#231f1f"/>
<path d="m150.2 84.71h0.01953l1.277-3.48h0.6406l-1.668 4.246h-0.5508l-1.656-4.246h0.6602l1.277 3.48" fill="#231f1f"/>
<path d="m174.8 84.71h0.01953l1.277-3.48h0.6406l-1.664 4.246h-0.5547l-1.652-4.246h0.6562l1.277 3.48" fill="#231f1f"/>
<path d="m178.5 83.02c-0.6016 0-0.9453 0.4883-0.9453 1.027 0 0.5391 0.3438 1.031 0.9453 1.031 0.6133 0 0.9492-0.4922 0.9492-1.031 0-0.5391-0.3359-1.027-0.9492-1.027zm0 2.531c-0.8672 0-1.527-0.6289-1.527-1.504s0.6602-1.496 1.527-1.496c0.8711 0 1.535 0.6211 1.535 1.496s-0.6641 1.504-1.535 1.504" fill="#231f1f"/>
<path d="m181.3 85.48h-0.5664v-4.535h0.5664v4.535" fill="#231f1f"/>
<path d="m184.2 85.48c-0.01172-0.1445-0.02344-0.3477-0.02344-0.4688h-0.01172c-0.1445 0.3008-0.5156 0.5469-0.9297 0.5469-0.7305 0-1.062-0.5234-1.062-1.156v-1.766h0.5625v1.57c0 0.4688 0.1289 0.8789 0.6484 0.8789 0.4492 0 0.7617-0.3711 0.7617-0.9375v-1.512h0.5664v2.23c0 0.1523 0.003907 0.4258 0.02344 0.6133h-0.5352" fill="#231f1f"/>
<path d="m187.1 82.55c0.3789 0 0.707 0.168 0.8828 0.5703 0.1914-0.3633 0.5625-0.5703 0.9648-0.5703 0.7305 0 1.059 0.5234 1.059 1.16v1.762h-0.5625v-1.578c0-0.4609-0.1367-0.8672-0.6289-0.8672-0.5156 0-0.7188 0.4648-0.7188 0.9102v1.535h-0.5664v-1.691c0-0.4414-0.1484-0.7539-0.5977-0.7539-0.4141 0-0.7266 0.3711-0.7266 0.9336v1.512h-0.5625v-2.23c0-0.1523-0.007812-0.4258-0.02344-0.6133h0.5312c0.01172 0.1445 0.02734 0.3477 0.02734 0.4688h0.01562c0.1445-0.3008 0.4727-0.5469 0.9062-0.5469" fill="#231f1f"/>
<path d="m193 83.8c-0.01172-0.4531-0.2773-0.8047-0.8008-0.8047-0.4844 0-0.8555 0.3594-0.8906 0.8047zm0.5625 0.418h-2.254c0.01562 0.4883 0.4258 0.8633 0.9219 0.8633 0.3828 0 0.6641-0.1914 0.8281-0.4297l0.3945 0.3164c-0.3047 0.3945-0.7188 0.582-1.223 0.582-0.8633 0-1.5-0.6016-1.5-1.492 0-0.8867 0.6367-1.508 1.469-1.508 0.8398 0 1.367 0.5703 1.367 1.477 0 0.05859 0 0.125-0.003907 0.1914" fill="#231f1f"/>
<path d="m325.7 85.48h-0.5938v-3.723h-1.359v-0.5234h3.316v0.5234h-1.363v3.723" fill="#231f1f"/>
<path d="m328.2 84.95h1.895v0.5273h-2.488v-4.246h0.5938v3.719" fill="#231f1f"/>
<path d="m334.3 84.82c-0.3281 0.4492-0.875 0.7695-1.617 0.7695-1.301 0-2.238-0.9297-2.238-2.238 0-1.324 0.9727-2.227 2.262-2.227 0.582 0 1.211 0.2305 1.523 0.6602l-0.4688 0.3594c-0.2031-0.2852-0.6172-0.4961-1.055-0.4961-0.9844 0-1.613 0.7734-1.613 1.703 0 0.9531 0.6172 1.707 1.594 1.707 0.4766 0 0.8906-0.1953 1.141-0.5625l0.4727 0.3242" fill="#231f1f"/>
<path d="m392.4 83.09h0.6836c0.5586 0 0.9961-0.1758 0.9961-0.6836 0-0.5117-0.4375-0.6719-0.9531-0.6719h-0.7266zm0 2.387h-0.5938v-4.246h1.363c0.8203 0 1.512 0.3125 1.512 1.176 0 0.625-0.4258 1.02-1.031 1.121l1.184 1.949h-0.7148l-1.082-1.891h-0.6367v1.891" fill="#231f1f"/>
<path d="m396.8 84.71h0.01953l1.273-3.48h0.6445l-1.668 4.246h-0.5508l-1.656-4.246h0.6602l1.277 3.48" fill="#231f1f"/>
<path d="m446.4 84.71h0.01953l1.277-3.48h0.6406l-1.668 4.246h-0.5508l-1.652-4.246h0.6562l1.277 3.48" fill="#231f1f"/>
<path d="m450.1 83.02c-0.6094 0-0.9492 0.4883-0.9492 1.027 0 0.5391 0.3398 1.031 0.9492 1.031s0.9453-0.4922 0.9453-1.031c0-0.5391-0.3359-1.027-0.9453-1.027zm0 2.531c-0.8711 0-1.531-0.6289-1.531-1.504s0.6602-1.496 1.531-1.496c0.8672 0 1.535 0.6211 1.535 1.496s-0.668 1.504-1.535 1.504" fill="#231f1f"/>
<path d="m453 85.48h-0.5664v-4.535h0.5664v4.535" fill="#231f1f"/>
<path d="m455.9 85.48c-0.01172-0.1445-0.02344-0.3477-0.02344-0.4688h-0.01172c-0.1445 0.3008-0.5156 0.5469-0.9297 0.5469-0.7344 0-1.062-0.5234-1.062-1.156v-1.766h0.5625v1.57c0 0.4688 0.1289 0.8789 0.6484 0.8789 0.4492 0 0.7617-0.3711 0.7617-0.9375v-1.512h0.5625v2.23c0 0.1523 0.007812 0.4258 0.02734 0.6133h-0.5352" fill="#231f1f"/>
<path d="m458.8 82.55c0.375 0 0.707 0.168 0.8789 0.5703 0.1953-0.3633 0.5664-0.5703 0.9688-0.5703 0.7305 0 1.059 0.5234 1.059 1.16v1.762h-0.5625v-1.578c0-0.4609-0.1367-0.8672-0.6289-0.8672-0.5156 0-0.7227 0.4648-0.7227 0.9102v1.535h-0.5625v-1.691c0-0.4414-0.1484-0.7539-0.5977-0.7539-0.4141 0-0.7266 0.3711-0.7266 0.9336v1.512h-0.5625v-2.23c0-0.1523-0.007813-0.4258-0.02344-0.6133h0.5312c0.01172 0.1445 0.02344 0.3477 0.02344 0.4688h0.01953c0.1445-0.3008 0.4727-0.5469 0.9062-0.5469" fill="#231f1f"/>
<path d="m464.7 83.8c-0.01172-0.4531-0.2734-0.8047-0.7969-0.8047-0.4844 0-0.8555 0.3594-0.8906 0.8047zm0.5664 0.418h-2.254c0.01563 0.4883 0.4219 0.8633 0.9219 0.8633 0.3828 0 0.6641-0.1914 0.8281-0.4297l0.3945 0.3164c-0.3047 0.3945-0.7188 0.582-1.223 0.582-0.8633 0-1.5-0.6016-1.5-1.492 0-0.8867 0.6367-1.508 1.469-1.508 0.8398 0 1.367 0.5703 1.367 1.477 0 0.05859 0 0.125-0.003906 0.1914" fill="#231f1f"/>
<path d="m54.1 282.1h-0.5938v-3.723h-1.359v-0.5234h3.316v0.5234h-1.363v3.723" fill="#231f1f"/>
<path d="m56.56 281.6h1.895v0.5273h-2.488v-4.246h0.5938v3.719" fill="#231f1f"/>
<path d="m62.61 281.4c-0.3281 0.4492-0.875 0.7695-1.617 0.7695-1.301 0-2.234-0.9336-2.234-2.238 0-1.324 0.9688-2.227 2.258-2.227 0.582 0 1.211 0.2305 1.523 0.6602l-0.4688 0.3594c-0.2031-0.2852-0.6172-0.4961-1.055-0.4961-0.9844 0-1.613 0.7734-1.613 1.703 0 0.9531 0.6172 1.707 1.598 1.707 0.4727 0 0.8867-0.1953 1.137-0.5625l0.4727 0.3242" fill="#231f1f"/>
<path d="m121.4 279.7h0.6836c0.5586 0 0.9961-0.1758 0.9961-0.6836 0-0.5117-0.4375-0.6719-0.9531-0.6719h-0.7266zm0 2.387h-0.5938v-4.246h1.363c0.8203 0 1.512 0.3125 1.512 1.176 0 0.6211-0.4258 1.02-1.035 1.121l1.188 1.949h-0.7188l-1.078-1.891h-0.6367v1.891" fill="#231f1f"/>
<path d="m125.8 281.3h0.01562l1.277-3.477h0.6406l-1.664 4.246h-0.5508l-1.656-4.246h0.6602l1.277 3.477" fill="#231f1f"/>
<path d="m174.8 281.3h0.01953l1.277-3.477h0.6406l-1.664 4.246h-0.5547l-1.652-4.246h0.6562l1.277 3.477" fill="#231f1f"/>
<path d="m178.5 279.6c-0.6016 0-0.9453 0.4844-0.9453 1.027 0 0.5391 0.3438 1.027 0.9453 1.027 0.6133 0 0.9492-0.4883 0.9492-1.027 0-0.543-0.3359-1.027-0.9492-1.027zm0 2.531c-0.8672 0-1.527-0.6289-1.527-1.504 0-0.8789 0.6602-1.496 1.527-1.496 0.8711 0 1.535 0.6172 1.535 1.496 0 0.875-0.6641 1.504-1.535 1.504" fill="#231f1f"/>
<path d="m181.3 282.1h-0.5664v-4.535h0.5664v4.535" fill="#231f1f"/>
<path d="m184.2 282.1c-0.01172-0.1445-0.02344-0.3477-0.02344-0.4688h-0.01172c-0.1445 0.3008-0.5156 0.5469-0.9297 0.5469-0.7305 0-1.062-0.5234-1.062-1.16v-1.762h0.5625v1.57c0 0.4688 0.1289 0.875 0.6484 0.875 0.4492 0 0.7617-0.3711 0.7617-0.9336v-1.512h0.5664v2.23c0 0.1523 0.003907 0.4258 0.02344 0.6133h-0.5352" fill="#231f1f"/>
<path d="m187.1 279.2c0.3789 0 0.707 0.168 0.8828 0.5703 0.1914-0.3633 0.5625-0.5703 0.9648-0.5703 0.7305 0 1.059 0.5234 1.059 1.16v1.762h-0.5625v-1.578c0-0.4609-0.1367-0.8711-0.6289-0.8711-0.5156 0-0.7188 0.4688-0.7188 0.9141v1.535h-0.5664v-1.691c0-0.4453-0.1484-0.7578-0.5977-0.7578-0.4141 0-0.7266 0.375-0.7266 0.9375v1.512h-0.5625v-2.23c0-0.1523-0.007812-0.4258-0.02344-0.6133h0.5312c0.01172 0.1445 0.02734 0.3477 0.02734 0.4688h0.01562c0.1445-0.3008 0.4727-0.5469 0.9062-0.5469" fill="#231f1f"/>
<path d="m193 280.4c-0.01172-0.4531-0.2773-0.8047-0.8008-0.8047-0.4844 0-0.8555 0.3594-0.8906 0.8047zm0.5625 0.418h-2.254c0.01562 0.4844 0.4258 0.8633 0.9219 0.8633 0.3828 0 0.6641-0.1914 0.8281-0.4336l0.3945 0.3203c-0.3047 0.3945-0.7188 0.582-1.223 0.582-0.8633 0-1.5-0.6016-1.5-1.492s0.6367-1.508 1.469-1.508c0.8398 0 1.367 0.5703 1.367 1.477 0 0.05859 0 0.125-0.003907 0.1914" fill="#231f1f"/>
<path d="m340.1 277.7h-0.5938v-3.723h-1.363v-0.5234h3.316v0.5234h-1.359v3.723" fill="#231f1f"/>
<path d="m342.5 277.1h1.898v0.5273h-2.492v-4.246h0.5938v3.719" fill="#231f1f"/>
<path d="m348.6 277c-0.332 0.4492-0.875 0.7695-1.621 0.7695-1.301 0-2.234-0.9297-2.234-2.238 0-1.324 0.9688-2.223 2.258-2.223 0.582 0 1.215 0.2266 1.523 0.6562l-0.4648 0.3633c-0.2031-0.2891-0.6172-0.5-1.059-0.5-0.9805 0-1.609 0.7734-1.609 1.703 0 0.9531 0.6172 1.711 1.594 1.711 0.4727 0 0.8867-0.1992 1.137-0.5664l0.4766 0.3242" fill="#231f1f"/>
<path d="m395.6 275.3h0.6836c0.5586 0 0.9961-0.1719 0.9961-0.6836 0-0.5078-0.4375-0.6719-0.9531-0.6719h-0.7266zm0 2.387h-0.5938v-4.246h1.363c0.8203 0 1.512 0.3125 1.512 1.176 0 0.625-0.4258 1.02-1.031 1.121l1.184 1.949h-0.7148l-1.082-1.891h-0.6367v1.891" fill="#231f1f"/>
<path d="m400.1 276.9h0.01953l1.273-3.48h0.6445l-1.668 4.246h-0.5508l-1.656-4.246h0.6602l1.277 3.48" fill="#231f1f"/>
<path d="m446.4 276.9h0.01953l1.277-3.48h0.6406l-1.668 4.246h-0.5508l-1.652-4.246h0.6562l1.277 3.48" fill="#231f1f"/>
<path d="m450.1 275.2c-0.6094 0-0.9492 0.4883-0.9492 1.027s0.3398 1.031 0.9492 1.031 0.9453-0.4922 0.9453-1.031-0.3359-1.027-0.9453-1.027zm0 2.531c-0.8711 0-1.531-0.6289-1.531-1.504 0-0.8789 0.6602-1.492 1.531-1.492 0.8672 0 1.535 0.6133 1.535 1.492 0 0.875-0.668 1.504-1.535 1.504" fill="#231f1f"/>
<path d="m453 277.7h-0.5664v-4.535h0.5664v4.535" fill="#231f1f"/>
<path d="m455.9 277.7c-0.01172-0.1445-0.02344-0.3477-0.02344-0.4688h-0.01172c-0.1445 0.3008-0.5156 0.5469-0.9297 0.5469-0.7344 0-1.062-0.5234-1.062-1.156v-1.762h0.5625v1.57c0 0.4648 0.1289 0.875 0.6484 0.875 0.4492 0 0.7617-0.3711 0.7617-0.9375v-1.508h0.5625v2.227c0 0.1523 0.007812 0.4258 0.02734 0.6133h-0.5352" fill="#231f1f"/>
<path d="m458.8 274.8c0.375 0 0.707 0.168 0.8789 0.5664 0.1953-0.3633 0.5664-0.5664 0.9688-0.5664 0.7305 0 1.059 0.5195 1.059 1.156v1.762h-0.5625v-1.578c0-0.4609-0.1367-0.8672-0.6289-0.8672-0.5156 0-0.7227 0.4648-0.7227 0.9102v1.535h-0.5625v-1.691c0-0.4414-0.1484-0.7539-0.5977-0.7539-0.4141 0-0.7266 0.3711-0.7266 0.9336v1.512h-0.5625v-2.23c0-0.1484-0.007813-0.4258-0.02344-0.6094h0.5312c0.01172 0.1406 0.02344 0.3477 0.02344 0.4648h0.01953c0.1445-0.2969 0.4727-0.543 0.9062-0.543" fill="#231f1f"/>
<path d="m464.7 276c-0.01172-0.4492-0.2734-0.8047-0.7969-0.8047-0.4844 0-0.8555 0.3594-0.8906 0.8047zm0.5664 0.418h-2.254c0.01563 0.4883 0.4219 0.8633 0.9219 0.8633 0.3828 0 0.6641-0.1914 0.8281-0.4297l0.3945 0.3164c-0.3047 0.3945-0.7188 0.582-1.223 0.582-0.8633 0-1.5-0.5977-1.5-1.492 0-0.8906 0.6367-1.504 1.469-1.504 0.8398 0 1.367 0.5664 1.367 1.473 0 0.0625 0 0.125-0.003906 0.1914" fill="#231f1f"/>
<path transform="matrix(.1 0 0 -.1 0 353.6)" d="m449.2 2755h1487" fill="none" stroke="#231f1f" stroke-width="5"/>
<path transform="matrix(.1 0 0 -.1 0 353.6)" d="m1410 2755c-12.5-137.2-97.85-282.8-172.5-374.7-63.44-78.12-233.5-194.9-385-53.95-107.5 100-197.6 233.9-197.5 428.6 0.07812 98.32 11.41 74.18 51.37 339.7 103.6 688.1 265.9 218.6 388.6 25.62 36.02-56.6 103.2-144 195-245 50-55 75.9-91.33 120-120.3z" fill="none" stroke="#231f1f" stroke-width="10"/>
<path transform="matrix(.1 0 0 -.1 0 353.6)" d="m1176 783.7c-16.68-91.91-102-183-152.5-245.2-42.93-52.89-147.5-105.4-250-10-72.73 67.66-118.4 184.5-118.4 252.2 0 67.77 2.617 67.77 31.76 229.9 63.83 355.2 158.9 115.1 224.1-3.164 115.1-208.5 235.2-204.1 265.1-223.7z" fill="none" stroke="#231f1f" stroke-width="10"/>
<path d="m1.492 37.5h2.957v0.707h-3.75v-5.66h3.633v0.6953h-2.84v1.695h2.672v0.6797h-2.672v1.883" fill="#231f1f"/>
<path d="m6.316 36.21-1.383-1.801h0.9258l0.9297 1.305 0.9336-1.305h0.8789l-1.367 1.793 1.527 2h-0.9336l-1.059-1.48-1.07 1.48h-0.9023l1.52-1.992" fill="#231f1f"/>
<path d="m11.38 34.93c-0.7695 0-1.281 0.6445-1.281 1.375 0 0.7266 0.5117 1.367 1.281 1.367 0.8242 0 1.266-0.6641 1.266-1.375 0-0.7148-0.4414-1.367-1.266-1.367zm-1.23 5.188h-0.7539v-5.711h0.7383v0.5938h0.02344c0.2461-0.3984 0.7422-0.6953 1.367-0.6953 1.129 0 1.895 0.8711 1.895 1.992 0 1.109-0.7422 2.004-1.91 2.004-0.5352 0-1.055-0.2461-1.336-0.6719h-0.02344v2.488" fill="#231f1f"/>
<path d="m15.15 38.2h-0.7539v-3.793h0.7539zm-0.375-4.68c-0.2734 0-0.4961-0.2148-0.4961-0.4766 0-0.2734 0.2227-0.4883 0.4961-0.4883 0.2695 0 0.5039 0.207 0.5039 0.4883 0 0.2695-0.2344 0.4766-0.5039 0.4766" fill="#231f1f"/>
<path d="m16.35 34.41h0.7109c0.01562 0.1953 0.03516 0.4805 0.03516 0.6406h0.02344c0.207-0.4375 0.6445-0.7422 1.156-0.7422 0.1055 0 0.2109 0.007812 0.2969 0.03125l-0.03125 0.6953c-0.09766-0.02344-0.2227-0.03906-0.3438-0.03906-0.7188 0-1.062 0.582-1.062 1.215v1.992h-0.7539v-2.977c0-0.1992-0.007812-0.5664-0.03125-0.8164" fill="#231f1f"/>
<path d="m21.37 36.39c-0.7422 0-1.688 0.08203-1.688 0.7188 0 0.4492 0.3984 0.5938 0.7773 0.5938 0.7031 0 1.094-0.4727 1.094-1.113v-0.1992zm0.1836-0.6484c0-0.5586-0.375-0.832-0.9375-0.832-0.4219 0-0.8203 0.1875-1.078 0.4414l-0.3984-0.4805c0.3672-0.3516 0.9336-0.5664 1.551-0.5664 1.086 0 1.582 0.6484 1.582 1.488v1.652c0 0.2578 0.01562 0.5703 0.05859 0.7539h-0.6797c-0.04297-0.168-0.06641-0.3672-0.06641-0.543h-0.02344c-0.2734 0.4062-0.7031 0.6367-1.27 0.6367-0.6016 0-1.379-0.293-1.379-1.164 0-1.145 1.363-1.281 2.641-1.281v-0.1055" fill="#231f1f"/>
<path d="m25.3 35.03h-1.004v1.977c0 0.4531 0.1602 0.6367 0.5352 0.6367 0.1367 0 0.3125-0.03125 0.4375-0.09375l0.02344 0.6133c-0.1758 0.06641-0.4062 0.1055-0.6367 0.1055-0.7109 0-1.105-0.3984-1.105-1.184v-2.055h-0.7266v-0.6172h0.7266v-1.086h0.7461v1.086h1.004v0.6172" fill="#231f1f"/>
<path d="m27.79 34.93c-0.8047 0-1.262 0.6445-1.262 1.367 0 0.7188 0.457 1.375 1.262 1.375 0.8164 0 1.266-0.6562 1.266-1.375 0-0.7227-0.4492-1.367-1.266-1.367zm0 3.371c-1.156 0-2.035-0.8398-2.035-2.004 0-1.168 0.8789-1.992 2.035-1.992 1.16 0 2.047 0.8242 2.047 1.992 0 1.164-0.8867 2.004-2.047 2.004" fill="#231f1f"/>
<path d="m30.77 34.41h0.7109c0.01562 0.1953 0.03125 0.4805 0.03125 0.6406h0.02344c0.207-0.4375 0.6484-0.7422 1.16-0.7422 0.1016 0 0.207 0.007812 0.293 0.03125l-0.03125 0.6953c-0.09375-0.02344-0.2227-0.03906-0.3438-0.03906-0.7188 0-1.062 0.582-1.062 1.215v1.992h-0.75v-2.977c0-0.1992-0.007813-0.5664-0.03125-0.8164" fill="#231f1f"/>
<path d="m35.06 37.39h0.01562l1.047-2.977h0.8008l-1.84 4.688c-0.2461 0.6328-0.5664 1.023-1.312 1.023-0.1602 0-0.3242-0.01562-0.4922-0.05469l0.07031-0.6641c0.1211 0.03906 0.2539 0.0625 0.375 0.0625 0.3906 0 0.543-0.2227 0.7031-0.6289l0.2422-0.6328-1.625-3.793h0.8398l1.176 2.977" fill="#231f1f"/>
<path d="m11.27 47.8h-0.793v-5.66h3.535v0.6953h-2.742v1.762h2.566v0.6797h-2.566v2.523" fill="#231f1f"/>
<path d="m15.66 47.8h-0.7539v-6.043h0.7539v6.043" fill="#231f1f"/>
<path d="m18.69 44.53c-0.8086 0-1.266 0.6484-1.266 1.367s0.457 1.375 1.266 1.375c0.8164 0 1.262-0.6562 1.262-1.375s-0.4453-1.367-1.262-1.367zm0 3.375c-1.16 0-2.039-0.8398-2.039-2.008 0-1.168 0.8789-1.992 2.039-1.992s2.047 0.8242 2.047 1.992c0 1.168-0.8867 2.008-2.047 2.008" fill="#231f1f"/>
<path d="m21.98 44.01 0.8555 2.895h0.01562l0.9023-2.895h0.793l0.918 2.895h0.01562l0.8555-2.895h0.793l-1.254 3.789h-0.7852l-0.9336-2.844h-0.01562l-0.9297 2.844h-0.7852l-1.262-3.789h0.8164" fill="#231f1f"/>
<path d="m0.793 123.3h-0.793v-5.66h0.793v5.66" fill="#231f1f"/>
<path d="m2.727 119.5c0.01563 0.1914 0.03516 0.4648 0.03516 0.625h0.02344c0.1836-0.4102 0.6875-0.7266 1.23-0.7266 0.9727 0 1.414 0.6953 1.414 1.543v2.348h-0.75v-2.102c0-0.6172-0.168-1.16-0.8633-1.16-0.5938 0-1.016 0.4961-1.016 1.25v2.012h-0.7539v-2.973c0-0.1992-0.007813-0.5664-0.03125-0.8164h0.7109" fill="#231f1f"/>
<path d="m8.672 120.4c-0.168-0.2734-0.4961-0.4727-0.8789-0.4727-0.3438 0-0.707 0.1367-0.707 0.4961 0 0.3203 0.2891 0.4375 0.8633 0.5664 0.7227 0.1602 1.273 0.457 1.273 1.121 0 0.8945-0.7422 1.223-1.512 1.223-0.5742 0-1.168-0.2227-1.527-0.6797l0.5352-0.457c0.1992 0.2969 0.5859 0.5273 1.008 0.5273 0.375 0 0.7539-0.1328 0.7539-0.5508 0-0.3516-0.3438-0.4805-0.9922-0.6289-0.5039-0.1211-1.105-0.3398-1.105-1.051 0-0.8125 0.7109-1.156 1.434-1.156 0.5352 0 1.102 0.2148 1.375 0.6211l-0.5195 0.4414" fill="#231f1f"/>
<path d="m12.08 120c-0.7695 0-1.281 0.6484-1.281 1.375s0.5117 1.367 1.281 1.367c0.8242 0 1.266-0.6641 1.266-1.375 0-0.7109-0.4414-1.367-1.266-1.367zm-1.23 5.191h-0.7539v-5.711h0.7383v0.5938h0.02344c0.2461-0.4023 0.7422-0.6953 1.367-0.6953 1.125 0 1.895 0.8672 1.895 1.988 0 1.113-0.7422 2.008-1.91 2.008-0.5352 0-1.055-0.2461-1.336-0.6719h-0.02344v2.488" fill="#231f1f"/>
<path d="m15.85 123.3h-0.7539v-3.789h0.7539zm-0.375-4.676c-0.2734 0-0.4961-0.2148-0.4961-0.4805 0-0.2695 0.2227-0.4883 0.4961-0.4883 0.2695 0 0.5039 0.2109 0.5039 0.4883 0 0.2734-0.2344 0.4805-0.5039 0.4805" fill="#231f1f"/>
<path d="m17.05 119.5h0.7109c0.01563 0.1914 0.03125 0.4805 0.03125 0.6406h0.02734c0.207-0.4414 0.6445-0.7422 1.156-0.7422 0.1055 0 0.2109 0.007813 0.2969 0.03125l-0.03125 0.6953c-0.09766-0.02734-0.2227-0.03906-0.3438-0.03906-0.7188 0-1.062 0.582-1.062 1.215v1.988h-0.7539v-2.973c0-0.1992-0.007813-0.5664-0.03125-0.8164" fill="#231f1f"/>
<path d="m22.07 121.5c-0.7422 0-1.688 0.07812-1.688 0.7188 0 0.4492 0.3984 0.5898 0.7773 0.5898 0.7031 0 1.094-0.4688 1.094-1.109v-0.1992zm0.1836-0.6484c0-0.5586-0.375-0.832-0.9336-0.832-0.4258 0-0.8242 0.1836-1.082 0.4414l-0.3984-0.4805c0.3672-0.3516 0.9336-0.5664 1.551-0.5664 1.086 0 1.582 0.6445 1.582 1.484v1.656c0 0.2539 0.01562 0.5664 0.05859 0.75h-0.6797c-0.04297-0.168-0.06641-0.3672-0.06641-0.543h-0.02344c-0.2734 0.4102-0.7031 0.6406-1.27 0.6406-0.6016 0-1.379-0.2969-1.379-1.168 0-1.145 1.359-1.277 2.641-1.277v-0.1055" fill="#231f1f"/>
<path d="m26.01 120.1h-1.008v1.973c0 0.457 0.1602 0.6406 0.5352 0.6406 0.1367 0 0.3125-0.03125 0.4375-0.09766l0.02344 0.6172c-0.1719 0.06641-0.4062 0.1055-0.6367 0.1055-0.7109 0-1.105-0.4023-1.105-1.184v-2.055h-0.7266v-0.6172h0.7266v-1.086h0.7461v1.086h1.008v0.6172" fill="#231f1f"/>
<path d="m28.49 120c-0.8047 0-1.262 0.6484-1.262 1.367s0.457 1.375 1.262 1.375c0.8164 0 1.266-0.6562 1.266-1.375s-0.4492-1.367-1.266-1.367zm0 3.375c-1.156 0-2.035-0.8398-2.035-2.008 0-1.168 0.8789-1.988 2.035-1.988 1.16 0 2.047 0.8203 2.047 1.988 0 1.168-0.8867 2.008-2.047 2.008" fill="#231f1f"/>
<path d="m31.47 119.5h0.7148c0.01562 0.1914 0.03125 0.4805 0.03125 0.6406h0.02344c0.207-0.4414 0.6484-0.7422 1.16-0.7422 0.1016 0 0.207 0.007813 0.2969 0.03125l-0.03516 0.6953c-0.09375-0.02734-0.2227-0.03906-0.3438-0.03906-0.7188 0-1.062 0.582-1.062 1.215v1.988h-0.75v-2.973c0-0.1992-0.007812-0.5664-0.03516-0.8164" fill="#231f1f"/>
<path d="m35.76 122.5h0.01563l1.047-2.973h0.8008l-1.84 4.684c-0.2461 0.6328-0.5664 1.027-1.309 1.027-0.1602 0-0.3281-0.01562-0.4961-0.05859l0.07031-0.6641c0.1211 0.04297 0.2578 0.06641 0.375 0.06641 0.3945 0 0.5469-0.2266 0.7031-0.6328l0.2422-0.6328-1.625-3.789h0.8398l1.176 2.973" fill="#231f1f"/>
<path d="m11.27 132.9h-0.793v-5.66h3.535v0.6953h-2.742v1.758h2.566v0.6797h-2.566v2.527" fill="#231f1f"/>
<path d="m15.66 132.9h-0.7539v-6.043h0.7539v6.043" fill="#231f1f"/>
<path d="m18.69 129.6c-0.8086 0-1.266 0.6445-1.266 1.367 0 0.7188 0.457 1.375 1.266 1.375 0.8164 0 1.262-0.6562 1.262-1.375 0-0.7227-0.4453-1.367-1.262-1.367zm0 3.375c-1.16 0-2.039-0.8398-2.039-2.008s0.8789-1.992 2.039-1.992 2.047 0.8242 2.047 1.992-0.8867 2.008-2.047 2.008" fill="#231f1f"/>
<path d="m21.98 129.1 0.8555 2.895h0.01562l0.9023-2.895h0.793l0.918 2.895h0.01562l0.8555-2.895h0.793l-1.254 3.789h-0.7852l-0.9336-2.848h-0.01562l-0.9297 2.848h-0.7852l-1.262-3.789h0.8164" fill="#231f1f"/>
<path d="m356.5 326.8h0.9141c0.7422 0 1.328-0.2305 1.328-0.9102s-0.5859-0.8945-1.273-0.8945h-0.9688zm0 3.184h-0.7891v-5.66h1.816c1.094 0 2.012 0.4141 2.012 1.566 0 0.832-0.5664 1.359-1.375 1.496l1.582 2.598h-0.957l-1.441-2.52h-0.8477v2.52" fill="#231f1f"/>
<path d="m363.3 327.7c-0.01562-0.6016-0.3672-1.07-1.062-1.07-0.6484 0-1.145 0.4766-1.191 1.07zm0.7539 0.5586h-3.008c0.02344 0.6484 0.5664 1.152 1.23 1.152 0.5117 0 0.8867-0.2578 1.105-0.5781l0.5234 0.4258c-0.4062 0.5273-0.957 0.7734-1.629 0.7734-1.152 0-2-0.7969-2-1.988 0-1.184 0.8477-2.008 1.961-2.008 1.117 0 1.824 0.7617 1.824 1.969 0 0.07812 0 0.168-0.007812 0.2539" fill="#231f1f"/>
<path d="m367.1 327.1c-0.1641-0.2695-0.4922-0.4688-0.8789-0.4688-0.3398 0-0.7031 0.1328-0.7031 0.4922 0 0.3203 0.2891 0.4414 0.8633 0.5703 0.7188 0.1602 1.273 0.4531 1.273 1.117 0 0.8945-0.7422 1.223-1.512 1.223-0.5781 0-1.168-0.2227-1.527-0.6797l0.5352-0.4531c0.1992 0.293 0.5859 0.5273 1.008 0.5273 0.3789 0 0.7539-0.1367 0.7539-0.5508 0-0.3516-0.3477-0.4805-0.9922-0.6328-0.5039-0.1211-1.105-0.3359-1.105-1.047 0-0.8164 0.7148-1.16 1.434-1.16 0.5352 0 1.102 0.2148 1.375 0.625l-0.5234 0.4375" fill="#231f1f"/>
<path d="m370.4 326.8h-1.004v1.977c0 0.457 0.1602 0.6406 0.5352 0.6406 0.1328 0 0.3086-0.03516 0.4375-0.09766l0.02344 0.6172c-0.1758 0.0625-0.4062 0.1016-0.6367 0.1016-0.7148 0-1.105-0.3984-1.105-1.184v-2.055h-0.7266v-0.6133h0.7266v-1.09h0.7461v1.09h1.004v0.6133" fill="#231f1f"/>
<path d="m371 326.2h0.7148c0.01562 0.1914 0.03125 0.4766 0.03125 0.6367h0.02344c0.207-0.4375 0.6484-0.7422 1.16-0.7422 0.1055 0 0.207 0.007812 0.293 0.03125l-0.02734 0.6953c-0.09766-0.02344-0.2266-0.03906-0.3477-0.03906-0.7188 0-1.062 0.5859-1.062 1.215v1.992h-0.75v-2.977c0-0.1992-0.007813-0.5664-0.03516-0.8125" fill="#231f1f"/>
<path d="m374.6 330h-0.75v-3.789h0.75zm-0.375-4.676c-0.2734 0-0.4961-0.2188-0.4961-0.4805 0-0.2734 0.2227-0.4883 0.4961-0.4883 0.2695 0 0.5039 0.207 0.5039 0.4883 0 0.2695-0.2344 0.4805-0.5039 0.4805" fill="#231f1f"/>
<path d="m378.5 327.1c-0.1602-0.2461-0.5117-0.4297-0.8711-0.4297-0.7852 0-1.238 0.6406-1.238 1.367 0 0.7188 0.4531 1.367 1.246 1.367 0.3828 0 0.7109-0.1602 0.9102-0.418l0.5039 0.457c-0.3203 0.3672-0.8047 0.5898-1.414 0.5898-1.168 0-2.039-0.7891-2.039-1.996 0-1.191 0.8633-2 2.023-2 0.5352 0 1.109 0.2148 1.422 0.625l-0.543 0.4375" fill="#231f1f"/>
<path d="m381.6 326.8h-1.012v1.977c0 0.457 0.1602 0.6406 0.5391 0.6406 0.1367 0 0.3125-0.03516 0.4414-0.09766l0.01953 0.6172c-0.1758 0.0625-0.4062 0.1016-0.6367 0.1016-0.7109 0-1.105-0.3984-1.105-1.184v-2.055h-0.7266v-0.6133h0.7266v-1.09h0.7422v1.09h1.012v0.6133" fill="#231f1f"/>
<path d="m383 330h-0.7539v-3.789h0.7539zm-0.3789-4.676c-0.2734 0-0.4961-0.2188-0.4961-0.4805 0-0.2734 0.2227-0.4883 0.4961-0.4883 0.2734 0 0.5039 0.207 0.5039 0.4883 0 0.2695-0.2305 0.4805-0.5039 0.4805" fill="#231f1f"/>
<path d="m386.1 330h-0.8164l-1.543-3.789h0.832l1.113 2.98h0.01562l1.117-2.98h0.8008l-1.52 3.789" fill="#231f1f"/>
<path d="m391 327.7c-0.01562-0.6016-0.3672-1.07-1.066-1.07-0.6445 0-1.141 0.4766-1.191 1.07zm0.75 0.5586h-3.008c0.02734 0.6484 0.5703 1.152 1.234 1.152 0.5117 0 0.8867-0.2578 1.102-0.5781l0.5273 0.4258c-0.4062 0.5273-0.957 0.7734-1.629 0.7734-1.152 0-2-0.7969-2-1.988 0-1.184 0.8477-2.008 1.957-2.008 1.121 0 1.824 0.7617 1.824 1.969 0 0.07812 0 0.168-0.007813 0.2539" fill="#231f1f"/>
<path d="m361.9 338.9h0.9922c1.367 0 2.367-0.7812 2.367-2.133 0-1.398-1-2.145-2.367-2.145h-0.9922zm-0.793-4.965h1.945c1.445 0 3.051 0.8242 3.051 2.832 0 1.934-1.605 2.828-3.051 2.828h-1.945v-5.66" fill="#231f1f"/>
<path d="m367.8 339.6h-0.7539v-3.789h0.7539zm-0.3789-4.676c-0.2734 0-0.4961-0.2148-0.4961-0.4805 0-0.2695 0.2227-0.4883 0.4961-0.4883 0.2734 0 0.5039 0.2109 0.5039 0.4883 0 0.2734-0.2305 0.4805-0.5039 0.4805" fill="#231f1f"/>
<path d="m371.1 336.7c-0.168-0.2734-0.4961-0.4727-0.8828-0.4727-0.3398 0-0.7031 0.1367-0.7031 0.4961 0 0.3203 0.2891 0.4414 0.8633 0.5664 0.7227 0.1602 1.273 0.457 1.273 1.121 0 0.8945-0.7422 1.223-1.512 1.223-0.5742 0-1.168-0.2227-1.527-0.6797l0.5352-0.457c0.1992 0.2969 0.5859 0.5273 1.008 0.5273 0.3789 0 0.7539-0.1328 0.7539-0.5508 0-0.3516-0.3477-0.4805-0.9922-0.6289-0.5039-0.1211-1.105-0.3359-1.105-1.047 0-0.8164 0.7109-1.16 1.434-1.16 0.5352 0 1.102 0.2148 1.375 0.6211l-0.5195 0.4414" fill="#231f1f"/>
<path d="m375.3 337.3c-0.01562-0.5977-0.3711-1.07-1.062-1.07-0.6484 0-1.145 0.4805-1.191 1.07zm0.75 0.5625h-3.004c0.02344 0.6484 0.5664 1.152 1.23 1.152 0.5117 0 0.8867-0.2578 1.102-0.5781l0.5312 0.4219c-0.4102 0.5312-0.9609 0.7773-1.633 0.7773-1.152 0-2-0.8008-2-1.988s0.8477-2.008 1.961-2.008c1.117 0 1.82 0.7578 1.82 1.965 0 0.08203 0 0.168-0.007813 0.2578" fill="#231f1f"/>
<path d="m379.2 337.8c-0.7461 0-1.691 0.07812-1.691 0.7188 0 0.4492 0.4023 0.5938 0.7773 0.5938 0.7031 0 1.094-0.4727 1.094-1.113v-0.1992zm0.1797-0.6484c0-0.5586-0.375-0.832-0.9336-0.832-0.4219 0-0.8242 0.1836-1.078 0.4414l-0.4023-0.4805c0.3672-0.3516 0.9375-0.5664 1.551-0.5664 1.09 0 1.586 0.6445 1.586 1.484v1.656c0 0.2578 0.01562 0.5664 0.05469 0.75h-0.6797c-0.03906-0.168-0.0625-0.3672-0.0625-0.543h-0.02734c-0.2695 0.4102-0.6992 0.6406-1.27 0.6406-0.6016 0-1.375-0.2969-1.375-1.168 0-1.145 1.359-1.277 2.637-1.277v-0.1055" fill="#231f1f"/>
<path d="m383.3 336.7c-0.168-0.2734-0.4961-0.4727-0.8789-0.4727-0.3438 0-0.7031 0.1367-0.7031 0.4961 0 0.3203 0.2891 0.4414 0.8633 0.5664 0.7188 0.1602 1.27 0.457 1.27 1.121 0 0.8945-0.7422 1.223-1.508 1.223-0.5781 0-1.168-0.2227-1.531-0.6797l0.5391-0.457c0.1992 0.2969 0.582 0.5273 1.004 0.5273 0.3789 0 0.7539-0.1328 0.7539-0.5508 0-0.3516-0.3438-0.4805-0.9922-0.6289-0.5039-0.1211-1.102-0.3359-1.102-1.047 0-0.8164 0.7109-1.16 1.43-1.16 0.5352 0 1.105 0.2148 1.375 0.6211l-0.5195 0.4414" fill="#231f1f"/>
<path d="m387.5 337.3c-0.01562-0.5977-0.3672-1.07-1.062-1.07-0.6484 0-1.145 0.4805-1.191 1.07zm0.7539 0.5625h-3.008c0.02344 0.6484 0.5664 1.152 1.23 1.152 0.5117 0 0.8867-0.2578 1.105-0.5781l0.5273 0.4219c-0.4102 0.5312-0.9609 0.7773-1.633 0.7773-1.152 0-2-0.8008-2-1.988s0.8477-2.008 1.961-2.008c1.121 0 1.824 0.7578 1.824 1.965 0 0.08203 0 0.168-0.007813 0.2578" fill="#231f1f"/>
<path d="m271.5 226.8h2.957v0.707h-3.75v-5.664h3.633v0.6953h-2.84v1.695h2.672v0.6797h-2.672v1.887" fill="#231f1f"/>
<path d="m276.3 225.6-1.383-1.801h0.9258l0.9297 1.305 0.9336-1.305h0.8789l-1.367 1.793 1.527 2h-0.9336l-1.055-1.48-1.074 1.48h-0.9023l1.52-1.992" fill="#231f1f"/>
<path d="m281.4 224.3c-0.7695 0-1.277 0.6484-1.277 1.375 0 0.7305 0.5078 1.367 1.277 1.367 0.8242 0 1.266-0.6641 1.266-1.375s-0.4414-1.367-1.266-1.367zm-1.23 5.191h-0.7539v-5.711h0.7383v0.5938h0.02344c0.2461-0.4023 0.7422-0.6953 1.367-0.6953 1.125 0 1.895 0.8711 1.895 1.988 0 1.113-0.7422 2.008-1.91 2.008-0.5352 0-1.055-0.2461-1.336-0.6719h-0.02344v2.488" fill="#231f1f"/>
<path d="m285.1 227.5h-0.7539v-3.793h0.7539zm-0.375-4.68c-0.2734 0-0.4961-0.2148-0.4961-0.4805 0-0.2695 0.2227-0.4883 0.4961-0.4883 0.2695 0 0.5 0.2109 0.5 0.4883 0 0.2734-0.2305 0.4805-0.5 0.4805" fill="#231f1f"/>
<path d="m286.3 223.8h0.7109c0.01562 0.1914 0.03516 0.4805 0.03516 0.6406h0.02344c0.207-0.4414 0.6445-0.7422 1.156-0.7422 0.1055 0 0.2109 0.007812 0.2969 0.03125l-0.03125 0.6953c-0.09766-0.02344-0.2227-0.03906-0.3438-0.03906-0.7188 0-1.062 0.582-1.062 1.215v1.992h-0.7539v-2.977c0-0.1992-0.007812-0.5664-0.03125-0.8164" fill="#231f1f"/>
<path d="m291.4 225.7c-0.7422 0-1.688 0.07812-1.688 0.7188 0 0.4492 0.3984 0.5938 0.7773 0.5938 0.7031 0 1.094-0.4727 1.094-1.113v-0.1992zm0.1836-0.6484c0-0.5586-0.375-0.832-0.9375-0.832-0.4219 0-0.8203 0.1836-1.078 0.4414l-0.3984-0.4805c0.3672-0.3516 0.9336-0.5664 1.551-0.5664 1.086 0 1.582 0.6484 1.582 1.484v1.656c0 0.2578 0.01562 0.5664 0.05469 0.7539h-0.6758c-0.04297-0.168-0.06641-0.3711-0.06641-0.5469h-0.02344c-0.2734 0.4102-0.7031 0.6406-1.27 0.6406-0.6016 0-1.379-0.2969-1.379-1.168 0-1.145 1.359-1.277 2.641-1.277v-0.1055" fill="#231f1f"/>
<path d="m295.3 224.4h-1.008v1.977c0 0.4531 0.1602 0.6367 0.5352 0.6367 0.1367 0 0.3125-0.03125 0.4375-0.09375l0.02734 0.6133c-0.1797 0.06641-0.4102 0.1055-0.6406 0.1055-0.7109 0-1.105-0.3984-1.105-1.184v-2.055h-0.7266v-0.6172h0.7266v-1.086h0.7461v1.086h1.008v0.6172" fill="#231f1f"/>
<path d="m297.8 224.3c-0.8047 0-1.262 0.6484-1.262 1.367 0 0.7227 0.457 1.375 1.262 1.375 0.8164 0 1.266-0.6523 1.266-1.375 0-0.7188-0.4492-1.367-1.266-1.367zm0 3.375c-1.156 0-2.035-0.8398-2.035-2.008 0-1.164 0.8789-1.988 2.035-1.988 1.16 0 2.047 0.8242 2.047 1.988 0 1.168-0.8867 2.008-2.047 2.008" fill="#231f1f"/>
<path d="m300.8 223.8h0.7109c0.01562 0.1914 0.03125 0.4805 0.03125 0.6406h0.02344c0.207-0.4414 0.6484-0.7422 1.16-0.7422 0.1016 0 0.207 0.007812 0.293 0.03125l-0.03125 0.6953c-0.09375-0.02344-0.2227-0.03906-0.3438-0.03906-0.7188 0-1.062 0.582-1.062 1.215v1.992h-0.75v-2.977c0-0.1992-0.007812-0.5664-0.03125-0.8164" fill="#231f1f"/>
<path d="m305.1 226.7h0.01562l1.047-2.977h0.8008l-1.84 4.688c-0.2461 0.6289-0.5664 1.023-1.312 1.023-0.1602 0-0.3281-0.01562-0.4961-0.05859l0.07422-0.6641c0.1211 0.04297 0.2578 0.06641 0.375 0.06641 0.3906 0 0.543-0.2227 0.7031-0.6328l0.2422-0.6289-1.625-3.793h0.8398l1.176 2.977" fill="#231f1f"/>
<path d="m281.3 237.1h-0.793v-5.66h3.535v0.6953h-2.742v1.758h2.566v0.6797h-2.566v2.527" fill="#231f1f"/>
<path d="m285.7 237.1h-0.7539v-6.043h0.7539v6.043" fill="#231f1f"/>
<path d="m288.7 233.9c-0.8086 0-1.262 0.6484-1.262 1.367s0.4531 1.375 1.262 1.375c0.8164 0 1.262-0.6562 1.262-1.375s-0.4453-1.367-1.262-1.367zm0 3.375c-1.16 0-2.039-0.8398-2.039-2.008 0-1.168 0.8789-1.992 2.039-1.992s2.047 0.8242 2.047 1.992c0 1.168-0.8867 2.008-2.047 2.008" fill="#231f1f"/>
<path d="m292 233.4 0.8555 2.895h0.01562l0.9023-2.895h0.793l0.918 2.895h0.01562l0.8555-2.895h0.793l-1.254 3.789h-0.7852l-0.9336-2.848h-0.01563l-0.9297 2.848h-0.7852l-1.262-3.789h0.8164" fill="#231f1f"/>
<path d="m270.8 312.6h-0.793v-5.66h0.793v5.66" fill="#231f1f"/>
<path d="m272.7 308.8c0.01562 0.1914 0.03516 0.4648 0.03516 0.625h0.02344c0.1836-0.4102 0.6875-0.7305 1.23-0.7305 0.9727 0 1.414 0.6953 1.414 1.543v2.352h-0.75v-2.102c0-0.6172-0.168-1.16-0.8633-1.16-0.5938 0-1.016 0.4961-1.016 1.246v2.016h-0.7539v-2.973c0-0.2031-0.007813-0.5703-0.03125-0.8164h0.7109" fill="#231f1f"/>
<path d="m278.7 309.8c-0.168-0.2695-0.4961-0.4688-0.8828-0.4688-0.3438 0-0.7031 0.1367-0.7031 0.4961 0 0.3203 0.2891 0.4375 0.8633 0.5664 0.7227 0.1602 1.273 0.4531 1.273 1.121 0 0.8945-0.7422 1.223-1.512 1.223-0.5742 0-1.168-0.2266-1.527-0.6797l0.5352-0.457c0.1992 0.2969 0.5859 0.5273 1.008 0.5273 0.375 0 0.7539-0.1367 0.7539-0.5508 0-0.3516-0.3438-0.4805-0.9922-0.6328-0.5039-0.1172-1.105-0.3359-1.105-1.047 0-0.8164 0.7109-1.16 1.434-1.16 0.5352 0 1.102 0.2188 1.375 0.625l-0.5195 0.4375" fill="#231f1f"/>
<path d="m282.1 309.3c-0.7656 0-1.277 0.6484-1.277 1.375s0.5117 1.367 1.277 1.367c0.8242 0 1.266-0.6641 1.266-1.375 0-0.7109-0.4414-1.367-1.266-1.367zm-1.23 5.188h-0.7539v-5.707h0.7383v0.5898h0.02344c0.2461-0.3984 0.7422-0.6953 1.367-0.6953 1.129 0 1.895 0.8711 1.895 1.992 0 1.109-0.7422 2.008-1.91 2.008-0.5352 0-1.055-0.25-1.336-0.6719h-0.02344v2.484" fill="#231f1f"/>
<path d="m285.8 312.6h-0.75v-3.789h0.75zm-0.375-4.676c-0.2734 0-0.4961-0.2188-0.4961-0.4805 0-0.2734 0.2227-0.4883 0.4961-0.4883 0.2695 0 0.5039 0.207 0.5039 0.4883 0 0.2695-0.2344 0.4805-0.5039 0.4805" fill="#231f1f"/>
<path d="m287 308.8h0.7109c0.01562 0.1914 0.03125 0.4805 0.03125 0.6406h0.02734c0.207-0.4414 0.6445-0.7461 1.156-0.7461 0.1055 0 0.2109 0.007812 0.2969 0.03516l-0.03125 0.6953c-0.09766-0.02734-0.2227-0.04297-0.3438-0.04297-0.7188 0-1.062 0.5859-1.062 1.215v1.992h-0.7539v-2.973c0-0.2031-0.007813-0.5703-0.03125-0.8164" fill="#231f1f"/>
<path d="m292.1 310.8c-0.7422 0-1.688 0.07812-1.688 0.7188 0 0.4453 0.3984 0.5898 0.7773 0.5898 0.7031 0 1.094-0.4727 1.094-1.109v-0.1992zm0.1836-0.6484c0-0.5586-0.375-0.832-0.9375-0.832-0.4219 0-0.8203 0.1836-1.078 0.4375l-0.3984-0.4766c0.3672-0.3516 0.9336-0.5703 1.551-0.5703 1.086 0 1.582 0.6484 1.582 1.488v1.656c0 0.2539 0.01562 0.5664 0.05469 0.75h-0.6758c-0.04297-0.168-0.06641-0.3672-0.06641-0.543h-0.02344c-0.2734 0.4062-0.7031 0.6406-1.27 0.6406-0.6016 0-1.379-0.2969-1.379-1.168 0-1.145 1.363-1.281 2.641-1.281v-0.1016" fill="#231f1f"/>
<path d="m296 309.4h-1.008v1.977c0 0.457 0.1602 0.6406 0.5352 0.6406 0.1367 0 0.3125-0.03125 0.4375-0.09766l0.02344 0.6172c-0.1758 0.0625-0.4062 0.1055-0.6367 0.1055-0.7109 0-1.105-0.4023-1.105-1.184v-2.059h-0.7266v-0.6133h0.7266v-1.09h0.7461v1.09h1.008v0.6133" fill="#231f1f"/>
<path d="m298.5 309.3c-0.8047 0-1.262 0.6484-1.262 1.367s0.457 1.375 1.262 1.375c0.8164 0 1.266-0.6562 1.266-1.375s-0.4492-1.367-1.266-1.367zm0 3.375c-1.156 0-2.039-0.8398-2.039-2.008 0-1.168 0.8828-1.992 2.039-1.992 1.16 0 2.047 0.8242 2.047 1.992 0 1.168-0.8867 2.008-2.047 2.008" fill="#231f1f"/>
<path d="m301.5 308.8h0.7109c0.01562 0.1914 0.03125 0.4805 0.03125 0.6406h0.02344c0.207-0.4414 0.6484-0.7461 1.16-0.7461 0.1016 0 0.207 0.007812 0.293 0.03516l-0.03125 0.6953c-0.09375-0.02734-0.2227-0.04297-0.3438-0.04297-0.7188 0-1.062 0.5859-1.062 1.215v1.992h-0.75v-2.973c0-0.2031-0.007812-0.5703-0.03125-0.8164" fill="#231f1f"/>
<path d="m305.8 311.8h0.01562l1.047-2.973h0.8008l-1.84 4.684c-0.2461 0.6328-0.5664 1.023-1.309 1.023-0.1602 0-0.3281-0.01562-0.4961-0.05469l0.07031-0.6641c0.1211 0.03906 0.2578 0.06641 0.375 0.06641 0.3945 0 0.5469-0.2266 0.7031-0.6328l0.2422-0.6328-1.625-3.789h0.8398l1.176 2.973" fill="#231f1f"/>
<path d="m281.3 322.2h-0.793v-5.66h3.535v0.6914h-2.742v1.762h2.566v0.6797h-2.566v2.527" fill="#231f1f"/>
<path d="m285.7 322.2h-0.7539v-6.047h0.7539v6.047" fill="#231f1f"/>
<path d="m288.7 318.9c-0.8086 0-1.262 0.6445-1.262 1.367 0 0.7188 0.4531 1.375 1.262 1.375 0.8164 0 1.262-0.6562 1.262-1.375 0-0.7227-0.4453-1.367-1.262-1.367zm0 3.371c-1.16 0-2.039-0.8398-2.039-2.004 0-1.168 0.8789-1.992 2.039-1.992s2.047 0.8242 2.047 1.992c0 1.164-0.8867 2.004-2.047 2.004" fill="#231f1f"/>
<path d="m292 318.4 0.8555 2.891h0.01562l0.9023-2.891h0.793l0.918 2.891h0.01562l0.8555-2.891h0.793l-1.254 3.789h-0.7852l-0.9336-2.848h-0.01563l-0.9297 2.848h-0.7852l-1.262-3.789h0.8164" fill="#231f1f"/>
<g clip-path="url(#c)">
<path transform="matrix(.1 0 0 -.1 0 353.6)" d="m3167 1561v-1561" fill="none" stroke="#231f1f" stroke-width="5"/>
</g>
<g clip-path="url(#b)">
<path transform="matrix(.1 0 0 -.1 0 353.6)" d="m3167 828h1492" fill="none" stroke="#231f1f" stroke-width="5"/>
</g>
<path transform="matrix(.1 0 0 -.1 0 353.6)" d="m3881 943c-26.68 91.68-116.2 287.8-148.3 365-58.36 140-125 126.7-150 40-28.4-98.48-18.36-136.7-33.36-228.3-14.49-88.59-15-200-36.64-290l36.64-153.4c20-76.64 17.07-98.05 73.36-150 43.32-40 165-55 215 1.68 49.96 56.64 65 135.5 80 298.3z" fill="none" stroke="#231f1f" stroke-width="10"/>
<path d="m415.8 37.17h0.6289c0.582 0 0.9922-0.1914 0.9922-0.6953 0-0.5117-0.4219-0.6797-0.9805-0.6797h-0.6406zm-0.5938-1.879h1.297c0.918 0 1.516 0.3555 1.516 1.184 0 0.8516-0.668 1.199-1.547 1.199h-0.6719v1.863h-0.5938v-4.246" fill="#231f1f"/>
<path d="m418.7 36.7h0.5312c0.01562 0.1406 0.02734 0.3594 0.02734 0.4766h0.01563c0.1562-0.3281 0.4883-0.5547 0.8711-0.5547 0.07812 0 0.1562 0.003906 0.2227 0.02344l-0.02344 0.5195c-0.07422-0.01562-0.168-0.02734-0.2617-0.02734-0.5391 0-0.7969 0.4375-0.7969 0.9102v1.492h-0.5625v-2.23c0-0.1484-0.007812-0.4258-0.02344-0.6094" fill="#231f1f"/>
<path d="m422.9 37.87c-0.01172-0.4492-0.2734-0.8047-0.7969-0.8047-0.4844 0-0.8555 0.3594-0.8945 0.8047zm0.5625 0.418h-2.254c0.01953 0.4883 0.4258 0.8633 0.9258 0.8633 0.3828 0 0.6641-0.1914 0.8242-0.4297l0.3984 0.3164c-0.3047 0.3984-0.7188 0.582-1.223 0.582-0.8633 0-1.5-0.5977-1.5-1.492 0-0.8867 0.6367-1.504 1.469-1.504 0.8398 0 1.367 0.5664 1.367 1.473 0 0.0625 0 0.125-0.007813 0.1914" fill="#231f1f"/>
<path d="m425.7 37.09c-0.5742 0-0.957 0.4883-0.957 1.031 0 0.5469 0.3828 1.027 0.957 1.027 0.6172 0 0.9492-0.5 0.9492-1.031 0-0.5352-0.332-1.027-0.9492-1.027zm-0.9414 2.004v0.4492h-0.5469v-4.531h0.5664v2.113h0.01563c0.1953-0.2734 0.5469-0.5 1.016-0.5 0.8438 0 1.422 0.6523 1.422 1.492 0 0.832-0.5586 1.504-1.434 1.504-0.4023 0-0.8047-0.1836-1.027-0.5273h-0.01172" fill="#231f1f"/>
<path d="m427.9 36.7h0.5312c0.01563 0.1406 0.02734 0.3594 0.02734 0.4766h0.01562c0.1562-0.3281 0.4883-0.5547 0.8711-0.5547 0.07812 0 0.1562 0.003906 0.2188 0.02344l-0.02344 0.5195c-0.07031-0.01562-0.168-0.02734-0.2578-0.02734-0.5391 0-0.7969 0.4375-0.7969 0.9102v1.492h-0.5625v-2.23c0-0.1484-0.007812-0.4258-0.02344-0.6094" fill="#231f1f"/>
<path d="m431.4 37.09c-0.6094 0-0.9492 0.4883-0.9492 1.027 0 0.5391 0.3398 1.031 0.9492 1.031s0.9453-0.4922 0.9453-1.031c0-0.5391-0.3359-1.027-0.9453-1.027zm0 2.531c-0.8711 0-1.531-0.6289-1.531-1.504s0.6602-1.492 1.531-1.492c0.8672 0 1.535 0.6172 1.535 1.492s-0.668 1.504-1.535 1.504" fill="#231f1f"/>
<path d="m434.2 36.7c0.01562 0.1406 0.02734 0.3477 0.02734 0.4648h0.01562c0.1406-0.3047 0.5156-0.543 0.9258-0.543 0.7305 0 1.062 0.5195 1.062 1.156v1.762h-0.5664v-1.574c0-0.4648-0.125-0.8711-0.6484-0.8711-0.4414 0-0.7578 0.3711-0.7578 0.9336v1.512h-0.5664v-2.23c0-0.1484-0.003907-0.4258-0.02344-0.6094h0.5312" fill="#231f1f"/>
<path d="m439.1 37.42c-0.1211-0.1875-0.3828-0.3242-0.6523-0.3242-0.5898 0-0.9297 0.4805-0.9297 1.023 0 0.543 0.3398 1.027 0.9375 1.027 0.2852 0 0.5312-0.1211 0.6797-0.3125l0.3789 0.3438c-0.2383 0.2734-0.6055 0.4414-1.059 0.4414-0.875 0-1.531-0.5938-1.531-1.5 0-0.8906 0.6484-1.496 1.516-1.496 0.4023 0 0.8359 0.1602 1.07 0.4648l-0.4102 0.332" fill="#231f1f"/>
<path d="m440.6 37.13c0.1328-0.2812 0.4922-0.5078 0.9023-0.5078 0.7305 0 1.059 0.5195 1.059 1.156v1.762h-0.5625v-1.57c0-0.4609-0.1172-0.8711-0.6406-0.8711-0.4453 0-0.7656 0.375-0.7656 0.9375v1.504h-0.5664v-4.531h0.5664v2.121h0.007812" fill="#231f1f"/>
<path d="m444.8 37.09c-0.6055 0-0.9453 0.4883-0.9453 1.027 0 0.5391 0.3398 1.031 0.9453 1.031 0.6133 0 0.9492-0.4922 0.9492-1.031 0-0.5391-0.3359-1.027-0.9492-1.027zm0 2.531c-0.8672 0-1.527-0.6289-1.527-1.504s0.6602-1.492 1.527-1.492c0.8711 0 1.539 0.6172 1.539 1.492s-0.668 1.504-1.539 1.504" fill="#231f1f"/>
<path d="m448.4 39.14c0.5742 0 0.957-0.4805 0.957-1.027 0-0.543-0.3828-1.031-0.957-1.031-0.6211 0-0.9414 0.4922-0.9414 1.027 0 0.5312 0.3203 1.031 0.9414 1.031zm-0.09766 0.4727c-0.875 0-1.434-0.6719-1.434-1.504 0-0.8398 0.5742-1.492 1.43-1.492 0.4609 0 0.8125 0.2266 1.012 0.5h0.01172v-2.113h0.5625v4.531h-0.543v-0.4492h-0.01172c-0.2188 0.3438-0.625 0.5273-1.027 0.5273" fill="#231f1f"/>
<path d="m451.3 39.54h-0.5625v-2.84h0.5625zm-0.2812-3.508c-0.2031 0-0.3711-0.1602-0.3711-0.3594 0-0.2031 0.168-0.3672 0.3711-0.3672s0.3789 0.1562 0.3789 0.3672c0 0.2031-0.1758 0.3594-0.3789 0.3594" fill="#231f1f"/>
<path d="m452.8 39.54h-0.5625v-4.531h0.5625v4.531" fill="#231f1f"/>
<path d="m455.4 38.18c-0.5547 0-1.262 0.0625-1.262 0.5391 0 0.3359 0.2969 0.4453 0.5781 0.4453 0.5273 0 0.8203-0.3555 0.8203-0.832v-0.1523zm0.1367-0.4844c0-0.4219-0.2773-0.625-0.6992-0.625-0.3203 0-0.6172 0.1406-0.8086 0.332l-0.3008-0.3594c0.2773-0.2656 0.7031-0.4258 1.164-0.4258 0.8164 0 1.188 0.4844 1.188 1.113v1.242c0 0.1914 0.01172 0.4258 0.03906 0.5625h-0.5078c-0.03125-0.125-0.04688-0.2734-0.04688-0.4062h-0.01953c-0.2031 0.3047-0.5273 0.4805-0.9531 0.4805-0.4492 0-1.031-0.2227-1.031-0.8789 0-0.8555 1.02-0.957 1.977-0.957v-0.07812" fill="#231f1f"/>
<path d="m458.4 37.16h-0.7539v1.48c0 0.3398 0.1172 0.4805 0.4023 0.4805 0.1016 0 0.2305-0.02344 0.3281-0.07422l0.01953 0.4648c-0.1328 0.04688-0.3086 0.07812-0.4805 0.07812-0.5352 0-0.8281-0.3008-0.8281-0.8906v-1.539h-0.5469v-0.4609h0.5469v-0.8164h0.5586v0.8164h0.7539v0.4609" fill="#231f1f"/>
<path d="m460.2 37.09c-0.6055 0-0.9492 0.4883-0.9492 1.027 0 0.5391 0.3438 1.031 0.9492 1.031 0.6094 0 0.9453-0.4922 0.9453-1.031 0-0.5391-0.3359-1.027-0.9453-1.027zm0 2.531c-0.8711 0-1.531-0.6289-1.531-1.504s0.6602-1.492 1.531-1.492c0.8672 0 1.535 0.6172 1.535 1.492s-0.668 1.504-1.535 1.504" fill="#231f1f"/>
<path d="m462.5 36.7h0.5352c0.01172 0.1406 0.02344 0.3594 0.02344 0.4766h0.01953c0.1562-0.3281 0.4844-0.5547 0.8672-0.5547 0.07812 0 0.1562 0.003906 0.2227 0.02344l-0.02344 0.5195c-0.07422-0.01562-0.168-0.02734-0.2578-0.02734-0.5391 0-0.7969 0.4375-0.7969 0.9102v1.492h-0.5625v-2.23c0-0.1484-0.007813-0.4258-0.02734-0.6094" fill="#231f1f"/>
<path d="m415.8 52.17h0.6289c0.582 0 0.9922-0.1914 0.9922-0.6953 0-0.5117-0.4219-0.6797-0.9805-0.6797h-0.6406zm-0.5938-1.879h1.297c0.918 0 1.516 0.3555 1.516 1.184 0 0.8516-0.668 1.199-1.547 1.199h-0.6719v1.863h-0.5938v-4.246" fill="#231f1f"/>
<path d="m420 52.09c-0.6055 0-0.9492 0.4883-0.9492 1.027 0 0.5391 0.3438 1.031 0.9492 1.031 0.6094 0 0.9453-0.4922 0.9453-1.031 0-0.5391-0.3359-1.027-0.9453-1.027zm0 2.531c-0.8711 0-1.531-0.6289-1.531-1.504s0.6602-1.496 1.531-1.496c0.8672 0 1.535 0.6211 1.535 1.496s-0.668 1.504-1.535 1.504" fill="#231f1f"/>
<path d="m423.8 52.42c-0.125-0.2031-0.3711-0.3555-0.6602-0.3555-0.2578 0-0.5234 0.1016-0.5234 0.3711 0 0.2422 0.2148 0.332 0.6445 0.4258 0.5391 0.1211 0.9531 0.3438 0.9531 0.8398 0 0.6719-0.5547 0.918-1.133 0.918-0.4297 0-0.875-0.168-1.145-0.5078l0.4023-0.3438c0.1484 0.2227 0.4375 0.3945 0.7539 0.3945 0.2812 0 0.5664-0.1016 0.5664-0.4141 0-0.2617-0.2578-0.3594-0.7461-0.4727-0.375-0.08984-0.8281-0.25-0.8281-0.7852 0-0.6094 0.5352-0.8711 1.074-0.8711 0.4023 0 0.8281 0.1641 1.031 0.4688l-0.3906 0.332" fill="#231f1f"/>
<path d="m426.3 52.16h-0.7539v1.48c0 0.3398 0.1172 0.4805 0.4023 0.4805 0.1016 0 0.2305-0.02344 0.3281-0.07422l0.01953 0.4648c-0.1328 0.04688-0.3047 0.07812-0.4805 0.07812-0.5352 0-0.8281-0.3008-0.8281-0.8906v-1.539h-0.5469v-0.4609h0.5469v-0.8164h0.5586v0.8164h0.7539v0.4609" fill="#231f1f"/>
<path d="m428.3 52.09c-0.5781 0-0.9609 0.4883-0.9609 1.031 0 0.5469 0.3828 1.027 0.9609 1.027 0.6172 0 0.9492-0.5 0.9492-1.031 0-0.5352-0.332-1.027-0.9492-1.027zm-0.9414 2.004v0.4492h-0.5469v-4.531h0.5664v2.113h0.01562c0.1914-0.2734 0.5469-0.5039 1.012-0.5039 0.8477 0 1.422 0.6562 1.422 1.496 0 0.832-0.5586 1.504-1.434 1.504-0.3984 0-0.8008-0.1836-1.023-0.5273h-0.01172" fill="#231f1f"/>
<path d="m430.5 51.7h0.5352c0.01172 0.1406 0.02344 0.3594 0.02344 0.4766h0.01953c0.1562-0.3281 0.4844-0.5586 0.8672-0.5586 0.07812 0 0.1562 0.007812 0.2227 0.02734l-0.02344 0.5195c-0.07031-0.01562-0.168-0.02734-0.2578-0.02734-0.5391 0-0.7969 0.4375-0.7969 0.9102v1.492h-0.5664v-2.23c0-0.1484-0.003906-0.4258-0.02344-0.6094" fill="#231f1f"/>
<path d="m434 52.09c-0.6055 0-0.9492 0.4883-0.9492 1.027 0 0.5391 0.3438 1.031 0.9492 1.031 0.6133 0 0.9492-0.4922 0.9492-1.031 0-0.5391-0.3359-1.027-0.9492-1.027zm0 2.531c-0.8711 0-1.527-0.6289-1.527-1.504s0.6562-1.496 1.527-1.496c0.8711 0 1.535 0.6211 1.535 1.496s-0.6641 1.504-1.535 1.504" fill="#231f1f"/>
<path d="m436.8 51.7c0.01172 0.1406 0.02734 0.3477 0.02734 0.4648h0.01562c0.1367-0.3047 0.5156-0.5469 0.9258-0.5469 0.7305 0 1.059 0.5234 1.059 1.16v1.762h-0.5625v-1.574c0-0.4648-0.125-0.8711-0.6484-0.8711-0.4453 0-0.7617 0.3711-0.7617 0.9336v1.512h-0.5625v-2.23c0-0.1484-0.007813-0.4258-0.02344-0.6094h0.5312" fill="#231f1f"/>
<path d="m441.7 52.42c-0.1211-0.1875-0.3828-0.3242-0.6523-0.3242-0.5898 0-0.9297 0.4805-0.9297 1.023 0 0.543 0.3398 1.027 0.9336 1.027 0.2891 0 0.5352-0.1211 0.6836-0.3125l0.3789 0.3438c-0.2422 0.2734-0.6055 0.4414-1.062 0.4414-0.875 0-1.527-0.5938-1.527-1.5 0-0.8906 0.6484-1.5 1.516-1.5 0.4023 0 0.832 0.1641 1.066 0.4688l-0.4062 0.332" fill="#231f1f"/>
<path d="m443.2 52.13c0.1328-0.2812 0.4922-0.5117 0.9023-0.5117 0.7305 0 1.059 0.5234 1.059 1.16v1.762h-0.5625v-1.57c0-0.4609-0.1211-0.8711-0.6406-0.8711-0.4453 0-0.7695 0.375-0.7695 0.9375v1.504h-0.5625v-4.531h0.5625v2.121h0.01172" fill="#231f1f"/>
<path d="m447.4 52.09c-0.6055 0-0.9453 0.4883-0.9453 1.027 0 0.5391 0.3398 1.031 0.9453 1.031 0.6133 0 0.9492-0.4922 0.9492-1.031 0-0.5391-0.3359-1.027-0.9492-1.027zm0 2.531c-0.8672 0-1.527-0.6289-1.527-1.504s0.6602-1.496 1.527-1.496c0.8711 0 1.535 0.6211 1.535 1.496s-0.6641 1.504-1.535 1.504" fill="#231f1f"/>
<path d="m451 54.14c0.5781 0 0.9609-0.4805 0.9609-1.027 0-0.543-0.3828-1.031-0.9609-1.031-0.6172 0-0.9414 0.4922-0.9414 1.027 0 0.5312 0.3242 1.031 0.9414 1.031zm-0.09375 0.4727c-0.875 0-1.434-0.6719-1.434-1.504 0-0.8398 0.5742-1.496 1.426-1.496 0.4648 0 0.8164 0.2305 1.016 0.5039h0.01172v-2.113h0.5625v4.531h-0.543v-0.4492h-0.01562c-0.2148 0.3438-0.6211 0.5273-1.023 0.5273" fill="#231f1f"/>
<path d="m454 54.54h-0.5664v-2.84h0.5664zm-0.2812-3.508c-0.207 0-0.375-0.1602-0.375-0.3594 0-0.2031 0.168-0.3672 0.375-0.3672 0.2031 0 0.375 0.1562 0.375 0.3672 0 0.2031-0.1719 0.3594-0.375 0.3594" fill="#231f1f"/>
<path d="m455.5 54.54h-0.5664v-4.531h0.5664v4.531" fill="#231f1f"/>
<path d="m458 53.18c-0.5586 0-1.266 0.05859-1.266 0.5391 0 0.3359 0.3008 0.4453 0.582 0.4453 0.5273 0 0.8203-0.3555 0.8203-0.832v-0.1523zm0.1367-0.4844c0-0.4219-0.2812-0.625-0.6992-0.625-0.3203 0-0.6172 0.1406-0.8125 0.332l-0.2969-0.3594c0.2734-0.2656 0.6992-0.4297 1.16-0.4297 0.8164 0 1.191 0.4883 1.191 1.117v1.242c0 0.1914 0.01172 0.4258 0.03906 0.5625h-0.5078c-0.03125-0.125-0.05078-0.2734-0.05078-0.4062h-0.01562c-0.2031 0.3047-0.5273 0.4805-0.9531 0.4805-0.4492 0-1.031-0.2227-1.031-0.8789 0-0.8555 1.02-0.957 1.977-0.957v-0.07812" fill="#231f1f"/>
<path d="m461 52.16h-0.7578v1.48c0 0.3398 0.1211 0.4805 0.4023 0.4805 0.1016 0 0.2344-0.02344 0.332-0.07422l0.01562 0.4648c-0.1289 0.04688-0.3047 0.07812-0.4805 0.07812-0.5312 0-0.8242-0.3008-0.8242-0.8906v-1.539h-0.5469v-0.4609h0.5469v-0.8164h0.5547v0.8164h0.7578v0.4609" fill="#231f1f"/>
<path d="m462.9 52.09c-0.6094 0-0.9492 0.4883-0.9492 1.027 0 0.5391 0.3398 1.031 0.9492 1.031 0.6094 0 0.9453-0.4922 0.9453-1.031 0-0.5391-0.3359-1.027-0.9453-1.027zm0 2.531c-0.8711 0-1.531-0.6289-1.531-1.504s0.6602-1.496 1.531-1.496c0.8672 0 1.535 0.6211 1.535 1.496s-0.668 1.504-1.535 1.504" fill="#231f1f"/>
<g clip-path="url(#a)">
<path d="m465.1 51.7h0.5352c0.01172 0.1406 0.02344 0.3594 0.02344 0.4766h0.01562c0.1562-0.3281 0.4883-0.5586 0.8711-0.5586 0.07812 0 0.1562 0.007812 0.2227 0.02734l-0.02344 0.5195c-0.07422-0.01562-0.168-0.02734-0.2578-0.02734-0.5391 0-0.7969 0.4375-0.7969 0.9102v1.492h-0.5664v-2.23c0-0.1484-0.003907-0.4258-0.02344-0.6094" fill="#231f1f"/>
</g>
<path transform="matrix(.1 0 0 -.1 0 353.6)" d="m4105 3160h-182.3" fill="none" stroke="#231f1f" stroke-width="10"/>
<path transform="matrix(.1 0 0 -.1 0 353.6)" d="m4105 3011h-182.3" fill="none" stroke="#231f1f" stroke-dasharray="20.23,20.2348,20.2348,20.2348,20.2348,20.2348" stroke-width="10"/>
<path d="m144.2 230.3h0.6289c0.582 0 0.9883-0.1914 0.9883-0.6953 0-0.5078-0.4219-0.6758-0.9766-0.6758h-0.6406zm-0.5977-1.875h1.297c0.918 0 1.52 0.3516 1.52 1.18 0 0.8516-0.668 1.199-1.547 1.199h-0.6719v1.863h-0.5977v-4.242" fill="#231f1f"/>
<path d="m147.1 229.9h0.5352c0.01172 0.1445 0.02344 0.3594 0.02344 0.4805h0.01953c0.1562-0.332 0.4844-0.5586 0.8672-0.5586 0.07812 0 0.1562 0.003906 0.2227 0.02344l-0.02344 0.5195c-0.07031-0.01562-0.168-0.02734-0.2578-0.02734-0.5391 0-0.7969 0.4375-0.7969 0.9102v1.492h-0.5664v-2.23c0-0.1484-0.003906-0.4258-0.02344-0.6094" fill="#231f1f"/>
<path d="m151.3 231c-0.01172-0.4492-0.2773-0.8047-0.7969-0.8047-0.4883 0-0.8594 0.3633-0.8945 0.8047zm0.5625 0.4219h-2.254c0.01562 0.4844 0.4258 0.8633 0.9219 0.8633 0.3828 0 0.668-0.1953 0.8281-0.4336l0.3945 0.3164c-0.3047 0.3984-0.7188 0.582-1.223 0.582-0.8633 0-1.5-0.5977-1.5-1.492 0-0.8867 0.6367-1.504 1.473-1.504 0.8359 0 1.367 0.5703 1.367 1.477 0 0.05859 0 0.125-0.007813 0.1914" fill="#231f1f"/>
<path d="m154.1 230.3c-0.5781 0-0.9609 0.4844-0.9609 1.031 0 0.543 0.3828 1.023 0.9609 1.023 0.6172 0 0.9453-0.4961 0.9453-1.031s-0.3281-1.023-0.9453-1.023zm-0.9414 2v0.4492h-0.5469v-4.531h0.5625v2.117h0.01953c0.1914-0.2773 0.5469-0.5039 1.012-0.5039 0.8477 0 1.422 0.6523 1.422 1.492 0 0.832-0.5586 1.504-1.434 1.504-0.4023 0-0.8008-0.1836-1.023-0.5273h-0.01172" fill="#231f1f"/>
<path d="m156.3 229.9h0.5352c0.01172 0.1445 0.02344 0.3594 0.02344 0.4805h0.01953c0.1562-0.332 0.4844-0.5586 0.8672-0.5586 0.07812 0 0.1562 0.003906 0.2227 0.02344l-0.02344 0.5195c-0.07422-0.01562-0.168-0.02734-0.2578-0.02734-0.5391 0-0.7969 0.4375-0.7969 0.9102v1.492h-0.5664v-2.23c0-0.1484-0.003906-0.4258-0.02344-0.6094" fill="#231f1f"/>
<path d="m159.8 230.3c-0.6055 0-0.9492 0.4844-0.9492 1.023 0 0.5391 0.3438 1.031 0.9492 1.031 0.6094 0 0.9453-0.4922 0.9453-1.031 0-0.5391-0.3359-1.023-0.9453-1.023zm0 2.527c-0.8711 0-1.531-0.6289-1.531-1.504s0.6602-1.492 1.531-1.492c0.8672 0 1.535 0.6172 1.535 1.492s-0.668 1.504-1.535 1.504" fill="#231f1f"/>
<path d="m162.6 229.9c0.01172 0.1445 0.02344 0.3477 0.02344 0.4648h0.01953c0.1367-0.3047 0.5156-0.543 0.9219-0.543 0.7344 0 1.062 0.5195 1.062 1.156v1.762h-0.5625v-1.574c0-0.4648-0.1289-0.8711-0.6484-0.8711-0.4453 0-0.7617 0.3711-0.7617 0.9375v1.508h-0.5625v-2.23c0-0.1484-0.007813-0.4258-0.02734-0.6094h0.5352" fill="#231f1f"/>
<path d="m167.5 230.6c-0.1211-0.1875-0.3828-0.3242-0.6562-0.3242-0.5859 0-0.9258 0.4805-0.9258 1.027 0 0.5391 0.3398 1.023 0.9336 1.023 0.2891 0 0.5352-0.1211 0.6836-0.3125l0.3789 0.3438c-0.2422 0.2734-0.6055 0.4414-1.062 0.4414-0.875 0-1.527-0.5938-1.527-1.496 0-0.8945 0.6445-1.5 1.516-1.5 0.4023 0 0.832 0.1602 1.066 0.4688l-0.4062 0.3281" fill="#231f1f"/>
<path d="m169 230.3c0.1328-0.2812 0.4922-0.5078 0.8984-0.5078 0.7344 0 1.062 0.5195 1.062 1.156v1.762h-0.5625v-1.57c0-0.4609-0.1211-0.8672-0.6445-0.8672-0.4414 0-0.7656 0.3711-0.7656 0.9336v1.504h-0.5625v-4.531h0.5625v2.121h0.01172" fill="#231f1f"/>
<path d="m173.2 230.3c-0.6055 0-0.9453 0.4844-0.9453 1.023 0 0.5391 0.3398 1.031 0.9453 1.031 0.6133 0 0.9492-0.4922 0.9492-1.031 0-0.5391-0.3359-1.023-0.9492-1.023zm0 2.527c-0.8672 0-1.527-0.6289-1.527-1.504s0.6602-1.492 1.527-1.492c0.8711 0 1.535 0.6172 1.535 1.492s-0.6641 1.504-1.535 1.504" fill="#231f1f"/>
<path d="m176.8 232.3c0.5781 0 0.9609-0.4805 0.9609-1.023 0-0.5469-0.3828-1.031-0.9609-1.031-0.6172 0-0.9414 0.4883-0.9414 1.023s0.3242 1.031 0.9414 1.031zm-0.09375 0.4727c-0.875 0-1.434-0.6719-1.434-1.504 0-0.8398 0.5742-1.492 1.426-1.492 0.4609 0 0.8164 0.2266 1.016 0.5039h0.007812v-2.117h0.5664v4.531h-0.5469v-0.4492h-0.01172c-0.2148 0.3438-0.625 0.5273-1.023 0.5273" fill="#231f1f"/>
<path d="m179.8 232.7h-0.5664v-2.84h0.5664zm-0.2812-3.508c-0.207 0-0.375-0.1602-0.375-0.3594 0-0.2031 0.168-0.3633 0.375-0.3633 0.2031 0 0.375 0.1562 0.375 0.3633 0 0.2031-0.1719 0.3594-0.375 0.3594" fill="#231f1f"/>
<path d="m181.3 232.7h-0.5664v-4.531h0.5664v4.531" fill="#231f1f"/>
<path d="m183.8 231.4c-0.5586 0-1.266 0.05859-1.266 0.5391 0 0.3359 0.3008 0.4414 0.582 0.4414 0.5273 0 0.8203-0.3516 0.8203-0.832v-0.1484zm0.1367-0.4883c0-0.418-0.2812-0.625-0.7031-0.625-0.3164 0-0.6172 0.1406-0.8086 0.332l-0.2969-0.3594c0.2734-0.2656 0.6992-0.4258 1.16-0.4258 0.8164 0 1.188 0.4844 1.188 1.113v1.242c0 0.1914 0.01172 0.4258 0.04297 0.5625h-0.5078c-0.03125-0.125-0.05078-0.2734-0.05078-0.4062h-0.01562c-0.207 0.3047-0.5273 0.4805-0.957 0.4805-0.4492 0-1.027-0.2227-1.027-0.875 0-0.8594 1.016-0.9609 1.977-0.9609v-0.07812" fill="#231f1f"/>
<path d="m186.8 230.3h-0.7578v1.48c0 0.3438 0.1211 0.4805 0.4023 0.4805 0.1016 0 0.2344-0.02344 0.3281-0.07031l0.01953 0.4609c-0.1328 0.04688-0.3047 0.07812-0.4805 0.07812-0.5352 0-0.8281-0.3008-0.8281-0.8867v-1.543h-0.543v-0.4609h0.543v-0.8164h0.5586v0.8164h0.7578v0.4609" fill="#231f1f"/>
<path d="m188.6 230.3c-0.6055 0-0.9453 0.4844-0.9453 1.023 0 0.5391 0.3398 1.031 0.9453 1.031 0.6133 0 0.9492-0.4922 0.9492-1.031 0-0.5391-0.3359-1.023-0.9492-1.023zm0 2.527c-0.8672 0-1.527-0.6289-1.527-1.504s0.6602-1.492 1.527-1.492c0.8711 0 1.535 0.6172 1.535 1.492s-0.6641 1.504-1.535 1.504" fill="#231f1f"/>
<path d="m190.9 229.9h0.5312c0.01172 0.1445 0.02344 0.3594 0.02344 0.4805h0.01953c0.1562-0.332 0.4883-0.5586 0.8711-0.5586 0.07812 0 0.1562 0.003906 0.2188 0.02344l-0.02344 0.5195c-0.07031-0.01562-0.168-0.02734-0.2578-0.02734-0.5391 0-0.7969 0.4375-0.7969 0.9102v1.492h-0.5625v-2.23c0-0.1484-0.007812-0.4258-0.02344-0.6094" fill="#231f1f"/>
<path d="m144.2 245.3h0.6289c0.582 0 0.9883-0.1914 0.9883-0.6953 0-0.5078-0.4219-0.6758-0.9766-0.6758h-0.6406zm-0.5977-1.875h1.297c0.918 0 1.52 0.3516 1.52 1.18 0 0.8516-0.668 1.199-1.547 1.199h-0.6719v1.863h-0.5977v-4.242" fill="#231f1f"/>
<path d="m148.4 245.3c-0.6055 0-0.9453 0.4844-0.9453 1.023 0 0.5391 0.3398 1.031 0.9453 1.031 0.6133 0 0.9492-0.4922 0.9492-1.031 0-0.5391-0.3359-1.023-0.9492-1.023zm0 2.527c-0.8672 0-1.527-0.6289-1.527-1.504s0.6602-1.492 1.527-1.492c0.8711 0 1.535 0.6172 1.535 1.492s-0.6641 1.504-1.535 1.504" fill="#231f1f"/>
<path d="m152.2 245.6c-0.125-0.2031-0.3711-0.3555-0.6602-0.3555-0.2578 0-0.5273 0.1016-0.5273 0.375 0 0.2383 0.2148 0.3281 0.6484 0.4258 0.5391 0.1172 0.9531 0.3398 0.9531 0.8398 0 0.668-0.5586 0.9141-1.133 0.9141-0.4336 0-0.875-0.168-1.148-0.5078l0.4023-0.3398c0.1523 0.2188 0.4375 0.3945 0.7578 0.3945 0.2812 0 0.5625-0.1016 0.5625-0.4141 0-0.2656-0.2578-0.3594-0.7422-0.4727-0.3789-0.08984-0.8281-0.2539-0.8281-0.7891 0-0.6094 0.5352-0.8672 1.074-0.8672 0.3984 0 0.8242 0.1602 1.031 0.4688l-0.3906 0.3281" fill="#231f1f"/>
<path d="m154.7 245.3h-0.7578v1.48c0 0.3438 0.1211 0.4805 0.4023 0.4805 0.1016 0 0.2344-0.02344 0.332-0.07031l0.01562 0.4609c-0.1328 0.04688-0.3047 0.07812-0.4805 0.07812-0.5312 0-0.8242-0.3008-0.8242-0.8867v-1.543h-0.5469v-0.4609h0.5469v-0.8164h0.5547v0.8164h0.7578v0.4609" fill="#231f1f"/>
<path d="m156.7 245.3c-0.5742 0-0.957 0.4844-0.957 1.031 0 0.543 0.3828 1.023 0.957 1.023 0.6172 0 0.9492-0.4961 0.9492-1.031s-0.332-1.023-0.9492-1.023zm-0.9414 2v0.4492h-0.543v-4.531h0.5625v2.117h0.01953c0.1914-0.2773 0.543-0.5039 1.012-0.5039 0.8438 0 1.422 0.6523 1.422 1.492 0 0.832-0.5586 1.504-1.434 1.504-0.4023 0-0.8047-0.1836-1.027-0.5273h-0.01172" fill="#231f1f"/>
<path d="m158.9 244.9h0.5352c0.01172 0.1445 0.02344 0.3594 0.02344 0.4805h0.01562c0.1562-0.332 0.4883-0.5586 0.8711-0.5586 0.07812 0 0.1562 0.003906 0.2227 0.02344l-0.02344 0.5195c-0.07422-0.01562-0.168-0.02734-0.2617-0.02734-0.5391 0-0.7969 0.4375-0.7969 0.9102v1.492h-0.5625v-2.23c0-0.1484-0.003906-0.4258-0.02344-0.6094" fill="#231f1f"/>
<path d="m162.4 245.3c-0.6094 0-0.9492 0.4844-0.9492 1.023 0 0.5391 0.3398 1.031 0.9492 1.031s0.9453-0.4922 0.9453-1.031c0-0.5391-0.3359-1.023-0.9453-1.023zm0 2.527c-0.8711 0-1.531-0.6289-1.531-1.504s0.6602-1.492 1.531-1.492c0.8672 0 1.535 0.6172 1.535 1.492s-0.668 1.504-1.535 1.504" fill="#231f1f"/>
<path d="m165.2 244.9c0.01172 0.1445 0.02344 0.3477 0.02344 0.4648h0.01562c0.1406-0.3047 0.5156-0.543 0.9258-0.543 0.7305 0 1.062 0.5195 1.062 1.156v1.762h-0.5664v-1.574c0-0.4648-0.125-0.8711-0.6445-0.8711-0.4453 0-0.7617 0.3711-0.7617 0.9375v1.508h-0.5664v-2.23c0-0.1484-0.003907-0.4258-0.02344-0.6094h0.5352" fill="#231f1f"/>
<path d="m170.1 245.6c-0.1211-0.1875-0.3867-0.3242-0.6562-0.3242-0.5859 0-0.9297 0.4805-0.9297 1.027 0 0.5391 0.3438 1.023 0.9375 1.023 0.2852 0 0.5312-0.1211 0.6836-0.3125l0.3789 0.3438c-0.2422 0.2734-0.6094 0.4414-1.062 0.4414-0.875 0-1.531-0.5938-1.531-1.496 0-0.8945 0.6484-1.5 1.52-1.5 0.4023 0 0.832 0.1602 1.066 0.4688l-0.4062 0.3281" fill="#231f1f"/>
<path d="m171.6 245.3c0.1289-0.2812 0.4922-0.5078 0.8984-0.5078 0.7305 0 1.062 0.5195 1.062 1.156v1.762h-0.5664v-1.57c0-0.4609-0.1172-0.8672-0.6406-0.8672-0.4453 0-0.7656 0.3711-0.7656 0.9336v1.504h-0.5664v-4.531h0.5664v2.121h0.01172" fill="#231f1f"/>
<path d="m175.8 245.3c-0.6055 0-0.9492 0.4844-0.9492 1.023 0 0.5391 0.3438 1.031 0.9492 1.031 0.6094 0 0.9453-0.4922 0.9453-1.031 0-0.5391-0.3359-1.023-0.9453-1.023zm0 2.527c-0.8711 0-1.531-0.6289-1.531-1.504s0.6602-1.492 1.531-1.492c0.8672 0 1.535 0.6172 1.535 1.492s-0.668 1.504-1.535 1.504" fill="#231f1f"/>
<path d="m179.4 247.3c0.5742 0 0.957-0.4805 0.957-1.023 0-0.5469-0.3828-1.031-0.957-1.031-0.6172 0-0.9414 0.4883-0.9414 1.023s0.3242 1.031 0.9414 1.031zm-0.09766 0.4727c-0.875 0-1.434-0.6719-1.434-1.504 0-0.8398 0.5781-1.492 1.43-1.492 0.4609 0 0.8125 0.2266 1.012 0.5039h0.01172v-2.117h0.5664v4.531h-0.5469v-0.4492h-0.01172c-0.2188 0.3438-0.625 0.5273-1.027 0.5273" fill="#231f1f"/>
<path d="m182.4 247.7h-0.5625v-2.84h0.5625zm-0.2812-3.508c-0.2031 0-0.3711-0.1602-0.3711-0.3594 0-0.2031 0.168-0.3633 0.3711-0.3633s0.3789 0.1562 0.3789 0.3633c0 0.2031-0.1758 0.3594-0.3789 0.3594" fill="#231f1f"/>
<path d="m183.9 247.7h-0.5625v-4.531h0.5625v4.531" fill="#231f1f"/>
<path d="m186.4 246.4c-0.5586 0-1.266 0.05859-1.266 0.5391 0 0.3359 0.2969 0.4414 0.582 0.4414 0.5273 0 0.8203-0.3516 0.8203-0.832v-0.1484zm0.1367-0.4883c0-0.418-0.2812-0.625-0.7031-0.625-0.3164 0-0.6172 0.1406-0.8086 0.332l-0.3008-0.3594c0.2773-0.2656 0.7031-0.4258 1.164-0.4258 0.8164 0 1.188 0.4844 1.188 1.113v1.242c0 0.1914 0.01172 0.4258 0.04297 0.5625h-0.5117c-0.02734-0.125-0.04688-0.2734-0.04688-0.4062h-0.01953c-0.2031 0.3047-0.5273 0.4805-0.9531 0.4805-0.4492 0-1.031-0.2227-1.031-0.875 0-0.8594 1.02-0.9609 1.98-0.9609v-0.07812" fill="#231f1f"/>
<path d="m189.4 245.3h-0.7539v1.48c0 0.3438 0.1211 0.4805 0.4023 0.4805 0.1016 0 0.2344-0.02344 0.3281-0.07031l0.01953 0.4609c-0.1328 0.04688-0.3086 0.07812-0.4805 0.07812-0.5352 0-0.8281-0.3008-0.8281-0.8867v-1.543h-0.5469v-0.4609h0.5469v-0.8164h0.5586v0.8164h0.7539v0.4609" fill="#231f1f"/>
<path d="m191.3 245.3c-0.6055 0-0.9492 0.4844-0.9492 1.023 0 0.5391 0.3438 1.031 0.9492 1.031 0.6094 0 0.9453-0.4922 0.9453-1.031 0-0.5391-0.3359-1.023-0.9453-1.023zm0 2.527c-0.8711 0-1.527-0.6289-1.527-1.504s0.6562-1.492 1.527-1.492c0.8672 0 1.535 0.6172 1.535 1.492s-0.668 1.504-1.535 1.504" fill="#231f1f"/>
<path d="m193.5 244.9h0.5352c0.01172 0.1445 0.02344 0.3594 0.02344 0.4805h0.01953c0.1562-0.332 0.4844-0.5586 0.8711-0.5586 0.07422 0 0.1523 0.003906 0.2188 0.02344l-0.02344 0.5195c-0.07031-0.01562-0.168-0.02734-0.2578-0.02734-0.5391 0-0.7969 0.4375-0.7969 0.9102v1.492h-0.5625v-2.23c0-0.1484-0.007813-0.4258-0.02734-0.6094" fill="#231f1f"/>
<path transform="matrix(.1 0 0 -.1 0 353.6)" d="m1389 1228h-182.3" fill="none" stroke="#231f1f" stroke-width="10"/>
<path transform="matrix(.1 0 0 -.1 0 353.6)" d="m1389 1079h-182.3" fill="none" stroke="#231f1f" stroke-dasharray="20.23,20.2348,20.2348,20.2348,20.2348,20.2348" stroke-width="10"/>
</svg>
