<?xml version="1.0" encoding="UTF-8"?>
<svg width="327.4pt" height="242.5pt" version="1.1" viewBox="0 0 327.4 242.5" xmlns="http://www.w3.org/2000/svg">
<defs>
<clipPath id="d">
<path d="m281 218h46.44v18h-46.44z"/>
</clipPath>
<clipPath id="c">
<path d="m281 218h46.44v19h-46.44z"/>
</clipPath>
<clipPath id="b">
<path d="m51 219h43v23.51h-43z"/>
</clipPath>
<clipPath id="a">
<path d="m102 218h55v24.51h-55z"/>
</clipPath>
</defs>
<path d="m46 236.8h-45.75v-17.25h45.75v17.25" fill="#fef0ca"/>
<path transform="matrix(.1 0 0 -.1 0 242.5)" d="m460 57.48h-457.5v172.5h457.5z" fill="none" stroke="#231f1f" stroke-width="5"/>
<g clip-path="url(#d)">
<path d="m327.2 235.8h-45.75v-17.25h45.75v17.25" fill="#fef0ca"/>
</g>
<g clip-path="url(#c)">
<path transform="matrix(.1 0 0 -.1 0 242.5)" d="m3272 67.48h-457.5v172.5h457.5z" fill="none" stroke="#231f1f" stroke-width="5"/>
</g>
<path d="m71.17 68.32h-45.75v-17.25h45.75v17.25" fill="#fef0ca"/>
<path transform="matrix(.1 0 0 -.1 0 242.5)" d="m711.7 1742h-457.5v172.5h457.5z" fill="none" stroke="#231f1f" stroke-width="5"/>
<path d="m302.3 68.32h-45.75v-17.25h45.75v17.25" fill="#fef0ca"/>
<path transform="matrix(.1 0 0 -.1 0 242.5)" d="m3023 1742h-457.5v172.5h457.5z" fill="none" stroke="#231f1f" stroke-width="5"/>
<path d="m302 112.7h-45.75v-17.25h45.75v17.25" fill="#fef0ca"/>
<path transform="matrix(.1 0 0 -.1 0 242.5)" d="m3020 1298h-457.5v172.5h457.5z" fill="none" stroke="#231f1f" stroke-width="5"/>
<path d="m183.1 114h-45.75v-17.25h45.75v17.25" fill="#fef0ca"/>
<path transform="matrix(.1 0 0 -.1 0 242.5)" d="m1831 1286h-457.5v172.5h457.5z" fill="none" stroke="#231f1f" stroke-width="5"/>
<path d="m71.17 158.3h-45.75v-17.25h45.75v17.25" fill="#fef0ca"/>
<path transform="matrix(.1 0 0 -.1 0 242.5)" d="m711.7 842.1h-457.5v172.5h457.5z" fill="none" stroke="#231f1f" stroke-width="5"/>
<path d="m183.1 158.3h-45.75v-17.25h45.75v17.25" fill="#fef0ca"/>
<path transform="matrix(.1 0 0 -.1 0 242.5)" d="m1831 842.1h-457.5v172.5h457.5z" fill="none" stroke="#231f1f" stroke-width="5"/>
<path d="m276.5 158.2h-45.75v-17.25h45.75v17.25" fill="#fef0ca"/>
<path transform="matrix(.1 0 0 -.1 0 242.5)" d="m2765 843.3h-457.5v172.5h457.5z" fill="none" stroke="#231f1f" stroke-width="5"/>
<path d="m276.5 191.3h-45.75v-17.25h45.75v17.25" fill="#fef0ca"/>
<path transform="matrix(.1 0 0 -.1 0 242.5)" d="m2765 512.5h-457.5v172.5h457.5z" fill="none" stroke="#231f1f" stroke-width="5"/>
<path d="m183.1 191h-45.75v-17.25h45.75v17.25" fill="#fef0ca"/>
<path transform="matrix(.1 0 0 -.1 0 242.5)" d="m1831 515.1h-457.5v172.5h457.5z" fill="none" stroke="#231f1f" stroke-width="5"/>
<path d="m71.17 191.2h-45.75v-17.25h45.75v17.25" fill="#fef0ca"/>
<path transform="matrix(.1 0 0 -.1 0 242.5)" d="m711.7 512.8h-457.5v172.5h457.5z" fill="none" stroke="#231f1f" stroke-width="5"/>
<path d="m323.3 163.9h-42v-23h42v23" fill="#fef0ca"/>
<path transform="matrix(.1 0 0 -.1 0 242.5)" d="m3233 786.2h-420v230h420z" fill="none" stroke="#231f1f" stroke-width="5"/>
<g clip-path="url(#b)">
<path d="m93.31 242.3h-42v-23h42v23" fill="#fef0ca"/>
<path transform="matrix(.1 0 0 -.1 0 242.5)" d="m933.1 2.483h-420v230h420z" fill="none" stroke="#231f1f" stroke-width="5"/>
</g>
<path d="m156.1 241.9h-53.5v-23h53.5v23" fill="#fef0ca"/>
<g clip-path="url(#a)">
<path transform="matrix(.1 0 0 -.1 0 242.5)" d="m1561 5.998h-535v230h535z" fill="none" stroke="#231f1f" stroke-width="5"/>
</g>
<path d="m213.9 241.7h-53.5v-23h53.5v23" fill="#fef0ca"/>
<path transform="matrix(.1 0 0 -.1 0 242.5)" d="m2139 8.498h-535v230h535z" fill="none" stroke="#231f1f" stroke-width="5"/>
<path d="m276.2 241.5h-53.5v-23h53.5v23" fill="#fef0ca"/>
<path transform="matrix(.1 0 0 -.1 0 242.5)" d="m2762 9.983h-535v230h535z" fill="none" stroke="#231f1f" stroke-width="5"/>
<path d="m184.2 23.25h-42v-23h42v23" fill="#fef0ca"/>
<path transform="matrix(.1 0 0 -.1 0 242.5)" d="m1842 2193h-420v230h420z" fill="none" stroke="#231f1f" stroke-width="5"/>
<path d="m35.51 60.91h0.01953l1.492-4.062h0.75l-1.949 4.957h-0.6445l-1.934-4.957h0.7734l1.492 4.062" fill="#231f1f"/>
<path d="m42.52 61.04c-0.3828 0.5273-1.02 0.8984-1.891 0.8984-1.52 0-2.609-1.086-2.609-2.613 0-1.547 1.133-2.598 2.637-2.598 0.6797 0 1.418 0.2656 1.781 0.7695l-0.5469 0.418c-0.2383-0.3359-0.7227-0.5781-1.234-0.5781-1.145 0-1.883 0.9023-1.883 1.988 0 1.113 0.7227 1.996 1.863 1.996 0.5547 0 1.035-0.2305 1.332-0.6602l0.5508 0.3789" fill="#231f1f"/>
<path d="m44.92 61.75v-0.5898h3.586v0.5898zm0-0.8555v-0.6133l2.781-0.9414-2.781-0.957v-0.625l3.586 1.281v0.6016l-3.586 1.254" fill="#231f1f"/>
<path d="m52.09 61.19h2.211v0.6133h-2.906v-4.957h0.6953v4.344" fill="#231f1f"/>
<path d="m55.66 61.19h2.215v0.6133h-2.906v-4.957h0.6914v4.344" fill="#231f1f"/>
<path d="m62.04 60.81h0.01563v-3.965h0.6914v4.957h-0.875l-2.617-4.047h-0.01562v4.047h-0.6914v-4.957h0.9023l2.59 3.965" fill="#231f1f"/>
<path d="m266.7 60.91h0.02344l1.488-4.062h0.75l-1.945 4.957h-0.6445l-1.934-4.957h0.7695l1.492 4.062" fill="#231f1f"/>
<path d="m273.7 61.04c-0.3828 0.5273-1.023 0.8984-1.891 0.8984-1.52 0-2.613-1.086-2.613-2.613 0-1.547 1.137-2.598 2.641-2.598 0.6797 0 1.414 0.2656 1.781 0.7695l-0.5469 0.418c-0.2383-0.3359-0.7227-0.5781-1.234-0.5781-1.148 0-1.883 0.9023-1.883 1.988 0 1.113 0.7227 1.996 1.863 1.996 0.5547 0 1.035-0.2305 1.332-0.6602l0.5508 0.3789" fill="#231f1f"/>
<path d="m276.1 61.75v-0.5898h3.586v0.5898zm0-0.8555v-0.6133l2.781-0.9414-2.781-0.957v-0.625l3.586 1.281v0.6016l-3.586 1.254" fill="#231f1f"/>
<path d="m283.2 61.19h2.211v0.6133h-2.906v-4.957h0.6953v4.344" fill="#231f1f"/>
<path d="m286.8 61.19h2.215v0.6133h-2.906v-4.957h0.6914v4.344" fill="#231f1f"/>
<path d="m293.2 60.81h0.01562v-3.965h0.6914v4.957h-0.875l-2.621-4.047h-0.01172v4.047h-0.6914v-4.957h0.9023l2.59 3.965" fill="#231f1f"/>
<path d="m146 107.4h-0.6953v-4.348h-1.586v-0.6094h3.871v0.6094h-1.59v4.348" fill="#231f1f"/>
<path d="m149 106.8h2.215v0.6172h-2.906v-4.957h0.6914v4.34" fill="#231f1f"/>
<path d="m155.9 106.7c-0.3828 0.5234-1.02 0.8945-1.891 0.8945-1.52 0-2.613-1.086-2.613-2.609 0-1.551 1.137-2.602 2.641-2.602 0.6797 0 1.414 0.2695 1.781 0.7734l-0.5469 0.418c-0.2383-0.3359-0.7227-0.5781-1.234-0.5781-1.148 0-1.883 0.9023-1.883 1.988 0 1.113 0.7227 1.996 1.863 1.996 0.5547 0 1.035-0.2305 1.328-0.6602l0.5547 0.3789" fill="#231f1f"/>
<path d="m158.3 107.4v-0.5898h3.586v0.5898zm0-0.8555v-0.6133l2.777-0.9414-2.777-0.957v-0.625l3.586 1.281v0.6016l-3.586 1.254" fill="#231f1f"/>
<path d="m165.5 106.8h2.211v0.6172h-2.906v-4.957h0.6953v4.34" fill="#231f1f"/>
<path d="m169 106.8h2.215v0.6172h-2.906v-4.957h0.6914v4.34" fill="#231f1f"/>
<path d="m175.4 106.5h0.01562v-3.965h0.6914v4.957h-0.875l-2.617-4.047h-0.01562v4.047h-0.6953v-4.957h0.9062l2.59 3.965" fill="#231f1f"/>
<path d="m265 106.2h-0.6914v-4.352h-1.59v-0.6094h3.871v0.6094h-1.59v4.352" fill="#231f1f"/>
<path d="m267.9 105.6h2.215v0.6172h-2.91v-4.961h0.6953v4.344" fill="#231f1f"/>
<path d="m274.8 105.4c-0.3828 0.5234-1.02 0.8945-1.891 0.8945-1.52 0-2.609-1.086-2.609-2.609 0-1.551 1.133-2.602 2.641-2.602 0.6758 0 1.414 0.2695 1.777 0.7734l-0.5469 0.418c-0.2383-0.3359-0.7227-0.582-1.23-0.582-1.148 0-1.887 0.9062-1.887 1.992 0 1.113 0.7227 1.996 1.863 1.996 0.5547 0 1.039-0.2344 1.332-0.6602l0.5508 0.3789" fill="#231f1f"/>
<path d="m277.2 106.2v-0.5898h3.586v0.5898zm0-0.8555v-0.6172l2.781-0.9375-2.781-0.9609v-0.6211l3.586 1.281v0.6016l-3.586 1.254" fill="#231f1f"/>
<path d="m284.4 105.6h2.211v0.6172h-2.902v-4.961h0.6914v4.344" fill="#231f1f"/>
<path d="m288 105.6h2.215v0.6172h-2.906v-4.961h0.6914v4.344" fill="#231f1f"/>
<path d="m294.4 105.2h0.01562v-3.969h0.6914v4.961h-0.875l-2.617-4.047h-0.01562v4.047h-0.6914v-4.961h0.9023l2.59 3.969" fill="#231f1f"/>
<path d="m40.38 150.8h0.01562v-3.965h0.6914v4.957h-0.875l-2.621-4.047h-0.01172v4.047h-0.6953v-4.957h0.9062l2.59 3.965" fill="#231f1f"/>
<path d="m43.82 148.9c-0.7109 0-1.109 0.5664-1.109 1.199 0 0.6289 0.3984 1.203 1.109 1.203 0.7109 0 1.105-0.5742 1.105-1.203 0-0.6328-0.3945-1.199-1.105-1.199zm0 2.957c-1.02 0-1.789-0.7344-1.789-1.758s0.7695-1.746 1.789-1.746c1.012 0 1.789 0.7227 1.789 1.746s-0.7773 1.758-1.789 1.758" fill="#231f1f"/>
<path d="m46.5 148.5h0.6211c0.01562 0.168 0.03125 0.418 0.03125 0.5586h0.01953c0.1797-0.3828 0.5664-0.6523 1.016-0.6523 0.08984 0 0.1797 0.007813 0.2578 0.02734l-0.02734 0.6133c-0.08203-0.02344-0.1953-0.03906-0.3008-0.03906-0.6328 0-0.9336 0.5117-0.9336 1.066v1.742h-0.6562v-2.602c0-0.1758-0.007813-0.5-0.02734-0.7148" fill="#231f1f"/>
<path d="m50.76 148.4c0.4414 0 0.8281 0.1953 1.031 0.668 0.2227-0.4297 0.6562-0.668 1.125-0.668 0.8555 0 1.242 0.6094 1.242 1.352v2.059h-0.6602v-1.84c0-0.5391-0.1602-1.016-0.7344-1.016-0.6016 0-0.8398 0.5469-0.8398 1.062v1.793h-0.6602v-1.973c0-0.5195-0.1719-0.8828-0.6992-0.8828-0.4844 0-0.8477 0.4336-0.8477 1.094v1.762h-0.6562v-2.602c0-0.1758-0.007813-0.5-0.03125-0.7148h0.625c0.01562 0.168 0.02734 0.4062 0.02734 0.5469h0.02344c0.168-0.3516 0.5508-0.6406 1.055-0.6406" fill="#231f1f"/>
<path d="m57.17 150.2c-0.6523 0-1.477 0.07031-1.477 0.6328 0 0.3906 0.3477 0.5156 0.6758 0.5156 0.6172 0 0.9609-0.4141 0.9609-0.9727v-0.1758zm0.1602-0.5664c0-0.4922-0.3281-0.7305-0.8203-0.7305-0.3711 0-0.7188 0.1641-0.9453 0.3867l-0.3477-0.418c0.3203-0.3086 0.8164-0.5 1.355-0.5 0.9531 0 1.387 0.5664 1.387 1.305v1.449c0 0.2227 0.01562 0.4961 0.05078 0.6562h-0.5977c-0.03125-0.1445-0.05469-0.3203-0.05469-0.4727h-0.01953c-0.2383 0.3555-0.6172 0.5586-1.113 0.5586-0.5273 0-1.207-0.2578-1.207-1.023 0-1 1.191-1.121 2.312-1.121v-0.08984" fill="#231f1f"/>
<path d="m59.73 151.8h-0.6562v-5.293h0.6562v5.293" fill="#231f1f"/>
<path d="m144.6 149h0.7969c0.6523 0 1.164-0.2031 1.164-0.8008 0-0.5938-0.5117-0.7812-1.113-0.7812h-0.8477zm0 2.785h-0.6953v-4.957h1.59c0.9609 0 1.766 0.3633 1.766 1.371 0 0.7305-0.4961 1.191-1.203 1.312l1.387 2.273h-0.8398l-1.262-2.203h-0.7422v2.203" fill="#231f1f"/>
<path d="m150.5 149.8c-0.01172-0.5234-0.3203-0.9375-0.9297-0.9375-0.5664 0-1.004 0.418-1.043 0.9375zm0.6602 0.4922h-2.633c0.01953 0.5664 0.4961 1.008 1.078 1.008 0.4453 0 0.7773-0.2266 0.9648-0.5039l0.4648 0.3711c-0.3594 0.4609-0.8438 0.6797-1.43 0.6797-1.008 0-1.75-0.6992-1.75-1.746 0-1.035 0.7422-1.758 1.715-1.758 0.9805 0 1.598 0.668 1.598 1.727 0 0.06641 0 0.1445-0.007813 0.2227" fill="#231f1f"/>
<path d="m153.8 149.3c-0.1484-0.2383-0.4336-0.4141-0.7695-0.4141-0.3008 0-0.6172 0.1211-0.6172 0.4336 0 0.2812 0.2539 0.3867 0.7578 0.4961 0.6289 0.1406 1.113 0.4023 1.113 0.9844 0 0.7812-0.6523 1.07-1.324 1.07-0.5039 0-1.023-0.1953-1.34-0.5977l0.4727-0.3984c0.1719 0.2617 0.5078 0.4648 0.8789 0.4648 0.332 0 0.6602-0.1211 0.6602-0.4844 0-0.3086-0.3008-0.4219-0.8672-0.5547-0.4453-0.1055-0.9688-0.293-0.9688-0.918 0-0.7109 0.625-1.016 1.254-1.016 0.4688 0 0.9688 0.1914 1.207 0.5469l-0.457 0.3867" fill="#231f1f"/>
<path d="m156.8 149h-0.8789v1.727c0 0.4023 0.1406 0.5625 0.4688 0.5625 0.1172 0 0.2734-0.02734 0.3867-0.08203l0.01953 0.5391c-0.1523 0.05469-0.3594 0.08984-0.5625 0.08984-0.6211 0-0.9648-0.3516-0.9648-1.035v-1.801h-0.6367v-0.5391h0.6367v-0.9531h0.6523v0.9531h0.8789v0.5391" fill="#231f1f"/>
<path d="m157.4 148.5h0.6211c0.01562 0.168 0.03125 0.418 0.03125 0.5586h0.01953c0.1836-0.3828 0.5664-0.6523 1.016-0.6523 0.08984 0 0.1836 0.007813 0.2617 0.02734l-0.03125 0.6133c-0.08203-0.02344-0.1953-0.03906-0.3008-0.03906-0.6289 0-0.9336 0.5117-0.9336 1.066v1.742h-0.6562v-2.602c0-0.1758-0.007813-0.5-0.02734-0.7148" fill="#231f1f"/>
<path d="m160.7 151.8h-0.6562v-3.316h0.6562zm-0.3281-4.098c-0.2383 0-0.4336-0.1875-0.4336-0.418 0-0.2383 0.1953-0.4258 0.4336-0.4258 0.2383 0 0.4414 0.1797 0.4414 0.4258 0 0.2383-0.2031 0.418-0.4414 0.418" fill="#231f1f"/>
<path d="m164.1 149.3c-0.1406-0.2188-0.4453-0.3789-0.7617-0.3789-0.6875 0-1.086 0.5586-1.086 1.199 0 0.6289 0.3984 1.195 1.094 1.195 0.3359 0 0.6211-0.1406 0.7969-0.3633l0.4414 0.3984c-0.2812 0.3242-0.707 0.5195-1.238 0.5195-1.023 0-1.789-0.6953-1.789-1.75 0-1.043 0.7578-1.754 1.773-1.754 0.4688 0 0.9727 0.1914 1.246 0.5469l-0.4766 0.3867" fill="#231f1f"/>
<path d="m166.9 149h-0.8828v1.727c0 0.4023 0.1406 0.5625 0.4688 0.5625 0.1211 0 0.2734-0.02734 0.3867-0.08203l0.01953 0.5391c-0.1523 0.05469-0.3555 0.08984-0.5586 0.08984-0.625 0-0.9688-0.3516-0.9688-1.035v-1.801h-0.6367v-0.5391h0.6367v-0.9531h0.6523v0.9531h0.8828v0.5391" fill="#231f1f"/>
<path d="m168.2 151.8h-0.6602v-3.316h0.6602zm-0.3281-4.098c-0.2383 0-0.4336-0.1875-0.4336-0.418 0-0.2383 0.1953-0.4258 0.4336-0.4258 0.2383 0 0.4414 0.1797 0.4414 0.4258 0 0.2383-0.2031 0.418-0.4414 0.418" fill="#231f1f"/>
<path d="m171 148.9c-0.707 0-1.105 0.5664-1.105 1.199 0 0.6289 0.3984 1.203 1.105 1.203 0.7148 0 1.109-0.5742 1.109-1.203 0-0.6328-0.3945-1.199-1.109-1.199zm0 2.957c-1.012 0-1.785-0.7344-1.785-1.758s0.7734-1.746 1.785-1.746c1.016 0 1.793 0.7227 1.793 1.746s-0.7773 1.758-1.793 1.758" fill="#231f1f"/>
<path d="m174.3 148.5c0.01172 0.168 0.02344 0.4062 0.02344 0.5469h0.02344c0.1602-0.3594 0.6016-0.6406 1.078-0.6406 0.8555 0 1.238 0.6094 1.238 1.352v2.059h-0.6562v-1.84c0-0.5391-0.1484-1.016-0.7578-1.016-0.5195 0-0.8867 0.4336-0.8867 1.094v1.762h-0.6602v-2.602c0-0.1758-0.007812-0.5-0.02734-0.7148h0.625" fill="#231f1f"/>
<path d="m237.4 147.2c-1.145 0-1.871 0.9023-1.871 1.988 0 1.105 0.7344 1.988 1.871 1.988 1.148 0 1.883-0.8828 1.883-1.988 0-1.086-0.7266-1.988-1.883-1.988zm0 4.598c-1.508 0-2.621-1.086-2.621-2.609 0-1.547 1.113-2.602 2.621-2.602 1.512 0 2.633 1.055 2.633 2.602 0 1.523-1.121 2.609-2.633 2.609" fill="#231f1f"/>
<path d="m242.7 148.8c-0.6719 0-1.121 0.5664-1.121 1.203 0 0.6406 0.4492 1.199 1.121 1.199 0.7227 0 1.109-0.582 1.109-1.207 0-0.6211-0.3867-1.195-1.109-1.195zm-1.098 2.34v0.5234h-0.6367v-5.293h0.6562v2.473h0.02344c0.2227-0.3242 0.6367-0.5898 1.184-0.5898 0.9883 0 1.66 0.7656 1.66 1.742 0 0.9766-0.6523 1.762-1.676 1.762-0.4688 0-0.9375-0.2188-1.195-0.6172h-0.01562" fill="#231f1f"/>
<path d="m247.2 149.2c-0.1484-0.2422-0.4336-0.4141-0.7695-0.4141-0.3047 0-0.6172 0.1172-0.6172 0.4336 0 0.2812 0.25 0.3867 0.7578 0.4961 0.6289 0.1406 1.113 0.4023 1.113 0.9805 0 0.7852-0.6523 1.074-1.324 1.074-0.5039 0-1.023-0.1992-1.34-0.5977l0.4727-0.3984c0.1719 0.2578 0.5078 0.4609 0.8789 0.4609 0.332 0 0.6602-0.1172 0.6602-0.4844 0-0.3047-0.3008-0.418-0.8672-0.5508-0.4453-0.1055-0.9688-0.293-0.9688-0.918 0-0.7148 0.625-1.016 1.254-1.016 0.4688 0 0.9648 0.1875 1.207 0.5469l-0.457 0.3867" fill="#231f1f"/>
<path d="m250.2 148.9h-0.8828v1.727c0 0.4023 0.1406 0.5625 0.4727 0.5625 0.1172 0 0.2734-0.02734 0.3828-0.08594l0.02344 0.5391c-0.1562 0.05859-0.3594 0.09375-0.5625 0.09375-0.6211 0-0.9648-0.3516-0.9648-1.039v-1.797h-0.6367v-0.5391h0.6367v-0.9531h0.6484v0.9531h0.8828v0.5391" fill="#231f1f"/>
<path d="m250.8 148.3h0.625c0.01172 0.168 0.02734 0.418 0.02734 0.5586h0.01953c0.1836-0.3867 0.5664-0.6523 1.016-0.6523 0.08984 0 0.1836 0.007813 0.2617 0.02734l-0.03125 0.6094c-0.08203-0.01953-0.1953-0.03516-0.3008-0.03516-0.6289 0-0.9297 0.5117-0.9297 1.066v1.742h-0.6602v-2.605c0-0.1719-0.007812-0.4961-0.02734-0.7109" fill="#231f1f"/>
<path d="m255.7 151.7c-0.01562-0.168-0.02734-0.4062-0.02734-0.5469h-0.01563c-0.168 0.3516-0.6016 0.6406-1.086 0.6406-0.8555 0-1.238-0.6094-1.238-1.355v-2.055h0.6562v1.832c0 0.5469 0.1484 1.023 0.7578 1.023 0.5234 0 0.8867-0.4336 0.8867-1.094v-1.762h0.6602v2.602c0 0.1758 0.007813 0.5 0.02734 0.7148h-0.6211" fill="#231f1f"/>
<path d="m259.8 149.2c-0.1406-0.2188-0.4492-0.3789-0.7617-0.3789-0.6875 0-1.086 0.5586-1.086 1.195 0 0.6328 0.3984 1.199 1.09 1.199 0.3359 0 0.625-0.1406 0.8008-0.3633l0.4414 0.3984c-0.2812 0.3203-0.7109 0.5195-1.242 0.5195-1.023 0-1.785-0.6953-1.785-1.754 0-1.043 0.7578-1.75 1.773-1.75 0.4688 0 0.9727 0.1875 1.246 0.5469l-0.4766 0.3867" fill="#231f1f"/>
<path d="m262.5 148.9h-0.8828v1.727c0 0.4023 0.1406 0.5625 0.4688 0.5625 0.1172 0 0.2734-0.02734 0.3867-0.08594l0.01953 0.5391c-0.1523 0.05859-0.3555 0.09375-0.5586 0.09375-0.625 0-0.9688-0.3516-0.9688-1.039v-1.797h-0.6367v-0.5391h0.6367v-0.9531h0.6523v0.9531h0.8828v0.5391" fill="#231f1f"/>
<path d="m263.9 151.7h-0.6602v-3.316h0.6602zm-0.332-4.098c-0.2344 0-0.4336-0.1875-0.4336-0.418 0-0.2383 0.1992-0.4258 0.4336-0.4258 0.2383 0 0.4414 0.1797 0.4414 0.4258 0 0.2383-0.2031 0.418-0.4414 0.418" fill="#231f1f"/>
<path d="m266.6 148.8c-0.707 0-1.105 0.5664-1.105 1.195 0 0.6328 0.3984 1.207 1.105 1.207 0.7148 0 1.105-0.5742 1.105-1.207 0-0.6289-0.3906-1.195-1.105-1.195zm0 2.957c-1.016 0-1.785-0.7383-1.785-1.762 0-1.02 0.7695-1.742 1.785-1.742s1.793 0.7227 1.793 1.742c0 1.023-0.7773 1.762-1.793 1.762" fill="#231f1f"/>
<path d="m269.9 148.3c0.01562 0.168 0.02734 0.4062 0.02734 0.543h0.02344c0.1602-0.3555 0.6016-0.6367 1.078-0.6367 0.8516 0 1.238 0.6094 1.238 1.352v2.059h-0.6562v-1.84c0-0.5391-0.1484-1.016-0.7578-1.016-0.5195 0-0.8906 0.4336-0.8906 1.09v1.766h-0.6562v-2.605c0-0.1719-0.007812-0.4961-0.02734-0.7109h0.6211" fill="#231f1f"/>
<path d="m295.4 149.2h0.01172l1.465-3.809h1.078v4.957h-0.6914v-4.145h-0.01562l-1.645 4.145h-0.4414l-1.641-4.145h-0.01172v4.145h-0.6719v-4.957h1.078l1.484 3.809" fill="#231f1f"/>
<path d="m299.8 150.3h-0.6562v-3.32h0.6562zm-0.3281-4.098c-0.2383 0-0.4336-0.1875-0.4336-0.418 0-0.2383 0.1953-0.4297 0.4336-0.4297s0.4414 0.1836 0.4414 0.4297c0 0.2383-0.2031 0.418-0.4414 0.418" fill="#231f1f"/>
<path d="m301.8 148.6-1.211-1.578h0.8125l0.8125 1.145 0.8203-1.145h0.7695l-1.199 1.57 1.34 1.75h-0.8203l-0.9258-1.293-0.9375 1.293h-0.793l1.332-1.742" fill="#231f1f"/>
<path d="m306.9 148.4c-0.01562-0.5273-0.3242-0.9375-0.9336-0.9375-0.5664 0-1 0.418-1.043 0.9375zm0.6562 0.4922h-2.633c0.02344 0.5664 0.5 1.008 1.082 1.008 0.4453 0 0.7734-0.2266 0.9648-0.5039l0.4609 0.3711c-0.3555 0.4609-0.8398 0.6797-1.426 0.6797-1.012 0-1.754-0.7031-1.754-1.746 0-1.035 0.7422-1.758 1.715-1.758 0.9805 0 1.598 0.668 1.598 1.723 0 0.07031 0 0.1484-0.007812 0.2266" fill="#231f1f"/>
<path d="m310 149.8c0.6719 0 1.117-0.5625 1.117-1.199s-0.4453-1.203-1.117-1.203c-0.7227 0-1.102 0.5742-1.102 1.199 0 0.6211 0.3789 1.203 1.102 1.203zm-0.1133 0.5547c-1.023 0-1.676-0.7852-1.676-1.758 0-0.9844 0.6719-1.746 1.668-1.746 0.5391 0 0.9531 0.2656 1.184 0.5898h0.01562v-2.473h0.6562v5.293h-0.6367v-0.5234h-0.01172c-0.2539 0.3984-0.7305 0.6172-1.199 0.6172" fill="#231f1f"/>
<path d="m294.2 158.2c0.6719 0 1.121-0.5586 1.121-1.195 0-0.6406-0.4492-1.207-1.121-1.207-0.7227 0-1.098 0.5742-1.098 1.199 0 0.6211 0.375 1.203 1.098 1.203zm-0.1094 0.5547c-1.023 0-1.676-0.7852-1.676-1.758 0-0.9805 0.6719-1.742 1.668-1.742 0.5391 0 0.9492 0.2656 1.184 0.5859h0.01172v-2.473h0.6602v5.297h-0.6367v-0.5273h-0.01562c-0.2539 0.3984-0.7305 0.6172-1.195 0.6172" fill="#231f1f"/>
<path d="m299.6 156.8c-0.01172-0.5273-0.3203-0.9414-0.9297-0.9414-0.5664 0-1.004 0.4219-1.043 0.9414zm0.6602 0.4883h-2.633c0.01953 0.5664 0.4961 1.008 1.078 1.008 0.4492 0 0.7773-0.2227 0.9648-0.5039l0.4648 0.3711c-0.3594 0.4609-0.8438 0.6797-1.43 0.6797-1.008 0-1.75-0.6992-1.75-1.742 0-1.039 0.7422-1.758 1.715-1.758 0.9805 0 1.598 0.6641 1.598 1.723 0 0.07031 0 0.1445-0.007812 0.2227" fill="#231f1f"/>
<path d="m302.7 155.9h-0.7695v2.781h-0.6602v-2.781h-0.6602v-0.5391h0.6602v-0.6953c0-0.7773 0.3438-1.363 1.242-1.363 0.1523 0 0.2852 0.01172 0.4102 0.04688l-0.07812 0.5664c-0.09766-0.02734-0.2031-0.04688-0.3281-0.04688-0.4961 0-0.5859 0.3906-0.5859 0.7969v0.6953h0.7695v0.5391" fill="#231f1f"/>
<path d="m305.7 156.8c-0.01562-0.5273-0.3242-0.9414-0.9336-0.9414-0.5664 0-1 0.4219-1.043 0.9414zm0.6562 0.4883h-2.633c0.01953 0.5664 0.5 1.008 1.078 1.008 0.4492 0 0.7773-0.2227 0.9688-0.5039l0.4609 0.3711c-0.3594 0.4609-0.8398 0.6797-1.43 0.6797-1.008 0-1.75-0.6992-1.75-1.742 0-1.039 0.7422-1.758 1.715-1.758 0.9805 0 1.598 0.6641 1.598 1.723 0 0.07031 0 0.1445-0.007813 0.2227" fill="#231f1f"/>
<path d="m309.6 156.2c-0.1406-0.2188-0.4492-0.3789-0.7656-0.3789-0.6875 0-1.086 0.5586-1.086 1.199 0 0.6289 0.3984 1.195 1.094 1.195 0.3359 0 0.625-0.1367 0.7969-0.3633l0.4414 0.3984c-0.2812 0.3242-0.707 0.5195-1.238 0.5195-1.023 0-1.785-0.6914-1.785-1.75 0-1.043 0.7539-1.75 1.77-1.75 0.4727 0 0.9727 0.1875 1.246 0.543l-0.4727 0.3867" fill="#231f1f"/>
<path d="m312.4 155.9h-0.8789v1.73c0 0.3984 0.1367 0.5586 0.4688 0.5586 0.1172 0 0.2734-0.02734 0.3828-0.08203l0.02344 0.5391c-0.1562 0.05469-0.3594 0.08984-0.5625 0.08984-0.6211 0-0.9648-0.3516-0.9648-1.035v-1.801h-0.6367v-0.5391h0.6367v-0.9531h0.6523v0.9531h0.8789v0.5391" fill="#231f1f"/>
<path d="m30.86 184.1h0.8711c1.195 0 2.07-0.6836 2.07-1.867 0-1.227-0.875-1.879-2.07-1.879h-0.8711zm-0.6914-4.348h1.703c1.266 0 2.676 0.7227 2.676 2.48 0 1.695-1.41 2.48-2.676 2.48h-1.703v-4.961" fill="#231f1f"/>
<path d="m36.15 184.2h1.613v0.5703h-2.285v-3.754h0.6719v3.184" fill="#231f1f"/>
<path d="m41.5 184.1c-0.3594 0.4375-0.793 0.707-1.492 0.707-1.176 0-1.984-0.7891-1.984-1.98 0-1.176 0.8711-1.969 2.023-1.969 0.5547 0 1.082 0.2188 1.383 0.6094l-0.5273 0.4141c-0.1953-0.2812-0.5234-0.4258-0.8672-0.4258-0.7852 0-1.289 0.5938-1.289 1.371 0 0.7656 0.5469 1.387 1.262 1.387 0.3828 0 0.7148-0.1484 0.957-0.4844l0.5352 0.3711" fill="#231f1f"/>
<path d="m43.92 181.5c-0.793 0-1.289 0.5938-1.289 1.371 0 0.793 0.5039 1.387 1.289 1.387 0.7969 0 1.309-0.5938 1.309-1.387 0-0.7773-0.5117-1.371-1.309-1.371zm0 3.352c-1.141 0-2.012-0.8242-2.012-1.98 0-1.176 0.8711-1.969 2.012-1.969 1.16 0 2.031 0.793 2.031 1.969 0 1.156-0.8711 1.98-2.031 1.98" fill="#231f1f"/>
<path d="m48.6 184.7v-0.5898h3.586v0.5898zm0-0.8516v-0.6172l2.781-0.9375-2.781-0.9609v-0.625l3.586 1.281v0.6055l-3.586 1.254" fill="#231f1f"/>
<path d="m55.77 184.1h2.215v0.6172h-2.906v-4.961h0.6914v4.344" fill="#231f1f"/>
<path d="m59.34 184.1h2.215v0.6172h-2.906v-4.961h0.6914v4.344" fill="#231f1f"/>
<path d="m65.72 183.7h0.01172v-3.965h0.6953v4.961h-0.875l-2.621-4.051h-0.01172v4.051h-0.6953v-4.961h0.9062l2.59 3.965" fill="#231f1f"/>
<path d="m142.8 183.9h0.8672c1.199 0 2.074-0.6875 2.074-1.871 0-1.227-0.875-1.875-2.074-1.875h-0.8672zm-0.6953-4.352h1.703c1.27 0 2.676 0.7227 2.676 2.48 0 1.695-1.406 2.48-2.676 2.48h-1.703v-4.961" fill="#231f1f"/>
<path d="m148.1 183.9h1.609v0.5664h-2.285v-3.754h0.6758v3.188" fill="#231f1f"/>
<path d="m153.4 183.9c-0.3594 0.4336-0.7891 0.707-1.492 0.707-1.176 0-1.98-0.793-1.98-1.98 0-1.176 0.8672-1.969 2.023-1.969 0.5508 0 1.078 0.2188 1.379 0.6094l-0.5234 0.4141c-0.1953-0.2812-0.5273-0.4297-0.8711-0.4297-0.7852 0-1.289 0.5977-1.289 1.375 0 0.7617 0.5469 1.387 1.262 1.387 0.3867 0 0.7148-0.1484 0.9609-0.4844l0.5312 0.3711" fill="#231f1f"/>
<path d="m155.8 181.2c-0.793 0-1.289 0.5977-1.289 1.375 0 0.7891 0.5039 1.387 1.289 1.387 0.8008 0 1.309-0.5977 1.309-1.387 0-0.7773-0.5078-1.375-1.309-1.375zm0 3.355c-1.141 0-2.012-0.8242-2.012-1.98 0-1.176 0.8711-1.969 2.012-1.969 1.16 0 2.031 0.793 2.031 1.969 0 1.156-0.8711 1.98-2.031 1.98" fill="#231f1f"/>
<path d="m160.5 184.4v-0.5898h3.582v0.5898zm0-0.8555v-0.6172l2.777-0.9375-2.777-0.9609v-0.6211l3.582 1.281v0.6016l-3.582 1.254" fill="#231f1f"/>
<path d="m167.7 183.9h2.211v0.6172h-2.906v-4.961h0.6953v4.344" fill="#231f1f"/>
<path d="m171.3 183.9h2.211v0.6172h-2.906v-4.961h0.6953v4.344" fill="#231f1f"/>
<path d="m177.6 183.5h0.01562v-3.965h0.6914v4.961h-0.875l-2.617-4.047h-0.01562v4.047h-0.6914v-4.961h0.9023l2.59 3.965" fill="#231f1f"/>
<path d="m236.2 184.1h0.8711c1.195 0 2.074-0.6875 2.074-1.867 0-1.227-0.8789-1.879-2.074-1.879h-0.8711zm-0.6914-4.348h1.699c1.27 0 2.676 0.7227 2.676 2.48 0 1.695-1.406 2.477-2.676 2.477h-1.699v-4.957" fill="#231f1f"/>
<path d="m241.5 184.2h1.613v0.5664h-2.285v-3.754h0.6719v3.188" fill="#231f1f"/>
<path d="m246.8 184.1c-0.3555 0.4336-0.7891 0.707-1.488 0.707-1.18 0-1.984-0.7891-1.984-1.98 0-1.176 0.8672-1.969 2.027-1.969 0.5508 0 1.078 0.2188 1.379 0.6094l-0.5273 0.4141c-0.1953-0.2812-0.5234-0.4297-0.8672-0.4297-0.7852 0-1.289 0.5977-1.289 1.375 0 0.7656 0.5469 1.387 1.262 1.387 0.3828 0 0.7148-0.1484 0.957-0.4844l0.5312 0.3711" fill="#231f1f"/>
<path d="m249.2 181.5c-0.7891 0-1.285 0.5977-1.285 1.375 0 0.7891 0.5039 1.387 1.285 1.387 0.8008 0 1.312-0.5977 1.312-1.387 0-0.7773-0.5117-1.375-1.312-1.375zm0 3.355c-1.141 0-2.008-0.8242-2.008-1.98 0-1.176 0.8672-1.969 2.008-1.969 1.164 0 2.031 0.793 2.031 1.969 0 1.156-0.8672 1.98-2.031 1.98" fill="#231f1f"/>
<path d="m253.9 184.7v-0.5898h3.586v0.5898zm0-0.8555v-0.6133l2.781-0.9414-2.781-0.9609v-0.6211l3.586 1.281v0.6016l-3.586 1.254" fill="#231f1f"/>
<path d="m261.1 184.1h2.215v0.6133h-2.906v-4.957h0.6914v4.344" fill="#231f1f"/>
<path d="m264.7 184.1h2.215v0.6133h-2.91v-4.957h0.6953v4.344" fill="#231f1f"/>
<path d="m271.1 183.8h0.01172v-3.965h0.6953v4.957h-0.875l-2.621-4.047h-0.01172v4.047h-0.6953v-4.957h0.9062l2.59 3.965" fill="#231f1f"/>
<path d="m33.22 46.48h-0.6992v-2.141l-1.855-2.816h0.8555l1.371 2.238 1.383-2.238h0.8047l-1.859 2.816v2.141" fill="#231f1f"/>
<path d="m37.4 44.53c-0.01562-0.5273-0.3242-0.9375-0.9336-0.9375-0.5664 0-1 0.418-1.043 0.9375zm0.6562 0.4883h-2.633c0.01953 0.5703 0.4961 1.012 1.078 1.012 0.4492 0 0.7773-0.2266 0.9648-0.5078l0.4648 0.3711c-0.3594 0.4648-0.8398 0.6797-1.43 0.6797-1.008 0-1.75-0.6992-1.75-1.742 0-1.035 0.7422-1.758 1.715-1.758 0.9805 0 1.598 0.6641 1.598 1.723 0 0.07031 0 0.1484-0.007812 0.2227" fill="#231f1f"/>
<path d="m40.77 44c-0.1445-0.2383-0.4336-0.4102-0.7695-0.4102-0.3008 0-0.6172 0.1172-0.6172 0.4336 0 0.2812 0.2539 0.3828 0.7578 0.4961 0.6289 0.1406 1.113 0.3984 1.113 0.9805 0 0.7852-0.6523 1.07-1.324 1.07-0.5039 0-1.023-0.1953-1.34-0.5938l0.4727-0.3984c0.1719 0.2578 0.5117 0.4609 0.8828 0.4609 0.3281 0 0.6562-0.1172 0.6562-0.4805 0-0.3086-0.3008-0.4219-0.8672-0.5547-0.4414-0.1055-0.9688-0.293-0.9688-0.918 0-0.7148 0.625-1.016 1.254-1.016 0.4688 0 0.9688 0.1875 1.207 0.5469l-0.457 0.3828" fill="#231f1f"/>
<path d="m33.82 134.5h-0.7031v-2.145l-1.855-2.812h0.8555l1.371 2.238 1.383-2.238h0.8047l-1.855 2.812v2.145" fill="#231f1f"/>
<path d="m38 132.6c-0.01562-0.5273-0.3242-0.9375-0.9336-0.9375-0.5664 0-1 0.418-1.043 0.9375zm0.6562 0.4883h-2.633c0.01953 0.5664 0.4961 1.012 1.078 1.012 0.4492 0 0.7773-0.2266 0.9688-0.5078l0.4609 0.375c-0.3594 0.4609-0.8398 0.6758-1.43 0.6758-1.008 0-1.75-0.6992-1.75-1.742 0-1.039 0.7422-1.758 1.715-1.758 0.9805 0 1.598 0.6641 1.598 1.723 0 0.07031 0 0.1484-0.007813 0.2227" fill="#231f1f"/>
<path d="m41.38 132c-0.1445-0.2383-0.4336-0.4102-0.7695-0.4102-0.3008 0-0.6172 0.1172-0.6172 0.4336 0 0.2812 0.2539 0.3828 0.7578 0.4961 0.6289 0.1406 1.113 0.3984 1.113 0.9805 0 0.7852-0.6523 1.07-1.324 1.07-0.5039 0-1.023-0.1953-1.336-0.5938l0.4688-0.3984c0.1758 0.2578 0.5117 0.4609 0.8828 0.4609 0.3281 0 0.6562-0.1172 0.6562-0.4844 0-0.3086-0.3008-0.418-0.8672-0.5508-0.4414-0.1055-0.9688-0.2969-0.9688-0.918 0-0.7148 0.625-1.016 1.254-1.016 0.4688 0 0.9688 0.1875 1.207 0.5469l-0.457 0.3828" fill="#231f1f"/>
<path d="m222.2 134.6h-0.7031v-2.145l-1.855-2.812h0.8555l1.371 2.238 1.383-2.238h0.8047l-1.855 2.812v2.145" fill="#231f1f"/>
<path d="m226.4 132.7c-0.01562-0.5273-0.3242-0.9414-0.9336-0.9414-0.5664 0-1 0.4219-1.043 0.9414zm0.6562 0.4883h-2.633c0.02344 0.5664 0.5 1.012 1.078 1.012 0.4492 0 0.7773-0.2266 0.9688-0.5078l0.4609 0.375c-0.3555 0.4609-0.8398 0.6758-1.43 0.6758-1.008 0-1.75-0.6992-1.75-1.742 0-1.039 0.7422-1.758 1.715-1.758 0.9805 0 1.598 0.6641 1.598 1.723 0 0.07031 0 0.1484-0.007813 0.2227" fill="#231f1f"/>
<path d="m229.8 132.2c-0.1484-0.2383-0.4375-0.4141-0.7734-0.4141-0.3008 0-0.6172 0.1211-0.6172 0.4375 0 0.2812 0.2539 0.3828 0.7578 0.4961 0.6328 0.1406 1.113 0.3984 1.113 0.9805 0 0.7852-0.6484 1.07-1.324 1.07-0.5039 0-1.023-0.1953-1.336-0.5938l0.4688-0.3984c0.1758 0.2578 0.5117 0.4609 0.8828 0.4609 0.3281 0 0.6602-0.1211 0.6602-0.4844 0-0.3086-0.3047-0.418-0.8711-0.5508-0.4414-0.1055-0.9648-0.2969-0.9648-0.918 0-0.7148 0.6211-1.016 1.254-1.016 0.4688 0 0.9648 0.1875 1.203 0.5469l-0.4531 0.3828" fill="#231f1f"/>
<path d="m237.1 90.5h-0.6992v-2.145l-1.855-2.816h0.8516l1.375 2.242 1.379-2.242h0.8086l-1.859 2.816v2.145" fill="#231f1f"/>
<path d="m241.2 88.55c-0.01563-0.5234-0.3203-0.9375-0.9297-0.9375-0.5703 0-1.004 0.4219-1.047 0.9375zm0.6602 0.4922h-2.637c0.02344 0.5664 0.5 1.008 1.082 1.008 0.4492 0 0.7773-0.2266 0.9648-0.5039l0.4609 0.3711c-0.3555 0.4609-0.8398 0.6797-1.426 0.6797-1.008 0-1.754-0.7031-1.754-1.746 0-1.035 0.7461-1.758 1.719-1.758 0.9805 0 1.594 0.668 1.594 1.727 0 0.06641 0 0.1445-0.003906 0.2227" fill="#231f1f"/>
<path d="m244.6 88.02c-0.1484-0.2383-0.4336-0.4141-0.7695-0.4141-0.3008 0-0.6172 0.1211-0.6172 0.4336 0 0.2812 0.25 0.3867 0.7539 0.4961 0.6328 0.1406 1.113 0.4023 1.113 0.9805 0 0.7852-0.6484 1.074-1.32 1.074-0.5078 0-1.023-0.1992-1.34-0.5977l0.4688-0.3984c0.1758 0.2617 0.5117 0.4648 0.8828 0.4648 0.3281 0 0.6602-0.1211 0.6602-0.4844 0-0.3086-0.3008-0.4219-0.8711-0.5547-0.4414-0.1055-0.9648-0.293-0.9648-0.918 0-0.7148 0.625-1.016 1.254-1.016 0.4688 0 0.9688 0.1914 1.203 0.5469l-0.4531 0.3867" fill="#231f1f"/>
<path d="m270.9 134.7h-0.6992v-2.141l-1.859-2.816h0.8555l1.375 2.242 1.379-2.242h0.8047l-1.855 2.816v2.141" fill="#231f1f"/>
<path d="m275.1 132.7c-0.01563-0.5234-0.3242-0.9375-0.9336-0.9375-0.5664 0-1 0.418-1.043 0.9375zm0.6602 0.4922h-2.637c0.02344 0.5664 0.5 1.008 1.078 1.008 0.4492 0 0.7773-0.2266 0.9688-0.5078l0.4609 0.375c-0.3555 0.4609-0.8398 0.6758-1.43 0.6758-1.008 0-1.75-0.6992-1.75-1.742 0-1.035 0.7422-1.758 1.715-1.758 0.9805 0 1.598 0.6641 1.598 1.723 0 0.07031 0 0.1484-0.003906 0.2266" fill="#231f1f"/>
<path d="m278.4 132.2c-0.1445-0.2383-0.4336-0.4141-0.7695-0.4141-0.3008 0-0.6172 0.1172-0.6172 0.4336 0 0.2812 0.2539 0.3828 0.7578 0.4961 0.6289 0.1406 1.113 0.4023 1.113 0.9805 0 0.7852-0.6484 1.07-1.32 1.07-0.5078 0-1.023-0.1953-1.34-0.5938l0.4688-0.3984c0.1758 0.2578 0.5117 0.4609 0.8828 0.4609 0.3281 0 0.6602-0.1172 0.6602-0.4805 0-0.3086-0.3008-0.4219-0.8711-0.5547-0.4414-0.1055-0.9648-0.293-0.9648-0.918 0-0.7148 0.625-1.016 1.254-1.016 0.4688 0 0.9648 0.1914 1.203 0.5469l-0.457 0.3867" fill="#231f1f"/>
<path d="m9.145 213.7h-0.7031v-2.145l-1.855-2.816h0.8555l1.371 2.242 1.383-2.242h0.8047l-1.855 2.816v2.145" fill="#231f1f"/>
<path d="m13.32 211.7c-0.01562-0.5234-0.3242-0.9375-0.9336-0.9375-0.5664 0-1 0.4219-1.043 0.9375zm0.6562 0.4922h-2.633c0.01953 0.5664 0.4961 1.008 1.078 1.008 0.4492 0 0.7773-0.2227 0.9648-0.5039l0.4648 0.3711c-0.3594 0.4609-0.8398 0.6797-1.43 0.6797-1.008 0-1.75-0.6992-1.75-1.742 0-1.039 0.7422-1.758 1.715-1.758 0.9805 0 1.598 0.6641 1.598 1.723 0 0.07031 0 0.1445-0.007812 0.2227" fill="#231f1f"/>
<path d="m16.7 211.2c-0.1484-0.2383-0.4336-0.4141-0.7695-0.4141-0.3008 0-0.6172 0.1211-0.6172 0.4336 0 0.2812 0.2539 0.3867 0.7578 0.5 0.6289 0.1406 1.113 0.3984 1.113 0.9805 0 0.7852-0.6523 1.07-1.324 1.07-0.5039 0-1.023-0.1953-1.336-0.5938l0.4688-0.3984c0.1719 0.2578 0.5078 0.4609 0.8789 0.4609 0.332 0 0.6602-0.1211 0.6602-0.4844 0-0.3086-0.3008-0.4219-0.8672-0.5508-0.4414-0.1094-0.9688-0.2969-0.9688-0.918 0-0.7148 0.625-1.016 1.254-1.016 0.4688 0 0.9688 0.1875 1.207 0.5469l-0.457 0.3828" fill="#231f1f"/>
<path d="m115.1 213.3h-0.6992v-2.145l-1.855-2.816h0.8516l1.375 2.242 1.379-2.242h0.8047l-1.855 2.816v2.145" fill="#231f1f"/>
<path d="m119.3 211.3c-0.01562-0.5234-0.3242-0.9375-0.9336-0.9375-0.5664 0-1 0.418-1.043 0.9375zm0.6562 0.4922h-2.633c0.02344 0.5664 0.5 1.008 1.078 1.008 0.4492 0 0.7812-0.2266 0.9688-0.5039l0.4609 0.3711c-0.3555 0.4609-0.8398 0.6797-1.43 0.6797-1.008 0-1.75-0.7031-1.75-1.746 0-1.035 0.7422-1.758 1.715-1.758 0.9805 0 1.598 0.668 1.598 1.723 0 0.07031 0 0.1484-0.007813 0.2266" fill="#231f1f"/>
<path d="m122.7 210.8c-0.1484-0.2383-0.4375-0.4141-0.7734-0.4141-0.3008 0-0.6172 0.1172-0.6172 0.4336 0 0.2812 0.2539 0.3867 0.7578 0.5 0.6328 0.1367 1.113 0.3984 1.113 0.9766 0 0.7852-0.6484 1.074-1.324 1.074-0.5039 0-1.02-0.1992-1.336-0.5938l0.4688-0.4023c0.1758 0.2578 0.5117 0.4609 0.8828 0.4609 0.3281 0 0.6602-0.1172 0.6602-0.4805 0-0.3086-0.3047-0.4219-0.8711-0.5547-0.4414-0.1055-0.9648-0.293-0.9648-0.918 0-0.7148 0.6211-1.016 1.254-1.016 0.4688 0 0.9648 0.1914 1.203 0.5469l-0.4531 0.3867" fill="#231f1f"/>
<path d="m234.7 213.8h-0.7031v-2.145l-1.855-2.816h0.8555l1.371 2.242 1.383-2.242h0.8047l-1.855 2.816v2.145" fill="#231f1f"/>
<path d="m238.9 211.8c-0.01172-0.5234-0.3203-0.9375-0.9297-0.9375-0.5664 0-1.004 0.4219-1.043 0.9375zm0.6602 0.4922h-2.633c0.01953 0.5664 0.4961 1.008 1.078 1.008 0.4492 0 0.7773-0.2227 0.9688-0.5039l0.4609 0.3711c-0.3594 0.4609-0.8438 0.6797-1.43 0.6797-1.008 0-1.75-0.6992-1.75-1.742 0-1.039 0.7422-1.762 1.715-1.762 0.9805 0 1.598 0.668 1.598 1.727 0 0.06641 0 0.1445-0.007813 0.2227" fill="#231f1f"/>
<path d="m242.3 211.3c-0.1484-0.2383-0.4336-0.4141-0.7695-0.4141-0.3008 0-0.6172 0.1211-0.6172 0.4336 0 0.2812 0.2539 0.3867 0.7578 0.5 0.6289 0.1367 1.113 0.3984 1.113 0.9805 0 0.7812-0.6523 1.07-1.324 1.07-0.5039 0-1.023-0.1953-1.336-0.5938l0.4688-0.3984c0.1719 0.2578 0.5078 0.4609 0.8789 0.4609 0.332 0 0.6602-0.1211 0.6602-0.4844 0-0.3086-0.3008-0.418-0.8672-0.5508-0.4414-0.1094-0.9688-0.2969-0.9688-0.918 0-0.7148 0.625-1.02 1.254-1.02 0.4688 0 0.9688 0.1914 1.207 0.5469l-0.457 0.3867" fill="#231f1f"/>
<path d="m148.6 89.14h0.01172v-3.965h0.6953v4.957h-0.875l-2.621-4.047h-0.01172v4.047h-0.6953v-4.957h0.9023l2.594 3.965" fill="#231f1f"/>
<path d="m152.1 87.27c-0.707 0-1.105 0.5664-1.105 1.199 0 0.6289 0.3984 1.203 1.105 1.203 0.7148 0 1.105-0.5742 1.105-1.203 0-0.6328-0.3906-1.199-1.105-1.199zm0 2.957c-1.016 0-1.785-0.7383-1.785-1.758 0-1.023 0.7695-1.746 1.785-1.746s1.793 0.7227 1.793 1.746c0 1.02-0.7773 1.758-1.793 1.758" fill="#231f1f"/>
<path d="m289.3 44.69h0.01172v-3.965h0.6953v4.957h-0.875l-2.621-4.047h-0.01172v4.047h-0.6953v-4.957h0.9023l2.594 3.965" fill="#231f1f"/>
<path d="m292.7 42.82c-0.707 0-1.105 0.5664-1.105 1.199 0 0.6289 0.3984 1.203 1.105 1.203 0.7148 0 1.105-0.5742 1.105-1.203 0-0.6328-0.3906-1.199-1.105-1.199zm0 2.957c-1.016 0-1.785-0.7383-1.785-1.758 0-1.023 0.7695-1.746 1.785-1.746s1.793 0.7227 1.793 1.746c0 1.02-0.7773 1.758-1.793 1.758" fill="#231f1f"/>
<path d="m289.2 89.41h0.01172v-3.961h0.6953v4.957h-0.8789l-2.617-4.047h-0.01562v4.047h-0.6914v-4.957h0.9023l2.594 3.961" fill="#231f1f"/>
<path d="m292.6 87.54c-0.707 0-1.105 0.5664-1.105 1.195 0 0.6328 0.3984 1.207 1.105 1.207 0.7148 0 1.105-0.5742 1.105-1.207 0-0.6289-0.3906-1.195-1.105-1.195zm0 2.953c-1.016 0-1.785-0.7344-1.785-1.758 0-1.02 0.7695-1.742 1.785-1.742s1.793 0.7227 1.793 1.742c0 1.023-0.7773 1.758-1.793 1.758" fill="#231f1f"/>
<path d="m289.8 133.7h0.01172v-3.965h0.6914v4.961h-0.875l-2.617-4.051h-0.01562v4.051h-0.6914v-4.961h0.9023l2.594 3.965" fill="#231f1f"/>
<path d="m293.3 131.9c-0.707 0-1.105 0.5703-1.105 1.199s0.3984 1.203 1.105 1.203c0.7148 0 1.105-0.5742 1.105-1.203s-0.3906-1.199-1.105-1.199zm0 2.957c-1.016 0-1.789-0.7383-1.789-1.758 0-1.023 0.7734-1.746 1.789-1.746s1.793 0.7227 1.793 1.746c0 1.02-0.7773 1.758-1.793 1.758" fill="#231f1f"/>
<path d="m313.4 212.8h0.01172v-3.965h0.6953v4.961h-0.875l-2.621-4.051h-0.01172v4.051h-0.6953v-4.961h0.9023l2.594 3.965" fill="#231f1f"/>
<path d="m316.9 210.9c-0.707 0-1.105 0.5703-1.105 1.199s0.3984 1.203 1.105 1.203c0.7148 0 1.109-0.5742 1.109-1.203s-0.3945-1.199-1.109-1.199zm0 2.957c-1.016 0-1.785-0.7383-1.785-1.758 0-1.023 0.7695-1.746 1.785-1.746s1.793 0.7227 1.793 1.746c0 1.02-0.7773 1.758-1.793 1.758" fill="#231f1f"/>
<path d="m196.6 212.8h0.01563v-3.965h0.6914v4.957h-0.875l-2.617-4.047h-0.01562v4.047h-0.6914v-4.957h0.9023l2.59 3.965" fill="#231f1f"/>
<path d="m200 210.9c-0.707 0-1.105 0.5664-1.105 1.199 0 0.6289 0.3984 1.203 1.105 1.203 0.7148 0 1.105-0.5742 1.105-1.203 0-0.6328-0.3906-1.199-1.105-1.199zm0 2.957c-1.016 0-1.785-0.7383-1.785-1.758 0-1.023 0.7695-1.746 1.785-1.746s1.793 0.7227 1.793 1.746c0 1.02-0.7773 1.758-1.793 1.758" fill="#231f1f"/>
<path d="m82.14 212.7h0.01172v-3.965h0.6953v4.961h-0.875l-2.621-4.047h-0.01172v4.047h-0.6953v-4.961h0.9023l2.594 3.965" fill="#231f1f"/>
<path d="m85.59 210.8c-0.707 0-1.105 0.5703-1.105 1.199s0.3984 1.207 1.105 1.207c0.7148 0 1.105-0.5781 1.105-1.207s-0.3906-1.199-1.105-1.199zm0 2.957c-1.016 0-1.785-0.7344-1.785-1.758s0.7695-1.746 1.785-1.746c1.016 0 1.793 0.7227 1.793 1.746s-0.7773 1.758-1.793 1.758" fill="#231f1f"/>
<path d="m169.6 133.5h0.01562v-3.965h0.6914v4.961h-0.875l-2.621-4.047h-0.01172v4.047h-0.6914v-4.961h0.9023l2.59 3.965" fill="#231f1f"/>
<path d="m173 131.7c-0.707 0-1.109 0.5664-1.109 1.195 0 0.6328 0.4023 1.207 1.109 1.207 0.7109 0 1.105-0.5742 1.105-1.207 0-0.6289-0.3945-1.195-1.105-1.195zm0 2.953c-1.016 0-1.789-0.7344-1.789-1.758 0-1.02 0.7734-1.742 1.789-1.742 1.012 0 1.793 0.7227 1.793 1.742 0 1.023-0.7812 1.758-1.793 1.758" fill="#231f1f"/>
<path d="m15.21 229.3h0.01172v-3.965h0.6953v4.961h-0.875l-2.621-4.051h-0.01172v4.051h-0.6953v-4.961h0.9023l2.594 3.965" fill="#231f1f"/>
<path d="m18.65 227.4c-0.707 0-1.105 0.5664-1.105 1.195 0 0.6328 0.3984 1.203 1.105 1.203 0.7148 0 1.109-0.5703 1.109-1.203 0-0.6289-0.3945-1.195-1.109-1.195zm0 2.953c-1.016 0-1.785-0.7344-1.785-1.758 0-1.023 0.7695-1.742 1.785-1.742 1.016 0 1.793 0.7188 1.793 1.742 0 1.023-0.7773 1.758-1.793 1.758" fill="#231f1f"/>
<path d="m21.32 226.9h0.6211c0.01563 0.168 0.02734 0.4219 0.02734 0.5586h0.02344c0.1797-0.3828 0.5664-0.6484 1.016-0.6484 0.08984 0 0.1797 0.003906 0.2578 0.02734l-0.02734 0.6094c-0.08594-0.02344-0.1953-0.03516-0.3008-0.03516-0.6328 0-0.9336 0.5117-0.9336 1.062v1.746h-0.6562v-2.605c0-0.1758-0.007812-0.4961-0.02734-0.7148" fill="#231f1f"/>
<path d="m25.59 226.8c0.4414 0 0.8281 0.1953 1.031 0.6641 0.2227-0.4297 0.6562-0.6641 1.125-0.6641 0.8555 0 1.242 0.6055 1.242 1.352v2.059h-0.6602v-1.844c0-0.5391-0.1602-1.016-0.7344-1.016-0.6016 0-0.8398 0.5469-0.8398 1.066v1.793h-0.6602v-1.977c0-0.5156-0.1758-0.8828-0.6992-0.8828-0.4844 0-0.8477 0.4336-0.8477 1.094v1.766h-0.6562v-2.605c0-0.1758-0.007813-0.4961-0.03125-0.7148h0.625c0.01172 0.168 0.02734 0.4062 0.02734 0.5469h0.01953c0.1719-0.3516 0.5547-0.6367 1.059-0.6367" fill="#231f1f"/>
<path d="m32 228.7c-0.6523 0-1.48 0.07031-1.48 0.6328 0 0.3906 0.3516 0.5195 0.6797 0.5195 0.6172 0 0.9609-0.4141 0.9609-0.9766v-0.1758zm0.1602-0.5664c0-0.4883-0.3281-0.7266-0.8203-0.7266-0.3711 0-0.7227 0.1602-0.9453 0.3867l-0.3516-0.4219c0.3242-0.3086 0.8203-0.4961 1.359-0.4961 0.9531 0 1.387 0.5664 1.387 1.301v1.449c0 0.2266 0.01563 0.5 0.05078 0.6602h-0.5977c-0.03125-0.1484-0.05469-0.3242-0.05469-0.4766h-0.01953c-0.2383 0.3555-0.6172 0.5586-1.113 0.5586-0.5273 0-1.207-0.2578-1.207-1.02 0-1.004 1.191-1.121 2.312-1.121v-0.09375" fill="#231f1f"/>
<path d="m34.56 230.2h-0.6562v-5.297h0.6562v5.297" fill="#231f1f"/>
<path d="m69.34 225.9h0.7344c0.6797 0 1.156-0.2227 1.156-0.8125 0-0.5938-0.4922-0.7891-1.145-0.7891h-0.7461zm-0.6953-2.191h1.512c1.074 0 1.773 0.4141 1.773 1.379 0 0.9961-0.7773 1.402-1.809 1.402h-0.7812v2.18h-0.6953v-4.961" fill="#231f1f"/>
<path d="m74.46 227.8h0.01953l1.492-4.062h0.75l-1.949 4.961h-0.6445l-1.934-4.961h0.7734l1.492 4.062" fill="#231f1f"/>
<path d="m59.37 236.6c0.6719 0 1.121-0.5586 1.121-1.195 0-0.6367-0.4492-1.207-1.121-1.207-0.7227 0-1.098 0.5742-1.098 1.199s0.375 1.203 1.098 1.203zm-0.1133 0.5547c-1.023 0-1.672-0.7812-1.672-1.758 0-0.9805 0.6719-1.742 1.668-1.742 0.5352 0 0.9492 0.2656 1.18 0.5859h0.01562v-2.473h0.6602v5.297h-0.6406v-0.5234h-0.01172c-0.2539 0.3984-0.7305 0.6133-1.199 0.6133" fill="#231f1f"/>
<path d="m62.92 237.1h-0.6562v-3.32h0.6562zm-0.3281-4.098c-0.2383 0-0.4336-0.1914-0.4336-0.418 0-0.2422 0.1953-0.4297 0.4336-0.4297 0.2383 0 0.4414 0.1836 0.4414 0.4297 0 0.2383-0.2031 0.418-0.4414 0.418" fill="#231f1f"/>
<path d="m65.86 234.6c-0.1445-0.2383-0.4336-0.4102-0.7695-0.4102-0.3008 0-0.6172 0.1172-0.6172 0.4297 0 0.2812 0.2539 0.3867 0.7578 0.5 0.6289 0.1406 1.113 0.3984 1.113 0.9805 0 0.7852-0.6523 1.07-1.324 1.07-0.5039 0-1.023-0.1953-1.34-0.5938l0.4727-0.3984c0.1758 0.2578 0.5078 0.4609 0.8789 0.4609 0.332 0 0.6602-0.1172 0.6602-0.4844 0-0.3086-0.3008-0.418-0.8672-0.5508-0.4414-0.1055-0.9688-0.2969-0.9688-0.918 0-0.7148 0.625-1.016 1.254-1.016 0.4688 0 0.9688 0.1875 1.207 0.543l-0.457 0.3867" fill="#231f1f"/>
<path d="m68.74 234.2c-0.707 0-1.105 0.5703-1.105 1.199s0.3984 1.203 1.105 1.203c0.7148 0 1.109-0.5742 1.109-1.203s-0.3945-1.199-1.109-1.199zm0 2.957c-1.016 0-1.785-0.7344-1.785-1.758 0-1.02 0.7695-1.742 1.785-1.742 1.016 0 1.793 0.7227 1.793 1.742 0 1.023-0.7773 1.758-1.793 1.758" fill="#231f1f"/>
<path d="m71.42 233.8h0.6211c0.01563 0.168 0.02734 0.4219 0.02734 0.5625h0.02344c0.1797-0.3867 0.5664-0.6523 1.016-0.6523 0.08984 0 0.1797 0.007813 0.2578 0.02734l-0.02734 0.6094c-0.08594-0.02344-0.1953-0.03516-0.3008-0.03516-0.6289 0-0.9336 0.5117-0.9336 1.062v1.746h-0.6562v-2.605c0-0.1758-0.007812-0.4961-0.02734-0.7148" fill="#231f1f"/>
<path d="m75.41 236.6c0.6719 0 1.121-0.5586 1.121-1.195 0-0.6367-0.4492-1.207-1.121-1.207-0.7188 0-1.098 0.5742-1.098 1.199s0.3789 1.203 1.098 1.203zm-0.1133 0.5547c-1.02 0-1.672-0.7812-1.672-1.758 0-0.9805 0.6719-1.742 1.668-1.742 0.5391 0 0.9492 0.2656 1.184 0.5859h0.01172v-2.473h0.6602v5.297h-0.6367v-0.5234h-0.01562c-0.2539 0.3984-0.7266 0.6133-1.199 0.6133" fill="#231f1f"/>
<path d="m80.73 235.1c-0.01172-0.5273-0.3203-0.9375-0.9297-0.9375-0.5664 0-1.004 0.418-1.043 0.9375zm0.6602 0.4883h-2.633c0.01953 0.5703 0.4961 1.008 1.078 1.008 0.4492 0 0.7773-0.2227 0.9648-0.5039l0.4648 0.3711c-0.3594 0.4648-0.8438 0.6797-1.43 0.6797-1.008 0-1.75-0.6992-1.75-1.742 0-1.035 0.7422-1.758 1.715-1.758 0.9805 0 1.598 0.6641 1.598 1.723 0 0.07031 0 0.1445-0.007812 0.2227" fill="#231f1f"/>
<path d="m82.28 233.8h0.6211c0.01562 0.168 0.03125 0.4219 0.03125 0.5625h0.01953c0.1836-0.3867 0.5664-0.6523 1.016-0.6523 0.08984 0 0.1836 0.007813 0.2578 0.02734l-0.02734 0.6094c-0.08203-0.02344-0.1953-0.03516-0.3008-0.03516-0.6289 0-0.9297 0.5117-0.9297 1.062v1.746h-0.6602v-2.605c0-0.1758-0.007813-0.4961-0.02734-0.7148" fill="#231f1f"/>
<path d="m86.64 234.6c-0.1484-0.2383-0.4336-0.4102-0.7734-0.4102-0.3008 0-0.6133 0.1172-0.6133 0.4297 0 0.2812 0.25 0.3867 0.7539 0.5 0.6328 0.1406 1.113 0.3984 1.113 0.9805 0 0.7852-0.6484 1.07-1.32 1.07-0.5078 0-1.023-0.1953-1.34-0.5938l0.4688-0.3984c0.1758 0.2578 0.5117 0.4609 0.8828 0.4609 0.3281 0 0.6602-0.1172 0.6602-0.4844 0-0.3086-0.3008-0.418-0.8711-0.5508-0.4414-0.1055-0.9648-0.2969-0.9648-0.918 0-0.7148 0.625-1.016 1.254-1.016 0.4688 0 0.9648 0.1875 1.203 0.543l-0.4531 0.3867" fill="#231f1f"/>
<path d="m114.5 227.6c-0.3867 0.5234-1.023 0.8945-1.891 0.8945-1.52 0-2.613-1.086-2.613-2.609 0-1.551 1.137-2.602 2.641-2.602 0.6797 0 1.414 0.2695 1.777 0.7734l-0.5469 0.418c-0.2344-0.3359-0.7188-0.582-1.23-0.582-1.148 0-1.883 0.9062-1.883 1.992 0 1.109 0.7188 1.992 1.859 1.992 0.5547 0 1.039-0.2305 1.332-0.6562l0.5547 0.3789" fill="#231f1f"/>
<path d="m116.5 227.3h0.01172l1.164-3.953h0.7617l1.156 3.953h0.01562l1.09-3.953h0.7344l-1.457 4.961h-0.7188l-1.203-3.984h-0.01562l-1.203 3.984h-0.7227l-1.457-4.961h0.75l1.094 3.953" fill="#231f1f"/>
<path d="m125.7 226.7c-0.6523 0-1.477 0.07031-1.477 0.6289 0 0.3945 0.3477 0.5195 0.6758 0.5195 0.6172 0 0.9609-0.4141 0.9609-0.9766v-0.1719zm0.1602-0.5664c0-0.4922-0.3281-0.7305-0.8164-0.7305-0.3711 0-0.7227 0.1602-0.9492 0.3867l-0.3477-0.4219c0.3203-0.3086 0.8164-0.4961 1.359-0.4961 0.9492 0 1.383 0.5664 1.383 1.301v1.449c0 0.2266 0.01562 0.5 0.05078 0.6602h-0.5938c-0.03516-0.1484-0.05859-0.3203-0.05859-0.4766h-0.01953c-0.2383 0.3555-0.6172 0.5586-1.113 0.5586-0.5273 0-1.203-0.2578-1.203-1.02 0-1.004 1.188-1.121 2.309-1.121v-0.08984" fill="#231f1f"/>
<path d="m128.1 225c0.01172 0.168 0.02734 0.4062 0.02734 0.5469h0.02344c0.1602-0.3594 0.6016-0.6367 1.078-0.6367 0.8555 0 1.238 0.6094 1.238 1.352v2.059h-0.6602v-1.844c0-0.5391-0.1445-1.012-0.7539-1.012-0.5195 0-0.8906 0.4336-0.8906 1.09v1.766h-0.6562v-2.605c0-0.1758-0.007812-0.4961-0.03125-0.7148h0.625" fill="#231f1f"/>
<path d="m133.2 227.9c0.6719 0 1.121-0.5625 1.121-1.199 0-0.6367-0.4492-1.203-1.121-1.203-0.7188 0-1.098 0.5742-1.098 1.195 0 0.625 0.3789 1.207 1.098 1.207zm-0.1094 0.5508c-1.023 0-1.676-0.7812-1.676-1.758 0-0.9805 0.6719-1.742 1.668-1.742 0.5391 0 0.9531 0.2656 1.184 0.5898h0.01172v-2.477h0.6602v5.297h-0.6367v-0.5234h-0.01562c-0.25 0.3984-0.7266 0.6133-1.195 0.6133" fill="#231f1f"/>
<path d="m141.3 227.3h0.01562v-3.965h0.6914v4.961h-0.875l-2.621-4.047h-0.01172v4.047h-0.6953v-4.961h0.9062l2.59 3.965" fill="#231f1f"/>
<path d="m145.8 227.2h0.01563l1.461-3.812h1.082v4.961h-0.6953v-4.145h-0.01562l-1.645 4.145h-0.4414l-1.641-4.145h-0.01172v4.145h-0.6719v-4.961h1.078l1.484 3.812" fill="#231f1f"/>
<path d="m116.4 236.3c0.6719 0 1.121-0.5586 1.121-1.195 0-0.6406-0.4492-1.207-1.121-1.207-0.7227 0-1.098 0.5742-1.098 1.199 0 0.6211 0.375 1.203 1.098 1.203zm-0.1133 0.5547c-1.023 0-1.672-0.7852-1.672-1.758 0-0.9805 0.6719-1.746 1.668-1.746 0.5352 0 0.9492 0.2656 1.18 0.5898h0.01562v-2.473h0.6602v5.297h-0.6406v-0.5273h-0.01172c-0.2539 0.3984-0.7305 0.6172-1.199 0.6172" fill="#231f1f"/>
<path d="m119.9 236.7h-0.6562v-3.324h0.6562zm-0.3281-4.098c-0.2383 0-0.4336-0.1914-0.4336-0.4219 0-0.2383 0.1953-0.4297 0.4336-0.4297 0.2383 0 0.4414 0.1836 0.4414 0.4297 0 0.2383-0.2031 0.4219-0.4414 0.4219" fill="#231f1f"/>
<path d="m122.9 234.2c-0.1445-0.2383-0.4336-0.4141-0.7695-0.4141-0.3008 0-0.6172 0.1172-0.6172 0.4336 0 0.2812 0.2539 0.3867 0.7578 0.4961 0.6289 0.1406 1.113 0.3984 1.113 0.9805 0 0.7852-0.6523 1.074-1.324 1.074-0.5039 0-1.023-0.1992-1.34-0.5977l0.4727-0.3984c0.1719 0.2578 0.5078 0.4609 0.8789 0.4609 0.332 0 0.6602-0.1172 0.6602-0.4805 0-0.3086-0.3008-0.4219-0.8672-0.5547-0.4414-0.1055-0.9688-0.293-0.9688-0.918 0-0.7148 0.625-1.016 1.254-1.016 0.4688 0 0.9688 0.1914 1.207 0.5469l-0.457 0.3867" fill="#231f1f"/>
<path d="m125.7 233.9c-0.707 0-1.105 0.5664-1.105 1.199 0 0.6289 0.3984 1.203 1.105 1.203 0.7148 0 1.109-0.5742 1.109-1.203 0-0.6328-0.3945-1.199-1.109-1.199zm0 2.957c-1.016 0-1.785-0.7383-1.785-1.758 0-1.023 0.7695-1.746 1.785-1.746 1.02 0 1.793 0.7227 1.793 1.746 0 1.02-0.7734 1.758-1.793 1.758" fill="#231f1f"/>
<path d="m128.4 233.4h0.625c0.01563 0.168 0.02734 0.4219 0.02734 0.5625h0.02344c0.1797-0.3867 0.5664-0.6523 1.016-0.6523 0.08984 0 0.1797 0.007812 0.2578 0.03125l-0.02734 0.6055c-0.08203-0.01953-0.1953-0.03516-0.3008-0.03516-0.6328 0-0.9336 0.5117-0.9336 1.066v1.746h-0.6562v-2.609c0-0.1758-0.007812-0.4961-0.03125-0.7148" fill="#231f1f"/>
<path d="m132.4 236.3c0.6719 0 1.121-0.5586 1.121-1.195 0-0.6406-0.4492-1.207-1.121-1.207-0.7188 0-1.098 0.5742-1.098 1.199 0 0.6211 0.3789 1.203 1.098 1.203zm-0.1094 0.5547c-1.023 0-1.676-0.7852-1.676-1.758 0-0.9805 0.6719-1.746 1.668-1.746 0.5391 0 0.9492 0.2656 1.184 0.5898h0.01172v-2.473h0.6602v5.297h-0.6367v-0.5273h-0.01562c-0.2539 0.3984-0.7266 0.6172-1.195 0.6172" fill="#231f1f"/>
<path d="m137.7 234.8c-0.01172-0.5234-0.3203-0.9375-0.9297-0.9375-0.5664 0-1 0.4219-1.043 0.9375zm0.6602 0.4922h-2.633c0.01953 0.5664 0.4961 1.008 1.078 1.008 0.4492 0 0.7773-0.2227 0.9648-0.5039l0.4648 0.3711c-0.3594 0.4609-0.8398 0.6797-1.43 0.6797-1.008 0-1.75-0.7031-1.75-1.746 0-1.035 0.7422-1.758 1.715-1.758 0.9805 0 1.598 0.668 1.598 1.723 0 0.07031 0 0.1484-0.007812 0.2266" fill="#231f1f"/>
<path d="m139.3 233.4h0.6211c0.01562 0.168 0.03125 0.4219 0.03125 0.5625h0.01953c0.1836-0.3867 0.5664-0.6523 1.016-0.6523 0.08984 0 0.1836 0.007812 0.2578 0.03125l-0.02734 0.6055c-0.08594-0.01953-0.1953-0.03516-0.3008-0.03516-0.6289 0-0.9297 0.5117-0.9297 1.066v1.746h-0.6602v-2.609c0-0.1758-0.007813-0.4961-0.02734-0.7148" fill="#231f1f"/>
<path d="m143.6 234.2c-0.1484-0.2383-0.4336-0.4141-0.7734-0.4141-0.3008 0-0.6133 0.1172-0.6133 0.4336 0 0.2812 0.25 0.3867 0.7578 0.4961 0.6289 0.1406 1.109 0.3984 1.109 0.9805 0 0.7852-0.6484 1.074-1.32 1.074-0.5078 0-1.023-0.1992-1.34-0.5977l0.4688-0.3984c0.1758 0.2578 0.5117 0.4609 0.8828 0.4609 0.3281 0 0.6602-0.1172 0.6602-0.4805 0-0.3086-0.3047-0.4219-0.8711-0.5547-0.4414-0.1055-0.9648-0.293-0.9648-0.918 0-0.7148 0.625-1.016 1.254-1.016 0.4688 0 0.9648 0.1914 1.203 0.5469l-0.4531 0.3867" fill="#231f1f"/>
<path d="m183.1 228.1h-0.6914v-4.961h0.6914v4.961" fill="#231f1f"/>
<path d="m185 227.5h2.211v0.6172h-2.906v-4.961h0.6953v4.344" fill="#231f1f"/>
<path d="m188.6 227.5h0.8711c1.195 0 2.07-0.6875 2.07-1.871 0-1.227-0.875-1.875-2.07-1.875h-0.8711zm-0.6914-4.352h1.703c1.266 0 2.672 0.7227 2.672 2.48 0 1.695-1.406 2.48-2.672 2.48h-1.703v-4.961" fill="#231f1f"/>
<path d="m168.7 233.7h0.7344c0.6797 0 1.156-0.2227 1.156-0.8125 0-0.5938-0.4883-0.7891-1.141-0.7891h-0.75zm-0.6953-2.191h1.516c1.07 0 1.77 0.4141 1.77 1.379 0 0.9961-0.7734 1.402-1.805 1.402h-0.7852v2.18h-0.6953v-4.961" fill="#231f1f"/>
<path d="m172.4 233.2c0.01172 0.168 0.02734 0.4102 0.02734 0.5469h0.01953c0.1602-0.3555 0.6055-0.6367 1.078-0.6367 0.8555 0 1.242 0.6094 1.242 1.352v2.062h-0.6602v-1.844c0-0.5391-0.1445-1.016-0.7539-1.016-0.5195 0-0.8906 0.4336-0.8906 1.09v1.77h-0.6602v-2.609c0-0.1758-0.003906-0.4961-0.02734-0.7148h0.625" fill="#231f1f"/>
<path d="m178.3 234.5c-0.01172-0.5234-0.3203-0.9375-0.9297-0.9375-0.5664 0-1.004 0.4219-1.043 0.9375zm0.6602 0.4922h-2.633c0.01953 0.5664 0.4961 1.008 1.078 1.008 0.4492 0 0.7773-0.2227 0.9688-0.5039l0.4609 0.3711c-0.3594 0.4609-0.8438 0.6797-1.43 0.6797-1.008 0-1.75-0.7031-1.75-1.746 0-1.035 0.7422-1.758 1.715-1.758 0.9805 0 1.598 0.668 1.598 1.723 0 0.07031 0 0.1484-0.007812 0.2266" fill="#231f1f"/>
<path d="m182.2 236.5c-0.01562-0.1719-0.02734-0.4102-0.02734-0.5469h-0.01562c-0.168 0.3477-0.6016 0.6367-1.086 0.6367-0.8555 0-1.238-0.6094-1.238-1.352v-2.062h0.6602v1.836c0 0.5469 0.1445 1.023 0.7539 1.023 0.5273 0 0.8906-0.4336 0.8906-1.094v-1.766h0.6562v2.609c0 0.1719 0.007813 0.4961 0.02734 0.7148h-0.6211" fill="#231f1f"/>
<path d="m185.7 233.1c0.4414 0 0.8242 0.1992 1.027 0.668 0.2227-0.4297 0.6602-0.668 1.129-0.668 0.8555 0 1.238 0.6094 1.238 1.352v2.062h-0.6562v-1.844c0-0.5391-0.1641-1.016-0.7383-1.016-0.6016 0-0.8398 0.5469-0.8398 1.066v1.793h-0.6562v-1.977c0-0.5195-0.1758-0.8828-0.6992-0.8828-0.4844 0-0.8516 0.4336-0.8516 1.09v1.77h-0.6562v-2.609c0-0.1758-0.007813-0.4961-0.02734-0.7148h0.6211c0.01562 0.168 0.03125 0.4102 0.03125 0.5469h0.01953c0.168-0.3477 0.5508-0.6367 1.059-0.6367" fill="#231f1f"/>
<path d="m191.7 233.6c-0.707 0-1.105 0.5664-1.105 1.199 0 0.6289 0.3984 1.203 1.105 1.203 0.7148 0 1.105-0.5742 1.105-1.203 0-0.6328-0.3906-1.199-1.105-1.199zm0 2.957c-1.016 0-1.785-0.7383-1.785-1.758 0-1.023 0.7695-1.746 1.785-1.746s1.793 0.7227 1.793 1.746c0 1.02-0.7773 1.758-1.793 1.758" fill="#231f1f"/>
<path d="m195 233.2c0.01562 0.168 0.02734 0.4102 0.02734 0.5469h0.02344c0.1602-0.3555 0.6016-0.6367 1.074-0.6367 0.8555 0 1.242 0.6094 1.242 1.352v2.062h-0.6602v-1.844c0-0.5391-0.1445-1.016-0.7539-1.016-0.5195 0-0.8906 0.4336-0.8906 1.09v1.77h-0.6562v-2.609c0-0.1758-0.007812-0.4961-0.03125-0.7148h0.625" fill="#231f1f"/>
<path d="m199.2 236.5h-0.6602v-3.324h0.6602zm-0.3281-4.098c-0.2383 0-0.4375-0.1914-0.4375-0.4219 0-0.2383 0.1992-0.4297 0.4375-0.4297 0.2383 0 0.4375 0.1836 0.4375 0.4297 0 0.2383-0.1992 0.4219-0.4375 0.4219" fill="#231f1f"/>
<path d="m202 233.7h-0.8828v1.734c0 0.3984 0.1406 0.5586 0.4688 0.5586 0.1172 0 0.2734-0.02734 0.3828-0.08594l0.02344 0.543c-0.1562 0.05469-0.3594 0.08984-0.5586 0.08984-0.625 0-0.9688-0.3516-0.9688-1.039v-1.801h-0.6367v-0.5391h0.6367v-0.9492h0.6523v0.9492h0.8828v0.5391" fill="#231f1f"/>
<path d="m203.3 236.5h-0.6602v-3.324h0.6602zm-0.332-4.098c-0.2383 0-0.4336-0.1914-0.4336-0.4219 0-0.2383 0.1953-0.4297 0.4336-0.4297 0.2383 0 0.4414 0.1836 0.4414 0.4297 0 0.2383-0.2031 0.4219-0.4414 0.4219" fill="#231f1f"/>
<path d="m206.2 234c-0.1445-0.2383-0.4336-0.4141-0.7695-0.4141-0.3008 0-0.6172 0.1172-0.6172 0.4336 0 0.2812 0.2539 0.3867 0.7578 0.4961 0.6289 0.1406 1.113 0.3984 1.113 0.9805 0 0.7852-0.6523 1.074-1.324 1.074-0.5039 0-1.023-0.1992-1.336-0.5977l0.4688-0.3984c0.1758 0.2578 0.5078 0.4609 0.8828 0.4609 0.3281 0 0.6562-0.1172 0.6562-0.4805 0-0.3086-0.3008-0.4219-0.8672-0.5547-0.4414-0.1055-0.9688-0.293-0.9688-0.918 0-0.7148 0.625-1.016 1.254-1.016 0.4727 0 0.9688 0.1914 1.207 0.5469l-0.457 0.3867" fill="#231f1f"/>
<path d="m238.7 226.1h1.855l-0.9219-2.328zm-0.7422 1.828h-0.7695l2.148-4.961h0.6289l2.129 4.961h-0.7812l-0.5039-1.223h-2.355l-0.4961 1.223" fill="#231f1f"/>
<path d="m244.5 225.4c-0.1484-0.2383-0.4336-0.4141-0.7695-0.4141-0.3008 0-0.6172 0.1172-0.6172 0.4336 0 0.2812 0.25 0.3867 0.7578 0.5 0.6289 0.1367 1.113 0.3984 1.113 0.9766 0 0.7852-0.6523 1.074-1.324 1.074-0.5039 0-1.023-0.1992-1.34-0.5938l0.4688-0.4023c0.1797 0.2578 0.5156 0.4609 0.8867 0.4609 0.3281 0 0.6562-0.1172 0.6562-0.4805 0-0.3086-0.3008-0.4219-0.8672-0.5547-0.4414-0.1055-0.9688-0.293-0.9688-0.918 0-0.7109 0.625-1.016 1.254-1.016 0.4688 0 0.9688 0.1914 1.203 0.5469l-0.4531 0.3867" fill="#231f1f"/>
<path d="m247.5 225.1h-0.8828v1.727c0 0.4023 0.1367 0.5625 0.4688 0.5625 0.1172 0 0.2734-0.02734 0.3828-0.08203l0.02344 0.5391c-0.1562 0.05469-0.3594 0.08984-0.5625 0.08984-0.6211 0-0.9648-0.3516-0.9648-1.039v-1.797h-0.6367v-0.5391h0.6367v-0.9531h0.6523v0.9531h0.8828v0.5391" fill="#231f1f"/>
<path d="m248.8 225.1c0.1523-0.332 0.5742-0.5977 1.051-0.5977 0.8555 0 1.238 0.6094 1.238 1.352v2.062h-0.6562v-1.836c0-0.5391-0.1406-1.016-0.75-1.016-0.5195 0-0.8984 0.4336-0.8984 1.09v1.762h-0.6562v-5.297h0.6562v2.48h0.01562" fill="#231f1f"/>
<path d="m253.9 224.5c0.4453 0 0.8281 0.1953 1.031 0.668 0.2227-0.4297 0.6602-0.668 1.129-0.668 0.8516 0 1.238 0.6094 1.238 1.352v2.062h-0.6602v-1.844c0-0.5391-0.1602-1.016-0.7344-1.016-0.6016 0-0.8398 0.5469-0.8398 1.066v1.793h-0.6602v-1.977c0-0.5195-0.1719-0.8828-0.6992-0.8828-0.4844 0-0.8477 0.4336-0.8477 1.094v1.766h-0.6562v-2.609c0-0.1719-0.007813-0.4961-0.02734-0.7109h0.6211c0.01562 0.168 0.02734 0.4062 0.02734 0.543h0.02344c0.168-0.3477 0.5508-0.6367 1.055-0.6367" fill="#231f1f"/>
<path d="m260.4 226.3c-0.6523 0-1.477 0.07031-1.477 0.6328 0 0.3906 0.3477 0.5156 0.6758 0.5156 0.6172 0 0.9609-0.4141 0.9609-0.9727v-0.1758zm0.1602-0.5664c0-0.4922-0.3281-0.7266-0.8203-0.7266-0.3711 0-0.7188 0.1602-0.9453 0.3828l-0.3477-0.418c0.3203-0.3086 0.8164-0.5 1.359-0.5 0.9531 0 1.383 0.5664 1.383 1.305v1.449c0 0.2227 0.01562 0.4961 0.05078 0.6602h-0.5938c-0.03516-0.1484-0.05859-0.3242-0.05859-0.4805h-0.01953c-0.2383 0.3594-0.6172 0.5625-1.113 0.5625-0.5234 0-1.207-0.2578-1.207-1.023 0-1 1.191-1.121 2.312-1.121v-0.08984" fill="#231f1f"/>
<path d="m249.6 235.6c-0.3867 0.5234-1.023 0.8945-1.891 0.8945-1.52 0-2.613-1.086-2.613-2.609 0-1.551 1.133-2.602 2.641-2.602 0.6797 0 1.414 0.2656 1.777 0.7734l-0.5469 0.418c-0.2383-0.3359-0.7188-0.582-1.23-0.582-1.148 0-1.883 0.9062-1.883 1.992 0 1.109 0.7188 1.992 1.863 1.992 0.5508 0 1.035-0.2305 1.328-0.6562l0.5547 0.3789" fill="#231f1f"/>
<path d="m251 235.7h0.8672c0.5898 0 1.234-0.1797 1.234-0.8516 0-0.582-0.4141-0.8359-1.172-0.8359h-0.9297zm0-2.277h0.9023c0.5312 0 0.9727-0.2266 0.9727-0.7695 0-0.5312-0.4258-0.7422-1.082-0.7422h-0.793zm-0.6953-2.094h1.711c0.75 0 1.555 0.3086 1.555 1.254 0 0.5469-0.3516 0.9414-0.8711 1.078v0.01563c0.6406 0.07812 1.102 0.5117 1.102 1.203 0 0.9531-0.8281 1.41-1.863 1.41h-1.633v-4.961" fill="#231f1f"/>
<path d="m285.8 228.6h2.59v0.6172h-3.285v-4.961h3.184v0.6094h-2.488v1.488h2.34v0.5938h-2.34v1.652" fill="#231f1f"/>
<path d="m291 225.8c0.4414 0 0.8281 0.1953 1.031 0.6641 0.2227-0.4297 0.6562-0.6641 1.125-0.6641 0.8555 0 1.242 0.6055 1.242 1.352v2.059h-0.6602v-1.844c0-0.5391-0.1602-1.016-0.7344-1.016-0.6016 0-0.8398 0.5469-0.8398 1.066v1.793h-0.6602v-1.977c0-0.5156-0.1758-0.8828-0.6992-0.8828-0.4844 0-0.8477 0.4336-0.8477 1.094v1.766h-0.6602v-2.605c0-0.1758-0.003906-0.4961-0.02734-0.7148h0.625c0.01172 0.168 0.02734 0.4062 0.02734 0.5469h0.01953c0.168-0.3516 0.5547-0.6367 1.059-0.6367" fill="#231f1f"/>
<path d="m297.2 226.4c-0.6758 0-1.121 0.5664-1.121 1.203 0 0.6367 0.4453 1.195 1.121 1.195 0.7188 0 1.105-0.582 1.105-1.203 0-0.625-0.3867-1.195-1.105-1.195zm-1.082 4.543h-0.6562v-5h0.6445v0.5156h0.01953c0.2188-0.3477 0.6523-0.6055 1.199-0.6055 0.9883 0 1.66 0.7617 1.66 1.742 0 0.9727-0.6523 1.758-1.676 1.758-0.4688 0-0.9219-0.2188-1.168-0.5859h-0.02344v2.176" fill="#231f1f"/>
<path d="m300.6 226.4c0.1523-0.3281 0.5742-0.5938 1.051-0.5938 0.8516 0 1.238 0.6055 1.238 1.352v2.059h-0.6562v-1.836c0-0.5391-0.1406-1.016-0.75-1.016-0.5195 0-0.8984 0.4336-0.8984 1.094v1.758h-0.6562v-5.297h0.6562v2.48h0.01562" fill="#231f1f"/>
<path d="m305.3 228.5h0.01562l0.918-2.605h0.6992l-1.609 4.102c-0.2188 0.5547-0.5 0.8984-1.148 0.8984-0.1406 0-0.2891-0.01563-0.4375-0.04688l0.06641-0.582c0.1016 0.03516 0.2227 0.05469 0.3281 0.05469 0.3438 0 0.4766-0.1953 0.6172-0.5508l0.207-0.5547-1.422-3.32h0.7383l1.027 2.605" fill="#231f1f"/>
<path d="m309.3 226.8c-0.1484-0.2383-0.4375-0.4141-0.7734-0.4141-0.3008 0-0.6133 0.1211-0.6133 0.4336 0 0.2812 0.25 0.3867 0.7578 0.5 0.6289 0.1406 1.109 0.3984 1.109 0.9805 0 0.7852-0.6484 1.07-1.32 1.07-0.5039 0-1.023-0.1953-1.34-0.5938l0.4688-0.3984c0.1758 0.2578 0.5117 0.4609 0.8828 0.4609 0.3281 0 0.6602-0.1211 0.6602-0.4844 0-0.3086-0.3008-0.4219-0.8711-0.5508-0.4414-0.1094-0.9648-0.2969-0.9648-0.918 0-0.7148 0.625-1.016 1.254-1.016 0.4688 0 0.9648 0.1875 1.203 0.5469l-0.4531 0.3828" fill="#231f1f"/>
<path d="m313.1 227.3c-0.01562-0.5273-0.3242-0.9414-0.9336-0.9414-0.5664 0-1 0.4219-1.043 0.9414zm0.6562 0.4883h-2.633c0.01953 0.5664 0.4961 1.008 1.078 1.008 0.4492 0 0.7773-0.2227 0.9648-0.5039l0.4648 0.3711c-0.3594 0.4609-0.8398 0.6797-1.43 0.6797-1.008 0-1.75-0.6992-1.75-1.742 0-1.039 0.7422-1.758 1.715-1.758 0.9805 0 1.598 0.6641 1.598 1.723 0 0.07031 0 0.1445-0.007812 0.2227" fill="#231f1f"/>
<path d="m316.4 225.8c0.4414 0 0.8242 0.1953 1.027 0.6641 0.2266-0.4297 0.6602-0.6641 1.129-0.6641 0.8555 0 1.238 0.6055 1.238 1.352v2.059h-0.6562v-1.844c0-0.5391-0.1602-1.016-0.7344-1.016-0.6055 0-0.8438 0.5469-0.8438 1.066v1.793h-0.6562v-1.977c0-0.5156-0.1758-0.8828-0.6992-0.8828-0.4844 0-0.8477 0.4336-0.8477 1.094v1.766h-0.6602v-2.605c0-0.1758-0.007813-0.4961-0.02734-0.7148h0.6211c0.01562 0.168 0.03125 0.4062 0.03125 0.5469h0.01953c0.168-0.3516 0.5547-0.6367 1.059-0.6367" fill="#231f1f"/>
<path d="m322.8 227.7c-0.6484 0-1.477 0.07031-1.477 0.6328 0 0.3906 0.3516 0.5195 0.6797 0.5195 0.6172 0 0.9609-0.4141 0.9609-0.9766v-0.1758zm0.1641-0.5664c0-0.4883-0.332-0.7266-0.8203-0.7266-0.3711 0-0.7227 0.1602-0.9453 0.3867l-0.3516-0.4219c0.3242-0.3086 0.8203-0.4961 1.359-0.4961 0.9531 0 1.387 0.5664 1.387 1.301v1.449c0 0.2266 0.01562 0.5 0.05078 0.6602h-0.5977c-0.03516-0.1484-0.05469-0.3242-0.05469-0.4766h-0.02344c-0.2344 0.3555-0.6133 0.5586-1.113 0.5586-0.5234 0-1.203-0.2578-1.203-1.02 0-1.004 1.191-1.121 2.312-1.121v-0.09375" fill="#231f1f"/>
<path transform="matrix(.1 0 0 -.1 0 242.5)" d="m1632 2190v-110.2" fill="none" stroke="#231f1f" stroke-width="5"/>
<path transform="matrix(.1 0 0 -.1 0 242.5)" d="m1597 1283v-224.6" fill="none" stroke="#231f1f" stroke-width="5"/>
<path d="m159.7 139.7c-0.6328-1.703-1.715-3.816-2.855-5.129l2.855 1.035 2.852-1.035c-1.145 1.312-2.223 3.426-2.852 5.129" fill="#231f1f"/>
<path transform="matrix(.1 0 0 -.1 0 242.5)" d="m1601 844.5v-115" fill="none" stroke="#231f1f" stroke-width="5"/>
<path d="m160.1 172.2c-0.6289-1.703-1.711-3.816-2.852-5.125l2.852 1.031 2.855-1.031c-1.145 1.309-2.223 3.422-2.855 5.125" fill="#231f1f"/>
<path transform="matrix(.1 0 0 -.1 0 242.5)" d="m481.9 842.6v-115" fill="none" stroke="#231f1f" stroke-width="5"/>
<path d="m48.19 172.4c-0.6328-1.703-1.711-3.816-2.852-5.129l2.852 1.031 2.852-1.031c-1.141 1.312-2.219 3.426-2.852 5.129" fill="#231f1f"/>
<path transform="matrix(.1 0 0 -.1 0 242.5)" d="m481.5 512.5v-110.2" fill="none" stroke="#231f1f" stroke-width="5"/>
<path transform="matrix(.1 0 0 -.1 0 242.5)" d="m1603 515.3v-112.2" fill="none" stroke="#231f1f" stroke-width="5"/>
<path transform="matrix(.1 0 0 -.1 0 242.5)" d="m1293 280.5v120h579.6v-120" fill="none" stroke="#231f1f" stroke-width="5"/>
<path d="m129.3 217.4c-0.5859-1.703-1.59-3.82-2.652-5.129l2.652 1.031 2.652-1.031c-1.059 1.309-2.062 3.426-2.652 5.129" fill="#231f1f"/>
<path transform="matrix(.1 0 0 -.1 0 242.5)" d="m2537 512.3v-110.2" fill="none" stroke="#231f1f" stroke-width="5"/>
<path transform="matrix(.1 0 0 -.1 0 242.5)" d="m2535 841.4v-115" fill="none" stroke="#231f1f" stroke-width="5"/>
<path d="m253.5 172.5c-0.6328-1.703-1.711-3.816-2.852-5.125l2.852 1.031 2.855-1.031c-1.145 1.309-2.223 3.422-2.855 5.125" fill="#231f1f"/>
<path transform="matrix(.1 0 0 -.1 0 242.5)" d="m1832 1375h530.8v-315.8" fill="none" stroke="#231f1f" stroke-width="5"/>
<path d="m236.2 139.7c-0.5859-1.703-1.59-3.816-2.652-5.125l2.652 1.031 2.652-1.031c-1.062 1.309-2.066 3.422-2.652 5.125" fill="#231f1f"/>
<path d="m248.6 139.6c-0.5898-1.703-1.59-3.816-2.652-5.129l2.652 1.031 2.652-1.031c-1.062 1.312-2.066 3.426-2.652 5.129" fill="#231f1f"/>
<path transform="matrix(.1 0 0 -.1 0 242.5)" d="m2794 1744v-233.1" fill="none" stroke="#231f1f" stroke-width="5"/>
<path transform="matrix(.1 0 0 -.1 0 242.5)" d="m2486 1062v765h80.59" fill="none" stroke="#231f1f" stroke-width="5"/>
<path d="m279.3 94.12c-0.5859-1.707-1.59-3.82-2.652-5.129l2.652 1.031 2.652-1.031c-1.062 1.309-2.062 3.422-2.652 5.129" fill="#231f1f"/>
<path transform="matrix(.1 0 0 -.1 0 242.5)" d="m2795 1297v-110.2" fill="none" stroke="#231f1f" stroke-width="5"/>
<path transform="matrix(.1 0 0 -.1 0 242.5)" d="m2635 1057v131.1h382.7v-131.1" fill="none" stroke="#231f1f" stroke-width="5"/>
<path d="m263.5 139.6c-0.5859-1.703-1.59-3.816-2.652-5.129l2.652 1.031 2.652-1.031c-1.059 1.312-2.062 3.426-2.652 5.129" fill="#231f1f"/>
<path d="m301.8 139.6c-0.5898-1.703-1.59-3.816-2.652-5.129l2.652 1.031 2.652-1.031c-1.062 1.312-2.066 3.426-2.652 5.129" fill="#231f1f"/>
<path transform="matrix(.1 0 0 -.1 0 242.5)" d="m481.1 1961v120h2311v-120" fill="none" stroke="#231f1f" stroke-width="5"/>
<path d="m48.04 49.93c-0.5859-1.703-1.59-3.816-2.652-5.125l2.652 1.031 2.656-1.031c-1.062 1.309-2.066 3.422-2.656 5.125" fill="#231f1f"/>
<path d="m279.1 49.65c-0.5859-1.703-1.59-3.816-2.652-5.129l2.652 1.035 2.656-1.035c-1.062 1.312-2.066 3.426-2.656 5.129" fill="#231f1f"/>
<path transform="matrix(.1 0 0 -.1 0 242.5)" d="m2494 283.4v120h549.2v-120" fill="none" stroke="#231f1f" stroke-width="5"/>
<path d="m249.3 217.2c-0.6602-1.922-0.8789-2.945-2.648-5.129l2.648 1.031 2.656-1.031c-1.062 1.309-2.066 3.426-2.656 5.129" fill="#231f1f"/>
<path d="m304.1 216.9c-0.5898-1.707-1.594-3.82-2.652-5.129l2.652 1.031 2.652-1.031c-1.062 1.309-2.066 3.422-2.652 5.129" fill="#231f1f"/>
<path d="m187.3 217.2c-0.5859-1.703-1.59-3.82-2.652-5.129l2.652 1.031 2.652-1.031c-1.059 1.309-2.062 3.426-2.652 5.129" fill="#231f1f"/>
<path transform="matrix(.1 0 0 -.1 0 242.5)" d="m483.8 1742v-686" fill="none" stroke="#231f1f" stroke-width="5"/>
<path d="m48.38 139.8c-0.6328-1.707-1.711-3.82-2.852-5.129l2.852 1.031 2.855-1.031c-1.145 1.309-2.223 3.422-2.855 5.129" fill="#231f1f"/>
<path transform="matrix(.1 0 0 -.1 0 242.5)" d="m712.9 1832h883.9v-328.3" fill="none" stroke="#231f1f" stroke-width="5"/>
<path d="m159.6 95.37c-0.5859-1.703-1.59-3.816-2.652-5.129l2.652 1.031 2.652-1.031c-1.062 1.312-2.066 3.426-2.652 5.129" fill="#231f1f"/>
<path transform="matrix(.1 0 0 -.1 0 242.5)" d="m229.1 283.5v120h491.1v-120" fill="none" stroke="#231f1f" stroke-width="5"/>
<path d="m22.88 218.1c-0.5898-1.703-1.594-3.816-2.652-5.129l2.652 1.031 2.652-1.031c-1.062 1.312-2.066 3.426-2.652 5.129" fill="#231f1f"/>
<path d="m72 217.9c-0.5898-1.703-1.59-3.816-2.652-5.125l2.652 1.031 2.652-1.031c-1.062 1.309-2.066 3.422-2.652 5.125" fill="#231f1f"/>
<path d="m150.3 9.574h-0.6953v-4.961h3.098v0.6094h-2.402v1.543h2.246v0.5938h-2.246v2.215" fill="#231f1f"/>
<path d="m154.3 8.957h2.59v0.6172h-3.285v-4.961h3.18v0.6094h-2.484v1.484h2.34v0.5977h-2.34v1.652" fill="#231f1f"/>
<path d="m159.4 8.676h0.02344l1.492-4.062h0.75l-1.949 4.961h-0.6445l-1.934-4.961h0.7734l1.488 4.062" fill="#231f1f"/>
<path d="m162.5 10.98h-0.3945v-2.402l-0.5469 0.457-0.2305-0.2734 0.8164-0.6641h0.3555v2.883" fill="#231f1f"/>
<path d="m164.3 9.809-0.5-0.168 2.152-5.262 0.4961 0.1836-2.148 5.246" fill="#231f1f"/>
<path d="m168.7 8.68h0.02344l1.488-4.062h0.75l-1.945 4.957h-0.6445l-1.934-4.957h0.7695l1.492 4.062" fill="#231f1f"/>
<path d="m175.7 8.805c-0.3828 0.5273-1.023 0.8984-1.891 0.8984-1.52 0-2.613-1.086-2.613-2.613 0-1.547 1.137-2.598 2.641-2.598 0.6797 0 1.418 0.2656 1.781 0.7695l-0.5469 0.4219c-0.2383-0.3359-0.7227-0.582-1.234-0.582-1.148 0-1.883 0.9023-1.883 1.988 0 1.113 0.7227 1.996 1.863 1.996 0.5508 0 1.035-0.2305 1.332-0.6562l0.5508 0.375" fill="#231f1f"/>
<path d="m154.5 17.92v-0.5898h3.586v0.5898zm0-0.8555v-0.6172l2.781-0.9375-2.781-0.9609v-0.6211l3.586 1.281v0.6016l-3.586 1.254" fill="#231f1f"/>
<path d="m159.9 17.36h2.211v0.6172h-2.906v-4.957h0.6953v4.34" fill="#231f1f"/>
<path d="m163.5 17.36h2.211v0.6172h-2.906v-4.957h0.6953v4.34" fill="#231f1f"/>
<path d="m169.8 16.98h0.01562v-3.961h0.6953v4.957h-0.8789l-2.617-4.047h-0.01562v4.047h-0.6914v-4.957h0.9023l2.59 3.961" fill="#231f1f"/>
</svg>
