<?xml version="1.0" encoding="UTF-8"?>
<svg width="334.2pt" height="384.2pt" version="1.1" viewBox="0 0 334.2 384.2" xmlns="http://www.w3.org/2000/svg">
<defs>
<clipPath id="ad">
<path d="m198 210h136.2v2h-136.2z"/>
</clipPath>
<clipPath id="s">
<path d="m23 283h2v101.2h-2z"/>
</clipPath>
<clipPath id="h">
<path d="m222 283h2v101.2h-2z"/>
</clipPath>
<clipPath id="f">
<path d="m198 345h136.2v2h-136.2z"/>
</clipPath>
<clipPath id="e">
<path d="m30 379h4v5.238h-4z"/>
</clipPath>
<clipPath id="d">
<path d="m33 380h4v4.238h-4z"/>
</clipPath>
<clipPath id="c">
<path d="m36 380h4v4.238h-4z"/>
</clipPath>
<clipPath id="b">
<path d="m39 380h3v4.238h-3z"/>
</clipPath>
<clipPath id="a">
<path d="m41 380h4v4.238h-4z"/>
</clipPath>
<clipPath id="ac">
<path d="m45 380h3v4.238h-3z"/>
</clipPath>
<clipPath id="ab">
<path d="m47 379h4v5.238h-4z"/>
</clipPath>
<clipPath id="aa">
<path d="m51 380h4v4.238h-4z"/>
</clipPath>
<clipPath id="z">
<path d="m55 380h3v4.238h-3z"/>
</clipPath>
<clipPath id="y">
<path d="m57 380h4v4.238h-4z"/>
</clipPath>
<clipPath id="x">
<path d="m61 380h4v4.238h-4z"/>
</clipPath>
<clipPath id="w">
<path d="m64 379h2v5.238h-2z"/>
</clipPath>
<clipPath id="v">
<path d="m66 380h4v4.238h-4z"/>
</clipPath>
<clipPath id="u">
<path d="m229 379h2v5.238h-2z"/>
</clipPath>
<clipPath id="t">
<path d="m231 380h4v4.238h-4z"/>
</clipPath>
<clipPath id="r">
<path d="m234 380h3v4.238h-3z"/>
</clipPath>
<clipPath id="q">
<path d="m237 380h3v4.238h-3z"/>
</clipPath>
<clipPath id="p">
<path d="m239 380h4v4.238h-4z"/>
</clipPath>
<clipPath id="o">
<path d="m242 380h3v4.238h-3z"/>
</clipPath>
<clipPath id="n">
<path d="m245 379h4v5.238h-4z"/>
</clipPath>
<clipPath id="m">
<path d="m249 380h4v4.238h-4z"/>
</clipPath>
<clipPath id="l">
<path d="m253 380h3v4.238h-3z"/>
</clipPath>
<clipPath id="k">
<path d="m255 380h4v4.238h-4z"/>
</clipPath>
<clipPath id="j">
<path d="m259 380h4v4.238h-4z"/>
</clipPath>
<clipPath id="i">
<path d="m262 379h2v5.238h-2z"/>
</clipPath>
<clipPath id="g">
<path d="m264 380h4v4.238h-4z"/>
</clipPath>
</defs>
<path transform="matrix(.1 0 0 -.1 0 384.2)" d="m240.5 2357v-1005" fill="none" stroke="#231f1f" stroke-width="5"/>
<path transform="matrix(.1 0 0 -.1 0 384.2)" d="m0 1733h1355" fill="none" stroke="#231f1f" stroke-width="5"/>
<path transform="matrix(.1 0 0 -.1 0 384.2)" d="m240.5 3707v-1005" fill="none" stroke="#231f1f" stroke-width="5"/>
<path transform="matrix(.1 0 0 -.1 0 384.2)" d="m0 3084h1355" fill="none" stroke="#231f1f" stroke-width="5"/>
<path transform="matrix(.1 0 0 -.1 0 384.2)" d="m2228 2357v-1005" fill="none" stroke="#231f1f" stroke-width="5"/>
<g clip-path="url(#ad)">
<path transform="matrix(.1 0 0 -.1 0 384.2)" d="m1987 1733h1355" fill="none" stroke="#231f1f" stroke-width="5"/>
</g>
<g clip-path="url(#s)">
<path transform="matrix(.1 0 0 -.1 0 384.2)" d="m240.5 1008v-1005" fill="none" stroke="#231f1f" stroke-width="5"/>
</g>
<path transform="matrix(.1 0 0 -.1 0 384.2)" d="m0 384.4h1355" fill="none" stroke="#231f1f" stroke-width="5"/>
<g clip-path="url(#h)">
<path transform="matrix(.1 0 0 -.1 0 384.2)" d="m2228 1008v-1005" fill="none" stroke="#231f1f" stroke-width="5"/>
</g>
<g clip-path="url(#f)">
<path transform="matrix(.1 0 0 -.1 0 384.2)" d="m1987 384.4h1355" fill="none" stroke="#231f1f" stroke-width="5"/>
</g>
<path d="m6.184 136.1c-1.477 0-2.418 1.133-2.418 2.496 0 1.391 0.9492 2.496 2.418 2.496 1.484 0 2.434-1.105 2.434-2.496 0-1.363-0.9414-2.496-2.434-2.496zm0 5.777c-1.945 0-3.387-1.363-3.387-3.281 0-1.941 1.441-3.262 3.387-3.262 1.953 0 3.398 1.32 3.398 3.262 0 1.918-1.445 3.281-3.398 3.281" fill="#231f1f"/>
<path d="m13.02 138.1c-0.8672 0-1.449 0.7109-1.449 1.512 0 0.8008 0.582 1.5 1.449 1.5 0.9336 0 1.43-0.7266 1.43-1.512 0-0.7812-0.4961-1.5-1.43-1.5zm-1.422 2.934v0.6602h-0.8203v-6.645h0.8477v3.102h0.02734c0.2891-0.4023 0.8242-0.7383 1.531-0.7383 1.273 0 2.145 0.957 2.145 2.188 0 1.223-0.8438 2.207-2.164 2.207-0.6055 0-1.211-0.2695-1.547-0.7734h-0.01953" fill="#231f1f"/>
<path d="m18.83 138.6c-0.1914-0.2969-0.5625-0.5195-0.9961-0.5195-0.3867 0-0.7969 0.1523-0.7969 0.5469 0 0.3516 0.3281 0.4844 0.9805 0.625 0.8125 0.1758 1.438 0.5 1.438 1.23 0 0.9844-0.8438 1.344-1.711 1.344-0.6523 0-1.32-0.2461-1.727-0.7461l0.6055-0.5c0.2266 0.3242 0.6602 0.5781 1.141 0.5781 0.4258 0 0.8477-0.1484 0.8477-0.6055 0-0.3867-0.3867-0.5273-1.121-0.6953-0.5703-0.1289-1.246-0.3672-1.246-1.152 0-0.8945 0.8047-1.273 1.617-1.273 0.6055 0 1.25 0.2383 1.555 0.6875l-0.5859 0.4805" fill="#231f1f"/>
<path d="m22.63 138.2h-1.141v2.172c0 0.5 0.1797 0.7031 0.6055 0.7031 0.1562 0 0.3555-0.03516 0.5-0.1055l0.02734 0.6758c-0.1992 0.07031-0.4648 0.1133-0.7266 0.1133-0.8047 0-1.246-0.4375-1.246-1.301v-2.258h-0.8242v-0.6797h0.8242v-1.195h0.8398v1.195h1.141v0.6797" fill="#231f1f"/>
<path d="m23.47 137.5h0.8086c0.01562 0.2109 0.03516 0.5273 0.03516 0.7031h0.02734c0.2344-0.4805 0.7305-0.8164 1.312-0.8164 0.1172 0 0.2344 0.007813 0.332 0.03516l-0.03516 0.7656c-0.1094-0.02734-0.2539-0.04297-0.3906-0.04297-0.8125 0-1.203 0.6406-1.203 1.336v2.188h-0.8477v-3.27c0-0.2188-0.01172-0.625-0.03906-0.8984" fill="#231f1f"/>
<path d="m29.81 141.7c-0.01953-0.2109-0.03516-0.5078-0.03516-0.6836h-0.01953c-0.2188 0.4375-0.7773 0.7969-1.402 0.7969-1.105 0-1.602-0.7617-1.602-1.695v-2.586h0.8516v2.305c0 0.6875 0.1875 1.281 0.9766 1.281 0.6797 0 1.148-0.543 1.148-1.367v-2.219h0.8516v3.273c0 0.2188 0.007813 0.6211 0.03516 0.8945h-0.8047" fill="#231f1f"/>
<path d="m35.05 138.6c-0.1797-0.2695-0.5781-0.4727-0.9844-0.4727-0.8867 0-1.402 0.7031-1.402 1.504 0 0.7891 0.5156 1.5 1.41 1.5 0.4336 0 0.8047-0.1758 1.031-0.457l0.5703 0.5039c-0.3594 0.4023-0.9141 0.6484-1.602 0.6484-1.32 0-2.305-0.8711-2.305-2.195 0-1.312 0.9766-2.199 2.289-2.199 0.6055 0 1.258 0.2383 1.609 0.6875l-0.6172 0.4805" fill="#231f1f"/>
<path d="m38.62 138.2h-1.141v2.172c0 0.5 0.1836 0.7031 0.6055 0.7031 0.1562 0 0.3555-0.03516 0.5-0.1055l0.02734 0.6758c-0.1992 0.07031-0.4609 0.1133-0.7266 0.1133-0.8047 0-1.246-0.4375-1.246-1.301v-2.258h-0.8242v-0.6797h0.8242v-1.195h0.8398v1.195h1.141v0.6797" fill="#231f1f"/>
<path d="m40.36 141.7h-0.8516v-4.168h0.8516zm-0.4258-5.145c-0.3086 0-0.5625-0.2383-0.5625-0.5273 0-0.2969 0.2539-0.5352 0.5625-0.5352s0.5703 0.2305 0.5703 0.5352c0 0.3008-0.2617 0.5273-0.5703 0.5273" fill="#231f1f"/>
<path d="m43.86 141.7h-0.9219l-1.746-4.168h0.9414l1.258 3.281h0.01953l1.266-3.281h0.9023l-1.719 4.168" fill="#231f1f"/>
<path d="m49.54 139.2c-0.01953-0.6602-0.4141-1.18-1.203-1.18-0.7344 0-1.293 0.5312-1.348 1.18zm0.8516 0.6172h-3.402c0.02734 0.7109 0.6406 1.266 1.395 1.266 0.5781 0 1.004-0.2812 1.246-0.6328l0.5977 0.4648c-0.4609 0.582-1.086 0.8516-1.844 0.8516-1.305 0-2.266-0.8789-2.266-2.188 0-1.301 0.9609-2.207 2.219-2.207 1.266 0 2.062 0.8359 2.062 2.164 0 0.08594 0 0.1836-0.007813 0.2812" fill="#231f1f"/>
<g clip-path="url(#e)">
<path d="m30.79 383.6h2.508v0.5977h-3.18v-4.797h3.078v0.5898h-2.406v1.434h2.262v0.5781h-2.262v1.598" fill="#231f1f"/>
</g>
<g clip-path="url(#d)">
<path d="m34.87 382.5-1.172-1.523h0.7852l0.7891 1.102 0.793-1.102h0.7461l-1.16 1.516 1.293 1.695h-0.793l-0.8945-1.254-0.9062 1.254h-0.7656l1.285-1.688" fill="#231f1f"/>
</g>
<g clip-path="url(#c)">
<path d="m39.05 381.5h-0.8516v1.676c0 0.3867 0.1367 0.5391 0.4531 0.5391 0.1172 0 0.2656-0.02344 0.375-0.07812l0.01953 0.5195c-0.1484 0.05469-0.3477 0.08984-0.543 0.08984-0.6016 0-0.9336-0.3398-0.9336-1.004v-1.742h-0.6172v-0.5195h0.6172v-0.9219h0.6289v0.9219h0.8516v0.5195" fill="#231f1f"/>
</g>
<g clip-path="url(#b)">
<path d="m39.61 380.9h0.6055c0.01172 0.1602 0.02344 0.4062 0.02344 0.5391h0.02344c0.1758-0.3711 0.5469-0.6289 0.9805-0.6289 0.08984 0 0.1758 0.007813 0.25 0.02734l-0.02344 0.5898c-0.08203-0.01953-0.1914-0.03516-0.293-0.03516-0.6094 0-0.9023 0.4961-0.9023 1.031v1.688h-0.6367v-2.52c0-0.1719-0.007813-0.4844-0.02734-0.6914" fill="#231f1f"/>
</g>
<g clip-path="url(#a)">
<path d="m43.86 382.6c-0.6289 0-1.43 0.06641-1.43 0.6094 0 0.3789 0.3398 0.5 0.6602 0.5 0.5938 0 0.9258-0.3984 0.9258-0.9414v-0.168zm0.1562-0.5508c0-0.4727-0.3164-0.7031-0.793-0.7031-0.3594 0-0.6953 0.1562-0.9141 0.3711l-0.3398-0.4062c0.3125-0.2969 0.793-0.4805 1.316-0.4805 0.9219 0 1.344 0.5469 1.344 1.262v1.402c0 0.2148 0.01172 0.4805 0.04297 0.6367h-0.5742c-0.03516-0.1406-0.05469-0.3125-0.05469-0.4609h-0.01953c-0.2305 0.3438-0.5977 0.543-1.078 0.543-0.5078 0-1.164-0.2539-1.164-0.9922 0-0.9688 1.152-1.082 2.234-1.082v-0.08984" fill="#231f1f"/>
</g>
<g clip-path="url(#ac)">
<path d="m47.2 381.5h-0.8555v1.676c0 0.3867 0.1367 0.5391 0.4531 0.5391 0.1172 0 0.2656-0.02344 0.375-0.07812l0.01953 0.5195c-0.1484 0.05469-0.3477 0.08984-0.543 0.08984-0.6016 0-0.9336-0.3398-0.9336-1.004v-1.742h-0.6172v-0.5195h0.6172v-0.9219h0.6289v0.9219h0.8555v0.5195" fill="#231f1f"/>
</g>
<g clip-path="url(#ab)">
<path d="m48.45 381.4c0.1484-0.3164 0.5586-0.5742 1.02-0.5742 0.8242 0 1.195 0.5898 1.195 1.309v1.992h-0.6328v-1.777c0-0.5195-0.1367-0.9805-0.7266-0.9805-0.5039 0-0.8672 0.418-0.8672 1.055v1.703h-0.6367v-5.125h0.6367v2.398h0.01172" fill="#231f1f"/>
</g>
<g clip-path="url(#aa)">
<path d="m53.19 381.4c-0.6836 0-1.07 0.5508-1.07 1.16 0 0.6094 0.3867 1.164 1.07 1.164 0.6914 0 1.07-0.5547 1.07-1.164 0-0.6094-0.3789-1.16-1.07-1.16zm0 2.859c-0.9805 0-1.727-0.7109-1.727-1.699 0-0.9883 0.7461-1.688 1.727-1.688 0.9844 0 1.734 0.6992 1.734 1.688 0 0.9883-0.75 1.699-1.734 1.699" fill="#231f1f"/>
</g>
<g clip-path="url(#z)">
<path d="m55.71 380.9h0.6055c0.01172 0.1602 0.02344 0.4062 0.02344 0.5391h0.02344c0.1758-0.3711 0.5469-0.6289 0.9805-0.6289 0.08984 0 0.1758 0.007813 0.25 0.02734l-0.02734 0.5898c-0.07812-0.01953-0.1875-0.03516-0.2891-0.03516-0.6094 0-0.9023 0.4961-0.9023 1.031v1.688h-0.6367v-2.52c0-0.1719-0.007812-0.4844-0.02734-0.6914" fill="#231f1f"/>
</g>
<g clip-path="url(#y)">
<path d="m59.96 382.6c-0.6289 0-1.43 0.06641-1.43 0.6094 0 0.3789 0.3398 0.5 0.6602 0.5 0.5938 0 0.9258-0.3984 0.9258-0.9414v-0.168zm0.1562-0.5508c0-0.4727-0.3164-0.7031-0.793-0.7031-0.3594 0-0.6953 0.1562-0.9141 0.3711l-0.3398-0.4062c0.3125-0.2969 0.793-0.4805 1.316-0.4805 0.9219 0 1.34 0.5469 1.34 1.262v1.402c0 0.2148 0.01562 0.4805 0.05078 0.6367h-0.5781c-0.03516-0.1406-0.05469-0.3125-0.05469-0.4609h-0.01953c-0.2305 0.3438-0.5977 0.543-1.078 0.543-0.5078 0-1.164-0.2539-1.164-0.9922 0-0.9688 1.152-1.082 2.234-1.082v-0.08984" fill="#231f1f"/>
</g>
<g clip-path="url(#x)">
<path d="m63.98 381.8c-0.1367-0.2109-0.4336-0.3672-0.7383-0.3672-0.6641 0-1.051 0.543-1.051 1.16 0 0.6094 0.3867 1.156 1.055 1.156 0.3281 0 0.6055-0.1328 0.7734-0.3516l0.4297 0.3867c-0.2734 0.3125-0.6836 0.5-1.203 0.5-0.9883 0-1.727-0.668-1.727-1.691 0-1.012 0.7305-1.695 1.715-1.695 0.4531 0 0.9414 0.1836 1.207 0.5273l-0.4609 0.375" fill="#231f1f"/>
</g>
<g clip-path="url(#w)">
<path d="m65.65 384.2h-0.6367v-3.211h0.6367zm-0.3164-3.965c-0.2344 0-0.4219-0.1836-0.4219-0.4062 0-0.2305 0.1875-0.4141 0.4219-0.4141 0.2266 0 0.4258 0.1758 0.4258 0.4141 0 0.2305-0.1992 0.4062-0.4258 0.4062" fill="#231f1f"/>
</g>
<g clip-path="url(#v)">
<path d="m68.94 381.8c-0.1367-0.2109-0.4336-0.3672-0.7383-0.3672-0.6641 0-1.051 0.543-1.051 1.16 0 0.6094 0.3867 1.156 1.059 1.156 0.3242 0 0.6016-0.1328 0.7695-0.3516l0.4297 0.3867c-0.2734 0.3125-0.6836 0.5-1.199 0.5-0.9922 0-1.73-0.668-1.73-1.691 0-1.012 0.7344-1.695 1.715-1.695 0.457 0 0.9414 0.1836 1.207 0.5273l-0.4609 0.375" fill="#231f1f"/>
</g>
<g clip-path="url(#u)">
<path d="m230.2 384.2h-0.6719v-4.797h0.6719v4.797" fill="#231f1f"/>
</g>
<g clip-path="url(#t)">
<path d="m231.8 380.9c0.01562 0.1602 0.02734 0.3906 0.02734 0.5273h0.01953c0.1562-0.3477 0.5859-0.6172 1.047-0.6172 0.8242 0 1.195 0.5898 1.195 1.309v1.992h-0.6367v-1.781c0-0.5234-0.1406-0.9844-0.7305-0.9844-0.5 0-0.8594 0.4219-0.8594 1.059v1.707h-0.6367v-2.52c0-0.1719-0.007812-0.4844-0.02734-0.6914h0.6016" fill="#231f1f"/>
</g>
<g clip-path="url(#r)">
<path d="m236.7 381.5h-0.8555v1.676c0 0.3867 0.1367 0.5391 0.457 0.5391 0.1133 0 0.2617-0.02344 0.3711-0.07812l0.01953 0.5195c-0.1484 0.05469-0.3438 0.08984-0.543 0.08984-0.6016 0-0.9336-0.3398-0.9336-1.004v-1.742h-0.6172v-0.5195h0.6172v-0.9219h0.6289v0.9219h0.8555v0.5195" fill="#231f1f"/>
</g>
<g clip-path="url(#q)">
<path d="m237.3 380.9h0.6016c0.01562 0.1602 0.02734 0.4062 0.02734 0.5391h0.01953c0.1758-0.3711 0.5508-0.6289 0.9844-0.6289 0.08594 0 0.1758 0.007813 0.25 0.02734l-0.02734 0.5898c-0.08203-0.01953-0.1875-0.03516-0.293-0.03516-0.6094 0-0.8984 0.4961-0.8984 1.031v1.688h-0.6367v-2.52c0-0.1719-0.007813-0.4844-0.02734-0.6914" fill="#231f1f"/>
</g>
<g clip-path="url(#p)">
<path d="m241.5 382.6c-0.6289 0-1.43 0.06641-1.43 0.6094 0 0.3789 0.3398 0.5 0.6562 0.5 0.5977 0 0.9297-0.3984 0.9297-0.9414v-0.168zm0.1562-0.5508c0-0.4727-0.3203-0.7031-0.793-0.7031-0.3594 0-0.6992 0.1562-0.9141 0.3711l-0.3398-0.4062c0.3125-0.2969 0.793-0.4805 1.316-0.4805 0.918 0 1.34 0.5469 1.34 1.262v1.402c0 0.2148 0.01562 0.4805 0.04688 0.6367h-0.5742c-0.03516-0.1406-0.05469-0.3125-0.05469-0.4609h-0.01953c-0.2305 0.3438-0.5977 0.543-1.078 0.543-0.5078 0-1.168-0.2539-1.168-0.9922 0-0.9688 1.152-1.082 2.238-1.082v-0.08984" fill="#231f1f"/>
</g>
<g clip-path="url(#o)">
<path d="m244.9 381.5h-0.8555v1.676c0 0.3867 0.1367 0.5391 0.457 0.5391 0.1133 0 0.2656-0.02344 0.3711-0.07812l0.01953 0.5195c-0.1484 0.05469-0.3438 0.08984-0.5391 0.08984-0.6055 0-0.9375-0.3398-0.9375-1.004v-1.742h-0.6172v-0.5195h0.6172v-0.9219h0.6289v0.9219h0.8555v0.5195" fill="#231f1f"/>
</g>
<g clip-path="url(#n)">
<path d="m246.1 381.4c0.1484-0.3164 0.5547-0.5742 1.016-0.5742 0.8281 0 1.199 0.5898 1.199 1.309v1.992h-0.6367v-1.777c0-0.5195-0.1328-0.9805-0.7227-0.9805-0.5039 0-0.8711 0.418-0.8711 1.055v1.703h-0.6367v-5.125h0.6367v2.398h0.01562" fill="#231f1f"/>
</g>
<g clip-path="url(#m)">
<path d="m250.8 381.4c-0.6875 0-1.07 0.5508-1.07 1.16 0 0.6094 0.3828 1.164 1.07 1.164 0.6914 0 1.07-0.5547 1.07-1.164 0-0.6094-0.3789-1.16-1.07-1.16zm0 2.859c-0.9844 0-1.73-0.7109-1.73-1.699 0-0.9883 0.7461-1.688 1.73-1.688 0.9805 0 1.734 0.6992 1.734 1.688 0 0.9883-0.7539 1.699-1.734 1.699" fill="#231f1f"/>
</g>
<g clip-path="url(#l)">
<path d="m253.4 380.9h0.6016c0.01562 0.1602 0.02734 0.4062 0.02734 0.5391h0.01953c0.1758-0.3711 0.5508-0.6289 0.9844-0.6289 0.08984 0 0.1758 0.007813 0.25 0.02734l-0.02734 0.5898c-0.08203-0.01953-0.1914-0.03516-0.293-0.03516-0.6094 0-0.8984 0.4961-0.8984 1.031v1.688h-0.6367v-2.52c0-0.1719-0.007812-0.4844-0.02734-0.6914" fill="#231f1f"/>
</g>
<g clip-path="url(#k)">
<path d="m257.6 382.6c-0.6289 0-1.43 0.06641-1.43 0.6094 0 0.3789 0.3359 0.5 0.6562 0.5 0.5977 0 0.9297-0.3984 0.9297-0.9414v-0.168zm0.1562-0.5508c0-0.4727-0.3164-0.7031-0.793-0.7031-0.3594 0-0.6992 0.1562-0.9141 0.3711l-0.3398-0.4062c0.3125-0.2969 0.793-0.4805 1.316-0.4805 0.918 0 1.34 0.5469 1.34 1.262v1.402c0 0.2148 0.01172 0.4805 0.04688 0.6367h-0.5742c-0.03516-0.1406-0.05469-0.3125-0.05469-0.4609h-0.02344c-0.2266 0.3438-0.5938 0.543-1.074 0.543-0.5078 0-1.168-0.2539-1.168-0.9922 0-0.9688 1.152-1.082 2.238-1.082v-0.08984" fill="#231f1f"/>
</g>
<g clip-path="url(#j)">
<path d="m261.6 381.8c-0.1367-0.2109-0.4375-0.3672-0.7383-0.3672-0.668 0-1.051 0.543-1.051 1.16 0 0.6094 0.3828 1.156 1.055 1.156 0.3242 0 0.6055-0.1328 0.7734-0.3516l0.4258 0.3867c-0.2695 0.3125-0.6836 0.5-1.199 0.5-0.9883 0-1.727-0.668-1.727-1.691 0-1.012 0.7305-1.695 1.715-1.695 0.4531 0 0.9414 0.1836 1.207 0.5273l-0.4609 0.375" fill="#231f1f"/>
</g>
<g clip-path="url(#i)">
<path d="m263.3 384.2h-0.6367v-3.211h0.6367zm-0.3203-3.965c-0.2305 0-0.418-0.1836-0.418-0.4062 0-0.2305 0.1875-0.4141 0.418-0.4141s0.4258 0.1758 0.4258 0.4141c0 0.2305-0.1953 0.4062-0.4258 0.4062" fill="#231f1f"/>
</g>
<g clip-path="url(#g)">
<path d="m266.6 381.8c-0.1367-0.2109-0.4336-0.3672-0.7383-0.3672-0.6641 0-1.051 0.543-1.051 1.16 0 0.6094 0.3867 1.156 1.055 1.156 0.3281 0 0.6055-0.1328 0.7734-0.3516l0.4258 0.3867c-0.2695 0.3125-0.6836 0.5-1.199 0.5-0.9883 0-1.727-0.668-1.727-1.691 0-1.012 0.7305-1.695 1.715-1.695 0.4531 0 0.9414 0.1836 1.207 0.5273l-0.4609 0.375" fill="#231f1f"/>
</g>
<path d="m7.637 5.402h0.01953v-4.977h0.8945v6.223h-1.129l-3.383-5.082h-0.01953v5.082h-0.8945v-6.223h1.168l3.344 4.977" fill="#231f1f"/>
<path d="m12.09 3.055c-0.9141 0-1.43 0.7109-1.43 1.504 0 0.7891 0.5156 1.512 1.43 1.512 0.9219 0 1.43-0.7227 1.43-1.512 0-0.793-0.5078-1.504-1.43-1.504zm0 3.711c-1.312 0-2.305-0.9258-2.305-2.207 0-1.285 0.9922-2.191 2.305-2.191s2.316 0.9062 2.316 2.191c0 1.281-1.004 2.207-2.316 2.207" fill="#231f1f"/>
<path d="m15.55 2.48h0.8047c0.01953 0.2109 0.03906 0.5312 0.03906 0.707h0.02344c0.2383-0.4844 0.7344-0.8203 1.312-0.8203 0.1211 0 0.2383 0.01172 0.3359 0.03516l-0.03516 0.7656c-0.1094-0.02734-0.2539-0.04297-0.3906-0.04297-0.8125 0-1.203 0.6406-1.203 1.336v2.188h-0.8477v-3.27c0-0.2188-0.01172-0.625-0.03906-0.8984" fill="#231f1f"/>
<path d="m21.06 2.367c0.5703 0 1.066 0.2461 1.328 0.8359 0.2891-0.5352 0.8516-0.8359 1.457-0.8359 1.105 0 1.602 0.7656 1.602 1.699v2.582h-0.8477v-2.309c0-0.6797-0.2109-1.277-0.9531-1.277-0.7773 0-1.086 0.6836-1.086 1.336v2.25h-0.8477v-2.477c0-0.6523-0.2266-1.109-0.9062-1.109-0.625 0-1.094 0.5469-1.094 1.371v2.215h-0.8516v-3.27c0-0.2188-0.007813-0.625-0.03516-0.8984h0.8047c0.01953 0.2109 0.03516 0.5117 0.03516 0.6875h0.02734c0.2188-0.4375 0.7148-0.8008 1.367-0.8008" fill="#231f1f"/>
<path d="m29.35 4.664c-0.8438 0-1.91 0.08594-1.91 0.7891 0 0.4922 0.4531 0.6523 0.8789 0.6523 0.793 0 1.238-0.5195 1.238-1.223v-0.2188zm0.207-0.7148c0-0.6133-0.4258-0.9141-1.059-0.9141-0.4805 0-0.9297 0.2031-1.223 0.4844l-0.4492-0.5273c0.4141-0.3867 1.059-0.625 1.754-0.625 1.23 0 1.789 0.7109 1.789 1.637v1.82c0 0.2812 0.01953 0.6211 0.06641 0.8242h-0.7695c-0.04687-0.1836-0.07422-0.4023-0.07422-0.5977h-0.02734c-0.3047 0.4492-0.793 0.707-1.438 0.707-0.6797 0-1.555-0.3281-1.555-1.285 0-1.258 1.535-1.406 2.984-1.406v-0.1172" fill="#231f1f"/>
<path d="m32.66 6.648h-0.8516v-6.645h0.8516v6.645" fill="#231f1f"/>
<path d="m16.7 51.51v0.6875h-4.801v-3.082h0.5898v2.395h1.492v-2.238h0.5742v2.238h2.145" fill="#231f1f"/>
<path d="m16.7 47.61v0.6523h-5.125v-0.6523h5.125" fill="#231f1f"/>
<path d="m13.93 44.9c0 0.707 0.5469 1.105 1.16 1.105 0.6094 0 1.164-0.3984 1.164-1.105 0-0.7109-0.5547-1.098-1.164-1.098-0.6133 0-1.16 0.3867-1.16 1.098zm2.859 0c0 1.012-0.7109 1.777-1.699 1.777-0.9922 0-1.688-0.7656-1.688-1.777 0-1.008 0.6953-1.781 1.688-1.781 0.9883 0 1.699 0.7734 1.699 1.781" fill="#231f1f"/>
<path d="m13.49 41.97 2.453-0.7461v-0.01562l-2.453-0.7852v-0.6914l2.453-0.8008v-0.01562l-2.453-0.7461v-0.6875l3.215 1.094v0.6836l-2.414 0.8125v0.01562l2.414 0.8086v0.6836l-3.215 1.102v-0.7109" fill="#231f1f"/>
<path d="m102.9 69.84h0.01953l1.484-3.934h0.7461l-1.938 4.801h-0.6406l-1.922-4.801h0.7656l1.484 3.934" fill="#231f1f"/>
<path d="m107.2 67.94c-0.707 0-1.102 0.5508-1.102 1.16s0.3945 1.164 1.102 1.164c0.7109 0 1.102-0.5547 1.102-1.164s-0.3906-1.16-1.102-1.16zm0 2.859c-1.012 0-1.777-0.7109-1.777-1.699 0-0.9883 0.7656-1.688 1.777-1.688 1.012 0 1.781 0.6992 1.781 1.688 0 0.9883-0.7695 1.699-1.781 1.699" fill="#231f1f"/>
<path d="m110.6 70.71h-0.6562v-5.125h0.6562v5.125" fill="#231f1f"/>
<path d="m114.1 70.71c-0.01562-0.1641-0.02734-0.3945-0.02734-0.5312h-0.01562c-0.168 0.3398-0.5977 0.6172-1.082 0.6172-0.8477 0-1.23-0.5859-1.23-1.309v-1.992h0.6523v1.777c0 0.5273 0.1484 0.9883 0.7539 0.9883 0.5234 0 0.8867-0.418 0.8867-1.055v-1.711h0.6523v2.523c0 0.168 0.007813 0.4805 0.03125 0.6914h-0.6211" fill="#231f1f"/>
<path d="m117.5 67.41c0.4414 0 0.8242 0.1875 1.027 0.6445 0.2227-0.4141 0.6562-0.6445 1.121-0.6445 0.8516 0 1.234 0.5898 1.234 1.309v1.992h-0.6562v-1.781c0-0.5234-0.1602-0.9844-0.7305-0.9844-0.6016 0-0.8359 0.5273-0.8359 1.031v1.734h-0.6562v-1.91c0-0.5039-0.1758-0.8555-0.6953-0.8555-0.4844 0-0.8477 0.418-0.8477 1.059v1.707h-0.6523v-2.523c0-0.168-0.007812-0.4805-0.02734-0.6914h0.6211c0.01172 0.1641 0.02734 0.3945 0.02734 0.5312h0.01953c0.168-0.3398 0.5508-0.6172 1.051-0.6172" fill="#231f1f"/>
<path d="m124.4 68.82c-0.01172-0.5078-0.3203-0.9102-0.9258-0.9102-0.5664 0-0.9961 0.4062-1.039 0.9102zm0.6562 0.4727h-2.621c0.01953 0.5508 0.4961 0.9766 1.074 0.9766 0.4453 0 0.7734-0.2148 0.9609-0.4883l0.4609 0.3594c-0.3555 0.4492-0.8359 0.6562-1.422 0.6562-1.004 0-1.742-0.6758-1.742-1.688 0-1 0.7383-1.699 1.707-1.699 0.9727 0 1.59 0.6445 1.59 1.664 0 0.07031 0 0.1445-0.007812 0.2188" fill="#231f1f"/>
<path transform="matrix(.1 0 0 -.1 0 384.2)" d="m958.9 3084c-11.02-120.7-116.4-179.6-205.3-233.9-55.12-33.63-184.7-88.24-334.3 20.27-104.5 75.82-185 188.7-178.9 213.7 29.92 121.2 49.02 108.8 79.18 252.6 114.3 545.4 216 216.3 381.2 33.79 126.1-139.4 205.3-233.8 258-286.4z" fill="none" stroke="#2d9edf" stroke-width="10"/>
<path transform="matrix(.1 0 0 -.1 0 384.2)" d="m958.9 1732c-11.02-120.7-116.4-179.6-205.3-233.9-55.12-33.63-184.7-88.24-334.3 20.27-104.5 75.82-185 188.7-178.9 213.7 29.92 121.2 49.02 108.8 79.18 252.6 114.3 545.4 216 216.4 381.2 33.79 126.1-139.4 205.3-233.8 258-286.4z" fill="none" stroke="#2d9edf" stroke-width="10"/>
<path transform="matrix(.1 0 0 -.1 0 384.2)" d="m2947 1732c-10.98-120.7-116.3-179.6-205.2-233.9-55.12-33.63-184.8-88.24-334.3 20.27-104.6 75.82-185.1 188.7-178.9 213.7 29.96 121.2 49.06 108.8 79.18 252.6 114.4 545.4 216.1 216.4 381.2 33.79 126.1-139.4 205.3-233.8 258-286.4z" fill="none" stroke="#2d9edf" stroke-width="10"/>
<path d="m202.8 138.2h1.031c0.8438 0 1.504-0.2539 1.504-1 0-0.75-0.6602-0.9844-1.441-0.9844h-1.094zm0 3.5h-0.8945v-6.223h2.055c1.238 0 2.277 0.457 2.277 1.723 0 0.9141-0.6406 1.492-1.555 1.645l1.793 2.855h-1.086l-1.629-2.77h-0.9609v2.77" fill="#231f1f"/>
<path d="m210.5 139.2c-0.01562-0.6602-0.4141-1.18-1.203-1.18-0.7305 0-1.293 0.5312-1.348 1.18zm0.8516 0.6172h-3.402c0.02734 0.7109 0.6445 1.266 1.395 1.266 0.5781 0 1.004-0.2812 1.246-0.6328l0.5977 0.4648c-0.4609 0.582-1.086 0.8516-1.844 0.8516-1.305 0-2.262-0.8789-2.262-2.188 0-1.301 0.957-2.207 2.215-2.207 1.266 0 2.062 0.8359 2.062 2.164 0 0.08594 0 0.1836-0.007813 0.2812" fill="#231f1f"/>
<path d="m214.9 138.6c-0.1914-0.2969-0.5625-0.5195-0.9961-0.5195-0.3867 0-0.793 0.1523-0.793 0.5469 0 0.3516 0.3242 0.4844 0.9727 0.625 0.8164 0.1758 1.441 0.5 1.441 1.23 0 0.9844-0.8438 1.344-1.711 1.344-0.6523 0-1.32-0.2461-1.727-0.7461l0.6055-0.5c0.2266 0.3242 0.6602 0.5781 1.141 0.5781 0.4258 0 0.8477-0.1484 0.8477-0.6055 0-0.3867-0.3867-0.5273-1.121-0.6953-0.5703-0.1289-1.25-0.3672-1.25-1.152 0-0.8945 0.8086-1.273 1.621-1.273 0.6055 0 1.25 0.2383 1.559 0.6875l-0.5898 0.4805" fill="#231f1f"/>
<path d="m218.7 138.2h-1.141v2.172c0 0.5 0.1797 0.7031 0.6055 0.7031 0.1562 0 0.3516-0.03516 0.5-0.1055l0.02344 0.6758c-0.1953 0.07031-0.4609 0.1133-0.7227 0.1133-0.8047 0-1.246-0.4375-1.246-1.301v-2.258h-0.8242v-0.6797h0.8242v-1.195h0.8398v1.195h1.141v0.6797" fill="#231f1f"/>
<path d="m219.5 137.5h0.8047c0.01953 0.2109 0.03906 0.5273 0.03906 0.7031h0.02734c0.2344-0.4805 0.7305-0.8164 1.309-0.8164 0.1211 0 0.2383 0.007813 0.3359 0.03516l-0.03516 0.7656c-0.1094-0.02734-0.2539-0.04297-0.3906-0.04297-0.8125 0-1.203 0.6406-1.203 1.336v2.188h-0.8477v-3.27c0-0.2188-0.01172-0.625-0.03906-0.8984" fill="#231f1f"/>
<path d="m223.7 141.7h-0.8477v-4.168h0.8477zm-0.4258-5.145c-0.3047 0-0.5586-0.2383-0.5586-0.5273 0-0.2969 0.2539-0.5352 0.5586-0.5352 0.3086 0 0.5703 0.2305 0.5703 0.5352 0 0.3008-0.2617 0.5273-0.5703 0.5273" fill="#231f1f"/>
<path d="m228.2 138.6c-0.1797-0.2695-0.5781-0.4727-0.9844-0.4727-0.8867 0-1.402 0.7031-1.402 1.504 0 0.7891 0.5156 1.5 1.41 1.5 0.4336 0 0.8047-0.1758 1.031-0.457l0.5703 0.5039c-0.3633 0.4023-0.9141 0.6484-1.602 0.6484-1.32 0-2.309-0.8711-2.309-2.195 0-1.312 0.9766-2.199 2.289-2.199 0.6055 0 1.258 0.2383 1.613 0.6875l-0.6172 0.4805" fill="#231f1f"/>
<path d="m231.7 138.2h-1.141v2.172c0 0.5 0.1797 0.7031 0.6055 0.7031 0.1523 0 0.3516-0.03516 0.4961-0.1055l0.02734 0.6758c-0.1992 0.07031-0.4609 0.1133-0.7227 0.1133-0.8047 0-1.246-0.4375-1.246-1.301v-2.258h-0.8242v-0.6797h0.8242v-1.195h0.8398v1.195h1.141v0.6797" fill="#231f1f"/>
<path d="m233.5 141.7h-0.8516v-4.168h0.8516zm-0.4258-5.145c-0.3086 0-0.5625-0.2383-0.5625-0.5273 0-0.2969 0.2539-0.5352 0.5625-0.5352 0.3047 0 0.5703 0.2305 0.5703 0.5352 0 0.3008-0.2656 0.5273-0.5703 0.5273" fill="#231f1f"/>
<path d="m237 141.7h-0.9219l-1.746-4.168h0.9414l1.258 3.281h0.01562l1.27-3.281h0.9023l-1.719 4.168" fill="#231f1f"/>
<path d="m242.7 139.2c-0.01953-0.6602-0.418-1.18-1.203-1.18-0.7344 0-1.297 0.5312-1.352 1.18zm0.8477 0.6172h-3.402c0.02734 0.7109 0.6445 1.266 1.395 1.266 0.582 0 1.004-0.2812 1.25-0.6328l0.5977 0.4648c-0.4609 0.582-1.086 0.8516-1.848 0.8516-1.301 0-2.262-0.8789-2.262-2.188 0-1.301 0.9609-2.207 2.219-2.207 1.266 0 2.062 0.8359 2.062 2.164 0 0.08594 0 0.1836-0.01172 0.2812" fill="#231f1f"/>
<path d="m3.078 274.3v-3.922h0.8945v3.867c0 0.8555 0.3984 1.734 1.594 1.734 1.195 0 1.594-0.8789 1.594-1.734v-3.867h0.8945v3.922c0 1.273-0.7969 2.461-2.488 2.461s-2.488-1.188-2.488-2.461" fill="#231f1f"/>
<path d="m11.77 273c-0.8672 0-1.449 0.7148-1.449 1.512 0 0.8008 0.582 1.504 1.449 1.504 0.9297 0 1.43-0.7305 1.43-1.512s-0.5-1.504-1.43-1.504zm-1.395 5.707h-0.8516v-6.277h0.832v0.6484h0.02734c0.2812-0.4375 0.8438-0.7617 1.547-0.7617 1.277 0 2.148 0.957 2.148 2.188 0 1.223-0.8438 2.207-2.164 2.207-0.6055 0-1.195-0.2734-1.512-0.7383h-0.02734v2.734" fill="#231f1f"/>
<path d="m17.5 273c-0.8711 0-1.449 0.7148-1.449 1.512 0 0.8008 0.5781 1.504 1.449 1.504 0.9297 0 1.426-0.7305 1.426-1.512s-0.4961-1.504-1.426-1.504zm-1.395 5.707h-0.8516v-6.277h0.832v0.6484h0.02734c0.2812-0.4375 0.8438-0.7617 1.547-0.7617 1.277 0 2.145 0.957 2.145 2.188 0 1.223-0.8398 2.207-2.16 2.207-0.6094 0-1.195-0.2734-1.512-0.7383h-0.02734v2.734" fill="#231f1f"/>
<path d="m24.13 274.1c-0.01562-0.6602-0.4141-1.18-1.203-1.18-0.7305 0-1.293 0.5273-1.348 1.18zm0.8516 0.6133h-3.402c0.02734 0.7148 0.6445 1.266 1.395 1.266 0.5781 0 1.004-0.2812 1.246-0.6328l0.5977 0.4688c-0.4609 0.5781-1.086 0.8516-1.844 0.8516-1.305 0-2.262-0.8789-2.262-2.191 0-1.301 0.957-2.203 2.215-2.203 1.27 0 2.062 0.832 2.062 2.16 0 0.08984 0 0.1836-0.007813 0.2812" fill="#231f1f"/>
<path d="m26.14 272.4h0.8047c0.01562 0.2109 0.03516 0.5273 0.03516 0.7031h0.02734c0.2344-0.4844 0.7344-0.8164 1.312-0.8164 0.1172 0 0.2344 0.007813 0.3359 0.03516l-0.03906 0.7617c-0.1055-0.02344-0.2539-0.04297-0.3867-0.04297-0.8164 0-1.203 0.6445-1.203 1.336v2.191h-0.8516v-3.273c0-0.2188-0.007813-0.625-0.03516-0.8945" fill="#231f1f"/>
<path d="m32.98 274.3h2.398l-1.195-2.918zm-0.9609 2.297h-0.9922l2.777-6.227h0.8125l2.75 6.227h-1.012l-0.6523-1.531h-3.039l-0.6445 1.531" fill="#231f1f"/>
<path d="m39.01 276.6h-0.8516v-4.168h0.8516zm-0.4258-5.145c-0.3086 0-0.5625-0.2383-0.5625-0.5273 0-0.2969 0.2539-0.5352 0.5625-0.5352 0.3086 0 0.5703 0.2266 0.5703 0.5352 0 0.3008-0.2617 0.5273-0.5703 0.5273" fill="#231f1f"/>
<path d="m40.46 272.4h0.8047c0.01562 0.2109 0.03516 0.5273 0.03516 0.7031h0.02734c0.2344-0.4844 0.7305-0.8164 1.312-0.8164 0.1172 0 0.2344 0.007813 0.332 0.03516l-0.03516 0.7617c-0.1094-0.02344-0.2539-0.04297-0.3906-0.04297-0.8125 0-1.203 0.6445-1.203 1.336v2.191h-0.8477v-3.273c0-0.2188-0.01172-0.625-0.03516-0.8945" fill="#231f1f"/>
<path d="m44.09 272.4 0.9688 3.184h0.01953l1.023-3.184h0.8945l1.039 3.184h0.01953l0.9688-3.184h0.8945l-1.422 4.168h-0.8867l-1.059-3.133h-0.01562l-1.051 3.133h-0.8867l-1.43-4.168h0.9219" fill="#231f1f"/>
<path d="m53.23 274.6c-0.8398 0-1.91 0.08594-1.91 0.793 0 0.4922 0.4531 0.6484 0.8789 0.6484 0.7969 0 1.238-0.5195 1.238-1.223v-0.2188zm0.207-0.7109c0-0.6172-0.4258-0.918-1.059-0.918-0.4766 0-0.9297 0.2031-1.219 0.4844l-0.4531-0.5273c0.4141-0.3867 1.059-0.6211 1.754-0.6211 1.23 0 1.793 0.7109 1.793 1.633v1.82c0 0.2812 0.01562 0.625 0.0625 0.8281h-0.7695c-0.04688-0.1875-0.07031-0.4062-0.07031-0.5977h-0.02734c-0.3086 0.4453-0.7969 0.7031-1.441 0.7031-0.6758 0-1.555-0.3242-1.555-1.285 0-1.258 1.539-1.406 2.984-1.406v-0.1133" fill="#231f1f"/>
<path d="m57.3 275.7h0.01953l1.188-3.27h0.9023l-2.082 5.152c-0.2812 0.6953-0.6406 1.125-1.484 1.125-0.1797 0-0.3672-0.01953-0.5586-0.0625l0.08203-0.7305c0.1328 0.04688 0.2891 0.07031 0.4258 0.07031 0.4414 0 0.6133-0.2461 0.793-0.6953l0.2734-0.6914-1.836-4.168h0.9492l1.328 3.27" fill="#231f1f"/>
<path d="m65.59 271c-1.473 0-2.414 1.137-2.414 2.5 0 1.387 0.9492 2.496 2.414 2.496 1.484 0 2.438-1.109 2.438-2.496 0-1.363-0.9414-2.5-2.438-2.5zm0 5.777c-1.941 0-3.383-1.363-3.383-3.277 0-1.945 1.441-3.262 3.383-3.262 1.957 0 3.402 1.316 3.402 3.262 0 1.914-1.445 3.277-3.402 3.277" fill="#231f1f"/>
<path d="m72.44 273c-0.8672 0-1.449 0.7148-1.449 1.512 0 0.8008 0.582 1.504 1.449 1.504 0.9297 0 1.43-0.7305 1.43-1.512s-0.5-1.504-1.43-1.504zm-1.422 2.938v0.6602h-0.8242v-6.648h0.8516v3.105h0.02734c0.2891-0.4062 0.8242-0.7383 1.527-0.7383 1.277 0 2.145 0.957 2.145 2.188 0 1.223-0.8398 2.207-2.16 2.207-0.6055 0-1.215-0.2734-1.547-0.7734h-0.01953" fill="#231f1f"/>
<path d="m78.25 273.5c-0.1914-0.3008-0.5625-0.5195-0.9961-0.5195-0.3867 0-0.7969 0.1484-0.7969 0.5469 0 0.3516 0.3281 0.4805 0.9766 0.625 0.8164 0.1719 1.441 0.5 1.441 1.227 0 0.9883-0.8438 1.348-1.711 1.348-0.6523 0-1.32-0.2461-1.727-0.7461l0.6055-0.5c0.2266 0.3203 0.6602 0.5781 1.141 0.5781 0.4219 0 0.8477-0.1484 0.8477-0.6055 0-0.3867-0.3867-0.5312-1.121-0.6953-0.5703-0.1328-1.246-0.3711-1.246-1.152 0-0.8984 0.8047-1.273 1.617-1.273 0.6055 0 1.25 0.2344 1.559 0.6836l-0.5898 0.4844" fill="#231f1f"/>
<path d="m82.05 273.1h-1.141v2.172c0 0.5 0.1797 0.7031 0.6055 0.7031 0.1562 0 0.3516-0.03516 0.5-0.1055l0.02344 0.6797c-0.1953 0.06641-0.4609 0.1133-0.7227 0.1133-0.8047 0-1.246-0.4414-1.246-1.305v-2.258h-0.8242v-0.6758h0.8242v-1.195h0.8398v1.195h1.141v0.6758" fill="#231f1f"/>
<path d="m82.89 272.4h0.8047c0.01953 0.2109 0.03906 0.5273 0.03906 0.7031h0.02734c0.2344-0.4844 0.7305-0.8164 1.312-0.8164 0.1172 0 0.2344 0.007813 0.332 0.03516l-0.03516 0.7617c-0.1094-0.02344-0.2539-0.04297-0.3906-0.04297-0.8125 0-1.203 0.6445-1.203 1.336v2.191h-0.8516v-3.273c0-0.2188-0.007813-0.625-0.03516-0.8945" fill="#231f1f"/>
<path d="m89.22 276.6c-0.01953-0.2109-0.03906-0.5117-0.03906-0.6875h-0.01562c-0.2188 0.4414-0.7773 0.8008-1.402 0.8008-1.105 0-1.602-0.7656-1.602-1.695v-2.586h0.8516v2.301c0 0.6875 0.1875 1.285 0.9766 1.285 0.6758 0 1.148-0.543 1.148-1.371v-2.215h0.8516v3.27c0 0.2227 0.007812 0.625 0.03516 0.8984h-0.8047" fill="#231f1f"/>
<path d="m94.47 273.5c-0.1797-0.2734-0.5781-0.4766-0.9844-0.4766-0.8867 0-1.402 0.707-1.402 1.504 0 0.793 0.5156 1.504 1.41 1.504 0.4336 0 0.8047-0.1758 1.031-0.457l0.5703 0.5c-0.3633 0.4062-0.9141 0.6523-1.602 0.6523-1.32 0-2.309-0.8711-2.309-2.199 0-1.309 0.9805-2.195 2.289-2.195 0.6094 0 1.258 0.2344 1.613 0.6836l-0.6172 0.4844" fill="#231f1f"/>
<path d="m98.04 273.1h-1.141v2.172c0 0.5 0.1836 0.7031 0.6055 0.7031 0.1562 0 0.3555-0.03516 0.5-0.1055l0.02734 0.6797c-0.1992 0.06641-0.4609 0.1133-0.7266 0.1133-0.8047 0-1.246-0.4414-1.246-1.305v-2.258h-0.8242v-0.6758h0.8242v-1.195h0.8398v1.195h1.141v0.6758" fill="#231f1f"/>
<path d="m99.77 276.6h-0.8516v-4.168h0.8516zm-0.4258-5.145c-0.3086 0-0.5625-0.2383-0.5625-0.5273 0-0.2969 0.2539-0.5352 0.5625-0.5352s0.5703 0.2266 0.5703 0.5352c0 0.3008-0.2617 0.5273-0.5703 0.5273" fill="#231f1f"/>
<path d="m103.3 273c-0.9102 0-1.426 0.7148-1.426 1.504 0 0.793 0.5156 1.512 1.426 1.512 0.9258 0 1.434-0.7188 1.434-1.512 0-0.7891-0.5078-1.504-1.434-1.504zm0 3.711c-1.309 0-2.305-0.9258-2.305-2.207 0-1.285 0.9961-2.188 2.305-2.188 1.312 0 2.316 0.9023 2.316 2.188 0 1.281-1.004 2.207-2.316 2.207" fill="#231f1f"/>
<path d="m107.5 272.4c0.01562 0.2109 0.03516 0.5078 0.03516 0.6836h0.02734c0.207-0.4492 0.7773-0.7969 1.395-0.7969 1.102 0 1.598 0.7617 1.598 1.695v2.586h-0.8477v-2.312c0-0.6797-0.1914-1.277-0.9766-1.277-0.6719 0-1.148 0.5469-1.148 1.375v2.215h-0.8516v-3.273c0-0.2188-0.01172-0.625-0.03906-0.8945h0.8086" fill="#231f1f"/>
<path transform="matrix(.1 0 0 -.1 0 384.2)" d="m958.9 383.3c-11.02-120.7-116.4-179.6-205.3-233.9-55.12-33.63-184.7-88.2-334.3 20.27-104.5 75.86-185 188.7-178.9 213.7 29.92 121.2 49.02 108.8 79.18 252.6 114.3 545.4 216 216.4 381.2 33.83 126.1-139.4 205.3-233.8 258-286.4z" fill="none" stroke="#2d9edf" stroke-width="10"/>
<path transform="matrix(.1 0 0 -.1 0 384.2)" d="m2947 383.3c-10.98-120.7-116.3-179.6-205.2-233.9-55.12-33.63-184.8-88.2-334.3 20.27-104.6 75.86-185.1 188.7-178.9 213.7 29.96 121.2 49.06 108.8 79.18 252.6 114.4 545.4 216.1 216.4 381.2 33.83 126.1-139.4 205.3-233.8 258-286.4z" fill="none" stroke="#2d9edf" stroke-width="10"/>
<path transform="matrix(.1 0 0 -.1 0 384.2)" d="m691.1 3205h-320.9" fill="none" stroke="#231f1f" stroke-width="10"/>
<path d="m75.14 63.74c-2.84-1.055-6.363-2.852-8.547-4.758l1.723 4.758-1.723 4.754c2.184-1.902 5.707-3.703 8.547-4.754" fill="#231f1f"/>
<path transform="matrix(.1 0 0 -.1 0 384.2)" d="m430.6 2993h320.9" fill="none" stroke="#2d9edf" stroke-width="10"/>
<path d="m37.02 84.91c2.84 1.055 6.363 2.855 8.547 4.758l-1.719-4.758 1.719-4.754c-2.184 1.906-5.707 3.703-8.547 4.754" fill="#2d9edf"/>
<path transform="matrix(.1 0 0 -.1 0 384.2)" d="m958.9 383.3c-52.77-88.24-143.7-81.05-233.1-82.54-64.57-1.055-126.2-13.01-287.4 1.484-114.4 10.27-204.1 56.09-197.9 81.05 29.92 121.2 45.78 109.5 79.18 252.6 114.3 490.4 165.3 293.4 377.2 43.32 87.23-102.9 60.47-72.42 262-295.9z" fill="none" stroke="#fabe15" stroke-width="10"/>
<path transform="matrix(.1 0 0 -.1 0 384.2)" d="m958.9 1732c-11.02-120.7-116.4-179.6-205.3-233.9-55.12-33.63-184.7-88.24-334.3 20.27-104.5 75.82-185 188.7-178.9 213.7 29.92 121.2 43.63 110 79.18 252.6 105.5 423.6 127.5 14.49 231.6-91.09 132-133.8 354.8-108.9 407.6-161.5z" fill="none" stroke="#9e9c9c" stroke-width="10"/>
<path transform="matrix(.1 0 0 -.1 0 384.2)" d="m2690 1721c0-32.27-11.72-92.38-90.9-140.7-55.08-33.67-173-58.67-265.4 32.27-92.07 90.59-107.2 95-101 120 29.92 121.2 6.25 60.27 96.56 176.2 67.46 86.48 134.1 67.46 237.5-38.71 74.3-76.21 109-113.7 123.2-149z" fill="none" stroke="#ed2222" stroke-width="10"/>
<path transform="matrix(.1 0 0 -.1 0 384.2)" d="m2947 383.3c16.64-85.47-176.9-267.3-324.6-275.9-108.7-6.328-198.3 23.28-302.5 138.9-86.52 95.9-93.87 112-87.66 137 29.92 121.2 46.72 122.2 86.33 137.5 35.94 13.83 99.53 0 247.8 0 137.8 0 256.6 42.42 380.7-137.5z" fill="none" stroke="#fabe15" stroke-width="10"/>
</svg>
