<?xml version="1.0" encoding="UTF-8"?>
<svg width="217.5pt" height="207.5pt" version="1.1" viewBox="0 0 217.5 207.5" xmlns="http://www.w3.org/2000/svg">
<defs>
<clipPath id="b">
<path d="m92 85h104v122.5h-104z"/>
</clipPath>
<clipPath id="a">
<path d="m214 27h3.469v4h-3.469z"/>
</clipPath>
</defs>
<g clip-path="url(#b)">
<path d="m134 85.23c33.75 0 61.42 27.33 61.42 61.09 0 34.68-30.04 61.48-62.42 61.14-15.75-0.168-25.98-5.602-27.99-6.77-6.844-3.961-8.602-6-12.32-9.602l41.32-44.74v-61.11" fill="#1476c6" fill-rule="evenodd"/>
</g>
<path d="m83.48 188.6c-30.48-27.05-19.93-70.82-8.012-82.28l49.73 37.59-41.71 44.7" fill="#d40f41" fill-rule="evenodd"/>
<path d="m84.67 95.89c4.715-4.27 10.17-8.074 16.04-10.94l26.25 55.4-42.29-44.46" fill="#67218d" fill-rule="evenodd"/>
<path d="m77.11 104.1c2.293-2.98 3.781-4.582 6.637-7.238l42.18 44.14-48.82-36.9" fill="#4fbd37" fill-rule="evenodd"/>
<path d="m101.9 84.55c2.062-1.262 4.137-2.07 6.156-2.664l19.86 58.13-26.02-55.47" fill="#2d9edf" fill-rule="evenodd"/>
<path d="m108.9 81.54c1.906-0.7695 4.539-1.457 5.914-1.688l13.52 59.48-19.44-57.79" fill="#f68a1a" fill-rule="evenodd"/>
<path d="m115.4 79.75c2.105-0.5547 3.445-0.8242 5.281-0.9375l8.035 60.18-13.32-59.24" fill="#9745a8" fill-rule="evenodd"/>
<path d="m121.2 78.7c1.738-0.418 3.137-0.5273 5.004-0.5977l2.855 60.66-7.859-60.06" fill="#703907" fill-rule="evenodd"/>
<path d="m126.7 78c0.9961-0.2266 1.719-0.2656 2.738-0.1328l0.05469 60.43-2.793-60.29" fill="#ddeb4e" fill-rule="evenodd"/>
<path d="m12.21 44.49h0.007812l2.172-3.824h1.066l-0.8711 4.961h-0.6797l0.7383-4.141h-0.02344l-2.387 4.141h-0.4336l-0.918-4.141h-0.01562l-0.7344 4.141h-0.6602l0.875-4.961h1.059l0.8047 3.824" fill="#231f1f"/>
<path d="m17.02 44.92h0.01562l1.469-2.613h0.7031l-2.43 4.102c-0.332 0.5547-0.625 0.8984-1.191 0.8984-0.1406 0-0.2734-0.01563-0.4141-0.04688l0.08984-0.5742c0.09766 0.03516 0.2109 0.05469 0.3086 0.05469 0.3008 0 0.4688-0.1953 0.6797-0.5547l0.3281-0.5586-0.7266-3.32h0.6914l0.4766 2.613" fill="#231f1f"/>
<path d="m21.97 43.15c-0.1094-0.2227-0.3984-0.3984-0.7266-0.3984-0.7617 0-1.316 0.6641-1.316 1.449 0 0.5312 0.3203 0.9648 0.9531 0.9648 0.4141 0 0.6914-0.168 0.9102-0.3984l0.3906 0.3633c-0.3477 0.3516-0.7773 0.582-1.344 0.582-0.9531 0-1.57-0.582-1.57-1.438 0-1.105 0.793-2.062 2.012-2.062 0.4922 0 0.9727 0.1719 1.199 0.5586l-0.5078 0.3789" fill="#231f1f"/>
<path d="m24.68 42.75c-0.7617 0-1.297 0.6797-1.297 1.457 0 0.5508 0.3594 0.957 0.9531 0.957 0.7656 0 1.297-0.6719 1.297-1.457 0-0.5469-0.3633-0.957-0.9531-0.957zm-1.953 1.512c0-1.102 0.8047-2.051 1.996-2.051 0.918 0 1.566 0.5781 1.566 1.434 0 1.121-0.7969 2.066-1.988 2.066-0.9102 0-1.574-0.5938-1.574-1.449" fill="#231f1f"/>
<path d="m29.11 42.76c-0.7344 0-1.316 0.668-1.316 1.457 0 0.5625 0.3789 0.9688 0.9609 0.9688 0.7695 0 1.281-0.6523 1.281-1.465 0-0.5391-0.3281-0.9609-0.9258-0.9609zm0.1484-0.5391c0.875 0 1.449 0.582 1.449 1.438 0 1.133-0.7969 2.059-1.891 2.059-0.5391 0-0.9531-0.2383-1.156-0.6289h-0.01172l-0.3867 2.219h-0.6523l0.8828-5h0.6289l-0.08984 0.5312h0.01562c0.2383-0.3555 0.6992-0.6172 1.211-0.6172" fill="#231f1f"/>
<path d="m31.99 45.62h-0.6484l0.9297-5.297h0.6602l-0.9414 5.297" fill="#231f1f"/>
<path d="m35.37 44.03c-0.7266 0-1.652 0.09766-1.652 0.6992 0 0.3672 0.3086 0.4688 0.6094 0.4688 0.5898 0 1.008-0.418 1.098-0.9219l0.05078-0.2461zm0.2031-0.7344c0-0.3945-0.25-0.5547-0.6992-0.5547-0.3516 0-0.7344 0.1602-0.9961 0.3633l-0.2656-0.4336c0.3516-0.2812 0.8633-0.4531 1.352-0.4531 0.6328 0 1.234 0.2656 1.234 0.9805 0 0.08203-0.01562 0.2422-0.02734 0.3359l-0.2461 1.344c-0.04297 0.2578-0.07812 0.5664-0.07812 0.75h-0.5938c0-0.1406 0.01172-0.3086 0.03906-0.4648h-0.01172c-0.3164 0.3711-0.6719 0.5352-1.176 0.5352-0.457 0-1.031-0.2031-1.031-0.875 0-1.082 1.316-1.27 2.473-1.27 0.01953-0.1328 0.02734-0.1953 0.02734-0.2578" fill="#231f1f"/>
<path d="m39.14 43.1c-0.125-0.2148-0.3516-0.3711-0.6992-0.3711-0.3086 0-0.6875 0.1211-0.6875 0.4648 0 0.2773 0.2188 0.3633 0.5938 0.4688 0.6328 0.1797 0.9883 0.4492 0.9883 0.9844 0 0.7305-0.6836 1.082-1.363 1.082-0.6328 0-1.109-0.2539-1.359-0.6523l0.5234-0.3438c0.1484 0.2734 0.4648 0.457 0.8359 0.457 0.3906 0 0.7266-0.1641 0.7266-0.4922 0-0.2852-0.2305-0.4062-0.6875-0.5547-0.5156-0.1602-0.8867-0.3633-0.8867-0.8945 0-0.6602 0.6484-1.035 1.363-1.035 0.5117 0 0.9531 0.2031 1.156 0.5586l-0.5039 0.3281" fill="#231f1f"/>
<path d="m45.49 43.23c0 0.1133-0.01562 0.2188-0.03516 0.3359l-0.3633 2.055h-0.6445l0.3203-1.836c0.02344-0.125 0.03516-0.2539 0.03516-0.3711 0-0.3789-0.1602-0.6602-0.6367-0.6602-0.6094 0-0.9023 0.5547-0.9961 1.074l-0.3125 1.793h-0.6523l0.3516-1.969c0.01953-0.1133 0.03516-0.2188 0.03516-0.3086 0-0.3516-0.168-0.5898-0.582-0.5898-0.4844 0-0.9102 0.4414-1.031 1.102l-0.3086 1.766h-0.6484l0.4531-2.602c0.03516-0.1719 0.08594-0.4961 0.1055-0.7188h0.6172c-0.01562 0.1328-0.05078 0.3984-0.07031 0.5391h0.01562c0.2305-0.3555 0.5938-0.6289 1.082-0.6289 0.457 0 0.8555 0.207 0.9609 0.6758 0.2734-0.4258 0.6719-0.6758 1.176-0.6758 0.7422 0 1.129 0.4336 1.129 1.02" fill="#231f1f"/>
<path d="m48.43 44.03c-0.7266 0-1.652 0.09766-1.652 0.6992 0 0.3672 0.3086 0.4688 0.6094 0.4688 0.5898 0 1.008-0.418 1.098-0.9219l0.05078-0.2461zm0.2031-0.7344c0-0.3945-0.25-0.5547-0.6992-0.5547-0.3516 0-0.7344 0.1602-0.9961 0.3633l-0.2656-0.4336c0.3516-0.2812 0.8633-0.4531 1.352-0.4531 0.6328 0 1.234 0.2656 1.234 0.9805 0 0.08203-0.01562 0.2422-0.02734 0.3359l-0.2461 1.344c-0.04297 0.2578-0.07812 0.5664-0.07812 0.75h-0.5938c0-0.1406 0.01172-0.3086 0.03906-0.4648h-0.01172c-0.3164 0.3711-0.6719 0.5352-1.176 0.5352-0.457 0-1.031-0.2031-1.031-0.875 0-1.082 1.316-1.27 2.473-1.27 0.01953-0.1328 0.02734-0.1953 0.02734-0.2578" fill="#231f1f"/>
<path d="m11.67 51.16c-0.7383 0-1.316 0.6641-1.316 1.457 0 0.5586 0.375 0.9648 0.957 0.9648 0.7734 0 1.281-0.6523 1.281-1.465 0-0.5391-0.3281-0.957-0.9219-0.957zm0.1445-0.5391c0.8789 0 1.453 0.5781 1.453 1.434 0 1.137-0.8008 2.059-1.895 2.059-0.5391 0-0.9492-0.2344-1.152-0.6289h-0.01562l-0.3867 2.219h-0.6484l0.8789-5h0.6328l-0.08984 0.5352h0.01172c0.2383-0.3594 0.6992-0.6172 1.211-0.6172" fill="#231f1f"/>
<path d="m15.06 50.7c-0.01562 0.1328-0.04297 0.3945-0.07031 0.5391h0.01172c0.2461-0.3789 0.6406-0.6289 1.109-0.6289 0.7266 0 1.113 0.4336 1.113 1.023 0 0.1094-0.007812 0.2148-0.02734 0.3359l-0.3672 2.051h-0.6523l0.3242-1.836c0.02734-0.125 0.04297-0.25 0.04297-0.3711 0-0.375-0.1602-0.6484-0.6445-0.6484-0.5195 0-0.9375 0.4336-1.059 1.09l-0.3086 1.766h-0.6484l0.4531-2.598c0.03516-0.1758 0.08203-0.4961 0.1055-0.7227h0.6172" fill="#231f1f"/>
<path d="m20.66 52.09c0.007813-0.06641 0.01562-0.1484 0.01562-0.2109 0-0.4297-0.293-0.75-0.8203-0.75-0.6289 0-1.062 0.4844-1.176 0.9609zm-2.051 0.4727c-0.007813 0.04297-0.007813 0.07812-0.007813 0.1133 0 0.5234 0.4219 0.9023 0.9688 0.9023 0.4688 0 0.8125-0.2148 1.043-0.5039l0.3828 0.3672c-0.3906 0.4453-0.9102 0.6758-1.488 0.6758-0.8828 0-1.543-0.5391-1.543-1.469 0-1.105 0.832-2.031 1.941-2.031 0.8398 0 1.379 0.4922 1.379 1.316 0 0.1328-0.01953 0.4219-0.07031 0.6289h-2.605" fill="#231f1f"/>
<path d="m24.18 54.02c0.01562-0.1328 0.04688-0.3906 0.07031-0.5391h-0.01562c-0.2383 0.3789-0.6367 0.6289-1.105 0.6289-0.7227 0-1.113-0.4336-1.113-1.027 0-0.1055 0.01562-0.2188 0.03516-0.3281l0.3633-2.055h0.6445l-0.3203 1.828c-0.02344 0.1328-0.03516 0.2578-0.03516 0.3789 0 0.3789 0.1602 0.6523 0.6367 0.6523 0.5156 0 0.9453-0.4336 1.059-1.094l0.3125-1.766h0.6445l-0.4531 2.602c-0.03516 0.1719-0.08594 0.4961-0.1055 0.7188h-0.6172" fill="#231f1f"/>
<path d="m31.45 51.64c0 0.1094-0.01562 0.2148-0.03906 0.3359l-0.3633 2.051h-0.6445l0.3242-1.836c0.01953-0.125 0.03516-0.25 0.03516-0.3711 0-0.375-0.1641-0.6562-0.6367-0.6562-0.6094 0-0.9062 0.5547-0.9961 1.07l-0.3164 1.793h-0.6484l0.3477-1.969c0.02344-0.1094 0.03516-0.2148 0.03516-0.3086 0-0.3477-0.168-0.5859-0.582-0.5859-0.4805 0-0.9102 0.4414-1.027 1.098l-0.3086 1.766h-0.6523l0.457-2.598c0.03516-0.1758 0.08203-0.4961 0.1055-0.7227h0.6133c-0.01172 0.1328-0.04688 0.4023-0.06641 0.5391h0.01172c0.2305-0.3555 0.5977-0.6289 1.086-0.6289 0.457 0 0.8555 0.2109 0.9609 0.6797 0.2695-0.4297 0.6719-0.6797 1.176-0.6797 0.7422 0 1.129 0.4336 1.129 1.023" fill="#231f1f"/>
<path d="m34.13 51.15c-0.7617 0-1.293 0.6797-1.293 1.457 0 0.5547 0.3555 0.9609 0.9492 0.9609 0.7656 0 1.297-0.6758 1.297-1.457 0-0.5469-0.3633-0.9609-0.9531-0.9609zm-1.953 1.512c0-1.098 0.8047-2.051 1.996-2.051 0.918 0 1.566 0.582 1.566 1.438 0 1.117-0.7969 2.062-1.988 2.062-0.9102 0-1.574-0.5938-1.574-1.449" fill="#231f1f"/>
<path d="m37.54 50.7c-0.01562 0.1328-0.04297 0.3945-0.07031 0.5391h0.01172c0.2461-0.3789 0.6367-0.6289 1.109-0.6289 0.7266 0 1.113 0.4336 1.113 1.023 0 0.1094-0.007813 0.2148-0.03125 0.3359l-0.3633 2.051h-0.6523l0.3242-1.836c0.02734-0.125 0.04297-0.25 0.04297-0.3711 0-0.375-0.1641-0.6484-0.6445-0.6484-0.5195 0-0.9375 0.4336-1.059 1.09l-0.3086 1.766h-0.6523l0.457-2.598c0.03516-0.1758 0.08594-0.4961 0.1055-0.7227h0.6172" fill="#231f1f"/>
<path d="m41.54 49.92c-0.2227 0-0.4141-0.1484-0.4141-0.4023 0-0.25 0.2031-0.4336 0.4297-0.4336 0.2227 0 0.3984 0.1602 0.3984 0.4062 0 0.2305-0.1836 0.4297-0.4141 0.4297zm-0.4531 4.102h-0.6484l0.582-3.32h0.6523l-0.5859 3.32" fill="#231f1f"/>
<path d="m44.46 52.43c-0.7266 0-1.652 0.09766-1.652 0.7031 0 0.3633 0.3086 0.4688 0.6094 0.4688 0.5898 0 1.008-0.4219 1.098-0.9258l0.05078-0.2461zm0.2031-0.7344c0-0.3906-0.2539-0.5547-0.6992-0.5547-0.3516 0-0.7383 0.1641-0.9961 0.3672l-0.2656-0.4336c0.3516-0.2812 0.8633-0.457 1.352-0.457 0.6289 0 1.234 0.2656 1.234 0.9805 0 0.08594-0.01562 0.2461-0.02734 0.3359l-0.2461 1.344c-0.04297 0.2617-0.07812 0.5703-0.07812 0.75h-0.5938c0-0.1406 0.01172-0.3086 0.03906-0.4609h-0.01172c-0.3164 0.3711-0.6719 0.5312-1.176 0.5312-0.457 0-1.031-0.2031-1.031-0.875 0-1.078 1.316-1.27 2.473-1.27 0.01953-0.1328 0.02734-0.1953 0.02734-0.2578" fill="#231f1f"/>
<path d="m48.71 52.09c0.007812-0.06641 0.01172-0.1484 0.01172-0.2109 0-0.4297-0.293-0.75-0.8164-0.75-0.6328 0-1.066 0.4844-1.18 0.9609zm-2.051 0.4727c-0.007812 0.04297-0.007812 0.07812-0.007812 0.1133 0 0.5234 0.418 0.9023 0.9648 0.9023 0.4688 0 0.8125-0.2148 1.043-0.5039l0.3867 0.3672c-0.3906 0.4453-0.9102 0.6758-1.492 0.6758-0.8828 0-1.539-0.5391-1.539-1.469 0-1.105 0.832-2.031 1.938-2.031 0.8398 0 1.383 0.4922 1.383 1.316 0 0.1328-0.02344 0.4219-0.07031 0.6289h-2.605" fill="#231f1f"/>
<path d="m28.04 62.43h-3.234v-0.6523l1.977-1.961c0.3008-0.3086 0.543-0.6328 0.543-1.051 0-0.5195-0.3906-0.8555-0.8789-0.8555-0.5078 0-0.8516 0.3633-0.9336 0.8633l-0.6641-0.1133c0.1172-0.7578 0.7539-1.316 1.602-1.316 0.8281 0 1.57 0.4805 1.57 1.406 0 0.6367-0.3633 1.074-0.8008 1.5l-1.609 1.57h2.43v0.6094" fill="#231f1f"/>
<path d="m33.12 60.61c-0.3672 0-0.6602 0.293-0.6602 0.6602 0 0.3633 0.293 0.6562 0.6602 0.6562 0.3633 0 0.6562-0.293 0.6562-0.6562 0-0.3672-0.293-0.6602-0.6562-0.6602zm0-0.582c0.6836 0 1.238 0.5547 1.238 1.242 0 0.6836-0.5547 1.238-1.238 1.238-0.6875 0-1.242-0.5547-1.242-1.238 0-0.6875 0.5547-1.242 1.242-1.242zm-2.797 2.621-0.4766-0.2305 3.043-5.176 0.4688 0.2305zm-0.2422-4.688c-0.3672 0-0.6602 0.2969-0.6602 0.6602 0 0.3633 0.293 0.6562 0.6602 0.6562 0.3633 0 0.6562-0.293 0.6562-0.6562 0-0.3633-0.293-0.6602-0.6562-0.6602zm0-0.5781c0.6836 0 1.238 0.5508 1.238 1.238s-0.5547 1.238-1.238 1.238c-0.6875 0-1.242-0.5508-1.242-1.238s0.5547-1.238 1.242-1.238" fill="#231f1f"/>
<path d="m41.03 16.49c-0.1797-0.2734-0.5156-0.4492-0.918-0.4492-0.4609 0-1.062 0.2578-1.062 0.8828 0 0.4258 0.3359 0.6172 0.7969 0.793 0.7227 0.2656 1.305 0.6211 1.305 1.379 0 0.9102-0.7227 1.582-1.855 1.582-0.6328 0-1.297-0.25-1.621-0.7695l0.5742-0.3867c0.1836 0.3242 0.5898 0.5742 1.074 0.5742 0.5664 0 1.105-0.3164 1.105-0.9219 0-0.5117-0.4492-0.7227-0.9648-0.9102-0.582-0.2188-1.113-0.5352-1.113-1.277 0-0.9219 0.7773-1.52 1.824-1.52 0.5781 0 1.121 0.2305 1.387 0.6172l-0.5312 0.4062" fill="#231f1f"/>
<path d="m43.8 17.76h-0.8164l-0.3164 1.746c-0.01562 0.07422-0.01953 0.1523-0.01953 0.207 0 0.2812 0.1602 0.3594 0.3984 0.3594 0.125 0 0.2734-0.03516 0.3555-0.07812l-0.04688 0.5195c-0.1328 0.05469-0.3359 0.08984-0.5273 0.08984-0.5117 0-0.8398-0.2227-0.8398-0.7148 0-0.09766 0.007812-0.2148 0.02734-0.3281l0.3242-1.801h-0.6328l0.09766-0.5312h0.625l0.1602-0.9531h0.6445l-0.168 0.9531h0.8359l-0.1016 0.5312" fill="#231f1f"/>
<path d="m46.29 18.95c-0.7305 0-1.652 0.09766-1.652 0.6992 0 0.3633 0.3086 0.4688 0.6094 0.4688 0.5859 0 1.008-0.418 1.098-0.9219l0.05078-0.2461zm0.2031-0.7344c0-0.3945-0.2539-0.5547-0.6992-0.5547-0.3516 0-0.7383 0.1602-0.9961 0.3633l-0.2656-0.4336c0.3516-0.2812 0.8633-0.4531 1.352-0.4531 0.6289 0 1.23 0.2656 1.23 0.9805 0 0.08203-0.01172 0.2422-0.02734 0.3359l-0.2422 1.344c-0.04297 0.2578-0.07812 0.5664-0.07812 0.75h-0.5977c0-0.1406 0.01563-0.3086 0.04297-0.4648h-0.01172c-0.3164 0.375-0.6719 0.5352-1.18 0.5352-0.4531 0-1.027-0.2031-1.027-0.8789 0-1.078 1.316-1.266 2.473-1.266 0.01953-0.1328 0.02734-0.1953 0.02734-0.2578" fill="#231f1f"/>
<path d="m50.03 17.68c-0.7383 0-1.316 0.668-1.316 1.457 0 0.5625 0.375 0.9688 0.957 0.9688 0.7695 0 1.281-0.6523 1.281-1.465 0-0.5391-0.3281-0.9609-0.9219-0.9609zm0.1445-0.5391c0.875 0 1.449 0.582 1.449 1.438 0 1.133-0.7969 2.059-1.891 2.059-0.5391 0-0.9531-0.2383-1.152-0.6289h-0.01562l-0.3867 2.219h-0.6484l0.8789-5h0.6328l-0.08984 0.5312h0.01172c0.2383-0.3555 0.6992-0.6172 1.211-0.6172" fill="#231f1f"/>
<path d="m55.59 18.16c0 0.1133-0.007813 0.2188-0.03125 0.3359l-0.3633 2.055h-0.6523l0.3242-1.836c0.02734-0.125 0.04297-0.25 0.04297-0.3711 0-0.3789-0.1641-0.6523-0.6445-0.6523-0.5273 0-0.9375 0.4336-1.059 1.102l-0.3086 1.758h-0.6523l0.9336-5.297h0.6523l-0.4375 2.48h0.01562c0.2109-0.3359 0.5938-0.5938 1.07-0.5938 0.7227 0 1.109 0.4336 1.109 1.02" fill="#231f1f"/>
<path d="m57.57 19.84h0.01562l1.469-2.613h0.7031l-2.43 4.105c-0.332 0.5508-0.625 0.8945-1.191 0.8945-0.1406 0-0.2734-0.01172-0.4141-0.04688l0.08984-0.5742c0.09766 0.03125 0.2109 0.05469 0.3086 0.05469 0.3008 0 0.4688-0.1953 0.6797-0.5547l0.3281-0.5586-0.7266-3.32h0.6953l0.4727 2.613" fill="#231f1f"/>
<path d="m60.44 20.55h-0.6523l0.9336-5.297h0.6562l-0.9375 5.297" fill="#231f1f"/>
<path d="m63.57 17.68c-0.7617 0-1.293 0.6797-1.293 1.457 0 0.5508 0.3555 0.957 0.9492 0.957 0.7656 0 1.297-0.6719 1.297-1.457 0-0.5469-0.3633-0.957-0.9531-0.957zm-1.953 1.512c0-1.102 0.8047-2.051 1.996-2.051 0.918 0 1.57 0.5781 1.57 1.434 0 1.121-0.8008 2.066-1.988 2.066-0.9141 0-1.578-0.5938-1.578-1.449" fill="#231f1f"/>
<path d="m68.54 18.08c-0.1133-0.2227-0.4023-0.3984-0.7305-0.3984-0.7617 0-1.316 0.6641-1.316 1.449 0 0.5312 0.3242 0.9648 0.9531 0.9648 0.4141 0 0.6914-0.168 0.9102-0.3984l0.3906 0.3633c-0.3477 0.3516-0.7773 0.582-1.344 0.582-0.9531 0-1.566-0.582-1.566-1.438 0-1.105 0.7891-2.062 2.008-2.062 0.4922 0 0.9727 0.1719 1.199 0.5586l-0.5039 0.3789" fill="#231f1f"/>
<path d="m71.24 17.68c-0.7617 0-1.293 0.6797-1.293 1.457 0 0.5508 0.3555 0.957 0.9492 0.957 0.7656 0 1.297-0.6719 1.297-1.457 0-0.5469-0.3633-0.957-0.9531-0.957zm-1.953 1.512c0-1.102 0.8047-2.051 1.996-2.051 0.918 0 1.57 0.5781 1.57 1.434 0 1.121-0.8008 2.066-1.992 2.066-0.9102 0-1.574-0.5938-1.574-1.449" fill="#231f1f"/>
<path d="m76.21 18.08c-0.1133-0.2227-0.4023-0.3984-0.7305-0.3984-0.7617 0-1.316 0.6641-1.316 1.449 0 0.5312 0.3203 0.9648 0.9531 0.9648 0.4141 0 0.6914-0.168 0.9102-0.3984l0.3906 0.3633c-0.3477 0.3516-0.7773 0.582-1.344 0.582-0.9531 0-1.566-0.582-1.566-1.438 0-1.105 0.7891-2.062 2.008-2.062 0.4922 0 0.9727 0.1719 1.199 0.5586l-0.5039 0.3789" fill="#231f1f"/>
<path d="m79.68 18.08c-0.1094-0.2227-0.3984-0.3984-0.7266-0.3984-0.7617 0-1.316 0.6641-1.316 1.449 0 0.5312 0.3203 0.9648 0.9531 0.9648 0.4141 0 0.6914-0.168 0.9102-0.3984l0.3906 0.3633c-0.3477 0.3516-0.7773 0.582-1.344 0.582-0.9531 0-1.57-0.582-1.57-1.438 0-1.105 0.793-2.062 2.012-2.062 0.4883 0 0.9727 0.1719 1.199 0.5586l-0.5078 0.3789" fill="#231f1f"/>
<path d="m82.68 20.55c0.01562-0.1328 0.05078-0.3945 0.07031-0.5391h-0.01562c-0.2344 0.3789-0.6367 0.6289-1.105 0.6289-0.7227 0-1.113-0.4336-1.113-1.027 0-0.1055 0.01562-0.2188 0.03516-0.332l0.3633-2.051h0.6445l-0.3203 1.828c-0.02344 0.1328-0.03516 0.2578-0.03516 0.3789 0 0.3789 0.1602 0.6484 0.6367 0.6484 0.5195 0 0.9453-0.4336 1.059-1.09l0.3125-1.766h0.6445l-0.4531 2.598c-0.03516 0.1758-0.08594 0.4961-0.1055 0.7227h-0.6172" fill="#231f1f"/>
<path d="m86.71 18.03c-0.125-0.2148-0.3477-0.3711-0.6992-0.3711-0.3086 0-0.6875 0.1211-0.6875 0.4648 0 0.2773 0.2188 0.3633 0.5977 0.4688 0.6289 0.1797 0.9844 0.4453 0.9844 0.9844 0 0.7305-0.6836 1.082-1.363 1.082-0.6328 0-1.105-0.2539-1.359-0.6523l0.5273-0.3438c0.1445 0.2734 0.4609 0.457 0.832 0.457 0.3906 0 0.7266-0.1641 0.7266-0.4922 0-0.2852-0.2305-0.4062-0.6836-0.5547-0.5195-0.1602-0.8906-0.3633-0.8906-0.8945 0-0.6602 0.6523-1.035 1.367-1.035 0.5078 0 0.9492 0.2031 1.152 0.5586l-0.5039 0.3281" fill="#231f1f"/>
<path d="m54.31 27.35c-0.7305 0-1.656 0.09766-1.656 0.7031 0 0.3633 0.3086 0.4688 0.6094 0.4688 0.5898 0 1.012-0.4219 1.102-0.9258l0.04688-0.2461zm0.2031-0.7344c0-0.3906-0.2539-0.5547-0.7031-0.5547-0.3477 0-0.7344 0.1641-0.9922 0.3672l-0.2695-0.4375c0.3516-0.2773 0.8633-0.4531 1.355-0.4531 0.6289 0 1.23 0.2656 1.23 0.9805 0 0.08594-0.01562 0.2461-0.02734 0.3359l-0.2461 1.344c-0.03906 0.2617-0.07812 0.5664-0.07812 0.75h-0.5938c0-0.1406 0.01562-0.3086 0.04297-0.4609h-0.01562c-0.3125 0.3711-0.6719 0.5312-1.176 0.5312-0.4531 0-1.027-0.2031-1.027-0.875 0-1.078 1.316-1.27 2.469-1.27 0.02344-0.1328 0.03125-0.1953 0.03125-0.2578" fill="#231f1f"/>
<path d="m58.11 28.95c0.01562-0.1328 0.05078-0.3906 0.07031-0.5391h-0.01172c-0.2383 0.3789-0.6406 0.6289-1.109 0.6289-0.7188 0-1.113-0.4336-1.113-1.027 0-0.1055 0.01562-0.2188 0.03516-0.3281l0.3633-2.055h0.6445l-0.3203 1.828c-0.01953 0.1328-0.03516 0.2617-0.03516 0.3789 0 0.3789 0.1602 0.6523 0.6367 0.6523 0.5195 0 0.9453-0.4336 1.059-1.094l0.3164-1.766h0.6445l-0.457 2.602c-0.03516 0.1719-0.08203 0.4961-0.1055 0.7188h-0.6172" fill="#231f1f"/>
<path d="m60.46 25.63h0.6172c-0.01562 0.1328-0.05078 0.4141-0.07031 0.5625h0.01562c0.2305-0.3867 0.5859-0.6523 1.035-0.6523 0.08984 0 0.1836 0.007813 0.2578 0.02734l-0.1094 0.6094c-0.08594-0.01953-0.1914-0.03516-0.2891-0.03516-0.6367 0-0.9648 0.5117-1.062 1.066l-0.3086 1.742h-0.6445l0.4531-2.598c0.03516-0.1758 0.08594-0.4961 0.1055-0.7227" fill="#231f1f"/>
<path d="m64.94 27.01c0.007813-0.06641 0.01172-0.1484 0.01172-0.2109 0-0.4297-0.293-0.75-0.8164-0.75-0.6328 0-1.066 0.4805-1.18 0.9609zm-2.055 0.4727c-0.003907 0.04297-0.003907 0.07812-0.003907 0.1133 0 0.5234 0.418 0.9023 0.9648 0.9023 0.4688 0 0.8125-0.2148 1.043-0.5039l0.3867 0.3672c-0.3945 0.4453-0.9102 0.6758-1.492 0.6758-0.8828 0-1.543-0.5391-1.543-1.469 0-1.105 0.8359-2.031 1.941-2.031 0.8398 0 1.379 0.4883 1.379 1.316 0 0.1328-0.01953 0.4219-0.07031 0.6289h-2.605" fill="#231f1f"/>
<path d="m68.45 28.95c0.01562-0.1328 0.05078-0.3906 0.07031-0.5391h-0.01172c-0.2383 0.3789-0.6406 0.6289-1.109 0.6289-0.7227 0-1.113-0.4336-1.113-1.027 0-0.1055 0.01563-0.2188 0.03516-0.3281l0.3633-2.055h0.6445l-0.3203 1.828c-0.02344 0.1328-0.03516 0.2617-0.03516 0.3789 0 0.3789 0.1602 0.6523 0.6367 0.6523 0.5195 0 0.9453-0.4336 1.059-1.094l0.3125-1.766h0.6445l-0.4531 2.602c-0.03516 0.1719-0.08594 0.4961-0.1055 0.7188h-0.6172" fill="#231f1f"/>
<path d="m72.48 26.43c-0.125-0.2188-0.3477-0.3711-0.6992-0.3711-0.3086 0-0.6875 0.1172-0.6875 0.4609 0 0.2812 0.2188 0.3633 0.5977 0.4688 0.6289 0.1836 0.9844 0.4492 0.9844 0.9883 0 0.7266-0.6836 1.078-1.363 1.078-0.6328 0-1.105-0.25-1.359-0.6523l0.5234-0.3438c0.1484 0.2734 0.4648 0.457 0.8359 0.457 0.3906 0 0.7266-0.1602 0.7266-0.4922 0-0.2852-0.2305-0.4062-0.6836-0.5508-0.5195-0.1602-0.8906-0.3633-0.8906-0.8984 0-0.6562 0.6523-1.035 1.367-1.035 0.5078 0 0.9492 0.2031 1.152 0.5586l-0.5039 0.332" fill="#231f1f"/>
<path d="m61.05 37.35h-3.234v-0.6523l1.973-1.961c0.3008-0.3086 0.5469-0.6328 0.5469-1.051 0-0.5195-0.3906-0.8555-0.8828-0.8555-0.5039 0-0.8477 0.3633-0.9297 0.8633l-0.6641-0.1133c0.1172-0.7578 0.7539-1.316 1.602-1.316 0.8281 0 1.57 0.4805 1.57 1.406 0 0.6367-0.3633 1.07-0.8008 1.5l-1.609 1.566h2.43v0.6133" fill="#231f1f"/>
<path d="m66.13 35.54c-0.3672 0-0.6602 0.293-0.6602 0.6602 0 0.3633 0.293 0.6562 0.6602 0.6562 0.3633 0 0.6562-0.293 0.6562-0.6562 0-0.3672-0.293-0.6602-0.6562-0.6602zm0-0.582c0.6836 0 1.238 0.5547 1.238 1.242 0 0.6836-0.5547 1.238-1.238 1.238-0.6875 0-1.242-0.5547-1.242-1.238 0-0.6875 0.5547-1.242 1.242-1.242zm-2.797 2.621-0.4766-0.2305 3.039-5.176 0.4688 0.2305zm-0.2461-4.688c-0.3633 0-0.6562 0.2969-0.6562 0.6602s0.293 0.6562 0.6562 0.6562c0.3672 0 0.6602-0.293 0.6602-0.6562s-0.293-0.6602-0.6602-0.6602zm0-0.5781c0.6875 0 1.242 0.5508 1.242 1.238s-0.5547 1.238-1.242 1.238c-0.6836 0-1.238-0.5508-1.238-1.238s0.5547-1.238 1.238-1.238" fill="#231f1f"/>
<path d="m156.4 30.11h2.594v0.6172h-3.285v-4.957h3.18v0.6094h-2.488v1.484h2.34v0.5938h-2.34v1.652" fill="#231f1f"/>
<path d="m160.5 27.4c0.01562 0.168 0.03125 0.4062 0.03125 0.5469h0.01953c0.1602-0.3555 0.6016-0.6367 1.078-0.6367 0.8555 0 1.238 0.6094 1.238 1.352v2.059h-0.6562v-1.84c0-0.543-0.1484-1.02-0.7578-1.02-0.5156 0-0.8867 0.4375-0.8867 1.094v1.766h-0.6602v-2.605c0-0.1758-0.007813-0.4961-0.02734-0.7148h0.6211" fill="#231f1f"/>
<path d="m165.6 27.94h-0.8828v1.73c0 0.3984 0.1406 0.5625 0.4688 0.5625 0.1211 0 0.2734-0.03125 0.3867-0.08594l0.01953 0.5391c-0.1523 0.05469-0.3555 0.08984-0.5586 0.08984-0.625 0-0.9688-0.3477-0.9688-1.035v-1.801h-0.6367v-0.5391h0.6367v-0.9531h0.6523v0.9531h0.8828v0.5391" fill="#231f1f"/>
<path d="m168.7 28.77c-0.01562-0.5273-0.3242-0.9414-0.9336-0.9414-0.5664 0-1 0.4219-1.043 0.9414zm0.6562 0.4883h-2.633c0.01953 0.5664 0.4961 1.008 1.078 1.008 0.4492 0 0.7773-0.2227 0.9688-0.5039l0.4609 0.3711c-0.3594 0.4648-0.8398 0.6797-1.43 0.6797-1.008 0-1.75-0.6992-1.75-1.742 0-1.039 0.7422-1.758 1.715-1.758 0.9805 0 1.598 0.6641 1.598 1.723 0 0.07031 0 0.1484-0.007813 0.2227" fill="#231f1f"/>
<path d="m170.3 27.4h0.625c0.01172 0.168 0.02734 0.4219 0.02734 0.5625h0.01953c0.1836-0.3867 0.5664-0.6523 1.016-0.6523 0.08984 0 0.1836 0.007812 0.2578 0.02734l-0.02734 0.6094c-0.08203-0.01953-0.1953-0.03516-0.3008-0.03516-0.6289 0-0.9297 0.5117-0.9297 1.066v1.742h-0.6602v-2.605c0-0.1758-0.007812-0.4961-0.02734-0.7148" fill="#231f1f"/>
<path d="m174.3 27.86c-0.707 0-1.105 0.5664-1.105 1.195 0 0.6328 0.3984 1.207 1.105 1.207 0.7148 0 1.109-0.5742 1.109-1.207 0-0.6289-0.3945-1.195-1.109-1.195zm0 2.953c-1.016 0-1.785-0.7344-1.785-1.758 0-1.023 0.7695-1.742 1.785-1.742s1.793 0.7188 1.793 1.742c0 1.023-0.7773 1.758-1.793 1.758" fill="#231f1f"/>
<path d="m178.7 27.86c-0.6719 0-1.121 0.5664-1.121 1.203s0.4492 1.199 1.121 1.199c0.7227 0 1.105-0.582 1.105-1.207 0-0.6211-0.3828-1.195-1.105-1.195zm-1.098 2.336v0.5273h-0.6367v-5.293h0.6562v2.469h0.01953c0.2266-0.3203 0.6367-0.5859 1.184-0.5859 0.9883 0 1.66 0.7617 1.66 1.742 0 0.9727-0.6484 1.758-1.672 1.758-0.4688 0-0.9375-0.2148-1.199-0.6172h-0.01172" fill="#231f1f"/>
<path d="m183.4 29.14c-0.6523 0-1.477 0.07031-1.477 0.6289 0 0.3906 0.3516 0.5195 0.6797 0.5195 0.6172 0 0.957-0.4141 0.957-0.9727v-0.1758zm0.1602-0.5703c0-0.4883-0.3281-0.7266-0.8164-0.7266-0.3711 0-0.7227 0.1602-0.9453 0.3867l-0.3516-0.4219c0.3203-0.3086 0.8203-0.4961 1.359-0.4961 0.9531 0 1.387 0.5664 1.387 1.301v1.453c0 0.2227 0.01172 0.4961 0.04688 0.6562h-0.5938c-0.03516-0.1484-0.05469-0.3242-0.05469-0.4766h-0.02344c-0.2383 0.3594-0.6172 0.5625-1.113 0.5625-0.5234 0-1.203-0.2617-1.203-1.023 0-1.004 1.191-1.121 2.309-1.121v-0.09375" fill="#231f1f"/>
<path d="m187.6 28.24c-0.1406-0.2148-0.4492-0.3789-0.7617-0.3789-0.6875 0-1.086 0.5625-1.086 1.199 0 0.6289 0.3984 1.199 1.09 1.199 0.3359 0 0.625-0.1406 0.8008-0.3672l0.4414 0.4023c-0.2812 0.3203-0.707 0.5156-1.242 0.5156-1.02 0-1.785-0.6914-1.785-1.75 0-1.043 0.7578-1.75 1.773-1.75 0.4688 0 0.9727 0.1875 1.246 0.5469l-0.4766 0.3828" fill="#231f1f"/>
<path d="m190.3 27.94h-0.8828v1.73c0 0.3984 0.1406 0.5625 0.4688 0.5625 0.1211 0 0.2734-0.03125 0.3867-0.08594l0.01953 0.5391c-0.1523 0.05469-0.3555 0.08984-0.5586 0.08984-0.625 0-0.9688-0.3477-0.9688-1.035v-1.801h-0.6367v-0.5391h0.6367v-0.9531h0.6523v0.9531h0.8828v0.5391" fill="#231f1f"/>
<path d="m193.4 28.77c-0.01562-0.5273-0.3242-0.9414-0.9336-0.9414-0.5664 0-1 0.4219-1.043 0.9414zm0.6562 0.4883h-2.633c0.01953 0.5664 0.4961 1.008 1.078 1.008 0.4492 0 0.7773-0.2227 0.9688-0.5039l0.4609 0.3711c-0.3594 0.4648-0.8398 0.6797-1.43 0.6797-1.008 0-1.75-0.6992-1.75-1.742 0-1.039 0.7422-1.758 1.715-1.758 0.9805 0 1.598 0.6641 1.598 1.723 0 0.07031 0 0.1484-0.007812 0.2227" fill="#231f1f"/>
<path d="m195 27.4h0.625c0.01172 0.168 0.02734 0.4219 0.02734 0.5625h0.01953c0.1836-0.3867 0.5703-0.6523 1.016-0.6523 0.09375 0 0.1836 0.007812 0.2617 0.02734l-0.03125 0.6094c-0.08203-0.01953-0.1953-0.03516-0.3008-0.03516-0.6289 0-0.9297 0.5117-0.9297 1.066v1.742h-0.6602v-2.605c0-0.1758-0.003907-0.4961-0.02734-0.7148" fill="#231f1f"/>
<path d="m198.2 30.72h-0.6562v-3.32h0.6562zm-0.3281-4.098c-0.2383 0-0.4336-0.1875-0.4336-0.4219s0.1953-0.4258 0.4336-0.4258c0.2383 0 0.4414 0.1836 0.4414 0.4258s-0.2031 0.4219-0.4414 0.4219" fill="#231f1f"/>
<path d="m201.3 29.14c-0.6523 0-1.48 0.07031-1.48 0.6289 0 0.3906 0.3516 0.5195 0.6797 0.5195 0.6172 0 0.9609-0.4141 0.9609-0.9727v-0.1758zm0.1602-0.5703c0-0.4883-0.3281-0.7266-0.8203-0.7266-0.3711 0-0.7188 0.1602-0.9453 0.3867l-0.3477-0.4219c0.3203-0.3086 0.8164-0.4961 1.355-0.4961 0.9531 0 1.387 0.5664 1.387 1.301v1.453c0 0.2227 0.01562 0.4961 0.05078 0.6562h-0.5938c-0.03516-0.1484-0.05859-0.3242-0.05859-0.4766h-0.01953c-0.2383 0.3594-0.6172 0.5625-1.113 0.5625-0.5273 0-1.207-0.2617-1.207-1.023 0-1.004 1.191-1.121 2.312-1.121v-0.09375" fill="#231f1f"/>
<path d="m205.5 28.24c-0.1406-0.2148-0.4492-0.3789-0.7656-0.3789-0.6875 0-1.086 0.5625-1.086 1.199 0 0.6289 0.3984 1.199 1.094 1.199 0.3359 0 0.625-0.1406 0.7969-0.3672l0.4414 0.4023c-0.2773 0.3203-0.707 0.5156-1.238 0.5156-1.023 0-1.785-0.6914-1.785-1.75 0-1.043 0.7539-1.75 1.77-1.75 0.4727 0 0.9766 0.1875 1.246 0.5469l-0.4727 0.3828" fill="#231f1f"/>
<path d="m209 28.77c-0.01562-0.5273-0.3242-0.9414-0.9336-0.9414-0.5664 0-1 0.4219-1.043 0.9414zm0.6562 0.4883h-2.633c0.02344 0.5664 0.4961 1.008 1.078 1.008 0.4492 0 0.7773-0.2227 0.9688-0.5039l0.4609 0.3711c-0.3555 0.4648-0.8398 0.6797-1.43 0.6797-1.008 0-1.75-0.6992-1.75-1.742 0-1.039 0.7422-1.758 1.715-1.758 0.9805 0 1.598 0.6641 1.598 1.723 0 0.07031 0 0.1484-0.007812 0.2227" fill="#231f1f"/>
<path d="m212.5 29.14c-0.6484 0-1.477 0.07031-1.477 0.6289 0 0.3906 0.3516 0.5195 0.6797 0.5195 0.6172 0 0.9609-0.4141 0.9609-0.9727v-0.1758zm0.1641-0.5703c0-0.4883-0.332-0.7266-0.8203-0.7266-0.3711 0-0.7227 0.1602-0.9453 0.3867l-0.3516-0.4219c0.3242-0.3086 0.8203-0.4961 1.359-0.4961 0.9531 0 1.387 0.5664 1.387 1.301v1.453c0 0.2227 0.01562 0.4961 0.05078 0.6562h-0.5977c-0.03516-0.1484-0.05469-0.3242-0.05469-0.4766h-0.02344c-0.2383 0.3594-0.6133 0.5625-1.113 0.5625-0.5234 0-1.203-0.2617-1.203-1.023 0-1.004 1.191-1.121 2.312-1.121v-0.09375" fill="#231f1f"/>
<g clip-path="url(#a)">
<path d="m216.8 28.77c-0.01563-0.5273-0.3203-0.9414-0.9297-0.9414-0.5664 0-1.004 0.4219-1.047 0.9414zm0.6602 0.4883h-2.637c0.02344 0.5664 0.5 1.008 1.082 1.008 0.4453 0 0.7773-0.2227 0.9648-0.5039l0.4609 0.3711c-0.3555 0.4648-0.8398 0.6797-1.426 0.6797-1.012 0-1.754-0.6992-1.754-1.742 0-1.039 0.7422-1.758 1.719-1.758 0.9805 0 1.598 0.6641 1.598 1.723 0 0.07031 0 0.1484-0.007812 0.2227" fill="#231f1f"/>
</g>
<path d="m184 39.12h-0.6797v-4.133l-0.9414 0.7852-0.3984-0.4688 1.406-1.141h0.6133v4.957" fill="#231f1f"/>
<path d="m190.1 37.31c-0.3633 0-0.6562 0.293-0.6562 0.6602 0 0.3633 0.293 0.6562 0.6562 0.6562 0.3633 0 0.6602-0.293 0.6602-0.6562 0-0.3672-0.2969-0.6602-0.6602-0.6602zm0-0.582c0.6875 0 1.242 0.5547 1.242 1.242 0 0.6836-0.5547 1.238-1.242 1.238s-1.238-0.5547-1.238-1.238c0-0.6875 0.5508-1.242 1.238-1.242zm-2.793 2.621-0.4766-0.2305 3.039-5.176 0.4688 0.2305zm-0.2461-4.688c-0.3633 0-0.6562 0.293-0.6562 0.6602 0 0.3633 0.293 0.6562 0.6562 0.6562s0.6602-0.293 0.6602-0.6562c0-0.3672-0.2969-0.6602-0.6602-0.6602zm0-0.582c0.6875 0 1.238 0.5547 1.238 1.242s-0.5508 1.238-1.238 1.238-1.238-0.5508-1.238-1.238 0.5508-1.242 1.238-1.242" fill="#231f1f"/>
<path d="m103.1 4.688h2.223l-0.09766 0.6094h-2.91l0.8789-4.957h0.6836l-0.7773 4.348" fill="#231f1f"/>
<path d="m108.4 3.355c0.007813-0.0625 0.01172-0.1445 0.01172-0.207 0-0.4297-0.293-0.75-0.8203-0.75-0.6289 0-1.062 0.4805-1.176 0.957zm-2.055 0.4766c-0.003906 0.04297-0.003906 0.07812-0.003906 0.1133 0 0.5234 0.418 0.9023 0.9648 0.9023 0.4688 0 0.8125-0.2148 1.043-0.5039l0.3867 0.3633c-0.3945 0.4492-0.9102 0.6797-1.492 0.6797-0.8828 0-1.543-0.5391-1.543-1.469 0-1.105 0.8359-2.031 1.941-2.031 0.8398 0 1.379 0.4883 1.379 1.316 0 0.1328-0.01953 0.418-0.07031 0.6289h-2.605" fill="#231f1f"/>
<path d="m111.4 4.801c0.7461 0 1.301-0.6602 1.301-1.422 0-0.5469-0.3711-0.9609-0.9531-0.9609-0.7695 0-1.289 0.6016-1.289 1.422 0 0.5312 0.3359 0.9609 0.9414 0.9609zm-1.523 1.078c0.2461 0.3203 0.6797 0.5312 1.145 0.5312 0.875 0 1.203-0.5391 1.344-1.227l0.08203-0.4414h-0.01172c-0.2656 0.3672-0.6992 0.5898-1.199 0.5898-0.8828 0-1.441-0.6016-1.441-1.441 0-1.109 0.7891-2.004 1.883-2.004 0.5391 0 0.9688 0.2383 1.141 0.6289h0.02344l0.08984-0.5391h0.6328l-0.5547 3.16c-0.168 0.9531-0.5977 1.84-1.996 1.84-0.5977 0-1.227-0.2305-1.57-0.6289l0.4336-0.4688" fill="#231f1f"/>
<path d="m115.2 1.191c-0.2266 0-0.4141-0.1445-0.4141-0.3984 0-0.25 0.2031-0.4336 0.4258-0.4336 0.2266 0 0.3984 0.1602 0.3984 0.4062 0 0.2305-0.1797 0.4258-0.4102 0.4258zm-0.457 4.105h-0.6445l0.582-3.32h0.6484l-0.5859 3.32" fill="#231f1f"/>
<path d="m117.9 2.426c-0.7617 0-1.297 0.6797-1.297 1.457 0 0.5547 0.3594 0.9609 0.9531 0.9609 0.7656 0 1.297-0.6758 1.297-1.457 0-0.5469-0.3633-0.9609-0.9531-0.9609zm-1.953 1.512c0-1.098 0.8047-2.051 1.996-2.051 0.918 0 1.57 0.582 1.57 1.434 0 1.121-0.8008 2.066-1.992 2.066-0.9102 0-1.574-0.5938-1.574-1.449" fill="#231f1f"/>
<path d="m121.3 1.977c-0.01562 0.1328-0.04297 0.3906-0.07031 0.5391h0.01172c0.2461-0.3789 0.6406-0.6289 1.109-0.6289 0.7266 0 1.113 0.4336 1.113 1.023 0 0.1094-0.007813 0.2148-0.03125 0.3359l-0.3633 2.051h-0.6484l0.3203-1.836c0.02734-0.125 0.04297-0.25 0.04297-0.3711 0-0.3789-0.1602-0.6484-0.6445-0.6484-0.5195 0-0.9375 0.4336-1.059 1.09l-0.3086 1.766h-0.6484l0.4531-2.598c0.03516-0.1758 0.08594-0.5 0.1055-0.7227h0.6172" fill="#231f1f"/>
<path d="m126.9 3.355c0.007812-0.0625 0.01562-0.1445 0.01562-0.207 0-0.4297-0.293-0.75-0.8203-0.75-0.6289 0-1.062 0.4805-1.176 0.957zm-2.051 0.4766c-0.007812 0.04297-0.007812 0.07812-0.007812 0.1133 0 0.5234 0.4219 0.9023 0.9688 0.9023 0.4688 0 0.8125-0.2148 1.043-0.5039l0.3828 0.3633c-0.3906 0.4492-0.9102 0.6797-1.488 0.6797-0.8828 0-1.543-0.5391-1.543-1.469 0-1.105 0.8359-2.031 1.941-2.031 0.8398 0 1.379 0.4883 1.379 1.316 0 0.1328-0.01953 0.418-0.07031 0.6289h-2.605" fill="#231f1f"/>
<path d="m128.8 5.297h-0.6523l0.9297-5.293h0.6602l-0.9375 5.293" fill="#231f1f"/>
<path d="m130.6 5.297h-0.6523l0.9297-5.293h0.6602l-0.9375 5.293" fill="#231f1f"/>
<path d="m134 3.699c-0.7266 0-1.652 0.09766-1.652 0.7031 0 0.3633 0.3086 0.4688 0.6094 0.4688 0.5898 0 1.008-0.4219 1.098-0.9258l0.05078-0.2461zm0.2031-0.7344c0-0.3945-0.25-0.5547-0.6992-0.5547-0.3516 0-0.7344 0.1602-0.9961 0.3672l-0.2656-0.4375c0.3516-0.2773 0.8633-0.4531 1.352-0.4531 0.6328 0 1.234 0.2656 1.234 0.9805 0 0.08203-0.01562 0.2461-0.02734 0.3359l-0.2461 1.344c-0.04297 0.2617-0.07812 0.5664-0.07812 0.75h-0.5938c0-0.1406 0.01172-0.3086 0.03906-0.4609h-0.01172c-0.3164 0.3711-0.6719 0.5312-1.176 0.5312-0.457 0-1.031-0.2031-1.031-0.875 0-1.078 1.316-1.27 2.473-1.27 0.01953-0.1328 0.02734-0.1953 0.02734-0.2578" fill="#231f1f"/>
<path d="m99.7 10.83c-0.7344 0-1.316 0.6641-1.316 1.457 0 0.5586 0.3789 0.9648 0.957 0.9648 0.7695 0 1.281-0.6484 1.281-1.461 0-0.5391-0.3281-0.9609-0.9219-0.9609zm0.1445-0.5391c0.8789 0 1.453 0.582 1.453 1.438 0 1.133-0.8008 2.059-1.895 2.059-0.5391 0-0.9492-0.2383-1.152-0.6328h-0.01562l-0.3867 2.223h-0.6484l0.8828-5h0.6289l-0.08984 0.5312h0.01172c0.2383-0.3594 0.7031-0.6172 1.211-0.6172" fill="#231f1f"/>
<path d="m103.1 10.38c-0.01562 0.1328-0.04297 0.3906-0.07031 0.5391h0.01172c0.2461-0.3789 0.6406-0.6328 1.109-0.6328 0.7266 0 1.113 0.4336 1.113 1.023 0 0.1133-0.007813 0.2148-0.03125 0.3359l-0.3633 2.051h-0.6484l0.3203-1.832c0.02734-0.1289 0.04297-0.2539 0.04297-0.3711 0-0.3789-0.1602-0.6523-0.6445-0.6523-0.5195 0-0.9375 0.4336-1.059 1.094l-0.3086 1.762h-0.6484l0.4531-2.598c0.03516-0.1758 0.08594-0.4961 0.1055-0.7188h0.6172" fill="#231f1f"/>
<path d="m108.7 11.76c0.007813-0.0625 0.01563-0.1484 0.01563-0.2109 0-0.4297-0.293-0.75-0.8203-0.75-0.6289 0-1.062 0.4844-1.176 0.9609zm-2.051 0.4766c-0.007812 0.03906-0.007812 0.07422-0.007812 0.1094 0 0.5273 0.4219 0.9062 0.9688 0.9062 0.4688 0 0.8125-0.2188 1.043-0.5078l0.3828 0.3672c-0.3906 0.4492-0.9102 0.6797-1.488 0.6797-0.8828 0-1.543-0.5391-1.543-1.473 0-1.105 0.8359-2.031 1.941-2.031 0.8398 0 1.379 0.4922 1.379 1.316 0 0.1328-0.01953 0.4219-0.07031 0.6328h-2.605" fill="#231f1f"/>
<path d="m112.2 13.7c0.01562-0.1328 0.05078-0.3906 0.07031-0.5391h-0.01562c-0.2383 0.3789-0.6367 0.6328-1.105 0.6328-0.7227 0-1.113-0.4336-1.113-1.031 0-0.1055 0.01562-0.2188 0.03516-0.3281l0.3633-2.051h0.6445l-0.3203 1.824c-0.02344 0.1367-0.03516 0.2617-0.03516 0.3789 0 0.3789 0.1602 0.6523 0.6367 0.6523 0.5195 0 0.9453-0.4336 1.059-1.094l0.3125-1.762h0.6445l-0.4531 2.598c-0.03516 0.1719-0.08594 0.4961-0.1055 0.7188h-0.6172" fill="#231f1f"/>
<path d="m119.5 11.31c0 0.1133-0.01562 0.2148-0.03906 0.3359l-0.3633 2.051h-0.6445l0.3242-1.832c0.01953-0.1289 0.03516-0.2539 0.03516-0.3711 0-0.3789-0.1602-0.6602-0.6367-0.6602-0.6094 0-0.9062 0.5547-0.9961 1.07l-0.3164 1.793h-0.6484l0.3477-1.965c0.02344-0.1133 0.03516-0.2188 0.03516-0.3086 0-0.3516-0.168-0.5898-0.582-0.5898-0.4805 0-0.9102 0.4414-1.027 1.102l-0.3086 1.762h-0.6523l0.457-2.598c0.03516-0.1758 0.08203-0.4961 0.1055-0.7188h0.6133c-0.01172 0.1328-0.04688 0.3984-0.07031 0.5391h0.01562c0.2305-0.3594 0.5977-0.6328 1.086-0.6328 0.457 0 0.8555 0.2109 0.9609 0.6797 0.2695-0.4258 0.6719-0.6797 1.176-0.6797 0.7422 0 1.129 0.4336 1.129 1.023" fill="#231f1f"/>
<path d="m122.2 10.82c-0.7617 0-1.297 0.6797-1.297 1.457 0 0.5547 0.3594 0.9609 0.9531 0.9609 0.7656 0 1.297-0.6719 1.297-1.457 0-0.5469-0.3633-0.9609-0.9531-0.9609zm-1.953 1.516c0-1.102 0.8047-2.055 1.996-2.055 0.918 0 1.566 0.582 1.566 1.438 0 1.121-0.7969 2.066-1.988 2.066-0.9102 0-1.574-0.5977-1.574-1.449" fill="#231f1f"/>
<path d="m126.6 10.83c-0.7344 0-1.316 0.6641-1.316 1.457 0 0.5586 0.3789 0.9648 0.9609 0.9648 0.7695 0 1.281-0.6484 1.281-1.461 0-0.5391-0.3281-0.9609-0.9258-0.9609zm0.1484-0.5391c0.875 0 1.449 0.582 1.449 1.438 0 1.133-0.7969 2.059-1.891 2.059-0.5391 0-0.9531-0.2383-1.156-0.6328h-0.01172l-0.3867 2.223h-0.6523l0.8828-5h0.6289l-0.08984 0.5312h0.01562c0.2383-0.3594 0.6992-0.6172 1.211-0.6172" fill="#231f1f"/>
<path d="m132.2 11.31c0 0.1133-0.007812 0.2148-0.02734 0.3359l-0.3633 2.051h-0.6523l0.3242-1.832c0.02734-0.1289 0.03906-0.2539 0.03906-0.3711 0-0.3789-0.1602-0.6523-0.6406-0.6523-0.5273 0-0.9414 0.4336-1.059 1.098l-0.3086 1.758h-0.6523l0.9336-5.293h0.6484l-0.4336 2.48h0.01562c0.207-0.3359 0.5938-0.5977 1.07-0.5977 0.7227 0 1.105 0.4336 1.105 1.023" fill="#231f1f"/>
<path d="m134 9.594c-0.2227 0-0.4102-0.1484-0.4102-0.3984 0-0.2539 0.2031-0.4375 0.4258-0.4375 0.2227 0 0.3984 0.1641 0.3984 0.4062 0 0.2344-0.1797 0.4297-0.4141 0.4297zm-0.4531 4.102h-0.6445l0.582-3.316h0.6523l-0.5898 3.316" fill="#231f1f"/>
<path d="m135.4 13.7h-0.6523l0.9336-5.293h0.6562l-0.9375 5.293" fill="#231f1f"/>
<path d="m138.7 12.1c-0.7305 0-1.656 0.09766-1.656 0.6992 0 0.3633 0.3086 0.4688 0.6094 0.4688 0.5898 0 1.012-0.4219 1.102-0.9258l0.05078-0.2422zm0.2031-0.7383c0-0.3906-0.2539-0.5508-0.7031-0.5508-0.3477 0-0.7344 0.1602-0.9922 0.3633l-0.2695-0.4336c0.3516-0.2812 0.8633-0.457 1.355-0.457 0.6289 0 1.23 0.2656 1.23 0.9805 0 0.08594-0.01172 0.2461-0.02734 0.3359l-0.2461 1.344c-0.03906 0.2617-0.07422 0.5703-0.07422 0.75h-0.5977c0-0.1367 0.01562-0.3047 0.04297-0.4609h-0.01562c-0.3125 0.3711-0.6719 0.5312-1.176 0.5312-0.4531 0-1.031-0.2031-1.031-0.875 0-1.078 1.32-1.266 2.473-1.266 0.02344-0.1328 0.03125-0.1953 0.03125-0.2617" fill="#231f1f"/>
<path d="m116.2 22.1h-0.6797v-4.133l-0.9375 0.7852-0.4023-0.4688 1.41-1.145h0.6094v4.961" fill="#231f1f"/>
<path d="m122.3 20.28c-0.3672 0-0.6602 0.2969-0.6602 0.6602 0 0.3633 0.293 0.6602 0.6602 0.6602 0.3633 0 0.6562-0.2969 0.6562-0.6602 0-0.3633-0.293-0.6602-0.6562-0.6602zm0-0.582c0.6836 0 1.238 0.5547 1.238 1.242s-0.5547 1.238-1.238 1.238c-0.6875 0-1.242-0.5508-1.242-1.238s0.5547-1.242 1.242-1.242zm-2.797 2.621-0.4766-0.2305 3.039-5.176 0.4727 0.2305zm-0.2422-4.684c-0.3672 0-0.6602 0.293-0.6602 0.6562s0.293 0.6602 0.6602 0.6602c0.3633 0 0.6562-0.2969 0.6562-0.6602s-0.293-0.6562-0.6562-0.6562zm0-0.582c0.6836 0 1.238 0.5547 1.238 1.238 0 0.6875-0.5547 1.238-1.238 1.238-0.6875 0-1.242-0.5508-1.242-1.238 0-0.6836 0.5547-1.238 1.242-1.238" fill="#231f1f"/>
<path d="m183.6 63.25h-0.6914v-4.957h3.094v0.6094h-2.402v1.539h2.25v0.5938h-2.25v2.215" fill="#231f1f"/>
<path d="m188.9 63.25c-0.01172-0.168-0.02734-0.4062-0.02734-0.5469h-0.01172c-0.1719 0.3516-0.6055 0.6367-1.09 0.6367-0.8516 0-1.238-0.6094-1.238-1.352v-2.059h0.6602v1.836c0 0.5469 0.1445 1.023 0.7539 1.023 0.5273 0 0.8906-0.4336 0.8906-1.094v-1.766h0.6602v2.605c0 0.1758 0.003906 0.4961 0.02734 0.7148h-0.625" fill="#231f1f"/>
<path d="m191.2 59.93c0.01172 0.168 0.02734 0.4062 0.02734 0.5469h0.01953c0.1602-0.3594 0.6016-0.6367 1.078-0.6367 0.8555 0 1.242 0.6094 1.242 1.352v2.059h-0.6602v-1.844c0-0.5391-0.1445-1.016-0.7578-1.016-0.5156 0-0.8867 0.4375-0.8867 1.094v1.766h-0.6602v-2.605c0-0.1758-0.007813-0.4961-0.02734-0.7148h0.625" fill="#231f1f"/>
<path d="m196.3 62.73c0.6797 0 1.129-0.5117 1.129-1.172 0-0.6289-0.457-1.168-1.129-1.168-0.6953 0-1.102 0.5312-1.102 1.168 0 0.6094 0.4062 1.172 1.102 1.172zm-1.305 1.09c0.2891 0.3242 0.7578 0.5391 1.215 0.5391 0.875 0 1.168-0.5391 1.168-1.223v-0.4297h-0.01172c-0.2461 0.3711-0.7031 0.5742-1.172 0.5742-1.016 0-1.672-0.7578-1.672-1.707 0-0.9531 0.6484-1.73 1.664-1.73 0.4766 0 0.9453 0.2109 1.199 0.6211h0.01172v-0.5312h0.6406v3.152c0 0.9648-0.457 1.848-1.836 1.848-0.5742 0-1.211-0.2227-1.625-0.6016l0.418-0.5117" fill="#231f1f"/>
<path d="m201.5 63.25c-0.01563-0.168-0.03125-0.4062-0.03125-0.5469h-0.01172c-0.168 0.3516-0.6016 0.6367-1.086 0.6367-0.8555 0-1.242-0.6094-1.242-1.352v-2.059h0.6602v1.836c0 0.5469 0.1484 1.023 0.7578 1.023 0.5234 0 0.8906-0.4336 0.8906-1.094v-1.766h0.6562v2.605c0 0.1758 0.007812 0.4961 0.02734 0.7148h-0.6211" fill="#231f1f"/>
<path d="m205 60.77c-0.1484-0.2383-0.4336-0.4102-0.7734-0.4102-0.3008 0-0.6133 0.1172-0.6133 0.4336 0 0.2773 0.25 0.3828 0.7539 0.4961 0.6328 0.1406 1.113 0.3984 1.113 0.9805 0 0.7852-0.6484 1.07-1.32 1.07-0.5078 0-1.023-0.1953-1.34-0.5938l0.4688-0.3984c0.1758 0.2578 0.5117 0.4609 0.8828 0.4609 0.3281 0 0.6602-0.1172 0.6602-0.4844 0-0.3086-0.3008-0.418-0.8711-0.5508-0.4414-0.1055-0.9648-0.2969-0.9648-0.918 0-0.7148 0.6211-1.016 1.254-1.016 0.4688 0 0.9648 0.1875 1.203 0.5469l-0.4531 0.3828" fill="#231f1f"/>
<path d="m206.2 63.48-0.5-0.168 2.152-5.258 0.4961 0.1797-2.148 5.246" fill="#231f1f"/>
<path d="m175.8 68.24c0.4414 0 0.8242 0.1953 1.027 0.6641 0.2266-0.4258 0.6602-0.6641 1.129-0.6641 0.8555 0 1.238 0.6094 1.238 1.352v2.059h-0.6562v-1.84c0-0.5391-0.1602-1.016-0.7344-1.016-0.6055 0-0.8438 0.5469-0.8438 1.062v1.793h-0.6562v-1.973c0-0.5195-0.1758-0.8828-0.6992-0.8828-0.4844 0-0.8477 0.4336-0.8477 1.094v1.762h-0.6602v-2.605c0-0.1719-0.003906-0.4961-0.02734-0.7109h0.625c0.01172 0.168 0.02734 0.4023 0.02734 0.543h0.01953c0.168-0.3477 0.5547-0.6367 1.059-0.6367" fill="#231f1f"/>
<path d="m181.6 70.94h0.01172l0.918-2.605h0.6992l-1.609 4.102c-0.2188 0.5547-0.4961 0.8984-1.148 0.8984-0.1406 0-0.2891-0.01563-0.4336-0.05078l0.0625-0.582c0.1055 0.03516 0.2227 0.05859 0.3281 0.05859 0.3438 0 0.4766-0.1953 0.6172-0.5547l0.2109-0.5547-1.422-3.316h0.7344l1.031 2.605" fill="#231f1f"/>
<path d="m186.2 69.18c-0.1406-0.2188-0.4492-0.3789-0.7617-0.3789-0.6875 0-1.086 0.5586-1.086 1.195 0 0.6328 0.3984 1.199 1.09 1.199 0.3359 0 0.625-0.1406 0.8008-0.3633l0.4414 0.3984c-0.2812 0.3242-0.707 0.5195-1.242 0.5195-1.02 0-1.785-0.6953-1.785-1.754 0-1.043 0.7578-1.75 1.773-1.75 0.4688 0 0.9727 0.1914 1.246 0.5469l-0.4766 0.3867" fill="#231f1f"/>
<path d="m188.9 68.79c-0.707 0-1.109 0.5664-1.109 1.199 0 0.6289 0.4023 1.203 1.109 1.203 0.7148 0 1.105-0.5742 1.105-1.203 0-0.6328-0.3906-1.199-1.105-1.199zm0 2.957c-1.016 0-1.789-0.7383-1.789-1.758 0-1.023 0.7734-1.746 1.789-1.746 1.016 0 1.793 0.7227 1.793 1.746 0 1.02-0.7773 1.758-1.793 1.758" fill="#231f1f"/>
<path d="m193.4 68.79c-0.6758 0-1.121 0.5664-1.121 1.203 0 0.6406 0.4453 1.199 1.121 1.199 0.7188 0 1.105-0.582 1.105-1.203 0-0.625-0.3867-1.199-1.105-1.199zm-1.102 2.34v0.5234h-0.6367v-5.293h0.6562v2.473h0.02344c0.2227-0.3242 0.6367-0.5898 1.184-0.5898 0.9883 0 1.66 0.7656 1.66 1.746 0 0.9727-0.6523 1.758-1.676 1.758-0.4688 0-0.9375-0.2188-1.195-0.6172h-0.01562" fill="#231f1f"/>
<path d="m198 70.07c-0.6484 0-1.477 0.07031-1.477 0.6289 0 0.3945 0.3516 0.5195 0.6797 0.5195 0.6172 0 0.9609-0.4141 0.9609-0.9727v-0.1758zm0.1641-0.5664c0-0.4922-0.332-0.7305-0.8203-0.7305-0.3711 0-0.7227 0.1641-0.9453 0.3867l-0.3516-0.4219c0.3242-0.3047 0.8203-0.4961 1.359-0.4961 0.9531 0 1.387 0.5664 1.387 1.305v1.449c0 0.2227 0.01562 0.4961 0.05078 0.6562h-0.5977c-0.03516-0.1445-0.05469-0.3203-0.05469-0.4727h-0.01953c-0.2383 0.3555-0.6172 0.5586-1.113 0.5586-0.5273 0-1.207-0.2578-1.207-1.023 0-1 1.191-1.121 2.312-1.121v-0.08984" fill="#231f1f"/>
<path d="m202.2 69.18c-0.1406-0.2188-0.4453-0.3789-0.7617-0.3789-0.6875 0-1.086 0.5586-1.086 1.195 0 0.6328 0.3984 1.199 1.094 1.199 0.3359 0 0.6211-0.1406 0.7969-0.3633l0.4414 0.3984c-0.2812 0.3242-0.707 0.5195-1.238 0.5195-1.023 0-1.785-0.6953-1.785-1.754 0-1.043 0.7539-1.75 1.77-1.75 0.4688 0 0.9727 0.1914 1.246 0.5469l-0.4766 0.3867" fill="#231f1f"/>
<path d="m204.9 68.88h-0.8828v1.727c0 0.4023 0.1406 0.5625 0.4727 0.5625 0.1172 0 0.2695-0.02734 0.3828-0.08594l0.02344 0.5391c-0.1562 0.05859-0.3594 0.09375-0.5625 0.09375-0.625 0-0.9648-0.3516-0.9648-1.039v-1.797h-0.6367v-0.5391h0.6367v-0.9531h0.6484v0.9531h0.8828v0.5391" fill="#231f1f"/>
<path d="m208 69.7c-0.01562-0.5234-0.3203-0.9375-0.9297-0.9375-0.5703 0-1.004 0.4219-1.043 0.9375zm0.6602 0.4922h-2.633c0.01953 0.5664 0.4961 1.008 1.078 1.008 0.4453 0 0.7773-0.2227 0.9648-0.5039l0.4609 0.3711c-0.3555 0.4609-0.8398 0.6797-1.426 0.6797-1.008 0-1.754-0.7031-1.754-1.746 0-1.035 0.7461-1.758 1.719-1.758 0.9805 0 1.594 0.6641 1.594 1.723 0 0.07031 0 0.1484-0.003907 0.2266" fill="#231f1f"/>
<path d="m209.6 68.34h0.6211c0.01562 0.168 0.02734 0.418 0.02734 0.5586h0.02344c0.1797-0.3867 0.5664-0.6523 1.016-0.6523 0.08984 0 0.1797 0.007812 0.2578 0.02734l-0.02734 0.6094c-0.08594-0.01953-0.1953-0.03516-0.3008-0.03516-0.6328 0-0.9336 0.5117-0.9336 1.066v1.742h-0.6562v-2.605c0-0.1719-0.007813-0.4961-0.02734-0.7109" fill="#231f1f"/>
<path d="m212.8 71.65h-0.6602v-3.316h0.6602zm-0.332-4.094c-0.2344 0-0.4336-0.1914-0.4336-0.4219 0-0.2383 0.1992-0.4258 0.4336-0.4258 0.2422 0 0.4453 0.1797 0.4453 0.4258 0 0.2383-0.2031 0.4219-0.4453 0.4219" fill="#231f1f"/>
<path d="m215.9 70.07c-0.6484 0-1.477 0.07031-1.477 0.6289 0 0.3945 0.3516 0.5195 0.6797 0.5195 0.6172 0 0.957-0.4141 0.957-0.9727v-0.1758zm0.1602-0.5664c0-0.4922-0.3281-0.7305-0.8164-0.7305-0.3711 0-0.7227 0.1641-0.9453 0.3867l-0.3516-0.4219c0.3203-0.3047 0.8203-0.4961 1.359-0.4961 0.9531 0 1.387 0.5664 1.387 1.305v1.449c0 0.2227 0.01562 0.4961 0.05078 0.6562h-0.5977c-0.03516-0.1445-0.05469-0.3203-0.05469-0.4727h-0.02344c-0.2383 0.3555-0.6133 0.5586-1.113 0.5586-0.5234 0-1.203-0.2578-1.203-1.023 0-1 1.191-1.121 2.309-1.121v-0.08984" fill="#231f1f"/>
<path d="m192.9 80.05h-0.6797v-4.133l-0.9414 0.7852-0.3984-0.4688 1.41-1.145h0.6094v4.961" fill="#231f1f"/>
<path d="m199 78.24c-0.3633 0-0.6562 0.2969-0.6562 0.6602 0 0.3633 0.293 0.6602 0.6562 0.6602 0.3672 0 0.6602-0.2969 0.6602-0.6602 0-0.3633-0.293-0.6602-0.6602-0.6602zm0-0.582c0.6875 0 1.242 0.5547 1.242 1.242s-0.5547 1.238-1.242 1.238c-0.6836 0-1.238-0.5508-1.238-1.238s0.5547-1.242 1.238-1.242zm-2.793 2.621-0.4766-0.2305 3.039-5.176 0.4688 0.2305zm-0.2461-4.684c-0.3633 0-0.6562 0.293-0.6562 0.6562s0.293 0.6602 0.6562 0.6602c0.3672 0 0.6602-0.2969 0.6602-0.6602s-0.293-0.6562-0.6602-0.6562zm0-0.582c0.6875 0 1.242 0.5547 1.242 1.238 0 0.6875-0.5547 1.238-1.242 1.238-0.6836 0-1.238-0.5508-1.238-1.238 0-0.6836 0.5547-1.238 1.238-1.238" fill="#231f1f"/>
<path d="m10.3 74.53c-0.1797-0.2734-0.5156-0.4492-0.9141-0.4492-0.4648 0-1.066 0.2578-1.066 0.8828 0 0.4258 0.3359 0.6172 0.7969 0.793 0.7227 0.2656 1.305 0.6211 1.305 1.379 0 0.9102-0.7227 1.582-1.855 1.582-0.6328 0-1.297-0.2539-1.617-0.7695l0.5742-0.3867c0.1797 0.3242 0.5859 0.5742 1.07 0.5742 0.5664 0 1.105-0.3164 1.105-0.9258 0-0.5117-0.4453-0.7188-0.9648-0.9102-0.582-0.2148-1.113-0.5312-1.113-1.273 0-0.9258 0.7773-1.52 1.828-1.52 0.5742 0 1.121 0.2305 1.387 0.6172l-0.5352 0.4062" fill="#231f1f"/>
<path d="m13.08 75.8h-0.8203l-0.3164 1.746c-0.01172 0.07422-0.01953 0.1523-0.01953 0.207 0 0.2812 0.1602 0.3594 0.3984 0.3594 0.125 0 0.2734-0.03516 0.3594-0.07812l-0.05078 0.5195c-0.1328 0.05469-0.3359 0.08984-0.5273 0.08984-0.5078 0-0.8398-0.2227-0.8398-0.7148 0-0.09766 0.007812-0.2148 0.03125-0.3281l0.3203-1.801h-0.6289l0.09766-0.5312h0.6211l0.1641-0.9531h0.6445l-0.168 0.9531h0.832l-0.09766 0.5312" fill="#231f1f"/>
<path d="m13.89 75.27h0.6133c-0.01172 0.1328-0.04688 0.4141-0.07031 0.5586h0.01562c0.2305-0.3828 0.5859-0.6484 1.035-0.6484 0.09375 0 0.1836 0.003906 0.2617 0.02734l-0.1133 0.6094c-0.08594-0.02344-0.1875-0.03516-0.2891-0.03516-0.6367 0-0.9648 0.5078-1.062 1.062l-0.3086 1.746h-0.6445l0.457-2.602c0.03516-0.1719 0.08203-0.4961 0.1055-0.7188" fill="#231f1f"/>
<path d="m18.36 76.65c0.007813-0.0625 0.01172-0.1484 0.01172-0.2109 0-0.4258-0.293-0.75-0.8164-0.75-0.6328 0-1.066 0.4844-1.18 0.9609zm-2.055 0.4766c-0.003906 0.04297-0.003906 0.07812-0.003906 0.1133 0 0.5234 0.418 0.9023 0.9648 0.9023 0.4688 0 0.8125-0.2188 1.043-0.5039l0.3867 0.3633c-0.3945 0.4492-0.9102 0.6797-1.492 0.6797-0.8828 0-1.543-0.5391-1.543-1.473 0-1.105 0.8359-2.027 1.941-2.027 0.8398 0 1.379 0.4883 1.379 1.312 0 0.1367-0.01953 0.4219-0.07031 0.6328h-2.605" fill="#231f1f"/>
<path d="m21.81 75.72c-0.7344 0-1.316 0.668-1.316 1.457 0 0.5625 0.3789 0.9688 0.9609 0.9688 0.7695 0 1.281-0.6523 1.281-1.465 0-0.5391-0.3281-0.9609-0.9258-0.9609zm0.1484-0.5391c0.875 0 1.449 0.582 1.449 1.438 0 1.133-0.7969 2.059-1.891 2.059-0.5391 0-0.9531-0.2383-1.156-0.6289h-0.01562l-0.3828 2.219h-0.6523l0.8828-5h0.6289l-0.08984 0.5312h0.01562c0.2383-0.3555 0.6992-0.6172 1.211-0.6172" fill="#231f1f"/>
<path d="m26.04 75.8h-0.8164l-0.3164 1.746c-0.01172 0.07422-0.01953 0.1523-0.01953 0.207 0 0.2812 0.1602 0.3594 0.3984 0.3594 0.125 0 0.2734-0.03516 0.3555-0.07812l-0.04688 0.5195c-0.1328 0.05469-0.3359 0.08984-0.5273 0.08984-0.5117 0-0.8398-0.2227-0.8398-0.7148 0-0.09766 0.007813-0.2148 0.02734-0.3281l0.3242-1.801h-0.6289l0.09375-0.5312h0.625l0.1602-0.9531h0.6445l-0.168 0.9531h0.8359l-0.1016 0.5312" fill="#231f1f"/>
<path d="m28.27 75.72c-0.7617 0-1.293 0.6758-1.293 1.457 0 0.5508 0.3555 0.957 0.9492 0.957 0.7656 0 1.297-0.6719 1.297-1.457 0-0.5469-0.3633-0.957-0.9531-0.957zm-1.953 1.512c0-1.102 0.8047-2.051 1.996-2.051 0.918 0 1.57 0.5781 1.57 1.434 0 1.121-0.8008 2.066-1.988 2.066-0.9141 0-1.578-0.5938-1.578-1.449" fill="#231f1f"/>
<path d="m33.24 76.12c-0.1133-0.2266-0.3984-0.3984-0.7305-0.3984-0.7617 0-1.316 0.6641-1.316 1.449 0 0.5312 0.3242 0.9648 0.9531 0.9648 0.4141 0 0.6953-0.168 0.9102-0.3984l0.3945 0.3633c-0.3516 0.3516-0.7812 0.582-1.348 0.582-0.9492 0-1.566-0.582-1.566-1.438 0-1.105 0.7891-2.062 2.008-2.062 0.4922 0 0.9766 0.1719 1.199 0.5586l-0.5039 0.3789" fill="#231f1f"/>
<path d="m35.94 75.72c-0.7617 0-1.293 0.6758-1.293 1.457 0 0.5508 0.3555 0.957 0.9492 0.957 0.7656 0 1.297-0.6719 1.297-1.457 0-0.5469-0.3633-0.957-0.9531-0.957zm-1.953 1.512c0-1.102 0.8047-2.051 1.996-2.051 0.918 0 1.57 0.5781 1.57 1.434 0 1.121-0.8008 2.066-1.992 2.066-0.9102 0-1.574-0.5938-1.574-1.449" fill="#231f1f"/>
<path d="m40.91 76.12c-0.1133-0.2266-0.3984-0.3984-0.7305-0.3984-0.7617 0-1.316 0.6641-1.316 1.449 0 0.5312 0.3242 0.9648 0.9531 0.9648 0.4141 0 0.6953-0.168 0.9102-0.3984l0.3906 0.3633c-0.3477 0.3516-0.7734 0.582-1.344 0.582-0.9492 0-1.566-0.582-1.566-1.438 0-1.105 0.7891-2.062 2.008-2.062 0.4922 0 0.9766 0.1719 1.199 0.5586l-0.5039 0.3789" fill="#231f1f"/>
<path d="m44.38 76.12c-0.1133-0.2266-0.4023-0.3984-0.7305-0.3984-0.7617 0-1.316 0.6641-1.316 1.449 0 0.5312 0.3203 0.9648 0.9531 0.9648 0.4141 0 0.6914-0.168 0.9102-0.3984l0.3906 0.3633c-0.3477 0.3516-0.7773 0.582-1.344 0.582-0.9531 0-1.57-0.582-1.57-1.438 0-1.105 0.793-2.062 2.012-2.062 0.4883 0 0.9727 0.1719 1.199 0.5586l-0.5039 0.3789" fill="#231f1f"/>
<path d="m47.38 78.59c0.01563-0.1367 0.05078-0.3945 0.07031-0.5391h-0.01172c-0.2383 0.375-0.6406 0.6289-1.109 0.6289-0.7188 0-1.113-0.4336-1.113-1.031 0-0.1016 0.01562-0.2148 0.03516-0.3281l0.3633-2.051h0.6445l-0.3203 1.828c-0.02344 0.1328-0.03516 0.2578-0.03516 0.3789 0 0.375 0.1602 0.6484 0.6367 0.6484 0.5195 0 0.9453-0.4336 1.059-1.09l0.3125-1.766h0.6445l-0.4531 2.598c-0.03516 0.1758-0.08594 0.4961-0.1055 0.7227h-0.6172" fill="#231f1f"/>
<path d="m51.41 76.07c-0.125-0.2148-0.3477-0.3711-0.6992-0.3711-0.3086 0-0.6875 0.1211-0.6875 0.4609 0 0.2812 0.2188 0.3672 0.5977 0.4727 0.6289 0.1797 0.9883 0.4453 0.9883 0.9844 0 0.7305-0.6875 1.082-1.367 1.082-0.6289 0-1.105-0.2539-1.359-0.6523l0.5273-0.3438c0.1445 0.2734 0.4609 0.4531 0.832 0.4531 0.3906 0 0.7266-0.1602 0.7266-0.4883 0-0.2852-0.2305-0.4062-0.6836-0.5547-0.5195-0.1602-0.8906-0.3633-0.8906-0.8945 0-0.6602 0.6523-1.035 1.367-1.035 0.5117 0 0.9531 0.2031 1.152 0.5586l-0.5039 0.3281" fill="#231f1f"/>
<path d="m11.67 84.12c-0.7383 0-1.316 0.6641-1.316 1.457 0 0.5586 0.375 0.9648 0.957 0.9648 0.7734 0 1.281-0.6523 1.281-1.465 0-0.5391-0.3281-0.957-0.9219-0.957zm0.1445-0.5391c0.8789 0 1.453 0.5781 1.453 1.434 0 1.137-0.8008 2.059-1.895 2.059-0.5391 0-0.9492-0.2383-1.152-0.6289h-0.01562l-0.3867 2.219h-0.6484l0.8789-5h0.6328l-0.08984 0.5312h0.01172c0.2383-0.3555 0.6992-0.6133 1.211-0.6133" fill="#231f1f"/>
<path d="m15.06 83.67c-0.01562 0.1328-0.04297 0.3945-0.07031 0.5391h0.01172c0.2461-0.3789 0.6406-0.6289 1.109-0.6289 0.7266 0 1.113 0.4336 1.113 1.023 0 0.1094-0.007812 0.2148-0.02734 0.3359l-0.3672 2.051h-0.6523l0.3242-1.836c0.02734-0.125 0.04297-0.25 0.04297-0.3711 0-0.3789-0.1602-0.6484-0.6445-0.6484-0.5195 0-0.9375 0.4336-1.059 1.09l-0.3086 1.766h-0.6484l0.4531-2.598c0.03516-0.1758 0.08203-0.5 0.1055-0.7227h0.6172" fill="#231f1f"/>
<path d="m20.66 85.05c0.007813-0.0625 0.01562-0.1445 0.01562-0.207 0-0.4297-0.293-0.75-0.8203-0.75-0.6289 0-1.062 0.4805-1.176 0.957zm-2.051 0.4766c-0.007813 0.04297-0.007813 0.07812-0.007813 0.1133 0 0.5234 0.4219 0.9023 0.9688 0.9023 0.4688 0 0.8125-0.2148 1.043-0.5039l0.3828 0.3633c-0.3906 0.4492-0.9102 0.6797-1.488 0.6797-0.8828 0-1.543-0.5391-1.543-1.469 0-1.105 0.832-2.031 1.941-2.031 0.8398 0 1.379 0.4883 1.379 1.316 0 0.1328-0.01953 0.4219-0.07031 0.6289h-2.605" fill="#231f1f"/>
<path d="m24.18 86.99c0.01562-0.1328 0.04688-0.3906 0.07031-0.5391h-0.01562c-0.2383 0.3789-0.6367 0.6289-1.105 0.6289-0.7227 0-1.113-0.4336-1.113-1.027 0-0.1055 0.01562-0.2188 0.03516-0.3281l0.3633-2.055h0.6445l-0.3203 1.828c-0.02344 0.1328-0.03516 0.2578-0.03516 0.3789 0 0.3789 0.1602 0.6523 0.6367 0.6523 0.5156 0 0.9453-0.4336 1.059-1.094l0.3125-1.766h0.6445l-0.4531 2.598c-0.03516 0.1758-0.08594 0.5-0.1055 0.7227h-0.6172" fill="#231f1f"/>
<path d="m31.45 84.6c0 0.1094-0.01562 0.2148-0.03906 0.3359l-0.3633 2.051h-0.6445l0.3242-1.836c0.01953-0.125 0.03516-0.25 0.03516-0.3711 0-0.3789-0.1641-0.6562-0.6367-0.6562-0.6094 0-0.9062 0.5508-0.9961 1.07l-0.3164 1.793h-0.6484l0.3477-1.969c0.02344-0.1133 0.03516-0.2148 0.03516-0.3086 0-0.3477-0.168-0.5859-0.582-0.5859-0.4805 0-0.9102 0.4414-1.027 1.098l-0.3086 1.766h-0.6523l0.457-2.598c0.03516-0.1758 0.08203-0.5 0.1055-0.7227h0.6133c-0.01172 0.1328-0.04688 0.3984-0.06641 0.5391h0.01172c0.2305-0.3555 0.5977-0.6289 1.086-0.6289 0.457 0 0.8555 0.2109 0.9609 0.6797 0.2695-0.4297 0.6719-0.6797 1.176-0.6797 0.7422 0 1.129 0.4336 1.129 1.023" fill="#231f1f"/>
<path d="m34.13 84.12c-0.7617 0-1.293 0.6797-1.293 1.457 0 0.5547 0.3555 0.957 0.9492 0.957 0.7656 0 1.297-0.6719 1.297-1.457 0-0.543-0.3633-0.957-0.9531-0.957zm-1.953 1.512c0-1.098 0.8047-2.051 1.996-2.051 0.918 0 1.566 0.582 1.566 1.434 0 1.121-0.7969 2.066-1.988 2.066-0.9102 0-1.574-0.5938-1.574-1.449" fill="#231f1f"/>
<path d="m37.54 83.67c-0.01562 0.1328-0.04297 0.3945-0.07031 0.5391h0.01172c0.2461-0.3789 0.6367-0.6289 1.109-0.6289 0.7266 0 1.113 0.4336 1.113 1.023 0 0.1094-0.007813 0.2148-0.03125 0.3359l-0.3633 2.051h-0.6523l0.3242-1.836c0.02734-0.125 0.04297-0.25 0.04297-0.3711 0-0.3789-0.1641-0.6484-0.6445-0.6484-0.5195 0-0.9375 0.4336-1.059 1.09l-0.3086 1.766h-0.6523l0.457-2.598c0.03516-0.1758 0.08594-0.5 0.1055-0.7227h0.6172" fill="#231f1f"/>
<path d="m41.54 82.88c-0.2227 0-0.4141-0.1445-0.4141-0.3984 0-0.25 0.2031-0.4336 0.4297-0.4336 0.2227 0 0.3984 0.1602 0.3984 0.4062 0 0.2305-0.1836 0.4258-0.4141 0.4258zm-0.4531 4.105h-0.6484l0.582-3.32h0.6523l-0.5859 3.32" fill="#231f1f"/>
<path d="m44.46 85.39c-0.7266 0-1.652 0.09766-1.652 0.7031 0 0.3633 0.3086 0.4688 0.6094 0.4688 0.5898 0 1.008-0.4219 1.098-0.9258l0.05078-0.2461zm0.2031-0.7344c0-0.3906-0.2539-0.5547-0.6992-0.5547-0.3516 0-0.7383 0.1641-0.9961 0.3672l-0.2656-0.4375c0.3516-0.2773 0.8633-0.4531 1.352-0.4531 0.6289 0 1.234 0.2656 1.234 0.9805 0 0.08203-0.01562 0.2461-0.02734 0.3359l-0.2461 1.344c-0.04297 0.2578-0.07812 0.5664-0.07812 0.75h-0.5938c0-0.1406 0.01172-0.3086 0.03906-0.4609h-0.01172c-0.3164 0.3711-0.6719 0.5312-1.176 0.5312-0.457 0-1.031-0.2031-1.031-0.875 0-1.078 1.316-1.27 2.473-1.27 0.01953-0.1328 0.02734-0.1953 0.02734-0.2578" fill="#231f1f"/>
<path d="m48.71 85.05c0.007812-0.0625 0.01172-0.1445 0.01172-0.207 0-0.4297-0.293-0.75-0.8164-0.75-0.6328 0-1.066 0.4805-1.18 0.957zm-2.051 0.4766c-0.007812 0.04297-0.007812 0.07812-0.007812 0.1133 0 0.5234 0.418 0.9023 0.9648 0.9023 0.4688 0 0.8125-0.2148 1.043-0.5039l0.3867 0.3633c-0.3906 0.4492-0.9102 0.6797-1.492 0.6797-0.8828 0-1.539-0.5391-1.539-1.469 0-1.105 0.832-2.031 1.938-2.031 0.8398 0 1.383 0.4883 1.383 1.316 0 0.1328-0.02344 0.4219-0.07031 0.6289h-2.605" fill="#231f1f"/>
<path d="m27.82 91.03h-2.047l-0.03906 1.305c0.1797-0.06641 0.4336-0.09375 0.6367-0.09375 0.9531 0 1.66 0.6055 1.66 1.562 0 1.039-0.7422 1.711-1.73 1.711-0.7695 0-1.316-0.3945-1.582-0.9961l0.6133-0.2461c0.1562 0.4023 0.5273 0.668 0.9688 0.668 0.582 0 1.035-0.4297 1.035-1.066 0-0.75-0.5469-1.086-1.16-1.086-0.375 0-0.793 0.1133-1.102 0.2734l0.07031-2.633h2.676v0.6016" fill="#231f1f"/>
<path d="m33.12 93.57c-0.3672 0-0.6602 0.293-0.6602 0.6602 0 0.3633 0.293 0.6562 0.6602 0.6562 0.3633 0 0.6562-0.293 0.6562-0.6562 0-0.3672-0.293-0.6602-0.6562-0.6602zm0-0.582c0.6836 0 1.238 0.5547 1.238 1.242 0 0.6836-0.5547 1.238-1.238 1.238-0.6875 0-1.242-0.5547-1.242-1.238 0-0.6875 0.5547-1.242 1.242-1.242zm-2.797 2.621-0.4766-0.2305 3.043-5.176 0.4688 0.2305zm-0.2422-4.688c-0.3672 0-0.6602 0.2969-0.6602 0.6602 0 0.3633 0.293 0.6562 0.6602 0.6562 0.3633 0 0.6562-0.293 0.6562-0.6562 0-0.3633-0.293-0.6602-0.6562-0.6602zm0-0.582c0.6836 0 1.238 0.5547 1.238 1.242 0 0.6836-0.5547 1.238-1.238 1.238-0.6875 0-1.242-0.5547-1.242-1.238 0-0.6875 0.5547-1.242 1.242-1.242" fill="#231f1f"/>
<path d="m2.262 105.9h0.01953l1.492-4.062h0.75l-1.945 4.957h-0.6445l-1.934-4.957h0.7695l1.492 4.062" fill="#231f1f"/>
<path d="m5.613 106.8h-0.6562v-3.316h0.6562zm-0.3281-4.094c-0.2383 0-0.4336-0.1914-0.4336-0.4219 0-0.2383 0.1953-0.4258 0.4336-0.4258 0.2383 0 0.4414 0.1797 0.4414 0.4258 0 0.2383-0.2031 0.4219-0.4414 0.4219" fill="#231f1f"/>
<path d="m6.734 103.5h0.625c0.01172 0.168 0.02734 0.418 0.02734 0.5586h0.01953c0.1836-0.3828 0.5664-0.6523 1.016-0.6523 0.08984 0 0.1836 0.007812 0.2578 0.02734l-0.02734 0.6133c-0.08203-0.02344-0.1953-0.03516-0.3008-0.03516-0.6289 0-0.9297 0.5078-0.9297 1.062v1.742h-0.6602v-2.602c0-0.1758-0.003907-0.5-0.02734-0.7148" fill="#231f1f"/>
<path d="m11.64 106.8c-0.01562-0.168-0.03125-0.4023-0.03125-0.543h-0.01172c-0.168 0.3477-0.6016 0.6367-1.086 0.6367-0.8555 0-1.238-0.6094-1.238-1.352v-2.059h0.6562v1.832c0 0.5469 0.1484 1.023 0.7578 1.023 0.5234 0 0.8906-0.4336 0.8906-1.094v-1.762h0.6562v2.605c0 0.1719 0.007812 0.4961 0.02734 0.7109h-0.6211" fill="#231f1f"/>
<path d="m15.16 104.4c-0.1484-0.2383-0.4336-0.4141-0.7695-0.4141-0.3008 0-0.6172 0.1211-0.6172 0.4336 0 0.2812 0.25 0.3867 0.7539 0.4961 0.6328 0.1406 1.117 0.4023 1.117 0.9844 0 0.7812-0.6523 1.07-1.324 1.07-0.5039 0-1.023-0.1953-1.34-0.5977l0.4688-0.3984c0.1758 0.2617 0.5117 0.4648 0.8828 0.4648 0.3281 0 0.6602-0.1211 0.6602-0.4844 0-0.3086-0.3008-0.4219-0.8672-0.5547-0.4453-0.1055-0.9688-0.293-0.9688-0.918 0-0.7148 0.625-1.016 1.254-1.016 0.4688 0 0.9688 0.1914 1.203 0.5469l-0.4531 0.3867" fill="#231f1f"/>
<path d="m19.96 104c-0.6719 0-1.121 0.5664-1.121 1.207 0 0.6367 0.4492 1.195 1.121 1.195 0.7227 0 1.105-0.582 1.105-1.203 0-0.625-0.3828-1.199-1.105-1.199zm-1.078 4.547h-0.6602v-5h0.6445v0.5156h0.02344c0.2148-0.3477 0.6484-0.6094 1.195-0.6094 0.9883 0 1.66 0.7656 1.66 1.746 0 0.9727-0.6484 1.758-1.672 1.758-0.4688 0-0.9258-0.2188-1.172-0.5898h-0.01953v2.18" fill="#231f1f"/>
<path d="m23.34 106.8h-0.6602v-5.293h0.6602v5.293" fill="#231f1f"/>
<path d="m26.82 106.8c-0.01172-0.168-0.02734-0.4023-0.02734-0.543h-0.01172c-0.1719 0.3477-0.6055 0.6367-1.086 0.6367-0.8555 0-1.242-0.6094-1.242-1.352v-2.059h0.6602v1.832c0 0.5469 0.1484 1.023 0.7539 1.023 0.5273 0 0.8906-0.4336 0.8906-1.094v-1.762h0.6602v2.605c0 0.1719 0.003906 0.4961 0.02734 0.7109h-0.625" fill="#231f1f"/>
<path d="m30.35 104.4c-0.1445-0.2383-0.4336-0.4141-0.7695-0.4141-0.3008 0-0.6172 0.1211-0.6172 0.4336 0 0.2812 0.2539 0.3867 0.7578 0.4961 0.6289 0.1406 1.113 0.4023 1.113 0.9844 0 0.7812-0.6523 1.07-1.324 1.07-0.5039 0-1.023-0.1953-1.336-0.5977l0.4688-0.3984c0.1758 0.2617 0.5117 0.4648 0.8828 0.4648 0.3281 0 0.6562-0.1211 0.6562-0.4844 0-0.3086-0.3008-0.4219-0.8672-0.5547-0.4414-0.1055-0.9648-0.293-0.9648-0.918 0-0.7148 0.6211-1.016 1.25-1.016 0.4727 0 0.9688 0.1914 1.207 0.5469l-0.457 0.3867" fill="#231f1f"/>
<path d="m35.17 104c-0.6719 0-1.121 0.5664-1.121 1.207 0 0.6367 0.4492 1.195 1.121 1.195 0.7227 0 1.109-0.582 1.109-1.203 0-0.625-0.3867-1.199-1.109-1.199zm-1.098 2.34v0.5234h-0.6367v-5.293h0.6562v2.473h0.01953c0.2266-0.3203 0.6406-0.5898 1.184-0.5898 0.9883 0 1.66 0.7656 1.66 1.746 0 0.9727-0.6484 1.758-1.672 1.758-0.4688 0-0.9375-0.2188-1.199-0.6172h-0.01172" fill="#231f1f"/>
<path d="m39.77 105.2c-0.6484 0-1.477 0.07031-1.477 0.6328 0 0.3906 0.3516 0.5156 0.6797 0.5156 0.6172 0 0.9609-0.4141 0.9609-0.9727v-0.1758zm0.1641-0.5664c0-0.4883-0.332-0.7266-0.8203-0.7266-0.3711 0-0.7227 0.1602-0.9453 0.3828l-0.3516-0.418c0.3242-0.3086 0.8203-0.5 1.359-0.5 0.9531 0 1.387 0.5664 1.387 1.305v1.449c0 0.2227 0.01562 0.4961 0.05078 0.6562h-0.5977c-0.03516-0.1445-0.05469-0.3203-0.05469-0.4727h-0.01953c-0.2383 0.3555-0.6172 0.5586-1.117 0.5586-0.5234 0-1.203-0.2578-1.203-1.023 0-1 1.191-1.121 2.312-1.121v-0.08984" fill="#231f1f"/>
<path d="m43.99 104.4c-0.1406-0.2188-0.4492-0.3789-0.7617-0.3789-0.6875 0-1.086 0.5586-1.086 1.199 0 0.6289 0.3984 1.195 1.094 1.195 0.3359 0 0.6211-0.1406 0.7969-0.3633l0.4414 0.3984c-0.2812 0.3242-0.707 0.5195-1.238 0.5195-1.023 0-1.789-0.6953-1.789-1.75 0-1.043 0.7578-1.754 1.773-1.754 0.4688 0 0.9727 0.1914 1.246 0.5469l-0.4766 0.3867" fill="#231f1f"/>
<path d="m46.75 104.1h-0.8828v1.727c0 0.4023 0.1406 0.5625 0.4688 0.5625 0.1211 0 0.2734-0.02734 0.3867-0.08203l0.01953 0.5391c-0.1523 0.05469-0.3555 0.08984-0.5586 0.08984-0.625 0-0.9688-0.3516-0.9688-1.035v-1.801h-0.6367v-0.5391h0.6367v-0.9531h0.6523v0.9531h0.8828v0.5391" fill="#231f1f"/>
<path d="m49.86 104.9c-0.01562-0.5234-0.3242-0.9375-0.9336-0.9375-0.5664 0-1 0.4219-1.043 0.9375zm0.6562 0.4922h-2.633c0.02344 0.5664 0.5 1.008 1.078 1.008 0.4492 0 0.7773-0.2227 0.9688-0.5039l0.4609 0.3711c-0.3555 0.4609-0.8398 0.6797-1.43 0.6797-1.008 0-1.75-0.6992-1.75-1.746 0-1.035 0.7422-1.758 1.715-1.758 0.9844 0 1.598 0.668 1.598 1.723 0 0.07031 0 0.1484-0.007812 0.2266" fill="#231f1f"/>
<path d="m51.41 103.5h0.625c0.01172 0.168 0.02734 0.418 0.02734 0.5586h0.01953c0.1836-0.3828 0.5703-0.6523 1.016-0.6523 0.09375 0 0.1836 0.007812 0.2617 0.02734l-0.02734 0.6133c-0.08594-0.02344-0.1992-0.03516-0.3008-0.03516-0.6328 0-0.9336 0.5078-0.9336 1.062v1.742h-0.6602v-2.602c0-0.1758-0.003906-0.5-0.02734-0.7148" fill="#231f1f"/>
<path d="m54.64 106.8h-0.6602v-3.316h0.6602zm-0.332-4.094c-0.2383 0-0.4336-0.1914-0.4336-0.4219 0-0.2383 0.1953-0.4258 0.4336-0.4258 0.2383 0 0.4414 0.1797 0.4414 0.4258 0 0.2383-0.2031 0.4219-0.4414 0.4219" fill="#231f1f"/>
<path d="m57.69 105.2c-0.6523 0-1.477 0.07031-1.477 0.6328 0 0.3906 0.3477 0.5156 0.6797 0.5156 0.6133 0 0.957-0.4141 0.957-0.9727v-0.1758zm0.1602-0.5664c0-0.4883-0.3281-0.7266-0.8164-0.7266-0.375 0-0.7227 0.1602-0.9453 0.3828l-0.3516-0.418c0.3203-0.3086 0.8203-0.5 1.359-0.5 0.9492 0 1.387 0.5664 1.387 1.305v1.449c0 0.2227 0.01172 0.4961 0.04688 0.6562h-0.5938c-0.03516-0.1445-0.05469-0.3203-0.05469-0.4727h-0.02344c-0.2383 0.3555-0.6172 0.5586-1.113 0.5586-0.5234 0-1.203-0.2578-1.203-1.023 0-1 1.188-1.121 2.309-1.121v-0.08984" fill="#231f1f"/>
<path d="m25.88 112.4h0.2188c0.5664 0 1.105-0.1914 1.105-0.8281 0-0.4961-0.4062-0.8203-0.875-0.8203-0.4141 0-0.7227 0.2344-0.8672 0.6094l-0.6172-0.2148c0.2461-0.5977 0.8125-0.9609 1.512-0.9609 0.8281 0 1.527 0.4688 1.527 1.344 0 0.5547-0.3633 0.9961-0.875 1.129v0.01562c0.582 0.1172 1.008 0.5742 1.008 1.211 0 0.9883-0.8125 1.512-1.66 1.512-0.7852 0-1.414-0.3477-1.688-1.09l0.6289-0.2109c0.1484 0.4258 0.5273 0.7266 1.047 0.7266 0.4961 0 0.9922-0.3125 0.9922-0.9453 0-0.6914-0.6562-0.918-1.246-0.918h-0.2109v-0.5586" fill="#231f1f"/>
<path d="m33.12 113.4c-0.3672 0-0.6602 0.2969-0.6602 0.6602s0.293 0.6602 0.6602 0.6602c0.3633 0 0.6562-0.2969 0.6562-0.6602s-0.293-0.6602-0.6562-0.6602zm0-0.5781c0.6836 0 1.238 0.5508 1.238 1.238s-0.5547 1.238-1.238 1.238c-0.6875 0-1.242-0.5508-1.242-1.238s0.5547-1.238 1.242-1.238zm-2.797 2.617-0.4766-0.2305 3.043-5.176 0.4688 0.2305zm-0.2422-4.684c-0.3672 0-0.6602 0.293-0.6602 0.6562s0.293 0.6602 0.6602 0.6602c0.3633 0 0.6562-0.2969 0.6562-0.6602s-0.293-0.6562-0.6562-0.6562zm0-0.582c0.6836 0 1.238 0.5547 1.238 1.238 0 0.6875-0.5547 1.242-1.238 1.242-0.6875 0-1.242-0.5547-1.242-1.242 0-0.6836 0.5547-1.238 1.242-1.238" fill="#231f1f"/>
<path transform="matrix(.1 0 0 -.1 0 207.5)" d="m532.1 1588 510.2-342.7" fill="none" stroke="#231f1f" stroke-miterlimit="10" stroke-width="5"/>
<path transform="matrix(.1 0 0 -.1 0 207.5)" d="m532.1 1245 394-63.12" fill="none" stroke="#231f1f" stroke-miterlimit="10" stroke-width="5"/>
<path transform="matrix(.1 0 0 -.1 0 207.5)" d="m625.3 1018 176.5 52.34" fill="none" stroke="#231f1f" stroke-miterlimit="10" stroke-width="5"/>
<path transform="matrix(.1 0 0 -.1 0 207.5)" d="m771.1 1811 345.1-539.6" fill="none" stroke="#231f1f" stroke-miterlimit="10" stroke-width="5"/>
<path transform="matrix(.1 0 0 -.1 0 207.5)" d="m1176 1811 0.8594-524.8" fill="none" stroke="#231f1f" stroke-miterlimit="10" stroke-width="5"/>
<path transform="matrix(.1 0 0 -.1 0 207.5)" d="m1693 1368-409.3-71.45" fill="none" stroke="#231f1f" stroke-miterlimit="10" stroke-width="5"/>
<path d="m75.7 144.4h0.01953l1.492-4.059h0.75l-1.945 4.957h-0.6445l-1.934-4.957h0.7695l1.492 4.059" fill="#231f1f"/>
<path d="m79.05 145.3h-0.6562v-3.32h0.6562zm-0.3281-4.098c-0.2383 0-0.4336-0.1875-0.4336-0.4219s0.1953-0.4258 0.4336-0.4258c0.2383 0 0.4414 0.1836 0.4414 0.4258 0 0.2383-0.2031 0.4219-0.4414 0.4219" fill="#231f1f"/>
<path d="m80.17 142h0.6211c0.01562 0.168 0.03125 0.4219 0.03125 0.5625h0.01953c0.1836-0.3867 0.5664-0.6523 1.016-0.6523 0.08984 0 0.1797 0.003906 0.2578 0.02734l-0.02734 0.6094c-0.08203-0.01953-0.1953-0.03516-0.3008-0.03516-0.6289 0-0.9336 0.5117-0.9336 1.062v1.746h-0.6562v-2.605c0-0.1758-0.007813-0.4961-0.02734-0.7148" fill="#231f1f"/>
<path d="m85.07 145.3c-0.01562-0.168-0.03125-0.4062-0.03125-0.5469h-0.01172c-0.168 0.3516-0.6055 0.6367-1.086 0.6367-0.8555 0-1.242-0.6094-1.242-1.352v-2.059h0.6602v1.836c0 0.5469 0.1484 1.023 0.7578 1.023 0.5234 0 0.8867-0.4375 0.8867-1.094v-1.766h0.6602v2.605c0 0.1758 0.007812 0.4961 0.02734 0.7148h-0.6211" fill="#231f1f"/>
<path d="m88.6 142.9c-0.1484-0.2383-0.4375-0.4141-0.7734-0.4141-0.3008 0-0.6133 0.1211-0.6133 0.4375 0 0.2773 0.25 0.3828 0.7539 0.4961 0.6328 0.1406 1.113 0.3984 1.113 0.9805 0 0.7852-0.6484 1.07-1.32 1.07-0.5078 0-1.023-0.1953-1.34-0.5938l0.4688-0.3984c0.1758 0.2578 0.5117 0.4609 0.8828 0.4609 0.3281 0 0.6602-0.1211 0.6602-0.4844 0-0.3086-0.3008-0.418-0.8711-0.5547-0.4414-0.1016-0.9648-0.293-0.9648-0.9141 0-0.7148 0.6211-1.016 1.254-1.016 0.4688 0 0.9648 0.1875 1.203 0.543l-0.4531 0.3867" fill="#231f1f"/>
<path d="m77.84 153.7h-3.234v-0.6484l1.977-1.961c0.3008-0.3086 0.543-0.6328 0.543-1.055 0-0.5156-0.3906-0.8516-0.8828-0.8516-0.5039 0-0.8438 0.3633-0.9297 0.8594l-0.6641-0.1094c0.1172-0.7578 0.7539-1.32 1.602-1.32 0.8281 0 1.57 0.4844 1.57 1.41 0 0.6367-0.3633 1.07-0.7969 1.5l-1.613 1.566h2.43v0.6094" fill="#231f1f"/>
<path d="m79.84 150.9h0.2188c0.5664 0 1.105-0.1875 1.105-0.8242 0-0.5-0.4062-0.8203-0.875-0.8203-0.4102 0-0.7188 0.2305-0.8672 0.6094l-0.6172-0.2188c0.2461-0.5938 0.8125-0.9609 1.516-0.9609 0.8242 0 1.523 0.4727 1.523 1.348 0 0.5547-0.3633 0.9961-0.875 1.129v0.01172c0.582 0.1211 1.008 0.5742 1.008 1.211 0 0.9883-0.8125 1.512-1.656 1.512-0.7852 0-1.418-0.3477-1.691-1.09l0.6328-0.2109c0.1445 0.4258 0.5234 0.7305 1.043 0.7305 0.4961 0 0.9922-0.3164 0.9922-0.9453 0-0.6953-0.6562-0.918-1.246-0.918h-0.2109v-0.5625" fill="#231f1f"/>
<path d="m87.09 151.9c-0.3672 0-0.6602 0.293-0.6602 0.6562 0 0.3672 0.293 0.6602 0.6602 0.6602 0.3633 0 0.6562-0.293 0.6562-0.6602 0-0.3633-0.293-0.6562-0.6562-0.6562zm0-0.582c0.6875 0 1.238 0.5547 1.238 1.238 0 0.6875-0.5508 1.242-1.238 1.242s-1.242-0.5547-1.242-1.242c0-0.6836 0.5547-1.238 1.242-1.238zm-2.797 2.621-0.4727-0.2344 3.039-5.172 0.4688 0.2305zm-0.2422-4.688c-0.3672 0-0.6602 0.293-0.6602 0.6602 0 0.3633 0.293 0.6562 0.6602 0.6562 0.3633 0 0.6562-0.293 0.6562-0.6562 0-0.3672-0.293-0.6602-0.6562-0.6602zm0-0.582c0.6836 0 1.238 0.5547 1.238 1.242 0 0.6836-0.5547 1.238-1.238 1.238-0.6875 0-1.242-0.5547-1.242-1.238 0-0.6875 0.5547-1.242 1.242-1.242" fill="#231f1f"/>
<path d="m166.5 158.6h0.01172v-3.965h0.6953v4.957h-0.875l-2.621-4.047h-0.01562v4.047h-0.6914v-4.957h0.9023l2.594 3.965" fill="#231f1f"/>
<path d="m169.9 156.8c-0.707 0-1.105 0.5664-1.105 1.199 0 0.6289 0.3984 1.203 1.105 1.203 0.7148 0 1.105-0.5742 1.105-1.203 0-0.6328-0.3906-1.199-1.105-1.199zm0 2.957c-1.016 0-1.785-0.7383-1.785-1.758 0-1.023 0.7695-1.746 1.785-1.746s1.793 0.7227 1.793 1.746c0 1.02-0.7773 1.758-1.793 1.758" fill="#231f1f"/>
<path d="m173.2 156.3c0.01172 0.1641 0.02734 0.4062 0.02734 0.543h0.01953c0.1641-0.3555 0.6016-0.6367 1.078-0.6367 0.8555 0 1.242 0.6094 1.242 1.352v2.059h-0.6602v-1.84c0-0.5391-0.1445-1.016-0.7539-1.016-0.5195 0-0.8906 0.4336-0.8906 1.09v1.766h-0.6602v-2.605c0-0.1719-0.007813-0.4961-0.02734-0.7109h0.625" fill="#231f1f"/>
<path d="m179.1 157.7c-0.01172-0.5234-0.3203-0.9375-0.9297-0.9375-0.5664 0-1.004 0.418-1.043 0.9375zm0.6602 0.4922h-2.633c0.01953 0.5664 0.4961 1.008 1.078 1.008 0.4492 0 0.7773-0.2266 0.9648-0.5039l0.4648 0.3711c-0.3594 0.4609-0.8438 0.6797-1.43 0.6797-1.008 0-1.75-0.7031-1.75-1.746 0-1.035 0.7422-1.758 1.715-1.758 0.9805 0 1.598 0.668 1.598 1.723 0 0.07031 0 0.1484-0.007813 0.2266" fill="#231f1f"/>
<path d="m166.1 167.6c0.6055 0 1.02-0.4414 1.02-1.059 0-0.5938-0.3984-1.035-1.016-1.035-0.6211 0-1.035 0.4336-1.035 1.043 0 0.582 0.4141 1.051 1.031 1.051zm-0.4648-2.516 0.007812 0.01563c0.1406-0.08203 0.4062-0.1328 0.6172-0.1328 0.8672 0 1.547 0.6523 1.547 1.555 0 0.9883-0.7344 1.652-1.707 1.652-0.9883 0-1.719-0.6914-1.719-1.633 0-0.5391 0.1953-0.9531 0.4844-1.406l1.297-2.047h0.8047l-1.332 1.996" fill="#231f1f"/>
<path d="m171.9 168h-3.234v-0.6523l1.973-1.961c0.3008-0.3086 0.5469-0.6289 0.5469-1.051 0-0.5195-0.3906-0.8555-0.8828-0.8555-0.5039 0-0.8477 0.3672-0.9297 0.8633l-0.6641-0.1133c0.1172-0.7539 0.7539-1.316 1.602-1.316 0.8281 0 1.57 0.4844 1.57 1.406 0 0.6406-0.3633 1.074-0.8008 1.5l-1.609 1.57h2.43v0.6094" fill="#231f1f"/>
<path d="m176.9 166.2c-0.3633 0-0.6562 0.2969-0.6562 0.6602 0 0.3633 0.293 0.6562 0.6562 0.6562 0.3672 0 0.6602-0.293 0.6602-0.6562 0-0.3633-0.293-0.6602-0.6602-0.6602zm0-0.5781c0.6875 0 1.242 0.5508 1.242 1.238s-0.5547 1.238-1.242 1.238c-0.6836 0-1.238-0.5508-1.238-1.238s0.5547-1.238 1.238-1.238zm-2.793 2.617-0.4766-0.2305 3.039-5.176 0.4688 0.2305zm-0.2461-4.684c-0.3633 0-0.6562 0.293-0.6562 0.6562s0.293 0.6602 0.6562 0.6602 0.6602-0.2969 0.6602-0.6602-0.2969-0.6562-0.6602-0.6562zm0-0.582c0.6875 0 1.242 0.5547 1.242 1.238 0 0.6875-0.5547 1.242-1.242 1.242-0.6836 0-1.238-0.5547-1.238-1.242 0-0.6836 0.5547-1.238 1.238-1.238" fill="#231f1f"/>
<path transform="matrix(.1 0 0 -.1 0 207.5)" d="m1536 1737-299.9-442.9" fill="none" stroke="#231f1f" stroke-miterlimit="10" stroke-width="5"/>
</svg>
