<?xml version="1.0" encoding="UTF-8"?>
<svg width="477.8pt" height="282.7pt" version="1.1" viewBox="0 0 477.8 282.7" xmlns="http://www.w3.org/2000/svg" xmlns:xlink="http://www.w3.org/1999/xlink">
<defs>
<symbol id="r" overflow="visible">
<path d="m1.297-1.219h2.359l0.5 1.219h0.7812l-2.125-4.953h-0.625l-2.156 4.953h0.7812zm1.188-2.938 0.9219 2.328h-1.859z"/>
</symbol>
<symbol id="al" overflow="visible">
<path d="m0.04688 0h0.7969l0.9375-1.297 0.9219 1.297h0.8125l-1.328-1.75 1.188-1.562h-0.7656l-0.8125 1.141-0.8125-1.141h-0.8125l1.203 1.562z"/>
</symbol>
<symbol id="b" overflow="visible">
<path d="m1.234-3.312h-0.6562v3.312h0.6562zm0.1094-1.203c0-0.25-0.2031-0.4219-0.4375-0.4219s-0.4375 0.1875-0.4375 0.4219 0.2031 0.4219 0.4375 0.4219 0.4375-0.1875 0.4375-0.4219z"/>
</symbol>
<symbol id="g" overflow="visible">
<path d="m2.625-2.062c-1.109 0-2.297 0.125-2.297 1.125 0 0.7656 0.6719 1.016 1.203 1.016 0.4844 0 0.875-0.2031 1.109-0.5469h0.01562c0 0.1406 0.03125 0.3281 0.0625 0.4688h0.5938c-0.03125-0.1562-0.04688-0.4375-0.04688-0.6562v-1.453c0-0.7344-0.4375-1.297-1.391-1.297-0.5312 0-1.031 0.1875-1.359 0.5l0.3594 0.4219c0.2188-0.2344 0.5625-0.3906 0.9375-0.3906 0.4844 0 0.8125 0.2344 0.8125 0.7188zm0 0.4844v0.1719c0 0.5625-0.3438 0.9688-0.9531 0.9688-0.3281 0-0.6719-0.125-0.6719-0.5156 0-0.5625 0.8125-0.625 1.469-0.625z"/>
</symbol>
<symbol id="i" overflow="visible">
<path d="m1.234-5.297h-0.6562v5.297h0.6562z"/>
</symbol>
<symbol id="h" overflow="visible"></symbol>
<symbol id="j" overflow="visible">
<path d="m3.219-0.5312h0.01562v0.5312h0.625v-5.297h-0.6562v2.469h-0.01562c-0.2188-0.3125-0.6406-0.5781-1.172-0.5781-1 0-1.672 0.7656-1.672 1.734 0 0.9844 0.6562 1.766 1.672 1.766 0.4688 0 0.9531-0.2188 1.203-0.625zm-2.188-1.141c0-0.6094 0.375-1.188 1.094-1.188 0.6719 0 1.125 0.5625 1.125 1.203s-0.4531 1.188-1.125 1.188c-0.7188 0-1.094-0.5781-1.094-1.203z"/>
</symbol>
<symbol id="c" overflow="visible">
<path d="m2.812-2.859c-0.2344-0.3594-0.7344-0.5469-1.203-0.5469-0.625 0-1.25 0.2969-1.25 1.016 0 0.625 0.5156 0.8125 0.9688 0.9062 0.5625 0.1406 0.8594 0.25 0.8594 0.5625 0 0.3594-0.3281 0.4844-0.6562 0.4844-0.375 0-0.7031-0.2031-0.875-0.4688l-0.4688 0.4062c0.3125 0.3906 0.8281 0.5938 1.328 0.5938 0.6719 0 1.328-0.2969 1.328-1.078 0-0.5781-0.4844-0.8281-1.109-0.9688-0.5156-0.125-0.7656-0.2188-0.7656-0.5 0-0.3125 0.3125-0.4375 0.625-0.4375 0.3281 0 0.625 0.1719 0.7656 0.4062z"/>
</symbol>
<symbol id="d" overflow="visible">
<path d="m1.016-1.953c0.04688-0.5156 0.4844-0.9375 1.047-0.9375 0.6094 0 0.9219 0.4062 0.9375 0.9375zm2.641 0.2656c0-1.062-0.6094-1.719-1.594-1.719-0.9688 0-1.719 0.7188-1.719 1.75 0 1.047 0.75 1.75 1.75 1.75 0.5938 0 1.078-0.2188 1.438-0.6875l-0.4688-0.3594c-0.1875 0.2812-0.5156 0.5-0.9688 0.5-0.5781 0-1.047-0.4375-1.078-1.016h2.641v-0.2188z"/>
</symbol>
<symbol id="n" overflow="visible">
<path d="m1.5-4.953h-0.8906v4.953h0.6875v-4.047h0.01562l2.609 4.047h0.875v-4.953h-0.6875v3.953h-0.01562z"/>
</symbol>
<symbol id="p" overflow="visible">
<path d="m3.562-4.516c-0.3125-0.3438-0.8594-0.5625-1.422-0.5625-0.8281 0-1.703 0.4219-1.703 1.406 0 0.9062 0.6562 1.203 1.281 1.391 0.6406 0.2031 1.172 0.3594 1.172 0.9688 0 0.5781-0.5312 0.8438-0.9844 0.8438s-0.875-0.2344-1.109-0.5781l-0.5312 0.4531c0.375 0.4688 1 0.7188 1.625 0.7188 0.875 0 1.719-0.4688 1.719-1.5 0-0.9844-0.7969-1.25-1.453-1.453-0.5625-0.1875-1.016-0.3281-1.016-0.875s0.5156-0.7969 0.9531-0.7969c0.4219 0 0.7812 0.1875 0.9688 0.4688z"/>
</symbol>
<symbol id="t" overflow="visible">
<path d="m1.297-4.953h-0.6875v4.953h0.6875z"/>
</symbol>
<symbol id="v" overflow="visible">
<path d="m0.6094 0h1.688c1.266 0 2.688-0.7812 2.688-2.484 0-1.75-1.422-2.469-2.688-2.469h-1.688zm0.6875-4.359h0.8594c1.203 0 2.078 0.6562 2.078 1.875 0 1.188-0.875 1.875-2.078 1.875h-0.8594z"/>
</symbol>
<symbol id="as" overflow="visible">
<path d="m4.125-0.9062v-0.625l-2.781-0.9375 2.781-0.9531v-0.625l-3.594 1.281v0.6094zm0 0.8438v-0.5781h-3.594v0.5781z"/>
</symbol>
<symbol id="ar" overflow="visible">
<path d="m3.656-0.6094h-2.438l1.609-1.562c0.4375-0.4375 0.8125-0.8594 0.8125-1.5 0-0.9219-0.75-1.406-1.578-1.406-0.8438 0-1.484 0.5625-1.594 1.312l0.6562 0.1094c0.09375-0.5 0.4219-0.8594 0.9375-0.8594 0.4844 0 0.875 0.3438 0.875 0.8594 0 0.4219-0.25 0.7344-0.5469 1.047l-1.969 1.953v0.6562h3.234z"/>
</symbol>
<symbol id="ac" overflow="visible">
<path d="m-0.2188 1.641c0.1094 0.01562 0.2656 0.04688 0.375 0.04688 0.875 0 1.078-0.5938 1.078-1.266v-3.734h-0.6562v3.719c0 0.4062-0.0625 0.7031-0.4531 0.7031-0.07812 0-0.1875-0.01562-0.2656-0.03125zm1.562-6.156c0-0.25-0.2031-0.4219-0.4375-0.4219s-0.4375 0.1875-0.4375 0.4219 0.2031 0.4219 0.4375 0.4219 0.4375-0.1875 0.4375-0.4219z"/>
</symbol>
<symbol id="a" overflow="visible">
<path d="m3.922-1.672c0-1.016-0.7656-1.734-1.781-1.734s-1.797 0.7188-1.797 1.734c0 1.031 0.7812 1.766 1.797 1.766s1.781-0.7344 1.781-1.766zm-0.6875 0c0 0.6406-0.3906 1.203-1.094 1.203-0.7188 0-1.109-0.5625-1.109-1.203 0-0.625 0.3906-1.188 1.109-1.188 0.7031 0 1.094 0.5625 1.094 1.188z"/>
</symbol>
<symbol id="f" overflow="visible">
<path d="m0.5312-3.312c0.03125 0.2188 0.03125 0.5312 0.03125 0.7031v2.609h0.6562v-1.766c0-0.6562 0.375-1.094 0.8906-1.094 0.6094 0 0.7656 0.4844 0.7656 1.016v1.844h0.6562v-2.062c0-0.7344-0.3906-1.344-1.25-1.344-0.4688 0-0.9062 0.2812-1.062 0.6406h-0.03125c0-0.1406-0.01562-0.3906-0.03125-0.5469z"/>
</symbol>
<symbol id="e" overflow="visible">
<path d="m2.188-3.312h-0.875v-0.9531h-0.6562v0.9531h-0.6406v0.5312h0.6406v1.797c0 0.6875 0.3438 1.047 0.9688 1.047 0.2031 0 0.4062-0.04688 0.5625-0.09375l-0.03125-0.5469c-0.1094 0.0625-0.2656 0.09375-0.375 0.09375-0.3281 0-0.4688-0.1719-0.4688-0.5625v-1.734h0.875z"/>
</symbol>
<symbol id="m" overflow="visible">
<path d="m3.531 0c-0.03125-0.2188-0.03125-0.5312-0.03125-0.7188v-2.594h-0.6562v1.766c0 0.6562-0.3594 1.078-0.8906 1.078-0.6094 0-0.75-0.4688-0.75-1.016v-1.828h-0.6719v2.047c0 0.75 0.3906 1.359 1.25 1.359 0.4844 0 0.9062-0.2969 1.078-0.6406h0.01562c0 0.1406 0.01562 0.375 0.03125 0.5469z"/>
</symbol>
<symbol id="ab" overflow="visible">
<path d="m2.125-3.312h-0.7656v-0.7031c0-0.4062 0.09375-0.7969 0.5938-0.7969 0.125 0 0.2188 0.03125 0.3281 0.04688l0.07812-0.5625c-0.1406-0.03125-0.2656-0.04688-0.4219-0.04688-0.8906 0-1.234 0.5938-1.234 1.359v0.7031h-0.6562v0.5312h0.6562v2.781h0.6562v-2.781h0.7656z"/>
</symbol>
<symbol id="ak" overflow="visible">
<path d="m2.938-3.312h-2.609v0.5312h1.781l-1.875 2.25v0.5312h2.781v-0.5469h-1.969l1.891-2.234z"/>
</symbol>
<symbol id="u" overflow="visible">
<path d="m0.7969-3.312h-0.7344l1.422 3.312-0.2031 0.5469c-0.1406 0.3594-0.2812 0.5625-0.625 0.5625-0.1094 0-0.2188-0.03125-0.3281-0.0625l-0.0625 0.5781c0.1406 0.04688 0.2969 0.0625 0.4375 0.0625 0.6406 0 0.9219-0.3438 1.141-0.9062l1.609-4.094h-0.6875l-0.9219 2.594h-0.01562z"/>
</symbol>
<symbol id="o" overflow="visible">
<path d="m1.219-2.766h-0.03125c0-0.1406-0.01562-0.3906-0.03125-0.5469h-0.625c0.03125 0.2188 0.03125 0.5312 0.03125 0.7031v2.609h0.6562v-1.766c0-0.6562 0.375-1.094 0.8594-1.094 0.5156 0 0.6875 0.375 0.6875 0.8906v1.969h0.6719v-1.797c0-0.5156 0.2344-1.062 0.8281-1.062 0.5781 0 0.7344 0.4844 0.7344 1.016v1.844h0.6562v-2.062c0-0.7344-0.375-1.344-1.234-1.344-0.4688 0-0.9062 0.2344-1.125 0.6562-0.2031-0.4688-0.5938-0.6562-1.031-0.6562-0.5 0-0.8906 0.2812-1.047 0.6406z"/>
</symbol>
<symbol id="q" overflow="visible">
<path d="m1.219-0.5h0.03125c0.2344 0.375 0.7031 0.5938 1.172 0.5938 1.016 0 1.672-0.7812 1.672-1.766 0-0.9688-0.6719-1.734-1.672-1.734-0.5312 0-0.9688 0.25-1.188 0.6094h-0.01562v-0.5156h-0.6562v5h0.6562zm2.188-1.172c0 0.625-0.375 1.203-1.109 1.203-0.6719 0-1.109-0.5469-1.109-1.188s0.4375-1.203 1.109-1.203c0.7344 0 1.109 0.5781 1.109 1.188z"/>
</symbol>
<symbol id="k" overflow="visible">
<path d="m3.359-2.859c-0.2656-0.3594-0.7656-0.5469-1.234-0.5469-1.016 0-1.781 0.7031-1.781 1.75s0.7656 1.75 1.797 1.75c0.5312 0 0.9531-0.2031 1.234-0.5156l-0.4375-0.4062c-0.1719 0.2188-0.4688 0.3594-0.7969 0.3594-0.7031 0-1.094-0.5625-1.094-1.188 0-0.6406 0.3906-1.203 1.078-1.203 0.3125 0 0.625 0.1719 0.7656 0.375z"/>
</symbol>
<symbol id="l" overflow="visible">
<path d="m0.5625-2.609v2.609h0.6562v-1.75c0-0.5469 0.3125-1.062 0.9375-1.062 0.1094 0 0.2188 0.01562 0.2969 0.04688l0.03125-0.6094c-0.07812-0.03125-0.1719-0.03125-0.2656-0.03125-0.4375 0-0.8281 0.2656-1 0.6406h-0.03125c0-0.125-0.01562-0.3906-0.03125-0.5469h-0.625c0.03125 0.2188 0.03125 0.5312 0.03125 0.7031z"/>
</symbol>
<symbol id="z" overflow="visible">
<path d="m2.109-1.656c0-0.4531 0.1094-0.5938 0.5-0.9062 0.3906-0.3438 0.6719-0.6094 0.6719-1.203 0-0.8438-0.6562-1.297-1.422-1.297-0.7969 0-1.406 0.4844-1.516 1.297l0.6719 0.07812c0.03125-0.4219 0.3281-0.7656 0.7969-0.7656 0.4531 0 0.7656 0.2812 0.7656 0.7344 0 0.3125-0.1562 0.5156-0.3594 0.6875l-0.2656 0.25c-0.3125 0.2969-0.5 0.5469-0.5 1.031v0.3438h0.6562zm0.1719 1.234c0-0.25-0.2031-0.4531-0.4688-0.4531s-0.4688 0.2031-0.4688 0.4688c0 0.2344 0.2031 0.4531 0.4688 0.4531s0.4688-0.2188 0.4688-0.4688z"/>
</symbol>
<symbol id="y" overflow="visible">
<path d="m4.297-1.141c-0.2969 0.4219-0.7812 0.6562-1.328 0.6562-1.141 0-1.859-0.8906-1.859-2 0-1.078 0.7344-1.984 1.875-1.984 0.5156 0 1 0.2344 1.234 0.5781l0.5469-0.4219c-0.3594-0.5-1.094-0.7656-1.781-0.7656-1.5 0-2.641 1.047-2.641 2.594 0 1.531 1.094 2.609 2.625 2.609 0.8594 0 1.5-0.375 1.875-0.8906z"/>
</symbol>
<symbol id="aj" overflow="visible">
<path d="m3.453-3.312h-0.6875l-0.9844 2.609h-0.01562l-0.9688-2.609h-0.7344l1.344 3.312h0.7188z"/>
</symbol>
<symbol id="aa" overflow="visible">
<path d="m1.375-0.8125h-0.6562l-0.4844 1.75h0.5625z"/>
</symbol>
<symbol id="ai" overflow="visible">
<path d="m1.938-1.984h-1.625v0.5625h1.625z"/>
</symbol>
<symbol id="x" overflow="visible">
<path d="m1.234-0.5312c0.25 0.4062 0.7188 0.625 1.188 0.625 1.031 0 1.688-0.7812 1.688-1.766 0-0.9688-0.6719-1.734-1.672-1.734-0.5469 0-0.9531 0.2656-1.172 0.5781h-0.03125v-2.469h-0.6562v5.297h0.6406v-0.5312zm2.188-1.141c0 0.625-0.3906 1.203-1.109 1.203-0.6719 0-1.109-0.5469-1.109-1.188s0.4375-1.203 1.109-1.203c0.7188 0 1.109 0.5781 1.109 1.188z"/>
</symbol>
<symbol id="s" overflow="visible">
<path d="m1.234-2.812v-2.484h-0.6562v5.297h0.6562v-1.75c0-0.6719 0.375-1.094 0.9062-1.094 0.6094 0 0.75 0.4688 0.75 1.016v1.828h0.6562v-2.062c0-0.7344-0.3906-1.344-1.25-1.344-0.4688 0-0.8906 0.2656-1.047 0.5938z"/>
</symbol>
<symbol id="ah" overflow="visible">
<path d="m1.297-4.953h-0.6875v4.953h2.891v-0.6094h-2.203z"/>
</symbol>
<symbol id="ag" overflow="visible">
<path d="m0.4062 1.078c0.4062 0.375 1.047 0.6094 1.625 0.6094 1.375 0 1.828-0.8906 1.828-1.859v-3.141h-0.625v0.5312h-0.01562c-0.25-0.4219-0.7344-0.625-1.203-0.625-1.016 0-1.672 0.7812-1.672 1.719 0 0.9531 0.6719 1.719 1.672 1.719 0.4688 0 0.9375-0.2031 1.172-0.5781h0.01562v0.4219c0 0.6875-0.2969 1.234-1.172 1.234-0.4531 0-0.9219-0.2188-1.203-0.5469zm0.625-2.766c0-0.6406 0.4062-1.172 1.094-1.172 0.6719 0 1.125 0.5312 1.125 1.172 0 0.6562-0.4375 1.156-1.125 1.156s-1.094-0.5469-1.094-1.156z"/>
</symbol>
<symbol id="aq" overflow="visible">
<path d="m0.8281-2.016c0-1.016 0.3594-2.047 0.9062-2.812l-0.4688-0.2969c-0.625 0.8125-1.031 1.938-1.031 3.109s0.4062 2.281 1.031 3.109l0.4688-0.2969c-0.5469-0.7656-0.9062-1.797-0.9062-2.812z"/>
</symbol>
<symbol id="ap" overflow="visible">
<path d="m3.203-0.5v2.188h0.6562v-5h-0.625v0.5156h-0.03125c-0.2188-0.3594-0.6562-0.6094-1.188-0.6094-1 0-1.672 0.7656-1.672 1.734 0 0.9844 0.6562 1.766 1.672 1.766 0.4688 0 0.9375-0.2188 1.172-0.5938zm-2.172-1.172c0-0.6094 0.375-1.188 1.094-1.188 0.6719 0 1.125 0.5625 1.125 1.203s-0.4531 1.188-1.125 1.188c-0.7188 0-1.094-0.5781-1.094-1.203z"/>
</symbol>
<symbol id="ao" overflow="visible">
<path d="m1.375-2.016c0 1.016-0.3594 2.047-0.9062 2.812l0.4688 0.2969c0.625-0.8281 1.031-1.938 1.031-3.109s-0.4062-2.297-1.031-3.109l-0.4688 0.2969c0.5469 0.7656 0.9062 1.797 0.9062 2.812z"/>
</symbol>
<symbol id="an" overflow="visible">
<path d="m0.09375-3.312 1.109 3.312h0.6875l0.8125-2.484h0.01562l0.8125 2.484h0.6875l1.094-3.312h-0.6875l-0.75 2.531h-0.01562l-0.7969-2.531h-0.7031l-0.7812 2.531h-0.01562l-0.75-2.531z"/>
</symbol>
<symbol id="af" overflow="visible">
<path d="m1.234-5.297h-0.6562v5.297h0.6562v-1.719h0.03125l1.5 1.719h0.9062l-1.688-1.812 1.547-1.5h-0.875l-1.391 1.438h-0.03125z"/>
</symbol>
<symbol id="am" overflow="visible">
<path d="m0.6094 0h0.6875v-2.172h0.7812c1.031 0 1.812-0.4062 1.812-1.406 0-0.9688-0.7031-1.375-1.781-1.375h-1.5zm0.6875-4.375h0.75c0.6406 0 1.141 0.2031 1.141 0.7969s-0.4844 0.8125-1.156 0.8125h-0.7344z"/>
</symbol>
<symbol id="w" overflow="visible">
<path d="m2.531-2.141 1.859-2.812h-0.8125l-1.375 2.234-1.375-2.234h-0.8438l1.844 2.812v2.141h0.7031z"/>
</symbol>
<symbol id="ae" overflow="visible">
<path d="m2.344-4.344h1.578v-0.6094h-3.859v0.6094h1.578v4.344h0.7031z"/>
</symbol>
<symbol id="ad" overflow="visible">
<path d="m1.297-2.219h2.25v-0.5938h-2.25v-1.531h2.406v-0.6094h-3.094v4.953h0.6875z"/>
</symbol>
<clipPath id="aw">
<path d="m391 132h86.75v47h-86.75z"/>
</clipPath>
<clipPath id="av">
<path d="m391 132h86.75v48h-86.75z"/>
</clipPath>
<clipPath id="au">
<path d="m103 247h64v35.74h-64z"/>
</clipPath>
<clipPath id="at">
<path d="m103 247h65v35.74h-65z"/>
</clipPath>
</defs>
<path transform="matrix(.1 0 0 -.1 0 282.7)" d="m606.5 2590v-172.5" fill="none" stroke="#231f1f" stroke-width="5"/>
<path d="m60.65 44.61c-0.6328-1.703-1.711-3.816-2.855-5.125l2.855 1.031 2.852-1.031c-1.141 1.309-2.223 3.422-2.852 5.125" fill="#231f1f"/>
<path d="m103.8 24.35h-86.25v-23.61h86.25v23.61" fill="#fef0ca"/>
<path transform="matrix(.1 0 0 -.1 0 282.7)" d="m1038 2584h-862.5v236.1h862.5z" fill="none" stroke="#231f1f" stroke-width="5"/>
<g fill="#231f1f">
<use x="39.6355" y="14.659" xlink:href="#r"/>
<use x="44.6125" y="14.659" xlink:href="#al"/>
<use x="48.1895" y="14.659" xlink:href="#b"/>
<use x="50.0025" y="14.659" xlink:href="#g"/>
<use x="53.7965" y="14.659" xlink:href="#i"/>
<use x="55.6165" y="14.659" xlink:href="#h"/>
<use x="57.3665" y="14.659" xlink:href="#j"/>
<use x="61.8115" y="14.659" xlink:href="#b"/>
<use x="63.6245" y="14.659" xlink:href="#c"/>
<use x="66.732605" y="14.659" xlink:href="#d"/>
<use x="70.701357" y="14.659" xlink:href="#g"/>
<use x="74.495357" y="14.659" xlink:href="#c"/>
<use x="77.603357" y="14.659" xlink:href="#d"/>
</g>
<path d="m431.5 63.99h-86.25v-17.25h86.25v17.25" fill="#fef0ca"/>
<path transform="matrix(.1 0 0 -.1 0 282.7)" d="m4315 2188h-862.5v172.5h862.5z" fill="none" stroke="#231f1f" stroke-width="5"/>
<g fill="#231f1f">
<use x="376.027" y="58.363" xlink:href="#n"/>
<use x="381.431" y="58.363" xlink:href="#p"/>
<use x="385.413414" y="58.363" xlink:href="#r"/>
<use x="390.390951" y="58.363" xlink:href="#t"/>
<use x="392.287438" y="58.363" xlink:href="#v"/>
<use x="397.614438" y="58.363" xlink:href="#c"/>
</g>
<path d="m270.5 110h-86.25v-17.25h86.25v17.25" fill="#fef0ca"/>
<path transform="matrix(.1 0 0 -.1 0 282.7)" d="m2705 1728h-862.5v172.5h862.5z" fill="none" stroke="#231f1f" stroke-width="5"/>
<g fill="#231f1f">
<use x="215.027" y="104.363" xlink:href="#n"/>
<use x="220.431" y="104.363" xlink:href="#p"/>
<use x="224.414" y="104.363" xlink:href="#r"/>
<use x="229.391" y="104.363" xlink:href="#t"/>
<use x="231.288" y="104.363" xlink:href="#v"/>
<use x="236.615" y="104.363" xlink:href="#c"/>
</g>
<path d="m293.5 196.2h-40.25v-17.25h40.25v17.25" fill="#fef0ca"/>
<path transform="matrix(.1 0 0 -.1 0 282.7)" d="m2935 865h-402.5v172.5h402.5z" fill="none" stroke="#231f1f" stroke-width="5"/>
<g fill="#231f1f">
<use x="259.393" y="190.613" xlink:href="#as"/>
<use x="264.055" y="190.613" xlink:href="#ar"/>
<use x="268.22" y="190.613" xlink:href="#h"/>
<use x="269.97" y="190.613" xlink:href="#ac"/>
<use x="271.789341" y="190.613" xlink:href="#a"/>
<use x="276.059854" y="190.613" xlink:href="#b"/>
<use x="277.872854" y="190.613" xlink:href="#f"/>
<use x="281.946854" y="190.613" xlink:href="#e"/>
<use x="284.249854" y="190.613" xlink:href="#c"/>
</g>
<path d="m339.5 242.2h-51.75v-17.25h51.75v17.25" fill="#fef0ca"/>
<path transform="matrix(.1 0 0 -.1 0 282.7)" d="m3395 405h-517.5v172.5h517.5z" fill="none" stroke="#231f1f" stroke-width="5"/>
<g fill="#231f1f">
<use x="292.881" y="236.613" xlink:href="#p"/>
<use x="296.863414" y="236.613" xlink:href="#m"/>
<use x="300.937414" y="236.613" xlink:href="#i"/>
<use x="302.757414" y="236.613" xlink:href="#ab"/>
<use x="304.927414" y="236.613" xlink:href="#g"/>
<use x="308.721414" y="236.613" xlink:href="#c"/>
<use x="311.828828" y="236.613" xlink:href="#g"/>
<use x="315.622828" y="236.613" xlink:href="#i"/>
<use x="317.442828" y="236.613" xlink:href="#g"/>
<use x="321.236828" y="236.613" xlink:href="#ak"/>
<use x="324.470828" y="236.613" xlink:href="#b"/>
<use x="326.283828" y="236.613" xlink:href="#f"/>
<use x="330.357828" y="236.613" xlink:href="#d"/>
</g>
<path d="m270.5 150.2h-86.25v-17.25h86.25v17.25" fill="#fef0ca"/>
<path transform="matrix(.1 0 0 -.1 0 282.7)" d="m2705 1325h-862.5v172.5h862.5z" fill="none" stroke="#231f1f" stroke-width="5"/>
<g fill="#231f1f">
<use x="191.329" y="144.613" xlink:href="#p"/>
<use x="195.235254" y="144.613" xlink:href="#u"/>
<use x="198.763254" y="144.613" xlink:href="#o"/>
<use x="204.972254" y="144.613" xlink:href="#q"/>
<use x="209.410254" y="144.613" xlink:href="#e"/>
<use x="211.713254" y="144.613" xlink:href="#a"/>
<use x="215.983254" y="144.613" xlink:href="#o"/>
<use x="222.192254" y="144.613" xlink:href="#c"/>
<use x="225.299644" y="144.613" xlink:href="#h"/>
<use x="227.049644" y="144.613" xlink:href="#k"/>
<use x="230.507644" y="144.613" xlink:href="#a"/>
<use x="234.777644" y="144.613" xlink:href="#f"/>
<use x="238.851644" y="144.613" xlink:href="#e"/>
<use x="241.153695" y="144.613" xlink:href="#l"/>
<use x="243.56267" y="144.613" xlink:href="#a"/>
<use x="247.83267" y="144.613" xlink:href="#i"/>
<use x="249.65267" y="144.613" xlink:href="#i"/>
<use x="251.472011" y="144.613" xlink:href="#d"/>
<use x="255.483719" y="144.613" xlink:href="#j"/>
<use x="259.92806" y="144.613" xlink:href="#z"/>
</g>
<path d="m431.5 104.2h-86.25v-17.25h86.25v17.25" fill="#fef0ca"/>
<path transform="matrix(.1 0 0 -.1 0 282.7)" d="m4315 1785h-862.5v172.5h862.5z" fill="none" stroke="#231f1f" stroke-width="5"/>
<g fill="#231f1f">
<use x="352.329" y="98.613" xlink:href="#p"/>
<use x="356.235242" y="98.613" xlink:href="#u"/>
<use x="359.762583" y="98.613" xlink:href="#o"/>
<use x="365.971583" y="98.613" xlink:href="#q"/>
<use x="370.409583" y="98.613" xlink:href="#e"/>
<use x="372.712583" y="98.613" xlink:href="#a"/>
<use x="376.982583" y="98.613" xlink:href="#o"/>
<use x="383.191583" y="98.613" xlink:href="#c"/>
<use x="386.299583" y="98.613" xlink:href="#h"/>
<use x="388.049583" y="98.613" xlink:href="#k"/>
<use x="391.507583" y="98.613" xlink:href="#a"/>
<use x="395.777583" y="98.613" xlink:href="#f"/>
<use x="399.851583" y="98.613" xlink:href="#e"/>
<use x="402.154122" y="98.613" xlink:href="#l"/>
<use x="404.563098" y="98.613" xlink:href="#a"/>
<use x="408.833098" y="98.613" xlink:href="#i"/>
<use x="410.653098" y="98.613" xlink:href="#i"/>
<use x="412.472414" y="98.613" xlink:href="#d"/>
<use x="416.484147" y="98.613" xlink:href="#j"/>
<use x="420.928463" y="98.613" xlink:href="#z"/>
</g>
<path d="m103.8 121.5h-86.25v-17.25h86.25v17.25" fill="#fef0ca"/>
<path transform="matrix(.1 0 0 -.1 0 282.7)" d="m1038 1613h-862.5v172.5h862.5z" fill="none" stroke="#231f1f" stroke-width="5"/>
<g fill="#231f1f">
<use x="24.5789" y="115.863" xlink:href="#p"/>
<use x="28.484761" y="115.863" xlink:href="#u"/>
<use x="32.012761" y="115.863" xlink:href="#o"/>
<use x="38.221761" y="115.863" xlink:href="#q"/>
<use x="42.65926" y="115.863" xlink:href="#e"/>
<use x="44.96226" y="115.863" xlink:href="#a"/>
<use x="49.23226" y="115.863" xlink:href="#o"/>
<use x="55.44126" y="115.863" xlink:href="#c"/>
<use x="58.54868" y="115.863" xlink:href="#h"/>
<use x="60.29868" y="115.863" xlink:href="#k"/>
<use x="63.75668" y="115.863" xlink:href="#a"/>
<use x="68.02668" y="115.863" xlink:href="#f"/>
<use x="72.10068" y="115.863" xlink:href="#e"/>
<use x="74.404013" y="115.863" xlink:href="#l"/>
<use x="76.811822" y="115.863" xlink:href="#a"/>
<use x="81.081822" y="115.863" xlink:href="#i"/>
<use x="82.901822" y="115.863" xlink:href="#i"/>
<use x="84.721822" y="115.863" xlink:href="#d"/>
<use x="88.732822" y="115.863" xlink:href="#j"/>
<use x="93.177822" y="115.863" xlink:href="#z"/>
</g>
<path d="m103.8 81.24h-86.25v-34.5h86.25v34.5" fill="#fef0ca"/>
<path transform="matrix(.1 0 0 -.1 0 282.7)" d="m1038 2015h-862.5v345h862.5z" fill="none" stroke="#231f1f" stroke-width="5"/>
<g fill="#231f1f">
<use x="28.0613" y="58.24" xlink:href="#y"/>
<use x="32.940206" y="58.24" xlink:href="#a"/>
<use x="37.210206" y="58.24" xlink:href="#f"/>
<use x="41.284206" y="58.24" xlink:href="#e"/>
<use x="43.587206" y="58.24" xlink:href="#b"/>
<use x="45.399706" y="58.24" xlink:href="#f"/>
<use x="49.473706" y="58.24" xlink:href="#m"/>
<use x="53.547706" y="58.24" xlink:href="#a"/>
<use x="57.817706" y="58.24" xlink:href="#m"/>
<use x="61.891706" y="58.24" xlink:href="#c"/>
<use x="64.999706" y="58.24" xlink:href="#h"/>
<use x="66.749706" y="58.24" xlink:href="#n"/>
<use x="72.153706" y="58.24" xlink:href="#p"/>
<use x="76.136706" y="58.24" xlink:href="#r"/>
<use x="81.113706" y="58.24" xlink:href="#t"/>
<use x="83.010706" y="58.24" xlink:href="#v"/>
<use x="88.337706" y="58.24" xlink:href="#c"/>
<use x="91.445706" y="58.24" xlink:href="#h"/>
<use x="24.3656" y="66.64" xlink:href="#g"/>
<use x="28.1596" y="66.64" xlink:href="#f"/>
<use x="32.2336" y="66.64" xlink:href="#j"/>
<use x="36.6786" y="66.64" xlink:href="#h"/>
<use x="38.4286" y="66.64" xlink:href="#g"/>
<use x="42.2226" y="66.64" xlink:href="#k"/>
<use x="45.6806" y="66.64" xlink:href="#e"/>
<use x="47.9836" y="66.64" xlink:href="#b"/>
<use x="49.7966" y="66.64" xlink:href="#aj"/>
<use x="53.3246" y="66.64" xlink:href="#d"/>
<use x="57.336032" y="66.64" xlink:href="#aa"/>
<use x="58.945796" y="66.64" xlink:href="#h"/>
<use x="60.695796" y="66.64" xlink:href="#i"/>
<use x="62.515796" y="66.64" xlink:href="#g"/>
<use x="66.309796" y="66.64" xlink:href="#f"/>
<use x="70.383796" y="66.64" xlink:href="#j"/>
<use x="74.828796" y="66.64" xlink:href="#ai"/>
<use x="77.068796" y="66.64" xlink:href="#x"/>
<use x="81.520796" y="66.64" xlink:href="#g"/>
<use x="85.314796" y="66.64" xlink:href="#c"/>
<use x="88.422796" y="66.64" xlink:href="#d"/>
<use x="92.433796" y="66.64" xlink:href="#j"/>
<use x="34.4176" y="75.04" xlink:href="#q"/>
<use x="38.8556" y="75.04" xlink:href="#s"/>
<use x="42.9436" y="75.04" xlink:href="#u"/>
<use x="46.4716" y="75.04" xlink:href="#c"/>
<use x="49.5796" y="75.04" xlink:href="#b"/>
<use x="51.3926" y="75.04" xlink:href="#k"/>
<use x="54.8506" y="75.04" xlink:href="#g"/>
<use x="58.6446" y="75.04" xlink:href="#i"/>
<use x="60.4646" y="75.04" xlink:href="#h"/>
<use x="62.2146" y="75.04" xlink:href="#e"/>
<use x="64.5176" y="75.04" xlink:href="#s"/>
<use x="68.6056" y="75.04" xlink:href="#d"/>
<use x="72.616147" y="75.04" xlink:href="#l"/>
<use x="75.059504" y="75.04" xlink:href="#g"/>
<use x="78.853504" y="75.04" xlink:href="#q"/>
<use x="83.291504" y="75.04" xlink:href="#u"/>
</g>
<g clip-path="url(#aw)">
<path d="m477.5 179h-86.25v-46h86.25v46" fill="#fef0ca"/>
</g>
<g clip-path="url(#av)">
<path transform="matrix(.1 0 0 -.1 0 282.7)" d="m4775 1038h-862.5v460h862.5z" fill="none" stroke="#231f1f" stroke-width="5"/>
</g>
<g fill="#231f1f">
<use x="401.941" y="145.504" xlink:href="#ah"/>
<use x="405.39881" y="145.504" xlink:href="#a"/>
<use x="409.66881" y="145.504" xlink:href="#k"/>
<use x="413.12681" y="145.504" xlink:href="#g"/>
<use x="416.92081" y="145.504" xlink:href="#i"/>
<use x="418.74081" y="145.504" xlink:href="#h"/>
<use x="420.49081" y="145.504" xlink:href="#ag"/>
<use x="424.91481" y="145.504" xlink:href="#i"/>
<use x="426.73481" y="145.504" xlink:href="#m"/>
<use x="430.808029" y="145.504" xlink:href="#k"/>
<use x="434.266029" y="145.504" xlink:href="#a"/>
<use x="438.536029" y="145.504" xlink:href="#k"/>
<use x="441.993052" y="145.504" xlink:href="#a"/>
<use x="446.264713" y="145.504" xlink:href="#l"/>
<use x="448.714337" y="145.504" xlink:href="#e"/>
<use x="451.017337" y="145.504" xlink:href="#b"/>
<use x="452.830337" y="145.504" xlink:href="#k"/>
<use x="456.288337" y="145.504" xlink:href="#a"/>
<use x="460.558337" y="145.504" xlink:href="#b"/>
<use x="462.371337" y="145.504" xlink:href="#j"/>
<use x="408.10194" y="153.904" xlink:href="#b"/>
<use x="409.91494" y="153.904" xlink:href="#f"/>
<use x="413.98894" y="153.904" xlink:href="#ac"/>
<use x="415.80894" y="153.904" xlink:href="#d"/>
<use x="419.81994" y="153.904" xlink:href="#k"/>
<use x="423.27794" y="153.904" xlink:href="#e"/>
<use x="425.58094" y="153.904" xlink:href="#b"/>
<use x="427.39394" y="153.904" xlink:href="#a"/>
<use x="431.66394" y="153.904" xlink:href="#f"/>
<use x="435.73794" y="153.904" xlink:href="#c"/>
<use x="438.845354" y="153.904" xlink:href="#h"/>
<use x="440.595354" y="153.904" xlink:href="#aq"/>
<use x="442.800354" y="153.904" xlink:href="#g"/>
<use x="446.594354" y="153.904" xlink:href="#aj"/>
<use x="450.122354" y="153.904" xlink:href="#a"/>
<use x="454.392354" y="153.904" xlink:href="#b"/>
<use x="456.205354" y="153.904" xlink:href="#j"/>
<use x="395.92104" y="162.304" xlink:href="#r"/>
<use x="400.89804" y="162.304" xlink:href="#k"/>
<use x="404.35604" y="162.304" xlink:href="#s"/>
<use x="408.44404" y="162.304" xlink:href="#b"/>
<use x="410.25704" y="162.304" xlink:href="#i"/>
<use x="412.07704" y="162.304" xlink:href="#i"/>
<use x="413.896356" y="162.304" xlink:href="#d"/>
<use x="417.907356" y="162.304" xlink:href="#c"/>
<use x="421.015356" y="162.304" xlink:href="#h"/>
<use x="422.765356" y="162.304" xlink:href="#e"/>
<use x="425.068356" y="162.304" xlink:href="#d"/>
<use x="429.079356" y="162.304" xlink:href="#f"/>
<use x="433.153356" y="162.304" xlink:href="#j"/>
<use x="437.598356" y="162.304" xlink:href="#a"/>
<use x="441.868356" y="162.304" xlink:href="#f"/>
<use x="445.942161" y="162.304" xlink:href="#aa"/>
<use x="447.551907" y="162.304" xlink:href="#h"/>
<use x="449.301907" y="162.304" xlink:href="#q"/>
<use x="453.739809" y="162.304" xlink:href="#g"/>
<use x="457.471065" y="162.304" xlink:href="#e"/>
<use x="459.774065" y="162.304" xlink:href="#d"/>
<use x="463.785797" y="162.304" xlink:href="#i"/>
<use x="465.605114" y="162.304" xlink:href="#i"/>
<use x="467.425114" y="162.304" xlink:href="#g"/>
<use x="471.219114" y="162.304" xlink:href="#aa"/>
<use x="408.18584" y="170.704" xlink:href="#g"/>
<use x="411.97984" y="170.704" xlink:href="#f"/>
<use x="416.05384" y="170.704" xlink:href="#j"/>
<use x="420.498156" y="170.704" xlink:href="#h"/>
<use x="422.248156" y="170.704" xlink:href="#ap"/>
<use x="426.679791" y="170.704" xlink:href="#m"/>
<use x="430.75301" y="170.704" xlink:href="#g"/>
<use x="434.54701" y="170.704" xlink:href="#j"/>
<use x="438.99201" y="170.704" xlink:href="#l"/>
<use x="441.52601" y="170.704" xlink:href="#b"/>
<use x="443.33901" y="170.704" xlink:href="#k"/>
<use x="446.79701" y="170.704" xlink:href="#d"/>
<use x="450.80801" y="170.704" xlink:href="#q"/>
<use x="455.24601" y="170.704" xlink:href="#c"/>
<use x="458.353424" y="170.704" xlink:href="#ao"/>
</g>
<g clip-path="url(#au)">
<path d="m167 282.5h-63.25v-34.5h63.25v34.5" fill="#fef0ca"/>
</g>
<g clip-path="url(#at)">
<path transform="matrix(.1 0 0 -.1 0 282.7)" d="m1670 2.517h-632.5v345h632.5z" fill="none" stroke="#231f1f" stroke-width="5"/>
</g>
<g fill="#231f1f">
<use x="119.811" y="258.9541" xlink:href="#p"/>
<use x="123.794" y="258.9541" xlink:href="#an"/>
<use x="129.205" y="258.9541" xlink:href="#b"/>
<use x="131.017255" y="258.9541" xlink:href="#e"/>
<use x="133.320255" y="258.9541" xlink:href="#k"/>
<use x="136.778255" y="258.9541" xlink:href="#s"/>
<use x="140.866255" y="258.9541" xlink:href="#h"/>
<use x="142.616255" y="258.9541" xlink:href="#e"/>
<use x="144.919255" y="258.9541" xlink:href="#a"/>
<use x="149.189255" y="258.9541" xlink:href="#h"/>
<use x="114.00006" y="267.3541" xlink:href="#c"/>
<use x="117.10806" y="267.3541" xlink:href="#d"/>
<use x="121.11906" y="267.3541" xlink:href="#k"/>
<use x="124.57706" y="267.3541" xlink:href="#m"/>
<use x="128.65106" y="267.3541" xlink:href="#af"/>
<use x="132.34006" y="267.3541" xlink:href="#b"/>
<use x="134.15256" y="267.3541" xlink:href="#f"/>
<use x="138.22656" y="267.3541" xlink:href="#m"/>
<use x="142.30056" y="267.3541" xlink:href="#o"/>
<use x="148.50956" y="267.3541" xlink:href="#g"/>
<use x="152.30356" y="267.3541" xlink:href="#x"/>
<use x="112.80397" y="275.75293" xlink:href="#a"/>
<use x="117.07397" y="275.75293" xlink:href="#l"/>
<use x="119.60797" y="275.75293" xlink:href="#h"/>
<use x="121.35797" y="275.75293" xlink:href="#b"/>
<use x="123.170275" y="275.75293" xlink:href="#al"/>
<use x="126.685507" y="275.75293" xlink:href="#d"/>
<use x="130.696507" y="275.75293" xlink:href="#af"/>
<use x="134.385507" y="275.75293" xlink:href="#b"/>
<use x="136.198507" y="275.75293" xlink:href="#ak"/>
<use x="139.432507" y="275.75293" xlink:href="#m"/>
<use x="143.506507" y="275.75293" xlink:href="#o"/>
<use x="149.715507" y="275.75293" xlink:href="#g"/>
<use x="153.509507" y="275.75293" xlink:href="#x"/>
</g>
<path d="m276.2 24.23-97.75-0.4883v-23l97.75 0.4883v23" fill="#fef0ca"/>
<path transform="matrix(.1 0 0 -.1 0 282.7)" d="m2762 2585-977.5 4.883v230l977.5-4.883z" fill="none" stroke="#231f1f" stroke-width="5"/>
<g fill="#231f1f">
<use x="193.268" y="10.642" xlink:href="#r"/>
<use x="198.245" y="10.642" xlink:href="#c"/>
<use x="201.353" y="10.642" xlink:href="#c"/>
<use x="204.461" y="10.642" xlink:href="#d"/>
<use x="208.472" y="10.642" xlink:href="#c"/>
<use x="211.58" y="10.642" xlink:href="#c"/>
<use x="214.688" y="10.642" xlink:href="#h"/>
<use x="216.438" y="10.642" xlink:href="#ab"/>
<use x="218.608" y="10.642" xlink:href="#a"/>
<use x="222.878" y="10.642" xlink:href="#l"/>
<use x="225.412" y="10.642" xlink:href="#h"/>
<use x="227.162" y="10.642" xlink:href="#g"/>
<use x="230.956" y="10.642" xlink:href="#j"/>
<use x="235.401" y="10.642" xlink:href="#j"/>
<use x="239.846" y="10.642" xlink:href="#b"/>
<use x="241.659" y="10.642" xlink:href="#e"/>
<use x="243.962" y="10.642" xlink:href="#b"/>
<use x="245.775" y="10.642" xlink:href="#a"/>
<use x="250.045" y="10.642" xlink:href="#f"/>
<use x="254.119" y="10.642" xlink:href="#g"/>
<use x="257.913" y="10.642" xlink:href="#i"/>
<use x="259.732341" y="10.642" xlink:href="#h"/>
<use x="190.993" y="19.04161" xlink:href="#j"/>
<use x="195.438" y="19.04161" xlink:href="#b"/>
<use x="197.251" y="19.04161" xlink:href="#c"/>
<use x="200.359" y="19.04161" xlink:href="#d"/>
<use x="204.328142" y="19.04161" xlink:href="#g"/>
<use x="208.122142" y="19.04161" xlink:href="#c"/>
<use x="211.230142" y="19.04161" xlink:href="#d"/>
<use x="215.241142" y="19.04161" xlink:href="#h"/>
<use x="216.991142" y="19.04161" xlink:href="#o"/>
<use x="223.200142" y="19.04161" xlink:href="#g"/>
<use x="226.994142" y="19.04161" xlink:href="#f"/>
<use x="231.068142" y="19.04161" xlink:href="#b"/>
<use x="232.881142" y="19.04161" xlink:href="#ab"/>
<use x="235.051142" y="19.04161" xlink:href="#d"/>
<use x="239.062142" y="19.04161" xlink:href="#c"/>
<use x="242.169556" y="19.04161" xlink:href="#e"/>
<use x="244.473072" y="19.04161" xlink:href="#g"/>
<use x="248.196125" y="19.04161" xlink:href="#e"/>
<use x="250.499125" y="19.04161" xlink:href="#b"/>
<use x="252.312125" y="19.04161" xlink:href="#a"/>
<use x="256.582125" y="19.04161" xlink:href="#f"/>
<use x="260.656125" y="19.04161" xlink:href="#c"/>
</g>
<path d="m431.5 23.25h-86.25v-23h86.25v23" fill="#fef0ca"/>
<path transform="matrix(.1 0 0 -.1 0 282.7)" d="m4315 2595h-862.5v230h862.5z" fill="none" stroke="#231f1f" stroke-width="5"/>
<g fill="#231f1f">
<use x="358.076" y="10.155" xlink:href="#t"/>
<use x="359.972487" y="10.155" xlink:href="#c"/>
<use x="363.080487" y="10.155" xlink:href="#a"/>
<use x="367.350487" y="10.155" xlink:href="#i"/>
<use x="369.170995" y="10.155" xlink:href="#g"/>
<use x="372.901079" y="10.155" xlink:href="#e"/>
<use x="375.204787" y="10.155" xlink:href="#d"/>
<use x="379.215787" y="10.155" xlink:href="#j"/>
<use x="383.660787" y="10.155" xlink:href="#h"/>
<use x="385.410787" y="10.155" xlink:href="#c"/>
<use x="388.518201" y="10.155" xlink:href="#g"/>
<use x="392.312201" y="10.155" xlink:href="#k"/>
<use x="395.770982" y="10.155" xlink:href="#l"/>
<use x="398.178786" y="10.155" xlink:href="#a"/>
<use x="402.448786" y="10.155" xlink:href="#b"/>
<use x="404.261786" y="10.155" xlink:href="#i"/>
<use x="406.081127" y="10.155" xlink:href="#b"/>
<use x="407.894127" y="10.155" xlink:href="#b"/>
<use x="409.707127" y="10.155" xlink:href="#e"/>
<use x="412.010127" y="10.155" xlink:href="#b"/>
<use x="413.823127" y="10.155" xlink:href="#c"/>
<use x="416.930541" y="10.155" xlink:href="#h"/>
<use x="368.7787" y="18.555" xlink:href="#a"/>
<use x="373.0487" y="18.555" xlink:href="#l"/>
<use x="375.5827" y="18.555" xlink:href="#h"/>
<use x="377.3327" y="18.555" xlink:href="#d"/>
<use x="381.3437" y="18.555" xlink:href="#f"/>
<use x="385.4177" y="18.555" xlink:href="#e"/>
<use x="387.7207" y="18.555" xlink:href="#s"/>
<use x="391.8087" y="18.555" xlink:href="#d"/>
<use x="395.820408" y="18.555" xlink:href="#c"/>
<use x="398.927822" y="18.555" xlink:href="#b"/>
<use x="400.740822" y="18.555" xlink:href="#e"/>
<use x="403.043822" y="18.555" xlink:href="#b"/>
<use x="404.856822" y="18.555" xlink:href="#c"/>
</g>
<path d="m368.2 156h-51.75v-23h51.75v23" fill="#fef0ca"/>
<path transform="matrix(.1 0 0 -.1 0 282.7)" d="m3682 1268h-517.5v230h517.5z" fill="none" stroke="#231f1f" stroke-width="5"/>
<g fill="#231f1f">
<use x="323.909" y="142.892" xlink:href="#y"/>
<use x="328.787901" y="142.892" xlink:href="#a"/>
<use x="333.057901" y="142.892" xlink:href="#f"/>
<use x="337.131901" y="142.892" xlink:href="#e"/>
<use x="339.434901" y="142.892" xlink:href="#b"/>
<use x="341.247901" y="142.892" xlink:href="#f"/>
<use x="345.321144" y="142.892" xlink:href="#m"/>
<use x="349.395144" y="142.892" xlink:href="#a"/>
<use x="353.665144" y="142.892" xlink:href="#m"/>
<use x="357.739144" y="142.892" xlink:href="#c"/>
<use x="330.02697" y="151.292" xlink:href="#n"/>
<use x="335.43097" y="151.292" xlink:href="#p"/>
<use x="339.413384" y="151.292" xlink:href="#r"/>
<use x="344.390921" y="151.292" xlink:href="#t"/>
<use x="346.287408" y="151.292" xlink:href="#v"/>
<use x="351.614408" y="151.292" xlink:href="#c"/>
</g>
<path d="m121 219.2h-51.75v-23h51.75v23" fill="#fef0ca"/>
<path transform="matrix(.1 0 0 -.1 0 282.7)" d="m1210 635h-517.5v230h517.5z" fill="none" stroke="#231f1f" stroke-width="5"/>
<g fill="#231f1f">
<use x="78.143" y="206.142" xlink:href="#p"/>
<use x="82.048858" y="206.142" xlink:href="#u"/>
<use x="85.576858" y="206.142" xlink:href="#o"/>
<use x="91.785858" y="206.142" xlink:href="#q"/>
<use x="96.223357" y="206.142" xlink:href="#e"/>
<use x="98.526357" y="206.142" xlink:href="#a"/>
<use x="102.796357" y="206.142" xlink:href="#o"/>
<use x="109.005357" y="206.142" xlink:href="#c"/>
<use x="76.93909" y="214.542" xlink:href="#k"/>
<use x="80.39709" y="214.542" xlink:href="#a"/>
<use x="84.66709" y="214.542" xlink:href="#f"/>
<use x="88.74109" y="214.542" xlink:href="#e"/>
<use x="91.043388" y="214.542" xlink:href="#l"/>
<use x="93.45862" y="214.542" xlink:href="#a"/>
<use x="97.72862" y="214.542" xlink:href="#i"/>
<use x="99.54862" y="214.542" xlink:href="#i"/>
<use x="101.369169" y="214.542" xlink:href="#d"/>
<use x="105.380169" y="214.542" xlink:href="#j"/>
<use x="109.825169" y="214.542" xlink:href="#z"/>
</g>
<path d="m276.2 69.74h-97.75v-23h97.75v23" fill="#fef0ca"/>
<path transform="matrix(.1 0 0 -.1 0 282.7)" d="m2762 2130h-977.5v230h977.5z" fill="none" stroke="#231f1f" stroke-width="5"/>
<g fill="#231f1f">
<use x="189.005" y="56.642" xlink:href="#am"/>
<use x="192.721794" y="56.642" xlink:href="#d"/>
<use x="196.732794" y="56.642" xlink:href="#l"/>
<use x="199.266794" y="56.642" xlink:href="#b"/>
<use x="201.079794" y="56.642" xlink:href="#q"/>
<use x="205.517794" y="56.642" xlink:href="#s"/>
<use x="209.605794" y="56.642" xlink:href="#d"/>
<use x="213.617307" y="56.642" xlink:href="#l"/>
<use x="216.060267" y="56.642" xlink:href="#g"/>
<use x="219.854267" y="56.642" xlink:href="#i"/>
<use x="221.674267" y="56.642" xlink:href="#ai"/>
<use x="223.914267" y="56.642" xlink:href="#q"/>
<use x="228.352267" y="56.642" xlink:href="#l"/>
<use x="230.766321" y="56.642" xlink:href="#d"/>
<use x="234.777321" y="56.642" xlink:href="#j"/>
<use x="239.222321" y="56.642" xlink:href="#a"/>
<use x="243.492321" y="56.642" xlink:href="#o"/>
<use x="249.701321" y="56.642" xlink:href="#b"/>
<use x="251.514321" y="56.642" xlink:href="#f"/>
<use x="255.588321" y="56.642" xlink:href="#g"/>
<use x="259.382321" y="56.642" xlink:href="#f"/>
<use x="263.456321" y="56.642" xlink:href="#e"/>
<use x="215.248" y="65.04161" xlink:href="#j"/>
<use x="219.693" y="65.04161" xlink:href="#b"/>
<use x="221.506" y="65.04161" xlink:href="#c"/>
<use x="224.614" y="65.04161" xlink:href="#d"/>
<use x="228.582739" y="65.04161" xlink:href="#g"/>
<use x="232.376739" y="65.04161" xlink:href="#c"/>
<use x="235.484739" y="65.04161" xlink:href="#d"/>
</g>
<path transform="matrix(.1 0 0 -.1 0 282.7)" d="m2762 2702h632.5" fill="none" stroke="#231f1f" stroke-width="5"/>
<path d="m343.1 12.55c-1.703 0.6289-3.816 1.711-5.129 2.852l1.031-2.852-1.031-2.855c1.312 1.145 3.426 2.223 5.129 2.855" fill="#231f1f"/>
<path transform="matrix(.1 0 0 -.1 0 282.7)" d="m1038 2702h690" fill="none" stroke="#231f1f" stroke-width="5"/>
<path d="m176.4 12.55c-1.703 0.6289-3.816 1.711-5.129 2.852l1.031-2.852-1.031-2.855c1.312 1.145 3.426 2.223 5.129 2.855" fill="#231f1f"/>
<path transform="matrix(.1 0 0 -.1 0 282.7)" d="m2274 2590v-172.5" fill="none" stroke="#231f1f" stroke-width="5"/>
<path d="m227.4 44.61c-0.6328-1.703-1.711-3.816-2.855-5.125l2.855 1.031 2.852-1.031c-1.141 1.309-2.223 3.422-2.852 5.125" fill="#231f1f"/>
<path transform="matrix(.1 0 0 -.1 0 282.7)" d="m3884 2590v-172.5" fill="none" stroke="#231f1f" stroke-width="5"/>
<path d="m388.4 44.61c-0.6328-1.703-1.711-3.816-2.855-5.125l2.855 1.031 2.852-1.031c-1.145 1.309-2.223 3.422-2.852 5.125" fill="#231f1f"/>
<path transform="matrix(.1 0 0 -.1 0 282.7)" d="m2274 2130v-172.5" fill="none" stroke="#231f1f" stroke-width="5"/>
<path d="m227.4 90.61c-0.6289-1.703-1.711-3.816-2.852-5.125l2.852 1.031 2.855-1.031c-1.145 1.309-2.223 3.422-2.855 5.125" fill="#231f1f"/>
<path transform="matrix(.1 0 0 -.1 0 282.7)" d="m3884 2188v-172.5" fill="none" stroke="#231f1f" stroke-width="5"/>
<path d="m388.4 84.86c-0.6289-1.703-1.707-3.816-2.852-5.125l2.852 1.031 2.855-1.031c-1.145 1.309-2.223 3.422-2.855 5.125" fill="#231f1f"/>
<path transform="matrix(.1 0 0 -.1 0 282.7)" d="m2274 1728v-172.5" fill="none" stroke="#231f1f" stroke-width="5"/>
<path d="m227.4 130.9c-0.6328-1.703-1.711-3.816-2.855-5.125l2.855 1.031 2.852-1.031c-1.141 1.309-2.223 3.422-2.852 5.125" fill="#231f1f"/>
<path transform="matrix(.1 0 0 -.1 0 282.7)" d="m606.5 2015v-172.5" fill="none" stroke="#231f1f" stroke-width="5"/>
<path d="m60.65 102.1c-0.6328-1.703-1.711-3.816-2.855-5.125l2.855 1.031 2.852-1.031c-1.141 1.309-2.223 3.422-2.852 5.125" fill="#231f1f"/>
<path transform="matrix(.1 0 0 -.1 0 282.7)" d="m951 1095v-172.5" fill="none" stroke="#231f1f" stroke-width="5"/>
<path d="m95.1 194.1c-0.6289-1.703-1.711-3.816-2.852-5.125l2.852 1.031 2.855-1.031c-1.145 1.309-2.223 3.422-2.855 5.125" fill="#231f1f"/>
<g fill="#231f1f">
<use x="328.332" y="121.49" xlink:href="#w"/>
<use x="332.049195" y="121.49" xlink:href="#d"/>
<use x="336.060195" y="121.49" xlink:href="#c"/>
<use x="438.162195" y="121.49" xlink:href="#n"/>
<use x="443.566195" y="121.49" xlink:href="#a"/>
</g>
<path d="m52 173.2h-51.75v-23h51.75v23" fill="#fef0ca"/>
<path transform="matrix(.1 0 0 -.1 0 282.7)" d="m520 1095h-517.5v230h517.5z" fill="none" stroke="#231f1f" stroke-width="5"/>
<g fill="#231f1f">
<use x="7.65938" y="160.142" xlink:href="#y"/>
<use x="12.538286" y="160.142" xlink:href="#a"/>
<use x="16.808286" y="160.142" xlink:href="#f"/>
<use x="20.882286" y="160.142" xlink:href="#e"/>
<use x="23.185286" y="160.142" xlink:href="#b"/>
<use x="24.997786" y="160.142" xlink:href="#f"/>
<use x="29.071786" y="160.142" xlink:href="#m"/>
<use x="33.145786" y="160.142" xlink:href="#a"/>
<use x="37.415786" y="160.142" xlink:href="#m"/>
<use x="41.489786" y="160.142" xlink:href="#c"/>
<use x="13.77735" y="168.542" xlink:href="#n"/>
<use x="19.18135" y="168.542" xlink:href="#p"/>
<use x="23.16435" y="168.542" xlink:href="#r"/>
<use x="28.14135" y="168.542" xlink:href="#t"/>
<use x="30.03835" y="168.542" xlink:href="#v"/>
<use x="35.36535" y="168.542" xlink:href="#c"/>
</g>
<path d="m207.2 202h-51.75v-23h51.75v23" fill="#fef0ca"/>
<path transform="matrix(.1 0 0 -.1 0 282.7)" d="m2072 807.5h-517.5v230h517.5z" fill="none" stroke="#231f1f" stroke-width="5"/>
<g fill="#231f1f">
<use x="162.909" y="188.892" xlink:href="#y"/>
<use x="167.787901" y="188.892" xlink:href="#a"/>
<use x="172.057901" y="188.892" xlink:href="#f"/>
<use x="176.131901" y="188.892" xlink:href="#e"/>
<use x="178.434901" y="188.892" xlink:href="#b"/>
<use x="180.2474" y="188.892" xlink:href="#f"/>
<use x="184.3214" y="188.892" xlink:href="#m"/>
<use x="188.3954" y="188.892" xlink:href="#a"/>
<use x="192.6654" y="188.892" xlink:href="#m"/>
<use x="196.7394" y="188.892" xlink:href="#c"/>
<use x="169.02697" y="197.292" xlink:href="#n"/>
<use x="174.43097" y="197.292" xlink:href="#p"/>
<use x="178.41397" y="197.292" xlink:href="#r"/>
<use x="183.39097" y="197.292" xlink:href="#t"/>
<use x="185.28797" y="197.292" xlink:href="#v"/>
<use x="190.61497" y="197.292" xlink:href="#c"/>
</g>
<path d="m121 173.2h-51.75v-23h51.75v23" fill="#fef0ca"/>
<path transform="matrix(.1 0 0 -.1 0 282.7)" d="m1210 1095h-517.5v230h517.5z" fill="none" stroke="#231f1f" stroke-width="5"/>
<g fill="#231f1f">
<use x="80.7191" y="160.142" xlink:href="#r"/>
<use x="85.6961" y="160.142" xlink:href="#j"/>
<use x="90.1411" y="160.142" xlink:href="#j"/>
<use x="94.5861" y="160.142" xlink:href="#h"/>
<use x="96.175553" y="160.142" xlink:href="#ae"/>
<use x="100.158553" y="160.142" xlink:href="#n"/>
<use x="105.562553" y="160.142" xlink:href="#ad"/>
<use x="81.544881" y="168.542" xlink:href="#b"/>
<use x="83.357881" y="168.542" xlink:href="#f"/>
<use x="87.431881" y="168.542" xlink:href="#s"/>
<use x="91.519881" y="168.542" xlink:href="#b"/>
<use x="93.332881" y="168.542" xlink:href="#x"/>
<use x="97.784881" y="168.542" xlink:href="#b"/>
<use x="99.597881" y="168.542" xlink:href="#e"/>
<use x="101.900881" y="168.542" xlink:href="#a"/>
<use x="106.170881" y="168.542" xlink:href="#l"/>
</g>
<path d="m86.5 271h-63.25v-23h63.25v23" fill="#fef0ca"/>
<path transform="matrix(.1 0 0 -.1 0 282.7)" d="m865 117.5h-632.5v230h632.5z" fill="none" stroke="#231f1f" stroke-width="5"/>
<g fill="#231f1f">
<use x="32.657" y="257.892" xlink:href="#y"/>
<use x="37.535906" y="257.892" xlink:href="#a"/>
<use x="41.805906" y="257.892" xlink:href="#f"/>
<use x="45.879906" y="257.892" xlink:href="#e"/>
<use x="48.182906" y="257.892" xlink:href="#b"/>
<use x="49.995406" y="257.892" xlink:href="#f"/>
<use x="54.069406" y="257.892" xlink:href="#m"/>
<use x="58.143406" y="257.892" xlink:href="#d"/>
<use x="62.154441" y="257.892" xlink:href="#h"/>
<use x="63.736472" y="257.892" xlink:href="#ae"/>
<use x="67.719472" y="257.892" xlink:href="#n"/>
<use x="73.123472" y="257.892" xlink:href="#ad"/>
<use x="41.29528" y="266.292" xlink:href="#b"/>
<use x="43.10828" y="266.292" xlink:href="#f"/>
<use x="47.18228" y="266.292" xlink:href="#s"/>
<use x="51.27028" y="266.292" xlink:href="#b"/>
<use x="53.08328" y="266.292" xlink:href="#x"/>
<use x="57.53528" y="266.292" xlink:href="#b"/>
<use x="59.34828" y="266.292" xlink:href="#e"/>
<use x="61.65128" y="266.292" xlink:href="#a"/>
<use x="65.92128" y="266.292" xlink:href="#l"/>
</g>
<path d="m270.5 248h-74.75v-23h74.75v23" fill="#fef0ca"/>
<path transform="matrix(.1 0 0 -.1 0 282.7)" d="m2705 347.5h-747.5v230h747.5z" fill="none" stroke="#231f1f" stroke-width="5"/>
<g fill="#231f1f">
<use x="200.691" y="234.892" xlink:href="#ah"/>
<use x="204.14881" y="234.892" xlink:href="#a"/>
<use x="208.41881" y="234.892" xlink:href="#k"/>
<use x="211.87681" y="234.892" xlink:href="#g"/>
<use x="215.67081" y="234.892" xlink:href="#i"/>
<use x="217.49081" y="234.892" xlink:href="#h"/>
<use x="219.24081" y="234.892" xlink:href="#ag"/>
<use x="223.66481" y="234.892" xlink:href="#i"/>
<use x="225.48481" y="234.892" xlink:href="#m"/>
<use x="229.55881" y="234.892" xlink:href="#k"/>
<use x="233.01681" y="234.892" xlink:href="#a"/>
<use x="237.28681" y="234.892" xlink:href="#k"/>
<use x="240.74481" y="234.892" xlink:href="#a"/>
<use x="245.01483" y="234.892" xlink:href="#l"/>
<use x="247.464821" y="234.892" xlink:href="#e"/>
<use x="249.767821" y="234.892" xlink:href="#b"/>
<use x="251.580821" y="234.892" xlink:href="#k"/>
<use x="255.038821" y="234.892" xlink:href="#a"/>
<use x="259.308821" y="234.892" xlink:href="#b"/>
<use x="261.121821" y="234.892" xlink:href="#j"/>
<use x="217.75" y="243.292" xlink:href="#b"/>
<use x="219.563" y="243.292" xlink:href="#f"/>
<use x="223.637" y="243.292" xlink:href="#ac"/>
<use x="225.457" y="243.292" xlink:href="#d"/>
<use x="229.468" y="243.292" xlink:href="#k"/>
<use x="232.926" y="243.292" xlink:href="#e"/>
<use x="235.229" y="243.292" xlink:href="#b"/>
<use x="237.042" y="243.292" xlink:href="#a"/>
<use x="241.312" y="243.292" xlink:href="#f"/>
<use x="245.386" y="243.292" xlink:href="#c"/>
<use x="12.034" y="138.74" xlink:href="#w"/>
<use x="15.750798" y="138.74" xlink:href="#d"/>
<use x="19.761798" y="138.74" xlink:href="#c"/>
<use x="98.910098" y="138.74" xlink:href="#n"/>
<use x="104.314098" y="138.74" xlink:href="#a"/>
<use x="167.329" y="167.4888" xlink:href="#w"/>
<use x="171.046182" y="167.4888" xlink:href="#d"/>
<use x="175.057182" y="167.4888" xlink:href="#c"/>
<use x="277.159182" y="167.4888" xlink:href="#n"/>
<use x="282.563182" y="167.4888" xlink:href="#a"/>
<use x="219.0802" y="213.4861" xlink:href="#w"/>
<use x="222.797004" y="213.4861" xlink:href="#d"/>
<use x="226.808004" y="213.4861" xlink:href="#c"/>
<use x="317.409004" y="213.4861" xlink:href="#n"/>
<use x="322.813004" y="213.4861" xlink:href="#a"/>
<use x="40.8252" y="236.4881" xlink:href="#w"/>
<use x="44.541998" y="236.4881" xlink:href="#d"/>
<use x="48.552998" y="236.4881" xlink:href="#c"/>
<use x="139.153298" y="236.4881" xlink:href="#n"/>
<use x="144.557298" y="236.4881" xlink:href="#a"/>
</g>
<path transform="matrix(.1 0 0 -.1 0 282.7)" d="m3884 1785v-110.2" fill="none" stroke="#231f1f" stroke-width="5"/>
<path transform="matrix(.1 0 0 -.1 0 282.7)" d="m3424 1556v120h919.5v-120" fill="none" stroke="#231f1f" stroke-width="5"/>
<path d="m434.4 130.8c-0.6289-1.703-1.707-3.816-2.852-5.125l2.852 1.027 2.855-1.027c-1.145 1.309-2.223 3.422-2.855 5.125" fill="#231f1f"/>
<path d="m342.4 130.8c-0.6328-1.703-1.711-3.816-2.855-5.125l2.855 1.027 2.852-1.027c-1.145 1.309-2.223 3.422-2.852 5.125" fill="#231f1f"/>
<path transform="matrix(.1 0 0 -.1 0 282.7)" d="m2274 1325v-110.2" fill="none" stroke="#231f1f" stroke-width="5"/>
<path transform="matrix(.1 0 0 -.1 0 282.7)" d="m1814 1096v120h919.5v-120" fill="none" stroke="#231f1f" stroke-width="5"/>
<path d="m273.4 176.8c-0.6289-1.703-1.711-3.816-2.852-5.125l2.852 1.027 2.855-1.027c-1.145 1.309-2.223 3.422-2.855 5.125" fill="#231f1f"/>
<path d="m181.4 176.8c-0.6328-1.703-1.711-3.816-2.855-5.125l2.855 1.027 2.852-1.027c-1.141 1.309-2.223 3.422-2.852 5.125" fill="#231f1f"/>
<path transform="matrix(.1 0 0 -.1 0 282.7)" d="m2734 865v-110.2" fill="none" stroke="#231f1f" stroke-width="5"/>
<path transform="matrix(.1 0 0 -.1 0 282.7)" d="m2331 636.1v120h804.6v-120" fill="none" stroke="#231f1f" stroke-width="5"/>
<path d="m313.6 222.8c-0.6328-1.703-1.711-3.816-2.852-5.125l2.852 1.027 2.855-1.027c-1.145 1.309-2.223 3.422-2.855 5.125" fill="#231f1f"/>
<path d="m233.1 222.8c-0.6289-1.703-1.711-3.816-2.852-5.125l2.852 1.027 2.855-1.027c-1.145 1.309-2.223 3.422-2.855 5.125" fill="#231f1f"/>
<path transform="matrix(.1 0 0 -.1 0 282.7)" d="m951.9 635v-110.2" fill="none" stroke="#231f1f" stroke-width="5"/>
<path transform="matrix(.1 0 0 -.1 0 282.7)" d="m549 406.1v120h805v-120" fill="none" stroke="#231f1f" stroke-width="5"/>
<path d="m135.4 245.8c-0.6289-1.703-1.707-3.816-2.852-5.125l2.852 1.027 2.855-1.027c-1.145 1.309-2.223 3.422-2.855 5.125" fill="#231f1f"/>
<path d="m54.9 245.8c-0.6328-1.703-1.711-3.816-2.855-5.125l2.855 1.027 2.852-1.027c-1.141 1.309-2.223 3.422-2.852 5.125" fill="#231f1f"/>
<path transform="matrix(.1 0 0 -.1 0 282.7)" d="m606.9 1613v-110.2" fill="none" stroke="#231f1f" stroke-width="5"/>
<path transform="matrix(.1 0 0 -.1 0 282.7)" d="m261.5 1384v120h690v-120" fill="none" stroke="#231f1f" stroke-width="5"/>
<path d="m95.15 148c-0.6328-1.703-1.715-3.816-2.855-5.125l2.855 1.027 2.852-1.027c-1.145 1.309-2.223 3.422-2.852 5.125" fill="#231f1f"/>
<path d="m26.15 148c-0.6328-1.703-1.711-3.816-2.855-5.125l2.855 1.027 2.852-1.027c-1.141 1.309-2.223 3.422-2.852 5.125" fill="#231f1f"/>
</svg>
