<?xml version="1.0" encoding="UTF-8"?>
<svg width="238.3pt" height="152.9pt" version="1.1" viewBox="0 0 238.3 152.9" xmlns="http://www.w3.org/2000/svg">
<defs>
<clipPath id="e">
<path d="m141 146h3v6.91h-3z"/>
</clipPath>
<clipPath id="d">
<path d="m154 146h4v6.91h-4z"/>
</clipPath>
<clipPath id="c">
<path d="m169 146h4v6.91h-4z"/>
</clipPath>
<clipPath id="b">
<path d="m200 146h3v6.91h-3z"/>
</clipPath>
<clipPath id="a">
<path d="m234 134h4.262v6h-4.262z"/>
</clipPath>
</defs>
<path d="m1.668 120.1c-0.2617 0.2031-0.4297 0.5742-0.4297 0.8828 0 0.3086 0.1055 0.6914 0.5 0.6914 0.3281 0 0.4336-0.293 0.582-0.7617 0.2148-0.6719 0.5039-1.543 1.488-1.543 1.145 0 1.652 0.918 1.652 1.898 0 0.7109-0.2578 1.422-0.7109 1.855l-0.8008-0.7812c0.3008-0.2383 0.5273-0.6797 0.5273-1.074 0-0.3633-0.1406-0.6836-0.5391-0.6836-0.3789 0-0.5 0.375-0.707 1.027-0.2031 0.6328-0.5273 1.27-1.422 1.27-1.102 0-1.559-0.9961-1.559-1.922 0-0.5586 0.2109-1.188 0.6094-1.625l0.8086 0.7656" fill="#231f1f"/>
<path d="m3.195 116.3c-0.3672 0-0.668 0.2305-0.668 0.6836 0 0.4414 0.3086 0.7656 0.668 0.793zm0.7109-1.051v2.527c0.3867-0.03516 0.6602-0.4219 0.6602-0.832 0-0.3672-0.1523-0.6172-0.3633-0.7734l0.5039-0.7969c0.4766 0.3281 0.7422 0.875 0.7422 1.582 0 1.051-0.6641 1.918-1.844 1.918-1.141 0-1.867-0.8242-1.867-1.883 0-1.031 0.707-1.75 1.898-1.75 0.08984 0 0.1875 0 0.2695 0.007813" fill="#231f1f"/>
<path d="m2.789 112.2c-0.02734 0.1055-0.03516 0.2031-0.03516 0.2969 0 0.6133 0.5039 0.8164 0.7891 0.8164h1.793v1.152h-3.488v-1.109h0.5078v-0.01172c-0.3516-0.1758-0.6055-0.5195-0.6055-0.9453 0-0.09375 0.007812-0.1914 0.02734-0.2461l1.012 0.04688" fill="#231f1f"/>
<path d="m5.336 109.4h-0.4805v0.01172c0.3047 0.1641 0.5781 0.5625 0.5781 1.051 0 0.9414-0.7266 1.27-1.426 1.27h-2.16v-1.156h1.891c0.3945 0 0.7422-0.09766 0.7422-0.5195 0-0.3984-0.3477-0.6133-0.7461-0.6133h-1.887v-1.152h3.488v1.109" fill="#231f1f"/>
<path d="m5.336 103h-1.906c-0.3984 0-0.7344 0.09375-0.7344 0.5 0 0.3906 0.3672 0.5781 0.7578 0.5781h1.883v1.152h-1.988c-0.3984 0-0.6523 0.1523-0.6523 0.4961 0 0.3633 0.332 0.5742 0.75 0.5742h1.891v1.156h-3.488v-1.113h0.4844v-0.01562c-0.293-0.1602-0.582-0.5195-0.582-1.043 0-0.5039 0.2188-0.8555 0.5977-1.051-0.3672-0.2305-0.5977-0.5977-0.5977-1.113 0-0.9453 0.7695-1.27 1.43-1.27h2.156v1.148" fill="#231f1f"/>
<path d="m2.977 96.82c-0.168 0.125-0.2812 0.3789-0.2812 0.6094 0 0.4844 0.4141 0.8047 0.8984 0.8047 0.4805 0 0.8867-0.3164 0.8867-0.8203 0-0.2305-0.08984-0.4805-0.2578-0.6211l0.7773-0.6406c0.2812 0.2891 0.4492 0.7812 0.4492 1.289 0 1.102-0.6992 1.957-1.855 1.957-1.137 0-1.855-0.8633-1.855-1.949 0-0.4961 0.1875-1.023 0.4688-1.297l0.7695 0.668" fill="#231f1f"/>
<path d="m2.789 93.44c-0.02734 0.1055-0.03516 0.2031-0.03516 0.2969 0 0.6133 0.5039 0.8164 0.7891 0.8164h1.793v1.148h-3.488v-1.105h0.5078v-0.01172c-0.3516-0.1758-0.6055-0.5195-0.6055-0.9453 0-0.09375 0.007812-0.1914 0.02734-0.2461l1.012 0.04688" fill="#231f1f"/>
<path d="m3.195 90.65c-0.3672 0-0.668 0.2305-0.668 0.6875 0 0.4414 0.3086 0.7617 0.668 0.7891zm0.7109-1.051v2.527c0.3867-0.03516 0.6602-0.418 0.6602-0.832 0-0.3633-0.1523-0.6172-0.3633-0.7695l0.5039-0.8008c0.4766 0.332 0.7422 0.8789 0.7422 1.586 0 1.051-0.6641 1.918-1.844 1.918-1.141 0-1.867-0.8281-1.867-1.883 0-1.031 0.707-1.754 1.898-1.754 0.08984 0 0.1875 0 0.2695 0.007812" fill="#231f1f"/>
<path d="m3.816 86.87v0.1445c0 0.5039 0.0625 1.074 0.4766 1.074 0.2656 0 0.3555-0.2695 0.3555-0.5 0-0.4609-0.2773-0.7188-0.7109-0.7188zm-1.492 2.105c-0.3828-0.4062-0.5859-0.9844-0.5859-1.555 0-1.168 0.5742-1.602 1.84-1.602h1.758v1.051h-0.3711v0.01953c0.2891 0.1758 0.457 0.5742 0.457 0.9883 0 0.5508-0.2734 1.266-1.094 1.266-1.008 0-1.176-1.223-1.176-2.238h-0.05859c-0.3398 0-0.5039 0.2734-0.5039 0.6289 0 0.3281 0.1641 0.6523 0.3594 0.8633l-0.625 0.5781" fill="#231f1f"/>
<path d="m2.711 83.79h1.332c0.3203 0 0.4883-0.1055 0.4883-0.4336 0-0.1133-0.01953-0.25-0.05469-0.3359l0.8398-0.01562c0.05469 0.1562 0.1055 0.4219 0.1055 0.668 0 0.9297-0.4961 1.238-1.242 1.238h-1.469v0.5625h-0.8633v-0.5547h-0.9141v-1.129h0.9141v-0.8164h0.8633v0.8164" fill="#231f1f"/>
<path d="m5.336 82.41h-3.488v-1.148h3.488zm-3.969-0.5742c0 0.3711-0.2891 0.6602-0.6328 0.6602-0.3359 0-0.6289-0.2891-0.6289-0.6602 0-0.3633 0.2812-0.6562 0.6289-0.6562 0.3594 0 0.6328 0.293 0.6328 0.6562" fill="#231f1f"/>
<path d="m5.336 78.07h-1.906c-0.3828 0-0.7344 0.1055-0.7344 0.5195 0 0.4062 0.3516 0.6172 0.75 0.6172h1.891v1.152h-3.488v-1.113h0.4844v-0.01172c-0.3086-0.1602-0.582-0.5625-0.582-1.043 0-0.9414 0.7305-1.277 1.43-1.277h2.156v1.156" fill="#231f1f"/>
<path d="m5.336 76.03h-3.488v-1.148h3.488zm-3.969-0.5742c0 0.3711-0.2891 0.6562-0.6328 0.6562-0.3359 0-0.6289-0.2852-0.6289-0.6562 0-0.3633 0.2812-0.6602 0.6289-0.6602 0.3594 0 0.6328 0.2969 0.6328 0.6602" fill="#231f1f"/>
<path d="m5.336 71.68h-1.906c-0.3828 0-0.7344 0.1055-0.7344 0.5195 0 0.4023 0.3516 0.6133 0.75 0.6133h1.891v1.156h-3.488v-1.113h0.4844v-0.01562c-0.3086-0.1602-0.582-0.5586-0.582-1.043 0-0.9375 0.7305-1.273 1.43-1.273h2.156v1.156" fill="#231f1f"/>
<path d="m3.195 67.26c-0.3672 0-0.668 0.2305-0.668 0.6875 0 0.4414 0.3086 0.7617 0.668 0.793zm0.7109-1.051v2.531c0.3867-0.03516 0.6602-0.4219 0.6602-0.8359 0-0.3633-0.1523-0.6172-0.3633-0.7695l0.5039-0.7969c0.4766 0.3281 0.7422 0.875 0.7422 1.582 0 1.051-0.6641 1.918-1.844 1.918-1.141 0-1.867-0.8242-1.867-1.883 0-1.031 0.707-1.75 1.898-1.75 0.08984 0 0.1875 0 0.2695 0.003906" fill="#231f1f"/>
<path d="m6.5 62.95c-0.9102 0.6602-2.039 1.031-3.18 1.031-1.141 0-2.27-0.3711-3.18-1.031l0.3867-0.7812c0.8047 0.5859 1.777 0.9102 2.793 0.9102 1.016 0 1.988-0.3242 2.793-0.9102l0.3867 0.7812" fill="#231f1f"/>
<path d="m5.336 56.89h-1.906c-0.3984 0-0.7344 0.08984-0.7344 0.4961 0 0.3945 0.3672 0.582 0.7578 0.582h1.883v1.148h-1.988c-0.3984 0-0.6523 0.1562-0.6523 0.5 0 0.3633 0.332 0.5742 0.75 0.5742h1.891v1.152h-3.488v-1.113h0.4844v-0.01172c-0.293-0.1641-0.582-0.5195-0.582-1.043 0-0.5078 0.2188-0.8555 0.5977-1.051-0.3672-0.2344-0.5977-0.5977-0.5977-1.113 0-0.9492 0.7695-1.27 1.43-1.27h2.156v1.148" fill="#231f1f"/>
<path d="m2.688 53.12c0 0.5156 0.4023 0.8164 0.8828 0.8164 0.4648 0 0.8906-0.3008 0.8906-0.8164 0-0.5273-0.4141-0.8477-0.8906-0.8477-0.4766 0-0.8828 0.3281-0.8828 0.8477zm4.332 0.1094c0 0.6094-0.1992 1.324-0.5469 1.793l-0.8203-0.5742c0.293-0.3359 0.4414-0.7617 0.4414-1.156 0-0.6719-0.3945-0.9844-0.9727-0.9844h-0.2109v0.01953c0.2812 0.2188 0.4609 0.5938 0.4609 1.059 0 1.055-0.8242 1.664-1.793 1.664-0.9648 0-1.828-0.6094-1.828-1.66 0-0.4336 0.1758-0.8672 0.5469-1.113v-0.01172h-0.4492v-1.086h3.16c1.367 0 2.012 0.8125 2.012 2.051" fill="#231f1f"/>
<path d="m5.699 49.98-0.2578 0.793-5.441-2.164 0.2734-0.793 5.426 2.164" fill="#231f1f"/>
<path d="m2.688 45.61c0 0.5469 0.4453 0.8242 0.8906 0.8242 0.457 0 0.9023-0.2773 0.9023-0.8242 0-0.5195-0.4375-0.8398-0.8945-0.8398-0.4414 0-0.8984 0.3203-0.8984 0.8398zm2.648-0.8828h-0.4531v0.01172c0.3477 0.2266 0.5508 0.6797 0.5508 1.145 0 1.051-0.8828 1.66-1.855 1.66s-1.828-0.6328-1.828-1.648c0-0.5078 0.2383-0.8672 0.4688-1.062v-0.01562h-2.176v-1.148h5.293v1.059" fill="#231f1f"/>
<path d="m5.336 42.7h-4.957v-1.203h3.914v-1.918h1.043v3.121" fill="#231f1f"/>
<path d="m6.43 37.57h-6.219v-1.512h0.7148v0.6211h4.789v-0.6211h0.7148v1.512" fill="#231f1f"/>
<path d="m1.848 33.79h1.738c0.3164 0 0.8672-0.07031 0.8672-0.5391s-0.3555-0.6367-0.7773-0.6367h-1.828v-1.137h3.488v1.086h-0.3984v0.007813c0.2461 0.1406 0.4492 0.3633 0.4492 0.7773 0 0.168-0.05078 0.3438-0.1406 0.4414h1.672v1.137h-5.07v-1.137" fill="#231f1f"/>
<path d="m5.336 25.98h-1.906c-0.3984 0-0.7344 0.09375-0.7344 0.5 0 0.3906 0.3672 0.582 0.7578 0.582h1.883v1.148h-1.988c-0.3984 0-0.6523 0.1523-0.6523 0.4961 0 0.3633 0.332 0.5742 0.75 0.5742h1.891v1.156h-3.488v-1.113h0.4844v-0.01562c-0.293-0.1602-0.582-0.5156-0.582-1.043 0-0.5039 0.2188-0.8555 0.5977-1.051-0.3672-0.2305-0.5977-0.5938-0.5977-1.113 0-0.9453 0.7695-1.266 1.43-1.266h2.156v1.145" fill="#231f1f"/>
<path d="m2.688 22.21c0 0.5391 0.4453 0.8203 0.8906 0.8203 0.4492 0 0.9023-0.2891 0.9023-0.8281 0-0.5391-0.4531-0.8242-0.9023-0.8242-0.4453 0-0.8906 0.293-0.8906 0.832zm2.762 0c0 1.051-0.7305 1.934-1.871 1.934s-1.84-0.8828-1.84-1.934c0-1.059 0.6992-1.941 1.84-1.941s1.871 0.8828 1.871 1.941" fill="#231f1f"/>
<path d="m5.336 19.54h-5.293v-1.164h5.293v1.164" fill="#231f1f"/>
<path d="m5.699 17.17-0.2578 0.793-5.441-2.164 0.2734-0.793 5.426 2.164" fill="#231f1f"/>
<path d="m5.336 14.5h-4.957v-1.207h3.914v-1.918h1.043v3.125" fill="#231f1f"/>
<path d="m6.43 10.81h-0.7148v-0.6211h-4.789v0.6211h-0.7148v-1.512h6.219v1.512" fill="#231f1f"/>
<path d="m6.5 7.77-0.3867 0.7812c-0.8047-0.5859-1.777-0.9102-2.793-0.9102-1.016 0-1.988 0.3242-2.793 0.9102l-0.3867-0.7812c0.9102-0.6602 2.039-1.031 3.18-1.031 1.141 0 2.27 0.3711 3.18 1.031" fill="#231f1f"/>
<path d="m58.34 151.9c-1.582 0-2.727-1.051-2.727-2.609 0-1.59 1.176-2.605 2.691-2.605 0.7773 0 1.496 0.2578 1.91 0.6562l-0.7539 0.8633c-0.2344-0.2656-0.6328-0.4609-1.113-0.4609-0.8438 0-1.457 0.6562-1.457 1.547 0 0.9102 0.5391 1.559 1.512 1.559 0.2812 0 0.5391-0.03906 0.75-0.1328v-0.9023h-0.9453v-0.9648h2.043v2.625c-0.4805 0.2539-1.148 0.4258-1.91 0.4258" fill="#231f1f"/>
<path d="m61.18 151.7v-5.293h1.164v5.293h-1.164" fill="#231f1f"/>
<path d="m65.01 149.1c-0.543 0-0.8203 0.4375-0.8203 0.8867s0.2852 0.9062 0.8242 0.9062c0.5391 0 0.8281-0.457 0.8281-0.9062s-0.2969-0.8867-0.832-0.8867zm0 2.758c-1.051 0-1.934-0.7266-1.934-1.871 0-1.141 0.8828-1.84 1.934-1.84 1.055 0 1.938 0.6992 1.938 1.84 0 1.145-0.8828 1.871-1.938 1.871" fill="#231f1f"/>
<path d="m72.12 151.7v-1.902c0-0.4023-0.08984-0.7383-0.4961-0.7383-0.3945 0-0.582 0.3672-0.582 0.7578v1.883h-1.148v-1.988c0-0.3984-0.1523-0.6523-0.4961-0.6523-0.3672 0-0.5742 0.332-0.5742 0.75v1.891h-1.156v-3.488h1.113v0.4844h0.01562c0.1602-0.293 0.5156-0.582 1.043-0.582 0.5039 0 0.8555 0.2188 1.051 0.5977 0.2305-0.3633 0.5938-0.5977 1.113-0.5977 0.9453 0 1.266 0.7734 1.266 1.43v2.156h-1.148" fill="#231f1f"/>
<path d="m76.54 149.6c0-0.3633-0.2344-0.6641-0.6875-0.6641-0.4414 0-0.7617 0.3086-0.793 0.6641zm1.051 0.7148h-2.531c0.03516 0.3867 0.4219 0.6602 0.8359 0.6602 0.3633 0 0.6172-0.1562 0.7695-0.3633l0.7969 0.5039c-0.3281 0.4766-0.875 0.7422-1.582 0.7422-1.051 0-1.918-0.668-1.918-1.84 0-1.145 0.8242-1.871 1.883-1.871 1.031 0 1.75 0.707 1.75 1.898 0 0.08984 0 0.1875-0.003906 0.2695" fill="#231f1f"/>
<path d="m80.57 149.2c-0.1055-0.02344-0.2031-0.03125-0.293-0.03125-0.6172 0-0.8203 0.5039-0.8203 0.7891v1.793h-1.148v-3.488h1.105v0.5078h0.01562c0.1719-0.3516 0.5156-0.6055 0.9453-0.6055 0.08984 0 0.1875 0.007813 0.2422 0.02734l-0.04688 1.008" fill="#231f1f"/>
<path d="m83.38 151.7v-0.4805h-0.01562c-0.1602 0.3047-0.5625 0.5781-1.051 0.5781-0.9375 0-1.27-0.7266-1.27-1.43v-2.156h1.156v1.891c0 0.3945 0.09766 0.7461 0.5195 0.7461 0.3984 0 0.6172-0.3516 0.6172-0.75v-1.887h1.148v3.488h-1.105" fill="#231f1f"/>
<path d="m85.39 151.7v-5.293h1.164v5.293h-1.164" fill="#231f1f"/>
<path d="m89.53 150.2h-0.1484c-0.5039 0-1.07 0.0625-1.07 0.4766 0 0.2656 0.2656 0.3594 0.4961 0.3594 0.4648 0 0.7227-0.2812 0.7227-0.7148zm-2.109-1.492c0.4062-0.3828 0.9883-0.5859 1.555-0.5859 1.172 0 1.605 0.5742 1.605 1.84v1.758h-1.051v-0.3711h-0.02344c-0.1719 0.2891-0.5742 0.457-0.9844 0.457-0.5547 0-1.27-0.2734-1.27-1.094 0-1.008 1.227-1.176 2.242-1.176v-0.05469c0-0.3438-0.2734-0.5039-0.6328-0.5039-0.3281 0-0.6484 0.1602-0.8594 0.3555l-0.582-0.625" fill="#231f1f"/>
<path d="m93.69 149.2c-0.1055-0.02344-0.2031-0.03125-0.293-0.03125-0.6172 0-0.8203 0.5039-0.8203 0.7891v1.793h-1.148v-3.488h1.105v0.5078h0.01562c0.1758-0.3516 0.5195-0.6055 0.9453-0.6055 0.08984 0 0.1875 0.007813 0.2461 0.02734l-0.05078 1.008" fill="#231f1f"/>
<path d="m98.54 151.7v-3.488h1.156v3.488zm0.582-3.969c-0.3711 0-0.6602-0.2891-0.6602-0.6328 0-0.3359 0.2891-0.6289 0.6602-0.6289 0.3555 0 0.6562 0.2812 0.6562 0.6289 0 0.3594-0.3008 0.6328-0.6562 0.6328zm-1.008-0.4766c-0.08594-0.03125-0.2031-0.05078-0.3164-0.05078-0.4219 0-0.5117 0.3359-0.5117 0.6602v0.3477h0.7773v0.8633h-0.7773v2.625h-1.148v-2.625h-0.6367v-0.8633h0.6367v-0.3359c0-0.8555 0.3359-1.602 1.5-1.602 0.1953 0 0.3984 0.01953 0.5508 0.07031l-0.07422 0.9102" fill="#231f1f"/>
<path d="m100.6 151.7v-5.293h1.16v5.293h-1.16" fill="#231f1f"/>
<path d="m103.9 149.1v1.328c0 0.3242 0.1055 0.4922 0.4336 0.4922 0.1133 0 0.2539-0.01953 0.3398-0.05469l0.01172 0.8398c-0.1523 0.05469-0.418 0.1055-0.6641 0.1055-0.9336 0-1.242-0.5-1.242-1.238v-1.473h-0.5586v-0.8633h0.5547v-0.9141h1.125v0.9141h0.8203v0.8633h-0.8203" fill="#231f1f"/>
<path d="m107.6 149.2c-0.1055-0.02344-0.2031-0.03125-0.293-0.03125-0.6172 0-0.8203 0.5039-0.8203 0.7891v1.793h-1.148v-3.488h1.105v0.5078h0.01562c0.1758-0.3516 0.5156-0.6055 0.9453-0.6055 0.08984 0 0.1875 0.007813 0.2422 0.02734l-0.04688 1.008" fill="#231f1f"/>
<path d="m110 150.2h-0.1484c-0.5039 0-1.07 0.0625-1.07 0.4766 0 0.2656 0.2656 0.3594 0.4961 0.3594 0.4648 0 0.7227-0.2812 0.7227-0.7148zm-2.109-1.492c0.4062-0.3828 0.9883-0.5859 1.555-0.5859 1.172 0 1.605 0.5742 1.605 1.84v1.758h-1.051v-0.3711h-0.02344c-0.1719 0.2891-0.5703 0.457-0.9844 0.457-0.5547 0-1.27-0.2734-1.27-1.094 0-1.008 1.227-1.176 2.242-1.176v-0.05469c0-0.3438-0.2734-0.5039-0.6289-0.5039-0.332 0-0.6523 0.1602-0.8633 0.3555l-0.582-0.625" fill="#231f1f"/>
<path d="m113.1 149.1v1.328c0 0.3242 0.1055 0.4922 0.4336 0.4922 0.1133 0 0.2539-0.01953 0.3359-0.05469l0.01562 0.8398c-0.1523 0.05469-0.418 0.1055-0.6641 0.1055-0.9336 0-1.242-0.5-1.242-1.238v-1.473h-0.5586v-0.8633h0.5547v-0.9141h1.125v0.9141h0.8203v0.8633h-0.8203" fill="#231f1f"/>
<path d="m114.5 151.7v-3.488h1.148v3.488zm0.5742-3.969c-0.3711 0-0.6562-0.2891-0.6562-0.6328 0-0.3359 0.2852-0.6289 0.6562-0.6289 0.3672 0 0.6602 0.2812 0.6602 0.6289 0 0.3594-0.293 0.6328-0.6602 0.6328" fill="#231f1f"/>
<path d="m118.3 149.1c-0.5391 0-0.8164 0.4375-0.8164 0.8867s0.2852 0.9062 0.8242 0.9062c0.5391 0 0.8242-0.457 0.8242-0.9062s-0.293-0.8867-0.832-0.8867zm0 2.758c-1.051 0-1.934-0.7266-1.934-1.871 0-1.141 0.8828-1.84 1.934-1.84 1.059 0 1.941 0.6992 1.941 1.84 0 1.145-0.8828 1.871-1.941 1.871" fill="#231f1f"/>
<path d="m123.2 151.7v-1.902c0-0.3867-0.1055-0.7383-0.5195-0.7383-0.4062 0-0.6133 0.3516-0.6133 0.75v1.891h-1.156v-3.488h1.113v0.4844h0.01172c0.1602-0.3086 0.5625-0.582 1.043-0.582 0.9414 0 1.277 0.7305 1.277 1.43v2.156h-1.156" fill="#231f1f"/>
<path d="m129.3 149.2c-0.1055-0.02344-0.2031-0.03125-0.293-0.03125-0.6211 0-0.8242 0.5039-0.8242 0.7891v1.793h-1.145v-3.488h1.105v0.5078h0.01562c0.1719-0.3516 0.5156-0.6055 0.9414-0.6055 0.09375 0 0.1914 0.007813 0.2461 0.02734l-0.04687 1.008" fill="#231f1f"/>
<path d="m131.7 150.2h-0.1484c-0.5039 0-1.07 0.0625-1.07 0.4766 0 0.2656 0.2656 0.3594 0.4961 0.3594 0.4609 0 0.7227-0.2812 0.7227-0.7148zm-2.109-1.492c0.4062-0.3828 0.9883-0.5859 1.555-0.5859 1.172 0 1.602 0.5742 1.602 1.84v1.758h-1.047v-0.3711h-0.02344c-0.1758 0.2891-0.5742 0.457-0.9844 0.457-0.5547 0-1.27-0.2734-1.27-1.094 0-1.008 1.227-1.176 2.242-1.176v-0.05469c0-0.3438-0.2734-0.5039-0.6328-0.5039-0.3281 0-0.6523 0.1602-0.8594 0.3555l-0.582-0.625" fill="#231f1f"/>
<path d="m134.8 149.1v1.328c0 0.3242 0.1055 0.4922 0.4336 0.4922 0.1133 0 0.2539-0.01953 0.3359-0.05469l0.01562 0.8398c-0.1562 0.05469-0.4219 0.1055-0.6641 0.1055-0.9336 0-1.242-0.5-1.242-1.238v-1.473h-0.5586v-0.8633h0.5508v-0.9141h1.129v0.9141h0.8203v0.8633h-0.8203" fill="#231f1f"/>
<path d="m138.6 149.6c0-0.3633-0.2305-0.6641-0.6836-0.6641-0.4414 0-0.7656 0.3086-0.793 0.6641zm1.051 0.7148h-2.527c0.03516 0.3867 0.4219 0.6602 0.8359 0.6602 0.3633 0 0.6133-0.1562 0.7695-0.3633l0.7969 0.5039c-0.3281 0.4766-0.875 0.7422-1.582 0.7422-1.051 0-1.918-0.668-1.918-1.84 0-1.145 0.8242-1.871 1.883-1.871 1.027 0 1.75 0.707 1.75 1.898 0 0.08984 0 0.1875-0.007812 0.2695" fill="#231f1f"/>
<g clip-path="url(#e)">
<path d="m142.9 152.9c-0.6562-0.9102-1.027-2.039-1.027-3.18s0.3711-2.27 1.027-3.18l0.7852 0.3867c-0.5898 0.8047-0.9102 1.777-0.9102 2.793s0.3203 1.988 0.9102 2.793l-0.7852 0.3867" fill="#231f1f"/>
</g>
<path d="m148.9 151.7v-1.902c0-0.4023-0.08984-0.7383-0.5-0.7383-0.3906 0-0.582 0.3672-0.582 0.7578v1.883h-1.145v-1.988c0-0.3984-0.1562-0.6523-0.5-0.6523-0.3633 0-0.5742 0.332-0.5742 0.75v1.891h-1.156v-3.488h1.117v0.4844h0.01172c0.1602-0.293 0.5195-0.582 1.043-0.582 0.5039 0 0.8555 0.2188 1.051 0.5977 0.2305-0.3633 0.5977-0.5977 1.113-0.5977 0.9453 0 1.27 0.7734 1.27 1.43v2.156h-1.148" fill="#231f1f"/>
<path d="m151 151.7v-4.957h1.207v3.914h1.918v1.043h-3.125" fill="#231f1f"/>
<g clip-path="url(#d)">
<path d="m154.9 152.1-0.7891-0.2578 2.164-5.441 0.7891 0.2734-2.164 5.426" fill="#231f1f"/>
</g>
<path d="m162 151.7v-1.902c0-0.4023-0.09375-0.7383-0.5-0.7383-0.3906 0-0.582 0.3672-0.582 0.7578v1.883h-1.145v-1.988c0-0.3984-0.1562-0.6523-0.5-0.6523-0.3633 0-0.5742 0.332-0.5742 0.75v1.891h-1.156v-3.488h1.113v0.4844h0.01562c0.1602-0.293 0.5195-0.582 1.043-0.582 0.5039 0 0.8555 0.2188 1.051 0.5977 0.2305-0.3633 0.5977-0.5977 1.113-0.5977 0.9453 0 1.27 0.7734 1.27 1.43v2.156h-1.148" fill="#231f1f"/>
<path d="m164 151.7v-3.488h1.148v3.488zm0.5742-3.969c-0.3711 0-0.6602-0.2891-0.6602-0.6328 0-0.3359 0.2891-0.6289 0.6602-0.6289 0.3633 0 0.6562 0.2812 0.6562 0.6289 0 0.3594-0.293 0.6328-0.6562 0.6328" fill="#231f1f"/>
<path d="m168.4 151.7v-1.902c0-0.3867-0.1055-0.7383-0.5195-0.7383-0.4062 0-0.6172 0.3516-0.6172 0.75v1.891h-1.156v-3.488h1.117v0.4844h0.01172c0.1602-0.3086 0.5625-0.582 1.043-0.582 0.9414 0 1.277 0.7305 1.277 1.43v2.156h-1.156" fill="#231f1f"/>
<g clip-path="url(#c)">
<path d="m170.7 152.1-0.793-0.2578 2.164-5.441 0.793 0.2734-2.164 5.426" fill="#231f1f"/>
</g>
<path d="m174.8 151.7v-3.641l-0.9258 0.7148-0.6094-0.8359 1.633-1.195h1.078v4.957h-1.176" fill="#231f1f"/>
<path d="m178.4 151.8c-0.3867 0-0.7148-0.293-0.7148-0.6797 0-0.375 0.3203-0.6914 0.7148-0.6914 0.3789 0 0.6992 0.3008 0.6992 0.6875 0 0.3828-0.3203 0.6836-0.6992 0.6836" fill="#231f1f"/>
<path d="m181.6 151.7h-1.367l2.012-3.949h-2.348v-1.008h3.602v0.9375l-1.898 4.02" fill="#231f1f"/>
<path d="m186.2 151.9c-0.9023 0-1.723-0.3906-1.988-1.316l1.09-0.2852c0.08984 0.3281 0.3945 0.6172 0.8398 0.6172 0.3359 0 0.7227-0.168 0.7227-0.6328 0-0.5039-0.5156-0.6523-1.008-0.6523h-0.3164v-0.8594h0.3438c0.4414 0 0.8711-0.1133 0.8711-0.5898 0-0.3555-0.3047-0.5469-0.625-0.5469-0.3359 0-0.6016 0.2188-0.6797 0.5547l-1.094-0.2539c0.2383-0.832 1.023-1.258 1.852-1.258 0.875 0 1.742 0.4453 1.742 1.398 0 0.5469-0.3477 0.9531-0.832 1.082v0.01953c0.5586 0.1328 0.9492 0.5938 0.9492 1.148 0 1.086-0.957 1.574-1.867 1.574" fill="#231f1f"/>
<path d="m195.2 151.7v-1.902c0-0.4023-0.09375-0.7383-0.4961-0.7383-0.3945 0-0.582 0.3672-0.582 0.7578v1.883h-1.148v-1.988c0-0.3984-0.1562-0.6523-0.5-0.6523-0.3633 0-0.5742 0.332-0.5742 0.75v1.891h-1.152v-3.488h1.113v0.4844h0.01172c0.1602-0.293 0.5195-0.582 1.047-0.582 0.5039 0 0.8516 0.2188 1.047 0.5977 0.2305-0.3633 0.5977-0.5977 1.117-0.5977 0.9414 0 1.266 0.7734 1.266 1.43v2.156h-1.148" fill="#231f1f"/>
<path d="m197.1 149.7v-0.6992l1.379-1.25c0.1758-0.168 0.293-0.332 0.293-0.5469 0-0.25-0.1758-0.4258-0.4414-0.4258-0.2812 0-0.4648 0.2188-0.5 0.5352l-0.8086-0.1094c0.08203-0.7148 0.6641-1.141 1.355-1.141 0.6484 0 1.281 0.3438 1.281 1.086 0 0.5039-0.2969 0.8008-0.6211 1.09l-0.8203 0.7305h1.445v0.7305h-2.562" fill="#231f1f"/>
<g clip-path="url(#b)">
<path d="m201.1 152.9-0.7852-0.3867c0.5898-0.8047 0.9102-1.777 0.9102-2.793s-0.3203-1.988-0.9102-2.793l0.7852-0.3867c0.6602 0.9102 1.031 2.039 1.031 3.18s-0.3711 2.27-1.031 3.18" fill="#231f1f"/>
</g>
<path transform="matrix(.1 0 0 -.1 0 152.9)" d="m2358 249.4h-2092v1254" fill="none" stroke="#231f1f" stroke-width="5"/>
<path transform="matrix(.1 0 0 -.1 0 152.9)" d="m265.6 249.2h-41.76" fill="none" stroke="#231f1f" stroke-width="5"/>
<path d="m25.66 136.9c0 0.8438 0.1797 2.031 1 2.031 0.8047 0 0.9961-1.188 0.9961-2.031 0-0.832-0.1914-2.035-0.9961-2.035-0.8203 0-1 1.203-1 2.035zm2.688 0c0 1.449-0.5117 2.605-1.688 2.605-1.184 0-1.695-1.156-1.695-2.605 0-1.441 0.5117-2.605 1.695-2.605 1.176 0 1.688 1.164 1.688 2.605" fill="#231f1f"/>
<path transform="matrix(.1 0 0 -.1 0 152.9)" d="m266.8 249.3v-41.8" fill="none" stroke="#231f1f" stroke-width="5"/>
<path d="m60.57 139.4h-3.238v-0.6523l1.977-1.961c0.3008-0.3086 0.5469-0.6289 0.5469-1.051 0-0.5156-0.3945-0.8516-0.8828-0.8516-0.5039 0-0.8477 0.3633-0.9336 0.8594l-0.6641-0.1094c0.1211-0.7578 0.7578-1.32 1.605-1.32 0.8242 0 1.566 0.4844 1.566 1.41 0 0.6367-0.3633 1.07-0.7969 1.5l-1.609 1.566h2.43v0.6094" fill="#231f1f"/>
<path d="m62.16 136.9c0 0.8438 0.1836 2.031 1 2.031 0.8086 0 0.9961-1.188 0.9961-2.031 0-0.832-0.1875-2.035-0.9961-2.035-0.8164 0-1 1.203-1 2.035zm2.688 0c0 1.449-0.5078 2.605-1.688 2.605-1.184 0-1.695-1.156-1.695-2.605 0-1.441 0.5117-2.605 1.695-2.605 1.18 0 1.688 1.164 1.688 2.605" fill="#231f1f"/>
<path transform="matrix(.1 0 0 -.1 0 152.9)" d="m611 249.3v-41.8" fill="none" stroke="#231f1f" stroke-width="5"/>
<path d="m93.66 135.2h-0.01172l-1.57 2.484h1.582zm0.6602 2.484h0.7148v0.582h-0.7148v1.113h-0.6602v-1.113h-2.281v-0.6172l2.105-3.23h0.8359v3.266" fill="#231f1f"/>
<path d="m96.41 136.9c0 0.8438 0.1836 2.031 1.004 2.031 0.8047 0 0.9922-1.188 0.9922-2.031 0-0.832-0.1875-2.035-0.9922-2.035-0.8203 0-1.004 1.203-1.004 2.035zm2.691 0c0 1.449-0.5117 2.605-1.688 2.605-1.184 0-1.695-1.156-1.695-2.605 0-1.441 0.5117-2.605 1.695-2.605 1.176 0 1.688 1.164 1.688 2.605" fill="#231f1f"/>
<path d="m78.37 81.77h0.8672c0.5898 0 1.234-0.1797 1.234-0.8516 0-0.582-0.4141-0.8359-1.172-0.8359h-0.9297zm0-2.273h0.9023c0.5312 0 0.9727-0.2344 0.9727-0.7734 0-0.5312-0.4258-0.7422-1.086-0.7422h-0.7891zm-0.6953-2.098h1.711c0.75 0 1.555 0.3086 1.555 1.254 0 0.5469-0.3516 0.9414-0.8672 1.082v0.01172c0.6367 0.07812 1.098 0.5117 1.098 1.203 0 0.9531-0.8242 1.41-1.863 1.41h-1.633v-4.961" fill="#231f1f"/>
<path d="m196.1 106.9h1.859l-0.9258-2.324zm-0.7422 1.828h-0.7695l2.148-4.957h0.6328l2.129 4.957h-0.7852l-0.5039-1.219h-2.352l-0.5 1.219" fill="#231f1f"/>
<path d="m56.95 11.74h2.59v0.6172h-3.285v-4.961h3.18v0.6133h-2.484v1.484h2.336v0.5938h-2.336v1.652" fill="#231f1f"/>
<path d="m61.16 10.61-1.211-1.574h0.8125l0.8125 1.145 0.8203-1.145h0.7695l-1.199 1.57 1.34 1.75h-0.8203l-0.9219-1.297-0.9414 1.297h-0.7891l1.328-1.746" fill="#231f1f"/>
<path d="m65.77 10.77c-0.6523 0-1.48 0.07031-1.48 0.6289 0 0.3945 0.3516 0.5195 0.6797 0.5195 0.6172 0 0.9609-0.4141 0.9609-0.9766v-0.1719zm0.1602-0.5703c0-0.4883-0.3281-0.7266-0.8203-0.7266-0.3711 0-0.7188 0.1602-0.9453 0.3867l-0.3516-0.4219c0.3242-0.3086 0.8203-0.4961 1.359-0.4961 0.9531 0 1.387 0.5664 1.387 1.301v1.449c0 0.2266 0.01562 0.5 0.05078 0.6602h-0.5938c-0.03516-0.1484-0.05859-0.3242-0.05859-0.4766h-0.01953c-0.2383 0.3555-0.6172 0.5586-1.113 0.5586-0.5273 0-1.207-0.2578-1.207-1.02 0-1.004 1.191-1.121 2.312-1.121v-0.09375" fill="#231f1f"/>
<path d="m69.29 8.945c0.4414 0 0.8281 0.1953 1.031 0.6641 0.2227-0.4258 0.6562-0.6641 1.125-0.6641 0.8555 0 1.242 0.6094 1.242 1.352v2.059h-0.6602v-1.84c0-0.543-0.1602-1.02-0.7344-1.02-0.6016 0-0.8398 0.5469-0.8398 1.066v1.793h-0.6602v-1.973c0-0.5195-0.1758-0.8867-0.6992-0.8867-0.4844 0-0.8477 0.4375-0.8477 1.094v1.766h-0.6602v-2.605c0-0.1758-0.003906-0.4961-0.02734-0.7148h0.625c0.01172 0.168 0.02734 0.4062 0.02734 0.5469h0.01953c0.168-0.3516 0.5547-0.6367 1.059-0.6367" fill="#231f1f"/>
<path d="m75.46 9.492c-0.6758 0-1.121 0.5664-1.121 1.203 0 0.6367 0.4453 1.199 1.121 1.199 0.7188 0 1.105-0.582 1.105-1.207 0-0.6211-0.3867-1.195-1.105-1.195zm-1.078 4.543h-0.6602v-5h0.6445v0.5195h0.01953c0.2188-0.3516 0.6523-0.6094 1.199-0.6094 0.9883 0 1.66 0.7617 1.66 1.742 0 0.9727-0.6523 1.758-1.676 1.758-0.4688 0-0.9219-0.2148-1.168-0.5859h-0.01953v2.176" fill="#231f1f"/>
<path d="m78.76 12.36h-0.6562v-5.297h0.6562v5.297" fill="#231f1f"/>
<path d="m82.27 10.4c-0.01172-0.5273-0.3203-0.9375-0.9297-0.9375-0.5664 0-1.004 0.418-1.043 0.9375zm0.6602 0.4883h-2.633c0.01953 0.5703 0.4961 1.008 1.078 1.008 0.4492 0 0.7773-0.2227 0.9648-0.5039l0.4609 0.3711c-0.3555 0.4648-0.8398 0.6797-1.426 0.6797-1.008 0-1.754-0.6992-1.754-1.742 0-1.039 0.7461-1.758 1.719-1.758 0.9805 0 1.598 0.6641 1.598 1.723 0 0.07031 0 0.1445-0.007812 0.2227" fill="#231f1f"/>
<path d="m57.2 20.26h1.855l-0.9219-2.328zm-0.7422 1.828h-0.7695l2.148-4.961h0.6328l2.129 4.961h-0.7852l-0.5039-1.219h-2.352l-0.5 1.219" fill="#231f1f"/>
<path d="m56.95 31.23h0.8672c0.5898 0 1.234-0.1836 1.234-0.8555 0-0.582-0.4141-0.832-1.172-0.832h-0.9297zm0-2.277h0.9023c0.5312 0 0.9727-0.2305 0.9727-0.7695 0-0.5312-0.4258-0.7422-1.086-0.7422h-0.7891zm-0.6953-2.094h1.711c0.75 0 1.555 0.3086 1.555 1.254 0 0.5469-0.3516 0.9375-0.8711 1.078v0.01563c0.6367 0.07422 1.102 0.5117 1.102 1.203 0 0.9531-0.8281 1.406-1.863 1.406h-1.633v-4.957" fill="#231f1f"/>
<path d="m89.34 11.71h2.703l-1.344-3.375zm3.754 0.6445h-4.23l2.031-5.055h0.1406l2.059 5.055" fill="#231f1f"/>
<path d="m99.85 11.59c-0.3828 0.5234-1.02 0.8945-1.891 0.8945-1.52 0-2.609-1.086-2.609-2.613 0-1.547 1.133-2.598 2.641-2.598 0.6758 0 1.414 0.2656 1.777 0.7695l-0.5469 0.4219c-0.2383-0.3359-0.7227-0.582-1.23-0.582-1.148 0-1.887 0.9023-1.887 1.988 0 1.113 0.7227 1.996 1.863 1.996 0.5547 0 1.039-0.2305 1.332-0.6562l0.5508 0.3789" fill="#231f1f"/>
<path d="m100.4 9.035h0.6211c0.01562 0.168 0.02734 0.4219 0.02734 0.5625h0.02344c0.1797-0.3867 0.5664-0.6523 1.016-0.6523 0.08984 0 0.1797 0.003907 0.2578 0.02734l-0.02734 0.6094c-0.08203-0.02344-0.1953-0.03516-0.3008-0.03516-0.6289 0-0.9336 0.5117-0.9336 1.062v1.746h-0.6562v-2.605c0-0.1758-0.007813-0.4961-0.02734-0.7148" fill="#231f1f"/>
<path d="m105.2 10.4c-0.01562-0.5273-0.3242-0.9375-0.9336-0.9375-0.5664 0-1 0.418-1.043 0.9375zm0.6562 0.4883h-2.633c0.01953 0.5703 0.4961 1.008 1.078 1.008 0.4492 0 0.7773-0.2227 0.9688-0.5039l0.4609 0.3711c-0.3555 0.4648-0.8398 0.6797-1.43 0.6797-1.008 0-1.75-0.6992-1.75-1.742 0-1.039 0.7422-1.758 1.715-1.758 0.9805 0 1.598 0.6641 1.598 1.723 0 0.07031 0 0.1445-0.007812 0.2227" fill="#231f1f"/>
<path d="m108.6 10.77c-0.6484 0-1.477 0.07031-1.477 0.6289 0 0.3945 0.3516 0.5195 0.6797 0.5195 0.6172 0 0.9609-0.4141 0.9609-0.9766v-0.1719zm0.1641-0.5703c0-0.4883-0.332-0.7266-0.8203-0.7266-0.3711 0-0.7227 0.1602-0.9453 0.3867l-0.3516-0.4219c0.3242-0.3086 0.8203-0.4961 1.359-0.4961 0.9531 0 1.387 0.5664 1.387 1.301v1.449c0 0.2266 0.01563 0.5 0.05078 0.6602h-0.5977c-0.03516-0.1484-0.05469-0.3242-0.05469-0.4766h-0.01953c-0.2422 0.3555-0.6172 0.5586-1.117 0.5586-0.5234 0-1.203-0.2578-1.203-1.02 0-1.004 1.191-1.121 2.312-1.121v-0.09375" fill="#231f1f"/>
<path d="m112 9.574h-0.8828v1.73c0 0.3984 0.1406 0.5586 0.4688 0.5586 0.1211 0 0.2734-0.02734 0.3867-0.08203l0.01953 0.5391c-0.1523 0.05859-0.3555 0.08984-0.5586 0.08984-0.625 0-0.9688-0.3477-0.9688-1.035v-1.801h-0.6367v-0.5391h0.6367v-0.9531h0.6523v0.9531h0.8828v0.5391" fill="#231f1f"/>
<path d="m113.2 12.36h-0.6602v-3.32h0.6602zm-0.3281-4.098c-0.2383 0-0.4336-0.1875-0.4336-0.418 0-0.2422 0.1953-0.4297 0.4336-0.4297 0.2383 0 0.4414 0.1836 0.4414 0.4297 0 0.2344-0.2031 0.418-0.4414 0.418" fill="#231f1f"/>
<path d="m114.9 9.035c0.01562 0.168 0.02734 0.4062 0.02734 0.5469h0.02344c0.1602-0.3594 0.6016-0.6367 1.078-0.6367 0.8555 0 1.238 0.6094 1.238 1.352v2.059h-0.6562v-1.84c0-0.543-0.1484-1.02-0.7578-1.02-0.5156 0-0.8867 0.4375-0.8867 1.094v1.766h-0.6602v-2.605c0-0.1758-0.007812-0.4961-0.02734-0.7148h0.6211" fill="#231f1f"/>
<path d="m119 12.36h-0.6562v-3.32h0.6562zm-0.3281-4.098c-0.2383 0-0.4336-0.1875-0.4336-0.418 0-0.2422 0.1953-0.4297 0.4336-0.4297s0.4414 0.1836 0.4414 0.4297c0 0.2344-0.2031 0.418-0.4414 0.418" fill="#231f1f"/>
<path d="m120.7 9.035c0.01562 0.168 0.03125 0.4062 0.03125 0.5469h0.01953c0.1602-0.3594 0.6016-0.6367 1.078-0.6367 0.8555 0 1.238 0.6094 1.238 1.352v2.059h-0.6562v-1.84c0-0.543-0.1484-1.02-0.7578-1.02-0.5156 0-0.8867 0.4375-0.8867 1.094v1.766h-0.6602v-2.605c0-0.1758-0.007812-0.4961-0.02734-0.7148h0.6211" fill="#231f1f"/>
<path d="m126.5 10.4c-0.01562-0.5273-0.3203-0.9375-0.9297-0.9375-0.5703 0-1.004 0.418-1.047 0.9375zm0.6602 0.4883h-2.637c0.02344 0.5703 0.5 1.008 1.082 1.008 0.4492 0 0.7773-0.2227 0.9648-0.5039l0.4609 0.3711c-0.3555 0.4648-0.8398 0.6797-1.426 0.6797-1.008 0-1.75-0.6992-1.75-1.742 0-1.039 0.7422-1.758 1.715-1.758 0.9805 0 1.594 0.6641 1.594 1.723 0 0.07031 0 0.1445-0.003906 0.2227" fill="#231f1f"/>
<path d="m89.73 19.61c0 0.8398 0.1836 2.031 1.004 2.031 0.8047 0 0.9922-1.191 0.9922-2.031 0-0.832-0.1875-2.039-0.9922-2.039-0.8203 0-1.004 1.207-1.004 2.039zm2.691 0c0 1.449-0.5117 2.605-1.688 2.605-1.184 0-1.695-1.156-1.695-2.605 0-1.441 0.5117-2.605 1.695-2.605 1.176 0 1.688 1.164 1.688 2.605" fill="#231f1f"/>
<path d="m93.65 22.13c-0.2578 0-0.4688-0.2109-0.4688-0.457 0-0.25 0.2031-0.4609 0.4688-0.4609s0.4688 0.2031 0.4688 0.4531c0 0.2461-0.2031 0.4648-0.4688 0.4648" fill="#231f1f"/>
<path d="m96.99 17.91h-0.01563l-1.566 2.488h1.582zm0.6602 2.488h0.7109v0.582h-0.7109v1.113h-0.6602v-1.113h-2.281v-0.6172l2.105-3.23h0.8359v3.266" fill="#231f1f"/>
<path d="m102.5 18.68c0.4414 0 0.8281 0.1953 1.031 0.6641 0.2227-0.4297 0.6562-0.6641 1.125-0.6641 0.8555 0 1.242 0.6055 1.242 1.348v2.062h-0.6602v-1.844c0-0.5391-0.1602-1.016-0.7344-1.016-0.6016 0-0.8398 0.5469-0.8398 1.066v1.793h-0.6602v-1.977c0-0.5156-0.1758-0.8828-0.6992-0.8828-0.4844 0-0.8477 0.4336-0.8477 1.094v1.766h-0.6562v-2.605c0-0.1758-0.007813-0.5-0.03125-0.7148h0.625c0.01172 0.168 0.02734 0.4062 0.02734 0.5469h0.01953c0.168-0.3516 0.5547-0.6367 1.059-0.6367" fill="#231f1f"/>
<path d="m108.5 21.56c0.6797 0 1.129-0.5078 1.129-1.168 0-0.6289-0.457-1.172-1.129-1.172-0.6953 0-1.098 0.5352-1.098 1.172 0 0.6094 0.4023 1.168 1.098 1.168zm-1.305 1.094c0.2891 0.3203 0.7578 0.5391 1.215 0.5391 0.875 0 1.168-0.5391 1.168-1.227v-0.4258h-0.01172c-0.2461 0.3711-0.7031 0.5742-1.172 0.5742-1.016 0-1.672-0.7578-1.672-1.711s0.6484-1.727 1.664-1.727c0.4766 0 0.9453 0.207 1.199 0.6211h0.01172v-0.5312h0.6406v3.152c0 0.9648-0.457 1.848-1.836 1.848-0.5742 0-1.211-0.2227-1.625-0.6016l0.418-0.5117" fill="#231f1f"/>
<path d="m111.2 22.32-0.4961-0.168 2.148-5.262 0.5 0.1836-2.152 5.246" fill="#231f1f"/>
<path d="m115.5 21.63c0.6719 0 1.117-0.5625 1.117-1.199 0-0.6367-0.4453-1.207-1.117-1.207-0.7227 0-1.102 0.5781-1.102 1.199 0 0.625 0.3789 1.207 1.102 1.207zm-0.1133 0.5508c-1.023 0-1.676-0.7852-1.676-1.758 0-0.9805 0.6719-1.742 1.668-1.742 0.5391 0 0.9531 0.2656 1.184 0.5859h0.01562v-2.473h0.6562v5.297h-0.6367v-0.5273h-0.01562c-0.25 0.4023-0.7266 0.6172-1.195 0.6172" fill="#231f1f"/>
<path d="m119 21.47h2.215v0.6172h-2.906v-4.961h0.6914v4.344" fill="#231f1f"/>
<path d="m124.5 22.88-0.4766 0.3086c-0.6172-0.8242-1.023-1.945-1.023-3.117 0-1.168 0.4062-2.289 1.023-3.117l0.4766 0.3125c-0.5469 0.7617-0.9023 1.785-0.9023 2.805 0 1.023 0.3555 2.047 0.9023 2.809" fill="#231f1f"/>
<path d="m126.4 19.22h0.2148c0.5664 0 1.105-0.1914 1.105-0.8281 0-0.4961-0.4062-0.8203-0.875-0.8203-0.4102 0-0.7188 0.2344-0.8672 0.6094l-0.6172-0.2148c0.2461-0.5977 0.8125-0.9609 1.516-0.9609 0.8242 0 1.523 0.4688 1.523 1.344 0 0.5547-0.3633 0.9961-0.875 1.129v0.01172c0.582 0.1211 1.012 0.5742 1.012 1.215 0 0.9844-0.8164 1.512-1.66 1.512-0.7852 0-1.414-0.3516-1.691-1.094l0.6328-0.2109c0.1484 0.4297 0.5234 0.7305 1.043 0.7305 0.4961 0 0.9961-0.3164 0.9961-0.9453 0-0.6914-0.6602-0.918-1.25-0.918h-0.207v-0.5586" fill="#231f1f"/>
<path d="m132.4 17.73h-2.043l-0.04297 1.305c0.1836-0.0625 0.4375-0.08984 0.6367-0.08984 0.9531 0 1.66 0.6016 1.66 1.562 0 1.035-0.7422 1.707-1.727 1.707-0.7734 0-1.32-0.3945-1.586-0.9922l0.6172-0.2461c0.1523 0.3984 0.5234 0.6641 0.9688 0.6641 0.5781 0 1.035-0.4258 1.035-1.066 0-0.75-0.5469-1.086-1.164-1.086-0.3711 0-0.7891 0.1133-1.098 0.2773l0.07031-2.637h2.672v0.6016" fill="#231f1f"/>
<path d="m134 22.13c-0.2617 0-0.4688-0.2109-0.4688-0.457 0-0.25 0.2031-0.4609 0.4688-0.4609s0.4688 0.2031 0.4688 0.4531c0 0.2461-0.2031 0.4648-0.4688 0.4648" fill="#231f1f"/>
<path d="m137.3 17.91h-0.01172l-1.57 2.488h1.582zm0.6602 2.488h0.7148v0.582h-0.7148v1.113h-0.6602v-1.113h-2.281v-0.6172l2.109-3.23h0.832v3.266" fill="#231f1f"/>
<path d="m143.5 22.09c-0.01172-0.168-0.02734-0.4062-0.02734-0.5469h-0.01562c-0.168 0.3477-0.6016 0.6367-1.082 0.6367-0.2305 0-0.4648-0.08203-0.582-0.2109v1.801h-0.6602v-5h0.6602v1.836c0 0.543 0.1484 1.023 0.7539 1.023 0.5273 0 0.8906-0.4375 0.8906-1.094v-1.766h0.6602v2.605c0 0.1758 0.007813 0.4961 0.02734 0.7148h-0.625" fill="#231f1f"/>
<path d="m146.8 18.68c0.4375 0 0.8242 0.1953 1.027 0.6641 0.2266-0.4297 0.6562-0.6641 1.129-0.6641 0.8555 0 1.238 0.6055 1.238 1.348v2.062h-0.6602v-1.844c0-0.5391-0.1602-1.016-0.7344-1.016-0.6016 0-0.8398 0.5469-0.8398 1.066v1.793h-0.6562v-1.977c0-0.5156-0.1758-0.8828-0.7031-0.8828-0.4844 0-0.8477 0.4336-0.8477 1.094v1.766h-0.6562v-2.605c0-0.1758-0.007813-0.5-0.03125-0.7148h0.625c0.01562 0.168 0.02734 0.4062 0.02734 0.5469h0.02344c0.168-0.3516 0.5547-0.6367 1.059-0.6367" fill="#231f1f"/>
<path d="m152.8 19.22c-0.707 0-1.105 0.5703-1.105 1.199 0 0.6328 0.3984 1.207 1.105 1.207 0.7148 0 1.105-0.5742 1.105-1.207 0-0.6289-0.3906-1.199-1.105-1.199zm0 2.957c-1.016 0-1.785-0.7344-1.785-1.758s0.7695-1.742 1.785-1.742 1.793 0.7188 1.793 1.742-0.7773 1.758-1.793 1.758" fill="#231f1f"/>
<path d="m156.1 22.09h-0.6602v-5.297h0.6602v5.297" fill="#231f1f"/>
<path d="m157.1 22.32-0.4961-0.168 2.148-5.262 0.4961 0.1836-2.148 5.246" fill="#231f1f"/>
<path d="m160.5 21.47h2.215v0.6172h-2.906v-4.961h0.6914v4.344" fill="#231f1f"/>
<path d="m163.2 17.27 0.4766-0.3125c0.6172 0.8281 1.023 1.949 1.023 3.117 0 1.172-0.4062 2.293-1.023 3.117l-0.4766-0.3086c0.5469-0.7617 0.9062-1.785 0.9062-2.809 0-1.02-0.3594-2.043-0.9062-2.805" fill="#231f1f"/>
<path d="m91.3 31.82h-0.6797v-4.129l-0.9375 0.7812-0.3984-0.4688 1.406-1.141h0.6094v4.957" fill="#231f1f"/>
<path d="m93.55 31.86c-0.2578 0-0.4688-0.2109-0.4688-0.4531 0-0.2539 0.2031-0.4648 0.4688-0.4648s0.4688 0.2031 0.4688 0.457c0 0.2461-0.2031 0.4609-0.4688 0.4609" fill="#231f1f"/>
<path d="m97.71 27.46h-2.047l-0.04297 1.305c0.1836-0.0625 0.4336-0.08984 0.6406-0.08984 0.9492 0 1.656 0.6016 1.656 1.559 0 1.039-0.7422 1.711-1.727 1.711-0.7734 0-1.316-0.3945-1.586-0.9961l0.6172-0.2422c0.1562 0.3945 0.5273 0.6641 0.9688 0.6641 0.5781 0 1.035-0.4297 1.035-1.066 0-0.75-0.5469-1.086-1.164-1.086-0.3711 0-0.7891 0.1133-1.098 0.2734l0.07031-2.633h2.676v0.6016" fill="#231f1f"/>
<path d="m102.1 28.41c0.4414 0 0.8242 0.1953 1.027 0.668 0.2266-0.4297 0.6602-0.668 1.129-0.668 0.8555 0 1.238 0.6094 1.238 1.352v2.059h-0.6562v-1.84c0-0.5391-0.1641-1.016-0.7383-1.016-0.6016 0-0.8398 0.5469-0.8398 1.062v1.793h-0.6562v-1.973c0-0.5195-0.1758-0.8828-0.6992-0.8828-0.4844 0-0.8516 0.4336-0.8516 1.094v1.762h-0.6562v-2.602c0-0.1758-0.007812-0.5-0.02734-0.7148h0.6211c0.01563 0.168 0.02734 0.4062 0.02734 0.5469h0.02344c0.168-0.3516 0.5547-0.6406 1.059-0.6406" fill="#231f1f"/>
<path d="m108 31.3c0.6758 0 1.125-0.5117 1.125-1.168 0-0.6328-0.4531-1.172-1.125-1.172-0.6953 0-1.102 0.5312-1.102 1.172 0 0.6055 0.4062 1.168 1.102 1.168zm-1.305 1.094c0.2891 0.3203 0.7578 0.5391 1.211 0.5391 0.875 0 1.172-0.5391 1.172-1.227v-0.4258h-0.01562c-0.2461 0.3711-0.6992 0.5742-1.168 0.5742-1.016 0-1.676-0.7578-1.676-1.711s0.6523-1.73 1.668-1.73c0.4766 0 0.9453 0.2109 1.199 0.625h0.01172v-0.5312h0.6367v3.148c0 0.9688-0.4531 1.852-1.836 1.852-0.5742 0-1.211-0.2266-1.625-0.6055l0.4219-0.5078" fill="#231f1f"/>
<path d="m110.6 32.05-0.5-0.168 2.152-5.262 0.4961 0.1836-2.148 5.246" fill="#231f1f"/>
<path d="m114.7 31.36c0.6758 0 1.121-0.5586 1.121-1.199 0-0.6367-0.4453-1.203-1.121-1.203-0.7188 0-1.098 0.5742-1.098 1.199 0 0.6211 0.3789 1.203 1.098 1.203zm-0.1094 0.5547c-1.023 0-1.676-0.7852-1.676-1.758 0-0.9805 0.6719-1.746 1.668-1.746 0.5391 0 0.9531 0.2695 1.184 0.5898h0.01172v-2.473h0.6602v5.293h-0.6367v-0.5234h-0.01562c-0.25 0.3984-0.7266 0.6172-1.195 0.6172" fill="#231f1f"/>
<path d="m118.2 31.21h2.215v0.6133h-2.91v-4.957h0.6953v4.344" fill="#231f1f"/>
<path d="m123.4 32.61-0.4766 0.3086c-0.6133-0.8242-1.02-1.949-1.02-3.117 0-1.168 0.4062-2.289 1.02-3.117l0.4766 0.3086c-0.5469 0.7656-0.9023 1.785-0.9023 2.809 0 1.023 0.3555 2.047 0.9023 2.809" fill="#231f1f"/>
<path d="m126.4 31.82h-0.6797v-4.129l-0.9375 0.7812-0.4023-0.4688 1.41-1.141h0.6094v4.957" fill="#231f1f"/>
<path d="m129.2 28.95h0.2188c0.5664 0 1.105-0.1875 1.105-0.8242 0-0.4961-0.4062-0.8203-0.875-0.8203-0.4141 0-0.7188 0.2305-0.8672 0.6094l-0.6172-0.2188c0.2461-0.5938 0.8125-0.957 1.516-0.957 0.8242 0 1.523 0.4688 1.523 1.344 0 0.5547-0.3633 0.9961-0.875 1.129v0.01172c0.582 0.1211 1.008 0.5742 1.008 1.211 0 0.9883-0.8125 1.516-1.656 1.516-0.7891 0-1.418-0.3516-1.691-1.094l0.6328-0.2109c0.1445 0.4297 0.5234 0.7305 1.043 0.7305 0.4961 0 0.9922-0.3164 0.9922-0.9453 0-0.6953-0.6562-0.918-1.246-0.918h-0.2109v-0.5625" fill="#231f1f"/>
<path d="m135.4 31.82h-3.238v-0.6484l1.977-1.961c0.3008-0.3086 0.5469-0.6328 0.5469-1.051 0-0.5195-0.3906-0.8555-0.8828-0.8555-0.5039 0-0.8477 0.3633-0.9336 0.8594l-0.6641-0.1094c0.1211-0.7578 0.7578-1.316 1.605-1.316 0.8281 0 1.57 0.4844 1.57 1.406 0 0.6367-0.3672 1.074-0.8008 1.5l-1.609 1.57h2.43v0.6055" fill="#231f1f"/>
<path d="m136.6 31.86c-0.2617 0-0.4727-0.2109-0.4727-0.4531 0-0.2539 0.2031-0.4648 0.4727-0.4648 0.2617 0 0.4648 0.2031 0.4648 0.457 0 0.2461-0.2031 0.4609-0.4648 0.4609" fill="#231f1f"/>
<path d="m139.4 31.38c0.6094 0 1.023-0.4414 1.023-1.059 0-0.5938-0.4023-1.035-1.016-1.035-0.625 0-1.035 0.4336-1.035 1.043 0 0.5781 0.4102 1.051 1.027 1.051zm-0.4648-2.516 0.01172 0.01562c0.1367-0.08594 0.4023-0.1367 0.6133-0.1367 0.8672 0 1.551 0.6523 1.551 1.559 0 0.9844-0.7383 1.652-1.711 1.652-0.9883 0-1.715-0.6953-1.715-1.633 0-0.5391 0.1953-0.9531 0.4844-1.406l1.293-2.047h0.8047l-1.332 1.996" fill="#231f1f"/>
<path d="m145.8 31.82c-0.01562-0.168-0.02734-0.4062-0.02734-0.543h-0.01562c-0.168 0.3477-0.6055 0.6367-1.086 0.6367-0.2305 0-0.4648-0.08594-0.582-0.2109v1.801h-0.6562v-5h0.6562v1.836c0 0.543 0.1484 1.02 0.7578 1.02 0.5234 0 0.8867-0.4336 0.8867-1.094v-1.762h0.6602v2.602c0 0.1758 0.007813 0.5 0.02734 0.7148h-0.6211" fill="#231f1f"/>
<path d="m149 28.41c0.4414 0 0.8242 0.1953 1.027 0.668 0.2266-0.4297 0.6602-0.668 1.129-0.668 0.8555 0 1.238 0.6094 1.238 1.352v2.059h-0.6562v-1.84c0-0.5391-0.1602-1.016-0.7344-1.016-0.6055 0-0.8438 0.5469-0.8438 1.062v1.793h-0.6562v-1.973c0-0.5195-0.1758-0.8828-0.6992-0.8828-0.4844 0-0.8477 0.4336-0.8477 1.094v1.762h-0.6602v-2.602c0-0.1758-0.003906-0.5-0.02734-0.7148h0.625c0.01172 0.168 0.02734 0.4062 0.02734 0.5469h0.01953c0.168-0.3516 0.5547-0.6406 1.059-0.6406" fill="#231f1f"/>
<path d="m154.9 28.96c-0.707 0-1.105 0.5664-1.105 1.199 0 0.6289 0.3984 1.203 1.105 1.203 0.7148 0 1.109-0.5742 1.109-1.203 0-0.6328-0.3945-1.199-1.109-1.199zm0 2.957c-1.012 0-1.785-0.7344-1.785-1.758s0.7734-1.746 1.785-1.746c1.02 0 1.793 0.7227 1.793 1.746s-0.7734 1.758-1.793 1.758" fill="#231f1f"/>
<path d="m158.1 31.82h-0.6602v-5.293h0.6602v5.293" fill="#231f1f"/>
<path d="m159 32.05-0.5-0.168 2.152-5.262 0.4961 0.1836-2.148 5.246" fill="#231f1f"/>
<path d="m162.3 31.21h2.211v0.6133h-2.902v-4.957h0.6914v4.344" fill="#231f1f"/>
<path d="m164.9 27 0.4766-0.3086c0.6172 0.8281 1.023 1.949 1.023 3.117 0 1.168-0.4062 2.293-1.023 3.117l-0.4766-0.3086c0.5469-0.7617 0.9062-1.785 0.9062-2.809 0-1.023-0.3594-2.043-0.9062-2.809" fill="#231f1f"/>
<path d="m173.3 11.71h2.699l-1.344-3.375zm3.754 0.6445h-4.234l2.035-5.055h0.1367l2.062 5.055" fill="#231f1f"/>
<path d="m183.3 8.418c-0.293-0.3203-0.7773-0.5391-1.344-0.5391-1.164 0-1.891 0.9023-1.891 1.988 0 1.109 0.7266 1.992 1.91 1.992 0.4648 0 0.8711-0.09375 1.156-0.2461v-1.379h-1.102v-0.5898h1.789v2.402c-0.5195 0.2812-1.137 0.4336-1.863 0.4336-1.551 0-2.648-1.086-2.648-2.613 0-1.547 1.137-2.598 2.641-2.598 0.7852 0 1.43 0.2539 1.836 0.6445l-0.4844 0.5039" fill="#231f1f"/>
<path d="m185.6 12.36h-0.6953v-4.961h3.098v0.6133h-2.402v1.539h2.246v0.5938h-2.246v2.215" fill="#231f1f"/>
<path d="m189.4 9.566h0.8008c0.6523 0 1.16-0.2031 1.16-0.7969s-0.5078-0.7852-1.109-0.7852h-0.8516zm0 2.789h-0.6914v-4.961h1.59c0.9609 0 1.766 0.3672 1.766 1.375 0 0.7266-0.5 1.191-1.207 1.309l1.387 2.277h-0.8398l-1.258-2.207h-0.7461v2.207" fill="#231f1f"/>
<path d="m175.1 17.91h-0.01172l-1.57 2.488h1.582zm0.6602 2.488h0.7148v0.582h-0.7148v1.113h-0.6602v-1.113h-2.285v-0.6172l2.109-3.23h0.8359v3.266" fill="#231f1f"/>
<path d="m180.3 22.09h-3.234v-0.6523l1.973-1.961c0.3008-0.3086 0.5469-0.6289 0.5469-1.051 0-0.5195-0.3906-0.8555-0.8828-0.8555-0.5039 0-0.8438 0.3633-0.9297 0.8633l-0.6641-0.1133c0.1172-0.7578 0.7578-1.316 1.602-1.316 0.8281 0 1.57 0.4844 1.57 1.406 0 0.6406-0.3633 1.074-0.7969 1.5l-1.613 1.57h2.43v0.6094" fill="#231f1f"/>
<path d="m184.5 18.68c0.4414 0 0.8281 0.1953 1.027 0.6641 0.2266-0.4297 0.6602-0.6641 1.129-0.6641 0.8555 0 1.238 0.6055 1.238 1.348v2.062h-0.6562v-1.844c0-0.5391-0.1602-1.016-0.7344-1.016-0.6055 0-0.8398 0.5469-0.8398 1.066v1.793h-0.6602v-1.977c0-0.5156-0.1758-0.8828-0.6992-0.8828-0.4844 0-0.8477 0.4336-0.8477 1.094v1.766h-0.6602v-2.605c0-0.1758-0.003906-0.5-0.02734-0.7148h0.6211c0.01562 0.168 0.03125 0.4062 0.03125 0.5469h0.01953c0.168-0.3516 0.5547-0.6367 1.059-0.6367" fill="#231f1f"/>
<path d="m189.5 21.47h2.215v0.6172h-2.906v-4.961h0.6914v4.344" fill="#231f1f"/>
<path d="m192.1 22.32-0.4961-0.168 2.148-5.262 0.5 0.1836-2.152 5.246" fill="#231f1f"/>
<path d="m196.4 18.68c0.4375 0 0.8242 0.1953 1.027 0.6641 0.2266-0.4297 0.6602-0.6641 1.129-0.6641 0.8516 0 1.238 0.6055 1.238 1.348v2.062h-0.6562v-1.844c0-0.5391-0.1602-1.016-0.7344-1.016-0.6055 0-0.8438 0.5469-0.8438 1.066v1.793h-0.6562v-1.977c0-0.5156-0.1758-0.8828-0.7031-0.8828-0.4805 0-0.8438 0.4336-0.8438 1.094v1.766h-0.6602v-2.605c0-0.1758-0.007812-0.5-0.02734-0.7148h0.6211c0.01562 0.168 0.03125 0.4062 0.03125 0.5469h0.01953c0.168-0.3516 0.5547-0.6367 1.059-0.6367" fill="#231f1f"/>
<path d="m201.4 22.09h-0.6562v-3.32h0.6562zm-0.3281-4.098c-0.2383 0-0.4375-0.1875-0.4375-0.4219 0-0.2383 0.1992-0.4258 0.4375-0.4258 0.2383 0 0.4414 0.1797 0.4414 0.4258 0 0.2383-0.2031 0.4219-0.4414 0.4219" fill="#231f1f"/>
<path d="m203 18.77c0.01562 0.168 0.02734 0.4062 0.02734 0.5469h0.02344c0.1602-0.3594 0.6016-0.6367 1.078-0.6367 0.8555 0 1.238 0.6055 1.238 1.348v2.062h-0.6562v-1.844c0-0.5391-0.1484-1.016-0.7578-1.016-0.5156 0-0.8867 0.4336-0.8867 1.094v1.766h-0.6602v-2.605c0-0.1758-0.007813-0.5-0.02734-0.7148h0.6211" fill="#231f1f"/>
<path d="m206.2 22.32-0.5-0.168 2.152-5.262 0.4961 0.1836-2.148 5.246" fill="#231f1f"/>
<path d="m210.8 22.09h-0.6797v-4.133l-0.9336 0.7852-0.4023-0.4727 1.41-1.141h0.6055v4.961" fill="#231f1f"/>
<path d="m213.1 22.13c-0.2578 0-0.4688-0.2109-0.4688-0.457 0-0.25 0.207-0.4609 0.4688-0.4609 0.2695 0 0.4727 0.2031 0.4727 0.4531 0 0.2461-0.2031 0.4648-0.4727 0.4648" fill="#231f1f"/>
<path d="m217.4 17.75-1.988 4.344h-0.7812l2.07-4.359h-2.461v-0.6016h3.16v0.6172" fill="#231f1f"/>
<path d="m219.3 19.22h0.2188c0.5664 0 1.105-0.1914 1.105-0.8281 0-0.4961-0.4062-0.8203-0.8789-0.8203-0.4102 0-0.7188 0.2344-0.8672 0.6094l-0.6133-0.2148c0.2422-0.5977 0.8086-0.9609 1.512-0.9609 0.8281 0 1.527 0.4688 1.527 1.344 0 0.5547-0.3633 0.9961-0.875 1.129v0.01172c0.582 0.1211 1.008 0.5742 1.008 1.215 0 0.9844-0.8125 1.512-1.66 1.512-0.7852 0-1.414-0.3516-1.688-1.094l0.6289-0.2109c0.1484 0.4297 0.5234 0.7305 1.043 0.7305 0.5 0 0.9961-0.3164 0.9961-0.9453 0-0.6914-0.6602-0.918-1.246-0.918h-0.2109v-0.5586" fill="#231f1f"/>
<path d="m225.6 18.68c0.4375 0 0.8242 0.1953 1.027 0.6641 0.2266-0.4297 0.6562-0.6641 1.125-0.6641 0.8555 0 1.242 0.6055 1.242 1.348v2.062h-0.6602v-1.844c0-0.5391-0.1602-1.016-0.7344-1.016-0.6016 0-0.8398 0.5469-0.8398 1.066v1.793h-0.6562v-1.977c0-0.5156-0.1758-0.8828-0.7031-0.8828-0.4844 0-0.8477 0.4336-0.8477 1.094v1.766h-0.6562v-2.605c0-0.1758-0.007813-0.5-0.03125-0.7148h0.625c0.01562 0.168 0.02734 0.4062 0.02734 0.5469h0.01953c0.1719-0.3516 0.5586-0.6367 1.062-0.6367" fill="#231f1f"/>
<path d="m232 20.09h-2.312v-0.4688l1.41-1.398c0.2148-0.2188 0.3945-0.4531 0.3945-0.75 0-0.3711-0.2812-0.6133-0.6328-0.6133-0.3594 0-0.6055 0.2617-0.668 0.6172l-0.4727-0.08203c0.08203-0.5391 0.5391-0.9414 1.145-0.9414 0.5938 0 1.121 0.3477 1.121 1.008 0 0.457-0.2617 0.7656-0.5703 1.07l-1.152 1.121h1.738v0.4375" fill="#231f1f"/>
<path d="m175.3 31.82h-0.6836v-4.129l-0.9336 0.7812-0.4023-0.4688 1.406-1.141h0.6133v4.957" fill="#231f1f"/>
<path d="m178.1 28.95h0.2188c0.5664 0 1.105-0.1875 1.105-0.8242 0-0.4961-0.4062-0.8203-0.875-0.8203-0.4141 0-0.7188 0.2305-0.8672 0.6094l-0.6172-0.2188c0.2461-0.5938 0.8125-0.957 1.512-0.957 0.8281 0 1.527 0.4688 1.527 1.344 0 0.5547-0.3633 0.9961-0.875 1.129v0.01172c0.582 0.1211 1.008 0.5742 1.008 1.211 0 0.9883-0.8125 1.516-1.66 1.516-0.7852 0-1.414-0.3516-1.688-1.094l0.6328-0.2109c0.1445 0.4297 0.5234 0.7305 1.043 0.7305 0.4961 0 0.9922-0.3164 0.9922-0.9453 0-0.6953-0.6562-0.918-1.246-0.918h-0.2109v-0.5625" fill="#231f1f"/>
<path d="m184.5 28.41c0.4414 0 0.8281 0.1953 1.027 0.668 0.2266-0.4297 0.6602-0.668 1.129-0.668 0.8555 0 1.238 0.6094 1.238 1.352v2.059h-0.6562v-1.84c0-0.5391-0.1602-1.016-0.7344-1.016-0.6055 0-0.8398 0.5469-0.8398 1.062v1.793h-0.6602v-1.973c0-0.5195-0.1758-0.8828-0.6992-0.8828-0.4844 0-0.8477 0.4336-0.8477 1.094v1.762h-0.6602v-2.602c0-0.1758-0.003906-0.5-0.02734-0.7148h0.6211c0.01562 0.168 0.03125 0.4062 0.03125 0.5469h0.01953c0.168-0.3516 0.5547-0.6406 1.059-0.6406" fill="#231f1f"/>
<path d="m189.5 31.21h2.215v0.6133h-2.906v-4.957h0.6914v4.344" fill="#231f1f"/>
<path d="m192.1 32.05-0.4961-0.168 2.148-5.262 0.5 0.1836-2.152 5.246" fill="#231f1f"/>
<path d="m196.4 28.41c0.4375 0 0.8242 0.1953 1.027 0.668 0.2266-0.4297 0.6602-0.668 1.129-0.668 0.8516 0 1.238 0.6094 1.238 1.352v2.059h-0.6562v-1.84c0-0.5391-0.1602-1.016-0.7344-1.016-0.6055 0-0.8438 0.5469-0.8438 1.062v1.793h-0.6562v-1.973c0-0.5195-0.1758-0.8828-0.7031-0.8828-0.4805 0-0.8438 0.4336-0.8438 1.094v1.762h-0.6602v-2.602c0-0.1758-0.007812-0.5-0.02734-0.7148h0.6211c0.01562 0.168 0.03125 0.4062 0.03125 0.5469h0.01953c0.168-0.3516 0.5547-0.6406 1.059-0.6406" fill="#231f1f"/>
<path d="m201.4 31.82h-0.6562v-3.316h0.6562zm-0.3281-4.098c-0.2383 0-0.4375-0.1875-0.4375-0.418 0-0.2383 0.1992-0.4258 0.4375-0.4258 0.2383 0 0.4414 0.1797 0.4414 0.4258 0 0.2383-0.2031 0.418-0.4414 0.418" fill="#231f1f"/>
<path d="m203 28.5c0.01562 0.168 0.02734 0.4062 0.02734 0.5469h0.02344c0.1602-0.3594 0.6016-0.6406 1.078-0.6406 0.8555 0 1.238 0.6094 1.238 1.352v2.059h-0.6562v-1.84c0-0.5391-0.1484-1.016-0.7578-1.016-0.5156 0-0.8867 0.4336-0.8867 1.094v1.762h-0.6602v-2.602c0-0.1758-0.007813-0.5-0.02734-0.7148h0.6211" fill="#231f1f"/>
<path d="m206.2 32.05-0.5-0.168 2.152-5.262 0.4961 0.1836-2.148 5.246" fill="#231f1f"/>
<path d="m210.8 31.82h-0.6797v-4.129l-0.9336 0.7812-0.4023-0.4688 1.41-1.141h0.6055v4.957" fill="#231f1f"/>
<path d="m213.1 31.86c-0.2578 0-0.4688-0.2109-0.4688-0.4531 0-0.2539 0.207-0.4648 0.4688-0.4648 0.2695 0 0.4727 0.2031 0.4727 0.457 0 0.2461-0.2031 0.4609-0.4727 0.4609" fill="#231f1f"/>
<path d="m217.4 27.48-1.988 4.34h-0.7812l2.07-4.355h-2.461v-0.6016h3.16v0.6172" fill="#231f1f"/>
<path d="m219.3 28.95h0.2188c0.5664 0 1.105-0.1875 1.105-0.8242 0-0.4961-0.4062-0.8203-0.8789-0.8203-0.4102 0-0.7188 0.2305-0.8672 0.6094l-0.6133-0.2188c0.2422-0.5938 0.8086-0.957 1.512-0.957 0.8281 0 1.527 0.4688 1.527 1.344 0 0.5547-0.3633 0.9961-0.875 1.129v0.01172c0.582 0.1211 1.008 0.5742 1.008 1.211 0 0.9883-0.8125 1.516-1.66 1.516-0.7852 0-1.414-0.3516-1.688-1.094l0.6289-0.2109c0.1484 0.4297 0.5234 0.7305 1.043 0.7305 0.5 0 0.9961-0.3164 0.9961-0.9453 0-0.6953-0.6602-0.918-1.246-0.918h-0.2109v-0.5625" fill="#231f1f"/>
<path d="m225.6 28.41c0.4375 0 0.8242 0.1953 1.027 0.668 0.2266-0.4297 0.6562-0.668 1.125-0.668 0.8555 0 1.242 0.6094 1.242 1.352v2.059h-0.6602v-1.84c0-0.5391-0.1602-1.016-0.7344-1.016-0.6016 0-0.8398 0.5469-0.8398 1.062v1.793h-0.6562v-1.973c0-0.5195-0.1758-0.8828-0.7031-0.8828-0.4844 0-0.8477 0.4336-0.8477 1.094v1.762h-0.6562v-2.602c0-0.1758-0.007813-0.5-0.03125-0.7148h0.625c0.01562 0.168 0.02734 0.4062 0.02734 0.5469h0.01953c0.1719-0.3516 0.5586-0.6406 1.062-0.6406" fill="#231f1f"/>
<path d="m232 29.82h-2.312v-0.4648l1.41-1.402c0.2148-0.2188 0.3945-0.4492 0.3945-0.75 0-0.3672-0.2812-0.6094-0.6328-0.6094-0.3594 0-0.6055 0.2617-0.668 0.6172l-0.4727-0.08203c0.08203-0.5391 0.5391-0.9414 1.145-0.9414 0.5938 0 1.121 0.3477 1.121 1.008 0 0.4531-0.2617 0.7656-0.5703 1.07l-1.152 1.121h1.738v0.4336" fill="#231f1f"/>
<path transform="matrix(.1 0 0 -.1 0 152.9)" d="m953.5 249.3v-41.8" fill="none" stroke="#231f1f" stroke-width="5"/>
<path d="m127.5 138.9c0.6094 0 1.023-0.4414 1.023-1.055 0-0.5977-0.4023-1.039-1.016-1.039-0.625 0-1.039 0.4336-1.039 1.043 0 0.582 0.4141 1.051 1.031 1.051zm-0.4648-2.512 0.007813 0.01172c0.1445-0.08203 0.4102-0.1328 0.6172-0.1328 0.8711 0 1.547 0.6523 1.547 1.555 0 0.9883-0.7344 1.652-1.707 1.652-0.9883 0-1.715-0.6914-1.715-1.629 0-0.5391 0.1953-0.9531 0.4844-1.41l1.293-2.047h0.8086l-1.336 2" fill="#231f1f"/>
<path d="m130.7 136.9c0 0.8438 0.1836 2.031 1.004 2.031 0.8047 0 0.9922-1.188 0.9922-2.031 0-0.832-0.1875-2.035-0.9922-2.035-0.8203 0-1.004 1.203-1.004 2.035zm2.691 0c0 1.449-0.5117 2.605-1.688 2.605-1.184 0-1.695-1.156-1.695-2.605 0-1.441 0.5117-2.605 1.695-2.605 1.176 0 1.688 1.164 1.688 2.605" fill="#231f1f"/>
<path transform="matrix(.1 0 0 -.1 0 152.9)" d="m1296 249.3v-41.8" fill="none" stroke="#231f1f" stroke-width="5"/>
<path d="m161.4 136.4c0.4453 0 0.8086-0.3516 0.8086-0.8047 0-0.4766-0.3711-0.8125-0.8086-0.8125-0.4727 0-0.8125 0.3359-0.8125 0.8125 0 0.4531 0.3398 0.8047 0.8125 0.8047zm0 2.465c0.5586 0 0.9648-0.3867 0.9648-0.9453 0-0.5391-0.4062-0.9375-0.9648-0.9375-0.5664 0-0.9766 0.3906-0.9766 0.9375 0 0.5586 0.4023 0.9453 0.9766 0.9453zm1.656-0.9102c0 0.9336-0.7617 1.477-1.656 1.477-0.9023 0-1.668-0.543-1.668-1.477 0-0.6562 0.4297-1.121 0.9375-1.262v-0.01172c-0.4414-0.1562-0.7617-0.5625-0.7617-1.109 0-0.8164 0.6719-1.352 1.492-1.352 0.8086 0 1.484 0.5117 1.484 1.34 0 0.5391-0.3164 0.9727-0.7617 1.121v0.01172c0.5312 0.1328 0.9336 0.625 0.9336 1.262" fill="#231f1f"/>
<path d="m164.5 136.9c0 0.8438 0.1836 2.031 1.004 2.031 0.8047 0 0.9922-1.188 0.9922-2.031 0-0.832-0.1875-2.035-0.9922-2.035-0.8203 0-1.004 1.203-1.004 2.035zm2.691 0c0 1.449-0.5117 2.605-1.688 2.605-1.184 0-1.695-1.156-1.695-2.605 0-1.441 0.5117-2.605 1.695-2.605 1.176 0 1.688 1.164 1.688 2.605" fill="#231f1f"/>
<path transform="matrix(.1 0 0 -.1 0 152.9)" d="m1635 249.3v-41.8" fill="none" stroke="#231f1f" stroke-width="5"/>
<path d="m194.5 139.4h-0.6797v-4.133l-0.9375 0.7852-0.4023-0.4688 1.406-1.145h0.6133v4.961" fill="#231f1f"/>
<path d="m197.1 136.9c0 0.8438 0.1836 2.031 1 2.031 0.8086 0 0.9961-1.188 0.9961-2.031 0-0.832-0.1875-2.035-0.9961-2.035-0.8164 0-1 1.203-1 2.035zm2.691 0c0 1.449-0.5117 2.605-1.691 2.605-1.18 0-1.691-1.156-1.691-2.605 0-1.441 0.5117-2.605 1.691-2.605 1.18 0 1.691 1.164 1.691 2.605" fill="#231f1f"/>
<path d="m201.2 136.9c0 0.8438 0.1836 2.031 1.004 2.031 0.8047 0 0.9961-1.188 0.9961-2.031 0-0.832-0.1914-2.035-0.9961-2.035-0.8203 0-1.004 1.203-1.004 2.035zm2.691 0c0 1.449-0.5117 2.605-1.688 2.605-1.184 0-1.695-1.156-1.695-2.605 0-1.441 0.5117-2.605 1.695-2.605 1.176 0 1.688 1.164 1.688 2.605" fill="#231f1f"/>
<path transform="matrix(.1 0 0 -.1 0 152.9)" d="m1981 249.3v-41.8" fill="none" stroke="#231f1f" stroke-width="5"/>
<path d="m228.8 139.4h-0.6797v-4.133l-0.9375 0.7852-0.4023-0.4688 1.41-1.145h0.6094v4.961" fill="#231f1f"/>
<path d="m234 139.4h-3.238v-0.6523l1.977-1.961c0.3008-0.3086 0.5469-0.6289 0.5469-1.051 0-0.5156-0.3945-0.8516-0.8828-0.8516-0.5078 0-0.8477 0.3633-0.9336 0.8594l-0.6641-0.1094c0.1172-0.7578 0.7539-1.32 1.605-1.32 0.8242 0 1.566 0.4844 1.566 1.41 0 0.6367-0.3633 1.07-0.7969 1.5l-1.609 1.566h2.43v0.6094" fill="#231f1f"/>
<g clip-path="url(#a)">
<path d="m235.6 136.9c0 0.8438 0.1836 2.031 1.004 2.031 0.8047 0 0.9961-1.188 0.9961-2.031 0-0.832-0.1914-2.035-0.9961-2.035-0.8203 0-1.004 1.203-1.004 2.035zm2.691 0c0 1.449-0.5117 2.605-1.688 2.605-1.184 0-1.695-1.156-1.695-2.605 0-1.441 0.5117-2.605 1.695-2.605 1.176 0 1.688 1.164 1.688 2.605" fill="#231f1f"/>
</g>
<path transform="matrix(.1 0 0 -.1 0 152.9)" d="m2324 249.3v-41.8" fill="none" stroke="#231f1f" stroke-width="5"/>
<path d="m17.69 127.8c0 0.8398 0.1797 2.031 1 2.031 0.8047 0 0.9961-1.191 0.9961-2.031 0-0.832-0.1914-2.039-0.9961-2.039-0.8203 0-1 1.207-1 2.039zm2.688 0c0 1.449-0.5117 2.605-1.688 2.605-1.184 0-1.695-1.156-1.695-2.605 0-1.441 0.5117-2.605 1.695-2.605 1.176 0 1.688 1.164 1.688 2.605" fill="#231f1f"/>
<path transform="matrix(.1 0 0 -.1 0 152.9)" d="m265.6 344.6h-41.76" fill="none" stroke="#231f1f" stroke-width="5"/>
<path d="m19.25 120.8h-0.6758v-4.133l-0.9414 0.7852-0.3984-0.4688 1.406-1.141h0.6094v4.957" fill="#231f1f"/>
<path transform="matrix(.1 0 0 -.1 0 152.9)" d="m265.6 434.5h-41.76" fill="none" stroke="#231f1f" stroke-width="5"/>
<path d="m20.26 111.8h-3.234v-0.6523l1.973-1.961c0.3008-0.3086 0.5469-0.6289 0.5469-1.051 0-0.5195-0.3906-0.8555-0.8828-0.8555-0.5039 0-0.8477 0.3672-0.9336 0.8633l-0.6641-0.1133c0.1211-0.7539 0.7578-1.316 1.605-1.316 0.8242 0 1.566 0.4844 1.566 1.41 0 0.6367-0.3633 1.07-0.7969 1.496l-1.609 1.57h2.43v0.6094" fill="#231f1f"/>
<path transform="matrix(.1 0 0 -.1 0 152.9)" d="m265.6 522.2h-41.76" fill="none" stroke="#231f1f" stroke-width="5"/>
<path d="m18.09 100.1h0.2148c0.5703 0 1.109-0.1875 1.109-0.8281 0-0.4961-0.4062-0.8164-0.8789-0.8164-0.4102 0-0.7188 0.2305-0.8672 0.6094l-0.6172-0.2188c0.2461-0.5938 0.8125-0.9609 1.516-0.9609 0.8242 0 1.527 0.4727 1.527 1.348 0 0.5508-0.3672 0.9922-0.8789 1.125v0.01562c0.582 0.1172 1.012 0.5742 1.012 1.211 0 0.9883-0.8125 1.516-1.66 1.516-0.7852 0-1.414-0.3516-1.688-1.094l0.6289-0.2109c0.1484 0.4258 0.5234 0.7266 1.043 0.7266 0.4961 0 0.9961-0.3125 0.9961-0.9453 0-0.6914-0.6602-0.9141-1.246-0.9141h-0.2109v-0.5625" fill="#231f1f"/>
<path transform="matrix(.1 0 0 -.1 0 152.9)" d="m265.6 608.8h-41.76" fill="none" stroke="#231f1f" stroke-width="5"/>
<path d="m19.1 90.17h-0.01562l-1.566 2.484h1.582zm0.6602 2.484h0.7109v0.582h-0.7109v1.113h-0.6602v-1.113h-2.281v-0.6172l2.105-3.227h0.8359v3.262" fill="#231f1f"/>
<path transform="matrix(.1 0 0 -.1 0 152.9)" d="m265.6 698.7h-41.76" fill="none" stroke="#231f1f" stroke-width="5"/>
<path d="m20.03 81h-2.043l-0.04297 1.301c0.1836-0.0625 0.4336-0.08984 0.6367-0.08984 0.9531 0 1.66 0.6016 1.66 1.562 0 1.035-0.7422 1.707-1.73 1.707-0.7695 0-1.316-0.3906-1.582-0.9922l0.6172-0.2461c0.1523 0.3984 0.5234 0.6641 0.9648 0.6641 0.582 0 1.039-0.4258 1.039-1.062 0-0.75-0.5469-1.086-1.164-1.086-0.3711 0-0.793 0.1133-1.098 0.2734l0.06641-2.633h2.676v0.6016" fill="#231f1f"/>
<path transform="matrix(.1 0 0 -.1 0 152.9)" d="m265.6 789.7h-41.76" fill="none" stroke="#231f1f" stroke-width="5"/>
<path d="m18.68 75.82c0.6094 0 1.023-0.4414 1.023-1.059 0-0.5977-0.3984-1.039-1.016-1.039-0.6211 0-1.035 0.4375-1.035 1.047 0 0.5781 0.4141 1.051 1.027 1.051zm-0.4609-2.516 0.007812 0.01172c0.1406-0.08203 0.4062-0.1328 0.6172-0.1328 0.8672 0 1.547 0.6523 1.547 1.555 0 0.9883-0.7344 1.656-1.711 1.656-0.9844 0-1.715-0.6953-1.715-1.633 0-0.5391 0.1953-0.9531 0.4844-1.41l1.293-2.043h0.8086l-1.332 1.996" fill="#231f1f"/>
<path transform="matrix(.1 0 0 -.1 0 152.9)" d="m265.6 877.4h-41.76" fill="none" stroke="#231f1f" stroke-width="5"/>
<path d="m20.21 63.15-1.988 4.344h-0.7773l2.066-4.359h-2.457v-0.6016h3.156v0.6172" fill="#231f1f"/>
<path transform="matrix(.1 0 0 -.1 0 152.9)" d="m265.6 967.3h-41.76" fill="none" stroke="#231f1f" stroke-width="5"/>
<path d="m18.69 55.59c0.4492 0 0.8125-0.3477 0.8125-0.8047 0-0.4766-0.3711-0.8125-0.8125-0.8125-0.4688 0-0.8125 0.3359-0.8125 0.8125 0 0.457 0.3438 0.8047 0.8125 0.8047zm0 2.465c0.5625 0 0.9688-0.3828 0.9688-0.9453 0-0.5391-0.4062-0.9375-0.9688-0.9375-0.5664 0-0.9727 0.3945-0.9727 0.9375 0 0.5625 0.3984 0.9453 0.9727 0.9453zm1.66-0.9102c0 0.9336-0.7617 1.48-1.66 1.48-0.9023 0-1.664-0.5469-1.664-1.48 0-0.6562 0.4258-1.117 0.9375-1.258v-0.01562c-0.4414-0.1523-0.7656-0.5586-0.7656-1.105 0-0.8203 0.6719-1.352 1.492-1.352 0.8125 0 1.484 0.5117 1.484 1.336 0 0.5391-0.3125 0.9727-0.7617 1.121v0.01562c0.5312 0.1328 0.9375 0.6211 0.9375 1.258" fill="#231f1f"/>
<path transform="matrix(.1 0 0 -.1 0 152.9)" d="m265.6 1056h-41.76" fill="none" stroke="#231f1f" stroke-width="5"/>
<path d="m18.7 45.11c-0.6094 0-1.031 0.4492-1.031 1.062 0 0.5977 0.4062 1.035 1.023 1.035 0.625 0 1.035-0.4336 1.035-1.043 0-0.5781-0.4102-1.055-1.027-1.055zm0.4609 2.512-0.003906-0.003907c-0.07031 0.03906-0.1758 0.07422-0.2891 0.09766-0.1133 0.01953-0.2305 0.03516-0.3359 0.03516-0.8672 0-1.547-0.6523-1.547-1.555 0-0.9883 0.7422-1.656 1.715-1.656 0.9805 0 1.711 0.6953 1.711 1.633 0 0.5391-0.1992 0.9531-0.4805 1.41l-1.293 2.043h-0.8047l1.328-2.004" fill="#231f1f"/>
<path transform="matrix(.1 0 0 -.1 0 152.9)" d="m265.6 1145h-41.76" fill="none" stroke="#231f1f" stroke-width="5"/>
<path d="m15.09 40.7h-0.6797v-4.133l-0.9375 0.7852-0.3984-0.4688 1.406-1.141h0.6094v4.957" fill="#231f1f"/>
<path d="m17.69 38.21c0 0.8438 0.1797 2.031 1 2.031 0.8047 0 0.9961-1.188 0.9961-2.031 0-0.832-0.1914-2.035-0.9961-2.035-0.8203 0-1 1.203-1 2.035zm2.688 0c0 1.449-0.5117 2.605-1.688 2.605-1.184 0-1.695-1.156-1.695-2.605 0-1.441 0.5117-2.605 1.695-2.605 1.176 0 1.688 1.164 1.688 2.605" fill="#231f1f"/>
<path transform="matrix(.1 0 0 -.1 0 152.9)" d="m265.6 1235h-41.76" fill="none" stroke="#231f1f" stroke-width="5"/>
<path d="m15.09 31.71h-0.6797v-4.133l-0.9375 0.7852-0.3984-0.4688 1.406-1.141h0.6094v4.957" fill="#231f1f"/>
<path d="m19.26 31.71h-0.6797v-4.133l-0.9414 0.7852-0.3984-0.4688 1.41-1.141h0.6094v4.957" fill="#231f1f"/>
<path transform="matrix(.1 0 0 -.1 0 152.9)" d="m265.6 1325h-41.76" fill="none" stroke="#231f1f" stroke-width="5"/>
<path d="m15.09 22.72h-0.6797v-4.133l-0.9375 0.7852-0.3984-0.4688 1.406-1.141h0.6094v4.957" fill="#231f1f"/>
<path d="m20.26 22.72h-3.234v-0.6523l1.973-1.961c0.3008-0.3047 0.5469-0.6289 0.5469-1.051 0-0.5156-0.3906-0.8516-0.8828-0.8516-0.5039 0-0.8477 0.3633-0.9297 0.8594l-0.668-0.1133c0.1211-0.7539 0.7578-1.312 1.605-1.312 0.8242 0 1.566 0.4805 1.566 1.406 0 0.6367-0.3633 1.07-0.7969 1.5l-1.609 1.566h2.43v0.6094" fill="#231f1f"/>
<path transform="matrix(.1 0 0 -.1 0 152.9)" d="m265.6 1413h-41.76" fill="none" stroke="#231f1f" stroke-width="5"/>
<path d="m15.09 13.95h-0.6797v-4.129l-0.9375 0.7852-0.3984-0.4688 1.406-1.145h0.6094v4.957" fill="#231f1f"/>
<path d="m18.09 11.07h0.2148c0.5703 0 1.109-0.1875 1.109-0.8242 0-0.4961-0.4062-0.8203-0.875-0.8203-0.4141 0-0.7227 0.2305-0.8711 0.6094l-0.6172-0.2148c0.2461-0.5977 0.8125-0.9609 1.516-0.9609 0.8242 0 1.527 0.4688 1.527 1.344 0 0.5547-0.3672 0.9961-0.875 1.129v0.01172c0.5781 0.1211 1.008 0.5781 1.008 1.215 0 0.9844-0.8125 1.512-1.66 1.512-0.7852 0-1.414-0.3516-1.688-1.094l0.6289-0.2109c0.1484 0.4297 0.5234 0.7305 1.043 0.7305 0.4961 0 0.9961-0.3164 0.9961-0.9453 0-0.6953-0.6602-0.918-1.246-0.918h-0.2109v-0.5625" fill="#231f1f"/>
<path transform="matrix(.1 0 0 -.1 0 152.9)" d="m265.6 1503h-41.76" fill="none" stroke="#231f1f" stroke-width="5"/>
<path d="m15.09 4.957h-0.6797v-4.133l-0.9375 0.7852-0.3984-0.4688 1.406-1.141h0.6094v4.957" fill="#231f1f"/>
<path d="m19.1 0.7773h-0.01172l-1.57 2.484h1.582zm0.6602 2.484h0.7109v0.582h-0.7109v1.113h-0.6602v-1.113h-2.281v-0.6172l2.105-3.227h0.8359v3.262" fill="#231f1f"/>
<path transform="matrix(.1 0 0 -.1 0 152.9)" d="m397.1 1391c20-83.32 66.68-443.3 113.4-543.3 46.64-100 123.3-256.7 376.6-356.7 253.4-100 646.7-120 763.4-130 116.7-10 673.3-40 673.3-40" fill="none" stroke="#231f1f" stroke-linecap="round" stroke-width="7.5"/>
<path transform="matrix(.1 0 0 -.1 0 152.9)" d="m847.1 564.2v96.72h-160" fill="none" stroke="#2d9edf" stroke-linecap="round" stroke-width="20"/>
<path d="m62.5 86.82c3.125-1.16 7-3.137 9.402-5.23l-1.891 5.23 1.891 5.23c-2.402-2.094-6.277-4.074-9.402-5.23" fill="#2d9edf"/>
<path d="m84.64 102.4c-1.16-3.125-3.137-7-5.23-9.402l5.23 1.895 5.23-1.895c-2.094 2.402-4.07 6.277-5.23 9.402" fill="#2d9edf"/>
<path transform="matrix(.1 0 0 -.1 0 152.9)" d="m2324 294.3v83.32h-696.6" fill="none" stroke="#d40f41" stroke-linecap="round" stroke-width="20"/>
<path d="m156.1 115.2c3.121-1.16 7-3.137 9.402-5.23l-1.891 5.23 1.891 5.23c-2.402-2.094-6.281-4.07-9.402-5.23" fill="#d40f41"/>
<path d="m232.4 127.4c-1.16-3.121-3.137-6.996-5.23-9.398l5.23 1.891 5.23-1.891c-2.094 2.402-4.07 6.277-5.23 9.398" fill="#d40f41"/>
<path transform="matrix(.1 0 0 -.1 0 152.9)" d="m2361 1179h-1834v315.6h1834z" fill="none" stroke="#231f1f" stroke-width="5.48"/>
<path transform="matrix(.1 0 0 -.1 0 152.9)" d="m857.5 1494v-315.2" fill="none" stroke="#231f1f" stroke-width="5"/>
<path transform="matrix(.1 0 0 -.1 0 152.9)" d="m1698 1494v-315.2" fill="none" stroke="#231f1f" stroke-width="5"/>
<path transform="matrix(.1 0 0 -.1 0 152.9)" d="m528.8 1383h1832" fill="none" stroke="#231f1f" stroke-width="5.484"/>
<path transform="matrix(.1 0 0 -.1 0 152.9)" d="m528.8 1281h1832" fill="none" stroke="#231f1f" stroke-width="5.484"/>
</svg>
