<?xml version="1.0" encoding="UTF-8"?>
<svg width="322.5pt" height="196pt" version="1.1" viewBox="0 0 322.5 196" xmlns="http://www.w3.org/2000/svg">
<defs>
<clipPath id="d">
<path d="m259 161h63.5v35h-63.5z"/>
</clipPath>
<clipPath id="c">
<path d="m258 161h64.5v35h-64.5z"/>
</clipPath>
<clipPath id="b">
<path d="m259 121h63.5v23h-63.5z"/>
</clipPath>
<clipPath id="a">
<path d="m258 120h64.5v25h-64.5z"/>
</clipPath>
</defs>
<path transform="matrix(.1 0 0 -.1 0 196)" d="m2475 917.7v-282.7" fill="none" stroke="#231f1f" stroke-width="5"/>
<path transform="matrix(.1 0 0 -.1 0 196)" d="m750 1304v-172.5" fill="none" stroke="#231f1f" stroke-width="5"/>
<path d="m75 86.5c-0.6328-1.703-1.711-3.816-2.852-5.129l2.852 1.031 2.852-1.031c-1.141 1.312-2.219 3.426-2.852 5.129" fill="#231f1f"/>
<path transform="matrix(.1 0 0 -.1 0 196)" d="m2475 1299v-172.5" fill="none" stroke="#231f1f" stroke-width="5"/>
<path d="m247.5 86.98c-0.6328-1.707-1.711-3.82-2.855-5.129l2.855 1.031 2.855-1.031c-1.145 1.309-2.223 3.422-2.855 5.129" fill="#231f1f"/>
<path transform="matrix(.1 0 0 -.1 0 196)" d="m2044 556.2v-172.5" fill="none" stroke="#231f1f" stroke-width="5"/>
<path d="m204.4 161.2c-0.6328-1.703-1.711-3.816-2.852-5.129l2.852 1.031 2.852-1.031c-1.141 1.312-2.219 3.426-2.852 5.129" fill="#231f1f"/>
<path transform="matrix(.1 0 0 -.1 0 196)" d="m2906 556.2v-172.5" fill="none" stroke="#231f1f" stroke-width="5"/>
<path d="m290.6 161.2c-0.6328-1.703-1.711-3.816-2.852-5.129l2.852 1.031 2.852-1.031c-1.141 1.312-2.219 3.426-2.852 5.129" fill="#231f1f"/>
<path d="m207.2 23.25h-92v-23h92v23" fill="#fef0ca"/>
<path transform="matrix(.1 0 0 -.1 0 196)" d="m2072 1728h-920v230h920z" fill="none" stroke="#231f1f" stroke-width="5"/>
<path d="m293.5 69.73h-92v-17.25h92v17.25" fill="#fef0ca"/>
<path transform="matrix(.1 0 0 -.1 0 196)" d="m2935 1263h-920v172.5h920z" fill="none" stroke="#231f1f" stroke-width="5"/>
<path d="m293.5 109.5h-92v-22.52h92v22.52" fill="#fef0ca"/>
<path transform="matrix(.1 0 0 -.1 0 196)" d="m2935 865h-920v225.2h920z" fill="none" stroke="#231f1f" stroke-width="5"/>
<path d="m121 69.25-92-0.4766v-16.77l92 0.4766v16.77" fill="#fef0ca"/>
<path transform="matrix(.1 0 0 -.1 0 196)" d="m1210 1268-920 4.766v167.7l920-4.766z" fill="none" stroke="#231f1f" stroke-width="5"/>
<path d="m135.9 4.703h0.6953v2.074h2.504v-2.074h0.7031v4.961h-0.7031v-2.27h-2.504v2.27h-0.6953v-4.961" fill="#231f1f"/>
<path d="m141.7 9.664h-0.6602v-3.32h0.6602zm-0.3281-4.098c-0.2383 0-0.4375-0.1875-0.4375-0.4219s0.1992-0.4258 0.4375-0.4258c0.2383 0 0.4375 0.1836 0.4375 0.4258 0 0.2422-0.1992 0.4219-0.4375 0.4219" fill="#231f1f"/>
<path d="m144.6 7.184c-0.1484-0.2383-0.4336-0.4141-0.7734-0.4141-0.3008 0-0.6133 0.1211-0.6133 0.4336 0 0.2812 0.25 0.3867 0.7539 0.5 0.6328 0.1406 1.113 0.3984 1.113 0.9805 0 0.7852-0.6484 1.07-1.324 1.07-0.5039 0-1.02-0.1953-1.336-0.5938l0.4688-0.3984c0.1758 0.2578 0.5117 0.4609 0.8828 0.4609 0.3281 0 0.6602-0.1172 0.6602-0.4844 0-0.3047-0.3047-0.418-0.8711-0.5508-0.4414-0.1055-0.9648-0.2969-0.9648-0.918 0-0.7148 0.6211-1.016 1.254-1.016 0.4688 0 0.9648 0.1875 1.203 0.5469l-0.4531 0.3828" fill="#231f1f"/>
<path d="m147.6 6.883h-0.8828v1.73c0 0.3984 0.1406 0.5625 0.4688 0.5625 0.1211 0 0.2734-0.03125 0.3867-0.08594l0.01953 0.5391c-0.1523 0.05469-0.3555 0.08984-0.5586 0.08984-0.625 0-0.9688-0.3477-0.9688-1.035v-1.801h-0.6367v-0.5391h0.6367v-0.9531h0.6523v0.9531h0.8828v0.5391" fill="#231f1f"/>
<path d="m149.8 6.801c-0.707 0-1.105 0.5664-1.105 1.195 0 0.6328 0.3984 1.207 1.105 1.207 0.7148 0 1.109-0.5742 1.109-1.207 0-0.6289-0.3945-1.195-1.109-1.195zm0 2.953c-1.016 0-1.785-0.7344-1.785-1.758 0-1.02 0.7695-1.742 1.785-1.742 1.016 0 1.793 0.7227 1.793 1.742 0 1.023-0.7773 1.758-1.793 1.758" fill="#231f1f"/>
<path d="m152.5 6.344h0.6211c0.01563 0.168 0.03125 0.4219 0.03125 0.5625h0.01953c0.1836-0.3867 0.5664-0.6523 1.016-0.6523 0.08984 0 0.1797 0.007813 0.2578 0.02734l-0.02734 0.6094c-0.08594-0.01953-0.1953-0.03516-0.3008-0.03516-0.6289 0-0.9336 0.5117-0.9336 1.066v1.742h-0.6562v-2.605c0-0.1758-0.007812-0.4961-0.02734-0.7148" fill="#231f1f"/>
<path d="m156.3 8.949h0.01562l0.918-2.605h0.6992l-1.609 4.105c-0.2188 0.5547-0.5 0.8945-1.148 0.8945-0.1406 0-0.2891-0.01172-0.4375-0.04688l0.06641-0.582c0.1016 0.03516 0.2227 0.05469 0.3281 0.05469 0.3438 0 0.4766-0.1953 0.6172-0.5508l0.2109-0.5547-1.426-3.32h0.7383l1.027 2.605" fill="#231f1f"/>
<path d="m158.5 10.6h-0.5586l0.4844-1.754h0.6562l-0.582 1.754" fill="#231f1f"/>
<path d="m163.4 6.801c-0.6719 0-1.121 0.5664-1.121 1.203 0 0.6367 0.4492 1.199 1.121 1.199 0.7227 0 1.105-0.582 1.105-1.207 0-0.6211-0.3828-1.195-1.105-1.195zm-1.078 4.543h-0.6602v-5h0.6445v0.5195h0.02344c0.2148-0.3516 0.6484-0.6094 1.195-0.6094 0.9883 0 1.66 0.7617 1.66 1.742 0 0.9766-0.6484 1.758-1.672 1.758-0.4688 0-0.9258-0.2148-1.172-0.5859h-0.01953v2.176" fill="#231f1f"/>
<path d="m166.8 6.848c0.1562-0.3281 0.5742-0.5938 1.051-0.5938 0.8555 0 1.242 0.6094 1.242 1.352v2.059h-0.6602v-1.836c0-0.5391-0.1406-1.016-0.75-1.016-0.5195 0-0.8945 0.4336-0.8945 1.094v1.758h-0.6602v-5.297h0.6602v2.48h0.01172" fill="#231f1f"/>
<path d="m171.5 8.949h0.01172l0.918-2.605h0.7031l-1.613 4.105c-0.2148 0.5547-0.4961 0.8945-1.148 0.8945-0.1406 0-0.2852-0.01172-0.4336-0.04688l0.0625-0.582c0.1055 0.03516 0.2227 0.05469 0.3281 0.05469 0.3438 0 0.4766-0.1953 0.6172-0.5508l0.2109-0.5547-1.422-3.32h0.7344l1.031 2.605" fill="#231f1f"/>
<path d="m175.5 7.184c-0.1445-0.2383-0.4336-0.4141-0.7695-0.4141-0.3008 0-0.6172 0.1211-0.6172 0.4336 0 0.2812 0.2539 0.3867 0.7578 0.5 0.6289 0.1406 1.113 0.3984 1.113 0.9805 0 0.7852-0.6523 1.07-1.324 1.07-0.5039 0-1.023-0.1953-1.336-0.5938l0.4688-0.3984c0.1719 0.2578 0.5117 0.4609 0.8828 0.4609 0.3281 0 0.6562-0.1172 0.6562-0.4844 0-0.3047-0.3008-0.418-0.8672-0.5508-0.4414-0.1055-0.9688-0.2969-0.9688-0.918 0-0.7148 0.625-1.016 1.254-1.016 0.4688 0 0.9688 0.1875 1.207 0.5469l-0.457 0.3828" fill="#231f1f"/>
<path d="m177.5 9.664h-0.6562v-3.32h0.6562zm-0.3281-4.098c-0.2383 0-0.4336-0.1875-0.4336-0.4219s0.1953-0.4258 0.4336-0.4258 0.4414 0.1836 0.4414 0.4258c0 0.2422-0.2031 0.4219-0.4414 0.4219" fill="#231f1f"/>
<path d="m181 7.184c-0.1406-0.2148-0.4492-0.375-0.7617-0.375-0.6875 0-1.086 0.5586-1.086 1.195 0 0.6289 0.3984 1.199 1.094 1.199 0.3359 0 0.6211-0.1406 0.7969-0.3672l0.4414 0.4023c-0.2812 0.3203-0.707 0.5156-1.238 0.5156-1.023 0-1.789-0.6914-1.789-1.75 0-1.043 0.7578-1.75 1.773-1.75 0.4688 0 0.9727 0.1875 1.246 0.5469l-0.4766 0.3828" fill="#231f1f"/>
<path d="m184 8.082c-0.6523 0-1.48 0.07031-1.48 0.6289 0 0.3945 0.3516 0.5195 0.6797 0.5195 0.6172 0 0.9609-0.4141 0.9609-0.9727v-0.1758zm0.1602-0.5664c0-0.4922-0.3281-0.7305-0.8203-0.7305-0.3711 0-0.7188 0.1602-0.9453 0.3867l-0.3477-0.4219c0.3203-0.3086 0.8164-0.4961 1.355-0.4961 0.9531 0 1.391 0.5664 1.391 1.301v1.453c0 0.2227 0.01172 0.4961 0.04688 0.6562h-0.5938c-0.03516-0.1484-0.05859-0.3203-0.05859-0.4766h-0.01953c-0.2383 0.3594-0.6172 0.5586-1.113 0.5586-0.5273 0-1.207-0.2578-1.207-1.02 0-1.004 1.191-1.121 2.312-1.121v-0.08984" fill="#231f1f"/>
<path d="m186.6 9.664h-0.6562v-5.297h0.6562v5.297" fill="#231f1f"/>
<path d="m157.1 18.06h-0.6953v-4.348h-1.59v-0.6094h3.875v0.6094h-1.59v4.348" fill="#231f1f"/>
<path d="m161.8 14.02c-0.1953-0.2734-0.5508-0.4609-0.9648-0.4609-0.4492 0-0.9688 0.2422-0.9688 0.8047 0 0.5391 0.457 0.6836 1.016 0.8672 0.668 0.2109 1.457 0.4609 1.457 1.449 0 1.031-0.832 1.508-1.715 1.508-0.625 0-1.254-0.2461-1.633-0.7227l0.5391-0.4531c0.2305 0.3398 0.6523 0.5781 1.109 0.5781 0.4609 0 0.9922-0.2578 0.9922-0.8477 0-0.6016-0.5469-0.7617-1.176-0.9609-0.6328-0.1914-1.289-0.4805-1.289-1.391 0-0.9883 0.8828-1.414 1.703-1.414 0.5742 0 1.113 0.2227 1.422 0.5664l-0.4922 0.4766" fill="#231f1f"/>
<path d="m163.3 13.11h0.6914v2.074h2.508v-2.074h0.6992v4.957h-0.6992v-2.266h-2.508v2.266h-0.6914v-4.957" fill="#231f1f"/>
<path d="m44.06 57.54h0.6953v2.074h2.508v-2.074h0.6992v4.961h-0.6992v-2.273h-2.508v2.273h-0.6953v-4.961" fill="#231f1f"/>
<path d="m49.79 62.5h-0.6562v-3.32h0.6562zm-0.3281-4.102c-0.2383 0-0.4336-0.1875-0.4336-0.418 0-0.2383 0.1953-0.4258 0.4336-0.4258 0.2383 0 0.4414 0.1797 0.4414 0.4258 0 0.2383-0.2031 0.418-0.4414 0.418" fill="#231f1f"/>
<path d="m52.5 61.98c0.6797 0 1.125-0.5117 1.125-1.168 0-0.6328-0.4531-1.172-1.125-1.172-0.6953 0-1.102 0.5312-1.102 1.172 0 0.6055 0.4062 1.168 1.102 1.168zm-1.305 1.094c0.2891 0.3203 0.7578 0.5391 1.211 0.5391 0.8789 0 1.172-0.5391 1.172-1.227v-0.4297h-0.01562c-0.2422 0.3711-0.6992 0.5742-1.168 0.5742-1.016 0-1.676-0.7539-1.676-1.707 0-0.9531 0.6523-1.73 1.668-1.73 0.4766 0 0.9453 0.2109 1.199 0.625h0.01172v-0.5312h0.6367v3.152c0 0.9648-0.4531 1.848-1.832 1.848-0.5742 0-1.211-0.2266-1.625-0.6055l0.418-0.5078" fill="#231f1f"/>
<path d="m56.05 59.69c0.1562-0.332 0.5742-0.5977 1.051-0.5977 0.8555 0 1.242 0.6094 1.242 1.352v2.062h-0.6602v-1.84c0-0.5352-0.1406-1.012-0.75-1.012-0.5195 0-0.8945 0.4336-0.8945 1.09v1.762h-0.6602v-5.297h0.6602v2.48h0.01172" fill="#231f1f"/>
<path d="m62.77 59.64c-0.707 0-1.109 0.5664-1.109 1.199 0 0.6289 0.4023 1.203 1.109 1.203 0.7109 0 1.105-0.5742 1.105-1.203 0-0.6328-0.3945-1.199-1.105-1.199zm0 2.957c-1.016 0-1.789-0.7383-1.789-1.758 0-1.023 0.7734-1.746 1.789-1.746 1.016 0 1.793 0.7227 1.793 1.746 0 1.02-0.7773 1.758-1.793 1.758" fill="#231f1f"/>
<path d="m65.45 59.18h0.625c0.01172 0.168 0.02734 0.418 0.02734 0.5586h0.01953c0.1836-0.3867 0.5664-0.6523 1.016-0.6523 0.08984 0 0.1836 0.007812 0.2578 0.02734l-0.02734 0.6094c-0.08203-0.01953-0.1953-0.03516-0.3008-0.03516-0.6289 0-0.9297 0.5117-0.9297 1.066v1.746h-0.6602v-2.609c0-0.1719-0.007812-0.4961-0.02734-0.7109" fill="#231f1f"/>
<path d="m70.35 59.18c0.01563 0.168 0.02734 0.4062 0.02734 0.543h0.02344c0.1602-0.3555 0.6016-0.6367 1.078-0.6367 0.8555 0 1.238 0.6094 1.238 1.352v2.062h-0.6562v-1.844c0-0.5391-0.1484-1.016-0.7578-1.016-0.5195 0-0.8906 0.4336-0.8906 1.09v1.77h-0.6562v-2.609c0-0.1719-0.007812-0.4961-0.02734-0.7109h0.6211" fill="#231f1f"/>
<path d="m75.4 59.64c-0.707 0-1.105 0.5664-1.105 1.199 0 0.6289 0.3984 1.203 1.105 1.203 0.7148 0 1.109-0.5742 1.109-1.203 0-0.6328-0.3945-1.199-1.109-1.199zm0 2.957c-1.016 0-1.785-0.7383-1.785-1.758 0-1.023 0.7695-1.746 1.785-1.746 1.016 0 1.793 0.7227 1.793 1.746 0 1.02-0.7773 1.758-1.793 1.758" fill="#231f1f"/>
<path d="m78.07 59.18h0.6211c0.01563 0.168 0.02734 0.418 0.02734 0.5586h0.02344c0.1797-0.3867 0.5664-0.6523 1.016-0.6523 0.08984 0 0.1797 0.007812 0.2578 0.02734l-0.02734 0.6094c-0.08594-0.01953-0.1953-0.03516-0.3008-0.03516-0.6328 0-0.9336 0.5117-0.9336 1.066v1.746h-0.6562v-2.609c0-0.1719-0.007812-0.4961-0.02734-0.7109" fill="#231f1f"/>
<path d="m82.34 59.09c0.4414 0 0.8281 0.1953 1.031 0.668 0.2227-0.4297 0.6562-0.668 1.125-0.668 0.8555 0 1.242 0.6094 1.242 1.352v2.062h-0.6602v-1.844c0-0.5391-0.1602-1.016-0.7344-1.016-0.6016 0-0.8398 0.5469-0.8398 1.066v1.793h-0.6602v-1.977c0-0.5195-0.1758-0.8828-0.6992-0.8828-0.4844 0-0.8477 0.4336-0.8477 1.09v1.77h-0.6562v-2.609c0-0.1719-0.007813-0.4961-0.03125-0.7109h0.625c0.01172 0.168 0.02734 0.4062 0.02734 0.543h0.02344c0.168-0.3477 0.5508-0.6367 1.055-0.6367" fill="#231f1f"/>
<path d="m88.75 60.92c-0.6523 0-1.48 0.07031-1.48 0.6328 0 0.3906 0.3516 0.5156 0.6797 0.5156 0.6172 0 0.9609-0.4141 0.9609-0.9727v-0.1758zm0.1602-0.5664c0-0.4922-0.3281-0.7305-0.8203-0.7305-0.3711 0-0.7227 0.1641-0.9453 0.3867l-0.3516-0.418c0.3242-0.3086 0.8203-0.5 1.359-0.5 0.9531 0 1.387 0.5664 1.387 1.305v1.449c0 0.2227 0.01563 0.4961 0.05078 0.6602h-0.5977c-0.03125-0.1484-0.05469-0.3242-0.05469-0.4805h-0.01953c-0.2383 0.3594-0.6172 0.5625-1.113 0.5625-0.5273 0-1.207-0.2617-1.207-1.023 0-1 1.191-1.121 2.312-1.121v-0.08984" fill="#231f1f"/>
<path d="m91.31 62.5h-0.6562v-5.297h0.6562v5.297" fill="#231f1f"/>
<path d="m95.81 62.5h-0.6953v-4.352h-1.59v-0.6094h3.875v0.6094h-1.59v4.352" fill="#231f1f"/>
<path d="m100.5 58.46c-0.1953-0.2734-0.5547-0.4648-0.9688-0.4648-0.4453 0-0.9648 0.2461-0.9648 0.8086 0 0.5391 0.4531 0.6836 1.016 0.8672 0.6641 0.2109 1.457 0.4609 1.457 1.449 0 1.031-0.832 1.508-1.715 1.508-0.625 0-1.254-0.2461-1.633-0.7227l0.5391-0.457c0.2305 0.3438 0.6523 0.582 1.105 0.582 0.4648 0 0.9961-0.2578 0.9961-0.8477 0-0.6016-0.5469-0.7617-1.176-0.957-0.6328-0.1992-1.289-0.4844-1.289-1.395 0-0.9883 0.8828-1.418 1.699-1.418 0.5742 0 1.113 0.2266 1.422 0.5703l-0.4883 0.4766" fill="#231f1f"/>
<path d="m102 57.54h0.6953v2.074h2.508v-2.074h0.6992v4.961h-0.6992v-2.273h-2.508v2.273h-0.6953v-4.961" fill="#231f1f"/>
<path d="m121 103.8-92-0.4766v-16.77l92 0.4766v16.77" fill="#fef0ca"/>
<path transform="matrix(.1 0 0 -.1 0 196)" d="m1210 922.5-920 4.766v167.7l920-4.766z" fill="none" stroke="#231f1f" stroke-width="5"/>
<path d="m57.91 95.16v-3.121h0.6914v3.082c0 0.6797 0.3086 1.379 1.234 1.379 0.9258 0 1.234-0.6992 1.234-1.379v-3.082h0.6914v3.121c0 1.02-0.6172 1.965-1.926 1.965-1.309 0-1.926-0.9453-1.926-1.965" fill="#231f1f"/>
<path d="m63.57 97h-0.6602v-5.293h0.6602v5.293" fill="#231f1f"/>
<path d="m66.34 94.22h-0.8828v1.727c0 0.4023 0.1406 0.5625 0.4688 0.5625 0.1172 0 0.2734-0.02734 0.3867-0.08594l0.01953 0.5391c-0.1562 0.05859-0.3594 0.09375-0.5586 0.09375-0.625 0-0.9688-0.3516-0.9688-1.039v-1.797h-0.6367v-0.5391h0.6367v-0.9531h0.6523v0.9531h0.8828v0.5391" fill="#231f1f"/>
<path d="m66.99 93.68h0.625c0.01172 0.168 0.02734 0.418 0.02734 0.5586h0.01953c0.1836-0.3867 0.5664-0.6523 1.016-0.6523 0.09375 0 0.1836 0.007812 0.2617 0.02734l-0.03125 0.6094c-0.08203-0.01953-0.1953-0.03516-0.3008-0.03516-0.6289 0-0.9297 0.5117-0.9297 1.066v1.742h-0.6602v-2.605c0-0.1719-0.003906-0.4961-0.02734-0.7109" fill="#231f1f"/>
<path d="m71.36 95.42c-0.6484 0-1.477 0.07031-1.477 0.6289 0 0.3945 0.3516 0.5195 0.6797 0.5195 0.6172 0 0.9609-0.4141 0.9609-0.9727v-0.1758zm0.1641-0.5664c0-0.4922-0.3281-0.7305-0.8203-0.7305-0.3711 0-0.7227 0.1641-0.9453 0.3867l-0.3516-0.418c0.3242-0.3086 0.8203-0.5 1.359-0.5 0.9531 0 1.387 0.5664 1.387 1.305v1.449c0 0.2227 0.01562 0.4961 0.05078 0.6562h-0.5977c-0.03516-0.1445-0.05469-0.3203-0.05469-0.4766h-0.02344c-0.2383 0.3594-0.6133 0.5625-1.113 0.5625-0.5234 0-1.203-0.2578-1.203-1.023 0-1 1.191-1.121 2.312-1.121v-0.08984" fill="#231f1f"/>
<path d="m75.05 94.52c-0.1484-0.2383-0.4336-0.4141-0.7695-0.4141-0.3008 0-0.6172 0.1172-0.6172 0.4336 0 0.2812 0.2539 0.3867 0.7578 0.4961 0.6289 0.1406 1.113 0.3984 1.113 0.9805 0 0.7852-0.6523 1.074-1.324 1.074-0.5039 0-1.023-0.1953-1.34-0.5977l0.4727-0.3984c0.1719 0.2578 0.5078 0.4609 0.8789 0.4609 0.332 0 0.6602-0.1172 0.6602-0.4805 0-0.3086-0.3008-0.4219-0.8672-0.5547-0.4414-0.1055-0.9688-0.293-0.9688-0.918 0-0.7148 0.625-1.016 1.254-1.016 0.4688 0 0.9688 0.1914 1.207 0.5469l-0.457 0.3867" fill="#231f1f"/>
<path d="m77.93 94.14c-0.707 0-1.105 0.5664-1.105 1.199 0 0.6289 0.3984 1.203 1.105 1.203 0.7148 0 1.109-0.5742 1.109-1.203 0-0.6328-0.3945-1.199-1.109-1.199zm0 2.957c-1.016 0-1.785-0.7383-1.785-1.758 0-1.023 0.7695-1.746 1.785-1.746 1.016 0 1.793 0.7227 1.793 1.746 0 1.02-0.7773 1.758-1.793 1.758" fill="#231f1f"/>
<path d="m82.97 97c-0.01562-0.168-0.03125-0.4062-0.03125-0.543h-0.01172c-0.168 0.3477-0.6016 0.6367-1.086 0.6367-0.8555 0-1.238-0.6094-1.238-1.352v-2.059h0.6562v1.832c0 0.5469 0.1484 1.023 0.7578 1.023 0.5234 0 0.8867-0.4336 0.8867-1.094v-1.762h0.6602v2.602c0 0.1758 0.007813 0.5 0.02734 0.7148h-0.6211" fill="#231f1f"/>
<path d="m85.3 93.68c0.01562 0.168 0.02734 0.4062 0.02734 0.543h0.02344c0.1602-0.3555 0.6016-0.6367 1.078-0.6367 0.8516 0 1.238 0.6094 1.238 1.352v2.059h-0.6562v-1.84c0-0.5391-0.1484-1.016-0.7578-1.016-0.5195 0-0.8906 0.4336-0.8906 1.09v1.766h-0.6562v-2.605c0-0.1719-0.007812-0.4961-0.03125-0.7109h0.625" fill="#231f1f"/>
<path d="m90.34 96.54c0.6758 0 1.121-0.5586 1.121-1.199 0-0.6367-0.4453-1.203-1.121-1.203-0.7188 0-1.098 0.5742-1.098 1.199 0 0.6211 0.3789 1.203 1.098 1.203zm-0.1094 0.5547c-1.023 0-1.676-0.7852-1.676-1.758 0-0.9805 0.6719-1.746 1.668-1.746 0.5391 0 0.9531 0.2656 1.184 0.5898h0.01172v-2.473h0.6602v5.293h-0.6367v-0.5234h-0.01562c-0.25 0.3984-0.7266 0.6172-1.195 0.6172" fill="#231f1f"/>
<path d="m234.9 62.6h2.215v0.6172h-2.906v-4.957h0.6914v4.34" fill="#231f1f"/>
<path d="m239.2 60.36c-0.707 0-1.105 0.5664-1.105 1.195 0 0.6328 0.3984 1.207 1.105 1.207 0.7148 0 1.109-0.5742 1.109-1.207 0-0.6289-0.3945-1.195-1.109-1.195zm0 2.953c-1.016 0-1.785-0.7344-1.785-1.758 0-1.023 0.7695-1.742 1.785-1.742 1.016 0 1.793 0.7188 1.793 1.742 0 1.023-0.7773 1.758-1.793 1.758" fill="#231f1f"/>
<path d="m242.1 59.9 0.75 2.535h0.01562l0.7891-2.535h0.6953l0.8047 2.535h0.01563l0.75-2.535h0.6914l-1.098 3.32h-0.6875l-0.8203-2.492h-0.01562l-0.8086 2.492h-0.6875l-1.105-3.32h0.7109" fill="#231f1f"/>
<path d="m250.7 63.22h-0.6914v-4.352h-1.59v-0.6055h3.875v0.6055h-1.594v4.352" fill="#231f1f"/>
<path d="m255.4 59.18c-0.1953-0.2734-0.5508-0.4609-0.9648-0.4609-0.4492 0-0.9648 0.2461-0.9648 0.8047 0 0.5391 0.4531 0.6875 1.016 0.8711 0.6641 0.207 1.453 0.4609 1.453 1.449 0 1.027-0.832 1.504-1.715 1.504-0.6211 0-1.254-0.2461-1.633-0.7227l0.543-0.4531c0.2305 0.3438 0.6484 0.582 1.105 0.582 0.4609 0 0.9922-0.2617 0.9922-0.8477 0-0.6016-0.543-0.7656-1.176-0.9609-0.6289-0.1953-1.289-0.4805-1.289-1.395 0-0.9844 0.8828-1.414 1.703-1.414 0.5742 0 1.113 0.2227 1.422 0.5664l-0.4922 0.4766" fill="#231f1f"/>
<path d="m256.9 58.26h0.6953v2.07h2.508v-2.07h0.6992v4.957h-0.6992v-2.27h-2.508v2.27h-0.6953v-4.957" fill="#231f1f"/>
<path d="m229.5 94.99h-0.6914v-4.348h-1.59v-0.6094h3.871v0.6094h-1.59v4.348" fill="#231f1f"/>
<path d="m232.3 92.18c0.1523-0.3281 0.5742-0.5977 1.047-0.5977 0.8555 0 1.242 0.6094 1.242 1.352v2.059h-0.6602v-1.832c0-0.5391-0.1367-1.016-0.75-1.016-0.5156 0-0.8945 0.4336-0.8945 1.09v1.758h-0.6562v-5.293h0.6562v2.48h0.01562" fill="#231f1f"/>
<path d="m237 94.28h0.01563l0.918-2.605h0.6992l-1.613 4.102c-0.2148 0.5547-0.4961 0.8984-1.145 0.8984-0.1406 0-0.2891-0.01562-0.4375-0.05078l0.06641-0.582c0.1055 0.03516 0.2227 0.05859 0.3281 0.05859 0.3398 0 0.4766-0.1953 0.6172-0.5547l0.207-0.5547-1.422-3.316h0.7344l1.031 2.605" fill="#231f1f"/>
<path d="m239.2 91.67h0.6211c0.01562 0.168 0.02734 0.418 0.02734 0.5586h0.02344c0.1797-0.3828 0.5664-0.6523 1.012-0.6523 0.09375 0 0.1836 0.007813 0.2617 0.02734l-0.02734 0.6133c-0.08594-0.02344-0.1992-0.03516-0.3008-0.03516-0.6328 0-0.9336 0.5078-0.9336 1.062v1.742h-0.6602v-2.602c0-0.1758-0.003907-0.5-0.02344-0.7148" fill="#231f1f"/>
<path d="m243.2 92.12c-0.707 0-1.109 0.5664-1.109 1.199 0 0.6289 0.4023 1.203 1.109 1.203 0.7148 0 1.105-0.5742 1.105-1.203 0-0.6328-0.3906-1.199-1.105-1.199zm0 2.957c-1.016 0-1.785-0.7344-1.785-1.758 0-1.023 0.7695-1.746 1.785-1.746s1.793 0.7227 1.793 1.746c0 1.023-0.7773 1.758-1.793 1.758" fill="#231f1f"/>
<path d="m246.6 94.99h-0.6602v-3.316h0.6602zm-0.332-4.094c-0.2383 0-0.4336-0.1914-0.4336-0.4219 0-0.2383 0.1953-0.4258 0.4336-0.4258 0.2383 0 0.4414 0.1797 0.4414 0.4258 0 0.2383-0.2031 0.4219-0.4414 0.4219" fill="#231f1f"/>
<path d="m249.3 94.53c0.6719 0 1.121-0.5586 1.121-1.199 0-0.6367-0.4492-1.203-1.121-1.203-0.7227 0-1.102 0.5742-1.102 1.199 0 0.6211 0.3789 1.203 1.102 1.203zm-0.1094 0.5547c-1.023 0-1.676-0.7852-1.676-1.758 0-0.9805 0.6719-1.746 1.668-1.746 0.5391 0 0.9531 0.2695 1.184 0.5898h0.01172v-2.473h0.6602v5.293h-0.6406v-0.5234h-0.01172c-0.25 0.3984-0.7305 0.6172-1.195 0.6172" fill="#231f1f"/>
<path d="m255.7 92.51c-0.1484-0.2383-0.4336-0.4141-0.7695-0.4141-0.3008 0-0.6172 0.1211-0.6172 0.4336 0 0.2812 0.2539 0.3867 0.7578 0.4961 0.6289 0.1445 1.113 0.4023 1.113 0.9844 0 0.7812-0.6523 1.07-1.324 1.07-0.5039 0-1.023-0.1953-1.336-0.5977l0.4688-0.3984c0.1719 0.2617 0.5078 0.4648 0.8789 0.4648 0.332 0 0.6602-0.1211 0.6602-0.4844 0-0.3086-0.3008-0.4219-0.8672-0.5547-0.4414-0.1055-0.9648-0.293-0.9648-0.918 0-0.7148 0.6211-1.016 1.25-1.016 0.4688 0 0.9688 0.1914 1.207 0.5469l-0.457 0.3867" fill="#231f1f"/>
<path d="m259.4 92.51c-0.1406-0.2188-0.4492-0.3789-0.7617-0.3789-0.6875 0-1.086 0.5586-1.086 1.195 0 0.6328 0.3984 1.199 1.09 1.199 0.3359 0 0.625-0.1406 0.8008-0.3633l0.4414 0.3984c-0.2812 0.3242-0.707 0.5195-1.242 0.5195-1.02 0-1.785-0.6953-1.785-1.754 0-1.043 0.7578-1.75 1.773-1.75 0.4688 0 0.9727 0.1914 1.246 0.5469l-0.4766 0.3867" fill="#231f1f"/>
<path d="m262.4 93.41c-0.6523 0-1.477 0.07031-1.477 0.6289 0 0.3945 0.3477 0.5195 0.6758 0.5195 0.6172 0 0.9609-0.4102 0.9609-0.9727v-0.1758zm0.1602-0.5664c0-0.4883-0.3281-0.7266-0.8203-0.7266-0.3711 0-0.7227 0.1602-0.9453 0.3828l-0.3516-0.418c0.3242-0.3086 0.8203-0.5 1.359-0.5 0.9531 0 1.387 0.5664 1.387 1.305v1.449c0 0.2227 0.01562 0.4961 0.05078 0.6562h-0.5977c-0.03516-0.1445-0.05469-0.3203-0.05469-0.4727h-0.01953c-0.2383 0.3555-0.6172 0.5586-1.113 0.5586-0.5273 0-1.207-0.2578-1.207-1.023 0-1 1.191-1.121 2.312-1.121v-0.08984" fill="#231f1f"/>
<path d="m264.9 91.67c0.01172 0.168 0.02734 0.4062 0.02734 0.5469h0.01953c0.1641-0.3594 0.6016-0.6406 1.078-0.6406 0.8555 0 1.242 0.6094 1.242 1.352v2.059h-0.6602v-1.84c0-0.5391-0.1484-1.016-0.7539-1.016-0.5195 0-0.8906 0.4336-0.8906 1.094v1.762h-0.6602v-2.602c0-0.1758-0.007812-0.5-0.02734-0.7148h0.625" fill="#231f1f"/>
<path d="m230.3 103.4h-0.6953v-4.961h3.098v0.6094h-2.402v1.543h2.25v0.5938h-2.25v2.215" fill="#231f1f"/>
<path d="m235.3 103.4h-0.6914v-4.352h-1.594v-0.6094h3.875v0.6094h-1.59v4.352" fill="#231f1f"/>
<path d="m238.4 103.3h-0.007812l-0.9141 1.445h0.9219zm0.3828 1.445h0.418v0.3398h-0.418v0.6484h-0.3828v-0.6484h-1.328v-0.3594l1.227-1.879h0.4844v1.898" fill="#231f1f"/>
<path d="m240.2 104.3h-0.5625l0.4844-1.75h0.6562l-0.5781 1.75" fill="#231f1f"/>
<path d="m244.9 103.4h-0.6914v-4.352h-1.59v-0.6094h3.871v0.6094h-1.59v4.352" fill="#231f1f"/>
<path d="m248 100.5c-0.707 0-1.105 0.5664-1.105 1.195 0 0.6328 0.3984 1.207 1.105 1.207 0.7148 0 1.105-0.5742 1.105-1.207 0-0.6289-0.3906-1.195-1.105-1.195zm0 2.953c-1.016 0-1.785-0.7344-1.785-1.758 0-1.02 0.7695-1.742 1.785-1.742 1.016 0 1.793 0.7227 1.793 1.742 0 1.023-0.7773 1.758-1.793 1.758" fill="#231f1f"/>
<path d="m252.3 100.6h-0.8789v1.73c0 0.3984 0.1367 0.5586 0.4648 0.5586 0.1211 0 0.2773-0.02734 0.3867-0.08203l0.02344 0.5391c-0.1562 0.05469-0.3594 0.08984-0.5625 0.08984-0.6211 0-0.9648-0.3477-0.9648-1.035v-1.801h-0.6406v-0.5391h0.6406v-0.9531h0.6523v0.9531h0.8789v0.5391" fill="#231f1f"/>
<path d="m254.9 101.8c-0.6484 0-1.477 0.07031-1.477 0.6289 0 0.3945 0.3516 0.5195 0.6797 0.5195 0.6172 0 0.9609-0.4141 0.9609-0.9766v-0.1719zm0.1641-0.5703c0-0.4883-0.332-0.7266-0.8203-0.7266-0.3711 0-0.7227 0.1602-0.9453 0.3867l-0.3516-0.4219c0.3242-0.3086 0.8203-0.4961 1.359-0.4961 0.9531 0 1.387 0.5664 1.387 1.301v1.449c0 0.2266 0.01562 0.5 0.05078 0.6602h-0.5977c-0.03516-0.1484-0.05469-0.3242-0.05469-0.4766h-0.01953c-0.2383 0.3555-0.6172 0.5586-1.117 0.5586-0.5234 0-1.203-0.2578-1.203-1.02 0-1.004 1.191-1.121 2.312-1.121v-0.09375" fill="#231f1f"/>
<path d="m257.5 103.4h-0.6562v-5.297h0.6562v5.297" fill="#231f1f"/>
<path d="m262 103.4h-0.6953v-4.352h-1.59v-0.6094h3.875v0.6094h-1.59v4.352" fill="#231f1f"/>
<path d="m264.5 104.1h0.125c0.332 0 0.6445-0.1094 0.6445-0.4805 0-0.2891-0.2383-0.4766-0.5117-0.4766-0.2383 0-0.418 0.1328-0.5039 0.3555l-0.3594-0.1289c0.1445-0.3438 0.4727-0.5547 0.8828-0.5547 0.4766 0 0.8867 0.2695 0.8867 0.7812 0 0.3203-0.2109 0.5781-0.5078 0.6562v0.007813c0.3359 0.06641 0.5859 0.332 0.5859 0.7031 0 0.5742-0.4727 0.8789-0.9648 0.8789-0.457 0-0.8242-0.2031-0.9844-0.6328l0.3672-0.125c0.08594 0.25 0.3047 0.4258 0.6055 0.4258 0.2891 0 0.5781-0.1836 0.5781-0.5508 0-0.4023-0.3828-0.5312-0.7227-0.5312h-0.1211v-0.3281" fill="#231f1f"/>
<path d="m63.5 167h-63.25v-34.5h63.25v34.5" fill="#fef0ca"/>
<path transform="matrix(.1 0 0 -.1 0 196)" d="m635 290h-632.5v345h632.5z" fill="none" stroke="#231f1f" stroke-width="5"/>
<path d="m23.17 143.4v-0.5859h3.586v0.5859zm0-0.8516v-0.6172l2.781-0.9375-2.781-0.9609v-0.625l3.586 1.281v0.6055l-3.586 1.254" fill="#231f1f"/>
<path d="m29.95 143.5h-0.6797v-4.133l-0.9375 0.7852-0.4023-0.4688 1.41-1.145h0.6094v4.961" fill="#231f1f"/>
<path d="m34.35 141c-0.1406-0.2148-0.4492-0.3789-0.7617-0.3789-0.6875 0-1.086 0.5625-1.086 1.199 0 0.6289 0.3984 1.195 1.09 1.195 0.3359 0 0.625-0.1406 0.8008-0.3633l0.4414 0.3984c-0.2812 0.3242-0.707 0.5195-1.242 0.5195-1.02 0-1.785-0.6953-1.785-1.75 0-1.043 0.7578-1.75 1.773-1.75 0.4688 0 0.9727 0.1875 1.246 0.543l-0.4766 0.3867" fill="#231f1f"/>
<path d="m37.18 140.1c0.4414 0 0.8242 0.1953 1.027 0.6641 0.2227-0.4297 0.6602-0.6641 1.129-0.6641 0.8555 0 1.238 0.6055 1.238 1.352v2.059h-0.6562v-1.844c0-0.5391-0.1641-1.016-0.7383-1.016-0.6016 0-0.8398 0.5469-0.8398 1.066v1.793h-0.6562v-1.977c0-0.5156-0.1758-0.8828-0.7031-0.8828-0.4805 0-0.8438 0.4336-0.8438 1.094v1.766h-0.6602v-2.605c0-0.1758-0.007813-0.5-0.02734-0.7148h0.6211c0.01562 0.168 0.02734 0.4062 0.02734 0.5469h0.02344c0.168-0.3516 0.5508-0.6367 1.059-0.6367" fill="#231f1f"/>
<path d="m13.25 151.2h2.59v0.6172h-3.285v-4.957h3.18v0.6094h-2.484v1.484h2.34v0.5938h-2.34v1.652" fill="#231f1f"/>
<path d="m18.2 151.9h-0.7148l-1.352-3.32h0.7266l0.9766 2.613h0.01172l0.9805-2.613h0.6992l-1.328 3.32" fill="#231f1f"/>
<path d="m22.07 150.3c-0.6523 0-1.48 0.07031-1.48 0.6289 0 0.3945 0.3516 0.5195 0.6797 0.5195 0.6172 0 0.9609-0.4141 0.9609-0.9727v-0.1758zm0.1602-0.5664c0-0.4922-0.3281-0.7305-0.8203-0.7305-0.3711 0-0.7188 0.1602-0.9453 0.3867l-0.3516-0.4219c0.3242-0.3086 0.8203-0.4961 1.359-0.4961 0.9531 0 1.387 0.5664 1.387 1.305v1.449c0 0.2227 0.01562 0.4961 0.05078 0.6562h-0.5938c-0.03906-0.1445-0.05859-0.3203-0.05859-0.4766h-0.01953c-0.2383 0.3594-0.6172 0.5625-1.113 0.5625-0.5273 0-1.207-0.2617-1.207-1.023 0-1.004 1.191-1.121 2.312-1.121v-0.08984" fill="#231f1f"/>
<path d="m24.63 151.9h-0.6562v-5.293h0.6562v5.293" fill="#231f1f"/>
<path d="m28.12 151.9c-0.01562-0.168-0.02734-0.4062-0.02734-0.5469h-0.01562c-0.168 0.3516-0.6016 0.6406-1.086 0.6406-0.8516 0-1.238-0.6094-1.238-1.355v-2.059h0.6562v1.836c0 0.5469 0.1484 1.023 0.7578 1.023 0.5273 0 0.8906-0.4336 0.8906-1.094v-1.766h0.6562v2.605c0 0.1758 0.007812 0.5 0.03125 0.7148h-0.625" fill="#231f1f"/>
<path d="m31.76 150.3c-0.6523 0-1.48 0.07031-1.48 0.6289 0 0.3945 0.3516 0.5195 0.6797 0.5195 0.6172 0 0.9609-0.4141 0.9609-0.9727v-0.1758zm0.1602-0.5664c0-0.4922-0.3281-0.7305-0.8203-0.7305-0.3711 0-0.7188 0.1602-0.9453 0.3867l-0.3516-0.4219c0.3242-0.3086 0.8203-0.4961 1.359-0.4961 0.9531 0 1.387 0.5664 1.387 1.305v1.449c0 0.2227 0.01562 0.4961 0.05078 0.6562h-0.5938c-0.03516-0.1445-0.05859-0.3203-0.05859-0.4766h-0.01953c-0.2383 0.3594-0.6172 0.5625-1.113 0.5625-0.5273 0-1.207-0.2617-1.207-1.023 0-1.004 1.191-1.121 2.312-1.121v-0.08984" fill="#231f1f"/>
<path d="m35.2 149.1h-0.8789v1.73c0 0.3984 0.1367 0.5625 0.4688 0.5625 0.1172 0 0.2734-0.02734 0.3828-0.08594l0.02344 0.5391c-0.1562 0.05859-0.3594 0.08984-0.5625 0.08984-0.6211 0-0.9648-0.3477-0.9648-1.035v-1.801h-0.6367v-0.5391h0.6367v-0.9492h0.6523v0.9492h0.8789v0.5391" fill="#231f1f"/>
<path d="m38.31 149.9c-0.01562-0.5234-0.3203-0.9375-0.9297-0.9375-0.5664 0-1.004 0.418-1.043 0.9375zm0.6602 0.4883h-2.633c0.01953 0.5703 0.4961 1.012 1.078 1.012 0.4453 0 0.7773-0.2266 0.9648-0.5078l0.4609 0.3711c-0.3555 0.4648-0.8398 0.6836-1.426 0.6836-1.012 0-1.754-0.7031-1.754-1.746 0-1.039 0.7422-1.758 1.719-1.758 0.9805 0 1.594 0.6641 1.594 1.723 0 0.07031 0 0.1484-0.003906 0.2227" fill="#231f1f"/>
<path d="m43.21 149.1h-0.7734v2.781h-0.6562v-2.781h-0.6602v-0.5391h0.6602v-0.6914c0-0.7773 0.3438-1.367 1.238-1.367 0.1562 0 0.2891 0.01562 0.4141 0.05078l-0.07813 0.5664c-0.09766-0.02734-0.2031-0.05078-0.3281-0.05078-0.4961 0-0.5898 0.3945-0.5898 0.8008v0.6914h0.7734v0.5391" fill="#231f1f"/>
<path d="m45.38 149c-0.707 0-1.105 0.5664-1.105 1.195 0 0.6328 0.3984 1.207 1.105 1.207 0.7148 0 1.105-0.5742 1.105-1.207 0-0.6289-0.3906-1.195-1.105-1.195zm0 2.957c-1.016 0-1.785-0.7383-1.785-1.762 0-1.023 0.7695-1.742 1.785-1.742 1.016 0 1.793 0.7188 1.793 1.742 0 1.023-0.7773 1.762-1.793 1.762" fill="#231f1f"/>
<path d="m48.05 148.5h0.625c0.01172 0.168 0.02734 0.4219 0.02734 0.5625h0.01953c0.1836-0.3867 0.5703-0.6523 1.016-0.6523 0.09375 0 0.1836 0.007813 0.2617 0.02734l-0.03125 0.6094c-0.08203-0.01953-0.1953-0.03516-0.3008-0.03516-0.6289 0-0.9297 0.5117-0.9297 1.066v1.742h-0.6602v-2.605c0-0.1758-0.003906-0.4961-0.02734-0.7148" fill="#231f1f"/>
<path d="m3.828 158.4v-3.125h0.6914v3.082c0 0.6797 0.3086 1.379 1.234 1.379 0.9219 0 1.23-0.6992 1.23-1.379v-3.082h0.6953v3.125c0 1.016-0.6172 1.961-1.926 1.961-1.312 0-1.926-0.9453-1.926-1.961" fill="#231f1f"/>
<path d="m11.31 156.2c-0.1992-0.2734-0.5547-0.4609-0.9688-0.4609-0.4492 0-0.9648 0.2422-0.9648 0.8047 0 0.5391 0.4531 0.6875 1.016 0.8672 0.6641 0.2109 1.457 0.4609 1.457 1.449 0 1.031-0.8359 1.508-1.719 1.508-0.6211 0-1.25-0.2461-1.629-0.7227l0.5391-0.4531c0.2305 0.3438 0.6523 0.5781 1.105 0.5781 0.4609 0 0.9961-0.2578 0.9961-0.8477 0-0.6016-0.5469-0.7617-1.18-0.957-0.6289-0.1953-1.289-0.4844-1.289-1.395 0-0.9883 0.8828-1.414 1.703-1.414 0.5742 0 1.113 0.2227 1.422 0.5664l-0.4883 0.4766" fill="#231f1f"/>
<path d="m14.16 158.8h-1.625v-0.5625h1.625v0.5625" fill="#231f1f"/>
<path d="m16.59 159.7c0.6797 0 1.129-0.5117 1.129-1.168 0-0.6328-0.4531-1.172-1.129-1.172-0.6914 0-1.098 0.5352-1.098 1.172 0 0.6094 0.4062 1.168 1.098 1.168zm-1.301 1.094c0.2852 0.3203 0.7539 0.5391 1.211 0.5391 0.875 0 1.168-0.5391 1.168-1.227v-0.4258h-0.01172c-0.2461 0.3711-0.6992 0.5742-1.172 0.5742-1.016 0-1.672-0.7578-1.672-1.711s0.6523-1.73 1.668-1.73c0.4766 0 0.9453 0.2109 1.195 0.625h0.01562v-0.5312h0.6367v3.152c0 0.9648-0.4531 1.848-1.836 1.848-0.5742 0-1.211-0.2227-1.625-0.6016l0.4219-0.5117" fill="#231f1f"/>
<path d="m21.8 160.3c-0.01562-0.168-0.02734-0.4102-0.02734-0.5469h-0.01562c-0.168 0.3477-0.6016 0.6367-1.086 0.6367-0.8516 0-1.238-0.6094-1.238-1.352v-2.059h0.6602v1.832c0 0.5469 0.1445 1.023 0.7539 1.023 0.5273 0 0.8906-0.4336 0.8906-1.09v-1.766h0.6562v2.602c0 0.1797 0.007813 0.5 0.02734 0.7188h-0.6211" fill="#231f1f"/>
<path d="m24.2 160.3h-0.6562v-3.32h0.6562zm-0.3281-4.098c-0.2383 0-0.4336-0.1914-0.4336-0.4219 0-0.2383 0.1953-0.4258 0.4336-0.4258 0.2383 0 0.4414 0.1797 0.4414 0.4258 0 0.2383-0.2031 0.4219-0.4414 0.4219" fill="#231f1f"/>
<path d="m26.91 159.8c0.6719 0 1.121-0.5586 1.121-1.195s-0.4492-1.207-1.121-1.207c-0.7227 0-1.102 0.5742-1.102 1.199 0 0.6211 0.3789 1.203 1.102 1.203zm-0.1133 0.5547c-1.02 0-1.672-0.7852-1.672-1.758 0-0.9805 0.6719-1.746 1.664-1.746 0.543 0 0.9531 0.2656 1.184 0.5898h0.01562v-2.473h0.6602v5.297h-0.6367v-0.5273h-0.01562c-0.2539 0.3984-0.7305 0.6172-1.199 0.6172" fill="#231f1f"/>
<path d="m32.22 158.3c-0.01172-0.5234-0.3203-0.9375-0.9297-0.9375-0.5703 0-1.004 0.4219-1.043 0.9375zm0.6602 0.4922h-2.633c0.01953 0.5664 0.4961 1.008 1.078 1.008 0.4492 0 0.7773-0.2227 0.9648-0.5039l0.4648 0.3711c-0.3594 0.4609-0.8438 0.6797-1.43 0.6797-1.008 0-1.75-0.7031-1.75-1.746 0-1.035 0.7422-1.758 1.715-1.758 0.9805 0 1.598 0.668 1.598 1.727 0 0.06641 0 0.1445-0.007813 0.2227" fill="#231f1f"/>
<path d="m35.36 159.8c0.6719 0 1.117-0.5586 1.117-1.195s-0.4453-1.207-1.117-1.207c-0.7227 0-1.102 0.5742-1.102 1.199 0 0.6211 0.3789 1.203 1.102 1.203zm-0.1133 0.5547c-1.023 0-1.672-0.7852-1.672-1.758 0-0.9805 0.6719-1.746 1.664-1.746 0.5391 0 0.9531 0.2656 1.184 0.5898h0.01562v-2.473h0.6562v5.297h-0.6367v-0.5273h-0.01172c-0.2539 0.3984-0.7305 0.6172-1.199 0.6172" fill="#231f1f"/>
<path d="m40.72 160.3h-0.6914v-4.961h3.094v0.6094h-2.402v1.543h2.25v0.5938h-2.25v2.215" fill="#231f1f"/>
<path d="m47.5 159.3h0.01562v-3.965h0.6914v4.961h-0.875l-2.617-4.051h-0.01562v4.051h-0.6914v-4.961h0.9023l2.59 3.965" fill="#231f1f"/>
<path d="m50.36 158.4h1.855l-0.9258-2.328zm-0.7422 1.828h-0.7695l2.148-4.961h0.6289l2.133 4.961h-0.7852l-0.5039-1.223h-2.355l-0.4961 1.223" fill="#231f1f"/>
<path d="m55.08 159.7h0.8672c0.5859 0 1.23-0.1836 1.23-0.8555 0-0.582-0.4102-0.832-1.168-0.832h-0.9297zm0-2.277h0.9023c0.5312 0 0.9727-0.2305 0.9727-0.7695 0-0.5312-0.4258-0.7422-1.086-0.7422h-0.7891zm-0.6953-2.094h1.711c0.7461 0 1.555 0.3086 1.555 1.254 0 0.5469-0.3516 0.9375-0.8711 1.078v0.01562c0.6367 0.07812 1.102 0.5117 1.102 1.203 0 0.9531-0.8281 1.41-1.863 1.41h-1.633v-4.961" fill="#231f1f"/>
<path d="m59.72 157c-0.3789 0-0.8633 0.04297-0.8633 0.3672 0 0.2266 0.207 0.3008 0.3984 0.3008 0.3555 0 0.5547-0.2383 0.5547-0.5664v-0.1016zm0.08984-0.3281c0-0.2852-0.1914-0.4258-0.4727-0.4258-0.2188 0-0.4219 0.09375-0.5508 0.2227l-0.2031-0.2422c0.1875-0.1797 0.4727-0.2891 0.7891-0.2891 0.5547 0 0.8047 0.3281 0.8047 0.7578v0.8438c0 0.1289 0.007813 0.2891 0.03125 0.3828h-0.3477c-0.01953-0.08594-0.03125-0.1875-0.03125-0.2773h-0.01172c-0.1406 0.207-0.3594 0.3242-0.6484 0.3242-0.3086 0-0.7031-0.1484-0.7031-0.5938 0-0.582 0.6953-0.6523 1.344-0.6523v-0.05078" fill="#231f1f"/>
<path d="m149.8 167h-63.25v-34.5h63.25v34.5" fill="#fef0ca"/>
<path transform="matrix(.1 0 0 -.1 0 196)" d="m1498 290h-632.5v345h632.5z" fill="none" stroke="#231f1f" stroke-width="5"/>
<path d="m113 140.1-2.695 1.234 2.68 1.23v0.5938l-3.555-1.617v-0.418l3.57-1.617v0.5938" fill="#231f1f"/>
<path d="m116.2 143.5h-0.6797v-4.133l-0.9375 0.7852-0.4023-0.4688 1.41-1.145h0.6094v4.961" fill="#231f1f"/>
<path d="m120.6 141c-0.1406-0.2148-0.4492-0.3789-0.7617-0.3789-0.6875 0-1.086 0.5625-1.086 1.199 0 0.6289 0.3984 1.195 1.09 1.195 0.3359 0 0.625-0.1406 0.8008-0.3633l0.4414 0.3984c-0.2812 0.3242-0.707 0.5195-1.242 0.5195-1.023 0-1.785-0.6953-1.785-1.75 0-1.043 0.7578-1.75 1.773-1.75 0.4688 0 0.9727 0.1875 1.246 0.543l-0.4766 0.3867" fill="#231f1f"/>
<path d="m123.4 140.1c0.4414 0 0.8242 0.1953 1.027 0.6641 0.2266-0.4297 0.6602-0.6641 1.129-0.6641 0.8555 0 1.238 0.6055 1.238 1.352v2.059h-0.6562v-1.844c0-0.5391-0.1641-1.016-0.7383-1.016-0.6016 0-0.8398 0.5469-0.8398 1.066v1.793h-0.6562v-1.977c0-0.5156-0.1758-0.8828-0.7031-0.8828-0.4805 0-0.8438 0.4336-0.8438 1.094v1.766h-0.6602v-2.605c0-0.1758-0.007813-0.5-0.02734-0.7148h0.6211c0.01562 0.168 0.03125 0.4062 0.03125 0.5469h0.01953c0.168-0.3516 0.5547-0.6367 1.059-0.6367" fill="#231f1f"/>
<path d="m101.9 149.1h0.7969c0.6523 0 1.164-0.207 1.164-0.8008s-0.5117-0.7852-1.117-0.7852h-0.8438zm0 2.785h-0.6953v-4.957h1.59c0.9609 0 1.766 0.3633 1.766 1.371 0 0.7305-0.4961 1.191-1.207 1.309l1.387 2.277h-0.8398l-1.258-2.207h-0.7422v2.207" fill="#231f1f"/>
<path d="m107.8 149.9c-0.01172-0.5234-0.3203-0.9375-0.9297-0.9375-0.5703 0-1.004 0.418-1.043 0.9375zm0.6602 0.4883h-2.633c0.01953 0.5703 0.4961 1.012 1.078 1.012 0.4453 0 0.7773-0.2266 0.9648-0.5078l0.4609 0.3711c-0.3555 0.4648-0.8398 0.6836-1.426 0.6836-1.012 0-1.754-0.7031-1.754-1.746 0-1.039 0.7422-1.758 1.719-1.758 0.9805 0 1.594 0.6641 1.594 1.723 0 0.07031 0 0.1484-0.003906 0.2227" fill="#231f1f"/>
<path d="m111.1 149c-0.6719 0-1.117 0.5664-1.117 1.203s0.4453 1.199 1.117 1.199c0.7227 0 1.109-0.582 1.109-1.207 0-0.6211-0.3867-1.195-1.109-1.195zm-1.078 4.543h-0.6562v-5h0.6445v0.5195h0.01953c0.2188-0.3516 0.6523-0.6094 1.199-0.6094 0.9844 0 1.66 0.7617 1.66 1.742 0 0.9727-0.6523 1.762-1.676 1.762-0.4688 0-0.9258-0.2188-1.168-0.5898h-0.02344v2.176" fill="#231f1f"/>
<path d="m116.2 149.9c-0.01562-0.5234-0.3242-0.9375-0.9336-0.9375-0.5664 0-1 0.418-1.043 0.9375zm0.6602 0.4883h-2.637c0.02344 0.5703 0.5 1.012 1.078 1.012 0.4492 0 0.7812-0.2266 0.9688-0.5078l0.4609 0.3711c-0.3555 0.4648-0.8398 0.6836-1.43 0.6836-1.008 0-1.75-0.7031-1.75-1.746 0-1.039 0.7422-1.758 1.715-1.758 0.9805 0 1.598 0.6641 1.598 1.723 0 0.07031 0 0.1484-0.003907 0.2227" fill="#231f1f"/>
<path d="m119.7 150.3c-0.6523 0-1.48 0.07031-1.48 0.6289 0 0.3945 0.3516 0.5195 0.6797 0.5195 0.6172 0 0.9609-0.4141 0.9609-0.9727v-0.1758zm0.1602-0.5664c0-0.4922-0.3281-0.7305-0.8203-0.7305-0.3711 0-0.7227 0.1602-0.9453 0.3867l-0.3516-0.4219c0.3242-0.3086 0.8203-0.4961 1.359-0.4961 0.9531 0 1.387 0.5664 1.387 1.305v1.449c0 0.2227 0.01562 0.4961 0.05078 0.6562h-0.5977c-0.03516-0.1445-0.05469-0.3203-0.05469-0.4766h-0.01953c-0.2383 0.3594-0.6172 0.5625-1.113 0.5625-0.5273 0-1.207-0.2617-1.207-1.023 0-1.004 1.191-1.121 2.312-1.121v-0.08984" fill="#231f1f"/>
<path d="m123.1 149.1h-0.8828v1.73c0 0.3984 0.1406 0.5625 0.4688 0.5625 0.1211 0 0.2734-0.02734 0.3867-0.08594l0.01953 0.5391c-0.1523 0.05859-0.3555 0.08984-0.5586 0.08984-0.625 0-0.9648-0.3477-0.9648-1.035v-1.801h-0.6406v-0.5391h0.6406v-0.9492h0.6484v0.9492h0.8828v0.5391" fill="#231f1f"/>
<path d="m125.5 150v-3.121h0.6914v3.082c0 0.6758 0.3086 1.379 1.234 1.379 0.9258 0 1.23-0.7031 1.23-1.379v-3.082h0.6953v3.121c0 1.016-0.6172 1.961-1.926 1.961s-1.926-0.9453-1.926-1.961" fill="#231f1f"/>
<path d="m133 147.8c-0.1953-0.2773-0.5547-0.4648-0.9688-0.4648-0.4453 0-0.9648 0.2461-0.9648 0.8047 0 0.543 0.457 0.6875 1.016 0.8711 0.6641 0.2109 1.457 0.4609 1.457 1.449 0 1.031-0.832 1.504-1.715 1.504-0.625 0-1.254-0.2422-1.633-0.7188l0.5391-0.457c0.2305 0.3438 0.6523 0.582 1.105 0.582 0.4609 0 0.9961-0.2578 0.9961-0.8477 0-0.6016-0.5469-0.7617-1.176-0.9609-0.6328-0.1953-1.289-0.4805-1.289-1.391 0-0.9883 0.8789-1.418 1.699-1.418 0.5742 0 1.113 0.2266 1.422 0.5703l-0.4883 0.4766" fill="#231f1f"/>
<path d="m95.27 160.3h-0.6562v-3.32h0.6562zm-0.3281-4.098c-0.2383 0-0.4336-0.1914-0.4336-0.4219 0-0.2383 0.1953-0.4258 0.4336-0.4258 0.2383 0 0.4414 0.1797 0.4414 0.4258 0 0.2383-0.2031 0.4219-0.4414 0.4219" fill="#231f1f"/>
<path d="m97.02 156.9c0.01172 0.168 0.02734 0.4062 0.02734 0.543h0.01953c0.1602-0.3555 0.6016-0.6367 1.078-0.6367 0.8555 0 1.242 0.6094 1.242 1.355v2.059h-0.6602v-1.844c0-0.5391-0.1484-1.016-0.7578-1.016-0.5156 0-0.8867 0.4336-0.8867 1.094v1.766h-0.6602v-2.605c0-0.1758-0.007813-0.5-0.02734-0.7148h0.625" fill="#231f1f"/>
<path d="m103.8 159.8c0.6094 0 1.023-0.4414 1.023-1.059 0-0.5938-0.3984-1.035-1.016-1.035-0.6211 0-1.035 0.4336-1.035 1.043 0 0.582 0.4141 1.051 1.027 1.051zm-0.4609-2.516 0.007812 0.01562c0.1406-0.08594 0.4062-0.1328 0.6172-0.1328 0.8672 0 1.547 0.6484 1.547 1.555 0 0.9883-0.7344 1.652-1.711 1.652-0.9844 0-1.715-0.6953-1.715-1.633 0-0.5391 0.1953-0.9531 0.4844-1.406l1.293-2.047h0.8086l-1.332 1.996" fill="#231f1f"/>
<path d="m107.8 158.8h-1.625v-0.5625h1.625v0.5625" fill="#231f1f"/>
<path d="m111.7 160.3h-3.234v-0.6523l1.977-1.961c0.3008-0.3086 0.543-0.6328 0.543-1.051 0-0.5195-0.3906-0.8555-0.8789-0.8555-0.5039 0-0.8477 0.3633-0.9336 0.8633l-0.6641-0.1133c0.1172-0.7578 0.7578-1.316 1.602-1.316 0.8281 0 1.57 0.4844 1.57 1.406 0 0.6367-0.3633 1.074-0.7969 1.5l-1.613 1.566h2.43v0.6133" fill="#231f1f"/>
<path d="m114.7 156.1h-0.01562l-1.566 2.488h1.582zm0.6562 2.488h0.7148v0.5781h-0.7148v1.117h-0.6562v-1.117h-2.285v-0.6133l2.109-3.23h0.832v3.266" fill="#231f1f"/>
<path d="m120.4 156.9c0.4414 0 0.8242 0.1953 1.027 0.668 0.2266-0.4297 0.6602-0.668 1.129-0.668 0.8555 0 1.238 0.6094 1.238 1.355v2.059h-0.6562v-1.844c0-0.5391-0.1602-1.016-0.7344-1.016-0.6055 0-0.8398 0.5469-0.8398 1.066v1.793h-0.6602v-1.977c0-0.5195-0.1758-0.8828-0.6992-0.8828-0.4844 0-0.8477 0.4336-0.8477 1.094v1.766h-0.6602v-2.605c0-0.1758-0.007812-0.5-0.02734-0.7148h0.625c0.01172 0.168 0.02734 0.4062 0.02734 0.543h0.01953c0.168-0.3477 0.5547-0.6367 1.059-0.6367" fill="#231f1f"/>
<path d="m126.5 157.4c-0.707 0-1.105 0.5703-1.105 1.199s0.3984 1.203 1.105 1.203c0.7148 0 1.109-0.5742 1.109-1.203s-0.3945-1.199-1.109-1.199zm0 2.957c-1.016 0-1.785-0.7344-1.785-1.758 0-1.023 0.7695-1.746 1.785-1.746s1.793 0.7227 1.793 1.746c0 1.023-0.7773 1.758-1.793 1.758" fill="#231f1f"/>
<path d="m129.8 156.9c0.01562 0.168 0.02734 0.4062 0.02734 0.543h0.02344c0.1602-0.3555 0.6016-0.6367 1.078-0.6367 0.8555 0 1.238 0.6094 1.238 1.355v2.059h-0.6562v-1.844c0-0.5391-0.1484-1.016-0.7578-1.016-0.5195 0-0.8906 0.4336-0.8906 1.094v1.766h-0.6562v-2.605c0-0.1758-0.007812-0.5-0.02734-0.7148h0.6211" fill="#231f1f"/>
<path d="m134.9 157.5h-0.8828v1.73c0 0.3984 0.1406 0.5586 0.4688 0.5586 0.1172 0 0.2734-0.02734 0.3867-0.08594l0.01953 0.543c-0.1562 0.05469-0.3594 0.08984-0.5625 0.08984-0.6211 0-0.9648-0.3516-0.9648-1.039v-1.797h-0.6367v-0.5391h0.6367v-0.9531h0.6523v0.9531h0.8828v0.5391" fill="#231f1f"/>
<path d="m136.3 157.4c0.1523-0.332 0.5742-0.5977 1.051-0.5977 0.8555 0 1.238 0.6094 1.238 1.355v2.059h-0.6562v-1.836c0-0.5391-0.1406-1.016-0.75-1.016-0.5195 0-0.8984 0.4336-0.8984 1.094v1.758h-0.6562v-5.297h0.6562v2.48h0.01562" fill="#231f1f"/>
<path d="m141.5 157.8c-0.1484-0.2383-0.4336-0.4141-0.7734-0.4141-0.2969 0-0.6133 0.1172-0.6133 0.4336 0 0.2812 0.25 0.3867 0.7539 0.5 0.6328 0.1367 1.113 0.3984 1.113 0.9766 0 0.7852-0.6484 1.074-1.32 1.074-0.5078 0-1.023-0.1953-1.34-0.5938l0.4688-0.4023c0.1758 0.2617 0.5117 0.4648 0.8828 0.4648 0.332 0 0.6602-0.1211 0.6602-0.4844 0-0.3086-0.3008-0.4219-0.8711-0.5547-0.4414-0.1055-0.9648-0.293-0.9648-0.918 0-0.7148 0.625-1.016 1.254-1.016 0.4688 0 0.9648 0.1914 1.203 0.5469l-0.4531 0.3867" fill="#231f1f"/>
<path transform="matrix(.1 0 0 -.1 0 196)" d="m1612 1722v-109.2" fill="none" stroke="#231f1f" stroke-width="5"/>
<path transform="matrix(.1 0 0 -.1 0 196)" d="m462.5 1493v120h2300v-120" fill="none" stroke="#231f1f" stroke-width="5"/>
<path d="m276.2 50.35c-0.6328-1.707-1.711-3.82-2.855-5.129l2.855 1.031 2.855-1.031c-1.145 1.309-2.223 3.422-2.855 5.129" fill="#231f1f"/>
<path d="m46.25 50.35c-0.6328-1.707-1.711-3.82-2.852-5.129l2.852 1.031 2.852-1.031c-1.141 1.309-2.219 3.422-2.852 5.129" fill="#231f1f"/>
<path transform="matrix(.1 0 0 -.1 0 196)" d="m2302 636.3h345" fill="none" stroke="#231f1f" stroke-width="5"/>
<path transform="matrix(.1 0 0 -.1 0 196)" d="m750 922.5v-110.2" fill="none" stroke="#231f1f" stroke-width="5"/>
<path transform="matrix(.1 0 0 -.1 0 196)" d="m318.5 677.4v136.1h862.9v-136.1" fill="none" stroke="#231f1f" stroke-width="5"/>
<path d="m118.1 131.9c-0.6289-1.707-1.707-3.82-2.852-5.129l2.852 1.031 2.855-1.031c-1.145 1.309-2.223 3.422-2.855 5.129" fill="#231f1f"/>
<path d="m31.85 131.9c-0.6328-1.707-1.711-3.82-2.852-5.129l2.852 1.031 2.855-1.031c-1.145 1.309-2.223 3.422-2.855 5.129" fill="#231f1f"/>
<path d="m241.8 195.8h-74.75v-34.5h74.75v34.5" fill="#fef0ca"/>
<path transform="matrix(.1 0 0 -.1 0 196)" d="m2418 2.5h-747.5v345h747.5z" fill="none" stroke="#231f1f" stroke-width="5"/>
<path d="m193.3 171.2h0.01172v-3.965h0.6953v4.961h-0.875l-2.621-4.051h-0.01562v4.051h-0.6914v-4.961h0.9023l2.594 3.965" fill="#231f1f"/>
<path d="m196.8 169.3c-0.707 0-1.105 0.5703-1.105 1.199s0.3984 1.203 1.105 1.203c0.7148 0 1.105-0.5742 1.105-1.203s-0.3906-1.199-1.105-1.199zm0 2.957c-1.016 0-1.785-0.7344-1.785-1.758s0.7695-1.742 1.785-1.742 1.793 0.7188 1.793 1.742-0.7773 1.758-1.793 1.758" fill="#231f1f"/>
<path d="m202 172.2h-0.6914v-4.961h3.094v0.6094h-2.402v1.543h2.25v0.5938h-2.25v2.215" fill="#231f1f"/>
<path d="m208.7 171.2h0.01562v-3.965h0.6914v4.961h-0.875l-2.621-4.051h-0.01172v4.051h-0.6953v-4.961h0.9062l2.59 3.965" fill="#231f1f"/>
<path d="m211.6 170.4h1.855l-0.9258-2.324zm-0.7422 1.828h-0.7734l2.152-4.961h0.6289l2.129 4.961h-0.7812l-0.5078-1.219h-2.352l-0.4961 1.219" fill="#231f1f"/>
<path d="m216.3 171.6h0.8711c0.5859 0 1.23-0.1836 1.23-0.8555 0-0.5781-0.4102-0.832-1.168-0.832h-0.9336zm0-2.277h0.9062c0.5312 0 0.9727-0.2305 0.9727-0.7695 0-0.5312-0.4258-0.7422-1.086-0.7422h-0.793zm-0.6914-2.094h1.707c0.75 0 1.559 0.3086 1.559 1.254 0 0.5469-0.3516 0.9375-0.8711 1.078v0.01562c0.6367 0.07813 1.098 0.5117 1.098 1.203 0 0.9531-0.8242 1.41-1.859 1.41h-1.633v-4.961" fill="#231f1f"/>
<path d="m173.5 180.6h-0.6914v-4.348h-1.59v-0.6094h3.871v0.6094h-1.59v4.348" fill="#231f1f"/>
<path d="m174.9 177.3h0.625c0.01172 0.168 0.02734 0.4219 0.02734 0.5625h0.01953c0.1836-0.3867 0.5664-0.6523 1.016-0.6523 0.09375 0 0.1836 0.007813 0.2617 0.02734l-0.02734 0.6094c-0.08594-0.01953-0.1992-0.03516-0.3047-0.03516-0.6289 0-0.9297 0.5117-0.9297 1.066v1.742h-0.6602v-2.605c0-0.1758-0.003906-0.4961-0.02734-0.7148" fill="#231f1f"/>
<path d="m179.6 178.7c-0.01172-0.5234-0.3203-0.9375-0.9297-0.9375-0.5703 0-1.004 0.418-1.043 0.9375zm0.6602 0.4883h-2.633c0.01953 0.5703 0.4961 1.012 1.078 1.012 0.4453 0 0.7773-0.2266 0.9648-0.5078l0.4609 0.3711c-0.3555 0.4648-0.8398 0.6836-1.426 0.6836-1.008 0-1.75-0.7031-1.75-1.746 0-1.039 0.7422-1.758 1.715-1.758 0.9805 0 1.594 0.6641 1.594 1.723 0 0.07031 0 0.1484-0.003906 0.2227" fill="#231f1f"/>
<path d="m182.9 179c-0.6523 0-1.477 0.07031-1.477 0.6289 0 0.3945 0.3477 0.5195 0.6797 0.5195 0.6133 0 0.957-0.4141 0.957-0.9727v-0.1758zm0.1602-0.5664c0-0.4922-0.3281-0.7305-0.8164-0.7305-0.375 0-0.7227 0.1602-0.9492 0.3867l-0.3477-0.4219c0.3203-0.3086 0.8203-0.4961 1.359-0.4961 0.9492 0 1.387 0.5664 1.387 1.305v1.449c0 0.2227 0.01172 0.4961 0.04687 0.6562h-0.5938c-0.03516-0.1445-0.05859-0.3203-0.05859-0.4766h-0.01953c-0.2383 0.3594-0.6172 0.5625-1.113 0.5625-0.5273 0-1.207-0.2617-1.207-1.023 0-1.004 1.191-1.121 2.312-1.121v-0.08984" fill="#231f1f"/>
<path d="m186.2 177.8h-0.8828v1.73c0 0.3984 0.1406 0.5625 0.4688 0.5625 0.1172 0 0.2734-0.02734 0.3867-0.08594l0.01953 0.5391c-0.1562 0.05859-0.3555 0.08984-0.5586 0.08984-0.625 0-0.9688-0.3477-0.9688-1.035v-1.801h-0.6367v-0.5391h0.6367v-0.9492h0.6523v0.9492h0.8828v0.5391" fill="#231f1f"/>
<path d="m188.9 177.8c0.1523-0.3281 0.5703-0.5938 1.051-0.5938 0.8516 0 1.238 0.6094 1.238 1.352v2.059h-0.6602v-1.836c0-0.5391-0.1406-1.016-0.75-1.016-0.5156 0-0.8945 0.4375-0.8945 1.094v1.758h-0.6602v-5.293h0.6602v2.477h0.01562" fill="#231f1f"/>
<path d="m193.4 179.9h0.01562l0.918-2.605h0.6992l-1.609 4.105c-0.2188 0.5547-0.5 0.8945-1.148 0.8945-0.1406 0-0.2891-0.01172-0.4375-0.04688l0.0625-0.582c0.1094 0.03516 0.2266 0.05859 0.332 0.05859 0.3438 0 0.4766-0.1992 0.6172-0.5547l0.207-0.5547-1.422-3.32h0.7383l1.027 2.605" fill="#231f1f"/>
<path d="m197.2 177.8c-0.6719 0-1.117 0.5664-1.117 1.203s0.4453 1.199 1.117 1.199c0.7227 0 1.109-0.582 1.109-1.207 0-0.6211-0.3867-1.195-1.109-1.195zm-1.078 4.543h-0.6562v-5h0.6445v0.5195h0.01953c0.2188-0.3516 0.6523-0.6094 1.199-0.6094 0.9883 0 1.66 0.7617 1.66 1.742 0 0.9727-0.6523 1.762-1.676 1.762-0.4688 0-0.9219-0.2188-1.168-0.5898h-0.02344v2.176" fill="#231f1f"/>
<path d="m202.2 178.7c-0.01172-0.5234-0.3203-0.9375-0.9297-0.9375-0.5664 0-1 0.418-1.043 0.9375zm0.6602 0.4883h-2.633c0.01953 0.5703 0.4961 1.012 1.078 1.012 0.4492 0 0.7773-0.2266 0.9648-0.5078l0.4648 0.3711c-0.3594 0.4648-0.8398 0.6836-1.43 0.6836-1.008 0-1.75-0.7031-1.75-1.746 0-1.039 0.7422-1.758 1.715-1.758 0.9805 0 1.598 0.6641 1.598 1.723 0 0.07031 0 0.1484-0.007813 0.2227" fill="#231f1f"/>
<path d="m203.6 177.3h0.625c0.01172 0.168 0.02734 0.4219 0.02734 0.5625h0.01953c0.1836-0.3867 0.5664-0.6523 1.016-0.6523 0.09375 0 0.1836 0.007813 0.2617 0.02734l-0.03125 0.6094c-0.08203-0.01953-0.1953-0.03516-0.3008-0.03516-0.6289 0-0.9297 0.5117-0.9297 1.066v1.742h-0.6602v-2.605c0-0.1758-0.007812-0.4961-0.02734-0.7148" fill="#231f1f"/>
<path d="m207.5 177.8h-0.8828v1.73c0 0.3984 0.1406 0.5625 0.4688 0.5625 0.1172 0 0.2734-0.02734 0.3828-0.08594l0.02344 0.5391c-0.1562 0.05859-0.3594 0.08984-0.5625 0.08984-0.6211 0-0.9648-0.3477-0.9648-1.035v-1.801h-0.6367v-0.5391h0.6367v-0.9492h0.6523v0.9492h0.8828v0.5391" fill="#231f1f"/>
<path d="m208.7 177.8c0.1562-0.3281 0.5742-0.5938 1.051-0.5938 0.8555 0 1.238 0.6094 1.238 1.352v2.059h-0.6562v-1.836c0-0.5391-0.1406-1.016-0.75-1.016-0.5195 0-0.8945 0.4375-0.8945 1.094v1.758h-0.6602v-5.293h0.6602v2.477h0.01172" fill="#231f1f"/>
<path d="m213.2 179.9h0.01172l0.918-2.605h0.7031l-1.613 4.105c-0.2148 0.5547-0.4961 0.8945-1.148 0.8945-0.1406 0-0.2852-0.01172-0.4336-0.04688l0.0625-0.582c0.1055 0.03516 0.2227 0.05859 0.3281 0.05859 0.3438 0 0.4766-0.1992 0.6172-0.5547l0.2109-0.5547-1.422-3.32h0.7344l1.031 2.605" fill="#231f1f"/>
<path d="m215.2 177.3h0.625c0.01562 0.168 0.02734 0.4219 0.02734 0.5625h0.01953c0.1836-0.3867 0.5703-0.6523 1.02-0.6523 0.08984 0 0.1797 0.007813 0.2578 0.02734l-0.03125 0.6094c-0.08203-0.01953-0.1953-0.03516-0.3008-0.03516-0.6289 0-0.9297 0.5117-0.9297 1.066v1.742h-0.6562v-2.605c0-0.1758-0.007812-0.4961-0.03125-0.7148" fill="#231f1f"/>
<path d="m219.1 177.8c-0.707 0-1.105 0.5664-1.105 1.195 0 0.6328 0.3984 1.207 1.105 1.207 0.7148 0 1.105-0.5742 1.105-1.207 0-0.6289-0.3906-1.195-1.105-1.195zm0 2.957c-1.016 0-1.789-0.7383-1.789-1.762 0-1.023 0.7734-1.742 1.789-1.742 1.016 0 1.793 0.7188 1.793 1.742 0 1.023-0.7773 1.762-1.793 1.762" fill="#231f1f"/>
<path d="m222.3 180.6h-0.6602v-3.32h0.6602zm-0.3281-4.098c-0.2422 0-0.4375-0.1875-0.4375-0.418 0-0.2383 0.1953-0.4297 0.4375-0.4297 0.2383 0 0.4375 0.1836 0.4375 0.4297 0 0.2383-0.1992 0.418-0.4375 0.418" fill="#231f1f"/>
<path d="m224.8 180.2c0.6719 0 1.117-0.5625 1.117-1.199s-0.4453-1.203-1.117-1.203c-0.7227 0-1.102 0.5742-1.102 1.195 0 0.625 0.3789 1.207 1.102 1.207zm-0.1133 0.5547c-1.023 0-1.676-0.7891-1.676-1.762 0-0.9805 0.6758-1.742 1.668-1.742 0.5391 0 0.9531 0.2656 1.184 0.5898h0.01562v-2.473h0.6562v5.293h-0.6367v-0.5234h-0.01172c-0.2539 0.3984-0.7305 0.6172-1.199 0.6172" fill="#231f1f"/>
<path d="m228.2 180.6h-0.6562v-3.32h0.6562zm-0.3281-4.098c-0.2383 0-0.4336-0.1875-0.4336-0.418 0-0.2383 0.1953-0.4297 0.4336-0.4297 0.2383 0 0.4414 0.1836 0.4414 0.4297 0 0.2383-0.2031 0.418-0.4414 0.418" fill="#231f1f"/>
<path d="m230.9 178.1c-0.1484-0.2422-0.4336-0.4141-0.7695-0.4141-0.3008 0-0.6172 0.1172-0.6172 0.4336 0 0.2812 0.2539 0.3828 0.7578 0.4961 0.6289 0.1406 1.113 0.3984 1.113 0.9805 0 0.7852-0.6523 1.074-1.324 1.074-0.5039 0-1.023-0.1992-1.336-0.5977l0.4688-0.3984c0.1719 0.2578 0.5078 0.4609 0.8789 0.4609 0.332 0 0.6602-0.1172 0.6602-0.4844 0-0.3047-0.3008-0.418-0.8672-0.5508-0.4414-0.1055-0.9688-0.293-0.9688-0.918 0-0.7148 0.625-1.016 1.254-1.016 0.4688 0 0.9688 0.1875 1.207 0.5469l-0.457 0.3867" fill="#231f1f"/>
<path d="m233.8 177.2c0.4414 0 0.8242 0.1953 1.027 0.6641 0.2227-0.4258 0.6602-0.6641 1.129-0.6641 0.8555 0 1.238 0.6094 1.238 1.352v2.059h-0.6562v-1.84c0-0.543-0.1602-1.016-0.7383-1.016-0.6016 0-0.8398 0.5469-0.8398 1.062v1.793h-0.6562v-1.973c0-0.5195-0.1758-0.8828-0.7031-0.8828-0.4805 0-0.8477 0.4336-0.8477 1.09v1.766h-0.6562v-2.605c0-0.1758-0.007813-0.4961-0.02734-0.7148h0.6211c0.01562 0.168 0.02734 0.4062 0.02734 0.5469h0.02344c0.168-0.3516 0.5508-0.6367 1.059-0.6367" fill="#231f1f"/>
<path d="m187.6 189h-0.6562v-3.32h0.6562zm-0.3281-4.098c-0.2383 0-0.4336-0.1914-0.4336-0.4219 0-0.2383 0.1953-0.4258 0.4336-0.4258 0.2383 0 0.4414 0.1797 0.4414 0.4258 0 0.2383-0.2031 0.4219-0.4414 0.4219" fill="#231f1f"/>
<path d="m190.3 186.2h-0.7695v2.781h-0.6602v-2.781h-0.6562v-0.5391h0.6562v-0.6953c0-0.7773 0.3438-1.363 1.242-1.363 0.1523 0 0.2852 0.01172 0.4102 0.04688l-0.07422 0.5664c-0.1016-0.02734-0.2031-0.04688-0.332-0.04688-0.4961 0-0.5859 0.3906-0.5859 0.7969v0.6953h0.7695v0.5391" fill="#231f1f"/>
<path d="m193.5 189h-0.6602v-3.32h0.6602zm-0.3281-4.098c-0.2383 0-0.4336-0.1914-0.4336-0.4219 0-0.2383 0.1953-0.4258 0.4336-0.4258s0.4414 0.1797 0.4414 0.4258c0 0.2383-0.2031 0.4219-0.4414 0.4219" fill="#231f1f"/>
<path d="m195.3 185.7c0.01563 0.168 0.02734 0.4062 0.02734 0.543h0.02344c0.1602-0.3555 0.6016-0.6367 1.078-0.6367 0.8516 0 1.238 0.6094 1.238 1.355v2.059h-0.6562v-1.844c0-0.5391-0.1484-1.016-0.7578-1.016-0.5195 0-0.8906 0.4336-0.8906 1.094v1.766h-0.6562v-2.605c0-0.1758-0.007812-0.5-0.02734-0.7148h0.6211" fill="#231f1f"/>
<path d="m200.3 188.6c0.6719 0 1.117-0.5586 1.117-1.195s-0.4453-1.207-1.117-1.207c-0.7227 0-1.102 0.5742-1.102 1.199 0 0.6211 0.3789 1.203 1.102 1.203zm-0.1133 0.5547c-1.023 0-1.676-0.7852-1.676-1.758 0-0.9805 0.6719-1.746 1.668-1.746 0.5391 0 0.9531 0.2656 1.184 0.5898h0.01562v-2.473h0.6562v5.297h-0.6367v-0.5273h-0.01563c-0.25 0.3984-0.7266 0.6172-1.195 0.6172" fill="#231f1f"/>
<path d="m203.8 189h-0.6602v-3.32h0.6602zm-0.3281-4.098c-0.2383 0-0.4375-0.1914-0.4375-0.4219 0-0.2383 0.1992-0.4258 0.4375-0.4258s0.4414 0.1797 0.4414 0.4258c0 0.2383-0.2031 0.4219-0.4414 0.4219" fill="#231f1f"/>
<path d="m207.3 186.5c-0.1406-0.2188-0.4492-0.3789-0.7617-0.3789-0.6875 0-1.086 0.5625-1.086 1.199 0 0.6289 0.3984 1.195 1.09 1.195 0.3359 0 0.625-0.1367 0.8008-0.3633l0.4414 0.3984c-0.2812 0.3242-0.707 0.5195-1.242 0.5195-1.023 0-1.785-0.6914-1.785-1.75 0-1.043 0.7578-1.754 1.773-1.754 0.4688 0 0.9727 0.1914 1.246 0.5469l-0.4766 0.3867" fill="#231f1f"/>
<path d="m210.4 187.4c-0.6484 0-1.477 0.07031-1.477 0.6328 0 0.3906 0.3516 0.5195 0.6797 0.5195 0.6172 0 0.9609-0.4141 0.9609-0.9766v-0.1758zm0.1641-0.5664c0-0.4883-0.332-0.7266-0.8203-0.7266-0.3711 0-0.7227 0.1602-0.9453 0.3828l-0.3516-0.418c0.3242-0.3086 0.8203-0.5 1.359-0.5 0.9531 0 1.387 0.5664 1.387 1.305v1.449c0 0.2266 0.01562 0.4961 0.05078 0.6602h-0.5977c-0.03516-0.1484-0.05469-0.3242-0.05469-0.4766h-0.01953c-0.2383 0.3555-0.6172 0.5586-1.117 0.5586-0.5234 0-1.203-0.2578-1.203-1.023 0-1 1.191-1.117 2.312-1.117v-0.09375" fill="#231f1f"/>
<path d="m213.8 186.2h-0.8828v1.727c0 0.4023 0.1406 0.5625 0.4688 0.5625 0.1211 0 0.2734-0.02734 0.3867-0.08594l0.01953 0.543c-0.1523 0.05469-0.3555 0.08984-0.5586 0.08984-0.625 0-0.9648-0.3516-0.9648-1.039v-1.797h-0.6406v-0.5391h0.6406v-0.9531h0.6484v0.9531h0.8828v0.5391" fill="#231f1f"/>
<path d="m216.9 187.1c-0.01562-0.5234-0.3203-0.9375-0.9297-0.9375-0.5703 0-1.004 0.4219-1.047 0.9375zm0.6562 0.4922h-2.633c0.02344 0.5664 0.5 1.008 1.082 1.008 0.4453 0 0.7734-0.2266 0.9648-0.5039l0.4609 0.3711c-0.3555 0.4609-0.8398 0.6797-1.426 0.6797-1.012 0-1.754-0.7031-1.754-1.746 0-1.035 0.7422-1.758 1.719-1.758 0.9805 0 1.594 0.668 1.594 1.723 0 0.07031 0 0.1484-0.007813 0.2266" fill="#231f1f"/>
<path d="m220.1 188.6c0.6719 0 1.117-0.5586 1.117-1.195s-0.4453-1.207-1.117-1.207c-0.7227 0-1.102 0.5742-1.102 1.199 0 0.6211 0.3789 1.203 1.102 1.203zm-0.1133 0.5547c-1.023 0-1.676-0.7852-1.676-1.758 0-0.9805 0.6719-1.746 1.668-1.746 0.5391 0 0.9531 0.2656 1.184 0.5898h0.01562v-2.473h0.6562v5.297h-0.6367v-0.5273h-0.01562c-0.25 0.3984-0.7266 0.6172-1.195 0.6172" fill="#231f1f"/>
<path d="m236 144h-63.25v-23h63.25v23" fill="#fef0ca"/>
<path transform="matrix(.1 0 0 -.1 0 196)" d="m2360 520h-632.5v230h632.5z" fill="none" stroke="#231f1f" stroke-width="5"/>
<path d="m186.6 130.4h-0.6914v-4.957h3.094v0.6094h-2.402v1.539h2.25v0.5977h-2.25v2.211" fill="#231f1f"/>
<path d="m191.9 130.4c-0.01172-0.168-0.02734-0.4062-0.02734-0.5469h-0.01172c-0.168 0.3516-0.6055 0.6367-1.086 0.6367-0.8555 0-1.242-0.6094-1.242-1.352v-2.059h0.6602v1.836c0 0.5469 0.1445 1.023 0.7539 1.023 0.5273 0 0.8906-0.4336 0.8906-1.094v-1.766h0.6602v2.605c0 0.1758 0.003906 0.4961 0.02734 0.7148h-0.625" fill="#231f1f"/>
<path d="m194.3 127.1c0.01172 0.168 0.02734 0.4062 0.02734 0.5469h0.01953c0.1641-0.3594 0.6016-0.6367 1.078-0.6367 0.8555 0 1.242 0.6094 1.242 1.352v2.059h-0.6602v-1.844c0-0.5391-0.1484-1.012-0.7539-1.012-0.5195 0-0.8906 0.4336-0.8906 1.09v1.766h-0.6602v-2.605c0-0.1758-0.007813-0.4961-0.02734-0.7148h0.625" fill="#231f1f"/>
<path d="m200.1 127.9c-0.1367-0.2148-0.4453-0.375-0.7617-0.375-0.6875 0-1.086 0.5586-1.086 1.195 0 0.6289 0.3984 1.199 1.094 1.199 0.3359 0 0.6211-0.1406 0.7969-0.3672l0.4414 0.4023c-0.2812 0.3203-0.707 0.5156-1.238 0.5156-1.023 0-1.785-0.6914-1.785-1.75 0-1.043 0.7539-1.75 1.77-1.75 0.4688 0 0.9727 0.1875 1.246 0.543l-0.4766 0.3867" fill="#231f1f"/>
<path d="m202.8 127.6h-0.8828v1.73c0 0.3984 0.1406 0.5586 0.4727 0.5586 0.1172 0 0.2734-0.02734 0.3828-0.08203l0.02344 0.5391c-0.1562 0.05469-0.3594 0.08984-0.5625 0.08984-0.6211 0-0.9648-0.3477-0.9648-1.035v-1.801h-0.6367v-0.5391h0.6367v-0.9531h0.6484v0.9531h0.8828v0.5391" fill="#231f1f"/>
<path d="m204.2 130.4h-0.6562v-3.32h0.6562zm-0.3281-4.098c-0.2383 0-0.4336-0.1875-0.4336-0.4219s0.1953-0.4258 0.4336-0.4258c0.2383 0 0.4414 0.1836 0.4414 0.4258 0 0.2422-0.2031 0.4219-0.4414 0.4219" fill="#231f1f"/>
<path d="m206.9 127.5c-0.707 0-1.109 0.5703-1.109 1.199 0 0.6328 0.4023 1.207 1.109 1.207 0.7148 0 1.105-0.5742 1.105-1.207 0-0.6289-0.3906-1.199-1.105-1.199zm0 2.957c-1.016 0-1.785-0.7344-1.785-1.758 0-1.02 0.7695-1.742 1.785-1.742s1.793 0.7227 1.793 1.742c0 1.023-0.7773 1.758-1.793 1.758" fill="#231f1f"/>
<path d="m210.2 127.1c0.01172 0.168 0.02734 0.4062 0.02734 0.5469h0.01953c0.1602-0.3594 0.6016-0.6367 1.078-0.6367 0.8555 0 1.242 0.6094 1.242 1.352v2.059h-0.6602v-1.844c0-0.5391-0.1484-1.012-0.7539-1.012-0.5195 0-0.8906 0.4336-0.8906 1.09v1.766h-0.6602v-2.605c0-0.1758-0.007813-0.4961-0.02734-0.7148h0.625" fill="#231f1f"/>
<path d="m214.3 130.4h-0.6562v-3.32h0.6562zm-0.3281-4.098c-0.2383 0-0.4336-0.1875-0.4336-0.4219s0.1953-0.4258 0.4336-0.4258c0.2383 0 0.4414 0.1836 0.4414 0.4258 0 0.2422-0.2031 0.4219-0.4414 0.4219" fill="#231f1f"/>
<path d="m216.1 127.1c0.01172 0.168 0.02734 0.4062 0.02734 0.5469h0.01953c0.1602-0.3594 0.6055-0.6367 1.078-0.6367 0.8555 0 1.242 0.6094 1.242 1.352v2.059h-0.6602v-1.844c0-0.5391-0.1445-1.012-0.7578-1.012-0.5156 0-0.8867 0.4336-0.8867 1.09v1.766h-0.6602v-2.605c0-0.1758-0.003906-0.4961-0.02734-0.7148h0.625" fill="#231f1f"/>
<path d="m221.1 129.9c0.6797 0 1.129-0.5117 1.129-1.172 0-0.6289-0.457-1.172-1.129-1.172-0.6953 0-1.098 0.5352-1.098 1.172 0 0.6094 0.4023 1.172 1.098 1.172zm-1.301 1.09c0.2852 0.3242 0.7539 0.5391 1.211 0.5391 0.875 0 1.168-0.5391 1.168-1.227v-0.4258h-0.01172c-0.2461 0.3711-0.7031 0.5742-1.172 0.5742-1.016 0-1.676-0.7539-1.676-1.707s0.6523-1.73 1.668-1.73c0.4766 0 0.9453 0.2109 1.199 0.6211h0.01563v-0.5312h0.6367v3.152c0 0.9648-0.457 1.848-1.836 1.848-0.5742 0-1.211-0.2227-1.625-0.6016l0.4219-0.5117" fill="#231f1f"/>
<path d="m197.6 133.9h0.5547l-0.4766 1.75h-0.6562zm-1.258 0h0.5508l-0.4727 1.75h-0.6602l0.582-1.75" fill="#231f1f"/>
<path d="m199.1 133.9h0.6953v2.074h2.508v-2.074h0.6992v4.957h-0.6992v-2.27h-2.508v2.27h-0.6953v-4.957" fill="#231f1f"/>
<path d="m205.7 135.9c-0.707 0-1.105 0.5664-1.105 1.199 0 0.6289 0.3984 1.203 1.105 1.203 0.7148 0 1.109-0.5742 1.109-1.203 0-0.6328-0.3945-1.199-1.109-1.199zm0 2.957c-1.016 0-1.785-0.7383-1.785-1.758 0-1.023 0.7695-1.746 1.785-1.746s1.793 0.7227 1.793 1.746c0 1.02-0.7773 1.758-1.793 1.758" fill="#231f1f"/>
<path d="m210 136h-0.8828v1.73c0 0.3984 0.1406 0.5586 0.4688 0.5586 0.1172 0 0.2734-0.02734 0.3828-0.08594l0.02344 0.5391c-0.1562 0.05859-0.3594 0.09375-0.5625 0.09375-0.6211 0-0.9648-0.3516-0.9648-1.039v-1.797h-0.6367v-0.543h0.6367v-0.9492h0.6523v0.9492h0.8828v0.543" fill="#231f1f"/>
<path d="m212.4 135.6h-0.5547l0.4844-1.75h0.6484zm-1.262 0h-0.5547l0.4844-1.75h0.6523l-0.582 1.75" fill="#231f1f"/>
<g clip-path="url(#d)">
<path d="m322.2 195.8h-63.25v-34.5h63.25v34.5" fill="#fef0ca"/>
</g>
<g clip-path="url(#c)">
<path transform="matrix(.1 0 0 -.1 0 196)" d="m3222 2.5h-632.5v345h632.5z" fill="none" stroke="#231f1f" stroke-width="5"/>
</g>
<path d="m272 171.6h2.59v0.6172h-3.285v-4.961h3.18v0.6094h-2.484v1.484h2.34v0.5977h-2.34v1.652" fill="#231f1f"/>
<path d="m277 172.2h-0.7148l-1.352-3.32h0.7266l0.9766 2.613h0.01172l0.9805-2.613h0.6992l-1.328 3.32" fill="#231f1f"/>
<path d="m280.8 170.6c-0.6523 0-1.477 0.07031-1.477 0.6289 0 0.3906 0.3477 0.5195 0.6758 0.5195 0.6172 0 0.9609-0.4141 0.9609-0.9766v-0.1719zm0.1602-0.5703c0-0.4883-0.3281-0.7266-0.8203-0.7266-0.3711 0-0.7227 0.1602-0.9453 0.3867l-0.3516-0.4219c0.3242-0.3086 0.8203-0.4961 1.359-0.4961 0.9531 0 1.387 0.5664 1.387 1.301v1.449c0 0.2266 0.01562 0.5 0.05078 0.6602h-0.5977c-0.03516-0.1484-0.05469-0.3242-0.05469-0.4766h-0.01953c-0.2383 0.3555-0.6172 0.5586-1.113 0.5586-0.5273 0-1.207-0.2578-1.207-1.023 0-1 1.191-1.117 2.312-1.117v-0.09375" fill="#231f1f"/>
<path d="m283.4 172.2h-0.6602v-5.297h0.6602v5.297" fill="#231f1f"/>
<path d="m286.9 172.2c-0.01562-0.168-0.02734-0.4062-0.02734-0.5469h-0.01562c-0.168 0.3516-0.6016 0.6367-1.086 0.6367-0.8516 0-1.238-0.6094-1.238-1.352v-2.059h0.6562v1.836c0 0.543 0.1484 1.02 0.7578 1.02 0.5273 0 0.8906-0.4336 0.8906-1.09v-1.766h0.6602v2.605c0 0.1758 0.003906 0.4961 0.02344 0.7148h-0.6211" fill="#231f1f"/>
<path d="m290.5 170.6c-0.6523 0-1.48 0.07031-1.48 0.6289 0 0.3906 0.3516 0.5195 0.6836 0.5195 0.6133 0 0.957-0.4141 0.957-0.9766v-0.1719zm0.1602-0.5703c0-0.4883-0.3281-0.7266-0.8203-0.7266-0.3711 0-0.7188 0.1602-0.9453 0.3867l-0.3477-0.4219c0.3203-0.3086 0.8164-0.4961 1.355-0.4961 0.9531 0 1.391 0.5664 1.391 1.301v1.449c0 0.2266 0.01172 0.5 0.04687 0.6602h-0.5938c-0.03516-0.1484-0.05859-0.3242-0.05859-0.4766h-0.01953c-0.2383 0.3555-0.6172 0.5586-1.113 0.5586-0.5273 0-1.207-0.2578-1.207-1.023 0-1 1.191-1.117 2.312-1.117v-0.09375" fill="#231f1f"/>
<path d="m294 169.4h-0.8828v1.73c0 0.3984 0.1406 0.5586 0.4688 0.5586 0.1211 0 0.2734-0.02734 0.3867-0.08203l0.01953 0.5391c-0.1523 0.05469-0.3555 0.08984-0.5586 0.08984-0.6211 0-0.9648-0.3516-0.9648-1.035v-1.801h-0.6406v-0.5391h0.6406v-0.9531h0.6484v0.9531h0.8828v0.5391" fill="#231f1f"/>
<path d="m297.1 170.3c-0.01172-0.5273-0.3203-0.9414-0.9297-0.9414-0.5703 0-1.004 0.4219-1.043 0.9414zm0.6602 0.4883h-2.633c0.01953 0.5664 0.4961 1.008 1.078 1.008 0.4453 0 0.7773-0.2227 0.9648-0.5039l0.4648 0.3711c-0.3594 0.4648-0.8438 0.6797-1.43 0.6797-1.012 0-1.754-0.6992-1.754-1.742 0-1.039 0.7422-1.758 1.719-1.758 0.9805 0 1.598 0.6641 1.598 1.723 0 0.07031 0 0.1445-0.007813 0.2227" fill="#231f1f"/>
<path d="m302 169.4h-0.7695v2.781h-0.6602v-2.781h-0.6602v-0.5391h0.6602v-0.6914c0-0.7812 0.3438-1.367 1.238-1.367 0.1562 0 0.2891 0.01172 0.4141 0.04687l-0.07813 0.5703c-0.09766-0.03125-0.2031-0.05078-0.3281-0.05078-0.4961 0-0.5859 0.3906-0.5859 0.8008v0.6914h0.7695v0.5391" fill="#231f1f"/>
<path d="m304.1 169.3c-0.707 0-1.105 0.5703-1.105 1.199s0.3984 1.203 1.105 1.203c0.7148 0 1.105-0.5742 1.105-1.203s-0.3906-1.199-1.105-1.199zm0 2.957c-1.016 0-1.785-0.7344-1.785-1.758s0.7695-1.742 1.785-1.742c1.016 0 1.793 0.7188 1.793 1.742s-0.7773 1.758-1.793 1.758" fill="#231f1f"/>
<path d="m306.8 168.9h0.625c0.01172 0.168 0.02734 0.418 0.02734 0.5625h0.01953c0.1836-0.3867 0.5703-0.6523 1.016-0.6523 0.09375 0 0.1836 0.003906 0.2617 0.02734l-0.02734 0.6094c-0.08594-0.02344-0.1992-0.03516-0.3008-0.03516-0.6328 0-0.9336 0.5117-0.9336 1.062v1.746h-0.6562v-2.605c0-0.1758-0.01172-0.5-0.03125-0.7148" fill="#231f1f"/>
<path d="m274 178.8v-3.121h0.6914v3.082c0 0.6758 0.3086 1.379 1.234 1.379 0.9258 0 1.23-0.7031 1.23-1.379v-3.082h0.6953v3.121c0 1.016-0.6172 1.961-1.926 1.961s-1.926-0.9453-1.926-1.961" fill="#231f1f"/>
<path d="m281.5 176.6c-0.1992-0.2773-0.5547-0.4648-0.9688-0.4648-0.4453 0-0.9648 0.2461-0.9648 0.8047 0 0.543 0.4531 0.6875 1.016 0.8711 0.6641 0.2109 1.457 0.4609 1.457 1.449 0 1.031-0.8359 1.504-1.719 1.504-0.6211 0-1.254-0.2422-1.629-0.7188l0.5391-0.457c0.2305 0.3438 0.6523 0.582 1.105 0.582 0.4609 0 0.9961-0.2578 0.9961-0.8477 0-0.6016-0.5469-0.7617-1.18-0.9609-0.6289-0.1953-1.285-0.4805-1.285-1.391 0-0.9883 0.8828-1.418 1.699-1.418 0.5742 0 1.113 0.2266 1.422 0.5703l-0.4883 0.4766" fill="#231f1f"/>
<path d="m284.3 179.2h-1.625v-0.5586h1.625v0.5586" fill="#231f1f"/>
<path d="m286.8 180.1c0.6758 0 1.125-0.5117 1.125-1.172 0-0.6289-0.4531-1.168-1.125-1.168-0.6953 0-1.102 0.5312-1.102 1.168 0 0.6094 0.4062 1.172 1.102 1.172zm-1.305 1.09c0.2852 0.3242 0.7539 0.543 1.211 0.543 0.875 0 1.168-0.543 1.168-1.227v-0.4297h-0.01172c-0.2461 0.3711-0.6992 0.5742-1.172 0.5742-1.012 0-1.672-0.7539-1.672-1.707s0.6523-1.73 1.668-1.73c0.4766 0 0.9453 0.2109 1.195 0.625h0.01562v-0.5352h0.6367v3.152c0 0.9648-0.457 1.848-1.836 1.848-0.5742 0-1.211-0.2227-1.625-0.6016l0.4219-0.5117" fill="#231f1f"/>
<path d="m292 180.6c-0.01562-0.168-0.02734-0.4062-0.02734-0.5469h-0.01562c-0.168 0.3516-0.6016 0.6406-1.086 0.6406-0.8516 0-1.238-0.6094-1.238-1.355v-2.059h0.6562v1.836c0 0.5469 0.1484 1.023 0.7578 1.023 0.5234 0 0.8906-0.4336 0.8906-1.094v-1.766h0.6602v2.605c0 0.1758 0.003907 0.5 0.02344 0.7148h-0.6211" fill="#231f1f"/>
<path d="m294.4 180.6h-0.6602v-3.32h0.6602zm-0.332-4.098c-0.2383 0-0.4336-0.1875-0.4336-0.418 0-0.2383 0.1953-0.4297 0.4336-0.4297 0.2383 0 0.4414 0.1836 0.4414 0.4297 0 0.2383-0.2031 0.418-0.4414 0.418" fill="#231f1f"/>
<path d="m297.1 180.2c0.6719 0 1.121-0.5625 1.121-1.199s-0.4492-1.203-1.121-1.203c-0.7227 0-1.098 0.5742-1.098 1.195 0 0.625 0.375 1.207 1.098 1.207zm-0.1133 0.5547c-1.02 0-1.672-0.7891-1.672-1.762 0-0.9805 0.6719-1.742 1.664-1.742 0.5391 0 0.9531 0.2656 1.188 0.5898h0.01172v-2.473h0.6602v5.293h-0.6406v-0.5234h-0.01172c-0.2539 0.3984-0.7266 0.6172-1.199 0.6172" fill="#231f1f"/>
<path d="m302.4 178.7c-0.01172-0.5234-0.3203-0.9375-0.9297-0.9375-0.5664 0-1.004 0.418-1.047 0.9375zm0.6602 0.4883h-2.637c0.02344 0.5703 0.5 1.012 1.082 1.012 0.4492 0 0.7773-0.2266 0.9648-0.5078l0.4609 0.3711c-0.3555 0.4648-0.8398 0.6836-1.426 0.6836-1.008 0-1.75-0.7031-1.75-1.746 0-1.039 0.7422-1.758 1.715-1.758 0.9805 0 1.594 0.6641 1.594 1.723 0 0.07031 0 0.1484-0.003906 0.2227" fill="#231f1f"/>
<path d="m305.5 180.2c0.6719 0 1.121-0.5625 1.121-1.199s-0.4492-1.203-1.121-1.203c-0.7227 0-1.102 0.5742-1.102 1.195 0 0.625 0.3789 1.207 1.102 1.207zm-0.1133 0.5547c-1.023 0-1.676-0.7891-1.676-1.762 0-0.9805 0.6758-1.742 1.668-1.742 0.5391 0 0.9531 0.2656 1.184 0.5898h0.01562v-2.473h0.6562v5.293h-0.6367v-0.5234h-0.01172c-0.2539 0.3984-0.7305 0.6172-1.199 0.6172" fill="#231f1f"/>
<path d="m281.4 189h-0.6953v-4.961h3.098v0.6094h-2.402v1.543h2.246v0.5938h-2.246v2.215" fill="#231f1f"/>
<path d="m288.2 188h0.01172v-3.965h0.6953v4.961h-0.875l-2.621-4.051h-0.01562v4.051h-0.6914v-4.961h0.9023l2.594 3.965" fill="#231f1f"/>
<path d="m291 187.2h1.859l-0.9258-2.328zm-0.7422 1.828h-0.7695l2.152-4.961h0.6289l2.129 4.961h-0.7852l-0.5039-1.223h-2.352l-0.5 1.223" fill="#231f1f"/>
<path d="m295.7 188.4h0.8672c0.5898 0 1.234-0.1836 1.234-0.8555 0-0.582-0.4141-0.832-1.168-0.832h-0.9336zm0-2.277h0.9023c0.5352 0 0.9727-0.2305 0.9727-0.7695 0-0.5312-0.4258-0.7422-1.082-0.7422h-0.793zm-0.6914-2.094h1.707c0.75 0 1.555 0.3086 1.555 1.254 0 0.5469-0.3477 0.9414-0.8672 1.078v0.01562c0.6367 0.07812 1.098 0.5117 1.098 1.203 0 0.9531-0.8242 1.41-1.863 1.41h-1.629v-4.961" fill="#231f1f"/>
<path d="m300.4 185.8c-0.3789 0-0.8594 0.04297-0.8594 0.3672 0 0.2266 0.2031 0.3008 0.3945 0.3008 0.3594 0 0.5586-0.2383 0.5586-0.5664v-0.1016zm0.09375-0.3281c0-0.2852-0.1914-0.4258-0.4766-0.4258-0.2148 0-0.4219 0.09375-0.5508 0.2227l-0.2031-0.2422c0.1875-0.1797 0.4766-0.2891 0.7891-0.2891 0.5547 0 0.8086 0.3281 0.8086 0.7578v0.8438c0 0.1289 0.007812 0.2891 0.02734 0.3828h-0.3477c-0.01953-0.08594-0.03125-0.1875-0.03125-0.2773h-0.01172c-0.1367 0.207-0.3594 0.3242-0.6484 0.3242-0.3047 0-0.6992-0.1484-0.6992-0.5938 0-0.582 0.6914-0.6523 1.344-0.6523v-0.05078" fill="#231f1f"/>
<g clip-path="url(#b)">
<path d="m322.2 144h-63.25v-23h63.25v23" fill="#fef0ca"/>
</g>
<g clip-path="url(#a)">
<path transform="matrix(.1 0 0 -.1 0 196)" d="m3222 520h-632.5v230h632.5z" fill="none" stroke="#231f1f" stroke-width="5"/>
</g>
<path d="m269.6 129.4h0.01562v-3.961h0.6914v4.957h-0.875l-2.617-4.047h-0.01562v4.047h-0.6953v-4.957h0.9062l2.59 3.961" fill="#231f1f"/>
<path d="m273 127.5c-0.707 0-1.109 0.5703-1.109 1.199 0 0.6328 0.4023 1.207 1.109 1.207 0.7109 0 1.105-0.5742 1.105-1.207 0-0.6289-0.3945-1.199-1.105-1.199zm0 2.957c-1.016 0-1.789-0.7344-1.789-1.758 0-1.02 0.7734-1.742 1.789-1.742s1.793 0.7227 1.793 1.742c0 1.023-0.7773 1.758-1.793 1.758" fill="#231f1f"/>
<path d="m276.3 127.1c0.01562 0.168 0.03125 0.4062 0.03125 0.5469h0.01953c0.1602-0.3594 0.6016-0.6367 1.078-0.6367 0.8555 0 1.242 0.6094 1.242 1.352v2.059h-0.6602v-1.844c0-0.5391-0.1484-1.012-0.7578-1.012-0.5156 0-0.8867 0.4336-0.8867 1.09v1.766h-0.6602v-2.605c0-0.1758-0.007812-0.4961-0.02734-0.7148h0.6211" fill="#231f1f"/>
<path d="m281.4 127.6h-0.7695v2.781h-0.6602v-2.781h-0.6562v-0.5391h0.6562v-0.6914c0-0.7773 0.3438-1.367 1.238-1.367 0.1562 0 0.2891 0.01172 0.4141 0.05078l-0.07422 0.5664c-0.1016-0.02734-0.2031-0.05078-0.332-0.05078-0.4961 0-0.5859 0.3945-0.5859 0.8008v0.6914h0.7695v0.5391" fill="#231f1f"/>
<path d="m284.3 130.4c-0.01563-0.168-0.03125-0.4062-0.03125-0.5469h-0.01172c-0.168 0.3516-0.6055 0.6367-1.086 0.6367-0.8555 0-1.238-0.6094-1.238-1.352v-2.059h0.6562v1.836c0 0.5469 0.1445 1.023 0.7578 1.023 0.5234 0 0.8867-0.4336 0.8867-1.094v-1.766h0.6602v2.605c0 0.1758 0.003906 0.4961 0.02734 0.7148h-0.6211" fill="#231f1f"/>
<path d="m286.6 127.1c0.01172 0.168 0.02734 0.4062 0.02734 0.5469h0.02344c0.1602-0.3594 0.5977-0.6367 1.078-0.6367 0.8516 0 1.238 0.6094 1.238 1.352v2.059h-0.6602v-1.844c0-0.5391-0.1445-1.012-0.7539-1.012-0.5195 0-0.8906 0.4336-0.8906 1.09v1.766h-0.6602v-2.605c0-0.1758-0.003906-0.4961-0.02734-0.7148h0.625" fill="#231f1f"/>
<path d="m292.4 127.9c-0.1406-0.2148-0.4492-0.375-0.7656-0.375-0.6875 0-1.086 0.5586-1.086 1.195 0 0.6289 0.3984 1.199 1.094 1.199 0.3359 0 0.625-0.1406 0.8008-0.3672l0.4375 0.4023c-0.2773 0.3203-0.707 0.5156-1.238 0.5156-1.023 0-1.785-0.6914-1.785-1.75 0-1.043 0.7539-1.75 1.77-1.75 0.4727 0 0.9766 0.1875 1.246 0.543l-0.4727 0.3867" fill="#231f1f"/>
<path d="m295.2 127.6h-0.8789v1.73c0 0.3984 0.1367 0.5586 0.4688 0.5586 0.1172 0 0.2734-0.02734 0.3828-0.08203l0.02344 0.5391c-0.1562 0.05469-0.3594 0.08984-0.5625 0.08984-0.6211 0-0.9648-0.3477-0.9648-1.035v-1.801h-0.6367v-0.5391h0.6367v-0.9531h0.6523v0.9531h0.8789v0.5391" fill="#231f1f"/>
<path d="m296.5 130.4h-0.6562v-3.32h0.6562zm-0.3281-4.098c-0.2383 0-0.4336-0.1875-0.4336-0.4219s0.1953-0.4258 0.4336-0.4258 0.4414 0.1836 0.4414 0.4258c0 0.2422-0.2031 0.4219-0.4414 0.4219" fill="#231f1f"/>
<path d="m299.3 127.5c-0.707 0-1.109 0.5703-1.109 1.199 0 0.6328 0.4023 1.207 1.109 1.207 0.7148 0 1.105-0.5742 1.105-1.207 0-0.6289-0.3906-1.199-1.105-1.199zm0 2.957c-1.016 0-1.785-0.7344-1.785-1.758 0-1.02 0.7695-1.742 1.785-1.742s1.793 0.7227 1.793 1.742c0 1.023-0.7773 1.758-1.793 1.758" fill="#231f1f"/>
<path d="m302.6 127.1c0.01172 0.168 0.02734 0.4062 0.02734 0.5469h0.01953c0.1641-0.3594 0.6016-0.6367 1.082-0.6367 0.8516 0 1.238 0.6094 1.238 1.352v2.059h-0.6602v-1.844c0-0.5391-0.1484-1.012-0.7539-1.012-0.5195 0-0.8906 0.4336-0.8906 1.09v1.766h-0.6602v-2.605c0-0.1758-0.007813-0.4961-0.02734-0.7148h0.625" fill="#231f1f"/>
<path d="m306.7 130.4h-0.6562v-3.32h0.6562zm-0.3281-4.098c-0.2344 0-0.4336-0.1875-0.4336-0.4219s0.1992-0.4258 0.4336-0.4258c0.2383 0 0.4414 0.1836 0.4414 0.4258 0 0.2422-0.2031 0.4219-0.4414 0.4219" fill="#231f1f"/>
<path d="m308.4 127.1c0.01172 0.168 0.02734 0.4062 0.02734 0.5469h0.01953c0.1602-0.3594 0.6055-0.6367 1.078-0.6367 0.8555 0 1.242 0.6094 1.242 1.352v2.059h-0.6602v-1.844c0-0.5391-0.1445-1.012-0.7539-1.012-0.5195 0-0.8906 0.4336-0.8906 1.09v1.766h-0.6562v-2.605c0-0.1758-0.007812-0.4961-0.03125-0.7148h0.625" fill="#231f1f"/>
<path d="m313.5 129.9c0.6797 0 1.129-0.5117 1.129-1.172 0-0.6289-0.457-1.172-1.129-1.172-0.6914 0-1.098 0.5352-1.098 1.172 0 0.6094 0.4062 1.172 1.098 1.172zm-1.301 1.09c0.2852 0.3242 0.7539 0.5391 1.211 0.5391 0.875 0 1.168-0.5391 1.168-1.227v-0.4258h-0.01172c-0.2461 0.3711-0.6992 0.5742-1.172 0.5742-1.016 0-1.672-0.7539-1.672-1.707s0.6523-1.73 1.664-1.73c0.4805 0 0.9492 0.2109 1.199 0.6211h0.01562v-0.5312h0.6367v3.152c0 0.9648-0.457 1.848-1.836 1.848-0.5742 0-1.211-0.2227-1.625-0.6016l0.4219-0.5117" fill="#231f1f"/>
<path d="m271.8 133.9h0.5547l-0.4766 1.75h-0.6562zm-1.258 0h0.5508l-0.4727 1.75h-0.6602l0.582-1.75" fill="#231f1f"/>
<path d="m277.5 138c-0.3867 0.5273-1.023 0.8984-1.895 0.8984-1.516 0-2.609-1.086-2.609-2.613 0-1.547 1.133-2.598 2.641-2.598 0.6797 0 1.414 0.2656 1.777 0.7695l-0.5469 0.418c-0.2383-0.332-0.7227-0.5781-1.23-0.5781-1.148 0-1.883 0.9023-1.883 1.988 0 1.113 0.7188 1.996 1.859 1.996 0.5547 0 1.039-0.2305 1.332-0.6602l0.5547 0.3789" fill="#231f1f"/>
<path d="m279.6 135.9c-0.707 0-1.105 0.5664-1.105 1.199 0 0.6289 0.3984 1.203 1.105 1.203 0.7148 0 1.105-0.5742 1.105-1.203 0-0.6328-0.3906-1.199-1.105-1.199zm0 2.957c-1.016 0-1.785-0.7383-1.785-1.758 0-1.023 0.7695-1.746 1.785-1.746s1.793 0.7227 1.793 1.746c0 1.02-0.7773 1.758-1.793 1.758" fill="#231f1f"/>
<path d="m283 138.8h-0.6602v-5.293h0.6602v5.293" fill="#231f1f"/>
<path d="m285.7 138.4c0.6719 0 1.117-0.5586 1.117-1.199 0-0.6367-0.4453-1.203-1.117-1.203-0.7227 0-1.102 0.5742-1.102 1.199 0 0.6211 0.3789 1.203 1.102 1.203zm-0.1133 0.5547c-1.023 0-1.676-0.7852-1.676-1.758 0-0.9805 0.6719-1.746 1.668-1.746 0.5391 0 0.9531 0.2656 1.184 0.5898h0.01172v-2.473h0.6602v5.293h-0.6367v-0.5234h-0.01562c-0.25 0.3984-0.7266 0.6172-1.195 0.6172" fill="#231f1f"/>
<path d="m288.5 139-0.4961-0.1641 2.148-5.262 0.4961 0.1797-2.148 5.246" fill="#231f1f"/>
<path d="m291.5 135.5 0.75 2.539h0.01562l0.7891-2.539h0.6953l0.8047 2.539h0.01172l0.75-2.539h0.6953l-1.102 3.32h-0.6836l-0.8203-2.492h-0.01562l-0.8125 2.492h-0.6836l-1.109-3.32h0.7148" fill="#231f1f"/>
<path d="m298.6 137.2c-0.6523 0-1.477 0.07031-1.477 0.6289 0 0.3945 0.3516 0.5195 0.6797 0.5195 0.6172 0 0.9609-0.4102 0.9609-0.9727v-0.1758zm0.1641-0.5664c0-0.4922-0.332-0.7266-0.8203-0.7266-0.3711 0-0.7227 0.1602-0.9453 0.3828l-0.3516-0.4219c0.3242-0.3047 0.8203-0.4961 1.359-0.4961 0.9531 0 1.387 0.5703 1.387 1.305v1.449c0 0.2227 0.01172 0.4961 0.04688 0.6562h-0.5938c-0.03516-0.1445-0.05469-0.3203-0.05469-0.4727h-0.02344c-0.2383 0.3555-0.6172 0.5586-1.113 0.5586-0.5234 0-1.203-0.2578-1.203-1.023 0-1 1.191-1.121 2.312-1.121v-0.08984" fill="#231f1f"/>
<path d="m300.4 135.5h0.6211c0.01562 0.1719 0.02734 0.4219 0.02734 0.5625h0.02344c0.1797-0.3867 0.5664-0.6523 1.016-0.6523 0.08984 0 0.1836 0.007812 0.2578 0.02734l-0.02734 0.6094c-0.08203-0.01953-0.1953-0.03516-0.3008-0.03516-0.6328 0-0.9336 0.5117-0.9336 1.066v1.742h-0.6562v-2.605c0-0.1719-0.007812-0.4961-0.02734-0.7148" fill="#231f1f"/>
<path d="m304.7 135.4c0.4414 0 0.8281 0.1953 1.031 0.6641 0.2227-0.4258 0.6602-0.6641 1.129-0.6641 0.8516 0 1.238 0.6094 1.238 1.352v2.059h-0.6602v-1.84c0-0.5391-0.1602-1.016-0.7344-1.016-0.6016 0-0.8398 0.5469-0.8398 1.062v1.793h-0.6602v-1.973c0-0.5195-0.1758-0.8828-0.6992-0.8828-0.4805 0-0.8477 0.4336-0.8477 1.09v1.766h-0.6602v-2.605c0-0.1719-0.003906-0.4961-0.02344-0.7148h0.6211c0.01562 0.1719 0.02734 0.4062 0.02734 0.5469h0.02344c0.168-0.3477 0.5508-0.6367 1.055-0.6367" fill="#231f1f"/>
<path d="m310.7 135.6h-0.5508l0.4844-1.75h0.6484zm-1.258 0h-0.5547l0.4844-1.75h0.6523l-0.582 1.75" fill="#231f1f"/>
</svg>
