<?xml version="1.0" encoding="UTF-8"?>
<svg width="328.2pt" height="221.3pt" version="1.1" viewBox="0 0 328.2 221.3" xmlns="http://www.w3.org/2000/svg">
<defs>
<clipPath id="p">
<path d="m50 156h81v35h-81z"/>
</clipPath>
<clipPath id="l">
<path d="m130.8 173.5c0 9.465-17.88 17.14-39.93 17.14s-39.93-7.672-39.93-17.14 17.88-17.14 39.93-17.14 39.93 7.672 39.93 17.14z"/>
</clipPath>
<clipPath id="k">
<path d="m130.8 173.5c0 9.465-17.88 17.14-39.93 17.14s-39.93-7.672-39.93-17.14 17.88-17.14 39.93-17.14 39.93 7.672 39.93 17.14"/>
</clipPath>
<radialGradient id="d" cx="0" cy="0" r="29.61" gradientTransform="matrix(1.059 0 0 .9412 90.84 173.5)" gradientUnits="userSpaceOnUse">
<stop stop-color="#fffefe" offset="0"/>
<stop stop-color="#fffefd" offset=".01562"/>
<stop stop-color="#fefefd" offset=".02734"/>
<stop stop-color="#fefefc" offset=".03906"/>
<stop stop-color="#fefdfb" offset=".05078"/>
<stop stop-color="#fefdfb" offset=".0625"/>
<stop stop-color="#fefdfa" offset=".07422"/>
<stop stop-color="#fefdf9" offset=".08594"/>
<stop stop-color="#fefdf8" offset=".1133"/>
<stop stop-color="#fefcf7" offset=".125"/>
<stop stop-color="#fefcf7" offset=".1367"/>
<stop stop-color="#fefcf6" offset=".1484"/>
<stop stop-color="#fefcf5" offset=".1719"/>
<stop stop-color="#fefcf5" offset=".1836"/>
<stop stop-color="#fefbf4" offset=".1953"/>
<stop stop-color="#fefbf3" offset=".207"/>
<stop stop-color="#fefbf2" offset=".2188"/>
<stop stop-color="#fefbf1" offset=".2305"/>
<stop stop-color="#fefbf1" offset=".2539"/>
<stop stop-color="#fefbf1" offset=".2617"/>
<stop stop-color="#fefbf0" offset=".2695"/>
<stop stop-color="#fefaef" offset=".2773"/>
<stop stop-color="#fefaef" offset=".2852"/>
<stop stop-color="#fefaee" offset=".293"/>
<stop stop-color="#fefaed" offset=".3125"/>
<stop stop-color="#fefaed" offset=".332"/>
<stop stop-color="#fefaec" offset=".3398"/>
<stop stop-color="#fef9ec" offset=".3477"/>
<stop stop-color="#fef9eb" offset=".3555"/>
<stop stop-color="#fef9ea" offset=".375"/>
<stop stop-color="#fef9e9" offset=".3945"/>
<stop stop-color="#fef9e8" offset=".4102"/>
<stop stop-color="#fef8e7" offset=".4258"/>
<stop stop-color="#fef8e6" offset=".4414"/>
<stop stop-color="#fef7e5" offset=".4727"/>
<stop stop-color="#fef7e4" offset=".4883"/>
<stop stop-color="#fef7e3" offset=".5039"/>
<stop stop-color="#fef7e3" offset=".5156"/>
<stop stop-color="#fef6e2" offset=".5273"/>
<stop stop-color="#fef6e1" offset=".5391"/>
<stop stop-color="#fef6e1" offset=".5508"/>
<stop stop-color="#fef6e0" offset=".5625"/>
<stop stop-color="#fef6df" offset=".5898"/>
<stop stop-color="#fef5de" offset=".6016"/>
<stop stop-color="#fef5dd" offset=".6133"/>
<stop stop-color="#fef5dd" offset=".625"/>
<stop stop-color="#fef5dc" offset=".6367"/>
<stop stop-color="#fef4db" offset=".6562"/>
<stop stop-color="#fef4da" offset=".6758"/>
<stop stop-color="#fef4da" offset=".6836"/>
<stop stop-color="#fef4d9" offset=".6914"/>
<stop stop-color="#fef4d8" offset=".707"/>
<stop stop-color="#fef4d8" offset=".7227"/>
<stop stop-color="#fef3d7" offset=".7383"/>
<stop stop-color="#fef3d6" offset=".7539"/>
<stop stop-color="#fef3d5" offset=".7656"/>
<stop stop-color="#fef3d5" offset=".793"/>
<stop stop-color="#fef3d4" offset=".8047"/>
<stop stop-color="#fef2d3" offset=".8164"/>
<stop stop-color="#fef2d2" offset=".8242"/>
<stop stop-color="#fef2d2" offset=".832"/>
<stop stop-color="#fef2d1" offset=".8398"/>
<stop stop-color="#fef2d1" offset=".8477"/>
<stop stop-color="#fef2d0" offset=".8633"/>
<stop stop-color="#fef2d0" offset=".8789"/>
<stop stop-color="#fef1cf" offset=".8906"/>
<stop stop-color="#fef1ce" offset=".9023"/>
<stop stop-color="#fef1ce" offset=".9141"/>
<stop stop-color="#fef1cd" offset=".9336"/>
<stop stop-color="#fef0cc" offset=".9492"/>
<stop stop-color="#fef0cc" offset=".9609"/>
<stop stop-color="#fef0cb" offset=".9688"/>
<stop stop-color="#feefca" offset="1"/>
</radialGradient>
<clipPath id="j">
<path d="m171 64h141v81h-141z"/>
</clipPath>
<clipPath id="i">
<path d="m311.4 104.4c0 21.17-32.22 39.66-70.84 39.66-38.62 0-69.02-18.49-69.02-39.66 0-21.18 30.73-40.34 69.35-40.34s70.51 19.16 70.51 40.34z"/>
</clipPath>
<clipPath id="h">
<path d="m311.4 104.4c0 21.17-32.22 39.66-70.84 39.66-38.62 0-69.02-18.49-69.02-39.66 0-21.18 30.73-40.34 69.35-40.34s70.51 19.16 70.51 40.34"/>
</clipPath>
<radialGradient id="c" cx="0" cy="0" r="56.97" gradientTransform="translate(241.4 104)" gradientUnits="userSpaceOnUse">
<stop stop-color="#fffefe" offset="0"/>
<stop stop-color="#fffefd" offset=".01562"/>
<stop stop-color="#fefefd" offset=".02734"/>
<stop stop-color="#fefefc" offset=".03906"/>
<stop stop-color="#fefdfb" offset=".05078"/>
<stop stop-color="#fefdfb" offset=".0625"/>
<stop stop-color="#fefdfa" offset=".07422"/>
<stop stop-color="#fefdf9" offset=".08594"/>
<stop stop-color="#fefdf8" offset=".1133"/>
<stop stop-color="#fefcf7" offset=".125"/>
<stop stop-color="#fefcf7" offset=".1367"/>
<stop stop-color="#fefcf6" offset=".1484"/>
<stop stop-color="#fefcf5" offset=".1719"/>
<stop stop-color="#fefcf5" offset=".1836"/>
<stop stop-color="#fefbf4" offset=".1953"/>
<stop stop-color="#fefbf3" offset=".207"/>
<stop stop-color="#fefbf2" offset=".2188"/>
<stop stop-color="#fefbf1" offset=".2305"/>
<stop stop-color="#fefbf1" offset=".2539"/>
<stop stop-color="#fefbf1" offset=".2617"/>
<stop stop-color="#fefbf0" offset=".2695"/>
<stop stop-color="#fefaef" offset=".2773"/>
<stop stop-color="#fefaef" offset=".2852"/>
<stop stop-color="#fefaee" offset=".293"/>
<stop stop-color="#fefaed" offset=".3125"/>
<stop stop-color="#fefaed" offset=".332"/>
<stop stop-color="#fefaec" offset=".3398"/>
<stop stop-color="#fef9ec" offset=".3477"/>
<stop stop-color="#fef9eb" offset=".3555"/>
<stop stop-color="#fef9ea" offset=".375"/>
<stop stop-color="#fef9e9" offset=".3945"/>
<stop stop-color="#fef9e8" offset=".4102"/>
<stop stop-color="#fef8e7" offset=".4258"/>
<stop stop-color="#fef8e6" offset=".4414"/>
<stop stop-color="#fef7e5" offset=".4727"/>
<stop stop-color="#fef7e4" offset=".4883"/>
<stop stop-color="#fef7e3" offset=".5039"/>
<stop stop-color="#fef7e3" offset=".5156"/>
<stop stop-color="#fef6e2" offset=".5273"/>
<stop stop-color="#fef6e1" offset=".5391"/>
<stop stop-color="#fef6e1" offset=".5508"/>
<stop stop-color="#fef6e0" offset=".5625"/>
<stop stop-color="#fef6df" offset=".5898"/>
<stop stop-color="#fef5de" offset=".6016"/>
<stop stop-color="#fef5dd" offset=".6133"/>
<stop stop-color="#fef5dd" offset=".625"/>
<stop stop-color="#fef5dc" offset=".6367"/>
<stop stop-color="#fef4db" offset=".6562"/>
<stop stop-color="#fef4da" offset=".6758"/>
<stop stop-color="#fef4da" offset=".6836"/>
<stop stop-color="#fef4d9" offset=".6914"/>
<stop stop-color="#fef4d8" offset=".707"/>
<stop stop-color="#fef4d8" offset=".7227"/>
<stop stop-color="#fef3d7" offset=".7383"/>
<stop stop-color="#fef3d6" offset=".7539"/>
<stop stop-color="#fef3d5" offset=".7656"/>
<stop stop-color="#fef3d5" offset=".793"/>
<stop stop-color="#fef3d4" offset=".8047"/>
<stop stop-color="#fef2d3" offset=".8164"/>
<stop stop-color="#fef2d2" offset=".8242"/>
<stop stop-color="#fef2d2" offset=".832"/>
<stop stop-color="#fef2d1" offset=".8398"/>
<stop stop-color="#fef2d1" offset=".8477"/>
<stop stop-color="#fef2d0" offset=".8633"/>
<stop stop-color="#fef2d0" offset=".8789"/>
<stop stop-color="#fef1cf" offset=".8906"/>
<stop stop-color="#fef1ce" offset=".9023"/>
<stop stop-color="#fef1ce" offset=".9141"/>
<stop stop-color="#fef1cd" offset=".9336"/>
<stop stop-color="#fef0cc" offset=".9492"/>
<stop stop-color="#fef0cc" offset=".9609"/>
<stop stop-color="#fef0cb" offset=".9688"/>
<stop stop-color="#feefca" offset="1"/>
</radialGradient>
<clipPath id="g">
<path d="m196.8 173.4h126.1v8.75h-126.1z"/>
</clipPath>
<radialGradient id="b" cx="0" cy="0" r="44.68" gradientTransform="translate(259.9 177.8)" gradientUnits="userSpaceOnUse">
<stop stop-color="#fffefe" offset="0"/>
<stop stop-color="#fffefd" offset=".01562"/>
<stop stop-color="#fefefd" offset=".02734"/>
<stop stop-color="#fefefc" offset=".03906"/>
<stop stop-color="#fefdfb" offset=".05078"/>
<stop stop-color="#fefdfb" offset=".0625"/>
<stop stop-color="#fefdfa" offset=".07422"/>
<stop stop-color="#fefdf9" offset=".08594"/>
<stop stop-color="#fefdf8" offset=".1133"/>
<stop stop-color="#fefcf7" offset=".125"/>
<stop stop-color="#fefcf7" offset=".1367"/>
<stop stop-color="#fefcf6" offset=".1484"/>
<stop stop-color="#fefcf5" offset=".1719"/>
<stop stop-color="#fefcf5" offset=".1836"/>
<stop stop-color="#fefbf4" offset=".1953"/>
<stop stop-color="#fefbf3" offset=".207"/>
<stop stop-color="#fefbf2" offset=".2188"/>
<stop stop-color="#fefbf1" offset=".2305"/>
<stop stop-color="#fefbf1" offset=".2539"/>
<stop stop-color="#fefbf1" offset=".2617"/>
<stop stop-color="#fefbf0" offset=".2695"/>
<stop stop-color="#fefaef" offset=".2773"/>
<stop stop-color="#fefaef" offset=".2852"/>
<stop stop-color="#fefaee" offset=".293"/>
<stop stop-color="#fefaed" offset=".3125"/>
<stop stop-color="#fefaed" offset=".332"/>
<stop stop-color="#fefaec" offset=".3398"/>
<stop stop-color="#fef9ec" offset=".3477"/>
<stop stop-color="#fef9eb" offset=".3555"/>
<stop stop-color="#fef9ea" offset=".375"/>
<stop stop-color="#fef9e9" offset=".3945"/>
<stop stop-color="#fef9e8" offset=".4102"/>
<stop stop-color="#fef8e7" offset=".4258"/>
<stop stop-color="#fef8e6" offset=".4414"/>
<stop stop-color="#fef7e5" offset=".4727"/>
<stop stop-color="#fef7e4" offset=".4883"/>
<stop stop-color="#fef7e3" offset=".5039"/>
<stop stop-color="#fef7e3" offset=".5156"/>
<stop stop-color="#fef6e2" offset=".5273"/>
<stop stop-color="#fef6e1" offset=".5391"/>
<stop stop-color="#fef6e1" offset=".5508"/>
<stop stop-color="#fef6e0" offset=".5625"/>
<stop stop-color="#fef6df" offset=".5898"/>
<stop stop-color="#fef5de" offset=".6016"/>
<stop stop-color="#fef5dd" offset=".6133"/>
<stop stop-color="#fef5dd" offset=".625"/>
<stop stop-color="#fef5dc" offset=".6367"/>
<stop stop-color="#fef4db" offset=".6562"/>
<stop stop-color="#fef4da" offset=".6758"/>
<stop stop-color="#fef4da" offset=".6836"/>
<stop stop-color="#fef4d9" offset=".6914"/>
<stop stop-color="#fef4d8" offset=".707"/>
<stop stop-color="#fef4d8" offset=".7227"/>
<stop stop-color="#fef3d7" offset=".7383"/>
<stop stop-color="#fef3d6" offset=".7539"/>
<stop stop-color="#fef3d5" offset=".7656"/>
<stop stop-color="#fef3d5" offset=".793"/>
<stop stop-color="#fef3d4" offset=".8047"/>
<stop stop-color="#fef2d3" offset=".8164"/>
<stop stop-color="#fef2d2" offset=".8242"/>
<stop stop-color="#fef2d2" offset=".832"/>
<stop stop-color="#fef2d1" offset=".8398"/>
<stop stop-color="#fef2d1" offset=".8477"/>
<stop stop-color="#fef2d0" offset=".8633"/>
<stop stop-color="#fef2d0" offset=".8789"/>
<stop stop-color="#fef1cf" offset=".8906"/>
<stop stop-color="#fef1ce" offset=".9023"/>
<stop stop-color="#fef1ce" offset=".9141"/>
<stop stop-color="#fef1cd" offset=".9336"/>
<stop stop-color="#fef0cc" offset=".9492"/>
<stop stop-color="#fef0cc" offset=".9609"/>
<stop stop-color="#fef0cb" offset=".9688"/>
<stop stop-color="#feefca" offset="1"/>
</radialGradient>
<clipPath id="f">
<path d="m54 84h81v40h-81z"/>
</clipPath>
<clipPath id="e">
<path d="m134.1 103.4c0 9.941-18.23 19.83-39.08 19.83-20.85 0-40.59-9.559-40.59-19.5s18.82-19.33 39.67-19.33 40 9.059 40 19z"/>
</clipPath>
<clipPath id="o">
<path d="m134.1 103.4c0 9.941-18.23 19.83-39.08 19.83-20.85 0-40.59-9.559-40.59-19.5s18.82-19.33 39.67-19.33 40 9.059 40 19"/>
</clipPath>
<radialGradient id="a" cx="0" cy="0" r="31.33" gradientTransform="translate(94.26 103.8)" gradientUnits="userSpaceOnUse">
<stop stop-color="#fffefe" offset="0"/>
<stop stop-color="#fffefd" offset=".01562"/>
<stop stop-color="#fefefd" offset=".02734"/>
<stop stop-color="#fefefc" offset=".03906"/>
<stop stop-color="#fefdfb" offset=".05078"/>
<stop stop-color="#fefdfb" offset=".0625"/>
<stop stop-color="#fefdfa" offset=".07422"/>
<stop stop-color="#fefdf9" offset=".08594"/>
<stop stop-color="#fefdf8" offset=".1133"/>
<stop stop-color="#fefcf7" offset=".125"/>
<stop stop-color="#fefcf7" offset=".1367"/>
<stop stop-color="#fefcf6" offset=".1484"/>
<stop stop-color="#fefcf5" offset=".1719"/>
<stop stop-color="#fefcf5" offset=".1836"/>
<stop stop-color="#fefbf4" offset=".1953"/>
<stop stop-color="#fefbf3" offset=".207"/>
<stop stop-color="#fefbf2" offset=".2188"/>
<stop stop-color="#fefbf1" offset=".2305"/>
<stop stop-color="#fefbf1" offset=".2539"/>
<stop stop-color="#fefbf1" offset=".2617"/>
<stop stop-color="#fefbf0" offset=".2695"/>
<stop stop-color="#fefaef" offset=".2773"/>
<stop stop-color="#fefaef" offset=".2852"/>
<stop stop-color="#fefaee" offset=".293"/>
<stop stop-color="#fefaed" offset=".3125"/>
<stop stop-color="#fefaed" offset=".332"/>
<stop stop-color="#fefaec" offset=".3398"/>
<stop stop-color="#fef9ec" offset=".3477"/>
<stop stop-color="#fef9eb" offset=".3555"/>
<stop stop-color="#fef9ea" offset=".375"/>
<stop stop-color="#fef9e9" offset=".3945"/>
<stop stop-color="#fef9e8" offset=".4102"/>
<stop stop-color="#fef8e7" offset=".4258"/>
<stop stop-color="#fef8e6" offset=".4414"/>
<stop stop-color="#fef7e5" offset=".4727"/>
<stop stop-color="#fef7e4" offset=".4883"/>
<stop stop-color="#fef7e3" offset=".5039"/>
<stop stop-color="#fef7e3" offset=".5156"/>
<stop stop-color="#fef6e2" offset=".5273"/>
<stop stop-color="#fef6e1" offset=".5391"/>
<stop stop-color="#fef6e1" offset=".5508"/>
<stop stop-color="#fef6e0" offset=".5625"/>
<stop stop-color="#fef6df" offset=".5898"/>
<stop stop-color="#fef5de" offset=".6016"/>
<stop stop-color="#fef5dd" offset=".6133"/>
<stop stop-color="#fef5dd" offset=".625"/>
<stop stop-color="#fef5dc" offset=".6367"/>
<stop stop-color="#fef4db" offset=".6562"/>
<stop stop-color="#fef4da" offset=".6758"/>
<stop stop-color="#fef4da" offset=".6836"/>
<stop stop-color="#fef4d9" offset=".6914"/>
<stop stop-color="#fef4d8" offset=".707"/>
<stop stop-color="#fef4d8" offset=".7227"/>
<stop stop-color="#fef3d7" offset=".7383"/>
<stop stop-color="#fef3d6" offset=".7539"/>
<stop stop-color="#fef3d5" offset=".7656"/>
<stop stop-color="#fef3d5" offset=".793"/>
<stop stop-color="#fef3d4" offset=".8047"/>
<stop stop-color="#fef2d3" offset=".8164"/>
<stop stop-color="#fef2d2" offset=".8242"/>
<stop stop-color="#fef2d2" offset=".832"/>
<stop stop-color="#fef2d1" offset=".8398"/>
<stop stop-color="#fef2d1" offset=".8477"/>
<stop stop-color="#fef2d0" offset=".8633"/>
<stop stop-color="#fef2d0" offset=".8789"/>
<stop stop-color="#fef1cf" offset=".8906"/>
<stop stop-color="#fef1ce" offset=".9023"/>
<stop stop-color="#fef1ce" offset=".9141"/>
<stop stop-color="#fef1cd" offset=".9336"/>
<stop stop-color="#fef0cc" offset=".9492"/>
<stop stop-color="#fef0cc" offset=".9609"/>
<stop stop-color="#fef0cb" offset=".9688"/>
<stop stop-color="#feefca" offset="1"/>
</radialGradient>
<clipPath id="n">
<path d="m202 216h4v5.32h-4z"/>
</clipPath>
<clipPath id="m">
<path d="m325 197h3.172v6h-3.172z"/>
</clipPath>
</defs>
<g clip-path="url(#p)">
<g clip-path="url(#l)">
<g clip-path="url(#k)">
<path d="m50.91 156.4v34.27h79.87v-34.27z" fill="url(#d)"/>
</g>
</g>
</g>
<g clip-path="url(#j)">
<g clip-path="url(#i)">
<g clip-path="url(#h)">
<path d="m171.5 64.02v80h139.9v-80z" fill="url(#c)"/>
</g>
</g>
</g>
<g clip-path="url(#g)">
<path d="m196.8 173.4v8.75h126.1v-8.75z" fill="url(#b)"/>
</g>
<g clip-path="url(#f)">
<g clip-path="url(#e)">
<g clip-path="url(#o)">
<path d="m54.42 84.36v38.83h79.67v-38.83z" fill="url(#a)"/>
</g>
</g>
</g>
<path d="m0.4062 116.9v-0.9805h4.887v0.9805h-4.887" fill="#231f1f"/>
<path d="m1.688 114.9v-0.8867h0.4922v-0.01562c-0.4141-0.293-0.5742-0.6953-0.5742-1.184 0-0.8555 0.6016-1.227 1.414-1.227h2.273v0.9375h-1.926c-0.4414 0-1.035 0.007812-1.035 0.6133 0 0.6758 0.7344 0.8242 1.199 0.8242h1.762v0.9375h-3.605" fill="#231f1f"/>
<path d="m2.375 110.4v0.6953h-0.6875v-0.6953h-0.7188l-0.3047-0.9375h1.023v-0.832h0.6875v0.832h1.68c0.3086 0 0.5938-0.08203 0.5938-0.4414 0-0.168-0.03125-0.3281-0.09766-0.4258l0.7422-0.02734c0.05859 0.1953 0.08594 0.4141 0.08594 0.6914 0 0.7383-0.4531 1.141-1.168 1.141h-1.836" fill="#231f1f"/>
<path d="m4.691 106.7c0-0.2891-0.125-0.5117-0.3203-0.6602-0.2031-0.1523-0.4648-0.1953-0.7422-0.1953v0.4062c0 0.418 0.07031 1.043 0.6211 1.043 0.3086 0 0.4414-0.2578 0.4414-0.5938zm-2.816 1.098c-0.168-0.3633-0.2695-0.8555-0.2695-1.254 0-1.098 0.4531-1.555 1.52-1.555h0.4609c0.3633 0 0.6367-0.007813 0.9023-0.01172 0.2734-0.007812 0.5273-0.02344 0.8047-0.04297v0.8242c-0.1875 0.03516-0.4258 0.03516-0.5352 0.04297v0.01562c0.3984 0.2148 0.6211 0.6836 0.6211 1.113 0 0.6367-0.3867 1.262-1.07 1.262-0.5391 0-0.8555-0.2617-1.031-0.6172-0.1758-0.3594-0.2109-0.8203-0.2109-1.215v-0.5156c-0.5781 0-0.7773 0.2578-0.7773 0.8125 0 0.3984 0.1562 0.7969 0.3945 1.113l-0.8086 0.02734" fill="#231f1f"/>
<path d="m2.465 101.7c-0.07812 0.168-0.1328 0.3516-0.1328 0.6367 0 0.582 0.4609 0.9531 1.141 0.9531 0.668 0 1.176-0.3164 1.176-0.9727 0-0.2656-0.09766-0.5625-0.168-0.7227l0.7812-0.04297c0.08203 0.2734 0.1172 0.5547 0.1172 0.9414 0 1.184-0.8047 1.777-1.906 1.777-1.043 0-1.867-0.6172-1.867-1.742 0-0.3789 0.03906-0.6523 0.1172-0.9102l0.7422 0.08203" fill="#231f1f"/>
<path d="m2.375 100.6v0.6914h-0.6875v-0.6914h-0.7188l-0.3047-0.9414h1.023v-0.832h0.6875v0.832h1.68c0.3086 0 0.5938-0.08203 0.5938-0.4414 0-0.168-0.03125-0.3281-0.09766-0.4258l0.7422-0.02734c0.05859 0.1953 0.08594 0.4141 0.08594 0.6914 0 0.7344-0.4531 1.145-1.168 1.145h-1.836" fill="#231f1f"/>
<path d="m2.668 95.3v-0.3438c0-0.4883-0.1602-0.9297-0.7266-0.9297-0.5703 0-0.7656 0.4258-0.7656 0.9297v0.3438zm-2.262 0.9805v-1.238c0-1.066 0.3086-2.039 1.477-2.039 1.145 0 1.555 0.8359 1.555 1.883v0.4141h1.855v0.9805h-4.887" fill="#231f1f"/>
<path d="m1.176 91.41v1.402h-0.7695v-3.781h0.7695v1.402h4.117v0.9766h-4.117" fill="#231f1f"/>
<path d="m0.4062 88.41v-0.9805h1.977v-1.961h-1.977v-0.9805h4.887v0.9805h-2.141v1.961h2.141v0.9805h-4.887" fill="#231f1f"/>
<path d="m0 79.7c0.9609 0.6016 1.844 1.016 3.137 1.016 1.199 0 2.188-0.4141 3.137-1.016v0.8906c-0.9492 0.6992-1.938 1.117-3.137 1.117-1.293 0-2.176-0.418-3.137-1.117v-0.8906" fill="#231f1f"/>
<path d="m3.48 78.22c0.5117 0 1.168-0.2031 1.168-0.8281 0-0.6172-0.6719-0.7891-1.168-0.7891-0.4844 0-1.148 0.168-1.148 0.7773 0 0.6016 0.6445 0.8398 1.148 0.8398zm-1.793 0.9453v-0.8984h0.5117v-0.01172c-0.3516-0.2109-0.5938-0.5703-0.5938-1.121 0-1.109 0.8828-1.516 1.875-1.516 0.9883 0 1.898 0.4062 1.898 1.535 0 0.3984-0.09766 0.7305-0.4961 1.059v0.01562h1.883v0.9375h-5.078" fill="#231f1f"/>
<path d="m3.453 72.52c-0.6172 0-1.121 0.2383-1.121 0.7852 0 0.6367 0.5898 0.8398 1.141 0.8398 0.4922 0 1.094-0.2578 1.094-0.7969 0-0.5898-0.5117-0.8281-1.113-0.8281zm-1.766-0.9375h3.258c0.9805 0 1.906 0.3906 1.906 1.902 0 0.375-0.05859 0.8008-0.2461 1.25l-0.8008-0.07812c0.1562-0.2891 0.3164-0.7578 0.3164-1.051 0-1.035-0.7773-1.086-1.402-1.086v0.01562c0.3086 0.1719 0.5742 0.5938 0.5742 1.117 0 1.066-0.8516 1.473-1.82 1.473-0.8672 0-1.867-0.4492-1.867-1.527 0-0.4766 0.1602-0.8477 0.5742-1.105v-0.01562h-0.4922v-0.8945" fill="#231f1f"/>
<path d="m0.3242 69.24v-0.7266l5.055 1.711v0.7266l-5.055-1.711" fill="#231f1f"/>
<path d="m1.688 67.9v-0.875h0.5039v-0.01172c-0.4414-0.2969-0.5859-0.7227-0.5859-1.074 0-0.5039 0.1875-0.8594 0.6367-1.062-0.4336-0.2188-0.6367-0.6875-0.6367-1.129 0-0.8906 0.6094-1.141 1.414-1.141h2.273v0.9375h-2.148c-0.3359 0-0.8125 0-0.8125 0.5391 0 0.625 0.7422 0.7031 1.211 0.7031h1.75v0.9375h-2.148c-0.3359 0-0.8125 0-0.8125 0.5391 0 0.625 0.7422 0.6992 1.211 0.6992h1.75v0.9375h-3.605" fill="#231f1f"/>
<path d="m0.4062 61.58v-0.9805h4.117v-1.898h0.7695v2.879h-4.887" fill="#231f1f"/>
<path d="m6.273 58.6c-0.9492-0.5938-1.938-1.016-3.137-1.016-1.293 0-2.176 0.4219-3.137 1.016v-0.8828c0.9609-0.6953 1.844-1.129 3.137-1.129 1.199 0 2.188 0.4336 3.137 1.129v0.8828" fill="#231f1f"/>
<path d="m148.9 215.6c-0.1953-0.2734-0.5547-0.4609-0.9688-0.4609-0.4453 0-0.9648 0.2461-0.9648 0.8047 0 0.5391 0.4531 0.6875 1.016 0.8711 0.6641 0.207 1.457 0.4609 1.457 1.449 0 1.027-0.8359 1.504-1.715 1.504-0.625 0-1.254-0.2461-1.633-0.7227l0.5391-0.4531c0.2305 0.3438 0.6523 0.582 1.105 0.582 0.4648 0 0.9961-0.2617 0.9961-0.8477 0-0.6016-0.5469-0.7656-1.176-0.9609-0.6328-0.1953-1.289-0.4844-1.289-1.395 0-0.9883 0.8828-1.414 1.699-1.414 0.5742 0 1.117 0.2227 1.422 0.5664l-0.4883 0.4766" fill="#231f1f"/>
<path d="m152.8 217.7c-0.01562-0.5273-0.3242-0.9414-0.9336-0.9414-0.5664 0-1 0.4219-1.043 0.9414zm0.6562 0.4883h-2.633c0.01953 0.5664 0.4961 1.008 1.078 1.008 0.4492 0 0.7773-0.2227 0.9688-0.5039l0.4609 0.3711c-0.3594 0.4648-0.8398 0.6797-1.43 0.6797-1.008 0-1.75-0.6992-1.75-1.746 0-1.035 0.7422-1.758 1.715-1.758 0.9805 0 1.598 0.668 1.598 1.727 0 0.06641 0 0.1445-0.007812 0.2227" fill="#231f1f"/>
<path d="m154.2 216.3h0.625c0.01172 0.168 0.02734 0.418 0.02734 0.5586h0.01953c0.1836-0.3828 0.5703-0.6523 1.016-0.6523 0.09375 0 0.1836 0.007813 0.2617 0.03125l-0.03125 0.6094c-0.08203-0.02344-0.1953-0.03516-0.3008-0.03516-0.6289 0-0.9297 0.5117-0.9297 1.062v1.746h-0.6602v-2.605c0-0.1758-0.003906-0.4961-0.02734-0.7148" fill="#231f1f"/>
<path d="m159.1 219.6c-0.01562-0.168-0.02734-0.4062-0.02734-0.5469h-0.01562c-0.168 0.3477-0.6016 0.6367-1.086 0.6367-0.8516 0-1.238-0.6094-1.238-1.352v-2.059h0.6562v1.836c0 0.543 0.1484 1.023 0.7578 1.023 0.5273 0 0.8906-0.4375 0.8906-1.094v-1.766h0.6562v2.605c0 0.1758 0.007812 0.4961 0.03125 0.7148h-0.625" fill="#231f1f"/>
<path d="m162.4 216.2c0.4414 0 0.8242 0.1992 1.027 0.668 0.2266-0.4258 0.6602-0.668 1.129-0.668 0.8555 0 1.238 0.6133 1.238 1.355v2.059h-0.6562v-1.844c0-0.5391-0.1602-1.016-0.7344-1.016-0.6055 0-0.8438 0.5469-0.8438 1.066v1.793h-0.6562v-1.977c0-0.5195-0.1758-0.8828-0.6992-0.8828-0.4844 0-0.8477 0.4375-0.8477 1.094v1.766h-0.6602v-2.605c0-0.1758-0.007812-0.4961-0.02734-0.7148h0.625c0.01172 0.168 0.02734 0.4062 0.02734 0.5469h0.01953c0.168-0.3516 0.5547-0.6406 1.059-0.6406" fill="#231f1f"/>
<path d="m170.9 217.2c-0.1406-0.2188-0.4492-0.3789-0.7617-0.3789-0.6875 0-1.086 0.5625-1.086 1.199 0 0.6289 0.3984 1.199 1.09 1.199 0.3359 0 0.625-0.1406 0.8008-0.3672l0.4414 0.4023c-0.2812 0.3203-0.707 0.5156-1.242 0.5156-1.02 0-1.785-0.6914-1.785-1.75 0-1.043 0.7578-1.754 1.773-1.754 0.4688 0 0.9727 0.1914 1.246 0.5469l-0.4766 0.3867" fill="#231f1f"/>
<path d="m173.9 218.1c-0.6523 0-1.48 0.07031-1.48 0.6289 0 0.3906 0.3516 0.5195 0.6797 0.5195 0.6172 0 0.9609-0.4141 0.9609-0.9766v-0.1719zm0.1602-0.5703c0-0.4883-0.3281-0.7266-0.8203-0.7266-0.3711 0-0.7188 0.1602-0.9453 0.3828l-0.3477-0.418c0.3203-0.3086 0.8164-0.5 1.355-0.5 0.9531 0 1.387 0.5703 1.387 1.305v1.449c0 0.2266 0.01562 0.4961 0.05078 0.6602h-0.5938c-0.03516-0.1484-0.05859-0.3242-0.05859-0.4766h-0.01953c-0.2383 0.3555-0.6172 0.5586-1.113 0.5586-0.5273 0-1.207-0.2578-1.207-1.023 0-1 1.191-1.117 2.312-1.117v-0.09375" fill="#231f1f"/>
<path d="m176.3 219.6h-0.6602v-5.297h0.6602v5.297" fill="#231f1f"/>
<path d="m179.7 217.2c-0.1406-0.2188-0.4492-0.3789-0.7656-0.3789-0.6836 0-1.086 0.5625-1.086 1.199 0 0.6289 0.4023 1.199 1.094 1.199 0.3359 0 0.625-0.1406 0.7969-0.3672l0.4414 0.4023c-0.2773 0.3203-0.707 0.5156-1.238 0.5156-1.023 0-1.785-0.6914-1.785-1.75 0-1.043 0.7539-1.754 1.77-1.754 0.4727 0 0.9766 0.1914 1.25 0.5469l-0.4766 0.3867" fill="#231f1f"/>
<path d="m181.5 219.6h-0.6602v-3.32h0.6602zm-0.3281-4.098c-0.2383 0-0.4336-0.1914-0.4336-0.4219 0-0.2383 0.1953-0.4258 0.4336-0.4258s0.4414 0.1836 0.4414 0.4258c0 0.2383-0.2031 0.4219-0.4414 0.4219" fill="#231f1f"/>
<path d="m184.9 219.6c-0.01562-0.168-0.02734-0.4062-0.02734-0.5469h-0.01562c-0.168 0.3477-0.6016 0.6367-1.086 0.6367-0.8555 0-1.238-0.6094-1.238-1.352v-2.059h0.6562v1.836c0 0.543 0.1484 1.023 0.7578 1.023 0.5234 0 0.8906-0.4375 0.8906-1.094v-1.766h0.6562v2.605c0 0.1758 0.007813 0.4961 0.02734 0.7148h-0.6211" fill="#231f1f"/>
<path d="m188.3 216.2c0.4414 0 0.8242 0.1992 1.027 0.668 0.2266-0.4258 0.6602-0.668 1.129-0.668 0.8555 0 1.238 0.6133 1.238 1.355v2.059h-0.6562v-1.844c0-0.5391-0.1641-1.016-0.7383-1.016-0.6016 0-0.8398 0.5469-0.8398 1.066v1.793h-0.6562v-1.977c0-0.5195-0.1758-0.8828-0.7031-0.8828-0.4805 0-0.8477 0.4375-0.8477 1.094v1.766h-0.6562v-2.605c0-0.1758-0.007813-0.4961-0.02734-0.7148h0.6211c0.01562 0.168 0.02734 0.4062 0.02734 0.5469h0.02344c0.168-0.3516 0.5508-0.6406 1.059-0.6406" fill="#231f1f"/>
<path d="m195.5 220.4-0.4766 0.3086c-0.6172-0.8242-1.023-1.945-1.023-3.117 0-1.168 0.4062-2.289 1.023-3.113l0.4766 0.3047c-0.5469 0.7656-0.9023 1.789-0.9023 2.809 0 1.023 0.3555 2.047 0.9023 2.809" fill="#231f1f"/>
<path d="m198.2 216.2c0.4414 0 0.8242 0.1992 1.027 0.668 0.2266-0.4258 0.6602-0.668 1.129-0.668 0.8555 0 1.238 0.6133 1.238 1.355v2.059h-0.6562v-1.844c0-0.5391-0.1602-1.016-0.7344-1.016-0.6055 0-0.8438 0.5469-0.8438 1.066v1.793h-0.6562v-1.977c0-0.5195-0.1758-0.8828-0.6992-0.8828-0.4844 0-0.8477 0.4375-0.8477 1.094v1.766h-0.6602v-2.605c0-0.1758-0.007812-0.4961-0.02734-0.7148h0.6211c0.01563 0.168 0.03125 0.4062 0.03125 0.5469h0.01953c0.168-0.3516 0.5547-0.6406 1.059-0.6406" fill="#231f1f"/>
<g clip-path="url(#n)">
<path d="m204.2 219.1c0.6797 0 1.129-0.5117 1.129-1.168 0-0.6328-0.4531-1.172-1.129-1.172-0.6914 0-1.098 0.5352-1.098 1.172 0 0.6094 0.4062 1.168 1.098 1.168zm-1.301 1.094c0.2852 0.3203 0.7578 0.5391 1.211 0.5391 0.875 0 1.172-0.5391 1.172-1.227v-0.4258h-0.01562c-0.2461 0.3711-0.6992 0.5742-1.168 0.5742-1.016 0-1.676-0.7578-1.676-1.707 0-0.9531 0.6523-1.734 1.668-1.734 0.4766 0 0.9453 0.2109 1.195 0.625h0.01562v-0.5312h0.6367v3.152c0 0.9648-0.4531 1.848-1.836 1.848-0.5742 0-1.211-0.2227-1.625-0.6016l0.4219-0.5117" fill="#231f1f"/>
</g>
<path d="m206.9 219.9-0.5-0.168 2.152-5.262 0.4961 0.1836-2.148 5.246" fill="#231f1f"/>
<path d="m211.2 219.2c0.6719 0 1.121-0.5625 1.121-1.199s-0.4492-1.207-1.121-1.207c-0.7227 0-1.098 0.5781-1.098 1.199 0 0.625 0.375 1.207 1.098 1.207zm-0.1133 0.5508c-1.02 0-1.672-0.7852-1.672-1.758 0-0.9805 0.6719-1.746 1.668-1.746 0.5391 0 0.9492 0.2695 1.184 0.5898h0.01172v-2.473h0.6602v5.297h-0.6367v-0.5273h-0.01562c-0.2539 0.4023-0.7266 0.6172-1.199 0.6172" fill="#231f1f"/>
<path d="m214.7 219h2.211v0.6172h-2.906v-4.961h0.6953v4.344" fill="#231f1f"/>
<path d="m217.4 214.8 0.4766-0.3047c0.6172 0.8242 1.023 1.945 1.023 3.113 0 1.172-0.4062 2.293-1.023 3.117l-0.4766-0.3086c0.5469-0.7617 0.9023-1.785 0.9023-2.809 0-1.02-0.3555-2.043-0.9023-2.809" fill="#231f1f"/>
<path d="m59.21 170.7h0.6953v2.074h2.508v-2.074h0.6992v4.961h-0.6992v-2.27h-2.508v2.27h-0.6953v-4.961" fill="#231f1f"/>
<path d="m65.47 174.9h0.01562l0.918-2.605h0.6992l-1.609 4.102c-0.2188 0.5547-0.5 0.8984-1.148 0.8984-0.1406 0-0.2891-0.01562-0.4336-0.04688l0.0625-0.582c0.1055 0.03516 0.2227 0.05469 0.3281 0.05469 0.3438 0 0.4766-0.1953 0.6172-0.5508l0.2109-0.5547-1.422-3.32h0.7344l1.027 2.605" fill="#231f1f"/>
<path d="m69.41 172.8c-0.6719 0-1.117 0.5703-1.117 1.207s0.4453 1.195 1.117 1.195c0.7227 0 1.109-0.5781 1.109-1.203s-0.3867-1.199-1.109-1.199zm-1.074 4.547h-0.6602v-5h0.6445v0.5156h0.01953c0.2188-0.3477 0.6523-0.6055 1.199-0.6055 0.9883 0 1.66 0.7617 1.66 1.742 0 0.9727-0.6523 1.758-1.676 1.758-0.4688 0-0.9219-0.2188-1.168-0.5898h-0.01953v2.18" fill="#231f1f"/>
<path d="m73.61 172.8c-0.707 0-1.109 0.5703-1.109 1.199 0 0.6328 0.4023 1.203 1.109 1.203 0.7148 0 1.105-0.5703 1.105-1.203 0-0.6289-0.3906-1.199-1.105-1.199zm0 2.957c-1.016 0-1.785-0.7344-1.785-1.758 0-1.023 0.7695-1.742 1.785-1.742s1.793 0.7188 1.793 1.742c0 1.023-0.7773 1.758-1.793 1.758" fill="#231f1f"/>
<path d="m77.98 172.8c-0.6719 0-1.121 0.5703-1.121 1.207s0.4492 1.195 1.121 1.195c0.7227 0 1.105-0.5781 1.105-1.203s-0.3828-1.199-1.105-1.199zm-1.078 4.547h-0.6602v-5h0.6445v0.5156h0.02344c0.2148-0.3477 0.6484-0.6055 1.195-0.6055 0.9883 0 1.66 0.7617 1.66 1.742 0 0.9727-0.6523 1.758-1.672 1.758-0.4727 0-0.9258-0.2188-1.172-0.5898h-0.01953v2.18" fill="#231f1f"/>
<path d="m82.51 174c-0.6523 0-1.477 0.07031-1.477 0.6328 0 0.3906 0.3516 0.5195 0.6797 0.5195 0.6172 0 0.957-0.4141 0.957-0.9766v-0.1758zm0.1602-0.5664c0-0.4883-0.3281-0.7266-0.8164-0.7266-0.3711 0-0.7227 0.1602-0.9492 0.3867l-0.3477-0.4219c0.3203-0.3086 0.8203-0.4961 1.359-0.4961 0.9531 0 1.387 0.5664 1.387 1.301v1.449c0 0.2266 0.01172 0.5 0.04687 0.6602h-0.5938c-0.03516-0.1484-0.05469-0.3242-0.05469-0.4766h-0.02344c-0.2383 0.3555-0.6172 0.5586-1.113 0.5586-0.5234 0-1.203-0.2578-1.203-1.02 0-1.004 1.188-1.121 2.309-1.121v-0.09375" fill="#231f1f"/>
<path d="m84.3 172.3h0.6211c0.01562 0.168 0.02734 0.4219 0.02734 0.5586h0.02344c0.1797-0.3828 0.5664-0.6484 1.016-0.6484 0.08984 0 0.1797 0.003907 0.2578 0.02734l-0.02734 0.6094c-0.08594-0.02344-0.1953-0.03516-0.3008-0.03516-0.6328 0-0.9336 0.5117-0.9336 1.062v1.746h-0.6562v-2.605c0-0.1758-0.007812-0.4961-0.02734-0.7148" fill="#231f1f"/>
<path d="m88.61 174c-0.6523 0-1.477 0.07031-1.477 0.6328 0 0.3906 0.3477 0.5195 0.6797 0.5195 0.6133 0 0.957-0.4141 0.957-0.9766v-0.1758zm0.1602-0.5664c0-0.4883-0.3281-0.7266-0.8164-0.7266-0.375 0-0.7227 0.1602-0.9492 0.3867l-0.3477-0.4219c0.3203-0.3086 0.8164-0.4961 1.359-0.4961 0.9492 0 1.387 0.5664 1.387 1.301v1.449c0 0.2266 0.01172 0.5 0.04688 0.6602h-0.5938c-0.03516-0.1484-0.05859-0.3242-0.05859-0.4766h-0.01953c-0.2383 0.3555-0.6172 0.5586-1.113 0.5586-0.5234 0-1.203-0.2578-1.203-1.02 0-1.004 1.188-1.121 2.309-1.121v-0.09375" fill="#231f1f"/>
<path d="m91.98 172.8h-0.8828v1.73c0 0.3984 0.1406 0.5586 0.4688 0.5586 0.1172 0 0.2734-0.02734 0.3867-0.08203l0.01953 0.5391c-0.1523 0.05469-0.3594 0.08984-0.5625 0.08984-0.6211 0-0.9648-0.3516-0.9648-1.035v-1.801h-0.6367v-0.5391h0.6367v-0.9531h0.6523v0.9531h0.8828v0.5391" fill="#231f1f"/>
<path d="m93.28 172.8c0.1523-0.3281 0.5742-0.5938 1.051-0.5938 0.8555 0 1.238 0.6055 1.238 1.352v2.059h-0.6562v-1.836c0-0.5391-0.1406-1.016-0.75-1.016-0.5195 0-0.8945 0.4336-0.8945 1.094v1.758h-0.6602v-5.297h0.6602v2.48h0.01172" fill="#231f1f"/>
<path d="m97.87 174.9h0.01172l0.918-2.605h0.7031l-1.613 4.102c-0.2188 0.5547-0.4961 0.8984-1.148 0.8984-0.1406 0-0.2852-0.01562-0.4336-0.04688l0.0625-0.582c0.1055 0.03516 0.2227 0.05469 0.3281 0.05469 0.3438 0 0.4766-0.1953 0.6172-0.5508l0.2109-0.5547-1.422-3.32h0.7344l1.031 2.605" fill="#231f1f"/>
<path d="m100 172.3h0.625c0.01172 0.168 0.02734 0.4219 0.02734 0.5586h0.01953c0.1836-0.3828 0.5664-0.6484 1.016-0.6484 0.08984 0 0.1836 0.003907 0.2578 0.02734l-0.02734 0.6094c-0.08203-0.02344-0.1953-0.03516-0.3008-0.03516-0.6289 0-0.9297 0.5117-0.9297 1.062v1.746h-0.6602v-2.605c0-0.1758-0.007812-0.4961-0.02734-0.7148" fill="#231f1f"/>
<path d="m104 172.8c-0.707 0-1.105 0.5703-1.105 1.199 0 0.6328 0.3984 1.203 1.105 1.203 0.7148 0 1.109-0.5703 1.109-1.203 0-0.6289-0.3945-1.199-1.109-1.199zm0 2.957c-1.016 0-1.785-0.7344-1.785-1.758 0-1.023 0.7695-1.742 1.785-1.742s1.793 0.7188 1.793 1.742c0 1.023-0.7773 1.758-1.793 1.758" fill="#231f1f"/>
<path d="m107.3 175.6h-0.6562v-3.32h0.6562zm-0.3281-4.098c-0.2383 0-0.4336-0.1875-0.4336-0.4219 0-0.2383 0.1953-0.4258 0.4336-0.4258 0.2383 0 0.4414 0.1797 0.4414 0.4258 0 0.2383-0.2031 0.4219-0.4414 0.4219" fill="#231f1f"/>
<path d="m109.9 175.2c0.6719 0 1.121-0.5586 1.121-1.195s-0.4492-1.207-1.121-1.207c-0.7227 0-1.098 0.5742-1.098 1.199s0.375 1.203 1.098 1.203zm-0.1133 0.5547c-1.023 0-1.672-0.7852-1.672-1.758 0-0.9805 0.6719-1.742 1.664-1.742 0.5391 0 0.9531 0.2656 1.188 0.5859h0.01172v-2.473h0.6602v5.297h-0.6406v-0.5273h-0.01172c-0.2539 0.3984-0.7305 0.6172-1.199 0.6172" fill="#231f1f"/>
<path d="m113.4 175.6h-0.6562v-3.32h0.6562zm-0.3281-4.098c-0.2383 0-0.4336-0.1875-0.4336-0.4219 0-0.2383 0.1953-0.4258 0.4336-0.4258 0.2383 0 0.4414 0.1797 0.4414 0.4258 0 0.2383-0.2031 0.4219-0.4414 0.4219" fill="#231f1f"/>
<path d="m116.3 173.1c-0.1445-0.2383-0.4336-0.4141-0.7695-0.4141-0.3008 0-0.6172 0.1211-0.6172 0.4336 0 0.2812 0.2539 0.3867 0.7578 0.5 0.6289 0.1406 1.113 0.3984 1.113 0.9805 0 0.7852-0.6523 1.07-1.324 1.07-0.5039 0-1.023-0.1953-1.336-0.5938l0.4688-0.3984c0.1758 0.2578 0.5117 0.4609 0.8828 0.4609 0.3281 0 0.6562-0.1211 0.6562-0.4844 0-0.3086-0.3008-0.4219-0.8672-0.5547-0.4414-0.1055-0.9648-0.293-0.9648-0.9141 0-0.7148 0.6211-1.016 1.25-1.016 0.4727 0 0.9688 0.1875 1.207 0.543l-0.457 0.3867" fill="#231f1f"/>
<path d="m119.2 172.2c0.4414 0 0.8242 0.1953 1.027 0.6641 0.2266-0.4297 0.6602-0.6641 1.129-0.6641 0.8555 0 1.238 0.6055 1.238 1.352v2.059h-0.6562v-1.844c0-0.5391-0.1641-1.016-0.7344-1.016-0.6055 0-0.8438 0.5469-0.8438 1.066v1.793h-0.6562v-1.977c0-0.5156-0.1758-0.8828-0.6992-0.8828-0.4844 0-0.8516 0.4336-0.8516 1.094v1.766h-0.6562v-2.605c0-0.1758-0.007812-0.4961-0.02734-0.7148h0.6211c0.01562 0.168 0.03125 0.4062 0.03125 0.5469h0.01953c0.168-0.3516 0.5547-0.6367 1.059-0.6367" fill="#231f1f"/>
<path d="m80.59 97.34c-0.1953-0.2734-0.5547-0.4609-0.9648-0.4609-0.4492 0-0.9688 0.2422-0.9688 0.8047 0 0.5391 0.457 0.6836 1.016 0.8672 0.668 0.2109 1.457 0.4648 1.457 1.449 0 1.031-0.832 1.508-1.715 1.508-0.625 0-1.254-0.2461-1.633-0.7227l0.5391-0.4531c0.2305 0.3398 0.6523 0.5781 1.105 0.5781 0.4648 0 0.9961-0.2578 0.9961-0.8477 0-0.6016-0.5469-0.7617-1.176-0.957-0.6328-0.1953-1.289-0.4844-1.289-1.395 0-0.9883 0.8828-1.414 1.703-1.414 0.5742 0 1.113 0.2227 1.422 0.5664l-0.4922 0.4766" fill="#231f1f"/>
<path d="m84.43 99.43c-0.01562-0.5234-0.3242-0.9375-0.9297-0.9375-0.5703 0-1.004 0.4219-1.047 0.9375zm0.6602 0.4922h-2.637c0.02344 0.5664 0.5 1.008 1.078 1.008 0.4492 0 0.7812-0.2227 0.9688-0.5039l0.4609 0.3711c-0.3555 0.4609-0.8398 0.6797-1.43 0.6797-1.008 0-1.75-0.7031-1.75-1.746 0-1.035 0.7422-1.758 1.719-1.758 0.9766 0 1.594 0.668 1.594 1.723 0 0.07031 0 0.1484-0.003906 0.2266" fill="#231f1f"/>
<path d="m88.27 98.91c-0.1406-0.2188-0.4492-0.3789-0.7617-0.3789-0.6875 0-1.086 0.5625-1.086 1.199 0 0.6289 0.3984 1.195 1.09 1.195 0.3359 0 0.625-0.1406 0.8008-0.3633l0.4414 0.3984c-0.2812 0.3242-0.7109 0.5195-1.242 0.5195-1.023 0-1.785-0.6953-1.785-1.75 0-1.047 0.7578-1.754 1.773-1.754 0.4688 0 0.9727 0.1914 1.246 0.5469l-0.4766 0.3867" fill="#231f1f"/>
<path d="m90.9 98.52c-0.707 0-1.109 0.5703-1.109 1.199s0.4023 1.203 1.109 1.203c0.7109 0 1.105-0.5742 1.105-1.203s-0.3945-1.199-1.105-1.199zm0 2.957c-1.016 0-1.789-0.7383-1.789-1.758 0-1.023 0.7734-1.746 1.789-1.746s1.793 0.7227 1.793 1.746c0 1.02-0.7773 1.758-1.793 1.758" fill="#231f1f"/>
<path d="m94.13 98.07c0.01172 0.168 0.02734 0.4062 0.02734 0.543h0.01953c0.1602-0.3555 0.6016-0.6367 1.078-0.6367 0.8555 0 1.238 0.6094 1.238 1.352v2.062h-0.6562v-1.844c0-0.5391-0.1484-1.016-0.7578-1.016-0.5156 0-0.8867 0.4336-0.8867 1.094v1.766h-0.6602v-2.609c0-0.1719-0.007812-0.4961-0.02734-0.7109h0.625" fill="#231f1f"/>
<path d="m99.1 100.9c0.6719 0 1.121-0.5586 1.121-1.195 0-0.6367-0.4492-1.207-1.121-1.207-0.7227 0-1.102 0.5742-1.102 1.199 0 0.6211 0.3789 1.203 1.102 1.203zm-0.1133 0.5547c-1.02 0-1.672-0.7852-1.672-1.758 0-0.9805 0.6719-1.746 1.664-1.746 0.543 0 0.9531 0.2656 1.184 0.5898h0.01562v-2.473h0.6602v5.297h-0.6406v-0.5273h-0.01172c-0.2539 0.3984-0.7305 0.6172-1.199 0.6172" fill="#231f1f"/>
<path d="m103.8 99.8c-0.6523 0-1.477 0.07031-1.477 0.6328 0 0.3906 0.3477 0.5156 0.6758 0.5156 0.6172 0 0.9609-0.4141 0.9609-0.9727v-0.1758zm0.1602-0.5664c0-0.4922-0.3281-0.7266-0.8203-0.7266-0.3711 0-0.7188 0.1602-0.9453 0.3828l-0.3477-0.418c0.3203-0.3086 0.8164-0.5 1.355-0.5 0.9531 0 1.387 0.5664 1.387 1.305v1.449c0 0.2227 0.01562 0.4961 0.05078 0.6602h-0.5938c-0.03516-0.1484-0.05859-0.3242-0.05859-0.4766h-0.01953c-0.2383 0.3555-0.6172 0.5586-1.113 0.5586-0.5273 0-1.207-0.2578-1.207-1.023 0-1 1.191-1.121 2.312-1.121v-0.08984" fill="#231f1f"/>
<path d="m105.6 98.07h0.625c0.01172 0.168 0.02734 0.418 0.02734 0.5586h0.01953c0.1836-0.3867 0.5703-0.6523 1.016-0.6523 0.09375 0 0.1836 0.007813 0.2617 0.03125l-0.03125 0.6055c-0.08203-0.01953-0.1953-0.03516-0.2969-0.03516-0.6328 0-0.9336 0.5156-0.9336 1.066v1.746h-0.6562v-2.609c0-0.1719-0.007813-0.4961-0.03125-0.7109" fill="#231f1f"/>
<path d="m109.4 100.7h0.01172l0.918-2.605h0.7031l-1.613 4.102c-0.2148 0.5547-0.4961 0.8984-1.148 0.8984-0.1367 0-0.2852-0.01562-0.4336-0.05078l0.0625-0.5781c0.1055 0.03125 0.2266 0.05469 0.3281 0.05469 0.3438 0 0.4766-0.1953 0.6172-0.5547l0.2109-0.5508-1.422-3.32h0.7344l1.031 2.605" fill="#231f1f"/>
<path d="m62.68 107c0.1523-0.3281 0.5742-0.5938 1.051-0.5938 0.8555 0 1.238 0.6094 1.238 1.352v2.059h-0.6562v-1.836c0-0.5391-0.1406-1.016-0.75-1.016-0.5195 0-0.8984 0.4336-0.8984 1.094v1.758h-0.6562v-5.297h0.6562v2.48h0.01562" fill="#231f1f"/>
<path d="m67.28 109.1h0.01172l0.918-2.605h0.6992l-1.609 4.105c-0.2188 0.5508-0.4961 0.8945-1.148 0.8945-0.1406 0-0.2891-0.01172-0.4336-0.05078l0.0625-0.5781c0.1055 0.03516 0.2227 0.05469 0.3281 0.05469 0.3438 0 0.4766-0.1953 0.6172-0.5508l0.2109-0.5547-1.422-3.32h0.7344l1.031 2.605" fill="#231f1f"/>
<path d="m71.21 106.9c-0.6719 0-1.121 0.5664-1.121 1.203s0.4492 1.199 1.121 1.199c0.7188 0 1.105-0.582 1.105-1.207 0-0.6211-0.3867-1.195-1.105-1.195zm-1.078 4.543h-0.6602v-5h0.6445v0.5195h0.02344c0.2148-0.3516 0.6484-0.6094 1.195-0.6094 0.9883 0 1.66 0.7617 1.66 1.742 0 0.9727-0.6523 1.758-1.672 1.758-0.4727 0-0.9258-0.2148-1.172-0.5859h-0.01953v2.176" fill="#231f1f"/>
<path d="m76.27 107.8c-0.01563-0.5273-0.3242-0.9414-0.9336-0.9414-0.5664 0-1 0.4219-1.043 0.9414zm0.6562 0.4883h-2.633c0.01953 0.5664 0.4961 1.008 1.078 1.008 0.4492 0 0.7773-0.2227 0.9648-0.5039l0.4648 0.3711c-0.3594 0.4648-0.8398 0.6797-1.43 0.6797-1.008 0-1.75-0.6992-1.75-1.742 0-1.039 0.7422-1.758 1.715-1.758 0.9805 0 1.598 0.6641 1.598 1.723 0 0.07031 0 0.1445-0.007812 0.2227" fill="#231f1f"/>
<path d="m77.75 106.5h0.625c0.01172 0.168 0.02734 0.4219 0.02734 0.5586h0.01953c0.1836-0.3828 0.5664-0.6484 1.016-0.6484 0.08984 0 0.1836 0.007812 0.2617 0.02734l-0.03125 0.6094c-0.08203-0.02344-0.1953-0.03516-0.3008-0.03516-0.6289 0-0.9297 0.5117-0.9297 1.062v1.746h-0.6602v-2.605c0-0.1758-0.007812-0.4961-0.02734-0.7148" fill="#231f1f"/>
<path d="m81.98 106.9c-0.6758 0-1.121 0.5664-1.121 1.203s0.4453 1.199 1.121 1.199c0.7188 0 1.105-0.582 1.105-1.207 0-0.6211-0.3867-1.195-1.105-1.195zm-1.078 4.543h-0.6602v-5h0.6445v0.5195h0.01953c0.2188-0.3516 0.6523-0.6094 1.199-0.6094 0.9883 0 1.66 0.7617 1.66 1.742 0 0.9727-0.6523 1.758-1.676 1.758-0.4688 0-0.9219-0.2148-1.168-0.5859h-0.01953v2.176" fill="#231f1f"/>
<path d="m86.52 108.2c-0.6523 0-1.48 0.07031-1.48 0.6289 0 0.3945 0.3516 0.5195 0.6797 0.5195 0.6172 0 0.9609-0.4141 0.9609-0.9727v-0.1758zm0.1602-0.5664c0-0.4922-0.3281-0.7305-0.8203-0.7305-0.3711 0-0.7188 0.1602-0.9453 0.3828l-0.3477-0.418c0.3203-0.3086 0.8164-0.4961 1.355-0.4961 0.9531 0 1.387 0.5664 1.387 1.301v1.449c0 0.2266 0.01562 0.4961 0.05078 0.6602h-0.5938c-0.03516-0.1484-0.05859-0.3242-0.05859-0.4766h-0.01953c-0.2383 0.3555-0.6172 0.5586-1.113 0.5586-0.5273 0-1.207-0.2578-1.207-1.02 0-1.004 1.191-1.121 2.312-1.121v-0.08984" fill="#231f1f"/>
<path d="m88.31 106.5h0.625c0.01562 0.168 0.02734 0.4219 0.02734 0.5586h0.01953c0.1836-0.3828 0.5703-0.6484 1.016-0.6484 0.09375 0 0.1836 0.007812 0.2617 0.02734l-0.02734 0.6094c-0.08594-0.02344-0.1992-0.03516-0.3047-0.03516-0.6289 0-0.9297 0.5117-0.9297 1.062v1.746h-0.6562v-2.605c0-0.1758-0.007813-0.4961-0.03125-0.7148" fill="#231f1f"/>
<path d="m92.62 108.2c-0.6523 0-1.48 0.07031-1.48 0.6289 0 0.3945 0.3516 0.5195 0.6797 0.5195 0.6172 0 0.9609-0.4141 0.9609-0.9727v-0.1758zm0.1602-0.5664c0-0.4922-0.3281-0.7305-0.8203-0.7305-0.3711 0-0.7227 0.1602-0.9453 0.3828l-0.3516-0.418c0.3242-0.3086 0.8203-0.4961 1.359-0.4961 0.9531 0 1.387 0.5664 1.387 1.301v1.449c0 0.2266 0.01562 0.4961 0.05078 0.6602h-0.5977c-0.03125-0.1484-0.05469-0.3242-0.05469-0.4766h-0.01953c-0.2383 0.3555-0.6172 0.5586-1.113 0.5586-0.5273 0-1.207-0.2578-1.207-1.02 0-1.004 1.191-1.121 2.312-1.121v-0.08984" fill="#231f1f"/>
<path d="m95.99 107h-0.8828v1.73c0 0.3984 0.1406 0.5586 0.4727 0.5586 0.1172 0 0.2695-0.02734 0.3828-0.08203l0.02344 0.5391c-0.1562 0.05469-0.3594 0.08984-0.5625 0.08984-0.6211 0-0.9648-0.3477-0.9648-1.035v-1.801h-0.6367v-0.5391h0.6367v-0.9531h0.6484v0.9531h0.8828v0.5391" fill="#231f1f"/>
<path d="m97.29 107c0.1523-0.3281 0.5742-0.5938 1.051-0.5938 0.8555 0 1.238 0.6094 1.238 1.352v2.059h-0.6602v-1.836c0-0.5391-0.1367-1.016-0.7461-1.016-0.5195 0-0.8984 0.4336-0.8984 1.094v1.758h-0.6562v-5.297h0.6562v2.48h0.01562" fill="#231f1f"/>
<path d="m101.9 109.1h0.01562l0.918-2.605h0.6992l-1.609 4.105c-0.2188 0.5508-0.5 0.8945-1.148 0.8945-0.1406 0-0.2891-0.01172-0.4336-0.05078l0.0625-0.5781c0.1055 0.03516 0.2227 0.05469 0.3281 0.05469 0.3438 0 0.4766-0.1953 0.6172-0.5508l0.207-0.5547-1.418-3.32h0.7344l1.027 2.605" fill="#231f1f"/>
<path d="m104 106.5h0.6211c0.01562 0.168 0.02734 0.4219 0.02734 0.5586h0.02344c0.1797-0.3828 0.5664-0.6484 1.016-0.6484 0.08984 0 0.1797 0.007812 0.2578 0.02734l-0.02734 0.6094c-0.08203-0.02344-0.1953-0.03516-0.3008-0.03516-0.6328 0-0.9336 0.5117-0.9336 1.062v1.746h-0.6562v-2.605c0-0.1758-0.007813-0.4961-0.02734-0.7148" fill="#231f1f"/>
<path d="m108 106.9c-0.707 0-1.105 0.5664-1.105 1.195 0 0.6289 0.3984 1.207 1.105 1.207 0.7148 0 1.105-0.5781 1.105-1.207 0-0.6289-0.3906-1.195-1.105-1.195zm0 2.953c-1.016 0-1.785-0.7344-1.785-1.758 0-1.023 0.7695-1.742 1.785-1.742s1.793 0.7188 1.793 1.742c0 1.023-0.7773 1.758-1.793 1.758" fill="#231f1f"/>
<path d="m111.3 109.8h-0.6602v-3.32h0.6602zm-0.3281-4.098c-0.2383 0-0.4336-0.1914-0.4336-0.4219 0-0.2383 0.1953-0.4258 0.4336-0.4258s0.4414 0.1836 0.4414 0.4258c0 0.2383-0.2031 0.4219-0.4414 0.4219" fill="#231f1f"/>
<path d="m113.9 109.3c0.6719 0 1.117-0.5625 1.117-1.199s-0.4453-1.203-1.117-1.203c-0.7227 0-1.102 0.5742-1.102 1.195 0 0.625 0.3789 1.207 1.102 1.207zm-0.1133 0.5508c-1.023 0-1.672-0.7852-1.672-1.758 0-0.9805 0.6719-1.742 1.664-1.742 0.5391 0 0.9531 0.2656 1.184 0.5859h0.01562v-2.473h0.6562v5.297h-0.6367v-0.5273h-0.01172c-0.2539 0.4023-0.7305 0.6172-1.199 0.6172" fill="#231f1f"/>
<path d="m117.4 109.8h-0.6562v-3.32h0.6562zm-0.3281-4.098c-0.2383 0-0.4336-0.1914-0.4336-0.4219 0-0.2383 0.1953-0.4258 0.4336-0.4258 0.2383 0 0.4414 0.1836 0.4414 0.4258 0 0.2383-0.2031 0.4219-0.4414 0.4219" fill="#231f1f"/>
<path d="m120.3 107.3c-0.1484-0.2383-0.4336-0.4141-0.7695-0.4141-0.3008 0-0.6172 0.1211-0.6172 0.4375 0 0.2773 0.2539 0.3828 0.7578 0.4961 0.6289 0.1406 1.113 0.3984 1.113 0.9805 0 0.7852-0.6523 1.07-1.324 1.07-0.5039 0-1.023-0.1953-1.34-0.5938l0.4727-0.3984c0.1719 0.2578 0.5078 0.4609 0.8789 0.4609 0.332 0 0.6602-0.1172 0.6602-0.4844 0-0.3086-0.3008-0.418-0.8672-0.5508-0.4414-0.1055-0.9688-0.2969-0.9688-0.918 0-0.7148 0.625-1.016 1.254-1.016 0.4688 0 0.9688 0.1875 1.207 0.5469l-0.457 0.3828" fill="#231f1f"/>
<path d="m123.2 106.4c0.4414 0 0.8281 0.1953 1.031 0.6641 0.2227-0.4258 0.6562-0.6641 1.129-0.6641 0.8516 0 1.238 0.6094 1.238 1.352v2.059h-0.6602v-1.844c0-0.5391-0.1602-1.016-0.7344-1.016-0.6016 0-0.8398 0.5469-0.8398 1.066v1.793h-0.6562v-1.977c0-0.5195-0.1758-0.8828-0.7031-0.8828-0.4844 0-0.8477 0.4336-0.8477 1.094v1.766h-0.6562v-2.605c0-0.1758-0.007813-0.4961-0.03125-0.7148h0.625c0.01562 0.168 0.02734 0.4062 0.02734 0.5469h0.02344c0.168-0.3516 0.5508-0.6367 1.055-0.6367" fill="#231f1f"/>
<path d="m197.2 103.4h0.7383c0.6797 0 1.156-0.2227 1.156-0.8125 0-0.5938-0.4922-0.7891-1.145-0.7891h-0.75zm-0.6914-2.191h1.512c1.074 0 1.773 0.4141 1.773 1.379 0 0.9961-0.7773 1.402-1.809 1.402h-0.7852v2.18h-0.6914v-4.961" fill="#231f1f"/>
<path d="m200.2 102.8h0.6211c0.01562 0.168 0.02734 0.418 0.02734 0.5586h0.02344c0.1797-0.3867 0.5664-0.6523 1.016-0.6523 0.08984 0 0.1797 0.007813 0.2578 0.03125l-0.02734 0.6055c-0.08594-0.01953-0.1953-0.03516-0.3008-0.03516-0.6328 0-0.9336 0.5117-0.9336 1.066v1.746h-0.6562v-2.609c0-0.1719-0.007813-0.4961-0.02734-0.7109" fill="#231f1f"/>
<path d="m203.3 106.1h-0.6602v-3.32h0.6602zm-0.3281-4.098c-0.2383 0-0.4336-0.1914-0.4336-0.4219 0-0.2383 0.1953-0.4258 0.4336-0.4258s0.4414 0.1797 0.4414 0.4258c0 0.2383-0.2031 0.4219-0.4414 0.4219" fill="#231f1f"/>
<path d="m206.1 102.7c0.4375 0 0.8242 0.1992 1.027 0.668 0.2227-0.4297 0.6602-0.668 1.129-0.668 0.8516 0 1.238 0.6094 1.238 1.352v2.062h-0.6562v-1.844c0-0.5391-0.1641-1.016-0.7383-1.016-0.6016 0-0.8398 0.5469-0.8398 1.066v1.793h-0.6562v-1.977c0-0.5195-0.1758-0.8828-0.7031-0.8828-0.4805 0-0.8477 0.4336-0.8477 1.094v1.766h-0.6562v-2.609c0-0.1719-0.007813-0.4961-0.02734-0.7109h0.6211c0.01562 0.168 0.02734 0.4062 0.02734 0.543h0.02344c0.168-0.3477 0.5508-0.6367 1.059-0.6367" fill="#231f1f"/>
<path d="m212.5 104.6c-0.6523 0-1.477 0.07031-1.477 0.6328 0 0.3906 0.3477 0.5156 0.6797 0.5156 0.6133 0 0.957-0.4141 0.957-0.9727v-0.1758zm0.1602-0.5664c0-0.4922-0.3281-0.7266-0.8164-0.7266-0.3711 0-0.7227 0.1602-0.9492 0.3828l-0.3477-0.418c0.3203-0.3086 0.8203-0.5 1.359-0.5 0.9531 0 1.387 0.5664 1.387 1.305v1.449c0 0.2227 0.01172 0.4961 0.04688 0.6602h-0.5938c-0.03516-0.1484-0.05859-0.3242-0.05859-0.4766h-0.01953c-0.2383 0.3555-0.6172 0.5586-1.113 0.5586-0.5234 0-1.203-0.2578-1.203-1.023 0-1 1.188-1.121 2.309-1.121v-0.08984" fill="#231f1f"/>
<path d="m214.3 102.8h0.6211c0.01562 0.168 0.02734 0.418 0.02734 0.5586h0.02344c0.1797-0.3867 0.5664-0.6523 1.016-0.6523 0.08984 0 0.1797 0.007813 0.2578 0.03125l-0.02734 0.6055c-0.08594-0.01953-0.1953-0.03516-0.3008-0.03516-0.6328 0-0.9336 0.5117-0.9336 1.066v1.746h-0.6562v-2.609c0-0.1719-0.007812-0.4961-0.02734-0.7109" fill="#231f1f"/>
<path d="m218 105.4h0.01563l0.918-2.605h0.6992l-1.609 4.102c-0.2188 0.5547-0.5 0.8984-1.148 0.8984-0.1406 0-0.2891-0.01562-0.4375-0.05078l0.06641-0.5781c0.1016 0.03125 0.2227 0.05469 0.3281 0.05469 0.3438 0 0.4766-0.1953 0.6172-0.5547l0.207-0.5508-1.422-3.32h0.7383l1.027 2.605" fill="#231f1f"/>
<path d="m222.6 103.3c0.1523-0.332 0.5742-0.5977 1.047-0.5977 0.8555 0 1.242 0.6094 1.242 1.352v2.062h-0.6602v-1.836c0-0.5391-0.1406-1.016-0.75-1.016-0.5156 0-0.8945 0.4336-0.8945 1.094v1.758h-0.6602v-5.297h0.6602v2.48h0.01562" fill="#231f1f"/>
<path d="m227.2 105.4h0.01563l0.918-2.605h0.6992l-1.609 4.102c-0.2188 0.5547-0.5 0.8984-1.152 0.8984-0.1367 0-0.2852-0.01562-0.4336-0.05078l0.0625-0.5781c0.1055 0.03125 0.2266 0.05469 0.332 0.05469 0.3438 0 0.4766-0.1953 0.6172-0.5547l0.207-0.5508-1.422-3.32h0.7383l1.027 2.605" fill="#231f1f"/>
<path d="m231.1 103.3c-0.6719 0-1.121 0.5664-1.121 1.207 0 0.6367 0.4492 1.195 1.121 1.195 0.7227 0 1.109-0.582 1.109-1.203 0-0.625-0.3867-1.199-1.109-1.199zm-1.078 4.547h-0.6562v-5h0.6445v0.5156h0.01953c0.2188-0.3477 0.6523-0.6094 1.199-0.6094 0.9844 0 1.66 0.7656 1.66 1.746 0 0.9727-0.6523 1.758-1.676 1.758-0.4688 0-0.9258-0.2188-1.168-0.5898h-0.02344v2.18" fill="#231f1f"/>
<path d="m236.2 104.2c-0.01562-0.5234-0.3203-0.9375-0.9297-0.9375-0.5703 0-1.004 0.4219-1.047 0.9375zm0.6602 0.4922h-2.637c0.02344 0.5664 0.5 1.008 1.082 1.008 0.4453 0 0.7773-0.2227 0.9648-0.5039l0.4609 0.3711c-0.3555 0.4609-0.8398 0.6797-1.426 0.6797-1.012 0-1.754-0.7031-1.754-1.746 0-1.035 0.7422-1.758 1.719-1.758 0.9805 0 1.594 0.668 1.594 1.723 0 0.07031 0 0.1484-0.003907 0.2266" fill="#231f1f"/>
<path d="m237.6 102.8h0.6211c0.01562 0.168 0.02734 0.418 0.02734 0.5586h0.02344c0.1797-0.3867 0.5664-0.6523 1.016-0.6523 0.08984 0 0.1797 0.007813 0.2578 0.03125l-0.02734 0.6055c-0.08594-0.01953-0.1953-0.03516-0.3008-0.03516-0.6328 0-0.9336 0.5117-0.9336 1.066v1.746h-0.6562v-2.609c0-0.1719-0.007813-0.4961-0.02734-0.7109" fill="#231f1f"/>
<path d="m241.9 103.3c-0.6719 0-1.121 0.5664-1.121 1.207 0 0.6367 0.4492 1.195 1.121 1.195 0.7227 0 1.105-0.582 1.105-1.203 0-0.625-0.3828-1.199-1.105-1.199zm-1.078 4.547h-0.6562v-5h0.6406v0.5156h0.02344c0.2148-0.3477 0.6523-0.6094 1.195-0.6094 0.9883 0 1.66 0.7656 1.66 1.746 0 0.9727-0.6484 1.758-1.672 1.758-0.4688 0-0.9258-0.2188-1.172-0.5898h-0.01953v2.18" fill="#231f1f"/>
<path d="m246.4 104.6c-0.6484 0-1.477 0.07031-1.477 0.6328 0 0.3906 0.3516 0.5156 0.6797 0.5156 0.6172 0 0.9609-0.4141 0.9609-0.9727v-0.1758zm0.1641-0.5664c0-0.4922-0.332-0.7266-0.8203-0.7266-0.3711 0-0.7227 0.1602-0.9453 0.3828l-0.3516-0.418c0.3242-0.3086 0.8203-0.5 1.359-0.5 0.9531 0 1.387 0.5664 1.387 1.305v1.449c0 0.2227 0.01562 0.4961 0.05078 0.6602h-0.5977c-0.03516-0.1484-0.05469-0.3242-0.05469-0.4766h-0.02344c-0.2383 0.3555-0.6133 0.5586-1.113 0.5586-0.5234 0-1.203-0.2578-1.203-1.023 0-1 1.191-1.121 2.312-1.121v-0.08984" fill="#231f1f"/>
<path d="m248.2 102.8h0.6211c0.01563 0.168 0.03125 0.418 0.03125 0.5586h0.01953c0.1836-0.3867 0.5664-0.6523 1.016-0.6523 0.08984 0 0.1836 0.007813 0.2578 0.03125l-0.02734 0.6055c-0.08203-0.01953-0.1953-0.03516-0.3008-0.03516-0.6289 0-0.9297 0.5117-0.9297 1.066v1.746h-0.6602v-2.609c0-0.1719-0.007812-0.4961-0.02734-0.7109" fill="#231f1f"/>
<path d="m252.5 104.6c-0.6484 0-1.477 0.07031-1.477 0.6328 0 0.3906 0.3516 0.5156 0.6797 0.5156 0.6172 0 0.957-0.4141 0.957-0.9727v-0.1758zm0.1602-0.5664c0-0.4922-0.3281-0.7266-0.8164-0.7266-0.3711 0-0.7227 0.1602-0.9453 0.3828l-0.3516-0.418c0.3203-0.3086 0.8203-0.5 1.359-0.5 0.9531 0 1.387 0.5664 1.387 1.305v1.449c0 0.2227 0.01172 0.4961 0.04688 0.6602h-0.5938c-0.03516-0.1484-0.05469-0.3242-0.05469-0.4766h-0.02344c-0.2383 0.3555-0.6133 0.5586-1.113 0.5586-0.5234 0-1.203-0.2578-1.203-1.023 0-1 1.191-1.121 2.309-1.121v-0.08984" fill="#231f1f"/>
<path d="m255.9 103.4h-0.8828v1.73c0 0.3984 0.1406 0.5586 0.4688 0.5586 0.1211 0 0.2734-0.02734 0.3867-0.08203l0.01953 0.5391c-0.1523 0.05469-0.3555 0.08984-0.5586 0.08984-0.625 0-0.9688-0.3516-0.9688-1.039v-1.797h-0.6367v-0.5391h0.6367v-0.9531h0.6523v0.9531h0.8828v0.5391" fill="#231f1f"/>
<path d="m257.2 103.3c0.1562-0.332 0.5742-0.5977 1.051-0.5977 0.8555 0 1.242 0.6094 1.242 1.352v2.062h-0.6602v-1.836c0-0.5391-0.1406-1.016-0.75-1.016-0.5156 0-0.8945 0.4336-0.8945 1.094v1.758h-0.6602v-5.297h0.6602v2.48h0.01172" fill="#231f1f"/>
<path d="m261.8 105.4h0.01562l0.9141-2.605h0.7031l-1.613 4.102c-0.2148 0.5547-0.4961 0.8984-1.148 0.8984-0.1406 0-0.2852-0.01562-0.4336-0.05078l0.0625-0.5781c0.1055 0.03125 0.2266 0.05469 0.332 0.05469 0.3398 0 0.4727-0.1953 0.6133-0.5547l0.2109-0.5508-1.422-3.32h0.7344l1.031 2.605" fill="#231f1f"/>
<path d="m263.9 102.8h0.625c0.01172 0.168 0.02734 0.418 0.02734 0.5586h0.01953c0.1836-0.3867 0.5703-0.6523 1.016-0.6523 0.09375 0 0.1836 0.007813 0.2617 0.03125l-0.02734 0.6055c-0.08594-0.01953-0.1992-0.03516-0.3047-0.03516-0.6289 0-0.9297 0.5117-0.9297 1.066v1.746h-0.6602v-2.609c0-0.1719-0.003907-0.4961-0.02734-0.7109" fill="#231f1f"/>
<path d="m267.9 103.3c-0.707 0-1.109 0.5664-1.109 1.199 0 0.6289 0.4023 1.203 1.109 1.203 0.7148 0 1.105-0.5742 1.105-1.203 0-0.6328-0.3906-1.199-1.105-1.199zm0 2.957c-1.016 0-1.789-0.7383-1.789-1.758 0-1.023 0.7734-1.746 1.789-1.746s1.793 0.7227 1.793 1.746c0 1.02-0.7773 1.758-1.793 1.758" fill="#231f1f"/>
<path d="m271.2 106.1h-0.6602v-3.32h0.6602zm-0.332-4.098c-0.2383 0-0.4336-0.1914-0.4336-0.4219 0-0.2383 0.1953-0.4258 0.4336-0.4258 0.2383 0 0.4414 0.1797 0.4414 0.4258 0 0.2383-0.2031 0.4219-0.4414 0.4219" fill="#231f1f"/>
<path d="m273.8 105.7c0.6719 0 1.121-0.5586 1.121-1.195 0-0.6406-0.4492-1.207-1.121-1.207-0.7188 0-1.098 0.5742-1.098 1.199 0 0.6211 0.3789 1.203 1.098 1.203zm-0.1094 0.5547c-1.023 0-1.676-0.7852-1.676-1.758 0-0.9805 0.6719-1.746 1.668-1.746 0.5391 0 0.9531 0.2656 1.184 0.5898h0.01172v-2.473h0.6602v5.297h-0.6367v-0.5273h-0.01562c-0.25 0.3984-0.7266 0.6172-1.195 0.6172" fill="#231f1f"/>
<path d="m277.3 106.1h-0.6602v-3.32h0.6602zm-0.332-4.098c-0.2383 0-0.4336-0.1914-0.4336-0.4219 0-0.2383 0.1953-0.4258 0.4336-0.4258s0.4414 0.1797 0.4414 0.4258c0 0.2383-0.2031 0.4219-0.4414 0.4219" fill="#231f1f"/>
<path d="m280.2 103.7c-0.1484-0.2383-0.4375-0.4141-0.7734-0.4141-0.3008 0-0.6133 0.1172-0.6133 0.4336 0 0.2812 0.25 0.3867 0.7539 0.5 0.6328 0.1367 1.113 0.3984 1.113 0.9766 0 0.7852-0.6484 1.074-1.324 1.074-0.5039 0-1.02-0.1953-1.336-0.5977l0.4688-0.3984c0.1758 0.2578 0.5117 0.4609 0.8828 0.4609 0.3281 0 0.6602-0.1172 0.6602-0.4805 0-0.3086-0.3047-0.4219-0.8711-0.5547-0.4414-0.1055-0.9648-0.293-0.9648-0.918 0-0.7148 0.6211-1.016 1.254-1.016 0.4688 0 0.9648 0.1914 1.203 0.5469l-0.4531 0.3867" fill="#231f1f"/>
<path d="m283.1 102.7c0.4414 0 0.8281 0.1992 1.031 0.668 0.2227-0.4297 0.6562-0.668 1.125-0.668 0.8555 0 1.242 0.6094 1.242 1.352v2.062h-0.6602v-1.844c0-0.5391-0.1602-1.016-0.7344-1.016-0.6016 0-0.8398 0.5469-0.8398 1.066v1.793h-0.6602v-1.977c0-0.5195-0.1758-0.8828-0.6992-0.8828-0.4844 0-0.8477 0.4336-0.8477 1.094v1.766h-0.6602v-2.609c0-0.1719-0.007813-0.4961-0.02734-0.7109h0.625c0.01172 0.168 0.02734 0.4062 0.02734 0.543h0.01953c0.168-0.3477 0.5547-0.6367 1.059-0.6367" fill="#231f1f"/>
<path d="m213.9 174.9h0.6953v2.07h2.504v-2.07h0.7031v4.957h-0.7031v-2.27h-2.504v2.27h-0.6953v-4.957" fill="#231f1f"/>
<path d="m220.2 179.1h0.01563l0.918-2.602h0.6992l-1.609 4.102c-0.2188 0.5547-0.5 0.8984-1.148 0.8984-0.1406 0-0.2891-0.01562-0.4375-0.05078l0.06641-0.582c0.1016 0.03516 0.2227 0.05859 0.3281 0.05859 0.3438 0 0.4766-0.1992 0.6172-0.5547l0.207-0.5547-1.422-3.316h0.7383l1.027 2.602" fill="#231f1f"/>
<path d="m224.1 177c-0.6719 0-1.117 0.5664-1.117 1.203 0 0.6406 0.4453 1.199 1.117 1.199 0.7227 0 1.109-0.582 1.109-1.207 0-0.6211-0.3867-1.195-1.109-1.195zm-1.078 4.547h-0.6562v-5h0.6445v0.5156h0.01953c0.2188-0.3477 0.6523-0.6094 1.199-0.6094 0.9844 0 1.66 0.7656 1.66 1.742 0 0.9766-0.6523 1.762-1.676 1.762-0.4688 0-0.9258-0.2188-1.168-0.5898h-0.02344v2.18" fill="#231f1f"/>
<path d="m229.2 177.9c-0.01562-0.5234-0.3203-0.9375-0.9297-0.9375-0.5703 0-1.004 0.418-1.047 0.9375zm0.6602 0.4883h-2.637c0.02344 0.5703 0.5 1.012 1.082 1.012 0.4453 0 0.7773-0.2266 0.9648-0.5078l0.4609 0.375c-0.3555 0.4609-0.8398 0.6797-1.426 0.6797-1.012 0-1.754-0.7031-1.754-1.746 0-1.035 0.7422-1.758 1.719-1.758 0.9805 0 1.594 0.6641 1.594 1.723 0 0.07031 0 0.1484-0.003907 0.2227" fill="#231f1f"/>
<path d="m230.7 176.5h0.6211c0.01562 0.168 0.02734 0.418 0.02734 0.5586h0.02344c0.1797-0.3867 0.5664-0.6523 1.016-0.6523 0.08984 0 0.1797 0.007813 0.2578 0.02734l-0.02734 0.6094c-0.08594-0.01953-0.1953-0.03516-0.3008-0.03516-0.6328 0-0.9336 0.5117-0.9336 1.066v1.742h-0.6562v-2.605c0-0.1719-0.007813-0.4961-0.02734-0.7109" fill="#231f1f"/>
<path d="m235.4 177.4c-0.1406-0.2188-0.4492-0.3789-0.7656-0.3789-0.6875 0-1.086 0.5586-1.086 1.195 0 0.6328 0.3984 1.199 1.094 1.199 0.3359 0 0.625-0.1406 0.7969-0.3633l0.4414 0.3984c-0.2773 0.3203-0.707 0.5195-1.238 0.5195-1.023 0-1.785-0.6953-1.785-1.754 0-1.043 0.7539-1.75 1.77-1.75 0.4727 0 0.9766 0.1914 1.25 0.5469l-0.4766 0.3867" fill="#231f1f"/>
<path d="m238.3 178.3c-0.6484 0-1.477 0.07031-1.477 0.6328 0 0.3906 0.3516 0.5156 0.6797 0.5156 0.6172 0 0.9609-0.4141 0.9609-0.9727v-0.1758zm0.1641-0.5664c0-0.4922-0.332-0.7305-0.8203-0.7305-0.3711 0-0.7227 0.1602-0.9453 0.3867l-0.3516-0.4219c0.3242-0.3047 0.8203-0.4961 1.359-0.4961 0.9531 0 1.387 0.5664 1.387 1.305v1.449c0 0.2227 0.01562 0.4961 0.05078 0.6562h-0.5977c-0.03516-0.1445-0.05469-0.3203-0.05469-0.4766h-0.02344c-0.2383 0.3594-0.6133 0.5625-1.113 0.5625-0.5234 0-1.203-0.2617-1.203-1.023 0-1 1.191-1.121 2.312-1.121v-0.08984" fill="#231f1f"/>
<path d="m240.8 179.9h-0.6562v-5.293h0.6562v5.293" fill="#231f1f"/>
<path d="m244.2 177.4c-0.1406-0.2188-0.4492-0.3789-0.7617-0.3789-0.6875 0-1.086 0.5586-1.086 1.195 0 0.6328 0.3984 1.199 1.094 1.199 0.3359 0 0.6211-0.1406 0.7969-0.3633l0.4414 0.3984c-0.2812 0.3203-0.707 0.5195-1.238 0.5195-1.023 0-1.789-0.6953-1.789-1.754 0-1.043 0.7578-1.75 1.773-1.75 0.4688 0 0.9727 0.1914 1.246 0.5469l-0.4766 0.3867" fill="#231f1f"/>
<path d="m247.7 177.9c-0.01172-0.5234-0.3203-0.9375-0.9297-0.9375-0.5664 0-1 0.418-1.043 0.9375zm0.6602 0.4883h-2.633c0.01953 0.5703 0.4961 1.012 1.078 1.012 0.4492 0 0.7773-0.2266 0.9648-0.5078l0.4648 0.375c-0.3594 0.4609-0.8398 0.6797-1.43 0.6797-1.008 0-1.75-0.7031-1.75-1.746 0-1.035 0.7422-1.758 1.715-1.758 0.9805 0 1.598 0.6641 1.598 1.723 0 0.07031 0 0.1484-0.007813 0.2227" fill="#231f1f"/>
<path d="m250.9 176.5c0.4414 0 0.8242 0.1953 1.027 0.6641 0.2266-0.4258 0.6602-0.6641 1.129-0.6641 0.8555 0 1.238 0.6094 1.238 1.352v2.059h-0.6562v-1.84c0-0.5391-0.1602-1.016-0.7344-1.016-0.6055 0-0.8398 0.5469-0.8398 1.062v1.793h-0.6602v-1.973c0-0.5195-0.1758-0.8828-0.6992-0.8828-0.4844 0-0.8477 0.4336-0.8477 1.094v1.762h-0.6602v-2.605c0-0.1719-0.007813-0.4961-0.02734-0.7109h0.625c0.01172 0.168 0.02734 0.4023 0.02734 0.543h0.01953c0.168-0.3516 0.5547-0.6367 1.059-0.6367" fill="#231f1f"/>
<path d="m256 179.9h-0.6562v-3.316h0.6562zm-0.3281-4.098c-0.2383 0-0.4336-0.1875-0.4336-0.418 0-0.2383 0.1953-0.4297 0.4336-0.4297s0.4414 0.1836 0.4414 0.4297c0 0.2383-0.2031 0.418-0.4414 0.418" fill="#231f1f"/>
<path d="m259 178.3c-0.6523 0-1.48 0.07031-1.48 0.6328 0 0.3906 0.3516 0.5156 0.6797 0.5156 0.6172 0 0.9609-0.4141 0.9609-0.9727v-0.1758zm0.1602-0.5664c0-0.4922-0.3281-0.7305-0.8203-0.7305-0.3711 0-0.7227 0.1602-0.9453 0.3867l-0.3516-0.4219c0.3242-0.3047 0.8203-0.4961 1.359-0.4961 0.9531 0 1.387 0.5664 1.387 1.305v1.449c0 0.2227 0.01562 0.4961 0.05078 0.6562h-0.5977c-0.03516-0.1445-0.05469-0.3203-0.05469-0.4766h-0.01953c-0.2383 0.3594-0.6172 0.5625-1.113 0.5625-0.5273 0-1.207-0.2617-1.207-1.023 0-1 1.191-1.121 2.312-1.121v-0.08984" fill="#231f1f"/>
<path d="m264.1 177c-0.707 0-1.105 0.5664-1.105 1.195 0 0.6328 0.3984 1.207 1.105 1.207 0.7148 0 1.105-0.5742 1.105-1.207 0-0.6289-0.3906-1.195-1.105-1.195zm0 2.957c-1.016 0-1.785-0.7383-1.785-1.762 0-1.02 0.7695-1.742 1.785-1.742 1.016 0 1.793 0.7227 1.793 1.742 0 1.023-0.7773 1.762-1.793 1.762" fill="#231f1f"/>
<path d="m268.3 177.1h-0.7695v2.777h-0.6562v-2.777h-0.6602v-0.5391h0.6602v-0.6953c0-0.7773 0.3398-1.367 1.238-1.367 0.1523 0 0.2852 0.01562 0.4141 0.05078l-0.07812 0.5664c-0.09766-0.02734-0.2031-0.04687-0.3281-0.04687-0.5 0-0.5898 0.3906-0.5898 0.7969v0.6953h0.7695v0.5391" fill="#231f1f"/>
<path d="m272.4 176.5c0.4414 0 0.8242 0.1953 1.027 0.6641 0.2266-0.4258 0.6602-0.6641 1.129-0.6641 0.8555 0 1.238 0.6094 1.238 1.352v2.059h-0.6562v-1.84c0-0.5391-0.1602-1.016-0.7344-1.016-0.6055 0-0.8398 0.5469-0.8398 1.062v1.793h-0.6602v-1.973c0-0.5195-0.1758-0.8828-0.6992-0.8828-0.4844 0-0.8477 0.4336-0.8477 1.094v1.762h-0.6602v-2.605c0-0.1719-0.007812-0.4961-0.02734-0.7109h0.625c0.01172 0.168 0.02734 0.4023 0.02734 0.543h0.01953c0.168-0.3516 0.5547-0.6367 1.059-0.6367" fill="#231f1f"/>
<path d="m278.7 178.3c-0.6484 0-1.477 0.07031-1.477 0.6328 0 0.3906 0.3516 0.5156 0.6797 0.5156 0.6172 0 0.9609-0.4141 0.9609-0.9727v-0.1758zm0.1641-0.5664c0-0.4922-0.332-0.7305-0.8203-0.7305-0.3711 0-0.7227 0.1602-0.9453 0.3867l-0.3516-0.4219c0.3242-0.3047 0.8203-0.4961 1.359-0.4961 0.9531 0 1.387 0.5664 1.387 1.305v1.449c0 0.2227 0.01562 0.4961 0.05078 0.6562h-0.5977c-0.03516-0.1445-0.05469-0.3203-0.05469-0.4766h-0.02344c-0.2344 0.3594-0.6133 0.5625-1.113 0.5625-0.5234 0-1.203-0.2617-1.203-1.023 0-1 1.191-1.121 2.312-1.121v-0.08984" fill="#231f1f"/>
<path d="m281.2 179.9h-0.6562v-5.293h0.6562v5.293" fill="#231f1f"/>
<path d="m282.9 179.9h-0.6562v-3.316h0.6562zm-0.3281-4.098c-0.2383 0-0.4336-0.1875-0.4336-0.418 0-0.2383 0.1953-0.4297 0.4336-0.4297s0.4414 0.1836 0.4414 0.4297c0 0.2383-0.2031 0.418-0.4414 0.418" fill="#231f1f"/>
<path d="m285.6 179.3c0.6797 0 1.129-0.5117 1.129-1.172 0-0.6289-0.457-1.168-1.129-1.168-0.6914 0-1.098 0.5312-1.098 1.168 0 0.6094 0.4062 1.172 1.098 1.172zm-1.301 1.094c0.2852 0.3203 0.7539 0.5391 1.211 0.5391 0.875 0 1.168-0.5391 1.168-1.227v-0.4297h-0.01172c-0.2461 0.3711-0.7031 0.5781-1.172 0.5781-1.016 0-1.672-0.7578-1.672-1.711s0.6484-1.73 1.664-1.73c0.4766 0 0.9453 0.2109 1.199 0.625h0.01562v-0.5312h0.6367v3.148c0 0.9688-0.457 1.852-1.836 1.852-0.5742 0-1.211-0.2266-1.625-0.6055l0.4219-0.5078" fill="#231f1f"/>
<path d="m289 176.5c0.01562 0.168 0.02734 0.4023 0.02734 0.543h0.02344c0.1602-0.3555 0.6016-0.6367 1.078-0.6367 0.8555 0 1.238 0.6094 1.238 1.352v2.059h-0.6562v-1.84c0-0.5391-0.1484-1.016-0.7578-1.016-0.5195 0-0.8906 0.4336-0.8906 1.094v1.762h-0.6562v-2.605c0-0.1719-0.007812-0.4961-0.02734-0.7109h0.6211" fill="#231f1f"/>
<path d="m294.3 178.3c-0.6523 0-1.48 0.07031-1.48 0.6328 0 0.3906 0.3516 0.5156 0.6797 0.5156 0.6172 0 0.9609-0.4141 0.9609-0.9727v-0.1758zm0.1602-0.5664c0-0.4922-0.3281-0.7305-0.8203-0.7305-0.3711 0-0.7227 0.1602-0.9453 0.3867l-0.3516-0.4219c0.3242-0.3047 0.8203-0.4961 1.359-0.4961 0.9531 0 1.387 0.5664 1.387 1.305v1.449c0 0.2227 0.01562 0.4961 0.05078 0.6562h-0.5977c-0.03516-0.1445-0.05469-0.3203-0.05469-0.4766h-0.01953c-0.2383 0.3594-0.6172 0.5625-1.117 0.5625-0.5234 0-1.203-0.2617-1.203-1.023 0-1 1.191-1.121 2.312-1.121v-0.08984" fill="#231f1f"/>
<path d="m296.7 176.5c0.01172 0.168 0.02734 0.4023 0.02734 0.543h0.01953c0.1602-0.3555 0.6016-0.6367 1.078-0.6367 0.8555 0 1.242 0.6094 1.242 1.352v2.059h-0.6602v-1.84c0-0.5391-0.1484-1.016-0.7578-1.016-0.5156 0-0.8867 0.4336-0.8867 1.094v1.762h-0.6602v-2.605c0-0.1719-0.007812-0.4961-0.02734-0.7109h0.625" fill="#231f1f"/>
<path d="m302.4 177.4c-0.1367-0.2188-0.4453-0.3789-0.7617-0.3789-0.6875 0-1.086 0.5586-1.086 1.195 0 0.6328 0.3984 1.199 1.094 1.199 0.3359 0 0.6211-0.1406 0.7969-0.3633l0.4414 0.3984c-0.2812 0.3203-0.707 0.5195-1.238 0.5195-1.023 0-1.785-0.6953-1.785-1.754 0-1.043 0.7539-1.75 1.77-1.75 0.4688 0 0.9727 0.1914 1.246 0.5469l-0.4766 0.3867" fill="#231f1f"/>
<path d="m304.8 179.1h0.01562l0.918-2.602h0.6992l-1.609 4.102c-0.2188 0.5547-0.5 0.8984-1.148 0.8984-0.1406 0-0.2891-0.01562-0.4375-0.05078l0.06641-0.582c0.1016 0.03516 0.2227 0.05859 0.3281 0.05859 0.3438 0 0.4766-0.1992 0.6172-0.5547l0.207-0.5547-1.422-3.316h0.7383l1.027 2.602" fill="#231f1f"/>
<path transform="matrix(.1 0 0 -.1 0 221.3)" d="m3251 292.3h-2851v1894" fill="none" stroke="#231f1f" stroke-width="5"/>
<path d="m40.08 200.1c-0.582 0-0.9141 0.4336-0.9141 0.9805 0 0.4609 0.2891 1.027 0.8633 1.027 0.5859 0 0.8672-0.5039 0.8672-1.027 0-0.457-0.2656-0.9805-0.8164-0.9805zm1.238-1.695c-0.2539-0.1328-0.5547-0.2031-0.8672-0.2031-0.9141 0-1.355 0.8398-1.367 1.777l0.01172-0.007812c0.332-0.3203 0.668-0.4453 1.074-0.4453 0.9453 0 1.469 0.6641 1.469 1.539 0 1.008-0.6797 1.617-1.566 1.617-1.367 0-1.648-1.23-1.648-2.348 0-1.32 0.4336-2.707 1.984-2.707 0.3359 0 0.832 0.07812 1.008 0.1523l-0.09766 0.625" fill="#231f1f"/>
<path transform="matrix(.1 0 0 -.1 0 221.3)" d="m399.9 292.2v-38.63" fill="none" stroke="#231f1f" stroke-width="5"/>
<path d="m73.35 198.3-1.805 4.316h-0.7734l1.863-4.316h-2.379v-0.5742h3.094v0.5742" fill="#231f1f"/>
<path transform="matrix(.1 0 0 -.1 0 221.3)" d="m718.4 292.2v-38.63" fill="none" stroke="#231f1f" stroke-width="5"/>
<path d="m103.6 199.8c0.5742-0.4414 0.6445-0.6289 0.6445-0.9648 0-0.4648-0.4766-0.6172-0.8281-0.6172-0.3203 0-0.8242 0.2305-0.8242 0.6914 0 0.3359 0.3477 0.5664 1.008 0.8906zm-0.2734 0.5039c-0.3984 0.2812-0.8125 0.4141-0.8125 0.9883 0 0.5391 0.4961 0.832 0.9883 0.832 0.4688 0 0.875-0.2773 0.8867-0.7695 0.02344-0.6875-0.5391-0.7969-1.062-1.051zm-1.555 1.031c0-0.6523 0.4492-1.086 1.035-1.289v-0.01562c-0.7148-0.2539-0.918-0.7578-0.918-1.219 0-0.625 0.5898-1.168 1.586-1.168 0.9648 0 1.512 0.5586 1.512 1.098 0 0.5469-0.2266 0.9102-0.8828 1.262 0.5898 0.2031 1.031 0.6445 1.031 1.297 0 0.9805-0.7812 1.398-1.695 1.398-0.8281 0-1.668-0.4609-1.668-1.363" fill="#231f1f"/>
<path transform="matrix(.1 0 0 -.1 0 221.3)" d="m1034 292.2v-38.63" fill="none" stroke="#231f1f" stroke-width="5"/>
<path d="m134.8 200.2c0.582 0 0.9102-0.4336 0.9102-0.9805 0-0.4609-0.2852-1.027-0.8594-1.027-0.5898 0-0.8711 0.5039-0.8711 1.027 0 0.457 0.2656 0.9805 0.8203 0.9805zm-1.238 1.695c0.25 0.1328 0.5508 0.2031 0.8672 0.2031 0.9102 0 1.352-0.8398 1.367-1.777l-0.01562 0.003907c-0.3281 0.3242-0.6641 0.4492-1.07 0.4492-0.9453 0-1.473-0.6641-1.473-1.539 0-1.008 0.6797-1.617 1.57-1.617 1.363 0 1.645 1.23 1.645 2.344 0 1.324-0.4336 2.711-1.98 2.711-0.3359 0-0.8359-0.07422-1.008-0.1523l0.09766-0.625" fill="#231f1f"/>
<path transform="matrix(.1 0 0 -.1 0 221.3)" d="m1349 292.2v-38.63" fill="none" stroke="#231f1f" stroke-width="5"/>
<path d="m164.8 198.5-0.75 0.6445-0.3711-0.4727 1.199-0.9805h0.6211v4.891h-0.6992v-4.082" fill="#231f1f"/>
<path d="m168.8 202.1c0.8398 0 0.9141-1.344 0.9141-1.953 0-0.6172-0.1094-1.953-0.9141-1.953-0.8086 0-0.918 1.336-0.918 1.953 0 0.6094 0.07422 1.953 0.918 1.953zm0-4.48c1.352 0 1.66 1.457 1.66 2.527 0 1.07-0.3086 2.527-1.66 2.527-1.352 0-1.66-1.457-1.66-2.527 0-1.07 0.3086-2.527 1.66-2.527" fill="#231f1f"/>
<path transform="matrix(.1 0 0 -.1 0 221.3)" d="m1668 292.2v-38.63" fill="none" stroke="#231f1f" stroke-width="5"/>
<path d="m196.6 198.5-0.75 0.6445-0.3711-0.4727 1.199-0.9805h0.625v4.891h-0.7031v-4.082" fill="#231f1f"/>
<path d="m200.4 198.5-0.75 0.6445-0.3711-0.4727 1.195-0.9805h0.625v4.891h-0.6992v-4.082" fill="#231f1f"/>
<path transform="matrix(.1 0 0 -.1 0 221.3)" d="m1985 292.2v-38.63" fill="none" stroke="#231f1f" stroke-width="5"/>
<path d="m227.8 198.5-0.75 0.6445-0.3711-0.4727 1.199-0.9805h0.6211v4.891h-0.6992v-4.082" fill="#231f1f"/>
<path d="m230.2 201.9c0.25-0.2266 0.5664-0.4961 0.875-0.7852 0.5391-0.5039 1.406-1.293 1.406-2.086 0-0.457-0.4062-0.7773-0.9375-0.7773-0.4336 0-0.8555 0.168-1.121 0.3164l-0.07031-0.6055c0.4062-0.1719 0.8398-0.2852 1.281-0.2852 0.8828 0 1.59 0.4766 1.59 1.395 0 0.8086-0.875 1.68-1.414 2.219-0.2734 0.2734-0.6211 0.5664-0.8594 0.7852h2.344v0.5742h-3.094v-0.75" fill="#231f1f"/>
<path transform="matrix(.1 0 0 -.1 0 221.3)" d="m2298 292.2v-38.63" fill="none" stroke="#231f1f" stroke-width="5"/>
<path d="m259.2 198.5-0.75 0.6445-0.3711-0.4727 1.199-0.9805h0.6211v4.891h-0.6992v-4.082" fill="#231f1f"/>
<path d="m262.2 199.8h0.3906c0.5039 0 1.211-0.1797 1.211-0.8008 0-0.5586-0.4453-0.7695-0.957-0.7695-0.4414 0-0.793 0.1172-1.086 0.2656l-0.04297-0.625c0.3242-0.1172 0.8125-0.2148 1.227-0.2148 0.8594 0 1.602 0.4062 1.602 1.328 0 0.6172-0.4883 1.008-1.047 1.117v0.01172c0.6484 0.1328 1.09 0.5195 1.09 1.211 0 1.121-0.957 1.387-1.926 1.387-0.3906 0-0.8125-0.09766-1.121-0.1875l0.04297-0.6523c0.2539 0.125 0.6523 0.2656 1.07 0.2656 0.5352 0 1.191-0.207 1.191-0.832 0-0.7305-0.5859-0.9336-1.219-0.9336h-0.4258v-0.5703" fill="#231f1f"/>
<path transform="matrix(.1 0 0 -.1 0 221.3)" d="m2612 292.2v-38.63" fill="none" stroke="#231f1f" stroke-width="5"/>
<path d="m291 198.5-0.75 0.6445-0.3711-0.4727 1.199-0.9805h0.6211v4.891h-0.6992v-4.082" fill="#231f1f"/>
<path d="m295.4 198.3h-0.01562l-1.527 2.629h1.543zm0 3.203h-2.277v-0.5742l1.977-3.203h1v3.203h0.6172v0.5742h-0.6172v1.113h-0.6992v-1.113" fill="#231f1f"/>
<path transform="matrix(.1 0 0 -.1 0 221.3)" d="m2929 292.2v-38.63" fill="none" stroke="#231f1f" stroke-width="5"/>
<path d="m322.7 198.5-0.75 0.6445-0.3711-0.4727 1.195-0.9805h0.625v4.891h-0.6992v-4.082" fill="#231f1f"/>
<g clip-path="url(#m)">
<path d="m328 198.3h-2.031l-0.04297 1.309c0.1328-0.03125 0.3516-0.06641 0.6289-0.06641 0.8633 0 1.586 0.6406 1.586 1.512 0 1.07-0.8555 1.645-1.871 1.645-0.5312 0-0.875-0.09766-1.051-0.1602l0.01953-0.6562c0.3008 0.168 0.5898 0.2422 1.016 0.2422 0.582 0 1.141-0.3398 1.141-0.9648 0-0.6992-0.5234-1.043-1.184-1.043-0.418 0-0.6836 0.06641-0.9453 0.1797l0.04297-2.57h2.691v0.5742" fill="#231f1f"/>
</g>
<path transform="matrix(.1 0 0 -.1 0 221.3)" d="m3247 292.2v-38.63" fill="none" stroke="#231f1f" stroke-width="5"/>
<path transform="matrix(.1 0 0 -.1 0 221.3)" d="m400.6 475.8h-40.08" fill="none" stroke="#231f1f" stroke-width="5"/>
<path d="m29.88 175.9h-3.234v-0.6523l1.973-1.961c0.3008-0.3047 0.5469-0.6289 0.5469-1.047 0-0.5195-0.3906-0.8555-0.8828-0.8555-0.5039 0-0.8477 0.3633-0.9297 0.8594l-0.668-0.1094c0.1211-0.7578 0.7578-1.316 1.605-1.316 0.8242 0 1.566 0.4805 1.566 1.406 0 0.6367-0.3633 1.07-0.7969 1.5l-1.609 1.566h2.43v0.6094" fill="#231f1f"/>
<path d="m31.47 173.4c0 0.8438 0.1836 2.031 1 2.031 0.8086 0 0.9961-1.188 0.9961-2.031 0-0.832-0.1875-2.035-0.9961-2.035-0.8164 0-1 1.203-1 2.035zm2.691 0c0 1.453-0.5117 2.609-1.691 2.609-1.184 0-1.691-1.156-1.691-2.609 0-1.441 0.5078-2.602 1.691-2.602 1.18 0 1.691 1.16 1.691 2.602" fill="#231f1f"/>
<path transform="matrix(.1 0 0 -.1 0 221.3)" d="m399.1 292.5h-38.59" fill="none" stroke="#231f1f" stroke-width="5"/>
<path d="m31.47 191.7c0 0.8398 0.1836 2.031 1 2.031 0.8086 0 0.9961-1.191 0.9961-2.031 0-0.832-0.1875-2.039-0.9961-2.039-0.8164 0-1 1.207-1 2.039zm2.691 0c0 1.449-0.5117 2.605-1.691 2.605-1.184 0-1.691-1.156-1.691-2.605 0-1.441 0.5078-2.605 1.691-2.605 1.18 0 1.691 1.164 1.691 2.605" fill="#231f1f"/>
<path transform="matrix(.1 0 0 -.1 0 221.3)" d="m400.6 668.4h-40.08" fill="none" stroke="#231f1f" stroke-width="5"/>
<path d="m28.72 152.4h-0.01172l-1.57 2.488h1.582zm0.6602 2.488h0.7148v0.582h-0.7148v1.113h-0.6602v-1.113h-2.285v-0.6172l2.109-3.227h0.8359v3.262" fill="#231f1f"/>
<path d="m31.47 154.1c0 0.8398 0.1836 2.031 1 2.031 0.8086 0 0.9961-1.191 0.9961-2.031 0-0.832-0.1875-2.039-0.9961-2.039-0.8164 0-1 1.207-1 2.039zm2.691 0c0 1.449-0.5117 2.605-1.691 2.605-1.184 0-1.691-1.156-1.691-2.605 0-1.441 0.5078-2.605 1.691-2.605 1.18 0 1.691 1.164 1.691 2.605" fill="#231f1f"/>
<path transform="matrix(.1 0 0 -.1 0 221.3)" d="m400.6 855.3h-40.08" fill="none" stroke="#231f1f" stroke-width="5"/>
<path d="m28.3 137.5c0.6094 0 1.023-0.4414 1.023-1.059 0-0.5938-0.3984-1.035-1.016-1.035-0.6211 0-1.035 0.4336-1.035 1.043 0 0.582 0.4141 1.051 1.027 1.051zm-0.4609-2.516 0.007812 0.01562c0.1406-0.08594 0.4062-0.1328 0.6172-0.1328 0.8672 0 1.547 0.6484 1.547 1.555 0 0.9883-0.7344 1.652-1.711 1.652-0.9844 0-1.715-0.6953-1.715-1.633 0-0.5391 0.1953-0.9531 0.4844-1.406l1.297-2.047h0.8047l-1.332 1.996" fill="#231f1f"/>
<path d="m31.47 135.5c0 0.8398 0.1836 2.031 1 2.031 0.8086 0 0.9961-1.191 0.9961-2.031 0-0.8359-0.1875-2.039-0.9961-2.039-0.8164 0-1 1.203-1 2.039zm2.691 0c0 1.449-0.5117 2.605-1.691 2.605-1.184 0-1.691-1.156-1.691-2.605 0-1.441 0.5078-2.605 1.691-2.605 1.18 0 1.691 1.164 1.691 2.605" fill="#231f1f"/>
<path transform="matrix(.1 0 0 -.1 0 221.3)" d="m400.6 1047h-40.08" fill="none" stroke="#231f1f" stroke-width="5"/>
<path d="m28.3 115.8c0.4492 0 0.8125-0.3516 0.8125-0.8047 0-0.4766-0.3711-0.8125-0.8125-0.8125-0.4688 0-0.8125 0.3359-0.8125 0.8125 0 0.4531 0.3438 0.8047 0.8125 0.8047zm0 2.465c0.5625 0 0.9688-0.3828 0.9688-0.9453 0-0.5391-0.4062-0.9375-0.9688-0.9375-0.5664 0-0.9727 0.3906-0.9727 0.9375 0 0.5625 0.3984 0.9453 0.9727 0.9453zm1.66-0.9102c0 0.9336-0.7617 1.48-1.66 1.48-0.9023 0-1.664-0.5469-1.664-1.48 0-0.6562 0.4258-1.121 0.9375-1.258v-0.01562c-0.4414-0.1523-0.7656-0.5625-0.7656-1.105 0-0.8203 0.6719-1.355 1.492-1.355 0.8125 0 1.484 0.5156 1.484 1.34 0 0.5391-0.3125 0.9727-0.7617 1.121v0.01562c0.5312 0.1289 0.9375 0.6211 0.9375 1.258" fill="#231f1f"/>
<path d="m31.47 116.3c0 0.8438 0.1836 2.035 1 2.035 0.8086 0 0.9961-1.191 0.9961-2.035 0-0.832-0.1875-2.035-0.9961-2.035-0.8164 0-1 1.203-1 2.035zm2.691 0c0 1.453-0.5117 2.609-1.691 2.609-1.184 0-1.691-1.156-1.691-2.609 0-1.441 0.5078-2.605 1.691-2.605 1.18 0 1.691 1.164 1.691 2.605" fill="#231f1f"/>
<path transform="matrix(.1 0 0 -.1 0 221.3)" d="m400.6 1233h-40.08" fill="none" stroke="#231f1f" stroke-width="5"/>
<path d="m24.71 100.1h-0.6797v-4.133l-0.9375 0.7852-0.3984-0.4688 1.406-1.141h0.6094v4.957" fill="#231f1f"/>
<path d="m27.3 97.65c0 0.8398 0.1797 2.031 1 2.031 0.8047 0 0.9961-1.191 0.9961-2.031 0-0.8359-0.1914-2.039-0.9961-2.039-0.8203 0-1 1.203-1 2.039zm2.688 0c0 1.449-0.5117 2.605-1.688 2.605-1.184 0-1.695-1.156-1.695-2.605 0-1.445 0.5117-2.609 1.695-2.609 1.176 0 1.688 1.164 1.688 2.609" fill="#231f1f"/>
<path d="m31.47 97.65c0 0.8398 0.1836 2.031 1 2.031 0.8086 0 0.9961-1.191 0.9961-2.031 0-0.8359-0.1875-2.039-0.9961-2.039-0.8164 0-1 1.203-1 2.039zm2.691 0c0 1.449-0.5117 2.605-1.691 2.605-1.184 0-1.691-1.156-1.691-2.605 0-1.445 0.5078-2.609 1.691-2.609 1.18 0 1.691 1.164 1.691 2.609" fill="#231f1f"/>
<path transform="matrix(.1 0 0 -.1 0 221.3)" d="m400.6 1612h-40.08" fill="none" stroke="#231f1f" stroke-width="5"/>
<path d="m24.71 62.23h-0.6797v-4.133l-0.9375 0.7852-0.3984-0.4688 1.406-1.141h0.6094v4.957" fill="#231f1f"/>
<path d="m28.72 58.05h-0.01172l-1.57 2.484h1.582zm0.6602 2.484h0.7148v0.582h-0.7148v1.113h-0.6602v-1.113h-2.285v-0.6172l2.109-3.227h0.8359v3.262" fill="#231f1f"/>
<path d="m31.47 59.75c0 0.8438 0.1836 2.031 1 2.031 0.8086 0 0.9961-1.188 0.9961-2.031 0-0.832-0.1875-2.035-0.9961-2.035-0.8164 0-1 1.203-1 2.035zm2.691 0c0 1.453-0.5117 2.609-1.691 2.609-1.184 0-1.691-1.156-1.691-2.609 0-1.441 0.5078-2.602 1.691-2.602 1.18 0 1.691 1.16 1.691 2.602" fill="#231f1f"/>
<path transform="matrix(.1 0 0 -.1 0 221.3)" d="m400.6 1424h-40.08" fill="none" stroke="#231f1f" stroke-width="5"/>
<path d="m24.71 81.12h-0.6797v-4.133l-0.9375 0.7852-0.3984-0.4688 1.406-1.145h0.6094v4.961" fill="#231f1f"/>
<path d="m29.88 81.12h-3.234v-0.6523l1.973-1.961c0.3008-0.3086 0.5469-0.6289 0.5469-1.051 0-0.5156-0.3906-0.8555-0.8828-0.8555-0.5039 0-0.8477 0.3672-0.9297 0.8633l-0.668-0.1133c0.1211-0.7539 0.7578-1.316 1.605-1.316 0.8242 0 1.566 0.4844 1.566 1.41 0 0.6367-0.3633 1.07-0.7969 1.496l-1.609 1.57h2.43v0.6094" fill="#231f1f"/>
<path d="m31.47 78.64c0 0.8398 0.1836 2.031 1 2.031 0.8086 0 0.9961-1.191 0.9961-2.031 0-0.832-0.1875-2.039-0.9961-2.039-0.8164 0-1 1.207-1 2.039zm2.691 0c0 1.449-0.5117 2.605-1.691 2.605-1.184 0-1.691-1.156-1.691-2.605 0-1.441 0.5078-2.605 1.691-2.605 1.18 0 1.691 1.164 1.691 2.605" fill="#231f1f"/>
<path transform="matrix(.1 0 0 -.1 0 221.3)" d="m400.6 1800h-40.08" fill="none" stroke="#231f1f" stroke-width="5"/>
<path d="m24.71 43.5h-0.6797v-4.133l-0.9375 0.7852-0.3984-0.4688 1.406-1.141h0.6094v4.957" fill="#231f1f"/>
<path d="m28.3 43.06c0.6094 0 1.023-0.4453 1.023-1.059 0-0.5977-0.3984-1.035-1.016-1.035-0.6211 0-1.035 0.4336-1.035 1.043 0 0.582 0.4141 1.051 1.027 1.051zm-0.4609-2.516 0.007812 0.01172c0.1406-0.08203 0.4062-0.1328 0.6172-0.1328 0.8672 0 1.547 0.6523 1.547 1.555 0 0.9883-0.7344 1.656-1.711 1.656-0.9844 0-1.715-0.6953-1.715-1.633 0-0.5391 0.1953-0.9531 0.4844-1.41l1.297-2.043h0.8047l-1.332 1.996" fill="#231f1f"/>
<path d="m31.47 41.02c0 0.8438 0.1836 2.035 1 2.035 0.8086 0 0.9961-1.191 0.9961-2.035 0-0.832-0.1875-2.035-0.9961-2.035-0.8164 0-1 1.203-1 2.035zm2.691 0c0 1.453-0.5117 2.609-1.691 2.609-1.184 0-1.691-1.156-1.691-2.609 0-1.441 0.5078-2.602 1.691-2.602 1.18 0 1.691 1.16 1.691 2.602" fill="#231f1f"/>
<path transform="matrix(.1 0 0 -.1 0 221.3)" d="m400.6 2184h-40.08" fill="none" stroke="#231f1f" stroke-width="5"/>
<path d="m25.71 5.082h-3.238v-0.6484l1.977-1.961c0.3008-0.3086 0.5469-0.6328 0.5469-1.051 0-0.5195-0.3945-0.8555-0.8828-0.8555-0.5039 0-0.8477 0.3633-0.9336 0.8594l-0.6641-0.1094c0.1211-0.7578 0.7578-1.32 1.605-1.32 0.8242 0 1.566 0.4844 1.566 1.41 0 0.6367-0.3633 1.07-0.7969 1.5l-1.609 1.566h2.43v0.6094" fill="#231f1f"/>
<path d="m27.3 2.605c0 0.8398 0.1797 2.031 1 2.031 0.8047 0 0.9961-1.191 0.9961-2.031 0-0.8359-0.1914-2.039-0.9961-2.039-0.8203 0-1 1.203-1 2.039zm2.688 0c0 1.449-0.5117 2.605-1.688 2.605-1.184 0-1.695-1.156-1.695-2.605 0-1.445 0.5117-2.609 1.695-2.609 1.176 0 1.688 1.164 1.688 2.609" fill="#231f1f"/>
<path d="m31.47 2.605c0 0.8398 0.1836 2.031 1 2.031 0.8086 0 0.9961-1.191 0.9961-2.031 0-0.8359-0.1875-2.039-0.9961-2.039-0.8164 0-1 1.203-1 2.039zm2.691 0c0 1.449-0.5117 2.605-1.691 2.605-1.184 0-1.691-1.156-1.691-2.605 0-1.445 0.5078-2.609 1.691-2.609 1.18 0 1.691 1.164 1.691 2.609" fill="#231f1f"/>
<path transform="matrix(.1 0 0 -.1 0 221.3)" d="m400.6 1995h-40.08" fill="none" stroke="#231f1f" stroke-width="5"/>
<path d="m24.71 23.97h-0.6797v-4.133l-0.9375 0.7852-0.3984-0.4688 1.406-1.141h0.6094v4.957" fill="#231f1f"/>
<path d="m28.3 21.07c0.4492 0 0.8125-0.3516 0.8125-0.8047 0-0.4766-0.3711-0.8125-0.8125-0.8125-0.4688 0-0.8125 0.3359-0.8125 0.8125 0 0.4531 0.3438 0.8047 0.8125 0.8047zm0 2.465c0.5625 0 0.9688-0.3867 0.9688-0.9453 0-0.5391-0.4062-0.9375-0.9688-0.9375-0.5664 0-0.9727 0.3906-0.9727 0.9375 0 0.5586 0.3984 0.9453 0.9727 0.9453zm1.66-0.9102c0 0.9297-0.7617 1.477-1.66 1.477-0.9023 0-1.664-0.5469-1.664-1.477 0-0.6602 0.4258-1.121 0.9375-1.262v-0.01172c-0.4414-0.1562-0.7656-0.5625-0.7656-1.109 0-0.8164 0.6719-1.352 1.492-1.352 0.8125 0 1.484 0.5117 1.484 1.34 0 0.5391-0.3125 0.9727-0.7617 1.121v0.01172c0.5312 0.1328 0.9375 0.625 0.9375 1.262" fill="#231f1f"/>
<path d="m31.47 21.49c0 0.8398 0.1836 2.031 1 2.031 0.8086 0 0.9961-1.191 0.9961-2.031 0-0.832-0.1875-2.039-0.9961-2.039-0.8164 0-1 1.207-1 2.039zm2.691 0c0 1.449-0.5117 2.605-1.691 2.605-1.184 0-1.691-1.156-1.691-2.605 0-1.441 0.5078-2.605 1.691-2.605 1.18 0 1.691 1.164 1.691 2.605" fill="#231f1f"/>
<path d="m176.9 181.7h-42.33v-50.67h42.33v50.67" fill="#fef0ca"/>
<path d="m148 157.5h0.01172v-3.965h0.6953v4.961h-0.875l-2.621-4.051h-0.01172v4.051h-0.6953v-4.961h0.9062l2.59 3.965" fill="#231f1f"/>
<path d="m151.3 155.6c-0.707 0-1.105 0.5703-1.105 1.199 0 0.6289 0.3984 1.203 1.105 1.203 0.7148 0 1.109-0.5742 1.109-1.203 0-0.6289-0.3945-1.199-1.109-1.199zm0 2.957c-1.016 0-1.785-0.7344-1.785-1.758 0-1.023 0.7695-1.742 1.785-1.742s1.793 0.7188 1.793 1.742c0 1.023-0.7773 1.758-1.793 1.758" fill="#231f1f"/>
<path d="m154 155.1h0.6211c0.01562 0.168 0.02734 0.418 0.02734 0.5586h0.02344c0.1797-0.3828 0.5664-0.6484 1.016-0.6484 0.08984 0 0.1797 0.003906 0.2578 0.02734l-0.02734 0.6094c-0.08594-0.02344-0.1953-0.03516-0.3008-0.03516-0.6289 0-0.9336 0.5117-0.9336 1.062v1.746h-0.6562v-2.605c0-0.1758-0.007813-0.5-0.02734-0.7148" fill="#231f1f"/>
<path d="m158.1 155.1c0.4414 0 0.8281 0.1953 1.031 0.6641 0.2227-0.4258 0.6562-0.6641 1.129-0.6641 0.8516 0 1.238 0.6094 1.238 1.352v2.059h-0.6602v-1.844c0-0.5391-0.1602-1.016-0.7344-1.016-0.6016 0-0.8398 0.5469-0.8398 1.066v1.793h-0.6602v-1.977c0-0.5156-0.1719-0.8828-0.6992-0.8828-0.4844 0-0.8477 0.4336-0.8477 1.094v1.766h-0.6562v-2.605c0-0.1758-0.007812-0.5-0.03125-0.7148h0.625c0.01563 0.168 0.02734 0.4062 0.02734 0.5469h0.02344c0.168-0.3516 0.5508-0.6367 1.055-0.6367" fill="#231f1f"/>
<path d="m164.5 156.9c-0.6523 0-1.477 0.07031-1.477 0.6289 0 0.3906 0.3477 0.5195 0.6797 0.5195 0.6133 0 0.957-0.4141 0.957-0.9766v-0.1719zm0.1602-0.5703c0-0.4883-0.3281-0.7266-0.8203-0.7266-0.3711 0-0.7188 0.1602-0.9453 0.3867l-0.3477-0.4219c0.3203-0.3086 0.8164-0.4961 1.359-0.4961 0.9492 0 1.387 0.5664 1.387 1.301v1.449c0 0.2266 0.01172 0.5 0.04688 0.6602h-0.5938c-0.03516-0.1484-0.05859-0.3242-0.05859-0.4766h-0.01953c-0.2383 0.3555-0.6172 0.5586-1.113 0.5586-0.5273 0-1.207-0.2578-1.207-1.023 0-1 1.191-1.117 2.312-1.117v-0.09375" fill="#231f1f"/>
<path d="m167 158.5h-0.6602v-5.297h0.6602v5.297" fill="#231f1f"/>
</svg>
