<?xml version="1.0" encoding="UTF-8"?>
<svg width="178.9pt" height="372.9pt" version="1.1" viewBox="0 0 178.9 372.9" xmlns="http://www.w3.org/2000/svg">
<defs>
<clipPath id="e">
<path d="m15 364h3v8.941h-3z"/>
</clipPath>
<clipPath id="d">
<path d="m26 364h3v8.941h-3z"/>
</clipPath>
<clipPath id="c">
<path d="m174 356h4.922v7h-4.922z"/>
</clipPath>
<clipPath id="b">
<path d="m150 364h2v8.941h-2z"/>
</clipPath>
<clipPath id="a">
<path d="m160 364h3v8.941h-3z"/>
</clipPath>
</defs>
<path transform="matrix(.1 0 0 -.1 0 372.9)" d="m334.5 3693v-3226" fill="none" stroke="#231f1f" stroke-miterlimit="10" stroke-width="10"/>
<path transform="matrix(.1 0 0 -.1 0 372.9)" d="m877.9 3693v-3226" fill="none" stroke="#231f1f" stroke-miterlimit="10" stroke-width="10"/>
<path transform="matrix(.1 0 0 -.1 0 372.9)" d="m1412 3693v-3226" fill="none" stroke="#231f1f" stroke-miterlimit="10" stroke-width="10"/>
<path transform="matrix(.1 0 0 -.1 0 372.9)" d="m283.6 1146h101.9" fill="none" stroke="#231f1f" stroke-miterlimit="10" stroke-width="10"/>
<path transform="matrix(.1 0 0 -.1 0 372.9)" d="m283.6 938.2h101.9" fill="none" stroke="#231f1f" stroke-miterlimit="10" stroke-width="10"/>
<path transform="matrix(.1 0 0 -.1 0 372.9)" d="m283.6 668.2h101.9" fill="none" stroke="#231f1f" stroke-miterlimit="10" stroke-width="10"/>
<path transform="matrix(.1 0 0 -.1 0 372.9)" d="m283.6 1377h101.9" fill="none" stroke="#231f1f" stroke-miterlimit="10" stroke-width="10"/>
<path transform="matrix(.1 0 0 -.1 0 372.9)" d="m283.6 1521h101.9" fill="none" stroke="#231f1f" stroke-miterlimit="10" stroke-width="10"/>
<path transform="matrix(.1 0 0 -.1 0 372.9)" d="m283.6 1647h101.9" fill="none" stroke="#231f1f" stroke-miterlimit="10" stroke-width="10"/>
<path transform="matrix(.1 0 0 -.1 0 372.9)" d="m283.6 1758h101.9" fill="none" stroke="#231f1f" stroke-miterlimit="10" stroke-width="10"/>
<path transform="matrix(.1 0 0 -.1 0 372.9)" d="m283.6 1879h101.9" fill="none" stroke="#231f1f" stroke-miterlimit="10" stroke-width="10"/>
<path transform="matrix(.1 0 0 -.1 0 372.9)" d="m283.6 1999h101.9" fill="none" stroke="#231f1f" stroke-miterlimit="10" stroke-width="10"/>
<path transform="matrix(.1 0 0 -.1 0 372.9)" d="m283.6 2146h101.9" fill="none" stroke="#231f1f" stroke-miterlimit="10" stroke-width="10"/>
<path transform="matrix(.1 0 0 -.1 0 372.9)" d="m283.6 2371h101.9" fill="none" stroke="#231f1f" stroke-miterlimit="10" stroke-width="10"/>
<path transform="matrix(.1 0 0 -.1 0 372.9)" d="m283.6 2578h101.9" fill="none" stroke="#231f1f" stroke-miterlimit="10" stroke-width="10"/>
<path transform="matrix(.1 0 0 -.1 0 372.9)" d="m283.6 2843h101.9" fill="none" stroke="#231f1f" stroke-miterlimit="10" stroke-width="10"/>
<path transform="matrix(.1 0 0 -.1 0 372.9)" d="m283.6 3051h101.9" fill="none" stroke="#231f1f" stroke-miterlimit="10" stroke-width="10"/>
<path transform="matrix(.1 0 0 -.1 0 372.9)" d="m283.6 3246h101.9" fill="none" stroke="#231f1f" stroke-miterlimit="10" stroke-width="10"/>
<path transform="matrix(.1 0 0 -.1 0 372.9)" d="m283.6 3497h101.9" fill="none" stroke="#231f1f" stroke-miterlimit="10" stroke-width="10"/>
<path transform="matrix(.1 0 0 -.1 0 372.9)" d="m283.6 3693h101.9" fill="none" stroke="#231f1f" stroke-miterlimit="10" stroke-width="10"/>
<path transform="matrix(.1 0 0 -.1 0 372.9)" d="m283.6 467.3h101.9" fill="none" stroke="#231f1f" stroke-miterlimit="10" stroke-width="10"/>
<path transform="matrix(.1 0 0 -.1 0 372.9)" d="m1361 472.6h101.9" fill="none" stroke="#231f1f" stroke-miterlimit="10" stroke-width="10"/>
<path transform="matrix(.1 0 0 -.1 0 372.9)" d="m1361 666.1h101.9" fill="none" stroke="#231f1f" stroke-miterlimit="10" stroke-width="10"/>
<path transform="matrix(.1 0 0 -.1 0 372.9)" d="m1361 919.2h101.9" fill="none" stroke="#231f1f" stroke-miterlimit="10" stroke-width="10"/>
<path transform="matrix(.1 0 0 -.1 0 372.9)" d="m1361 1115h101.9" fill="none" stroke="#231f1f" stroke-miterlimit="10" stroke-width="10"/>
<path transform="matrix(.1 0 0 -.1 0 372.9)" d="m1361 1323h101.9" fill="none" stroke="#231f1f" stroke-miterlimit="10" stroke-width="10"/>
<path transform="matrix(.1 0 0 -.1 0 372.9)" d="m1361 1584h101.9" fill="none" stroke="#231f1f" stroke-miterlimit="10" stroke-width="10"/>
<path transform="matrix(.1 0 0 -.1 0 372.9)" d="m1361 1793h101.9" fill="none" stroke="#231f1f" stroke-miterlimit="10" stroke-width="10"/>
<path transform="matrix(.1 0 0 -.1 0 372.9)" d="m1361 2017h101.9" fill="none" stroke="#231f1f" stroke-miterlimit="10" stroke-width="10"/>
<path transform="matrix(.1 0 0 -.1 0 372.9)" d="m1361 2166h101.9" fill="none" stroke="#231f1f" stroke-miterlimit="10" stroke-width="10"/>
<path transform="matrix(.1 0 0 -.1 0 372.9)" d="m1361 2286h101.9" fill="none" stroke="#231f1f" stroke-miterlimit="10" stroke-width="10"/>
<path transform="matrix(.1 0 0 -.1 0 372.9)" d="m1361 2405h101.9" fill="none" stroke="#231f1f" stroke-miterlimit="10" stroke-width="10"/>
<path transform="matrix(.1 0 0 -.1 0 372.9)" d="m1361 2517h101.9" fill="none" stroke="#231f1f" stroke-miterlimit="10" stroke-width="10"/>
<path transform="matrix(.1 0 0 -.1 0 372.9)" d="m1361 2644h101.9" fill="none" stroke="#231f1f" stroke-miterlimit="10" stroke-width="10"/>
<path transform="matrix(.1 0 0 -.1 0 372.9)" d="m1361 2787h101.9" fill="none" stroke="#231f1f" stroke-miterlimit="10" stroke-width="10"/>
<path transform="matrix(.1 0 0 -.1 0 372.9)" d="m1361 3017h101.9" fill="none" stroke="#231f1f" stroke-miterlimit="10" stroke-width="10"/>
<path transform="matrix(.1 0 0 -.1 0 372.9)" d="m1361 3226h101.9" fill="none" stroke="#231f1f" stroke-miterlimit="10" stroke-width="10"/>
<path transform="matrix(.1 0 0 -.1 0 372.9)" d="m1363 3495h101.9" fill="none" stroke="#231f1f" stroke-miterlimit="10" stroke-width="10"/>
<path transform="matrix(.1 0 0 -.1 0 372.9)" d="m1361 3697h101.9" fill="none" stroke="#231f1f" stroke-miterlimit="10" stroke-width="10"/>
<path transform="matrix(.1 0 0 -.1 0 372.9)" d="m826.9 1011h101.9" fill="none" stroke="#231f1f" stroke-miterlimit="10" stroke-width="10"/>
<path transform="matrix(.1 0 0 -.1 0 372.9)" d="m826.9 1099h101.9" fill="none" stroke="#231f1f" stroke-miterlimit="10" stroke-width="10"/>
<path transform="matrix(.1 0 0 -.1 0 372.9)" d="m826.9 1211h101.9" fill="none" stroke="#231f1f" stroke-miterlimit="10" stroke-width="10"/>
<path transform="matrix(.1 0 0 -.1 0 372.9)" d="m826.9 1337h101.9" fill="none" stroke="#231f1f" stroke-miterlimit="10" stroke-width="10"/>
<path transform="matrix(.1 0 0 -.1 0 372.9)" d="m826.9 1428h101.9" fill="none" stroke="#231f1f" stroke-miterlimit="10" stroke-width="10"/>
<path transform="matrix(.1 0 0 -.1 0 372.9)" d="m826.9 1539h101.9" fill="none" stroke="#231f1f" stroke-miterlimit="10" stroke-width="10"/>
<path transform="matrix(.1 0 0 -.1 0 372.9)" d="m826.9 1666h101.9" fill="none" stroke="#231f1f" stroke-miterlimit="10" stroke-width="10"/>
<path transform="matrix(.1 0 0 -.1 0 372.9)" d="m826.9 1755h101.9" fill="none" stroke="#231f1f" stroke-miterlimit="10" stroke-width="10"/>
<path transform="matrix(.1 0 0 -.1 0 372.9)" d="m826.9 1853h101.9" fill="none" stroke="#231f1f" stroke-miterlimit="10" stroke-width="10"/>
<path transform="matrix(.1 0 0 -.1 0 372.9)" d="m826.9 1988h101.9" fill="none" stroke="#231f1f" stroke-miterlimit="10" stroke-width="10"/>
<path transform="matrix(.1 0 0 -.1 0 372.9)" d="m826.9 2078h101.9" fill="none" stroke="#231f1f" stroke-miterlimit="10" stroke-width="10"/>
<path transform="matrix(.1 0 0 -.1 0 372.9)" d="m826.9 2166h101.9" fill="none" stroke="#231f1f" stroke-miterlimit="10" stroke-width="10"/>
<path transform="matrix(.1 0 0 -.1 0 372.9)" d="m826.9 2293h101.9" fill="none" stroke="#231f1f" stroke-miterlimit="10" stroke-width="10"/>
<path transform="matrix(.1 0 0 -.1 0 372.9)" d="m826.9 2398h101.9" fill="none" stroke="#231f1f" stroke-miterlimit="10" stroke-width="10"/>
<path transform="matrix(.1 0 0 -.1 0 372.9)" d="m826.9 2489h101.9" fill="none" stroke="#231f1f" stroke-miterlimit="10" stroke-width="10"/>
<path transform="matrix(.1 0 0 -.1 0 372.9)" d="m826.9 2616h101.9" fill="none" stroke="#231f1f" stroke-miterlimit="10" stroke-width="10"/>
<path transform="matrix(.1 0 0 -.1 0 372.9)" d="m826.9 2719h101.9" fill="none" stroke="#231f1f" stroke-miterlimit="10" stroke-width="10"/>
<path transform="matrix(.1 0 0 -.1 0 372.9)" d="m826.9 2816h101.9" fill="none" stroke="#231f1f" stroke-miterlimit="10" stroke-width="10"/>
<path transform="matrix(.1 0 0 -.1 0 372.9)" d="m826.9 2936h101.9" fill="none" stroke="#231f1f" stroke-miterlimit="10" stroke-width="10"/>
<path transform="matrix(.1 0 0 -.1 0 372.9)" d="m826.9 3047h101.9" fill="none" stroke="#231f1f" stroke-miterlimit="10" stroke-width="10"/>
<path transform="matrix(.1 0 0 -.1 0 372.9)" d="m826.9 3138h101.9" fill="none" stroke="#231f1f" stroke-miterlimit="10" stroke-width="10"/>
<path d="m20.4 323.7c-0.6094 0-1.031 0.4492-1.031 1.066 0 0.5938 0.4062 1.035 1.023 1.035 0.625 0 1.035-0.4336 1.035-1.043 0-0.582-0.4102-1.059-1.027-1.059zm0.4609 2.516-0.007813-0.007813c-0.07031 0.04297-0.1758 0.07812-0.2852 0.09766-0.1133 0.02344-0.2305 0.03516-0.3359 0.03516-0.8711 0-1.551-0.6484-1.551-1.555 0-0.9883 0.7422-1.652 1.719-1.652 0.9805 0 1.707 0.6953 1.707 1.633 0 0.5391-0.1953 0.9531-0.4766 1.406l-1.293 2.047h-0.8086l1.332-2.004" fill="#231f1f"/>
<path d="m24.56 323.7c-0.6094 0-1.031 0.4492-1.031 1.066 0 0.5938 0.4062 1.035 1.023 1.035 0.625 0 1.039-0.4336 1.039-1.043 0-0.582-0.4141-1.059-1.031-1.059zm0.4609 2.516-0.007813-0.007813c-0.06641 0.04297-0.1719 0.07812-0.2852 0.09766-0.1133 0.02344-0.2305 0.03516-0.3359 0.03516-0.8672 0-1.547-0.6484-1.547-1.555 0-0.9883 0.7422-1.652 1.715-1.652 0.9805 0 1.707 0.6953 1.707 1.633 0 0.5391-0.1953 0.9531-0.4766 1.406l-1.293 2.047h-0.8047l1.328-2.004" fill="#231f1f"/>
<path d="m151 0.5703c-0.6094 0-1.031 0.4492-1.031 1.066 0 0.5938 0.4062 1.035 1.023 1.035 0.625 0 1.039-0.4336 1.039-1.043 0-0.582-0.4141-1.059-1.031-1.059zm0.4609 2.516-0.003906-0.007813c-0.07031 0.04297-0.1758 0.07812-0.2891 0.09766-0.1133 0.02344-0.2305 0.03516-0.3359 0.03516-0.8672 0-1.547-0.6484-1.547-1.555 0-0.9844 0.7422-1.652 1.715-1.652 0.9805 0 1.711 0.6914 1.711 1.633 0 0.5391-0.1992 0.9531-0.4766 1.406l-1.297 2.047h-0.8047l1.328-2.004" fill="#231f1f"/>
<path d="m155.1 0.5703c-0.6094 0-1.027 0.4492-1.027 1.066 0 0.5938 0.4062 1.035 1.02 1.035 0.625 0 1.039-0.4336 1.039-1.043 0-0.582-0.4141-1.059-1.031-1.059zm0.4648 2.516-0.007812-0.007813c-0.07031 0.04297-0.1758 0.07812-0.2891 0.09766-0.1094 0.02344-0.2305 0.03516-0.3359 0.03516-0.8672 0-1.547-0.6484-1.547-1.555 0-0.9844 0.7422-1.652 1.715-1.652 0.9805 0 1.711 0.6914 1.711 1.633 0 0.5391-0.1953 0.9531-0.4766 1.406l-1.297 2.047h-0.8047l1.332-2.004" fill="#231f1f"/>
<path d="m20.4 303.8c-0.6094 0-1.031 0.4453-1.031 1.062 0 0.5977 0.4062 1.035 1.023 1.035 0.625 0 1.035-0.4336 1.035-1.043 0-0.582-0.4102-1.055-1.027-1.055zm0.4609 2.512-0.007813-0.007813c-0.07031 0.04297-0.1758 0.07813-0.2852 0.1016-0.1133 0.01953-0.2305 0.03125-0.3359 0.03125-0.8711 0-1.551-0.6484-1.551-1.555 0-0.9844 0.7422-1.652 1.719-1.652 0.9805 0 1.707 0.6953 1.707 1.633 0 0.5391-0.1953 0.9531-0.4766 1.406l-1.293 2.047h-0.8086l1.332-2.004" fill="#231f1f"/>
<path d="m24.55 305.4c0.4492 0 0.8125-0.3516 0.8125-0.8047 0-0.4766-0.3711-0.8125-0.8125-0.8125-0.4688 0-0.8125 0.3359-0.8125 0.8125 0 0.4531 0.3438 0.8047 0.8125 0.8047zm0 2.465c0.5586 0 0.9688-0.3828 0.9688-0.9453 0-0.5391-0.4102-0.9375-0.9688-0.9375-0.5664 0-0.9727 0.3906-0.9727 0.9375 0 0.5625 0.3984 0.9453 0.9727 0.9453zm1.66-0.9102c0 0.9297-0.7617 1.477-1.66 1.477-0.9023 0-1.668-0.5469-1.668-1.477 0-0.6602 0.4297-1.121 0.9414-1.262v-0.01172c-0.4414-0.1562-0.7656-0.5625-0.7656-1.109 0-0.8203 0.6719-1.352 1.492-1.352 0.8125 0 1.484 0.5117 1.484 1.34 0 0.5391-0.3164 0.9727-0.7617 1.121v0.01172c0.5312 0.1328 0.9375 0.625 0.9375 1.262" fill="#231f1f"/>
<path d="m151 20.98c-0.6094 0-1.031 0.4492-1.031 1.066 0 0.5938 0.4062 1.035 1.023 1.035 0.625 0 1.039-0.4336 1.039-1.043 0-0.582-0.4141-1.059-1.031-1.059zm0.4609 2.516-0.003906-0.007813c-0.07031 0.04297-0.1758 0.07812-0.2891 0.09766-0.1133 0.01953-0.2305 0.03516-0.3359 0.03516-0.8672 0-1.547-0.6523-1.547-1.555 0-0.9883 0.7422-1.652 1.715-1.652 0.9805 0 1.711 0.6914 1.711 1.633 0 0.5391-0.1992 0.9492-0.4766 1.406l-1.297 2.043h-0.8047l1.328-2" fill="#231f1f"/>
<path d="m155.1 22.59c0.4492 0 0.8125-0.3516 0.8125-0.8086 0-0.4766-0.3711-0.8125-0.8125-0.8125-0.4688 0-0.8125 0.3359-0.8125 0.8125 0 0.457 0.3438 0.8086 0.8125 0.8086zm0 2.465c0.5625 0 0.9688-0.3867 0.9688-0.9492 0-0.5391-0.4062-0.9375-0.9688-0.9375-0.5664 0-0.9727 0.3945-0.9727 0.9375 0 0.5625 0.3984 0.9492 0.9727 0.9492zm1.66-0.9102c0 0.9297-0.7617 1.477-1.66 1.477-0.9023 0-1.664-0.5469-1.664-1.477 0-0.6602 0.4258-1.121 0.9375-1.262v-0.01562c-0.4414-0.1523-0.7617-0.5586-0.7617-1.105 0-0.8203 0.6719-1.352 1.488-1.352 0.8125 0 1.488 0.5117 1.488 1.336 0 0.5391-0.3164 0.9766-0.7656 1.121v0.01562c0.5312 0.1328 0.9375 0.6211 0.9375 1.262" fill="#231f1f"/>
<path d="m20.4 276.9c-0.6094 0-1.031 0.4492-1.031 1.066 0 0.5938 0.4062 1.035 1.023 1.035 0.625 0 1.035-0.4336 1.035-1.043 0-0.582-0.4102-1.059-1.027-1.059zm0.4609 2.516-0.007813-0.007812c-0.07031 0.03906-0.1758 0.07812-0.2852 0.09766-0.1133 0.01953-0.2305 0.03516-0.3359 0.03516-0.8711 0-1.551-0.6523-1.551-1.555 0-0.9883 0.7422-1.652 1.719-1.652 0.9805 0 1.707 0.6914 1.707 1.633 0 0.5391-0.1953 0.9492-0.4766 1.406l-1.293 2.043h-0.8086l1.332-2" fill="#231f1f"/>
<path d="m25.9 277.1h-2.043l-0.04297 1.305c0.1836-0.0625 0.4336-0.09375 0.6367-0.09375 0.9531 0 1.66 0.6016 1.66 1.562 0 1.035-0.7422 1.711-1.73 1.711-0.7695 0-1.316-0.3945-1.582-0.9961l0.6172-0.2461c0.1523 0.3984 0.5234 0.668 0.9648 0.668 0.582 0 1.039-0.4297 1.039-1.066 0-0.75-0.5469-1.086-1.164-1.086-0.3711 0-0.793 0.1133-1.098 0.2734l0.06641-2.633h2.676v0.6016" fill="#231f1f"/>
<path d="m151 47.65c-0.6094 0-1.031 0.4453-1.031 1.062 0 0.5977 0.4062 1.035 1.023 1.035 0.625 0 1.039-0.4336 1.039-1.043 0-0.5781-0.4141-1.055-1.031-1.055zm0.4609 2.512-0.003906-0.007812c-0.07031 0.04297-0.1758 0.07812-0.2891 0.1016-0.1133 0.01953-0.2305 0.03516-0.3359 0.03516-0.8672 0-1.547-0.6523-1.547-1.555 0-0.9883 0.7422-1.656 1.715-1.656 0.9805 0 1.711 0.6953 1.711 1.633 0 0.5391-0.1992 0.9531-0.4766 1.41l-1.297 2.043h-0.8047l1.328-2.004" fill="#231f1f"/>
<path d="m156.5 47.81h-2.047l-0.04297 1.301c0.1836-0.0625 0.4375-0.08984 0.6406-0.08984 0.9492 0 1.66 0.6016 1.66 1.562 0 1.035-0.7461 1.707-1.73 1.707-0.7734 0-1.316-0.3906-1.586-0.9922l0.6172-0.2461c0.1562 0.3984 0.5273 0.668 0.9688 0.668 0.5781 0 1.035-0.4297 1.035-1.066 0-0.75-0.5469-1.086-1.164-1.086-0.3711 0-0.7891 0.1133-1.098 0.2734l0.07031-2.633h2.676v0.6016" fill="#231f1f"/>
<path d="m20.4 256.2c-0.6094 0-1.031 0.4453-1.031 1.062 0 0.5977 0.4062 1.035 1.023 1.035 0.625 0 1.035-0.4336 1.035-1.043 0-0.582-0.4102-1.055-1.027-1.055zm0.4609 2.512-0.007813-0.007813c-0.07031 0.04297-0.1758 0.07813-0.2852 0.1016-0.1133 0.01953-0.2305 0.03125-0.3359 0.03125-0.8711 0-1.551-0.6484-1.551-1.555 0-0.9844 0.7422-1.652 1.719-1.652 0.9805 0 1.707 0.6953 1.707 1.633 0 0.5391-0.1953 0.9531-0.4766 1.406l-1.293 2.047h-0.8086l1.332-2.004" fill="#231f1f"/>
<path d="m23.55 258.2c0 0.8398 0.1797 2.031 1 2.031 0.8047 0 0.9961-1.191 0.9961-2.031 0-0.832-0.1914-2.035-0.9961-2.035-0.8203 0-1 1.203-1 2.035zm2.688 0c0 1.449-0.5117 2.605-1.688 2.605-1.184 0-1.695-1.156-1.695-2.605 0-1.441 0.5117-2.605 1.695-2.605 1.176 0 1.688 1.164 1.688 2.605" fill="#231f1f"/>
<path d="m151 69.09c-0.6094 0-1.031 0.4492-1.031 1.066 0 0.5938 0.4062 1.035 1.023 1.035 0.625 0 1.039-0.4336 1.039-1.043 0-0.582-0.4141-1.059-1.031-1.059zm0.4609 2.516-0.003906-0.007812c-0.07031 0.04297-0.1758 0.07812-0.2891 0.09766-0.1133 0.02344-0.2305 0.03516-0.3359 0.03516-0.8672 0-1.547-0.6523-1.547-1.555 0-0.9883 0.7422-1.652 1.715-1.652 0.9805 0 1.711 0.6953 1.711 1.633 0 0.5391-0.1992 0.9531-0.4766 1.406l-1.297 2.047h-0.8047l1.328-2.004" fill="#231f1f"/>
<path d="m154.1 71.12c0 0.8398 0.1836 2.031 1 2.031 0.8086 0 0.9961-1.191 0.9961-2.031 0-0.832-0.1875-2.039-0.9961-2.039-0.8164 0-1 1.207-1 2.039zm2.691 0c0 1.449-0.5117 2.605-1.691 2.605-1.184 0-1.691-1.156-1.691-2.605 0-1.441 0.5078-2.605 1.691-2.605 1.18 0 1.691 1.164 1.691 2.605" fill="#231f1f"/>
<path d="m20.39 234.9c0.4492 0 0.8125-0.3477 0.8125-0.8047 0-0.4766-0.3711-0.8125-0.8125-0.8125-0.4688 0-0.8125 0.3359-0.8125 0.8125 0 0.457 0.3438 0.8047 0.8125 0.8047zm0 2.465c0.5586 0 0.9648-0.3828 0.9648-0.9453 0-0.5391-0.4062-0.9375-0.9648-0.9375-0.5664 0-0.9727 0.3945-0.9727 0.9375 0 0.5625 0.3984 0.9453 0.9727 0.9453zm1.66-0.9102c0 0.9336-0.7656 1.48-1.66 1.48-0.9023 0-1.668-0.5469-1.668-1.48 0-0.6562 0.4297-1.121 0.9375-1.258v-0.01563c-0.4414-0.1523-0.7617-0.5586-0.7617-1.105 0-0.8203 0.6719-1.352 1.492-1.352 0.8125 0 1.484 0.5117 1.484 1.336 0 0.5391-0.3164 0.9727-0.7656 1.121v0.01563c0.5352 0.1328 0.9414 0.6211 0.9414 1.258" fill="#231f1f"/>
<path d="m23.55 235.3c0 0.8398 0.1797 2.031 1 2.031 0.8047 0 0.9961-1.191 0.9961-2.031 0-0.8359-0.1914-2.039-0.9961-2.039-0.8203 0-1 1.203-1 2.039zm2.688 0c0 1.449-0.5117 2.605-1.688 2.605-1.184 0-1.695-1.156-1.695-2.605 0-1.445 0.5117-2.605 1.695-2.605 1.176 0 1.688 1.16 1.688 2.605" fill="#231f1f"/>
<path d="m151 94.2c0.4492 0 0.8125-0.3516 0.8125-0.8047 0-0.4766-0.3711-0.8125-0.8125-0.8125-0.4688 0-0.8125 0.3359-0.8125 0.8125 0 0.4531 0.3438 0.8047 0.8125 0.8047zm0 2.465c0.5625 0 0.9688-0.3828 0.9688-0.9453 0-0.5391-0.4062-0.9375-0.9688-0.9375-0.5664 0-0.9727 0.3906-0.9727 0.9375 0 0.5625 0.3984 0.9453 0.9727 0.9453zm1.66-0.9102c0 0.9336-0.7617 1.477-1.66 1.477-0.9023 0-1.664-0.543-1.664-1.477 0-0.6562 0.4258-1.121 0.9375-1.262v-0.01172c-0.4414-0.1562-0.7656-0.5625-0.7656-1.109 0-0.8164 0.6719-1.352 1.492-1.352 0.8125 0 1.484 0.5117 1.484 1.34 0 0.5391-0.3125 0.9727-0.7617 1.121v0.01172c0.5312 0.1328 0.9375 0.625 0.9375 1.262" fill="#231f1f"/>
<path d="m154.1 94.62c0 0.8438 0.1836 2.031 1 2.031 0.8086 0 0.9961-1.188 0.9961-2.031 0-0.832-0.1875-2.035-0.9961-2.035-0.8164 0-1 1.203-1 2.035zm2.691 0c0 1.449-0.5117 2.605-1.691 2.605-1.184 0-1.691-1.156-1.691-2.605 0-1.441 0.5078-2.605 1.691-2.605 1.18 0 1.691 1.164 1.691 2.605" fill="#231f1f"/>
<path d="m21.91 218.4-1.988 4.34h-0.7773l2.066-4.355h-2.461v-0.6016h3.16v0.6172" fill="#231f1f"/>
<path d="m23.55 220.3c0 0.8398 0.1797 2.031 1 2.031 0.8047 0 0.9961-1.191 0.9961-2.031 0-0.8359-0.1914-2.039-0.9961-2.039-0.8203 0-1 1.203-1 2.039zm2.688 0c0 1.449-0.5117 2.602-1.688 2.602-1.184 0-1.695-1.152-1.695-2.602 0-1.445 0.5117-2.609 1.695-2.609 1.176 0 1.688 1.164 1.688 2.609" fill="#231f1f"/>
<path d="m152.5 106.3-1.988 4.34h-0.7773l2.066-4.355h-2.457v-0.6016h3.156v0.6172" fill="#231f1f"/>
<path d="m154.1 108.1c0 0.8438 0.1836 2.031 1 2.031 0.8086 0 0.9961-1.188 0.9961-2.031 0-0.832-0.1875-2.035-0.9961-2.035-0.8164 0-1 1.203-1 2.035zm2.691 0c0 1.453-0.5117 2.609-1.691 2.609-1.184 0-1.691-1.156-1.691-2.609 0-1.441 0.5078-2.602 1.691-2.602 1.18 0 1.691 1.16 1.691 2.602" fill="#231f1f"/>
<path d="m20.38 209.5c0.6094 0 1.023-0.4414 1.023-1.059 0-0.5938-0.3984-1.039-1.016-1.039-0.625 0-1.039 0.4375-1.039 1.047 0 0.5781 0.4141 1.051 1.031 1.051zm-0.4609-2.516 0.003906 0.01562c0.1406-0.08594 0.4102-0.1328 0.6172-0.1328 0.8711 0 1.551 0.6484 1.551 1.555 0 0.9883-0.7383 1.652-1.711 1.652-0.9883 0-1.715-0.6953-1.715-1.633 0-0.5391 0.1953-0.9531 0.4844-1.406l1.293-2.047h0.8047l-1.328 1.996" fill="#231f1f"/>
<path d="m23.55 207.4c0 0.8398 0.1797 2.031 1 2.031 0.8047 0 0.9961-1.191 0.9961-2.031 0-0.8359-0.1914-2.039-0.9961-2.039-0.8203 0-1 1.203-1 2.039zm2.688 0c0 1.449-0.5117 2.605-1.688 2.605-1.184 0-1.695-1.156-1.695-2.605 0-1.445 0.5117-2.605 1.695-2.605 1.176 0 1.688 1.16 1.688 2.605" fill="#231f1f"/>
<path d="m151 123.1c0.6094 0 1.023-0.4414 1.023-1.059 0-0.5938-0.3984-1.035-1.016-1.035-0.6211 0-1.035 0.4336-1.035 1.043 0 0.582 0.4141 1.051 1.027 1.051zm-0.4609-2.516 0.007813 0.01562c0.1406-0.08594 0.4062-0.1328 0.6172-0.1328 0.8672 0 1.547 0.6484 1.547 1.555 0 0.9883-0.7344 1.652-1.711 1.652-0.9844 0-1.715-0.6953-1.715-1.633 0-0.5391 0.1953-0.9531 0.4844-1.406l1.297-2.047h0.8047l-1.332 1.996" fill="#231f1f"/>
<path d="m154.1 121.1c0 0.8398 0.1836 2.031 1 2.031 0.8086 0 0.9961-1.191 0.9961-2.031 0-0.832-0.1875-2.039-0.9961-2.039-0.8164 0-1 1.207-1 2.039zm2.691 0c0 1.449-0.5117 2.605-1.691 2.605-1.184 0-1.691-1.156-1.691-2.605 0-1.445 0.5078-2.605 1.691-2.605 1.18 0 1.691 1.16 1.691 2.605" fill="#231f1f"/>
<path d="m21.73 195h-2.043l-0.04297 1.305c0.1797-0.0625 0.4336-0.08984 0.6367-0.08984 0.9531 0 1.66 0.6016 1.66 1.562 0 1.035-0.7422 1.707-1.73 1.707-0.7695 0-1.316-0.3906-1.582-0.9961l0.6172-0.2422c0.1523 0.3984 0.5234 0.6641 0.9648 0.6641 0.582 0 1.035-0.4258 1.035-1.066 0-0.7461-0.543-1.086-1.16-1.086-0.3711 0-0.793 0.1133-1.102 0.2773l0.07031-2.637h2.676v0.6016" fill="#231f1f"/>
<path d="m23.55 196.9c0 0.8398 0.1797 2.031 1 2.031 0.8047 0 0.9961-1.191 0.9961-2.031 0-0.832-0.1914-2.039-0.9961-2.039-0.8203 0-1 1.207-1 2.039zm2.688 0c0 1.449-0.5117 2.605-1.688 2.605-1.184 0-1.695-1.156-1.695-2.605 0-1.441 0.5117-2.605 1.695-2.605 1.176 0 1.688 1.164 1.688 2.605" fill="#231f1f"/>
<path d="m76.07 109h-2.043l-0.04297 1.305c0.1836-0.06641 0.4336-0.09375 0.6367-0.09375 0.9531 0 1.66 0.6016 1.66 1.562 0 1.035-0.7422 1.707-1.73 1.707-0.7695 0-1.316-0.3906-1.582-0.9922l0.6172-0.2461c0.1523 0.3984 0.5234 0.6641 0.9648 0.6641 0.582 0 1.039-0.4258 1.039-1.062 0-0.75-0.5469-1.086-1.164-1.086-0.3711 0-0.793 0.1133-1.098 0.2734l0.07031-2.633h2.672v0.6016" fill="#231f1f"/>
<path d="m77.89 110.8c0 0.8398 0.1836 2.027 1 2.027 0.8086 0 0.9961-1.188 0.9961-2.027 0-0.8359-0.1875-2.039-0.9961-2.039-0.8164 0-1 1.203-1 2.039zm2.691 0c0 1.449-0.5117 2.602-1.691 2.602-1.184 0-1.691-1.152-1.691-2.602 0-1.445 0.5078-2.609 1.691-2.609 1.18 0 1.691 1.164 1.691 2.609" fill="#231f1f"/>
<path d="m71.12 103.7h-0.6797v-4.133l-0.9375 0.7852-0.3984-0.4688 1.406-1.145h0.6094v4.961" fill="#231f1f"/>
<path d="m73.72 101.2c0 0.8398 0.1797 2.031 1 2.031 0.8047 0 0.9961-1.191 0.9961-2.031 0-0.832-0.1914-2.039-0.9961-2.039-0.8203 0-1 1.207-1 2.039zm2.688 0c0 1.449-0.5117 2.605-1.688 2.605-1.184 0-1.695-1.156-1.695-2.605 0-1.441 0.5117-2.605 1.695-2.605 1.176 0 1.688 1.164 1.688 2.605" fill="#231f1f"/>
<path d="m77.89 101.2c0 0.8398 0.1836 2.031 1 2.031 0.8086 0 0.9961-1.191 0.9961-2.031 0-0.832-0.1875-2.039-0.9961-2.039-0.8164 0-1 1.207-1 2.039zm2.691 0c0 1.449-0.5117 2.605-1.691 2.605-1.184 0-1.691-1.156-1.691-2.605 0-1.441 0.5078-2.605 1.691-2.605 1.18 0 1.691 1.164 1.691 2.605" fill="#231f1f"/>
<path d="m72.13 93.56h-3.238v-0.6523l1.977-1.961c0.3008-0.3086 0.5469-0.6328 0.5469-1.051 0-0.5195-0.3945-0.8555-0.8828-0.8555-0.5039 0-0.8477 0.3633-0.9336 0.8633l-0.6641-0.1133c0.1172-0.7578 0.7578-1.316 1.602-1.316 0.8281 0 1.57 0.4844 1.57 1.406 0 0.6367-0.3633 1.07-0.7969 1.5l-1.613 1.566h2.434v0.6133" fill="#231f1f"/>
<path d="m73.72 91.08c0 0.8398 0.1797 2.031 1 2.031 0.8047 0 0.9961-1.191 0.9961-2.031 0-0.8359-0.1914-2.039-0.9961-2.039-0.8203 0-1 1.203-1 2.039zm2.688 0c0 1.449-0.5117 2.605-1.688 2.605-1.184 0-1.695-1.156-1.695-2.605 0-1.441 0.5117-2.605 1.695-2.605 1.176 0 1.688 1.164 1.688 2.605" fill="#231f1f"/>
<path d="m77.89 91.08c0 0.8398 0.1836 2.031 1 2.031 0.8086 0 0.9961-1.191 0.9961-2.031 0-0.8359-0.1875-2.039-0.9961-2.039-0.8164 0-1 1.203-1 2.039zm2.691 0c0 1.449-0.5117 2.605-1.691 2.605-1.184 0-1.691-1.156-1.691-2.605 0-1.441 0.5078-2.605 1.691-2.605 1.18 0 1.691 1.164 1.691 2.605" fill="#231f1f"/>
<path d="m71.9 77.3h-2.043l-0.04297 1.305c0.1797-0.06641 0.4336-0.09375 0.6367-0.09375 0.9531 0 1.66 0.6016 1.66 1.562 0 1.035-0.7422 1.707-1.73 1.707-0.7695 0-1.316-0.3906-1.582-0.9922l0.6172-0.2461c0.1523 0.3984 0.5234 0.668 0.9648 0.668 0.582 0 1.035-0.4297 1.035-1.066 0-0.75-0.543-1.086-1.16-1.086-0.3711 0-0.793 0.1133-1.102 0.2734l0.07031-2.633h2.676v0.6016" fill="#231f1f"/>
<path d="m73.72 79.18c0 0.8398 0.1797 2.031 1 2.031 0.8047 0 0.9961-1.191 0.9961-2.031 0-0.8359-0.1914-2.039-0.9961-2.039-0.8203 0-1 1.203-1 2.039zm2.688 0c0 1.449-0.5117 2.602-1.688 2.602-1.184 0-1.695-1.152-1.695-2.602 0-1.445 0.5117-2.609 1.695-2.609 1.176 0 1.688 1.164 1.688 2.609" fill="#231f1f"/>
<path d="m77.89 79.18c0 0.8398 0.1836 2.031 1 2.031 0.8086 0 0.9961-1.191 0.9961-2.031 0-0.8359-0.1875-2.039-0.9961-2.039-0.8164 0-1 1.203-1 2.039zm2.691 0c0 1.449-0.5117 2.602-1.691 2.602-1.184 0-1.691-1.152-1.691-2.602 0-1.445 0.5078-2.609 1.691-2.609 1.18 0 1.691 1.164 1.691 2.609" fill="#231f1f"/>
<path d="m66.96 70.82h-0.6797v-4.133l-0.9375 0.7852-0.3984-0.4688 1.406-1.145h0.6094v4.961" fill="#231f1f"/>
<path d="m69.55 68.34c0 0.8398 0.1836 2.031 1.004 2.031 0.8047 0 0.9922-1.191 0.9922-2.031 0-0.832-0.1875-2.039-0.9922-2.039-0.8203 0-1.004 1.207-1.004 2.039zm2.691 0c0 1.449-0.5117 2.605-1.688 2.605-1.184 0-1.695-1.156-1.695-2.605 0-1.441 0.5117-2.605 1.695-2.605 1.176 0 1.688 1.164 1.688 2.605" fill="#231f1f"/>
<path d="m73.72 68.34c0 0.8398 0.1797 2.031 1 2.031 0.8047 0 0.9961-1.191 0.9961-2.031 0-0.832-0.1914-2.039-0.9961-2.039-0.8203 0-1 1.207-1 2.039zm2.688 0c0 1.449-0.5117 2.605-1.688 2.605-1.184 0-1.695-1.156-1.695-2.605 0-1.441 0.5117-2.605 1.695-2.605 1.176 0 1.688 1.164 1.688 2.605" fill="#231f1f"/>
<path d="m77.89 68.34c0 0.8398 0.1836 2.031 1 2.031 0.8086 0 0.9961-1.191 0.9961-2.031 0-0.832-0.1875-2.039-0.9961-2.039-0.8164 0-1 1.207-1 2.039zm2.691 0c0 1.449-0.5117 2.605-1.691 2.605-1.184 0-1.691-1.156-1.691-2.605 0-1.441 0.5078-2.605 1.691-2.605 1.18 0 1.691 1.164 1.691 2.605" fill="#231f1f"/>
<path d="m67.96 61.49h-3.234v-0.6484l1.977-1.961c0.3008-0.3086 0.543-0.6328 0.543-1.051 0-0.5195-0.3906-0.8555-0.8828-0.8555-0.5039 0-0.8438 0.3633-0.9297 0.8633l-0.6641-0.1133c0.1172-0.7578 0.7539-1.316 1.602-1.316 0.8281 0 1.57 0.4844 1.57 1.406 0 0.6367-0.3633 1.074-0.7969 1.5l-1.613 1.57h2.43v0.6055" fill="#231f1f"/>
<path d="m69.55 59.01c0 0.8398 0.1836 2.031 1.004 2.031 0.8047 0 0.9922-1.191 0.9922-2.031 0-0.8359-0.1875-2.039-0.9922-2.039-0.8203 0-1.004 1.203-1.004 2.039zm2.691 0c0 1.449-0.5117 2.605-1.688 2.605-1.184 0-1.695-1.156-1.695-2.605 0-1.441 0.5117-2.605 1.695-2.605 1.176 0 1.688 1.164 1.688 2.605" fill="#231f1f"/>
<path d="m73.72 59.01c0 0.8398 0.1797 2.031 1 2.031 0.8047 0 0.9961-1.191 0.9961-2.031 0-0.8359-0.1914-2.039-0.9961-2.039-0.8203 0-1 1.203-1 2.039zm2.688 0c0 1.449-0.5117 2.605-1.688 2.605-1.184 0-1.695-1.156-1.695-2.605 0-1.441 0.5117-2.605 1.695-2.605 1.176 0 1.688 1.164 1.688 2.605" fill="#231f1f"/>
<path d="m77.89 59.01c0 0.8398 0.1836 2.031 1 2.031 0.8086 0 0.9961-1.191 0.9961-2.031 0-0.8359-0.1875-2.039-0.9961-2.039-0.8164 0-1 1.203-1 2.039zm2.691 0c0 1.449-0.5117 2.605-1.691 2.605-1.184 0-1.691-1.156-1.691-2.605 0-1.441 0.5078-2.605 1.691-2.605 1.18 0 1.691 1.164 1.691 2.605" fill="#231f1f"/>
<path d="m152.3 130.5h-2.047l-0.04297 1.301c0.1836-0.0625 0.4336-0.08984 0.6367-0.08984 0.9531 0 1.66 0.6016 1.66 1.559 0 1.039-0.7422 1.711-1.73 1.711-0.7695 0-1.316-0.3906-1.582-0.9961l0.6172-0.2422c0.1523 0.3984 0.5234 0.6641 0.9648 0.6641 0.582 0 1.039-0.4258 1.039-1.062 0-0.75-0.5469-1.086-1.164-1.086-0.3711 0-0.7891 0.1094-1.098 0.2695l0.07031-2.633h2.676v0.6055" fill="#231f1f"/>
<path d="m154.1 132.4c0 0.8398 0.1836 2.031 1 2.031 0.8086 0 0.9961-1.191 0.9961-2.031 0-0.832-0.1875-2.039-0.9961-2.039-0.8164 0-1 1.207-1 2.039zm2.691 0c0 1.449-0.5117 2.605-1.691 2.605-1.184 0-1.691-1.156-1.691-2.605 0-1.441 0.5078-2.605 1.691-2.605 1.18 0 1.691 1.164 1.691 2.605" fill="#231f1f"/>
<path d="m20.8 183.1h-0.01563l-1.57 2.484h1.586zm0.6562 2.484h0.7148v0.582h-0.7148v1.113h-0.6562v-1.113h-2.285v-0.6172l2.109-3.227h0.832v3.262" fill="#231f1f"/>
<path d="m23.55 184.8c0 0.8398 0.1797 2.031 1 2.031 0.8047 0 0.9961-1.191 0.9961-2.031 0-0.8359-0.1914-2.039-0.9961-2.039-0.8203 0-1 1.203-1 2.039zm2.688 0c0 1.449-0.5117 2.602-1.688 2.602-1.184 0-1.695-1.152-1.695-2.602 0-1.445 0.5117-2.609 1.695-2.609 1.176 0 1.688 1.164 1.688 2.609" fill="#231f1f"/>
<path d="m151.4 142.3h-0.01562l-1.566 2.484h1.582zm0.6602 2.484h0.7109v0.582h-0.7109v1.113h-0.6602v-1.113h-2.281v-0.6172l2.105-3.227h0.8359v3.262" fill="#231f1f"/>
<path d="m154.1 144c0 0.8438 0.1836 2.031 1 2.031 0.8086 0 0.9961-1.188 0.9961-2.031 0-0.832-0.1875-2.035-0.9961-2.035-0.8164 0-1 1.203-1 2.035zm2.691 0c0 1.449-0.5117 2.605-1.691 2.605-1.184 0-1.691-1.156-1.691-2.605 0-1.441 0.5078-2.605 1.691-2.605 1.18 0 1.691 1.164 1.691 2.605" fill="#231f1f"/>
<path d="m19.79 172.5h0.2188c0.5664 0 1.105-0.1875 1.105-0.8242 0-0.5-0.4062-0.8203-0.875-0.8203-0.4141 0-0.7188 0.2305-0.8672 0.6094l-0.6172-0.2188c0.2461-0.5938 0.8125-0.957 1.512-0.957 0.8281 0 1.527 0.4688 1.527 1.344 0 0.5547-0.3633 0.9961-0.875 1.129v0.01172c0.582 0.1211 1.008 0.5742 1.008 1.211 0 0.9883-0.8125 1.516-1.66 1.516-0.7812 0-1.414-0.3516-1.688-1.094l0.6328-0.2109c0.1445 0.4258 0.5234 0.7305 1.043 0.7305 0.4961 0 0.9922-0.3164 0.9922-0.9453 0-0.6953-0.6562-0.918-1.246-0.918h-0.2109v-0.5625" fill="#231f1f"/>
<path d="m23.55 172.9c0 0.8398 0.1797 2.031 1 2.031 0.8047 0 0.9961-1.191 0.9961-2.031 0-0.8359-0.1914-2.039-0.9961-2.039-0.8203 0-1 1.203-1 2.039zm2.688 0c0 1.449-0.5117 2.605-1.688 2.605-1.184 0-1.695-1.156-1.695-2.605 0-1.445 0.5117-2.605 1.695-2.605 1.176 0 1.688 1.16 1.688 2.605" fill="#231f1f"/>
<path d="m150.4 155.1h0.2148c0.5703 0 1.109-0.1875 1.109-0.8242 0-0.5-0.4062-0.8203-0.875-0.8203-0.4141 0-0.7227 0.2305-0.8711 0.6094l-0.6172-0.2188c0.2461-0.5938 0.8125-0.957 1.516-0.957 0.8242 0 1.527 0.4688 1.527 1.344 0 0.5547-0.3672 0.9961-0.875 1.129v0.01172c0.5781 0.1211 1.008 0.5742 1.008 1.211 0 0.9883-0.8125 1.516-1.66 1.516-0.7852 0-1.414-0.3516-1.688-1.094l0.6289-0.2109c0.1484 0.4297 0.5273 0.7305 1.043 0.7305 0.4961 0 0.9961-0.3164 0.9961-0.9453 0-0.6953-0.6602-0.918-1.246-0.918h-0.2109v-0.5625" fill="#231f1f"/>
<path d="m154.1 155.4c0 0.8398 0.1836 2.031 1 2.031 0.8086 0 0.9961-1.191 0.9961-2.031 0-0.8359-0.1875-2.039-0.9961-2.039-0.8164 0-1 1.203-1 2.039zm2.691 0c0 1.449-0.5117 2.605-1.691 2.605-1.184 0-1.691-1.156-1.691-2.605 0-1.445 0.5078-2.605 1.691-2.605 1.18 0 1.691 1.16 1.691 2.605" fill="#231f1f"/>
<path d="m21.96 160.7h-3.238v-0.6484l1.977-1.961c0.3008-0.3086 0.5469-0.6328 0.5469-1.051 0-0.5195-0.3945-0.8555-0.8828-0.8555-0.5039 0-0.8477 0.3633-0.9336 0.8633l-0.6641-0.1133c0.1172-0.7578 0.7578-1.316 1.602-1.316 0.8281 0 1.57 0.4805 1.57 1.406 0 0.6367-0.3633 1.07-0.7969 1.5l-1.613 1.566h2.434v0.6094" fill="#231f1f"/>
<path d="m23.55 158.2c0 0.8398 0.1797 2.031 1 2.031 0.8047 0 0.9961-1.191 0.9961-2.031 0-0.8359-0.1914-2.039-0.9961-2.039-0.8203 0-1 1.203-1 2.039zm2.688 0c0 1.449-0.5117 2.605-1.688 2.605-1.184 0-1.695-1.156-1.695-2.605 0-1.445 0.5117-2.605 1.695-2.605 1.176 0 1.688 1.16 1.688 2.605" fill="#231f1f"/>
<path d="m76.29 126.6h-3.238v-0.6523l1.977-1.961c0.3008-0.3047 0.5469-0.6289 0.5469-1.051 0-0.5156-0.3945-0.8516-0.8828-0.8516-0.5039 0-0.8477 0.3633-0.9297 0.8594l-0.668-0.1094c0.1211-0.7578 0.7578-1.32 1.605-1.32 0.8242 0 1.566 0.4844 1.566 1.41 0 0.6367-0.3633 1.07-0.7969 1.5l-1.609 1.566h2.43v0.6094" fill="#231f1f"/>
<path d="m77.89 124.1c0 0.8398 0.1836 2.027 1 2.027 0.8086 0 0.9961-1.188 0.9961-2.027 0-0.8359-0.1875-2.039-0.9961-2.039-0.8164 0-1 1.203-1 2.039zm2.691 0c0 1.445-0.5117 2.602-1.691 2.602-1.184 0-1.691-1.156-1.691-2.602 0-1.445 0.5078-2.609 1.691-2.609 1.18 0 1.691 1.164 1.691 2.609" fill="#231f1f"/>
<path d="m152.5 173.2h-3.234v-0.6523l1.973-1.961c0.3008-0.3086 0.5469-0.6328 0.5469-1.051 0-0.5195-0.3906-0.8555-0.8828-0.8555-0.5039 0-0.8477 0.3633-0.9297 0.8633l-0.668-0.1133c0.1211-0.7578 0.7578-1.316 1.605-1.316 0.8242 0 1.566 0.4844 1.566 1.406 0 0.6406-0.3633 1.074-0.7969 1.5l-1.609 1.57h2.43v0.6094" fill="#231f1f"/>
<path d="m154.1 170.8c0 0.8398 0.1836 2.031 1 2.031 0.8086 0 0.9961-1.191 0.9961-2.031 0-0.8359-0.1875-2.039-0.9961-2.039-0.8164 0-1 1.203-1 2.039zm2.691 0c0 1.449-0.5117 2.605-1.691 2.605-1.184 0-1.691-1.156-1.691-2.605 0-1.441 0.5078-2.605 1.691-2.605 1.18 0 1.691 1.164 1.691 2.605" fill="#231f1f"/>
<path d="m20.96 138h-0.6797v-4.133l-0.9375 0.7852-0.3984-0.4688 1.406-1.141h0.6094v4.957" fill="#231f1f"/>
<path d="m23.55 135.6c0 0.8398 0.1797 2.031 1 2.031 0.8047 0 0.9961-1.191 0.9961-2.031 0-0.8359-0.1914-2.039-0.9961-2.039-0.8203 0-1 1.203-1 2.039zm2.688 0c0 1.449-0.5117 2.605-1.688 2.605-1.184 0-1.695-1.156-1.695-2.605 0-1.445 0.5117-2.605 1.695-2.605 1.176 0 1.688 1.16 1.688 2.605" fill="#231f1f"/>
<path d="m75.29 134.9h-0.6797v-4.133l-0.9375 0.7852-0.3984-0.4688 1.406-1.145h0.6094v4.961" fill="#231f1f"/>
<path d="m77.89 132.4c0 0.8398 0.1836 2.031 1 2.031 0.8086 0 0.9961-1.191 0.9961-2.031 0-0.832-0.1875-2.039-0.9961-2.039-0.8164 0-1 1.207-1 2.039zm2.691 0c0 1.449-0.5117 2.605-1.691 2.605-1.184 0-1.691-1.156-1.691-2.605 0-1.441 0.5078-2.605 1.691-2.605 1.18 0 1.691 1.164 1.691 2.605" fill="#231f1f"/>
<path d="m151.5 195.8h-0.6758v-4.133l-0.9414 0.7852-0.3984-0.4688 1.406-1.141h0.6094v4.957" fill="#231f1f"/>
<path d="m154.1 193.3c0 0.8398 0.1836 2.031 1 2.031 0.8086 0 0.9961-1.191 0.9961-2.031 0-0.832-0.1875-2.035-0.9961-2.035-0.8164 0-1 1.203-1 2.035zm2.691 0c0 1.449-0.5117 2.605-1.691 2.605-1.184 0-1.691-1.156-1.691-2.605 0-1.441 0.5078-2.605 1.691-2.605 1.18 0 1.691 1.164 1.691 2.605" fill="#231f1f"/>
<path d="m25.9 113.2h-2.043l-0.04297 1.305c0.1836-0.0625 0.4336-0.09375 0.6367-0.09375 0.9531 0 1.66 0.6016 1.66 1.562 0 1.035-0.7422 1.711-1.73 1.711-0.7695 0-1.316-0.3945-1.582-0.9961l0.6172-0.2461c0.1523 0.3984 0.5234 0.668 0.9648 0.668 0.582 0 1.039-0.4297 1.039-1.066 0-0.75-0.5469-1.086-1.164-1.086-0.3711 0-0.793 0.1133-1.098 0.2734l0.06641-2.633h2.676v0.6016" fill="#231f1f"/>
<path d="m80.23 142.2h-2.047l-0.04297 1.301c0.1836-0.0625 0.4375-0.08984 0.6367-0.08984 0.9531 0 1.66 0.6016 1.66 1.562 0 1.035-0.7422 1.707-1.727 1.707-0.7734 0-1.32-0.3906-1.586-0.9922l0.6172-0.2461c0.1562 0.3984 0.5273 0.6641 0.9688 0.6641 0.5781 0 1.035-0.4258 1.035-1.062 0-0.75-0.5469-1.086-1.164-1.086-0.3711 0-0.7891 0.1094-1.098 0.2734l0.07031-2.633h2.676v0.6016" fill="#231f1f"/>
<path d="m152.3 212.2h-2.043l-0.04297 1.305c0.1836-0.06641 0.4336-0.09375 0.6367-0.09375 0.9531 0 1.66 0.6016 1.66 1.562 0 1.035-0.7422 1.707-1.73 1.707-0.7695 0-1.316-0.3906-1.582-0.9922l0.6172-0.2461c0.1523 0.3984 0.5234 0.6641 0.9648 0.6641 0.582 0 1.039-0.4258 1.039-1.062 0-0.75-0.5469-1.086-1.164-1.086-0.3711 0-0.7891 0.1133-1.098 0.2734l0.07031-2.633h2.672v0.6016" fill="#231f1f"/>
<path d="m26.12 90.91h-3.238v-0.6484l1.977-1.961c0.3008-0.3086 0.5469-0.6328 0.5469-1.051 0-0.5195-0.3945-0.8555-0.8828-0.8555-0.5039 0-0.8477 0.3633-0.9336 0.8633l-0.6641-0.1133c0.1211-0.7578 0.7578-1.32 1.605-1.32 0.8242 0 1.566 0.4844 1.566 1.41 0 0.6367-0.3633 1.07-0.7969 1.5l-1.609 1.566h2.43v0.6094" fill="#231f1f"/>
<path d="m80.46 158.1h-3.234v-0.6523l1.973-1.961c0.3008-0.3047 0.5469-0.6289 0.5469-1.051 0-0.5156-0.3906-0.8516-0.8828-0.8516-0.5039 0-0.8477 0.3633-0.9297 0.8594l-0.668-0.1133c0.1211-0.7539 0.7578-1.316 1.605-1.316 0.8281 0 1.57 0.4844 1.57 1.41 0 0.6367-0.3672 1.07-0.8008 1.5l-1.609 1.566h2.43v0.6094" fill="#231f1f"/>
<path d="m152.5 242.9h-3.238v-0.6523l1.977-1.961c0.3008-0.3086 0.5469-0.6289 0.5469-1.051 0-0.5195-0.3906-0.8555-0.8828-0.8555-0.5039 0-0.8477 0.3633-0.9297 0.8633l-0.668-0.1133c0.1211-0.7578 0.7578-1.316 1.605-1.316 0.8242 0 1.566 0.4844 1.566 1.41 0 0.6367-0.3633 1.07-0.7969 1.496l-1.609 1.57h2.43v0.6094" fill="#231f1f"/>
<path d="m25.12 70.25h-0.6797v-4.129l-0.9375 0.7852-0.3984-0.4727 1.406-1.141h0.6094v4.957" fill="#231f1f"/>
<path d="m79.46 167.6h-0.6797v-4.133l-0.9414 0.7852-0.3984-0.4688 1.41-1.141h0.6094v4.957" fill="#231f1f"/>
<path d="m151.5 263.6h-0.6758v-4.133l-0.9414 0.7852-0.3984-0.4688 1.406-1.141h0.6094v4.957" fill="#231f1f"/>
<path d="m17.57 47.64c0 0.8398 0.1797 2.031 1 2.031 0.8047 0 0.9961-1.191 0.9961-2.031 0-0.8359-0.1914-2.039-0.9961-2.039-0.8203 0-1 1.203-1 2.039zm2.688 0c0 1.449-0.5117 2.605-1.688 2.605-1.184 0-1.695-1.156-1.695-2.605 0-1.445 0.5117-2.605 1.695-2.605 1.176 0 1.688 1.16 1.688 2.605" fill="#231f1f"/>
<path d="m21.56 50.16c-0.2578 0-0.4688-0.2109-0.4688-0.4531 0-0.2539 0.2031-0.4648 0.4688-0.4648s0.4688 0.2031 0.4688 0.457c0 0.2461-0.2031 0.4609-0.4688 0.4609" fill="#231f1f"/>
<path d="m25.9 45.77h-2.043l-0.04297 1.305c0.1836-0.0625 0.4336-0.08984 0.6367-0.08984 0.9531 0 1.66 0.6016 1.66 1.559 0 1.039-0.7422 1.711-1.73 1.711-0.7695 0-1.316-0.3945-1.582-0.9961l0.6172-0.2422c0.1523 0.3984 0.5234 0.6641 0.9648 0.6641 0.582 0 1.039-0.4297 1.039-1.066 0-0.75-0.5469-1.086-1.164-1.086-0.3711 0-0.793 0.1133-1.098 0.2734l0.06641-2.633h2.676v0.6016" fill="#231f1f"/>
<path d="m150 281c0 0.8438 0.1797 2.031 1 2.031 0.8047 0 0.9961-1.188 0.9961-2.031 0-0.832-0.1914-2.035-0.9961-2.035-0.8203 0-1 1.203-1 2.035zm2.688 0c0 1.453-0.5117 2.609-1.688 2.609-1.184 0-1.695-1.156-1.695-2.609 0-1.441 0.5117-2.602 1.695-2.602 1.176 0 1.688 1.16 1.688 2.602" fill="#231f1f"/>
<path d="m154 283.5c-0.2578 0-0.4688-0.2109-0.4688-0.4531 0-0.2539 0.2031-0.4648 0.4688-0.4648s0.4688 0.2031 0.4688 0.457c0 0.2422-0.2031 0.4609-0.4688 0.4609" fill="#231f1f"/>
<path d="m158.3 279.1h-2.043l-0.04297 1.305c0.1836-0.06641 0.4336-0.09375 0.6367-0.09375 0.9531 0 1.66 0.6016 1.66 1.562 0 1.035-0.7422 1.711-1.73 1.711-0.7695 0-1.316-0.3945-1.582-0.9961l0.6172-0.2461c0.1523 0.3984 0.5234 0.6641 0.9648 0.6641 0.582 0 1.039-0.4258 1.039-1.062 0-0.75-0.5469-1.086-1.164-1.086-0.3711 0-0.7891 0.1133-1.098 0.2734l0.07031-2.633h2.672v0.6016" fill="#231f1f"/>
<path d="m95.64 174.2c0 0.8398 0.1797 2.031 1 2.031 0.8047 0 0.9961-1.191 0.9961-2.031 0-0.832-0.1914-2.039-0.9961-2.039-0.8203 0-1 1.207-1 2.039zm2.688 0c0 1.449-0.5117 2.605-1.688 2.605-1.184 0-1.695-1.156-1.695-2.605 0-1.441 0.5117-2.605 1.695-2.605 1.176 0 1.688 1.164 1.688 2.605" fill="#231f1f"/>
<path d="m99.63 176.7c-0.2617 0-0.4688-0.2109-0.4688-0.457 0-0.25 0.2031-0.4609 0.4688-0.4609 0.2656 0 0.4688 0.2031 0.4688 0.4531 0 0.2461-0.2031 0.4648-0.4688 0.4648" fill="#231f1f"/>
<path d="m104 172.3h-2.043l-0.04297 1.301c0.1797-0.0625 0.4336-0.08984 0.6367-0.08984 0.9531 0 1.66 0.6016 1.66 1.562 0 1.035-0.7422 1.707-1.73 1.707-0.7695 0-1.316-0.3906-1.582-0.9961l0.6172-0.2422c0.1523 0.3984 0.5234 0.6641 0.9648 0.6641 0.582 0 1.035-0.4258 1.035-1.066 0-0.7461-0.543-1.086-1.16-1.086-0.3711 0-0.793 0.1133-1.102 0.2773l0.07031-2.633h2.676v0.6016" fill="#231f1f"/>
<path d="m17.57 23.02c0 0.8398 0.1797 2.031 1 2.031 0.8047 0 0.9961-1.191 0.9961-2.031 0-0.8359-0.1914-2.039-0.9961-2.039-0.8203 0-1 1.203-1 2.039zm2.688 0c0 1.449-0.5117 2.605-1.688 2.605-1.184 0-1.695-1.156-1.695-2.605 0-1.445 0.5117-2.605 1.695-2.605 1.176 0 1.688 1.16 1.688 2.605" fill="#231f1f"/>
<path d="m21.56 25.54c-0.2578 0-0.4688-0.2109-0.4688-0.4531 0-0.2539 0.2031-0.4648 0.4688-0.4648s0.4688 0.2031 0.4688 0.457c0 0.2461-0.2031 0.4609-0.4688 0.4609" fill="#231f1f"/>
<path d="m26.12 25.5h-3.238v-0.6484l1.977-1.961c0.3008-0.3086 0.5469-0.6289 0.5469-1.051 0-0.5195-0.3945-0.8555-0.8828-0.8555-0.5039 0-0.8477 0.3633-0.9336 0.8633l-0.6641-0.1133c0.1211-0.7578 0.7578-1.316 1.605-1.316 0.8242 0 1.566 0.4844 1.566 1.406 0 0.6406-0.3633 1.074-0.7969 1.5l-1.609 1.57h2.43v0.6055" fill="#231f1f"/>
<path d="m150 306.2c0 0.8398 0.1797 2.031 1 2.031 0.8047 0 0.9961-1.191 0.9961-2.031 0-0.832-0.1914-2.039-0.9961-2.039-0.8203 0-1 1.207-1 2.039zm2.688 0c0 1.449-0.5117 2.605-1.688 2.605-1.184 0-1.695-1.156-1.695-2.605 0-1.441 0.5117-2.605 1.695-2.605 1.176 0 1.688 1.164 1.688 2.605" fill="#231f1f"/>
<path d="m154 308.7c-0.2578 0-0.4688-0.207-0.4688-0.4531 0-0.2539 0.2031-0.4609 0.4688-0.4609s0.4688 0.2031 0.4688 0.4531c0 0.2461-0.2031 0.4609-0.4688 0.4609" fill="#231f1f"/>
<path d="m158.5 308.7h-3.238v-0.6523l1.977-1.961c0.3008-0.3086 0.5469-0.6289 0.5469-1.051 0-0.5195-0.3906-0.8555-0.8828-0.8555-0.5039 0-0.8477 0.3672-0.9297 0.8633l-0.668-0.1133c0.1211-0.7539 0.7578-1.316 1.605-1.316 0.8242 0 1.566 0.4844 1.566 1.406 0 0.6367-0.3633 1.074-0.7969 1.5l-1.609 1.57h2.43v0.6094" fill="#231f1f"/>
<path d="m95.64 187.8c0 0.8398 0.1797 2.031 1 2.031 0.8047 0 0.9961-1.191 0.9961-2.031 0-0.832-0.1914-2.039-0.9961-2.039-0.8203 0-1 1.207-1 2.039zm2.688 0c0 1.449-0.5117 2.605-1.688 2.605-1.184 0-1.695-1.156-1.695-2.605 0-1.445 0.5117-2.605 1.695-2.605 1.176 0 1.688 1.16 1.688 2.605" fill="#231f1f"/>
<path d="m99.63 190.3c-0.2617 0-0.4688-0.207-0.4688-0.4531 0-0.2539 0.2031-0.4648 0.4688-0.4648 0.2656 0 0.4688 0.2031 0.4688 0.457 0 0.2461-0.2031 0.4609-0.4688 0.4609" fill="#231f1f"/>
<path d="m104.2 190.3h-3.238v-0.6523l1.977-1.961c0.3008-0.3086 0.5469-0.6328 0.5469-1.051 0-0.5195-0.3945-0.8555-0.8828-0.8555-0.5039 0-0.8477 0.3633-0.9336 0.8633l-0.6641-0.1133c0.1172-0.7578 0.7578-1.316 1.605-1.316 0.8242 0 1.566 0.4844 1.566 1.406 0 0.6367-0.3633 1.074-0.7969 1.5l-1.613 1.57h2.434v0.6094" fill="#231f1f"/>
<path d="m95.64 197.5c0 0.8398 0.1797 2.031 1 2.031 0.8047 0 0.9961-1.191 0.9961-2.031 0-0.832-0.1914-2.039-0.9961-2.039-0.8203 0-1 1.207-1 2.039zm2.688 0c0 1.449-0.5117 2.605-1.688 2.605-1.184 0-1.695-1.156-1.695-2.605 0-1.441 0.5117-2.605 1.695-2.605 1.176 0 1.688 1.164 1.688 2.605" fill="#231f1f"/>
<path d="m99.63 200c-0.2617 0-0.4688-0.207-0.4688-0.4531 0-0.2539 0.2031-0.4609 0.4688-0.4609 0.2656 0 0.4688 0.2031 0.4688 0.4531 0 0.2461-0.2031 0.4609-0.4688 0.4609" fill="#231f1f"/>
<path d="m103.2 200h-0.6797v-4.133l-0.9375 0.7852-0.3984-0.4688 1.406-1.145h0.6094v4.961" fill="#231f1f"/>
<path d="m95.64 206.3c0 0.8398 0.1797 2.031 1 2.031 0.8047 0 0.9961-1.191 0.9961-2.031 0-0.8359-0.1914-2.039-0.9961-2.039-0.8203 0-1 1.203-1 2.039zm2.688 0c0 1.449-0.5117 2.605-1.688 2.605-1.184 0-1.695-1.156-1.695-2.605 0-1.445 0.5117-2.605 1.695-2.605 1.176 0 1.688 1.16 1.688 2.605" fill="#231f1f"/>
<path d="m99.63 208.8c-0.2617 0-0.4688-0.2109-0.4688-0.4531 0-0.2539 0.2031-0.4648 0.4688-0.4648 0.2656 0 0.4688 0.2031 0.4688 0.457 0 0.2461-0.2031 0.4609-0.4688 0.4609" fill="#231f1f"/>
<path d="m101.6 206.3c0 0.8398 0.1797 2.031 1 2.031 0.8047 0 0.9961-1.191 0.9961-2.031 0-0.8359-0.1914-2.039-0.9961-2.039-0.8203 0-1 1.203-1 2.039zm2.688 0c0 1.449-0.5117 2.605-1.688 2.605-1.184 0-1.695-1.156-1.695-2.605 0-1.445 0.5117-2.605 1.695-2.605 1.176 0 1.688 1.16 1.688 2.605" fill="#231f1f"/>
<path d="m108.1 204.4h-2.043l-0.04297 1.305c0.1836-0.0625 0.4336-0.08984 0.6367-0.08984 0.9531 0 1.66 0.6016 1.66 1.559 0 1.039-0.7422 1.711-1.73 1.711-0.7695 0-1.316-0.3945-1.582-0.9961l0.6172-0.2422c0.1523 0.3984 0.5234 0.6641 0.9648 0.6641 0.582 0 1.039-0.4297 1.039-1.066 0-0.75-0.5469-1.086-1.164-1.086-0.3711 0-0.793 0.1133-1.098 0.2734l0.07031-2.633h2.672v0.6016" fill="#231f1f"/>
<path d="m95.64 219.1c0 0.8398 0.1797 2.031 1 2.031 0.8047 0 0.9961-1.191 0.9961-2.031 0-0.8359-0.1914-2.039-0.9961-2.039-0.8203 0-1 1.203-1 2.039zm2.688 0c0 1.449-0.5117 2.602-1.688 2.602-1.184 0-1.695-1.152-1.695-2.602 0-1.445 0.5117-2.609 1.695-2.609 1.176 0 1.688 1.164 1.688 2.609" fill="#231f1f"/>
<path d="m99.63 221.6c-0.2617 0-0.4688-0.2109-0.4688-0.4531 0-0.2539 0.2031-0.4648 0.4688-0.4648 0.2656 0 0.4688 0.2031 0.4688 0.457 0 0.2422-0.2031 0.4609-0.4688 0.4609" fill="#231f1f"/>
<path d="m101.6 219.1c0 0.8398 0.1797 2.031 1 2.031 0.8047 0 0.9961-1.191 0.9961-2.031 0-0.8359-0.1914-2.039-0.9961-2.039-0.8203 0-1 1.203-1 2.039zm2.688 0c0 1.449-0.5117 2.602-1.688 2.602-1.184 0-1.695-1.152-1.695-2.602 0-1.445 0.5117-2.609 1.695-2.609 1.176 0 1.688 1.164 1.688 2.609" fill="#231f1f"/>
<path d="m108.4 221.5h-3.234v-0.6484l1.973-1.961c0.3008-0.3086 0.5469-0.6328 0.5469-1.051 0-0.5195-0.3906-0.8555-0.8828-0.8555-0.5039 0-0.8477 0.3633-0.9297 0.8594l-0.668-0.1094c0.1211-0.7578 0.7578-1.32 1.605-1.32 0.8242 0 1.566 0.4844 1.566 1.41 0 0.6367-0.3633 1.07-0.7969 1.5l-1.609 1.566h2.43v0.6094" fill="#231f1f"/>
<path d="m95.64 230.2c0 0.8398 0.1797 2.031 1 2.031 0.8047 0 0.9961-1.191 0.9961-2.031 0-0.832-0.1914-2.039-0.9961-2.039-0.8203 0-1 1.207-1 2.039zm2.688 0c0 1.449-0.5117 2.605-1.688 2.605-1.184 0-1.695-1.156-1.695-2.605 0-1.441 0.5117-2.605 1.695-2.605 1.176 0 1.688 1.164 1.688 2.605" fill="#231f1f"/>
<path d="m99.63 232.7c-0.2617 0-0.4688-0.2109-0.4688-0.457 0-0.2539 0.2031-0.4609 0.4688-0.4609 0.2656 0 0.4688 0.2031 0.4688 0.4531 0 0.2461-0.2031 0.4648-0.4688 0.4648" fill="#231f1f"/>
<path d="m101.6 230.2c0 0.8398 0.1797 2.031 1 2.031 0.8047 0 0.9961-1.191 0.9961-2.031 0-0.832-0.1914-2.039-0.9961-2.039-0.8203 0-1 1.207-1 2.039zm2.688 0c0 1.449-0.5117 2.605-1.688 2.605-1.184 0-1.695-1.156-1.695-2.605 0-1.441 0.5117-2.605 1.695-2.605 1.176 0 1.688 1.164 1.688 2.605" fill="#231f1f"/>
<path d="m107.4 232.7h-0.6758v-4.133l-0.9414 0.7852-0.3984-0.4688 1.406-1.145h0.6094v4.961" fill="#231f1f"/>
<path d="m95.64 239.3c0 0.8438 0.1797 2.031 1 2.031 0.8047 0 0.9961-1.188 0.9961-2.031 0-0.832-0.1914-2.035-0.9961-2.035-0.8203 0-1 1.203-1 2.035zm2.688 0c0 1.453-0.5117 2.609-1.688 2.609-1.184 0-1.695-1.156-1.695-2.609 0-1.441 0.5117-2.602 1.695-2.602 1.176 0 1.688 1.16 1.688 2.602" fill="#231f1f"/>
<path d="m99.63 241.8c-0.2578 0-0.4688-0.2109-0.4688-0.457 0-0.25 0.2031-0.4609 0.4688-0.4609 0.2656 0 0.4688 0.2031 0.4688 0.4531 0 0.2461-0.2031 0.4648-0.4688 0.4648" fill="#231f1f"/>
<path d="m101.6 239.3c0 0.8438 0.1797 2.031 1 2.031 0.8047 0 0.9961-1.188 0.9961-2.031 0-0.832-0.1914-2.035-0.9961-2.035-0.8203 0-1 1.203-1 2.035zm2.688 0c0 1.453-0.5117 2.609-1.688 2.609-1.184 0-1.695-1.156-1.695-2.609 0-1.441 0.5117-2.602 1.695-2.602 1.176 0 1.688 1.16 1.688 2.602" fill="#231f1f"/>
<path d="m105.8 239.3c0 0.8438 0.1836 2.031 1 2.031 0.8047 0 0.9961-1.188 0.9961-2.031 0-0.832-0.1914-2.035-0.9961-2.035-0.8164 0-1 1.203-1 2.035zm2.688 0c0 1.453-0.5117 2.609-1.688 2.609-1.184 0-1.695-1.156-1.695-2.609 0-1.441 0.5117-2.602 1.695-2.602 1.176 0 1.688 1.16 1.688 2.602" fill="#231f1f"/>
<path d="m112.3 237.4h-2.047l-0.04297 1.301c0.1836-0.0625 0.4375-0.08984 0.6406-0.08984 0.9492 0 1.66 0.6016 1.66 1.562 0 1.035-0.7461 1.711-1.73 1.711-0.7734 0-1.316-0.3945-1.586-0.9961l0.6172-0.2461c0.1562 0.3984 0.5273 0.6641 0.9688 0.6641 0.5781 0 1.035-0.4258 1.035-1.062 0-0.75-0.5469-1.086-1.164-1.086-0.3711 0-0.7891 0.1133-1.098 0.2734l0.07031-2.633h2.676v0.6016" fill="#231f1f"/>
<path d="m95.64 252c0 0.8398 0.1797 2.031 1 2.031 0.8047 0 0.9961-1.191 0.9961-2.031 0-0.832-0.1914-2.039-0.9961-2.039-0.8203 0-1 1.207-1 2.039zm2.688 0c0 1.449-0.5117 2.605-1.688 2.605-1.184 0-1.695-1.156-1.695-2.605 0-1.441 0.5117-2.605 1.695-2.605 1.176 0 1.688 1.164 1.688 2.605" fill="#231f1f"/>
<path d="m99.63 254.5c-0.2578 0-0.4688-0.207-0.4688-0.4531 0-0.2539 0.2031-0.4609 0.4688-0.4609 0.2656 0 0.4688 0.2031 0.4688 0.4531 0 0.2461-0.2031 0.4609-0.4688 0.4609" fill="#231f1f"/>
<path d="m101.6 252c0 0.8398 0.1797 2.031 1 2.031 0.8047 0 0.9961-1.191 0.9961-2.031 0-0.832-0.1914-2.039-0.9961-2.039-0.8203 0-1 1.207-1 2.039zm2.688 0c0 1.449-0.5117 2.605-1.688 2.605-1.184 0-1.695-1.156-1.695-2.605 0-1.441 0.5117-2.605 1.695-2.605 1.176 0 1.688 1.164 1.688 2.605" fill="#231f1f"/>
<path d="m105.8 252c0 0.8398 0.1836 2.031 1 2.031 0.8047 0 0.9961-1.191 0.9961-2.031 0-0.832-0.1914-2.039-0.9961-2.039-0.8164 0-1 1.207-1 2.039zm2.688 0c0 1.449-0.5117 2.605-1.688 2.605-1.184 0-1.695-1.156-1.695-2.605 0-1.441 0.5117-2.605 1.695-2.605 1.176 0 1.688 1.164 1.688 2.605" fill="#231f1f"/>
<path d="m112.5 254.4h-3.234v-0.6523l1.973-1.961c0.3008-0.3086 0.5469-0.6289 0.5469-1.051 0-0.5195-0.3906-0.8555-0.8828-0.8555-0.5039 0-0.8477 0.3633-0.9297 0.8633l-0.668-0.1133c0.1211-0.7539 0.7578-1.316 1.605-1.316 0.8281 0 1.57 0.4844 1.57 1.41 0 0.6367-0.3672 1.07-0.8008 1.496l-1.609 1.57h2.43v0.6094" fill="#231f1f"/>
<path d="m95.64 263.2c0 0.8398 0.1797 2.031 1 2.031 0.8047 0 0.9961-1.191 0.9961-2.031 0-0.8359-0.1914-2.039-0.9961-2.039-0.8203 0-1 1.203-1 2.039zm2.688 0c0 1.449-0.5117 2.605-1.688 2.605-1.184 0-1.695-1.156-1.695-2.605 0-1.441 0.5117-2.605 1.695-2.605 1.176 0 1.688 1.164 1.688 2.605" fill="#231f1f"/>
<path d="m99.63 265.7c-0.2578 0-0.4688-0.207-0.4688-0.4531 0-0.2539 0.2031-0.4648 0.4688-0.4648 0.2656 0 0.4688 0.207 0.4688 0.457 0 0.2461-0.2031 0.4609-0.4688 0.4609" fill="#231f1f"/>
<path d="m101.6 263.2c0 0.8398 0.1797 2.031 1 2.031 0.8047 0 0.9961-1.191 0.9961-2.031 0-0.8359-0.1914-2.039-0.9961-2.039-0.8203 0-1 1.203-1 2.039zm2.688 0c0 1.449-0.5117 2.605-1.688 2.605-1.184 0-1.695-1.156-1.695-2.605 0-1.441 0.5117-2.605 1.695-2.605 1.176 0 1.688 1.164 1.688 2.605" fill="#231f1f"/>
<path d="m105.8 263.2c0 0.8398 0.1836 2.031 1 2.031 0.8047 0 0.9961-1.191 0.9961-2.031 0-0.8359-0.1914-2.039-0.9961-2.039-0.8164 0-1 1.203-1 2.039zm2.688 0c0 1.449-0.5117 2.605-1.688 2.605-1.184 0-1.695-1.156-1.695-2.605 0-1.441 0.5117-2.605 1.695-2.605 1.176 0 1.688 1.164 1.688 2.605" fill="#231f1f"/>
<path d="m111.5 265.6h-0.6797v-4.133l-0.9375 0.7812-0.4023-0.4688 1.41-1.141h0.6094v4.961" fill="#231f1f"/>
<path d="m95.64 272c0 0.8398 0.1797 2.031 1 2.031 0.8047 0 0.9961-1.191 0.9961-2.031 0-0.8359-0.1914-2.039-0.9961-2.039-0.8203 0-1 1.203-1 2.039zm2.688 0c0 1.449-0.5117 2.605-1.688 2.605-1.184 0-1.695-1.156-1.695-2.605 0-1.445 0.5117-2.605 1.695-2.605 1.176 0 1.688 1.16 1.688 2.605" fill="#231f1f"/>
<path d="m99.63 274.5c-0.2578 0-0.4688-0.2109-0.4688-0.4531 0-0.2539 0.2031-0.4648 0.4688-0.4648 0.2656 0 0.4688 0.2031 0.4688 0.457 0 0.2461-0.2031 0.4609-0.4688 0.4609" fill="#231f1f"/>
<path d="m101.6 272c0 0.8398 0.1797 2.031 1 2.031 0.8047 0 0.9961-1.191 0.9961-2.031 0-0.8359-0.1914-2.039-0.9961-2.039-0.8203 0-1 1.203-1 2.039zm2.688 0c0 1.449-0.5117 2.605-1.688 2.605-1.184 0-1.695-1.156-1.695-2.605 0-1.445 0.5117-2.605 1.695-2.605 1.176 0 1.688 1.16 1.688 2.605" fill="#231f1f"/>
<path d="m105.8 272c0 0.8398 0.1836 2.031 1 2.031 0.8047 0 0.9961-1.191 0.9961-2.031 0-0.8359-0.1914-2.039-0.9961-2.039-0.8164 0-1 1.203-1 2.039zm2.688 0c0 1.449-0.5078 2.605-1.688 2.605-1.184 0-1.695-1.156-1.695-2.605 0-1.445 0.5117-2.605 1.695-2.605 1.18 0 1.688 1.16 1.688 2.605" fill="#231f1f"/>
<path d="m110 272c0 0.8398 0.1836 2.031 1.004 2.031 0.8047 0 0.9922-1.191 0.9922-2.031 0-0.8359-0.1875-2.039-0.9922-2.039-0.8203 0-1.004 1.203-1.004 2.039zm2.691 0c0 1.449-0.5117 2.605-1.688 2.605-1.188 0-1.695-1.156-1.695-2.605 0-1.445 0.5078-2.605 1.695-2.605 1.176 0 1.688 1.16 1.688 2.605" fill="#231f1f"/>
<path d="m116.5 270.1h-2.047l-0.03906 1.305c0.1797-0.0625 0.4336-0.09375 0.6367-0.09375 0.9531 0 1.66 0.6055 1.66 1.562 0 1.039-0.7422 1.711-1.73 1.711-0.7695 0-1.316-0.3945-1.582-0.9961l0.6133-0.2461c0.1562 0.4023 0.5273 0.668 0.9688 0.668 0.582 0 1.035-0.4297 1.035-1.066 0-0.75-0.5469-1.086-1.16-1.086-0.3711 0-0.793 0.1133-1.102 0.2734l0.07031-2.633h2.676v0.6016" fill="#231f1f"/>
<path d="m17.57 3.395c0 0.8398 0.1797 2.031 1 2.031 0.8047 0 0.9961-1.191 0.9961-2.031 0-0.8359-0.1914-2.039-0.9961-2.039-0.8203 0-1 1.203-1 2.039zm2.688 0c0 1.449-0.5117 2.605-1.688 2.605-1.184 0-1.695-1.156-1.695-2.605 0-1.445 0.5117-2.605 1.695-2.605 1.176 0 1.688 1.16 1.688 2.605" fill="#231f1f"/>
<path d="m21.56 5.914c-0.2578 0-0.4688-0.2109-0.4688-0.4531 0-0.2539 0.2031-0.4648 0.4688-0.4648s0.4688 0.2031 0.4688 0.457c0 0.2461-0.2031 0.4609-0.4688 0.4609" fill="#231f1f"/>
<path d="m25.12 5.871h-0.6797v-4.129l-0.9375 0.7852-0.3984-0.4727 1.406-1.141h0.6094v4.957" fill="#231f1f"/>
<path d="m150 325.8c0 0.8398 0.1797 2.031 1 2.031 0.8047 0 0.9961-1.191 0.9961-2.031 0-0.832-0.1914-2.039-0.9961-2.039-0.8203 0-1 1.207-1 2.039zm2.688 0c0 1.449-0.5117 2.605-1.688 2.605-1.184 0-1.695-1.156-1.695-2.605 0-1.441 0.5117-2.605 1.695-2.605 1.176 0 1.688 1.164 1.688 2.605" fill="#231f1f"/>
<path d="m154 328.3c-0.2578 0-0.4688-0.207-0.4688-0.4531 0-0.25 0.2031-0.4609 0.4688-0.4609s0.4688 0.2031 0.4688 0.4531c0 0.2461-0.2031 0.4609-0.4688 0.4609" fill="#231f1f"/>
<path d="m157.5 328.2h-0.6758v-4.133l-0.9414 0.7852-0.3984-0.4688 1.406-1.145h0.6094v4.961" fill="#231f1f"/>
<path d="m9.359 346.4h0.9453c0.875 0 1.484-0.2891 1.484-1.047 0-0.7617-0.6289-1.016-1.465-1.016h-0.9648zm-0.8906-2.82h1.945c1.375 0 2.277 0.5312 2.277 1.773 0 1.281-1 1.801-2.324 1.801h-1.008v2.801h-0.8906v-6.375" fill="#231f1f"/>
<path d="m13.33 345.7h0.8008c0.01953 0.2188 0.03516 0.543 0.03516 0.7227h0.03125c0.2305-0.4961 0.7266-0.8398 1.305-0.8398 0.1172 0 0.2305 0.01172 0.332 0.03906l-0.03516 0.7812c-0.1094-0.02344-0.2539-0.04297-0.3867-0.04297-0.8125 0-1.199 0.6562-1.199 1.367v2.242h-0.8477v-3.348c0-0.2266-0.007812-0.6406-0.03516-0.9219" fill="#231f1f"/>
<path d="m19.59 347.4c-0.01953-0.6758-0.4141-1.207-1.199-1.207-0.7305 0-1.285 0.5391-1.34 1.207zm0.8438 0.6289h-3.383c0.02734 0.7305 0.6367 1.297 1.387 1.297 0.5742 0 0.9961-0.2852 1.242-0.6484l0.5938 0.4805c-0.4609 0.5938-1.082 0.8711-1.836 0.8711-1.297 0-2.25-0.8984-2.25-2.242 0-1.332 0.9531-2.262 2.203-2.262 1.262 0 2.055 0.8594 2.055 2.219 0 0.08984 0 0.1875-0.01172 0.2852" fill="#231f1f"/>
<path d="m23.71 346.4h-1.133v2.223c0 0.5156 0.1797 0.7227 0.6016 0.7227 0.1523 0 0.3516-0.03516 0.4961-0.1094l0.02734 0.6953c-0.1992 0.07031-0.4609 0.1133-0.7227 0.1133-0.8008 0-1.242-0.4492-1.242-1.332v-2.312h-0.8203v-0.6953h0.8203v-1.223h0.8398v1.223h1.133v0.6953" fill="#231f1f"/>
<path d="m27.7 347.4c-0.01953-0.6758-0.4141-1.207-1.199-1.207-0.7266 0-1.285 0.5391-1.34 1.207zm0.8477 0.6289h-3.387c0.02734 0.7305 0.6406 1.297 1.387 1.297 0.5742 0 1-0.2852 1.242-0.6484l0.5938 0.4805c-0.4609 0.5938-1.082 0.8711-1.836 0.8711-1.297 0-2.25-0.8984-2.25-2.242 0-1.332 0.9531-2.262 2.203-2.262 1.262 0 2.055 0.8594 2.055 2.219 0 0.08984 0 0.1875-0.007813 0.2852" fill="#231f1f"/>
<path d="m32.04 346.7c-0.1875-0.3047-0.5586-0.5312-0.9883-0.5312-0.3867 0-0.793 0.1523-0.793 0.5586 0 0.3594 0.3242 0.4961 0.9727 0.6406 0.8086 0.1797 1.43 0.5117 1.43 1.258 0 1.012-0.8359 1.379-1.699 1.379-0.6484 0-1.316-0.2539-1.719-0.7656l0.6016-0.5117c0.2266 0.332 0.6562 0.5938 1.133 0.5938 0.4258 0 0.8477-0.1523 0.8477-0.6211 0-0.3984-0.3867-0.543-1.117-0.7109-0.5664-0.1367-1.242-0.3789-1.242-1.18 0-0.918 0.8008-1.309 1.613-1.309 0.6016 0 1.242 0.2461 1.547 0.7031l-0.5859 0.4961" fill="#231f1f"/>
<path d="m35.82 346.4h-1.133v2.223c0 0.5156 0.1797 0.7227 0.6016 0.7227 0.1523 0 0.3516-0.03516 0.4961-0.1094l0.02734 0.6953c-0.1992 0.07031-0.4609 0.1133-0.7227 0.1133-0.8008 0-1.242-0.4492-1.242-1.332v-2.312h-0.8164v-0.6953h0.8164v-1.223h0.8398v1.223h1.133v0.6953" fill="#231f1f"/>
<path d="m2.234 357c-0.8672 0-1.441 0.7305-1.441 1.551 0 0.8164 0.5742 1.539 1.441 1.539 0.9258 0 1.422-0.7461 1.422-1.551 0-0.8008-0.4961-1.539-1.422-1.539zm-1.387 5.844h-0.8477v-6.426h0.8281v0.6641h0.02734c0.2812-0.4492 0.8359-0.7812 1.539-0.7812 1.27 0 2.133 0.9805 2.133 2.238 0 1.254-0.8359 2.262-2.152 2.262-0.6016 0-1.188-0.2812-1.5-0.7578h-0.02734v2.801" fill="#231f1f"/>
<path d="m5.668 356.5h0.8047c0.01562 0.2148 0.03516 0.5391 0.03516 0.7188h0.02734c0.2344-0.4961 0.7266-0.8359 1.305-0.8359 0.1172 0 0.2344 0.007812 0.332 0.03516l-0.03516 0.7812c-0.1094-0.02734-0.25-0.04688-0.3867-0.04688-0.8125 0-1.199 0.6602-1.199 1.371v2.242h-0.8438v-3.348c0-0.2266-0.007812-0.6406-0.03906-0.918" fill="#231f1f"/>
<path d="m10.82 357c-0.9102 0-1.426 0.7305-1.426 1.539 0 0.8125 0.5156 1.551 1.426 1.551 0.918 0 1.422-0.7383 1.422-1.551 0-0.8086-0.5039-1.539-1.422-1.539zm0 3.801c-1.309 0-2.297-0.9453-2.297-2.262 0-1.312 0.9883-2.238 2.297-2.238 1.305 0 2.305 0.9258 2.305 2.238 0 1.316-1 2.262-2.305 2.262" fill="#231f1f"/>
<path d="m16.54 357c-0.8633 0-1.441 0.7305-1.441 1.551 0 0.8164 0.5781 1.539 1.441 1.539 0.9258 0 1.422-0.7461 1.422-1.551 0-0.8008-0.4961-1.539-1.422-1.539zm-1.414 3.008v0.6758h-0.8203v-6.805h0.8477v3.176h0.02734c0.2891-0.4141 0.8203-0.7539 1.52-0.7539 1.27 0 2.137 0.9805 2.137 2.238 0 1.254-0.8398 2.262-2.152 2.262-0.6055 0-1.207-0.2812-1.539-0.793h-0.01953" fill="#231f1f"/>
<path d="m22.46 358.7c-0.8359 0-1.898 0.08984-1.898 0.8086 0 0.5078 0.4492 0.668 0.8711 0.668 0.793 0 1.234-0.5312 1.234-1.254v-0.2227zm0.207-0.7305c0-0.6289-0.4219-0.9375-1.055-0.9375-0.4766 0-0.9258 0.2109-1.215 0.4961l-0.4492-0.5391c0.4141-0.3945 1.055-0.6367 1.746-0.6367 1.223 0 1.781 0.7266 1.781 1.672v1.863c0 0.2891 0.01953 0.6406 0.0625 0.8477h-0.7617c-0.04688-0.1914-0.07422-0.4141-0.07422-0.6133h-0.02734c-0.3047 0.457-0.7891 0.7227-1.43 0.7227-0.6758 0-1.551-0.3359-1.551-1.316 0-1.285 1.531-1.441 2.973-1.441v-0.1172" fill="#231f1f"/>
<path d="m27.14 357c-0.8633 0-1.441 0.7305-1.441 1.551 0 0.8164 0.5781 1.539 1.441 1.539 0.9258 0 1.422-0.7461 1.422-1.551 0-0.8008-0.4961-1.539-1.422-1.539zm-1.414 3.008v0.6758h-0.8203v-6.805h0.8477v3.176h0.02734c0.2891-0.4141 0.8203-0.7539 1.52-0.7539 1.273 0 2.137 0.9805 2.137 2.238 0 1.254-0.8398 2.262-2.152 2.262-0.6055 0-1.207-0.2812-1.539-0.793h-0.01953" fill="#231f1f"/>
<path d="m31.47 360.7h-0.8438v-4.266h0.8438zm-0.4219-5.266c-0.3086 0-0.5586-0.2461-0.5586-0.543 0-0.3047 0.25-0.5469 0.5586-0.5469 0.3047 0 0.5664 0.2344 0.5664 0.5469 0 0.3086-0.2617 0.543-0.5664 0.543" fill="#231f1f"/>
<path d="m33.81 360.7h-0.8438v-6.805h0.8438v6.805" fill="#231f1f"/>
<path d="m36.14 360.7h-0.8477v-4.266h0.8477zm-0.4258-5.266c-0.3047 0-0.5547-0.2461-0.5547-0.543 0-0.3047 0.25-0.5469 0.5547-0.5469 0.3086 0 0.5703 0.2344 0.5703 0.5469 0 0.3086-0.2617 0.543-0.5703 0.543" fill="#231f1f"/>
<path d="m39.71 357.2h-1.133v2.223c0 0.5156 0.1797 0.7227 0.6016 0.7227 0.1562 0 0.3516-0.03906 0.4961-0.1094l0.02734 0.6914c-0.1992 0.07422-0.4609 0.1172-0.7188 0.1172-0.8047 0-1.246-0.4492-1.246-1.332v-2.312h-0.8164v-0.6914h0.8164v-1.227h0.8398v1.227h1.133v0.6914" fill="#231f1f"/>
<path d="m42.2 359.8h0.01953l1.18-3.348h0.8984l-2.07 5.273c-0.2773 0.7109-0.6367 1.152-1.477 1.152-0.1797 0-0.3672-0.01953-0.5547-0.0625l0.07813-0.75c0.1367 0.04688 0.2891 0.07422 0.4258 0.07422 0.4414 0 0.6094-0.25 0.7891-0.7109l0.2734-0.7109-1.828-4.266h0.9453l1.32 3.348" fill="#231f1f"/>
<g clip-path="url(#e)">
<path d="m17.31 372.5-0.6133 0.3984c-0.793-1.062-1.312-2.504-1.312-4.008s0.5195-2.945 1.312-4.008l0.6133 0.3984c-0.7031 0.9805-1.16 2.293-1.16 3.609 0 1.312 0.457 2.629 1.16 3.609" fill="#231f1f"/>
</g>
<path d="m23.79 369.2c-0.4688 0-0.8477 0.375-0.8477 0.8438s0.3789 0.8477 0.8477 0.8477 0.8438-0.3789 0.8438-0.8477-0.375-0.8438-0.8438-0.8438zm0-0.75c0.8789 0 1.594 0.7109 1.594 1.594 0 0.8828-0.7148 1.594-1.594 1.594-0.8828 0-1.594-0.7109-1.594-1.594 0-0.8828 0.7109-1.594 1.594-1.594zm-3.594 3.367-0.6133-0.2969 3.91-6.652 0.6016 0.2969zm-0.3164-6.023c-0.4648 0-0.8438 0.3789-0.8438 0.8477s0.3789 0.8477 0.8438 0.8477c0.4688 0 0.8477-0.3789 0.8477-0.8477s-0.3789-0.8477-0.8477-0.8477zm0-0.7461c0.8828 0 1.594 0.7109 1.594 1.594 0 0.8828-0.7109 1.594-1.594 1.594-0.8789 0-1.594-0.7109-1.594-1.594 0-0.8828 0.7148-1.594 1.594-1.594" fill="#231f1f"/>
<g clip-path="url(#d)">
<path d="m26.35 365.3 0.6133-0.3984c0.7891 1.062 1.312 2.504 1.312 4.008s-0.5234 2.945-1.312 4.008l-0.6133-0.3984c0.7031-0.9805 1.16-2.297 1.16-3.609 0-1.316-0.457-2.629-1.16-3.609" fill="#231f1f"/>
</g>
<path d="m142 346.4h0.9453c0.875 0 1.488-0.2891 1.488-1.047 0-0.7617-0.6328-1.016-1.469-1.016h-0.9648zm-0.8906-2.82h1.945c1.379 0 2.277 0.5312 2.277 1.773 0 1.281-1 1.801-2.32 1.801h-1.012v2.801h-0.8906v-6.375" fill="#231f1f"/>
<path d="m147.9 346.2c-0.9102 0-1.422 0.7305-1.422 1.539 0 0.8125 0.5117 1.551 1.422 1.551 0.918 0 1.422-0.7383 1.422-1.551 0-0.8086-0.5039-1.539-1.422-1.539zm0 3.801c-1.305 0-2.297-0.9453-2.297-2.262 0-1.312 0.9922-2.242 2.297-2.242 1.305 0 2.305 0.9297 2.305 2.242 0 1.316-1 2.262-2.305 2.262" fill="#231f1f"/>
<path d="m153.7 346.7c-0.1875-0.3047-0.5586-0.5312-0.9883-0.5312-0.3867 0-0.793 0.1523-0.793 0.5586 0 0.3594 0.3242 0.4961 0.9727 0.6406 0.8086 0.1797 1.43 0.5117 1.43 1.258 0 1.012-0.8359 1.379-1.699 1.379-0.6484 0-1.316-0.2539-1.719-0.7656l0.6016-0.5117c0.2266 0.332 0.6562 0.5938 1.133 0.5938 0.4258 0 0.8477-0.1523 0.8477-0.6211 0-0.3984-0.3867-0.543-1.117-0.7109-0.5664-0.1367-1.242-0.3789-1.242-1.18 0-0.918 0.8008-1.309 1.613-1.309 0.6016 0 1.242 0.2461 1.547 0.7031l-0.5859 0.4961" fill="#231f1f"/>
<path d="m157.4 346.4h-1.133v2.223c0 0.5156 0.1797 0.7227 0.6016 0.7227 0.1523 0 0.3516-0.03516 0.4961-0.1094l0.02734 0.6953c-0.1992 0.07031-0.4609 0.1133-0.7227 0.1133-0.8008 0-1.242-0.4492-1.242-1.332v-2.312h-0.8203v-0.6953h0.8203v-1.223h0.8398v1.223h1.133v0.6953" fill="#231f1f"/>
<path d="m160.3 346.4h-1.133v2.223c0 0.5156 0.1797 0.7227 0.6016 0.7227 0.1562 0 0.3516-0.03516 0.4961-0.1094l0.02734 0.6953c-0.1992 0.07031-0.457 0.1133-0.7188 0.1133-0.8008 0-1.242-0.4492-1.242-1.332v-2.312h-0.8203v-0.6953h0.8203v-1.223h0.8359v1.223h1.133v0.6953" fill="#231f1f"/>
<path d="m164.3 347.4c-0.01562-0.6758-0.4141-1.207-1.195-1.207-0.7305 0-1.289 0.5391-1.34 1.207zm0.8477 0.6289h-3.383c0.02344 0.7305 0.6367 1.297 1.383 1.297 0.5781 0 1-0.2852 1.242-0.6484l0.5977 0.4805c-0.4609 0.5938-1.082 0.8711-1.84 0.8711-1.293 0-2.25-0.8984-2.25-2.242 0-1.332 0.957-2.262 2.207-2.262 1.262 0 2.051 0.8594 2.051 2.219 0 0.08984 0 0.1875-0.007813 0.2852" fill="#231f1f"/>
<path d="m168.6 346.7c-0.1914-0.3047-0.5586-0.5312-0.9922-0.5312-0.3867 0-0.7891 0.1523-0.7891 0.5586 0 0.3594 0.3242 0.4961 0.9688 0.6406 0.8125 0.1797 1.434 0.5117 1.434 1.258 0 1.012-0.8359 1.379-1.703 1.379-0.6484 0-1.312-0.2539-1.719-0.7656l0.6055-0.5117c0.2227 0.332 0.6562 0.5938 1.133 0.5938 0.4219 0 0.8477-0.1523 0.8477-0.6211 0-0.3984-0.3906-0.543-1.117-0.7109-0.5664-0.1367-1.242-0.3789-1.242-1.18 0-0.918 0.8008-1.309 1.609-1.309 0.6055 0 1.242 0.2461 1.551 0.7031l-0.5859 0.4961" fill="#231f1f"/>
<path d="m172.4 346.4h-1.137v2.223c0 0.5156 0.1797 0.7227 0.6055 0.7227 0.1523 0 0.3477-0.03516 0.4922-0.1094l0.02734 0.6953c-0.1953 0.07031-0.457 0.1133-0.7188 0.1133-0.8008 0-1.242-0.4492-1.242-1.332v-2.312h-0.8203v-0.6953h0.8203v-1.223h0.8359v1.223h1.137v0.6953" fill="#231f1f"/>
<path d="m136.9 357c-0.8633 0-1.438 0.7305-1.438 1.551 0 0.8164 0.5742 1.539 1.438 1.539 0.9297 0 1.426-0.7461 1.426-1.551 0-0.8008-0.4961-1.539-1.426-1.539zm-1.383 5.844h-0.8477v-6.426h0.8281v0.6641h0.02734c0.2773-0.4492 0.8359-0.7812 1.539-0.7812 1.27 0 2.133 0.9805 2.133 2.238 0 1.254-0.8359 2.262-2.152 2.262-0.6016 0-1.188-0.2812-1.504-0.7578h-0.02344v2.801" fill="#231f1f"/>
<path d="m140.3 356.5h0.8047c0.01562 0.2148 0.03516 0.5391 0.03516 0.7188h0.02734c0.2344-0.4961 0.7266-0.8359 1.305-0.8359 0.1172 0 0.2344 0.007812 0.332 0.03516l-0.03516 0.7812c-0.1094-0.02734-0.2539-0.04688-0.3867-0.04688-0.8125 0-1.199 0.6602-1.199 1.371v2.242h-0.8438v-3.348c0-0.2266-0.01172-0.6406-0.03906-0.918" fill="#231f1f"/>
<path d="m145.4 357c-0.9062 0-1.422 0.7305-1.422 1.539 0 0.8125 0.5156 1.551 1.422 1.551 0.9219 0 1.426-0.7383 1.426-1.551 0-0.8086-0.5039-1.539-1.426-1.539zm0 3.801c-1.305 0-2.293-0.9453-2.293-2.262 0-1.312 0.9883-2.238 2.293-2.238 1.309 0 2.305 0.9258 2.305 2.238 0 1.316-0.9961 2.262-2.305 2.262" fill="#231f1f"/>
<path d="m151.2 357c-0.8633 0-1.441 0.7305-1.441 1.551 0 0.8164 0.5781 1.539 1.441 1.539 0.9258 0 1.422-0.7461 1.422-1.551 0-0.8008-0.4961-1.539-1.422-1.539zm-1.414 3.008v0.6758h-0.8203v-6.805h0.8477v3.176h0.02734c0.2891-0.4141 0.8203-0.7539 1.52-0.7539 1.27 0 2.137 0.9805 2.137 2.238 0 1.254-0.8398 2.262-2.152 2.262-0.6055 0-1.207-0.2812-1.539-0.793h-0.01953" fill="#231f1f"/>
<path d="m157.1 358.7c-0.8398 0-1.898 0.08984-1.898 0.8086 0 0.5078 0.4492 0.668 0.8711 0.668 0.793 0 1.234-0.5312 1.234-1.254v-0.2227zm0.207-0.7305c0-0.6289-0.4219-0.9375-1.055-0.9375-0.4766 0-0.9258 0.2109-1.215 0.4961l-0.4492-0.5391c0.4141-0.3945 1.051-0.6367 1.746-0.6367 1.223 0 1.781 0.7266 1.781 1.672v1.863c0 0.2891 0.01953 0.6406 0.0625 0.8477h-0.7656c-0.04297-0.1914-0.07031-0.4141-0.07031-0.6133h-0.02734c-0.3047 0.457-0.793 0.7227-1.43 0.7227-0.6758 0-1.551-0.3359-1.551-1.316 0-1.285 1.531-1.441 2.973-1.441v-0.1172" fill="#231f1f"/>
<path d="m161.8 357c-0.8633 0-1.441 0.7305-1.441 1.551 0 0.8164 0.5781 1.539 1.441 1.539 0.9258 0 1.422-0.7461 1.422-1.551 0-0.8008-0.4961-1.539-1.422-1.539zm-1.414 3.008v0.6758h-0.8203v-6.805h0.8477v3.176h0.02734c0.2891-0.4141 0.8203-0.7539 1.52-0.7539 1.27 0 2.137 0.9805 2.137 2.238 0 1.254-0.8398 2.262-2.152 2.262-0.6055 0-1.207-0.2812-1.539-0.793h-0.01953" fill="#231f1f"/>
<path d="m166.1 360.7h-0.8477v-4.266h0.8477zm-0.4219-5.266c-0.3086 0-0.5586-0.2461-0.5586-0.543 0-0.3047 0.25-0.5469 0.5586-0.5469 0.3047 0 0.5664 0.2344 0.5664 0.5469 0 0.3086-0.2617 0.543-0.5664 0.543" fill="#231f1f"/>
<path d="m168.4 360.7h-0.8477v-6.805h0.8477v6.805" fill="#231f1f"/>
<path d="m170.8 360.7h-0.8477v-4.266h0.8477zm-0.4258-5.266c-0.3047 0-0.5586-0.2461-0.5586-0.543 0-0.3047 0.2539-0.5469 0.5586-0.5469 0.3086 0 0.5703 0.2344 0.5703 0.5469 0 0.3086-0.2617 0.543-0.5703 0.543" fill="#231f1f"/>
<path d="m174.3 357.2h-1.133v2.223c0 0.5156 0.1797 0.7227 0.6016 0.7227 0.1523 0 0.3516-0.03906 0.4961-0.1094l0.02734 0.6914c-0.1992 0.07422-0.4609 0.1172-0.7227 0.1172-0.8008 0-1.242-0.4492-1.242-1.332v-2.312h-0.8164v-0.6914h0.8164v-1.227h0.8398v1.227h1.133v0.6914" fill="#231f1f"/>
<g clip-path="url(#c)">
<path d="m176.8 359.8h0.01953l1.18-3.348h0.8984l-2.07 5.273c-0.2773 0.7109-0.6367 1.152-1.477 1.152-0.1797 0-0.3672-0.01953-0.5586-0.0625l0.08203-0.75c0.1367 0.04688 0.2891 0.07422 0.4219 0.07422 0.4414 0 0.6133-0.25 0.793-0.7109l0.2695-0.7109-1.824-4.266h0.9453l1.32 3.348" fill="#231f1f"/>
</g>
<g clip-path="url(#b)">
<path d="m151.9 372.5-0.6133 0.3984c-0.793-1.062-1.312-2.504-1.312-4.008s0.5195-2.945 1.312-4.008l0.6133 0.3984c-0.7031 0.9805-1.164 2.293-1.164 3.609 0 1.312 0.4609 2.629 1.164 3.609" fill="#231f1f"/>
</g>
<path d="m158.4 369.2c-0.4688 0-0.8477 0.375-0.8477 0.8438s0.3789 0.8477 0.8477 0.8477c0.4648 0 0.8438-0.3789 0.8438-0.8477s-0.3789-0.8438-0.8438-0.8438zm0-0.75c0.8789 0 1.59 0.7109 1.59 1.594 0 0.8828-0.7109 1.594-1.59 1.594-0.8828 0-1.594-0.7109-1.594-1.594 0-0.8828 0.7109-1.594 1.594-1.594zm-3.594 3.367-0.6133-0.2969 3.906-6.652 0.6055 0.2969zm-0.3164-6.023c-0.4688 0-0.8438 0.3789-0.8438 0.8477s0.375 0.8477 0.8438 0.8477 0.8477-0.3789 0.8477-0.8477-0.3789-0.8477-0.8477-0.8477zm0-0.7461c0.8828 0 1.594 0.7109 1.594 1.594 0 0.8828-0.7109 1.594-1.594 1.594-0.8828 0-1.594-0.7109-1.594-1.594 0-0.8828 0.7109-1.594 1.594-1.594" fill="#231f1f"/>
<g clip-path="url(#a)">
<path d="m161 365.3 0.6094-0.3984c0.793 1.062 1.316 2.504 1.316 4.008s-0.5234 2.945-1.316 4.008l-0.6094-0.3984c0.7031-0.9805 1.16-2.297 1.16-3.609 0-1.316-0.457-2.629-1.16-3.609" fill="#231f1f"/>
</g>
<path d="m67.81 349.1h2.844v0.793h-3.738v-6.375h0.8945v5.582" fill="#231f1f"/>
<path d="m72.32 349.9h-0.8438v-4.27h0.8438zm-0.4219-5.266c-0.3047 0-0.5586-0.2461-0.5586-0.543 0-0.3047 0.2539-0.5469 0.5586-0.5469 0.3047 0 0.5664 0.2344 0.5664 0.5469 0 0.3086-0.2617 0.543-0.5664 0.543" fill="#231f1f"/>
<path d="m74.66 347.5h0.02734l1.793-1.855h1.133l-1.996 1.938 2.168 2.332h-1.172l-1.926-2.215h-0.02734v2.215h-0.8438v-6.805h0.8438v4.391" fill="#231f1f"/>
<path d="m81.51 347.4c-0.01953-0.6758-0.4141-1.207-1.199-1.207-0.7305 0-1.289 0.5391-1.34 1.207zm0.8438 0.6289h-3.383c0.02344 0.7305 0.6367 1.297 1.383 1.297 0.5781 0 1-0.2852 1.242-0.6484l0.5977 0.4805c-0.4609 0.5938-1.082 0.8711-1.84 0.8711-1.293 0-2.25-0.8984-2.25-2.242 0-1.332 0.957-2.262 2.207-2.262 1.262 0 2.051 0.8594 2.051 2.219 0 0.08984 0 0.1875-0.007813 0.2852" fill="#231f1f"/>
<path d="m84.4 349.9h-0.8438v-6.805h0.8438v6.805" fill="#231f1f"/>
<path d="m86.73 349.9h-0.8477v-4.27h0.8477zm-0.4219-5.266c-0.3086 0-0.5586-0.2461-0.5586-0.543 0-0.3047 0.25-0.5469 0.5586-0.5469 0.3047 0 0.5664 0.2344 0.5664 0.5469 0 0.3086-0.2617 0.543-0.5664 0.543" fill="#231f1f"/>
<path d="m89.09 346.3c0.1953-0.4258 0.7383-0.7695 1.348-0.7695 1.098 0 1.594 0.7852 1.594 1.738v2.648h-0.8438v-2.359c0-0.6914-0.1797-1.305-0.9648-1.305-0.668 0-1.152 0.5586-1.152 1.402v2.262h-0.8477v-6.805h0.8477v3.188h0.01953" fill="#231f1f"/>
<path d="m95.48 346.2c-0.9062 0-1.422 0.7305-1.422 1.539 0 0.8125 0.5156 1.551 1.422 1.551 0.9219 0 1.426-0.7383 1.426-1.551 0-0.8086-0.5039-1.539-1.426-1.539zm0 3.801c-1.305 0-2.293-0.9453-2.293-2.262 0-1.312 0.9883-2.242 2.293-2.242 1.309 0 2.305 0.9297 2.305 2.242 0 1.316-0.9961 2.262-2.305 2.262" fill="#231f1f"/>
<path d="m101 346.2c-0.9102 0-1.422 0.7305-1.422 1.539 0 0.8125 0.5117 1.551 1.422 1.551 0.918 0 1.422-0.7383 1.422-1.551 0-0.8086-0.5039-1.539-1.422-1.539zm0 3.801c-1.305 0-2.297-0.9453-2.297-2.262 0-1.312 0.9922-2.242 2.297-2.242 1.305 0 2.305 0.9297 2.305 2.242 0 1.316-1 2.262-2.305 2.262" fill="#231f1f"/>
<path d="m106.5 349.3c0.8633 0 1.441-0.7227 1.441-1.539 0-0.8203-0.5781-1.551-1.441-1.551-0.9258 0-1.414 0.7383-1.414 1.539 0 0.8047 0.4883 1.551 1.414 1.551zm-0.1445 0.7109c-1.312 0-2.152-1.008-2.152-2.262 0-1.258 0.8633-2.242 2.145-2.242 0.6914 0 1.223 0.3438 1.52 0.7578h0.01953v-3.176h0.8477v6.805h-0.8203v-0.6758h-0.01953c-0.3242 0.5156-0.9336 0.793-1.539 0.793" fill="#231f1f"/>
<path d="m79.12 356.5h0.8008c0.01953 0.2148 0.03516 0.5391 0.03516 0.7188h0.02734c0.2344-0.4961 0.7305-0.8359 1.305-0.8359 0.1172 0 0.2344 0.007812 0.3359 0.03516l-0.03906 0.7812c-0.1055-0.02734-0.25-0.04688-0.3867-0.04688-0.8086 0-1.195 0.6602-1.195 1.371v2.242h-0.8477v-3.348c0-0.2266-0.007812-0.6406-0.03516-0.918" fill="#231f1f"/>
<path d="m84.75 358.7c-0.8359 0-1.898 0.08984-1.898 0.8086 0 0.5078 0.4492 0.668 0.8711 0.668 0.793 0 1.234-0.5312 1.234-1.254v-0.2227zm0.207-0.7305c0-0.6289-0.4219-0.9375-1.055-0.9375-0.4766 0-0.9258 0.2109-1.215 0.4961l-0.4492-0.5391c0.4141-0.3945 1.055-0.6367 1.746-0.6367 1.227 0 1.785 0.7266 1.785 1.672v1.863c0 0.2891 0.01562 0.6406 0.0625 0.8477h-0.7656c-0.04688-0.1914-0.07422-0.4141-0.07422-0.6133h-0.02734c-0.3047 0.457-0.7891 0.7227-1.43 0.7227-0.6758 0-1.551-0.3359-1.551-1.316 0-1.285 1.531-1.441 2.973-1.441v-0.1172" fill="#231f1f"/>
<path d="m89.18 357.2h-1.137v2.223c0 0.5156 0.1797 0.7227 0.6055 0.7227 0.1523 0 0.3477-0.03906 0.4922-0.1094l0.02734 0.6914c-0.1953 0.07422-0.457 0.1172-0.7188 0.1172-0.8008 0-1.242-0.4492-1.242-1.332v-2.312h-0.8203v-0.6914h0.8203v-1.227h0.8359v1.227h1.137v0.6914" fill="#231f1f"/>
<path d="m90.91 360.7h-0.8477v-4.266h0.8477zm-0.4258-5.266c-0.3047 0-0.5547-0.2461-0.5547-0.543 0-0.3047 0.25-0.5469 0.5547-0.5469 0.3086 0 0.5703 0.2344 0.5703 0.5469 0 0.3086-0.2617 0.543-0.5703 0.543" fill="#231f1f"/>
<path d="m94.4 357c-0.9102 0-1.422 0.7305-1.422 1.539 0 0.8125 0.5117 1.551 1.422 1.551 0.918 0 1.422-0.7383 1.422-1.551 0-0.8086-0.5039-1.539-1.422-1.539zm0 3.801c-1.305 0-2.297-0.9453-2.297-2.262 0-1.312 0.9922-2.238 2.297-2.238 1.305 0 2.305 0.9258 2.305 2.238 0 1.316-1 2.262-2.305 2.262" fill="#231f1f"/>
</svg>
