<?xml version="1.0" encoding="UTF-8"?>
<svg width="439.2pt" height="287.3pt" version="1.1" viewBox="0 0 439.2 287.3" xmlns="http://www.w3.org/2000/svg">
<defs>
<clipPath id="j">
<path d="m58 280h5v7.328h-5z"/>
</clipPath>
<clipPath id="h">
<path d="m63 282h5v5.328h-5z"/>
</clipPath>
<clipPath id="g">
<path d="m68 282h5v5.328h-5z"/>
</clipPath>
<clipPath id="f">
<path d="m73 280h5v7.328h-5z"/>
</clipPath>
<clipPath id="e">
<path d="m189 280h5v7.328h-5z"/>
</clipPath>
<clipPath id="d">
<path d="m193 282h4v5.328h-4z"/>
</clipPath>
<clipPath id="c">
<path d="m196 282h6v5.328h-6z"/>
</clipPath>
<clipPath id="b">
<path d="m202 282h5v5.328h-5z"/>
</clipPath>
<clipPath id="a">
<path d="m207 281h3v6.328h-3z"/>
</clipPath>
<clipPath id="i">
<path d="m436 177h3.18v4h-3.18z"/>
</clipPath>
</defs>
<path d="m132.1 147.3c-0.1445-1.523-3.852-6.375-4.77-7.945-1.43-2.453-3.594-4.039-4.359-6.141-0.7578-2.109-5.582-21.49-7.32-26.52-1.738-5.027-4.395-9.008-5.516-12.48-0.8242-2.566-1.973-9.078-2.93-16.18-1.117-8.293-2.098-13.92-3.047-18.19-0.7344-3.32-1.84-5.379-3.113-7.242-2.059-2.984-6.188-4.145-9.273-5.363-3.715-1.469-5.828-2.125-8.879-3.441-4.145-1.797-5.422-2.527-6.996-4.664-1.141-1.547-1.305-3.828-1.441-4.703 0.4414-0.4961 0.793-0.9922 0.9766-1.441 0.01953-0.04688 0.03125-0.08984 0.04688-0.1328 0.2656-0.3281 0.5117-0.6484 0.7188-0.9453 1.297-1.875 1.496-4.23 2.223-4.93 0.2773-0.2578 1.305-0.6367 1.797-1.551 0.4141-0.7461 1.027-2.848 0.3086-4.75-0.418-1.105-1.953-1.652-1.953-1.652s0.6367-3.297-0.3047-7.004c-0.9258-3.656-4.152-7.312-7.656-8.508-3.5-1.188-8.172-0.5508-10.33 0.7539-3.957 2.387-4.801 5.223-5.441 7.754-0.5859 2.309-0.7578 7.332-0.7578 7.332s-0.6797-0.02734-1.332 0.7031c-0.3711 0.4102-0.6602 2.699 0.1094 4.492 0.7461 1.73 1.332 2.406 2.184 2.633 1.062 0.2812 0.6445 2.059 2.156 5.805 0.1836 0.4492 0.5391 0.9453 0.9766 1.441-0.2305 1.922-0.1094 3.336-1.246 4.879-1.574 2.141-2.391 2.422-6.355 4.398-2.969 1.477-5.305 2.023-9.02 3.492-3.09 1.219-6.168 2.152-10.77 6.668 0 0-2.074 2.938-2.738 5.535-1.082 4.246-1.5 10.34-2.617 18.63-0.957 7.105-2.105 13.62-2.93 16.18-1.113 3.477-3.773 7.457-5.512 12.48-1.746 5.027-6.566 24.41-7.324 26.52-0.7617 2.102-2.93 3.688-4.359 6.141-0.918 1.57-4.625 6.422-4.773 7.945-0.1406 1.441 1.418 1.355 1.969 0.6602 2.559-3.246 3.98-4.82 3.98-4.82s-2.141 4.684-2.547 7.824c-0.2578 1.977-0.2617 3.301-0.2227 5.461 0.02344 1.266-0.1523 2.902 1.02 3.199 1.164 0.2969 1.309-0.9688 1.238-2.582-0.06641-1.613 0.2891-4.324 0.5742-5.43 0.3555-1.402 1.172-2.941 1.172-2.941s-0.4297 3.027-0.4805 5.16c-0.01953 1.09-0.01953 3.289 0.2422 4.246 0.2578 0.9531 0.3633 2.328 1.004 2.637 0.7305 0.3477 1.137-0.03906 1.297-0.6094 0.1641-0.5664-0.2422-2.422-0.2188-4.711 0.01562-1.262 0.1289-2.43 0.332-3.281 0.2656-1.102 1.055-2.938 1.055-2.938s-0.06641 2.664-0.1211 4.793c-0.04297 1.859 0.2734 4.934 0.3398 5.488 0.0625 0.543 0.4961 1.395 1.203 1.168 0.7109-0.2227 0.7773-1.273 0.707-2.914-0.06641-1.637 0.2695-3.914 0.3594-4.84 0.1719-1.719 0.7188-3.328 0.7188-3.328s0.1797 3.605 0.1641 4.641c-0.01953 1.043 0.08594 3.852 0.7109 4.098 0.6289 0.2461 1.254 0.007813 1.355-0.8242 0.09375-0.8281 0-3.156 0.1641-4.715 0.168-1.555 1.695-7.363 1.902-10.23 0.1992-2.859-0.3555-5.988 0.2266-8.332 0.5898-2.348 3.559-6.887 6.539-11.57 3.008-4.73 5.355-8.414 7.027-13.77 0.6992-2.223 1.91-7.691 3.859-13.59 0.4688-1.422 2.348-6.965 4.457-15.54 0.25-1.012 1.098-4.98 2.797-8.613-0.3047 7.105 1.445 21.83 1.695 39.34 0.168 11.43-1.988 15.24-4.512 25.11-2.371 9.273-3.168 19.92-3.168 26.74 0 6.824 1.832 20.28 1.902 25.71 0.06641 5.422 0.1406 9.285-0.4883 12.81-0.625 3.527-3.844 11.36-4.445 16.4-0.6055 5.047 0.7266 15.91 0.9336 20.55s0.8945 11.01 0.7148 13.73c-0.1836 2.719-0.7578 4.672-0.7578 4.672s-0.793-1.207-1.699-0.9648c-0.9102 0.2383-0.3555 1.523-0.3555 1.523s-0.8281-1.016-1.574-0.8008c-0.7383 0.2109-0.5977 1.605-0.5977 1.605s-0.8867-0.7812-1.461-0.4844c-0.5703 0.2969-0.5469 1.367-0.5469 1.367s-1.156-0.3203-1.457-0.2969c-0.3047 0.03125-0.4688 1.07-0.4688 1.07s-0.6875-0.2891-1.32 0.4023c-0.6289 0.7031 0.3281 1.234 0.7422 1.344s1.645 1.434 2.047 1.977c0.4062 0.5352 1.465 1.52 3.031 2.508 1.566 0.9844 4.145 3.641 6.777 4.629 2.625 0.9844 4.09 0.9336 5.809-0.7891 1.719-1.723 0.3242-4.113 0.3242-6.129 0-2.02 1.348-4.945 1.453-6.66 0.1016-1.715-1.039-9.391 0.3086-14.63 1.344-5.254 5.18-13.65 6.734-21.8 1.566-8.145 0.2227-11.41 0.5586-15.75 0.3359-4.344 1.789-8.258 2.348-12.06 0.5547-3.801-1.098-7.723 0.5742-13.78 1.672-6.055 4.305-10.25 6.699-18.87 1.273-4.602 2.555-9.996 3.473-14.03 0.1055 1.02 0.7148 6.305 2.855 14.03 2.391 8.617 5.023 12.82 6.695 18.87 1.68 6.055 0.01953 9.977 0.5781 13.78 0.5586 3.805 2.008 7.719 2.34 12.06 0.3438 4.344-1.004 7.609 0.5625 15.75 1.562 8.152 5.391 16.55 6.734 21.8 1.352 5.242 0.207 12.92 0.3125 14.63 0.1055 1.715 1.449 4.641 1.449 6.66 0 2.016-1.391 4.406 0.3281 6.129 1.719 1.723 3.18 1.773 5.809 0.7891 2.629-0.9883 5.207-3.645 6.773-4.629 1.566-0.9883 2.629-1.973 3.031-2.508 0.4062-0.543 1.637-1.867 2.047-1.977 0.4141-0.1094 1.371-0.6406 0.7422-1.344-0.6328-0.6914-1.316-0.4023-1.316-0.4023s-0.1719-1.039-0.4727-1.07c-0.3008-0.02344-1.457 0.2969-1.457 0.2969s0.02734-1.07-0.5469-1.367c-0.5781-0.2969-1.457 0.4844-1.457 0.4844s0.1367-1.395-0.6016-1.605c-0.7422-0.2148-1.57 0.8008-1.57 0.8008s0.5508-1.285-0.3594-1.523c-0.9062-0.2422-1.699 0.9648-1.699 0.9648s-0.5742-1.953-0.7539-4.672c-0.1836-2.727 0.5078-9.102 0.7109-13.73 0.207-4.633 1.543-15.5 0.9375-20.55-0.6055-5.043-3.82-12.88-4.445-16.4-0.6328-3.523-0.5586-7.387-0.4922-12.81 0.07031-5.426 1.035-17.51 1.035-24.34 0-6.816-0.7969-18.84-3.168-28.11-2.523-9.867-3.809-13.68-3.645-25.11 0.25-17.52 3.246-34.29 2.941-41.4 1.016 6.223 1.773 9.109 3.207 14.95 1.098 4.473 2.332 9.84 2.801 11.26 1.949 5.902 3.164 11.37 3.859 13.59 1.676 5.352 4.02 9.035 7.031 13.77 2.977 4.684 5.953 9.223 6.539 11.57 0.5859 2.344 0.02734 5.473 0.2266 8.332 0.1992 2.863 1.727 8.672 1.898 10.23 0.1641 1.559 0.07031 3.887 0.168 4.715 0.1016 0.832 0.7227 1.07 1.352 0.8242 0.6289-0.2461 0.7344-3.055 0.7109-4.098-0.01953-1.035 0.1641-4.641 0.1641-4.641s0.5469 1.609 0.7188 3.328c0.08984 0.9258 0.4258 3.203 0.3594 4.84-0.07031 1.641-0.003906 2.691 0.707 2.914 0.7109 0.2266 1.141-0.625 1.207-1.168 0.0625-0.5547 0.3828-3.629 0.3359-5.488-0.05859-2.129-0.1172-4.793-0.1172-4.793s0.7852 1.836 1.047 2.938c0.207 0.8516 0.3242 2.02 0.3359 3.281 0.02344 2.289-0.3828 4.145-0.2148 4.711 0.1602 0.5703 0.5625 0.957 1.293 0.6094 0.6406-0.3086 0.75-1.684 1.004-2.637 0.2617-0.957 0.2656-3.156 0.2383-4.246-0.04688-2.133-0.4727-5.16-0.4727-5.16s0.8086 1.539 1.172 2.941c0.2812 1.105 0.6406 3.816 0.5703 5.43-0.06641 1.613 0.07422 2.879 1.242 2.582 1.172-0.2969 0.9922-1.934 1.016-3.199 0.03906-2.16 0.03125-3.484-0.2188-5.461-0.4062-3.141-2.547-7.824-2.547-7.824s1.414 1.574 3.98 4.82c0.543 0.6953 2.105 0.7812 1.961-0.6602" fill="#dedddd"/>
<path transform="matrix(.1 0 0 -.1 0 287.3)" d="m1321 1401c-1.445 15.23-38.52 63.75-47.7 79.45-14.3 24.53-35.94 40.39-43.59 61.41-7.578 21.09-55.82 214.9-73.2 265.2-17.38 50.27-43.95 90.08-55.16 124.8-8.242 25.66-19.73 90.78-29.3 161.8-11.17 82.93-20.98 139.2-30.47 181.9-7.344 33.2-18.4 53.79-31.13 72.42-20.59 29.84-61.88 41.45-92.73 53.63-37.15 14.69-58.28 21.25-88.79 34.41-41.45 17.97-54.22 25.27-69.96 46.64-11.41 15.47-13.05 38.28-14.41 47.03 4.414 4.961 7.93 9.922 9.766 14.41 0.1953 0.4688 0.3125 0.8984 0.4688 1.328 2.656 3.281 5.117 6.484 7.188 9.453 12.97 18.75 14.96 42.3 22.23 49.3 2.773 2.578 13.05 6.367 17.97 15.51 4.141 7.461 10.27 28.48 3.086 47.5-4.18 11.05-19.53 16.52-19.53 16.52s6.367 32.97-3.047 70.04c-9.258 36.56-41.52 73.12-76.56 85.08-35 11.88-81.72 5.508-103.3-7.539-39.57-23.87-48.01-52.23-54.41-77.54-5.859-23.09-7.578-73.32-7.578-73.32s-6.797 0.2734-13.32-7.031c-3.711-4.102-6.602-26.99 1.094-44.92 7.461-17.3 13.32-24.06 21.84-26.33 10.62-2.812 6.445-20.59 21.56-58.05 1.836-4.492 5.391-9.453 9.766-14.41-2.305-19.22-1.094-33.36-12.46-48.79-15.74-21.41-23.91-24.22-63.55-43.98-29.69-14.77-53.05-20.23-90.2-34.92-30.9-12.19-61.68-21.52-107.7-66.68 0 0-20.74-29.38-27.38-55.35-10.82-42.46-15-103.4-26.17-186.3-9.57-71.05-21.05-136.2-29.3-161.8-11.13-34.77-37.73-74.57-55.12-124.8-17.46-50.27-65.66-244.1-73.24-265.2-7.617-21.02-29.3-36.88-43.59-61.41-9.18-15.7-46.25-64.22-47.73-79.45-1.406-14.41 14.18-13.55 19.69-6.602 25.59 32.46 39.8 48.2 39.8 48.2s-21.41-46.84-25.47-78.24c-2.578-19.77-2.617-33.01-2.227-54.61 0.2344-12.66-1.523-29.02 10.2-31.99 11.64-2.969 13.09 9.688 12.38 25.82-0.6641 16.13 2.891 43.24 5.742 54.3 3.555 14.02 11.72 29.41 11.72 29.41s-4.297-30.27-4.805-51.6c-0.1953-10.9-0.1953-32.89 2.422-42.46 2.578-9.531 3.633-23.28 10.04-26.37 7.305-3.477 11.37 0.3906 12.97 6.094 1.641 5.664-2.422 24.22-2.188 47.11 0.1562 12.62 1.289 24.3 3.32 32.81 2.656 11.02 10.55 29.38 10.55 29.38s-0.6641-26.64-1.211-47.93c-0.4297-18.59 2.734-49.34 3.398-54.88 0.625-5.43 4.961-13.95 12.03-11.68 7.109 2.227 7.773 12.73 7.07 29.14-0.6641 16.37 2.695 39.14 3.594 48.4 1.719 17.19 7.188 33.28 7.188 33.28s1.797-36.05 1.641-46.41c-0.1953-10.43 0.8594-38.52 7.109-40.98 6.289-2.461 12.54-0.07812 13.55 8.242 0.9375 8.281 0 31.56 1.641 47.15 1.68 15.55 16.95 73.63 19.02 102.3 1.992 28.59-3.555 59.88 2.266 83.32 5.898 23.48 35.59 68.87 65.39 115.7 30.08 47.3 53.55 84.14 70.27 137.7 6.992 22.23 19.1 76.91 38.59 135.9 4.688 14.22 23.48 69.65 44.57 155.4 2.5 10.12 10.98 49.8 27.97 86.13-3.047-71.05 14.45-218.3 16.95-393.4 1.68-114.3-19.88-152.4-45.12-251.1-23.71-92.73-31.68-199.2-31.68-267.4 0-68.24 18.32-202.8 19.02-257.1 0.6641-54.22 1.406-92.85-4.883-128.1-6.25-35.27-38.44-113.6-44.45-164-6.055-50.47 7.266-159.1 9.336-205.5s8.945-110.1 7.148-137.3c-1.836-27.19-7.578-46.72-7.578-46.72s-7.93 12.07-16.99 9.648c-9.102-2.383-3.555-15.23-3.555-15.23s-8.281 10.16-15.74 8.008c-7.383-2.109-5.977-16.05-5.977-16.05s-8.867 7.812-14.61 4.844c-5.703-2.969-5.469-13.67-5.469-13.67s-11.56 3.203-14.57 2.969c-3.047-0.3125-4.688-10.7-4.688-10.7s-6.875 2.891-13.2-4.023c-6.289-7.031 3.281-12.34 7.422-13.44s16.45-14.34 20.47-19.77c4.062-5.352 14.65-15.2 30.31-25.08 15.66-9.844 41.45-36.41 67.77-46.29 26.25-9.844 40.9-9.336 58.09 7.891 17.19 17.23 3.242 41.13 3.242 61.29 0 20.2 13.48 49.45 14.53 66.6 1.016 17.15-10.39 93.91 3.086 146.3 13.44 52.54 51.8 136.5 67.34 218 15.66 81.45 2.227 114.1 5.586 157.5 3.359 43.44 17.89 82.58 23.48 120.6 5.547 38.01-10.98 77.23 5.742 137.8s43.05 102.5 66.99 188.7c12.73 46.02 25.55 99.96 34.73 140.3 1.055-10.2 7.148-63.05 28.55-140.3 23.91-86.17 50.23-128.2 66.95-188.7 16.8-60.55 0.1953-99.77 5.781-137.8 5.586-38.05 20.08-77.19 23.4-120.6 3.438-43.44-10.04-76.09 5.625-157.5 15.62-81.52 53.91-165.5 67.34-218 13.52-52.42 2.07-129.2 3.125-146.3 1.055-17.15 14.49-46.41 14.49-66.6 0-20.16-13.91-44.06 3.281-61.29 17.19-17.23 31.8-17.73 58.09-7.891 26.29 9.883 52.07 36.45 67.73 46.29 15.66 9.883 26.29 19.73 30.31 25.08 4.062 5.43 16.37 18.67 20.47 19.77 4.141 1.094 13.71 6.406 7.422 13.44-6.328 6.914-13.16 4.023-13.16 4.023s-1.719 10.39-4.727 10.7c-3.008 0.2344-14.57-2.969-14.57-2.969s0.2734 10.7-5.469 13.67c-5.781 2.969-14.57-4.844-14.57-4.844s1.367 13.95-6.016 16.05c-7.422 2.148-15.7-8.008-15.7-8.008s5.508 12.85-3.594 15.23c-9.062 2.422-16.99-9.648-16.99-9.648s-5.742 19.53-7.539 46.72c-1.836 27.27 5.078 91.02 7.109 137.3 2.07 46.33 15.43 155 9.375 205.5-6.055 50.43-38.2 128.8-44.45 164-6.328 35.23-5.586 73.87-4.922 128.1 0.7031 54.26 10.35 175.1 10.35 243.4 0 68.16-7.969 188.4-31.68 281.1-25.23 98.67-38.09 136.8-36.45 251.1 2.5 175.2 32.46 342.9 29.41 414 10.16-62.23 17.73-91.09 32.07-149.5 10.98-44.73 23.32-98.4 28.01-112.6 19.49-59.02 31.64-113.7 38.59-135.9 16.76-53.52 40.2-90.35 70.31-137.7 29.77-46.84 59.53-92.23 65.39-115.7 5.859-23.44 0.2734-54.73 2.266-83.32 1.992-28.63 17.27-86.72 18.98-102.3 1.641-15.59 0.7031-38.87 1.68-47.15 1.016-8.32 7.227-10.7 13.52-8.242 6.289 2.461 7.344 30.55 7.109 40.98-0.1953 10.35 1.641 46.41 1.641 46.41s5.469-16.09 7.188-33.28c0.8984-9.258 4.258-32.03 3.594-48.4-0.7031-16.41-0.03906-26.91 7.07-29.14 7.109-2.266 11.41 6.25 12.07 11.68 0.625 5.547 3.828 36.29 3.359 54.88-0.5859 21.29-1.172 47.93-1.172 47.93s7.852-18.36 10.47-29.38c2.07-8.516 3.242-20.2 3.359-32.81 0.2344-22.89-3.828-41.45-2.148-47.11 1.602-5.703 5.625-9.57 12.93-6.094 6.406 3.086 7.5 16.84 10.04 26.37 2.617 9.57 2.656 31.56 2.383 42.46-0.4688 21.33-4.727 51.6-4.727 51.6s8.086-15.39 11.72-29.41c2.812-11.05 6.406-38.16 5.703-54.3-0.6641-16.13 0.7422-28.79 12.42-25.82 11.72 2.969 9.922 19.34 10.16 31.99 0.3906 21.6 0.3125 34.84-2.188 54.61-4.062 31.41-25.47 78.24-25.47 78.24s14.14-15.74 39.8-48.2c5.43-6.953 21.05-7.812 19.61 6.602zm0 0" fill="none" stroke="#100f0d" stroke-linecap="round" stroke-linejoin="round" stroke-miterlimit="10" stroke-width="10"/>
<path transform="matrix(.1 0 0 -.1 0 287.3)" d="m2661 1434c-3.359 4.219-9.375 12.89-14.45 20.08-7.852 11.17-13.98 18.44-23.01 28.87-8.984 10.43-28.01 21.56-40.66 31.48-12.7 9.961-33.79 29.06-45.2 52.85-11.48 23.79-35 93.79-45.74 138.2-10.78 44.38-27.81 115.5-50 152.1-22.19 36.56-35.31 49.96-37.89 65.12-2.578 15.04-17.27 96.56-23.24 131.5-6.016 35-25.51 96.05-26.68 107.1s4.336 53.16 2.5 89.34c-5.898 79.57-28.63 97.73-33.91 100.9-12.7 11.6-33.63 20.66-62.66 24.96-21.45 3.203-64.26 15.08-100.7 35.12-39.1 21.56-66.56 41.8-81.6 65.35-10.86 17.03-14.69 36.56-15.98 46.13 4.219 5.43 10.59 9.18 19.14 28.16 9.961 21.76 11.88 46.09 18.79 53.71 2.656 2.93 12.42 7.031 17.23 17.07 3.945 8.242 9.805 31.33 2.93 52.23-3.984 12.23-14.41 19.61-14.41 19.61s12.97 43.28 3.984 84.06c-8.906 40.2-34.84 75.62-76.02 86.41-34.84 9.141-84.49 2.188-105.1-12.11-37.85-26.25-48.05-54.92-54.18-82.73-5.586-25.43-7.227-80.62-7.227-80.62s-6.523 0.2734-12.77-7.734c-3.477-4.531-6.289-29.73 1.055-49.38 7.148-19.1 12.77-26.48 20.9-28.95 10.2-3.164 7.734-38.83 20.66-63.83 5.234-10.16 8.945-13.95 13.16-19.45 3.008-20.47 3.945-28.48-6.367-51.6-8.477-19.1-24.3-32.07-65.7-46.29-13.52-4.648-68.87-20.74-77.66-23.63-28.24-9.336-37.5-10.94-54.22-16.6-16.64-5.625-32.07-18.79-32.07-18.79s0.03906-0.03906 0.07813-0.07812c-8.125-6.953-25.9-29.77-30.98-98.71-1.875-36.21 3.672-78.24 2.539-89.38-1.211-11.05-20.7-72.11-26.68-107.1-6.016-34.96-20.7-116.5-23.28-131.6-2.539-15.08-15.7-28.44-37.89-65.04-22.15-36.6-39.26-107.7-50-152.1s-34.3-114.4-45.74-138.2c-11.41-23.79-32.5-42.89-45.2-52.85-12.66-9.961-31.72-21.09-40.66-31.48-8.984-10.43-15.16-17.7-23.01-28.87-5.078-7.227-11.05-15.9-14.45-20.12-6.523-8.086-17.42-12.3-16.72-19.34 2.383-8.398 7.93-7.891 14.88-6.328 6.953 1.445 24.41 16.02 29.69 20.74 5.312 4.727 19.53 15.51 19.53 15.51s-4.18-23.48-6.875-39.1c-2.695-15.7-6.953-44.65-9.453-63.75-2.461-19.06-3.516-36.48 2.812-39.8 6.367-3.242 11.95 2.188 13.67 5.664 1.758 3.438 9.141 41.56 11.8 59.45 3.984 24.3 7.93 38.75 10.86 36.99 1.836-1.094-1.289-17.7-3.281-36.29-1.953-19.14-10.66-69.49-11.91-81.05-1.25-11.6 4.258-18.24 8.672-18.67 6.875-1.055 15.12 3.516 17.38 16.91 2.305 13.32 9.57 43.71 12.66 58.83 3.086 15.2 10.31 43.98 14.06 44.1 3.711 0.1172-1.523-36.72-3.203-46.52-1.68-9.844-11.09-35.66-13.01-51.45-0.8984-6.992-1.562-17.15 5.391-18.01 7.031-0.8594 12.66 4.219 19.57 20.08 3.359 13.32 9.297 23.4 13.75 45.86 4.453 22.42 1.758 49.57 7.969 48.98 3.633-0.3906 4.609-11.84 2.539-29.61-1.484-12.62-6.328-29.96-7.969-46.56-0.5859-5.625 1.406-14.84 8.672-15.12 4.688 0.3125 8.789 3.203 13.59 22.34 4.805 19.06 7.305 26.72 9.805 41.17 2.461 14.45 3.945 28.24 6.289 41.84s8.047 42.15 11.21 60.62c3.125 18.52 5.508 39.96 20.98 68.01 15.47 28.12 80.31 131.8 101.9 169.8 21.64 38.12 37.5 83.98 45.12 128.6 7.656 44.65 55.23 109.1 68.2 148.2 13.09 39.38 18.44 70.2 19.49 95.82 9.141-33.71 15.94-61.45 18.01-106.6 1.836-39.49 2.422-87.07-2.461-128.8-4.922-41.8-26.95-113.5-36.8-169.6-9.805-56.09-16.45-84.1-26.6-141.5-8.125-46.45-12.66-110.7-12.66-189.5 0-78.75 18.2-156.6 20.04-206.8 1.875-50.08-0.1562-58.24-7.461-102-6.016-36.13-3.789-78.98-2.852-90.86s-1.914-51.09-13.12-88.52c-11.21-37.34-25.59-104-16.25-144.2 11.64-50.23 31.91-119.1 43.59-173.8 11.72-54.65 13.98-111.8 13.75-126.8-0.2344-16.29 1.172-22.38-0.8594-46.13-0.9766-11.17-1.367-13.63-5.664-25.51-3.281-8.984-8.516-19.18-23.09-37.81-11.21-14.38-21.25-33.79-39.14-55.62-22.11-27.15-27.73-26.02-34.77-39.41-11.33-21.88 14.22-32.97 24.53-33.75 9.023-0.7031 20 2.969 20 2.969s6.992-11.52 18.67-12.27c19.92-1.172 23.55 12.34 33.16 16.88 20 9.57 22.07 10.2 37.23 29.26 8.164 10.27 8.711 29.26 19.53 42.23 10.82 12.97 26.25 15.47 41.52 28.87 10.27 9.023 22.03 26.09 13.83 49.77-4.258 12.46-13.32 19.96-15.86 35.66-2.578 16.17-3.477 23.32-3.477 44.57 0.03906 15.47 1.289 11.13 4.844 45.39 4.258 40.94 14.65 123.1 38.52 186.6 23.87 63.55 15.9 120.9 11.17 165.8-4.805 44.92-15.94 71.29-6.406 108.4 9.531 37.23 24.57 64.96 24.38 120.7-0.1172 24.88 26.56 111.8 42.46 169.1 15.94 57.3 23.87 207.6 23.87 207.6s4.57 1.172 12.19 1.289c7.188 0.1172 12.54-1.289 12.54-1.289s7.93-150.3 23.87-207.6c15.9-57.38 42.54-144.3 42.46-169.1-0.1953-55.7 14.84-83.44 24.38-120.7 9.57-37.15-1.602-63.52-6.367-108.4-4.766-44.92-12.73-102.3 11.17-165.8 23.87-63.52 34.22-145.7 38.44-186.6 3.555-34.26 4.805-29.92 4.883-45.39 0-21.25-0.8984-28.4-3.477-44.57-2.539-15.7-11.52-23.2-15.86-35.66-8.203-23.67 3.555-40.74 13.83-49.77 15.27-13.4 30.66-15.9 41.52-28.87 10.82-12.97 11.37-31.95 19.53-42.23 15.16-19.06 17.27-19.69 37.27-29.26 9.609-4.531 13.2-18.05 33.16-16.88 11.68 0.7422 18.63 12.27 18.63 12.27s10.94-3.672 20.04-2.969c10.23 0.7812 35.82 11.88 24.49 33.75-7.031 13.4-12.62 12.27-34.77 39.41-17.89 21.84-27.93 41.25-39.18 55.62-14.53 18.63-19.73 28.83-23.01 37.81-4.336 11.88-4.766 14.34-5.664 25.51-2.07 23.75-0.625 29.84-0.8594 46.13-0.2734 14.96 1.992 72.11 13.71 126.8 11.68 54.65 31.99 123.6 43.63 173.8 9.336 40.16-5.039 106.8-16.25 144.2-11.29 37.42-14.1 76.64-13.16 88.52 0.9766 11.88 3.164 54.73-2.852 90.86-7.266 43.79-9.336 51.95-7.461 102 1.875 50.2 20.08 128 20.08 206.8 0 78.79-10.08 142.5-12.73 189.5-0.7422 13.32-22.97 166.7-45.27 235.1-9.18 28.2-18.95 82.42-18.95 106.8 0 24.41 7.773 85.78 18.09 140.5 10.39 54.69 7.734 50.43 14.26 80.74 2.148 10.23-9.922-30.23 21.68-125.6 13.01-39.06 60.62-103.5 68.2-148.1 7.656-44.69 23.52-90.55 45.16-128.6 21.64-38.05 86.37-141.8 101.9-169.8 15.47-28.16 17.81-49.57 20.98-68.05 3.203-18.48 8.906-47.03 11.21-60.62s3.828-27.42 6.289-41.88c2.5-14.45 5-22.03 9.766-41.17 4.844-19.14 8.906-21.99 13.63-22.34 7.266 0.3125 9.258 9.492 8.672 15.12-1.641 16.6-6.484 33.95-7.969 46.56-2.07 17.77-1.094 29.26 2.539 29.57 6.172 0.625 3.516-26.52 7.969-48.95 4.453-22.46 10.35-32.54 13.79-45.78 6.875-15.9 12.5-21.02 19.53-20.16 6.953 0.8594 6.25 11.02 5.43 18.01-1.914 15.82-11.41 41.64-13.05 51.41-1.68 9.844-6.875 46.72-3.203 46.52 3.75-0.07812 10.94-28.87 14.06-44.06 3.086-15.12 10.39-45.43 12.66-58.83 2.305-13.36 10.51-17.97 17.38-16.91 4.336 0.4297 9.961 7.07 8.672 18.67-1.25 11.64-9.961 61.91-11.91 81.05-1.953 18.63-5.117 35.2-3.281 36.33 2.891 1.758 6.875-12.7 10.86-36.99 2.656-17.93 10.04-56.02 11.84-59.49 1.719-3.477 7.266-8.906 13.63-5.664 6.328 3.32 5.273 20.78 2.773 39.8-2.461 19.1-6.719 48.05-9.414 63.75-2.695 15.66-6.875 39.14-6.875 39.14s14.22-10.78 19.57-15.55c5.234-4.688 22.66-19.26 29.65-20.74 6.953-1.562 12.5-2.07 14.8 6.328 0.7812 7.031-10.08 11.25-16.64 19.38zm0 0" fill="none" stroke="#100f0d" stroke-linecap="round" stroke-linejoin="round" stroke-miterlimit="10" stroke-width="10"/>
<path d="m55.02 27.15 3.133 7.246-1.246 4.879 5.207 3.617v8.684s-8.141 1.359-12.75 3.801c-4.617 2.445-4.668 3.938-5.754 8.551-1.086 4.613 1.086 29.31 1.086 29.31s-1.59 5.922 4.395 7.734c3.352 1.016 7.152 0.4766 10.14-0.8789 2.988-1.355 8.18-3.191 14.84-0.207 5.656 2.539 6.219 2.051 9.863 0.8867 2.66-0.8516 4.328-3.09 4.801-9.727 0.4805-6.766 1.297-22.1 2.109-24.81 0.8164-2.715 0.668-8.688-8.359-11.13-11.35-3.074-11.13-3.801-11.13-3.801l-0.8164-8.688 5.344-3.52-1.441-4.703 3.965-7.449s-8.816 4.547-12.14 4.547c-3.324 0-11.23-4.344-11.23-4.344" fill="#fff"/>
<path transform="matrix(.1 0 0 -.1 0 287.3)" d="m550.2 2602 31.33-72.46-12.46-48.79 52.07-36.17v-86.84s-81.41-13.59-127.5-38.01c-46.17-24.45-46.68-39.38-57.54-85.51-10.86-46.13 10.86-293.1 10.86-293.1s-15.9-59.22 43.95-77.34c33.52-10.16 71.52-4.766 101.4 8.789 29.88 13.55 81.8 31.91 148.4 2.07 56.56-25.39 62.19-20.51 98.63-8.867 26.6 8.516 43.28 30.9 48.01 97.27 4.805 67.66 12.97 221 21.09 248.1 8.164 27.15 6.68 86.88-83.59 111.3-113.5 30.74-111.3 38.01-111.3 38.01l-8.164 86.88 53.44 35.2-14.41 47.03 39.65 74.49s-88.16-45.47-121.4-45.47-112.3 43.44-112.3 43.44zm0 0" fill="none" stroke="#231f1f" stroke-linecap="round" stroke-linejoin="round" stroke-miterlimit="10" stroke-width="10"/>
<path d="m43.84 123.3c-3.047 10.85-5.395 20.64-4.785 19.16 0 0 1.695 1.797 5.223 4.238 3.531 2.441 9.516 5.816 16.15 3.617 4.188-1.387 5.578-2.957 5.578-2.957l0.8281-0.1094s3.434 1.195 6.418 2.551c2.988 1.359 11.05 1.469 15.39-2.602 4.344-4.07 3.953-4.996 3.953-4.996s-3.121-13.5-4.199-18.57c-1.07-5.035-0.8438-11.42-0.8438-11.42l0.6758-16.84s-0.6484 6.797-8.758 6.277c-2.848-0.1797-4.562-2.02-7.844-2.633-3.281-0.6094-3.68-2.051-9.508 0-5.824 2.055-8.539 2.762-10.86 2.73-3.988-0.05078-6.555-3.141-6.555-3.141l0.3281 12.52s-0.1367 8.387-1.199 12.17" fill="#fff"/>
<path transform="matrix(.1 0 0 -.1 0 287.3)" d="m438.4 1640c-30.47-108.5-53.95-206.4-47.85-191.6 0 0 16.95-17.97 52.23-42.38 35.31-24.41 95.16-58.16 161.5-36.17 41.88 13.87 55.78 29.57 55.78 29.57l8.281 1.094s34.34-11.95 64.18-25.51c29.88-13.59 110.5-14.69 153.9 26.02 43.44 40.7 39.53 49.96 39.53 49.96s-31.21 135-41.99 185.7c-10.7 50.35-8.438 114.2-8.438 114.2l6.758 168.4s-6.484-67.97-87.58-62.77c-28.48 1.797-45.62 20.2-78.44 26.33-32.81 6.094-36.8 20.51-95.08 0-58.24-20.55-85.39-27.62-108.6-27.3-39.88 0.5078-65.55 31.41-65.55 31.41l3.281-125.2s-1.367-83.87-11.99-121.7zm0 0" fill="none" stroke="#231f1f" stroke-linecap="round" stroke-linejoin="round" stroke-miterlimit="10" stroke-width="10"/>
<path d="m186.2 137.9c3.082 3.988 11.66 7.516 11.66 7.516h2.473s6.832-3.852 12.73-10.77c5.902-6.918 10.36-13.06 10.36-13.06s-1.488-6.688-2.672-11.59-1.859-11.78-1.859-11.78-5.621-3.672-10.1-8.559c-4.477-4.883-8.789-9.973-8.789-9.973s-5.66 3.461-10.55 8.348c-4.887 4.883-9.938 11.21-9.938 11.21s-1.508 9.184-2.461 13.31-1.852 8.863-1.852 8.863 7.531 12.01 10.99 16.49" fill="#fff"/>
<path transform="matrix(.1 0 0 -.1 0 287.3)" d="m1862 1494c30.82-39.88 116.6-75.16 116.6-75.16h24.73s68.32 38.52 127.3 107.7c59.02 69.18 103.6 130.6 103.6 130.6s-14.88 66.88-26.72 115.9c-11.84 49.02-18.59 117.8-18.59 117.8s-56.21 36.72-101 85.59c-44.77 48.83-87.89 99.73-87.89 99.73s-56.6-34.61-105.5-83.48c-48.87-48.83-99.38-112.1-99.38-112.1s-15.08-91.84-24.61-133.1-18.52-88.63-18.52-88.63 75.31-120.1 109.9-164.9zm0 0" fill="none" stroke="#231f1f" stroke-linecap="round" stroke-linejoin="round" stroke-miterlimit="10" stroke-width="10"/>
<path d="m174 58.91s4.277-0.8164 10.59-2.445 10.99-3.867 10.99-3.867v-9.566l-4.766-3.492 8.52 5.73 3.754-2.484 4.734-3.129-4.734 3.129-0.1797 9.609s5.09 2.848 9.566 3.664c4.48 0.8125 12.62 2.852 12.62 2.852s0.003907 6.012-1.652 11.91c-1.602 5.699-2.75 13.88-3.324 17.66-0.5703 3.781-1.207 9.727-1.207 9.727s-5.504-3.582-9.105-7.512c-3.602-3.93-9.785-11.02-9.785-11.02s-6.977 4.578-10.55 8.348c-3.57 3.766-9.938 11.21-9.938 11.21s0.4219-6.309-0.06641-10.6c-0.4883-4.293-2.316-14.27-3.535-19.25-1.223-4.98-1.934-10.48-1.934-10.48" fill="#fff"/>
<path transform="matrix(.1 0 0 -.1 0 287.3)" d="m1740 2284s42.77 8.164 105.9 24.45c63.09 16.29 109.9 38.67 109.9 38.67v95.66l-47.66 34.92 85.2-57.3 37.54 24.84 47.34 31.29-47.34-31.29-1.797-96.09s50.9-28.48 95.66-36.64c44.8-8.125 126.2-28.52 126.2-28.52s0.03906-60.12-16.52-119.1c-16.02-56.99-27.5-138.8-33.24-176.6-5.703-37.81-12.07-97.27-12.07-97.27s-55.04 35.82-91.05 75.12-97.85 110.2-97.85 110.2-69.77-45.78-105.5-83.48c-35.7-37.66-99.38-112.1-99.38-112.1s4.219 63.09-0.6641 106c-4.883 42.93-23.16 142.7-35.35 192.5-12.23 49.8-19.34 104.8-19.34 104.8zm0 0" fill="none" stroke="#231f1f" stroke-linecap="round" stroke-linejoin="round" stroke-miterlimit="10" stroke-width="10"/>
<g clip-path="url(#j)">
<path d="m58.97 286.5h1.117c0.7578 0 1.586-0.2344 1.586-1.098 0-0.75-0.5312-1.074-1.504-1.074h-1.199zm0-2.926h1.164c0.6836 0 1.25-0.2969 1.25-0.9922 0-0.6836-0.5469-0.9531-1.395-0.9531h-1.02zm-0.8906-2.691h2.199c0.9609 0 1.996 0.3945 1.996 1.609 0 0.7031-0.4492 1.207-1.117 1.387v0.01953c0.8203 0.09766 1.414 0.6562 1.414 1.547 0 1.227-1.062 1.809-2.395 1.809h-2.098v-6.371" fill="#231f1f"/>
</g>
<g clip-path="url(#h)">
<path d="m66.26 285.2c-0.8398 0-1.902 0.08984-1.902 0.8086 0 0.5039 0.4531 0.668 0.875 0.668 0.793 0 1.234-0.5352 1.234-1.254v-0.2227zm0.207-0.7305c0-0.6289-0.4258-0.9375-1.055-0.9375-0.4766 0-0.9258 0.207-1.215 0.4961l-0.4492-0.5391c0.4141-0.3984 1.051-0.6406 1.746-0.6406 1.223 0 1.781 0.7305 1.781 1.676v1.863c0 0.2891 0.01953 0.6406 0.0625 0.8438h-0.7617c-0.04688-0.1875-0.07422-0.4102-0.07422-0.6094h-0.02734c-0.3047 0.457-0.793 0.7188-1.43 0.7188-0.6758 0-1.551-0.332-1.551-1.312 0-1.289 1.531-1.441 2.973-1.441v-0.1172" fill="#231f1f"/>
</g>
<g clip-path="url(#g)">
<path d="m71.68 284c-0.1797-0.2812-0.5781-0.4883-0.9805-0.4883-0.8828 0-1.398 0.7227-1.398 1.539 0 0.8125 0.5156 1.539 1.406 1.539 0.4336 0 0.8008-0.1797 1.027-0.4688l0.5664 0.5156c-0.3594 0.4141-0.9102 0.6641-1.594 0.6641-1.312 0-2.297-0.8906-2.297-2.25 0-1.34 0.9727-2.25 2.277-2.25 0.6055 0 1.254 0.2422 1.602 0.7031l-0.6094 0.4961" fill="#231f1f"/>
</g>
<g clip-path="url(#f)">
<path d="m74 284.8h0.02734l1.793-1.855h1.133l-2 1.938 2.172 2.328h-1.172l-1.926-2.215h-0.02734v2.215h-0.8477v-6.805h0.8477v4.395" fill="#231f1f"/>
</g>
<g clip-path="url(#e)">
<path d="m190.2 287.2h-0.8906v-6.371h3.98v0.7812h-3.09v1.98h2.891v0.7656h-2.891v2.844" fill="#231f1f"/>
</g>
<g clip-path="url(#d)">
<path d="m194 282.9h0.8008c0.01953 0.2148 0.03516 0.5391 0.03516 0.7188h0.02734c0.2344-0.4922 0.7305-0.8359 1.305-0.8359 0.1172 0 0.2344 0.007813 0.3359 0.03516l-0.03906 0.7852c-0.1055-0.02734-0.25-0.04688-0.3867-0.04688-0.8086 0-1.195 0.6602-1.195 1.371v2.238h-0.8477v-3.348c0-0.2227-0.007813-0.6367-0.03516-0.918" fill="#231f1f"/>
</g>
<g clip-path="url(#c)">
<path d="m199.1 283.5c-0.9102 0-1.422 0.7305-1.422 1.539 0 0.8086 0.5117 1.547 1.422 1.547 0.918 0 1.422-0.7383 1.422-1.547 0-0.8086-0.5039-1.539-1.422-1.539zm0 3.797c-1.305 0-2.297-0.9414-2.297-2.258 0-1.312 0.9922-2.242 2.297-2.242s2.305 0.9297 2.305 2.242c0 1.316-1 2.258-2.305 2.258" fill="#231f1f"/>
</g>
<g clip-path="url(#b)">
<path d="m203.4 282.9c0.01953 0.2148 0.03516 0.5234 0.03516 0.7031h0.02734c0.207-0.4609 0.7734-0.8203 1.387-0.8203 1.098 0 1.594 0.7852 1.594 1.738v2.645h-0.8477v-2.367c0-0.6914-0.1875-1.305-0.9727-1.305-0.6641 0-1.141 0.5586-1.141 1.406v2.266h-0.8477v-3.348c0-0.2227-0.007812-0.6367-0.03516-0.918h0.8008" fill="#231f1f"/>
</g>
<g clip-path="url(#a)">
<path d="m209.9 283.6h-1.137v2.223c0 0.5117 0.1797 0.7188 0.6055 0.7188 0.1523 0 0.3477-0.03516 0.4922-0.1055l0.02734 0.6914c-0.1953 0.07031-0.457 0.1172-0.7188 0.1172-0.8008 0-1.242-0.4492-1.242-1.332v-2.312h-0.8203v-0.6953h0.8203v-1.223h0.8359v1.223h1.137v0.6953" fill="#231f1f"/>
</g>
<path d="m293.7 68.08h8.539v-8.539h-8.539zm-0.5234 0.5312v-9.594h9.594v9.594h-9.594" fill="#231f1f"/>
<path d="m307.4 61.91h0.6953v2.074h2.508v-2.074h0.6992v4.957h-0.6992v-2.266h-2.508v2.266h-0.6953v-4.957" fill="#231f1f"/>
<path d="m314.9 64.91c-0.01562-0.5234-0.3242-0.9375-0.9297-0.9375-0.5703 0-1.004 0.418-1.047 0.9375zm0.6562 0.4922h-2.633c0.02344 0.5664 0.5 1.008 1.082 1.008 0.4453 0 0.7734-0.2266 0.9648-0.5039l0.4609 0.3711c-0.3555 0.4609-0.8398 0.6758-1.426 0.6758-1.012 0-1.754-0.6992-1.754-1.742 0-1.035 0.7422-1.758 1.719-1.758 0.9766 0 1.594 0.6641 1.594 1.723 0 0.07031 0 0.1484-0.007812 0.2266" fill="#231f1f"/>
<path d="m318.3 65.28c-0.6523 0-1.48 0.07031-1.48 0.6289 0 0.3945 0.3516 0.5195 0.6797 0.5195 0.6172 0 0.9609-0.4141 0.9609-0.9727v-0.1758zm0.1602-0.5664c0-0.4922-0.3281-0.7305-0.8203-0.7305-0.3711 0-0.7188 0.1641-0.9453 0.3867l-0.3477-0.4219c0.3203-0.3047 0.8164-0.4961 1.355-0.4961 0.9531 0 1.387 0.5664 1.387 1.305v1.449c0 0.2227 0.01562 0.4961 0.05078 0.6562h-0.5938c-0.03516-0.1445-0.05859-0.3203-0.05859-0.4727h-0.01953c-0.2383 0.3555-0.6172 0.5586-1.117 0.5586-0.5234 0-1.203-0.2617-1.203-1.023 0-1 1.191-1.121 2.312-1.121v-0.08984" fill="#231f1f"/>
<path d="m321.8 66.4c0.6719 0 1.121-0.5586 1.121-1.199 0-0.6367-0.4492-1.203-1.121-1.203-0.7227 0-1.102 0.5742-1.102 1.199 0 0.6211 0.3789 1.203 1.102 1.203zm-0.1133 0.5508c-1.023 0-1.672-0.7812-1.672-1.754 0-0.9805 0.6719-1.746 1.668-1.746 0.5391 0 0.9531 0.2656 1.18 0.5898h0.01562v-2.473h0.6602v5.293h-0.6406v-0.5234h-0.01172c-0.25 0.3984-0.7305 0.6133-1.199 0.6133" fill="#231f1f"/>
<path d="m293.7 87.08h8.539v-8.539h-8.539zm-0.5234 0.5312v-9.594h9.594v9.594h-9.594" fill="#231f1f"/>
<path d="m308.1 85.25h2.211v0.6172h-2.906v-4.957h0.6953v4.34" fill="#231f1f"/>
<path d="m313.2 83.91c-0.01562-0.5234-0.3203-0.9375-0.9297-0.9375-0.5703 0-1.004 0.418-1.047 0.9375zm0.6602 0.4922h-2.637c0.02344 0.5664 0.5 1.008 1.082 1.008 0.4492 0 0.7773-0.2266 0.9648-0.5039l0.4609 0.3711c-0.3555 0.4609-0.8398 0.6758-1.426 0.6758-1.008 0-1.754-0.6992-1.754-1.742 0-1.035 0.7461-1.758 1.719-1.758 0.9805 0 1.594 0.6641 1.594 1.723 0 0.07031 0 0.1484-0.003907 0.2266" fill="#231f1f"/>
<path d="m316.3 83.09h-0.7734v2.777h-0.6562v-2.777h-0.6602v-0.5391h0.6602v-0.6953c0-0.7773 0.3438-1.367 1.238-1.367 0.1523 0 0.2891 0.01562 0.4141 0.05078l-0.07812 0.5664c-0.09766-0.02734-0.2031-0.04687-0.3281-0.04687-0.4961 0-0.5898 0.3906-0.5898 0.7969v0.6953h0.7734v0.5391" fill="#231f1f"/>
<path d="m318.5 83.09h-0.8789v1.727c0 0.4023 0.1367 0.5625 0.4688 0.5625 0.1172 0 0.2734-0.02734 0.3828-0.08594l0.02344 0.5391c-0.1562 0.05859-0.3594 0.09375-0.5625 0.09375-0.6211 0-0.9648-0.3516-0.9648-1.039v-1.797h-0.6367v-0.5391h0.6367v-0.9531h0.6523v0.9531h0.8789v0.5391" fill="#231f1f"/>
<path d="m322.8 84.28c-0.6523 0-1.48 0.07031-1.48 0.6289 0 0.3945 0.3516 0.5195 0.6797 0.5195 0.6172 0 0.9609-0.4141 0.9609-0.9727v-0.1758zm0.1602-0.5664c0-0.4922-0.3281-0.7305-0.8203-0.7305-0.3711 0-0.7188 0.1641-0.9453 0.3867l-0.3516-0.4219c0.3242-0.3047 0.8203-0.4961 1.359-0.4961 0.9531 0 1.387 0.5664 1.387 1.305v1.449c0 0.2227 0.01562 0.4961 0.05078 0.6562h-0.5938c-0.03906-0.1445-0.05859-0.3203-0.05859-0.4727h-0.01953c-0.2383 0.3555-0.6172 0.5586-1.117 0.5586-0.5234 0-1.203-0.2617-1.203-1.023 0-1 1.191-1.121 2.312-1.121v-0.08984" fill="#231f1f"/>
<path d="m324.7 82.55h0.625c0.01172 0.168 0.02734 0.418 0.02734 0.5586h0.01953c0.1836-0.3867 0.5664-0.6523 1.016-0.6523 0.08984 0 0.1836 0.007813 0.2578 0.02734l-0.02734 0.6094c-0.08203-0.01953-0.1953-0.03516-0.3008-0.03516-0.6289 0-0.9297 0.5117-0.9297 1.066v1.742h-0.6602v-2.605c0-0.1719-0.007812-0.4961-0.02734-0.7109" fill="#231f1f"/>
<path d="m328.9 82.45c0.4414 0 0.8242 0.1953 1.027 0.6641 0.2227-0.4258 0.6602-0.6641 1.129-0.6641 0.8555 0 1.238 0.6094 1.238 1.352v2.059h-0.6562v-1.84c0-0.5391-0.1602-1.016-0.7383-1.016-0.6016 0-0.8398 0.5469-0.8398 1.062v1.793h-0.6562v-1.973c0-0.5195-0.1758-0.8828-0.7031-0.8828-0.4805 0-0.8477 0.4336-0.8477 1.094v1.762h-0.6562v-2.605c0-0.1719-0.007813-0.4961-0.02734-0.7109h0.6211c0.01562 0.168 0.02734 0.4023 0.02734 0.543h0.02344c0.168-0.3477 0.5547-0.6367 1.059-0.6367" fill="#231f1f"/>
<path d="m293.7 106.1h8.539v-8.539h-8.539zm-0.5234 0.5312v-9.594h9.594v9.594h-9.594" fill="#231f1f"/>
<path d="m308.1 102.1h0.7969c0.6523 0 1.164-0.2031 1.164-0.8008 0-0.5938-0.5117-0.7852-1.113-0.7852h-0.8477zm0 2.785h-0.6953v-4.957h1.59c0.9609 0 1.766 0.3633 1.766 1.371 0 0.7305-0.4961 1.191-1.203 1.312l1.387 2.273h-0.8398l-1.262-2.203h-0.7422v2.203" fill="#231f1f"/>
<path d="m312.3 104.9h-0.6562v-3.316h0.6562zm-0.3281-4.098c-0.2383 0-0.4336-0.1875-0.4336-0.418 0-0.2383 0.1953-0.4258 0.4336-0.4258s0.4414 0.1797 0.4414 0.4258c0 0.2383-0.2031 0.418-0.4414 0.418" fill="#231f1f"/>
<path d="m315 104.3c0.6836 0 1.129-0.5117 1.129-1.168 0-0.6328-0.4531-1.172-1.129-1.172-0.6914 0-1.098 0.5312-1.098 1.172 0 0.6055 0.4062 1.168 1.098 1.168zm-1.301 1.094c0.2852 0.3203 0.7578 0.5391 1.211 0.5391 0.875 0 1.172-0.5391 1.172-1.227v-0.4297h-0.01562c-0.2461 0.3711-0.6992 0.5742-1.168 0.5742-1.016 0-1.676-0.7539-1.676-1.707s0.6523-1.73 1.668-1.73c0.4766 0 0.9453 0.2109 1.195 0.625h0.01562v-0.5312h0.6367v3.148c0 0.9688-0.4531 1.852-1.836 1.852-0.5742 0-1.211-0.2266-1.625-0.6055l0.4219-0.5078" fill="#231f1f"/>
<path d="m318.5 102.1c0.1562-0.332 0.5742-0.5977 1.051-0.5977 0.8555 0 1.242 0.6094 1.242 1.352v2.059h-0.6602v-1.832c0-0.543-0.1406-1.016-0.75-1.016-0.5195 0-0.8984 0.4336-0.8984 1.09v1.758h-0.6562v-5.293h0.6562v2.48h0.01562" fill="#231f1f"/>
<path d="m323.6 102.1h-0.8828v1.727c0 0.4023 0.1406 0.5625 0.4688 0.5625 0.1211 0 0.2734-0.02734 0.3867-0.08594l0.01953 0.5391c-0.1523 0.05859-0.3555 0.09375-0.5586 0.09375-0.625 0-0.9688-0.3516-0.9688-1.039v-1.797h-0.6367v-0.5391h0.6367v-0.9531h0.6523v0.9531h0.8828v0.5391" fill="#231f1f"/>
<path d="m327.9 103.3c-0.6484 0-1.477 0.07031-1.477 0.6289 0 0.3945 0.3477 0.5195 0.6797 0.5195 0.6172 0 0.957-0.4141 0.957-0.9727v-0.1758zm0.1602-0.5664c0-0.4922-0.3281-0.7305-0.8164-0.7305-0.375 0-0.7227 0.1641-0.9453 0.3867l-0.3516-0.4219c0.3203-0.3047 0.8203-0.4961 1.359-0.4961 0.9531 0 1.387 0.5664 1.387 1.305v1.449c0 0.2227 0.01172 0.4961 0.04688 0.6562h-0.5938c-0.03516-0.1445-0.05469-0.3203-0.05469-0.4727h-0.02344c-0.2383 0.3555-0.6172 0.5586-1.113 0.5586-0.5234 0-1.203-0.2617-1.203-1.023 0-1 1.188-1.121 2.309-1.121v-0.08984" fill="#231f1f"/>
<path d="m329.8 101.5h0.625c0.01562 0.168 0.02734 0.418 0.02734 0.5586h0.02344c0.1797-0.3867 0.5664-0.6523 1.016-0.6523 0.08984 0 0.1797 0.007813 0.2578 0.02734l-0.02734 0.6094c-0.08594-0.01953-0.1953-0.03516-0.3008-0.03516-0.6328 0-0.9336 0.5117-0.9336 1.066v1.742h-0.6562v-2.605c0-0.1719-0.007813-0.4961-0.03125-0.7109" fill="#231f1f"/>
<path d="m334 101.5c0.4414 0 0.8281 0.1953 1.031 0.6641 0.2227-0.4258 0.6562-0.6641 1.125-0.6641 0.8555 0 1.242 0.6094 1.242 1.352v2.059h-0.6602v-1.84c0-0.5391-0.1602-1.016-0.7344-1.016-0.6016 0-0.8398 0.5469-0.8398 1.062v1.793h-0.6602v-1.973c0-0.5195-0.1758-0.8828-0.6992-0.8828-0.4844 0-0.8477 0.4336-0.8477 1.094v1.762h-0.6602v-2.605c0-0.1719-0.003907-0.4961-0.02734-0.7109h0.625c0.01172 0.168 0.02734 0.4023 0.02734 0.543h0.02344c0.1641-0.3477 0.5508-0.6367 1.055-0.6367" fill="#231f1f"/>
<path d="m293.7 125.1h8.539v-8.539h-8.539zm-0.5234 0.5312v-9.594h9.594v9.594h-9.594" fill="#231f1f"/>
<path d="m311.6 123.1c-0.3867 0.5273-1.023 0.8984-1.891 0.8984-1.523 0-2.613-1.086-2.613-2.613 0-1.551 1.133-2.598 2.641-2.598 0.6797 0 1.414 0.2656 1.777 0.7695l-0.5469 0.4219c-0.2383-0.3398-0.7188-0.582-1.23-0.582-1.148 0-1.887 0.9023-1.887 1.988 0 1.113 0.7227 1.996 1.863 1.996 0.5547 0 1.039-0.2305 1.332-0.6602l0.5547 0.3789" fill="#231f1f"/>
<path d="m313 121.1c0.1523-0.332 0.5742-0.5977 1.051-0.5977 0.8555 0 1.238 0.6094 1.238 1.352v2.059h-0.6562v-1.832c0-0.543-0.1406-1.016-0.75-1.016-0.5195 0-0.8984 0.4336-0.8984 1.09v1.758h-0.6562v-5.293h0.6562v2.48h0.01562" fill="#231f1f"/>
<path d="m318.8 121.9c-0.01562-0.5234-0.3242-0.9375-0.9336-0.9375-0.5664 0-1 0.418-1.043 0.9375zm0.6562 0.4922h-2.633c0.02344 0.5664 0.4961 1.008 1.078 1.008 0.4492 0 0.7812-0.2266 0.9688-0.5039l0.4609 0.3711c-0.3555 0.4609-0.8398 0.6758-1.43 0.6758-1.008 0-1.75-0.6992-1.75-1.742 0-1.035 0.7422-1.758 1.715-1.758 0.9844 0 1.598 0.6641 1.598 1.723 0 0.07031 0 0.1484-0.007813 0.2266" fill="#231f1f"/>
<path d="m322.2 121.4c-0.1484-0.2383-0.4375-0.4141-0.7734-0.4141-0.3008 0-0.6172 0.1172-0.6172 0.4336 0 0.2812 0.2539 0.3828 0.7578 0.4961 0.6328 0.1406 1.113 0.4023 1.113 0.9805 0 0.7852-0.6484 1.07-1.324 1.07-0.5039 0-1.023-0.1914-1.336-0.5938l0.4688-0.3984c0.1758 0.2578 0.5117 0.4609 0.8828 0.4609 0.3281 0 0.6602-0.1172 0.6602-0.4805 0-0.3086-0.3047-0.4219-0.8711-0.5547-0.4414-0.1055-0.9648-0.293-0.9648-0.918 0-0.7148 0.6211-1.016 1.254-1.016 0.4688 0 0.9648 0.1914 1.203 0.5469l-0.4531 0.3867" fill="#231f1f"/>
<path d="m325.1 121.1h-0.8828v1.727c0 0.4023 0.1406 0.5625 0.4688 0.5625 0.1211 0 0.2734-0.02734 0.3867-0.08594l0.01953 0.5391c-0.1523 0.05859-0.3555 0.09375-0.5586 0.09375-0.6211 0-0.9688-0.3516-0.9688-1.039v-1.797h-0.6367v-0.5391h0.6367v-0.9531h0.6523v0.9531h0.8828v0.5391" fill="#231f1f"/>
<path d="m293.7 144.1h8.539v-8.539h-8.539zm-0.5234 0.5312v-9.594h9.594v9.594h-9.594" fill="#231f1f"/>
<path d="m308.2 141h1.855l-0.9219-2.324zm-0.7422 1.828h-0.7695l2.148-4.957h0.6328l2.129 4.957h-0.7852l-0.5039-1.219h-2.355l-0.4961 1.219" fill="#231f1f"/>
<path d="m313.9 140c-0.6758 0-1.121 0.5664-1.121 1.203 0 0.6406 0.4453 1.199 1.121 1.199 0.7188 0 1.105-0.582 1.105-1.203 0-0.625-0.3867-1.199-1.105-1.199zm-1.102 2.34v0.5234h-0.6367v-5.293h0.6562v2.473h0.02344c0.2227-0.3242 0.6367-0.5898 1.184-0.5898 0.9844 0 1.66 0.7656 1.66 1.746 0 0.9727-0.6523 1.754-1.676 1.754-0.4688 0-0.9375-0.2148-1.195-0.6133h-0.01562" fill="#231f1f"/>
<path d="m318.2 142.4c0.6719 0 1.121-0.5586 1.121-1.199 0-0.6367-0.4492-1.203-1.121-1.203-0.7227 0-1.102 0.5742-1.102 1.199 0 0.6211 0.3789 1.203 1.102 1.203zm-0.1133 0.5508c-1.023 0-1.676-0.7812-1.676-1.754 0-0.9805 0.6758-1.746 1.668-1.746 0.5391 0 0.9531 0.2656 1.184 0.5898h0.01562v-2.473h0.6602v5.293h-0.6406v-0.5234h-0.01172c-0.2539 0.3984-0.7305 0.6133-1.199 0.6133" fill="#231f1f"/>
<path d="m322.6 140c-0.707 0-1.105 0.5664-1.105 1.199 0 0.6289 0.3984 1.203 1.105 1.203 0.7148 0 1.109-0.5742 1.109-1.203 0-0.6328-0.3945-1.199-1.109-1.199zm0 2.953c-1.016 0-1.785-0.7344-1.785-1.754 0-1.023 0.7695-1.746 1.785-1.746s1.793 0.7227 1.793 1.746c0 1.02-0.7773 1.754-1.793 1.754" fill="#231f1f"/>
<path d="m327 139.5c0.4414 0 0.8242 0.1953 1.027 0.6641 0.2266-0.4258 0.6602-0.6641 1.129-0.6641 0.8555 0 1.238 0.6094 1.238 1.352v2.059h-0.6562v-1.84c0-0.5391-0.1641-1.016-0.7344-1.016-0.6055 0-0.8438 0.5469-0.8438 1.062v1.793h-0.6562v-1.973c0-0.5195-0.1758-0.8828-0.6992-0.8828-0.4844 0-0.8516 0.4336-0.8516 1.094v1.762h-0.6562v-2.605c0-0.1719-0.007813-0.4961-0.02734-0.7109h0.6211c0.01562 0.168 0.03125 0.4023 0.03125 0.543h0.01953c0.168-0.3477 0.5508-0.6367 1.059-0.6367" fill="#231f1f"/>
<path d="m334 140.9c-0.01562-0.5234-0.3242-0.9375-0.9336-0.9375-0.5664 0-1 0.418-1.043 0.9375zm0.6562 0.4922h-2.633c0.01953 0.5664 0.4961 1.008 1.078 1.008 0.4492 0 0.7773-0.2266 0.9688-0.5039l0.4609 0.3711c-0.3594 0.4609-0.8398 0.6758-1.43 0.6758-1.008 0-1.75-0.6992-1.75-1.742 0-1.035 0.7422-1.758 1.715-1.758 0.9805 0 1.598 0.6641 1.598 1.723 0 0.07031 0 0.1484-0.007812 0.2266" fill="#231f1f"/>
<path d="m336.2 139.5c0.01172 0.168 0.02734 0.4023 0.02734 0.543h0.01953c0.1602-0.3555 0.6016-0.6367 1.078-0.6367 0.8555 0 1.242 0.6094 1.242 1.352v2.059h-0.6602v-1.84c0-0.5391-0.1445-1.016-0.7578-1.016-0.5156 0-0.8867 0.4336-0.8867 1.094v1.762h-0.6602v-2.605c0-0.1719-0.003906-0.4961-0.02734-0.7109h0.625" fill="#231f1f"/>
<path d="m293.7 163.1h8.539v-8.539h-8.539zm-0.5234 0.5312v-9.594h9.594v9.594h-9.594" fill="#231f1f"/>
<path d="m307.3 160v-3.125h0.6953v3.082c0 0.6797 0.3086 1.379 1.23 1.379 0.9258 0 1.234-0.6992 1.234-1.379v-3.082h0.6953v3.125c0 1.016-0.6172 1.961-1.93 1.961-1.309 0-1.926-0.9453-1.926-1.961" fill="#231f1f"/>
<path d="m314 159c-0.6719 0-1.121 0.5664-1.121 1.203 0 0.6406 0.4492 1.199 1.121 1.199 0.7188 0 1.105-0.582 1.105-1.203 0-0.625-0.3867-1.199-1.105-1.199zm-1.078 4.547h-0.6602v-5h0.6445v0.5156h0.02344c0.2148-0.3477 0.6484-0.6094 1.195-0.6094 0.9883 0 1.66 0.7656 1.66 1.746 0 0.9727-0.6523 1.754-1.676 1.754-0.4688 0-0.9219-0.2148-1.168-0.5859h-0.01953v2.18" fill="#231f1f"/>
<path d="m318.5 159c-0.6719 0-1.121 0.5664-1.121 1.203 0 0.6406 0.4492 1.199 1.121 1.199 0.7227 0 1.109-0.582 1.109-1.203 0-0.625-0.3867-1.199-1.109-1.199zm-1.078 4.547h-0.6602v-5h0.6445v0.5156h0.02344c0.2188-0.3477 0.6484-0.6094 1.195-0.6094 0.9883 0 1.66 0.7656 1.66 1.746 0 0.9727-0.6523 1.754-1.672 1.754-0.4688 0-0.9258-0.2148-1.168-0.5859h-0.02344v2.18" fill="#231f1f"/>
<path d="m323.6 159.9c-0.01562-0.5234-0.3242-0.9375-0.9336-0.9375-0.5664 0-1 0.418-1.043 0.9375zm0.6562 0.4922h-2.633c0.01953 0.5664 0.4961 1.008 1.078 1.008 0.4492 0 0.7773-0.2266 0.9648-0.5039l0.4648 0.3711c-0.3594 0.4609-0.8398 0.6758-1.43 0.6758-1.008 0-1.75-0.6992-1.75-1.742 0-1.035 0.7422-1.758 1.715-1.758 0.9805 0 1.598 0.6641 1.598 1.723 0 0.07031 0 0.1484-0.007813 0.2266" fill="#231f1f"/>
<path d="m325.2 158.5h0.625c0.01563 0.168 0.02734 0.418 0.02734 0.5586h0.02344c0.1797-0.3867 0.5664-0.6523 1.012-0.6523 0.09375 0 0.1836 0.007813 0.2617 0.02734l-0.02734 0.6094c-0.08594-0.01953-0.1992-0.03516-0.3047-0.03516-0.6289 0-0.9297 0.5117-0.9297 1.066v1.742h-0.6602v-2.605c0-0.1719-0.003906-0.4961-0.02734-0.7109" fill="#231f1f"/>
<path d="m331.2 159c-0.6719 0-1.121 0.5664-1.121 1.203 0 0.6406 0.4492 1.199 1.121 1.199 0.7227 0 1.109-0.582 1.109-1.203 0-0.625-0.3867-1.199-1.109-1.199zm-1.098 2.34v0.5234h-0.6406v-5.293h0.6602v2.473h0.02344c0.2227-0.3242 0.6367-0.5898 1.18-0.5898 0.9883 0 1.66 0.7656 1.66 1.746 0 0.9727-0.6484 1.754-1.672 1.754-0.4688 0-0.9375-0.2148-1.199-0.6133h-0.01172" fill="#231f1f"/>
<path d="m335.8 160.3c-0.6523 0-1.48 0.07031-1.48 0.6289 0 0.3945 0.3516 0.5195 0.6797 0.5195 0.6172 0 0.9609-0.4141 0.9609-0.9727v-0.1758zm0.1602-0.5664c0-0.4922-0.332-0.7305-0.8203-0.7305-0.3711 0-0.7227 0.1641-0.9453 0.3867l-0.3516-0.4219c0.3242-0.3047 0.8203-0.4961 1.359-0.4961 0.9531 0 1.387 0.5664 1.387 1.305v1.449c0 0.2227 0.01172 0.4961 0.05078 0.6562h-0.5977c-0.03516-0.1445-0.05469-0.3203-0.05469-0.4727h-0.01953c-0.2422 0.3555-0.6172 0.5586-1.117 0.5586-0.5234 0-1.203-0.2617-1.203-1.023 0-1 1.191-1.121 2.312-1.121v-0.08984" fill="#231f1f"/>
<path d="m340 159.4c-0.1406-0.2188-0.4492-0.3789-0.7617-0.3789-0.6875 0-1.086 0.5586-1.086 1.195 0 0.6328 0.3984 1.199 1.09 1.199 0.3398 0 0.625-0.1406 0.8008-0.3633l0.4414 0.3984c-0.2812 0.3242-0.707 0.5156-1.242 0.5156-1.02 0-1.781-0.6914-1.781-1.75 0-1.043 0.7539-1.75 1.77-1.75 0.4688 0 0.9727 0.1914 1.246 0.5469l-0.4766 0.3867" fill="#231f1f"/>
<path d="m341.9 160h0.02344l1.391-1.441h0.8828l-1.551 1.504 1.684 1.812h-0.9102l-1.496-1.723h-0.02344v1.723h-0.6562v-5.293h0.6562v3.418" fill="#231f1f"/>
<path d="m348.5 160.3c-0.6484 0-1.477 0.07031-1.477 0.6289 0 0.3945 0.3516 0.5195 0.6797 0.5195 0.6172 0 0.9609-0.4141 0.9609-0.9727v-0.1758zm0.1641-0.5664c0-0.4922-0.332-0.7305-0.8203-0.7305-0.3711 0-0.7227 0.1641-0.9453 0.3867l-0.3516-0.4219c0.3242-0.3047 0.8203-0.4961 1.359-0.4961 0.9531 0 1.387 0.5664 1.387 1.305v1.449c0 0.2227 0.01172 0.4961 0.04688 0.6562h-0.5938c-0.03516-0.1445-0.05469-0.3203-0.05469-0.4727h-0.02344c-0.2383 0.3555-0.6133 0.5586-1.113 0.5586-0.5234 0-1.203-0.2617-1.203-1.023 0-1 1.191-1.121 2.312-1.121v-0.08984" fill="#231f1f"/>
<path d="m351 158.5c0.01172 0.168 0.02344 0.4023 0.02344 0.543h0.02344c0.1602-0.3555 0.6016-0.6367 1.078-0.6367 0.8555 0 1.242 0.6094 1.242 1.352v2.059h-0.6602v-1.84c0-0.5391-0.1484-1.016-0.7578-1.016-0.5195 0-0.8906 0.4336-0.8906 1.094v1.762h-0.6562v-2.605c0-0.1719-0.007812-0.4961-0.02734-0.7109h0.625" fill="#231f1f"/>
<path d="m356.1 161.4c0.6719 0 1.121-0.5586 1.121-1.199 0-0.6367-0.4492-1.203-1.121-1.203-0.7227 0-1.102 0.5742-1.102 1.199 0 0.6211 0.3789 1.203 1.102 1.203zm-0.1133 0.5508c-1.023 0-1.676-0.7812-1.676-1.754 0-0.9805 0.6719-1.746 1.668-1.746 0.5391 0 0.9531 0.2656 1.184 0.5898h0.01562v-2.473h0.6562v5.293h-0.6367v-0.5234h-0.01172c-0.2539 0.3984-0.7305 0.6133-1.199 0.6133" fill="#231f1f"/>
<path d="m362.5 159.4c-0.1484-0.2383-0.4375-0.4141-0.7734-0.4141-0.3008 0-0.6133 0.1172-0.6133 0.4336 0 0.2812 0.25 0.3828 0.7539 0.4961 0.6328 0.1406 1.117 0.4023 1.117 0.9805 0 0.7852-0.6523 1.07-1.324 1.07-0.5039 0-1.023-0.1914-1.34-0.5938l0.4688-0.3984c0.1758 0.2578 0.5117 0.4609 0.8828 0.4609 0.3281 0 0.6602-0.1172 0.6602-0.4805 0-0.3086-0.3008-0.4219-0.8711-0.5547-0.4414-0.1055-0.9648-0.293-0.9648-0.918 0-0.7148 0.625-1.016 1.254-1.016 0.4688 0 0.9648 0.1914 1.203 0.5469l-0.4531 0.3867" fill="#231f1f"/>
<path d="m365.5 159c-0.6719 0-1.121 0.5664-1.121 1.203 0 0.6406 0.4492 1.199 1.121 1.199 0.7188 0 1.105-0.582 1.105-1.203 0-0.625-0.3867-1.199-1.105-1.199zm-1.078 4.547h-0.6602v-5h0.6445v0.5156h0.01953c0.2188-0.3477 0.6523-0.6094 1.199-0.6094 0.9883 0 1.66 0.7656 1.66 1.746 0 0.9727-0.6523 1.754-1.676 1.754-0.4648 0-0.9219-0.2148-1.168-0.5859h-0.01953v2.18" fill="#231f1f"/>
<path d="m368.9 161.9h-0.6602v-3.316h0.6602zm-0.332-4.098c-0.2383 0-0.4297-0.1875-0.4297-0.418 0-0.2383 0.1914-0.4258 0.4297-0.4258 0.2422 0 0.4453 0.1797 0.4453 0.4258 0 0.2383-0.2031 0.418-0.4453 0.418" fill="#231f1f"/>
<path d="m370.6 158.5c0.01172 0.168 0.02734 0.4023 0.02734 0.543h0.01953c0.1641-0.3555 0.6055-0.6367 1.078-0.6367 0.8555 0 1.242 0.6094 1.242 1.352v2.059h-0.6602v-1.84c0-0.5391-0.1445-1.016-0.7539-1.016-0.5195 0-0.8906 0.4336-0.8906 1.094v1.762h-0.6602v-2.605c0-0.1719-0.003906-0.4961-0.02734-0.7109h0.625" fill="#231f1f"/>
<path d="m376.5 159.9c-0.01562-0.5234-0.3242-0.9375-0.9336-0.9375-0.5664 0-1 0.418-1.043 0.9375zm0.6562 0.4922h-2.633c0.02344 0.5664 0.4961 1.008 1.078 1.008 0.4492 0 0.7773-0.2266 0.9648-0.5039l0.4648 0.3711c-0.3555 0.4609-0.8398 0.6758-1.43 0.6758-1.008 0-1.75-0.6992-1.75-1.742 0-1.035 0.7422-1.758 1.715-1.758 0.9805 0 1.598 0.6641 1.598 1.723 0 0.07031 0 0.1484-0.007813 0.2266" fill="#231f1f"/>
<path d="m293.7 182.1h8.539v-8.539h-8.539zm-0.5234 0.5312v-9.594h9.594v9.594h-9.594" fill="#231f1f"/>
<path d="m308.1 180.2h2.211v0.6172h-2.906v-4.957h0.6953v4.34" fill="#231f1f"/>
<path d="m312.3 178c-0.707 0-1.109 0.5664-1.109 1.199 0 0.6289 0.4023 1.203 1.109 1.203 0.7109 0 1.105-0.5742 1.105-1.203 0-0.6328-0.3945-1.199-1.105-1.199zm0 2.953c-1.02 0-1.789-0.7344-1.789-1.754 0-1.023 0.7695-1.746 1.789-1.746 1.012 0 1.793 0.7227 1.793 1.746 0 1.02-0.7812 1.754-1.793 1.754" fill="#231f1f"/>
<path d="m315.3 177.5 0.7461 2.531h0.01562l0.793-2.531h0.6914l0.8086 2.531h0.01172l0.75-2.531h0.6953l-1.102 3.316h-0.6875l-0.8203-2.492h-0.01172l-0.8125 2.492h-0.6875l-1.105-3.316h0.7148" fill="#231f1f"/>
<path d="m322.9 178.9c-0.01562-0.5234-0.3242-0.9375-0.9336-0.9375-0.5664 0-1.004 0.418-1.043 0.9375zm0.6562 0.4922h-2.633c0.01953 0.5664 0.4961 1.008 1.078 1.008 0.4492 0 0.7773-0.2266 0.9648-0.5039l0.4648 0.3711c-0.3594 0.4609-0.8438 0.6758-1.43 0.6758-1.008 0-1.75-0.6992-1.75-1.742 0-1.035 0.7422-1.758 1.715-1.758 0.9805 0 1.598 0.6641 1.598 1.723 0 0.07031 0 0.1484-0.007812 0.2266" fill="#231f1f"/>
<path d="m324.4 177.5h0.6211c0.01562 0.168 0.03125 0.418 0.03125 0.5586h0.01953c0.1797-0.3867 0.5664-0.6523 1.016-0.6523 0.08984 0 0.1797 0.007813 0.2578 0.02734l-0.02734 0.6094c-0.08594-0.01953-0.1953-0.03516-0.3008-0.03516-0.6289 0-0.9336 0.5117-0.9336 1.066v1.742h-0.6562v-2.605c0-0.1719-0.007813-0.4961-0.02734-0.7109" fill="#231f1f"/>
<path d="m330.5 178c-0.6719 0-1.121 0.5664-1.121 1.203 0 0.6406 0.4492 1.199 1.121 1.199 0.7227 0 1.105-0.582 1.105-1.203 0-0.625-0.3828-1.199-1.105-1.199zm-1.102 2.34v0.5234h-0.6367v-5.293h0.6602v2.473h0.01953c0.2227-0.3242 0.6367-0.5898 1.184-0.5898 0.9883 0 1.66 0.7656 1.66 1.746 0 0.9727-0.6484 1.754-1.672 1.754-0.4727 0-0.9375-0.2148-1.199-0.6133h-0.01562" fill="#231f1f"/>
<path d="m335.1 179.3c-0.6523 0-1.477 0.07031-1.477 0.6289 0 0.3945 0.3477 0.5195 0.6797 0.5195 0.6172 0 0.957-0.4141 0.957-0.9727v-0.1758zm0.1602-0.5664c0-0.4922-0.3281-0.7305-0.8164-0.7305-0.375 0-0.7227 0.1641-0.9453 0.3867l-0.3516-0.4219c0.3203-0.3047 0.8203-0.4961 1.359-0.4961 0.9531 0 1.387 0.5664 1.387 1.305v1.449c0 0.2227 0.01172 0.4961 0.04687 0.6562h-0.5938c-0.03516-0.1445-0.05469-0.3203-0.05469-0.4727h-0.02344c-0.2383 0.3555-0.6172 0.5586-1.113 0.5586-0.5234 0-1.203-0.2617-1.203-1.023 0-1 1.188-1.121 2.309-1.121v-0.08984" fill="#231f1f"/>
<path d="m339.3 178.4c-0.1406-0.2188-0.4492-0.3789-0.7656-0.3789-0.6836 0-1.082 0.5586-1.082 1.195 0 0.6328 0.3984 1.199 1.09 1.199 0.3359 0 0.625-0.1406 0.8008-0.3633l0.4414 0.3984c-0.2812 0.3242-0.707 0.5156-1.242 0.5156-1.023 0-1.785-0.6914-1.785-1.75 0-1.043 0.7578-1.75 1.773-1.75 0.4688 0 0.9727 0.1914 1.246 0.5469l-0.4766 0.3867" fill="#231f1f"/>
<path d="m341.1 179h0.01953l1.395-1.441h0.8828l-1.555 1.504 1.688 1.812h-0.9102l-1.5-1.723h-0.01953v1.723h-0.6562v-5.293h0.6562v3.418" fill="#231f1f"/>
<path d="m347.8 179.3c-0.6523 0-1.48 0.07031-1.48 0.6289 0 0.3945 0.3516 0.5195 0.6797 0.5195 0.6172 0 0.9609-0.4141 0.9609-0.9727v-0.1758zm0.1602-0.5664c0-0.4922-0.3281-0.7305-0.8203-0.7305-0.3711 0-0.7188 0.1641-0.9453 0.3867l-0.3477-0.4219c0.3203-0.3047 0.8164-0.4961 1.355-0.4961 0.9531 0 1.391 0.5664 1.391 1.305v1.449c0 0.2227 0.01172 0.4961 0.04688 0.6562h-0.5938c-0.03516-0.1445-0.05859-0.3203-0.05859-0.4727h-0.01953c-0.2383 0.3555-0.6172 0.5586-1.113 0.5586-0.5273 0-1.207-0.2617-1.207-1.023 0-1 1.191-1.121 2.312-1.121v-0.08984" fill="#231f1f"/>
<path d="m350.3 177.5c0.01562 0.168 0.02734 0.4023 0.02734 0.543h0.01953c0.1641-0.3555 0.6055-0.6367 1.078-0.6367 0.8555 0 1.242 0.6094 1.242 1.352v2.059h-0.6602v-1.84c0-0.5391-0.1445-1.016-0.7539-1.016-0.5195 0-0.8906 0.4336-0.8906 1.094v1.762h-0.6602v-2.605c0-0.1719-0.003906-0.4961-0.02734-0.7109h0.625" fill="#231f1f"/>
<path d="m355.3 180.4c0.6719 0 1.121-0.5586 1.121-1.199 0-0.6367-0.4492-1.203-1.121-1.203-0.7188 0-1.098 0.5742-1.098 1.199 0 0.6211 0.3789 1.203 1.098 1.203zm-0.1094 0.5508c-1.023 0-1.676-0.7812-1.676-1.754 0-0.9805 0.6719-1.746 1.668-1.746 0.5391 0 0.9531 0.2656 1.184 0.5898h0.01172v-2.473h0.6602v5.293h-0.6367v-0.5234h-0.01562c-0.25 0.3984-0.7266 0.6133-1.195 0.6133" fill="#231f1f"/>
<path d="m361.7 178.4c-0.1484-0.2383-0.4336-0.4141-0.7695-0.4141-0.3008 0-0.6172 0.1172-0.6172 0.4336 0 0.2812 0.2539 0.3828 0.7578 0.4961 0.6289 0.1406 1.113 0.4023 1.113 0.9805 0 0.7852-0.6523 1.07-1.324 1.07-0.5039 0-1.023-0.1914-1.34-0.5938l0.4727-0.3984c0.1758 0.2578 0.5117 0.4609 0.8828 0.4609 0.3281 0 0.6562-0.1172 0.6562-0.4805 0-0.3086-0.3008-0.4219-0.8672-0.5547-0.4414-0.1055-0.9688-0.293-0.9688-0.918 0-0.7148 0.625-1.016 1.254-1.016 0.4727 0 0.9688 0.1914 1.207 0.5469l-0.457 0.3867" fill="#231f1f"/>
<path d="m364.8 178c-0.6719 0-1.121 0.5664-1.121 1.203 0 0.6406 0.4492 1.199 1.121 1.199 0.7188 0 1.105-0.582 1.105-1.203 0-0.625-0.3867-1.199-1.105-1.199zm-1.078 4.547h-0.6602v-5h0.6445v0.5156h0.01953c0.2188-0.3477 0.6523-0.6094 1.199-0.6094 0.9883 0 1.66 0.7656 1.66 1.746 0 0.9727-0.6523 1.754-1.676 1.754-0.4688 0-0.9219-0.2148-1.168-0.5859h-0.01953v2.18" fill="#231f1f"/>
<path d="m368.2 180.9h-0.6562v-3.316h0.6562zm-0.3281-4.098c-0.2383 0-0.4336-0.1875-0.4336-0.418 0-0.2383 0.1953-0.4258 0.4336-0.4258 0.2383 0 0.4414 0.1797 0.4414 0.4258 0 0.2383-0.2031 0.418-0.4414 0.418" fill="#231f1f"/>
<path d="m369.9 177.5c0.01172 0.168 0.02734 0.4023 0.02734 0.543h0.01953c0.1602-0.3555 0.6016-0.6367 1.078-0.6367 0.8555 0 1.242 0.6094 1.242 1.352v2.059h-0.6602v-1.84c0-0.5391-0.1445-1.016-0.7578-1.016-0.5156 0-0.8867 0.4336-0.8867 1.094v1.762h-0.6602v-2.605c0-0.1719-0.007812-0.4961-0.02734-0.7109h0.625" fill="#231f1f"/>
<path d="m375.8 178.9c-0.01172-0.5234-0.3203-0.9375-0.9297-0.9375-0.5703 0-1.004 0.418-1.043 0.9375zm0.6602 0.4922h-2.633c0.01953 0.5664 0.4961 1.008 1.078 1.008 0.4453 0 0.7773-0.2266 0.9648-0.5039l0.4609 0.3711c-0.3555 0.4609-0.8398 0.6758-1.426 0.6758-1.012 0-1.75-0.6992-1.75-1.742 0-1.035 0.7383-1.758 1.715-1.758 0.9805 0 1.594 0.6641 1.594 1.723 0 0.07031 0 0.1484-0.003907 0.2266" fill="#231f1f"/>
<path d="m377.6 181.8h-0.5586l0.4844-1.75h0.6562l-0.582 1.75" fill="#231f1f"/>
<path d="m381.4 180.9h-0.6562v-3.316h0.6562zm-0.3281-4.098c-0.2383 0-0.4336-0.1875-0.4336-0.418 0-0.2383 0.1953-0.4258 0.4336-0.4258s0.4414 0.1797 0.4414 0.4258c0 0.2383-0.2031 0.418-0.4414 0.418" fill="#231f1f"/>
<path d="m383.2 177.5c0.01172 0.168 0.02734 0.4023 0.02734 0.543h0.01953c0.1641-0.3555 0.6016-0.6367 1.078-0.6367 0.8555 0 1.242 0.6094 1.242 1.352v2.059h-0.6602v-1.84c0-0.5391-0.1484-1.016-0.7578-1.016-0.5156 0-0.8867 0.4336-0.8867 1.094v1.762h-0.6602v-2.605c0-0.1719-0.007812-0.4961-0.02734-0.7109h0.625" fill="#231f1f"/>
<path d="m389 178.4c-0.1406-0.2188-0.4492-0.3789-0.7617-0.3789-0.6875 0-1.086 0.5586-1.086 1.195 0 0.6328 0.3984 1.199 1.094 1.199 0.3359 0 0.6211-0.1406 0.7969-0.3633l0.4414 0.3984c-0.2812 0.3242-0.707 0.5156-1.238 0.5156-1.023 0-1.785-0.6914-1.785-1.75 0-1.043 0.7539-1.75 1.77-1.75 0.4688 0 0.9727 0.1914 1.246 0.5469l-0.4766 0.3867" fill="#231f1f"/>
<path d="m390.8 180.9h-0.6562v-5.293h0.6562v5.293" fill="#231f1f"/>
<path d="m394.3 180.9c-0.01562-0.168-0.02734-0.4062-0.02734-0.5469h-0.01562c-0.168 0.3516-0.6016 0.6367-1.082 0.6367-0.8555 0-1.242-0.6055-1.242-1.348v-2.059h0.6602v1.832c0 0.5469 0.1445 1.023 0.7539 1.023 0.5273 0 0.8906-0.4336 0.8906-1.094v-1.762h0.6562v2.602c0 0.1758 0.007812 0.5 0.03125 0.7148h-0.625" fill="#231f1f"/>
<path d="m397.6 180.4c0.6719 0 1.121-0.5586 1.121-1.199 0-0.6367-0.4492-1.203-1.121-1.203-0.7188 0-1.098 0.5742-1.098 1.199 0 0.6211 0.3789 1.203 1.098 1.203zm-0.1133 0.5508c-1.02 0-1.672-0.7812-1.672-1.754 0-0.9805 0.6719-1.746 1.664-1.746 0.543 0 0.9531 0.2656 1.184 0.5898h0.01562v-2.473h0.6602v5.293h-0.6406v-0.5234h-0.01172c-0.2539 0.3984-0.7305 0.6133-1.199 0.6133" fill="#231f1f"/>
<path d="m401.1 180.9h-0.6562v-3.316h0.6562zm-0.3281-4.098c-0.2383 0-0.4336-0.1875-0.4336-0.418 0-0.2383 0.1953-0.4258 0.4336-0.4258 0.2383 0 0.4414 0.1797 0.4414 0.4258 0 0.2383-0.2031 0.418-0.4414 0.418" fill="#231f1f"/>
<path d="m402.9 177.5c0.01172 0.168 0.02734 0.4023 0.02734 0.543h0.01953c0.1602-0.3555 0.6055-0.6367 1.078-0.6367 0.8555 0 1.242 0.6094 1.242 1.352v2.059h-0.6602v-1.84c0-0.5391-0.1484-1.016-0.7539-1.016-0.5195 0-0.8906 0.4336-0.8906 1.094v1.762h-0.6602v-2.605c0-0.1719-0.007812-0.4961-0.02734-0.7109h0.625" fill="#231f1f"/>
<path d="m407.9 180.3c0.6797 0 1.125-0.5117 1.125-1.168 0-0.6328-0.4531-1.172-1.125-1.172-0.6953 0-1.102 0.5312-1.102 1.172 0 0.6055 0.4062 1.168 1.102 1.168zm-1.305 1.094c0.2891 0.3203 0.7578 0.5391 1.215 0.5391 0.875 0 1.168-0.5391 1.168-1.227v-0.4297h-0.01562c-0.2422 0.3711-0.6992 0.5742-1.168 0.5742-1.016 0-1.676-0.7539-1.676-1.707s0.6523-1.73 1.668-1.73c0.4766 0 0.9453 0.2109 1.199 0.625h0.01172v-0.5312h0.6406v3.148c0 0.9688-0.457 1.852-1.836 1.852-0.5742 0-1.215-0.2266-1.625-0.6055l0.418-0.5078" fill="#231f1f"/>
<path d="m414.3 178c-0.6758 0-1.121 0.5664-1.121 1.203 0 0.6406 0.4453 1.199 1.121 1.199 0.7188 0 1.105-0.582 1.105-1.203 0-0.625-0.3867-1.199-1.105-1.199zm-1.102 2.34v0.5234h-0.6367v-5.293h0.6602v2.473h0.01953c0.2227-0.3242 0.6367-0.5898 1.184-0.5898 0.9883 0 1.66 0.7656 1.66 1.746 0 0.9727-0.6523 1.754-1.676 1.754-0.4688 0-0.9375-0.2148-1.195-0.6133h-0.01562" fill="#231f1f"/>
<path d="m419.3 180.9c-0.01562-0.168-0.02734-0.4062-0.02734-0.5469h-0.01562c-0.168 0.3516-0.6016 0.6367-1.086 0.6367-0.8516 0-1.238-0.6055-1.238-1.348v-2.059h0.6602v1.832c0 0.5469 0.1445 1.023 0.7539 1.023 0.5273 0 0.8906-0.4336 0.8906-1.094v-1.762h0.6562v2.602c0 0.1758 0.007812 0.5 0.03125 0.7148h-0.625" fill="#231f1f"/>
<path d="m422.7 178.1h-0.8828v1.727c0 0.4023 0.1406 0.5625 0.4688 0.5625 0.1211 0 0.2734-0.02734 0.3867-0.08594l0.01953 0.5391c-0.1523 0.05859-0.3555 0.09375-0.5586 0.09375-0.6211 0-0.9688-0.3516-0.9688-1.039v-1.797h-0.6367v-0.5391h0.6367v-0.9531h0.6523v0.9531h0.8828v0.5391" fill="#231f1f"/>
<path d="m424.9 178.1h-0.8828v1.727c0 0.4023 0.1406 0.5625 0.4688 0.5625 0.1211 0 0.2734-0.02734 0.3867-0.08594l0.01953 0.5391c-0.1523 0.05859-0.3555 0.09375-0.5586 0.09375-0.625 0-0.9688-0.3516-0.9688-1.039v-1.797h-0.6367v-0.5391h0.6367v-0.9531h0.6523v0.9531h0.8828v0.5391" fill="#231f1f"/>
<path d="m427.1 178c-0.707 0-1.105 0.5664-1.105 1.199 0 0.6289 0.3984 1.203 1.105 1.203 0.7148 0 1.105-0.5742 1.105-1.203 0-0.6328-0.3906-1.199-1.105-1.199zm0 2.953c-1.016 0-1.785-0.7344-1.785-1.754 0-1.023 0.7695-1.746 1.785-1.746s1.793 0.7227 1.793 1.746c0 1.02-0.7773 1.754-1.793 1.754" fill="#231f1f"/>
<path d="m432.1 178.4c-0.1406-0.2188-0.4492-0.3789-0.7656-0.3789-0.6836 0-1.086 0.5586-1.086 1.195 0 0.6328 0.4023 1.199 1.094 1.199 0.3359 0 0.625-0.1406 0.7969-0.3633l0.4414 0.3984c-0.2773 0.3242-0.707 0.5156-1.238 0.5156-1.023 0-1.785-0.6914-1.785-1.75 0-1.043 0.7578-1.75 1.77-1.75 0.4727 0 0.9766 0.1914 1.25 0.5469l-0.4766 0.3867" fill="#231f1f"/>
<path d="m433.9 179h0.01953l1.395-1.441h0.8828l-1.555 1.504 1.688 1.812h-0.9102l-1.5-1.723h-0.01953v1.723h-0.6602v-5.293h0.6602v3.418" fill="#231f1f"/>
<g clip-path="url(#i)">
<path d="m438.7 178.4c-0.1445-0.2383-0.4336-0.4141-0.7695-0.4141-0.3008 0-0.6172 0.1172-0.6172 0.4336 0 0.2812 0.2539 0.3828 0.7578 0.4961 0.6289 0.1406 1.113 0.4023 1.113 0.9805 0 0.7852-0.6523 1.07-1.324 1.07-0.5039 0-1.02-0.1914-1.336-0.5938l0.4688-0.3984c0.1758 0.2578 0.5117 0.4609 0.8828 0.4609 0.3281 0 0.6562-0.1172 0.6562-0.4805 0-0.3086-0.3008-0.4219-0.8672-0.5547-0.4414-0.1055-0.9648-0.293-0.9648-0.918 0-0.7148 0.6211-1.016 1.254-1.016 0.4688 0 0.9648 0.1914 1.203 0.5469l-0.457 0.3867" fill="#231f1f"/>
</g>
<path d="m293.7 201.1h8.539v-8.539h-8.539zm-0.5234 0.5312v-9.594h9.594v9.594h-9.594" fill="#231f1f"/>
<path d="m308.1 199.2h2.211v0.6172h-2.906v-4.957h0.6953v4.34" fill="#231f1f"/>
<path d="m313.2 197.9c-0.01562-0.5234-0.3203-0.9375-0.9297-0.9375-0.5703 0-1.004 0.418-1.047 0.9375zm0.6602 0.4922h-2.637c0.02344 0.5664 0.5 1.008 1.082 1.008 0.4492 0 0.7773-0.2266 0.9648-0.5039l0.4609 0.3711c-0.3555 0.4609-0.8398 0.6758-1.426 0.6758-1.008 0-1.754-0.6992-1.754-1.742 0-1.035 0.7461-1.758 1.719-1.758 0.9805 0 1.594 0.6641 1.594 1.723 0 0.07031 0 0.1484-0.003907 0.2266" fill="#231f1f"/>
<path d="m316.3 197.1h-0.7734v2.781h-0.6562v-2.781h-0.6602v-0.5391h0.6602v-0.6914c0-0.7773 0.3438-1.367 1.238-1.367 0.1523 0 0.2891 0.01562 0.4141 0.05078l-0.07812 0.5664c-0.09766-0.02734-0.2031-0.04687-0.3281-0.04687-0.4961 0-0.5898 0.3906-0.5898 0.7969v0.6914h0.7734v0.5391" fill="#231f1f"/>
<path d="m318.5 197.1h-0.8789v1.73c0 0.3984 0.1367 0.5625 0.4688 0.5625 0.1172 0 0.2734-0.02734 0.3828-0.08594l0.02344 0.5391c-0.1562 0.05859-0.3594 0.09375-0.5625 0.09375-0.6211 0-0.9648-0.3516-0.9648-1.039v-1.801h-0.6367v-0.5391h0.6367v-0.9492h0.6523v0.9492h0.8789v0.5391" fill="#231f1f"/>
<path d="m321.6 199.9h-0.6602v-5.293h0.6602v5.293" fill="#231f1f"/>
<path d="m325.2 197.9c-0.01562-0.5234-0.3242-0.9375-0.9297-0.9375-0.5703 0-1.004 0.418-1.047 0.9375zm0.6562 0.4922h-2.633c0.02344 0.5664 0.5 1.008 1.082 1.008 0.4453 0 0.7734-0.2266 0.9648-0.5039l0.4609 0.3711c-0.3555 0.4609-0.8398 0.6758-1.426 0.6758-1.012 0-1.754-0.6992-1.754-1.742 0-1.035 0.7422-1.758 1.719-1.758 0.9766 0 1.594 0.6641 1.594 1.723 0 0.07031 0 0.1484-0.007812 0.2266" fill="#231f1f"/>
<path d="m328.3 199.3c0.6758 0 1.125-0.5117 1.125-1.172 0-0.6289-0.4531-1.168-1.125-1.168-0.6953 0-1.102 0.5312-1.102 1.168 0 0.6094 0.4062 1.172 1.102 1.172zm-1.305 1.094c0.2852 0.3203 0.7578 0.5391 1.211 0.5391 0.875 0 1.172-0.5391 1.172-1.227v-0.4297h-0.01562c-0.2461 0.3711-0.6992 0.5742-1.168 0.5742-1.016 0-1.676-0.7539-1.676-1.707s0.6523-1.73 1.668-1.73c0.4766 0 0.9453 0.2109 1.199 0.625h0.01172v-0.5352h0.6367v3.152c0 0.9688-0.4531 1.852-1.836 1.852-0.5742 0-1.211-0.2266-1.625-0.6055l0.4219-0.5078" fill="#231f1f"/>
<path d="m293.7 220.1h8.539v-8.539h-8.539zm-0.5234 0.5312v-9.594h9.594v9.594h-9.594" fill="#231f1f"/>
<path d="m308.1 216.1h0.7969c0.6523 0 1.164-0.2031 1.164-0.8008 0-0.5938-0.5117-0.7852-1.113-0.7852h-0.8477zm0 2.785h-0.6953v-4.957h1.59c0.9609 0 1.766 0.3633 1.766 1.371 0 0.7305-0.4961 1.191-1.203 1.309l1.387 2.277h-0.8398l-1.262-2.203h-0.7422v2.203" fill="#231f1f"/>
<path d="m312.3 218.9h-0.6562v-3.32h0.6562zm-0.3281-4.098c-0.2383 0-0.4336-0.1875-0.4336-0.418 0-0.2383 0.1953-0.4297 0.4336-0.4297s0.4414 0.1836 0.4414 0.4297c0 0.2383-0.2031 0.418-0.4414 0.418" fill="#231f1f"/>
<path d="m315 218.3c0.6836 0 1.129-0.5117 1.129-1.172 0-0.6289-0.4531-1.168-1.129-1.168-0.6914 0-1.098 0.5312-1.098 1.168 0 0.6094 0.4062 1.172 1.098 1.172zm-1.301 1.094c0.2852 0.3203 0.7578 0.5391 1.211 0.5391 0.875 0 1.172-0.5391 1.172-1.227v-0.4297h-0.01562c-0.2461 0.3711-0.6992 0.5742-1.168 0.5742-1.016 0-1.676-0.7539-1.676-1.707s0.6523-1.73 1.668-1.73c0.4766 0 0.9453 0.2109 1.195 0.625h0.01562v-0.5352h0.6367v3.152c0 0.9688-0.4531 1.852-1.836 1.852-0.5742 0-1.211-0.2266-1.625-0.6055l0.4219-0.5078" fill="#231f1f"/>
<path d="m318.5 216.1c0.1562-0.332 0.5742-0.5977 1.051-0.5977 0.8555 0 1.242 0.6094 1.242 1.352v2.059h-0.6602v-1.832c0-0.543-0.1406-1.016-0.75-1.016-0.5195 0-0.8984 0.4336-0.8984 1.09v1.758h-0.6562v-5.293h0.6562v2.48h0.01562" fill="#231f1f"/>
<path d="m323.6 216.1h-0.8828v1.73c0 0.3984 0.1406 0.5625 0.4688 0.5625 0.1211 0 0.2734-0.02734 0.3867-0.08594l0.01953 0.5391c-0.1523 0.05859-0.3555 0.09375-0.5586 0.09375-0.625 0-0.9688-0.3516-0.9688-1.039v-1.801h-0.6367v-0.5391h0.6367v-0.9492h0.6523v0.9492h0.8828v0.5391" fill="#231f1f"/>
<path d="m326.7 218.9h-0.6602v-5.293h0.6602v5.293" fill="#231f1f"/>
<path d="m330.2 216.9c-0.01562-0.5234-0.3242-0.9375-0.9336-0.9375-0.5664 0-1 0.418-1.043 0.9375zm0.6562 0.4922h-2.633c0.02344 0.5664 0.4961 1.008 1.078 1.008 0.4492 0 0.7773-0.2266 0.9648-0.5039l0.4648 0.3711c-0.3555 0.4609-0.8398 0.6758-1.43 0.6758-1.008 0-1.75-0.6992-1.75-1.742 0-1.035 0.7422-1.758 1.715-1.758 0.9805 0 1.598 0.6641 1.598 1.723 0 0.07031 0 0.1484-0.007812 0.2266" fill="#231f1f"/>
<path d="m333.4 218.3c0.6797 0 1.129-0.5117 1.129-1.172 0-0.6289-0.457-1.168-1.129-1.168-0.6953 0-1.102 0.5312-1.102 1.168 0 0.6094 0.4062 1.172 1.102 1.172zm-1.301 1.094c0.2852 0.3203 0.7539 0.5391 1.211 0.5391 0.875 0 1.168-0.5391 1.168-1.227v-0.4297h-0.01562c-0.2422 0.3711-0.6992 0.5742-1.168 0.5742-1.016 0-1.672-0.7539-1.672-1.707s0.6484-1.73 1.664-1.73c0.4766 0 0.9453 0.2109 1.199 0.625h0.01172v-0.5352h0.6406v3.152c0 0.9688-0.457 1.852-1.836 1.852-0.5742 0-1.211-0.2266-1.625-0.6055l0.4219-0.5078" fill="#231f1f"/>
</svg>
