<?xml version="1.0" encoding="UTF-8"?>
<svg width="227.3pt" height="195.8pt" version="1.1" viewBox="0 0 227.3 195.8" xmlns="http://www.w3.org/2000/svg">
<defs>
<clipPath id="c">
<path d="m13 164h89v31.8h-89z"/>
</clipPath>
<clipPath id="b">
<path d="m12 163h90v32.8h-90z"/>
</clipPath>
<clipPath id="a">
<path d="m189 88h38.3v20h-38.3z"/>
</clipPath>
</defs>
<path transform="matrix(.1 0 0 -.1 0 195.8)" d="m141.1 128.5h-138.6v1731h693" fill="none" stroke="#231f1f" stroke-width="5"/>
<path d="m72.57 9.801c-1.418 0.5273-3.18 1.426-4.273 2.379l0.8633-2.379-0.8633-2.379c1.094 0.9531 2.855 1.852 4.273 2.379" fill="#231f1f"/>
<g clip-path="url(#c)">
<path d="m101.1 195.6h-87.95v-31.5h87.95v31.5" fill="#fef0ca"/>
</g>
<g clip-path="url(#b)">
<path transform="matrix(.1 0 0 -.1 0 195.8)" d="m1011 2.492h-879.5v315h879.5z" fill="none" stroke="#231f1f" stroke-width="5"/>
</g>
<path d="m88.45 145.1h-63v-18.9h63v18.9" fill="#fef0ca"/>
<path transform="matrix(.1 0 0 -.1 0 195.8)" d="m884.5 506.5h-630v189h630z" fill="none" stroke="#231f1f" stroke-width="5"/>
<path d="m126.2 19.15h-50.4v-18.9h50.4v18.9" fill="#fef0ca"/>
<path transform="matrix(.1 0 0 -.1 0 195.8)" d="m1262 1767h-504v189h504z" fill="none" stroke="#231f1f" stroke-width="5"/>
<path d="m95.35 8.262c-0.3906-0.2578-0.8164-0.3828-1.535-0.3828-1.285 0-2.141 0.9336-2.141 2.18 0 1.312 0.9414 2.184 2.102 2.184 0.5508 0 0.6953-0.05469 0.8945-0.09766v-1.695h-1.176v-0.6523h1.977v2.902c-0.3047 0.1016-0.832 0.2461-1.703 0.2461-1.766 0-2.941-1.133-2.941-2.91 0-1.719 1.246-2.863 2.949-2.863 0.8164 0 1.176 0.1211 1.641 0.2812l-0.06641 0.8086" fill="#231f1f"/>
<path d="m96.81 8.773h0.7266v0.6484h0.01562c0.2266-0.4648 0.7695-0.7461 1.336-0.7461 1.055 0 1.527 0.6562 1.527 1.75v2.426h-0.75v-2.113c0-0.9531-0.2109-1.414-0.8672-1.453-0.8516 0-1.238 0.6875-1.238 1.68v1.887h-0.75v-4.078" fill="#231f1f"/>
<path d="m102.5 9.668h0.6758c0.7617 0 1.207-0.3359 1.207-0.8711 0-0.5039-0.3828-0.8242-1.117-0.8242h-0.7656zm-0.8008-2.398h1.367c1.102 0 2.164 0.1758 2.164 1.512 0 0.6797-0.5039 1.156-1.148 1.27v0.01562c0.2461 0.09766 0.3672 0.2188 0.543 0.5625l1.055 2.223h-0.9102l-0.8555-1.938c-0.25-0.543-0.5117-0.543-0.9375-0.543h-0.4766v2.48h-0.8008v-5.582" fill="#231f1f"/>
<path d="m106.7 7.27h0.8008v2.336h2.668v-2.336h0.8008v5.582h-0.8008v-2.543h-2.668v2.543h-0.8008v-5.582" fill="#231f1f"/>
<path d="m69.55 69.55h-25.2v-18.9h25.2v18.9" fill="#fef0ca"/>
<path transform="matrix(.1 0 0 -.1 0 195.8)" d="m695.5 1262h-252v189h252z" fill="none" stroke="#231f1f" stroke-width="5"/>
<path d="m52.77 57.67h0.7969v4.879h2.336v0.7031h-3.133v-5.582" fill="#231f1f"/>
<path d="m56.82 57.67h0.7969v2.336h2.672v-2.336h0.8008v5.582h-0.8008v-2.543h-2.672v2.543h-0.7969v-5.582" fill="#231f1f"/>
<path transform="matrix(.1 0 0 -.1 0 195.8)" d="m569.5 1262v-126" fill="none" stroke="#231f1f" stroke-width="5"/>
<path d="m56.95 85.17c-0.5273-1.422-1.426-3.184-2.375-4.273l2.375 0.8594 2.379-0.8594c-0.9531 1.09-1.852 2.852-2.379 4.273" fill="#231f1f"/>
<path d="m82.15 107.4h-50.4v-18.9h50.4v18.9" fill="#fef0ca"/>
<path transform="matrix(.1 0 0 -.1 0 195.8)" d="m821.5 884.5h-504v189h504z" fill="none" stroke="#231f1f" stroke-width="5"/>
<path d="m36.56 95.47h0.8008v4.879h2.336v0.7031h-3.137v-5.582" fill="#231f1f"/>
<path d="m43.13 98.62c0-0.625-0.3672-1.137-1.016-1.137-0.7344 0-1.039 0.6094-1.094 1.137zm0.4883 2.262c-0.2891 0.1016-0.6133 0.2617-1.285 0.2617-1.449 0-2.113-0.8789-2.113-2.203 0-1.211 0.7617-2.066 1.91-2.066 1.359 0 1.801 0.9922 1.801 2.305h-2.91c0 0.8086 0.6328 1.359 1.344 1.359 0.4961 0 1.07-0.2578 1.254-0.4062v0.75" fill="#231f1f"/>
<path d="m44.63 102.2c0.09766 0.03516 0.2266 0.06641 0.3516 0.06641 0.6719 0 0.8984-0.9297 0.8984-1.008 0-0.08984-0.09766-0.2969-0.1445-0.4336l-1.383-3.805h0.8203l1.098 3.375h0.01562l1.117-3.375h0.7617l-1.504 4.164c-0.2773 0.7852-0.5742 1.688-1.566 1.688-0.2383 0-0.375-0.03125-0.5117-0.05469l0.04687-0.6172" fill="#231f1f"/>
<path d="m50.59 100.5c0.8438 0 1.195-0.8398 1.195-1.52 0-0.7578-0.3906-1.535-1.207-1.535-0.8125 0-1.133 0.7695-1.117 1.512-0.01563 0.6406 0.3203 1.543 1.129 1.543zm1.23-0.0625h-0.01562c-0.2031 0.3008-0.6641 0.668-1.395 0.668-1.23 0-1.75-1.094-1.75-2.203 0-1.098 0.5742-2.066 1.758-2.066 0.7148 0 1.121 0.2812 1.352 0.6562h0.01562v-2.477h0.7539v5.996h-0.7188v-0.5742" fill="#231f1f"/>
<path d="m53.91 96.97h0.75v4.078h-0.75zm0.8008-0.9102h-0.8477v-0.8477h0.8477v0.8477" fill="#231f1f"/>
<path d="m58.89 99.06c0-0.8477-0.3906-1.574-1.191-1.574-0.7578 0-1.137 0.8242-1.137 1.52 0 0.7656 0.4336 1.438 1.137 1.438s1.191-0.6211 1.191-1.383zm0.75 1.816c0 1.238-0.6367 1.949-2.102 1.949-0.4336 0-0.8086-0.05469-1.465-0.2812l0.08203-0.6914c0.5742 0.2617 0.918 0.3672 1.473 0.3672 0.7891 0 1.262-0.5352 1.262-1.402v-0.3984h-0.01562c-0.3203 0.4258-0.8477 0.6328-1.367 0.6328-1.168 0-1.742-0.9531-1.742-2.008 0-1.047 0.5898-2.168 1.82-2.168 0.7188 0 1.121 0.2656 1.344 0.707h0.01562v-0.6094h0.6953v3.902" fill="#231f1f"/>
<path d="m65.73 97.66c-0.2891-0.1211-0.5781-0.1758-0.8164-0.1758-0.8398 0-1.312 0.75-1.312 1.527 0 0.7266 0.3945 1.527 1.359 1.527 0.2578 0 0.5781-0.08203 0.8086-0.2305l0.05469 0.6719c-0.3086 0.1406-0.6719 0.1641-0.9414 0.1641-1.23 0-2.078-0.9648-2.078-2.133 0-1.238 0.832-2.137 2.078-2.137 0.3047 0 0.6953 0.07422 0.9102 0.1602l-0.0625 0.625" fill="#231f1f"/>
<path d="m69.32 98.62c0-0.625-0.3672-1.137-1.016-1.137-0.7344 0-1.039 0.6094-1.094 1.137zm0.4883 2.262c-0.2891 0.1016-0.6133 0.2617-1.285 0.2617-1.449 0-2.113-0.8789-2.113-2.203 0-1.211 0.7617-2.066 1.91-2.066 1.359 0 1.801 0.9922 1.801 2.305h-2.91c0 0.8086 0.6289 1.359 1.344 1.359 0.4961 0 1.07-0.2578 1.254-0.4062v0.75" fill="#231f1f"/>
<path d="m71.23 95.05h0.75v5.996h-0.75v-5.996" fill="#231f1f"/>
<path d="m73.45 95.05h0.7539v5.996h-0.7539v-5.996" fill="#231f1f"/>
<path d="m75.27 100.2c0.293 0.1914 0.7188 0.2891 0.9336 0.2891 0.3438 0 0.7656-0.1445 0.7656-0.582 0-0.7461-1.766-0.6797-1.766-1.824 0-0.8477 0.6328-1.258 1.441-1.258 0.3516 0 0.6367 0.07422 0.9336 0.1602l-0.0625 0.6562c-0.168-0.1016-0.6172-0.207-0.793-0.207-0.3828 0-0.7188 0.1602-0.7188 0.4961 0 0.832 1.766 0.5898 1.766 1.895 0 0.8711-0.6953 1.27-1.422 1.27-0.3828 0-0.7773-0.03906-1.121-0.2227l0.04297-0.6719" fill="#231f1f"/>
<path transform="matrix(.1 0 0 -.1 0 195.8)" d="m569.5 884.5v-126" fill="none" stroke="#231f1f" stroke-width="5"/>
<path d="m56.95 123c-0.5273-1.422-1.426-3.184-2.375-4.273l2.375 0.8594 2.379-0.8594c-0.9531 1.09-1.852 2.852-2.379 4.273" fill="#231f1f"/>
<path d="m34.79 134h-1.734v-0.7031h4.27v0.7031h-1.734v4.879h-0.8008v-4.879" fill="#231f1f"/>
<path d="m40.69 136.4c0-0.625-0.3672-1.133-1.016-1.133-0.7344 0-1.039 0.6055-1.094 1.133zm0.4883 2.266c-0.2852 0.1016-0.6133 0.2617-1.285 0.2617-1.449 0-2.113-0.8789-2.113-2.207 0-1.207 0.7617-2.062 1.914-2.062 1.355 0 1.797 0.9922 1.797 2.305h-2.91c0 0.8047 0.6328 1.359 1.344 1.359 0.4961 0 1.07-0.2578 1.254-0.4102v0.7539" fill="#231f1f"/>
<path d="m42.19 138.1c0.2969 0.1914 0.7227 0.2891 0.9375 0.2891 0.3438 0 0.7656-0.1445 0.7656-0.5859 0-0.7422-1.766-0.6797-1.766-1.824 0-0.8477 0.6328-1.254 1.438-1.254 0.3516 0 0.6406 0.07031 0.9375 0.1602l-0.0625 0.6562c-0.168-0.1055-0.6172-0.207-0.793-0.207-0.3828 0-0.7188 0.1562-0.7188 0.4922 0 0.832 1.766 0.5938 1.766 1.895 0 0.875-0.6953 1.273-1.422 1.273-0.3828 0-0.7773-0.03906-1.121-0.2227l0.03906-0.6719" fill="#231f1f"/>
<path d="m47.77 135.4h-1.082v2.23c0 0.4727 0.2891 0.7305 0.6328 0.7305 0.2305 0 0.3984-0.07422 0.5117-0.1445v0.6367c-0.168 0.05078-0.3984 0.1133-0.6406 0.1133-0.7734 0-1.254-0.3672-1.254-1.184v-2.383h-0.9219v-0.6055h0.9219v-0.9453l0.75-0.2383v1.184h1.082v0.6055" fill="#231f1f"/>
<path d="m50.52 138.3c0.8789 0 1.27-0.8008 1.27-1.527 0-0.7773-0.4688-1.527-1.27-1.527-0.8086 0-1.277 0.75-1.277 1.527 0 0.7266 0.3906 1.527 1.277 1.527zm0-3.664c1.238 0 2.07 0.8945 2.07 2.137 0 1.164-0.8477 2.133-2.07 2.133-1.23 0-2.078-0.9688-2.078-2.133 0-1.242 0.832-2.137 2.078-2.137" fill="#231f1f"/>
<path d="m53.29 138.1c0.2969 0.1914 0.7227 0.2891 0.9375 0.2891 0.3438 0 0.7656-0.1445 0.7656-0.5859 0-0.7422-1.766-0.6797-1.766-1.824 0-0.8477 0.6328-1.254 1.438-1.254 0.3555 0 0.6406 0.07031 0.9375 0.1602l-0.0625 0.6562c-0.168-0.1055-0.6172-0.207-0.793-0.207-0.3828 0-0.7188 0.1562-0.7188 0.4922 0 0.832 1.766 0.5938 1.766 1.895 0 0.875-0.6953 1.273-1.422 1.273-0.3828 0-0.7773-0.03906-1.121-0.2227l0.03906-0.6719" fill="#231f1f"/>
<path d="m58.87 135.4h-1.082v2.23c0 0.4727 0.2891 0.7305 0.6328 0.7305 0.2305 0 0.3984-0.07422 0.5117-0.1445v0.6367c-0.168 0.05078-0.3984 0.1133-0.6406 0.1133-0.7734 0-1.254-0.3672-1.254-1.184v-2.383h-0.9219v-0.6055h0.9219v-0.9453l0.75-0.2383v1.184h1.082v0.6055" fill="#231f1f"/>
<path d="m62.45 136.4c0-0.625-0.3672-1.133-1.016-1.133-0.7344 0-1.039 0.6055-1.094 1.133zm0.4883 2.266c-0.2891 0.1016-0.6172 0.2617-1.289 0.2617-1.445 0-2.109-0.8789-2.109-2.207 0-1.207 0.7578-2.062 1.91-2.062 1.359 0 1.801 0.9922 1.801 2.305h-2.91c0 0.8047 0.6289 1.359 1.344 1.359 0.4922 0 1.07-0.2578 1.254-0.4102v0.7539" fill="#231f1f"/>
<path d="m64.25 134.8h0.7031v0.6289h0.01562c0.1992-0.4219 0.6328-0.7266 1.062-0.7266 0.2266 0 0.3359 0.02344 0.4961 0.05469v0.6719c-0.1328-0.05469-0.2852-0.07031-0.4141-0.07031-0.6719 0-1.113 0.6406-1.113 1.664v1.855h-0.75v-4.078" fill="#231f1f"/>
<path d="m69.17 138.3c0.8789 0 1.273-0.8008 1.273-1.527 0-0.7773-0.4727-1.527-1.273-1.527-0.8086 0-1.277 0.75-1.277 1.527 0 0.7266 0.3906 1.527 1.277 1.527zm0-3.664c1.238 0 2.07 0.8945 2.07 2.137 0 1.164-0.8477 2.133-2.07 2.133-1.23 0-2.078-0.9688-2.078-2.133 0-1.242 0.832-2.137 2.078-2.137" fill="#231f1f"/>
<path d="m72.24 134.8h0.7305v0.6445h0.01562c0.2227-0.4609 0.7656-0.7422 1.336-0.7422 1.055 0 1.523 0.6562 1.523 1.75v2.426h-0.75v-2.113c0-0.9531-0.207-1.414-0.8633-1.453-0.8555 0-1.238 0.6875-1.238 1.68v1.887h-0.7539v-4.078" fill="#231f1f"/>
<path d="m79.77 136.4c0-0.625-0.3672-1.133-1.016-1.133-0.7383 0-1.039 0.6055-1.098 1.133zm0.4883 2.266c-0.2891 0.1016-0.6172 0.2617-1.289 0.2617-1.449 0-2.113-0.8789-2.113-2.207 0-1.207 0.7617-2.062 1.914-2.062 1.359 0 1.797 0.9922 1.797 2.305h-2.91c0 0.8047 0.6328 1.359 1.344 1.359 0.4961 0 1.07-0.2578 1.258-0.4102v0.7539" fill="#231f1f"/>
<path d="m41.5 171.1h3.125v0.7031h-2.328v1.629h2.121v0.707h-2.121v1.836h2.328v0.7031h-3.125v-5.578" fill="#231f1f"/>
<path d="m45.52 175.9c0.2969 0.1914 0.7227 0.2891 0.9375 0.2891 0.3438 0 0.7656-0.1445 0.7656-0.5859 0-0.7422-1.766-0.6797-1.766-1.824 0-0.8477 0.6328-1.254 1.441-1.254 0.3477 0 0.6367 0.07031 0.9336 0.1602l-0.0625 0.6562c-0.168-0.1055-0.6172-0.207-0.793-0.207-0.3828 0-0.7188 0.1562-0.7188 0.4961 0 0.8281 1.766 0.5898 1.766 1.895 0 0.8711-0.6953 1.27-1.422 1.27-0.3828 0-0.7773-0.03906-1.121-0.2227l0.03906-0.6719" fill="#231f1f"/>
<path d="m51.1 173.2h-1.082v2.23c0 0.4727 0.2891 0.7305 0.6328 0.7305 0.2305 0 0.3984-0.07422 0.5117-0.1445v0.6367c-0.168 0.05078-0.3984 0.1133-0.6406 0.1133-0.7734 0-1.254-0.3672-1.254-1.184v-2.383h-0.9219v-0.6055h0.9219v-0.9453l0.75-0.2383v1.184h1.082v0.6055" fill="#231f1f"/>
<path d="m52.04 172.6h0.707v0.6289h0.01562c0.1992-0.4219 0.6328-0.7266 1.062-0.7266 0.2227 0 0.3359 0.02344 0.4961 0.05469v0.6719c-0.1367-0.05469-0.2891-0.07031-0.4141-0.07031-0.6758 0-1.113 0.6406-1.113 1.66v1.855h-0.7539v-4.074" fill="#231f1f"/>
<path d="m57.57 174.7c-0.1602 0-0.3164-0.01562-0.4766-0.01562-0.4102 0-1.418 0.0625-1.418 0.7852 0 0.4297 0.418 0.6641 0.7617 0.6641 0.7422 0 1.133-0.4648 1.133-1.074zm-2.23-1.848c0.3789-0.2227 0.8242-0.3828 1.344-0.3828 1.168 0 1.641 0.5742 1.641 1.688v1.688c0 0.4609 0.01562 0.6797 0.03125 0.7969h-0.7031v-0.5273h-0.01562c-0.1758 0.25-0.5781 0.625-1.266 0.625-0.8789 0-1.492-0.3828-1.492-1.27 0-1.023 1.117-1.344 1.895-1.344 0.2969 0 0.5039 0 0.7969 0.01563 0-0.7031-0.2539-1.062-1.004-1.062-0.4258 0-0.8828 0.1562-1.184 0.4141l-0.04297-0.6406" fill="#231f1f"/>
<path d="m61.25 176.1c0.8477 0 1.199-0.8438 1.199-1.52 0-0.7617-0.3906-1.535-1.207-1.535-0.8164 0-1.137 0.7656-1.117 1.512-0.01953 0.6367 0.3203 1.543 1.125 1.543zm1.23-0.06641h-0.01562c-0.1992 0.3047-0.6641 0.6719-1.391 0.6719-1.23 0-1.75-1.094-1.75-2.207 0-1.094 0.5742-2.062 1.758-2.062 0.7109 0 1.121 0.2812 1.352 0.6562h0.01562v-2.48h0.7539v5.996h-0.7227v-0.5742" fill="#231f1f"/>
<path d="m64.57 172.6h0.75v4.074h-0.75zm0.7969-0.9141h-0.8438v-0.8477h0.8438v0.8477" fill="#231f1f"/>
<path d="m68.5 176.1c0.8789 0 1.27-0.8008 1.27-1.531 0-0.7734-0.4727-1.523-1.27-1.523-0.8086 0-1.281 0.75-1.281 1.523 0 0.7305 0.3906 1.531 1.281 1.531zm0-3.664c1.238 0 2.07 0.8945 2.07 2.133 0 1.168-0.8477 2.137-2.07 2.137-1.234 0-2.082-0.9688-2.082-2.137 0-1.238 0.832-2.133 2.082-2.133" fill="#231f1f"/>
<path d="m71.67 170.7h0.7539v5.996h-0.7539v-5.996" fill="#231f1f"/>
<path d="m20.23 185.5h0.8398c1.375 0 2.133-0.6641 2.133-2.102 0-1.305-0.8867-2.074-2.039-2.074h-0.9336zm-0.8008-4.879h1.648c1.652 0 2.973 1.023 2.973 2.742 0 1.871-1.137 2.84-2.973 2.84h-1.648v-5.582" fill="#231f1f"/>
<path d="m25.27 182.2h0.7539v4.078h-0.7539zm0.8008-0.9102h-0.8477v-0.8477h0.8477v0.8477" fill="#231f1f"/>
<path d="m27.4 180.3h0.7539v2.504h0.01562c0.2734-0.4336 0.7422-0.6797 1.312-0.6797 1.055 0 1.527 0.6523 1.527 1.75v2.422h-0.7539v-2.109c0-0.9531-0.207-1.418-0.8633-1.457-0.8555 0-1.238 0.6875-1.238 1.68v1.887h-0.7539v-5.996" fill="#231f1f"/>
<path d="m31.98 187.4c0.09766 0.03125 0.2266 0.0625 0.3516 0.0625 0.6719 0 0.8984-0.9297 0.8984-1.008 0-0.08984-0.09766-0.2969-0.1445-0.4297l-1.383-3.809h0.8242l1.094 3.375h0.01562l1.121-3.375h0.7578l-1.504 4.164c-0.2773 0.7852-0.5742 1.688-1.566 1.688-0.2383 0-0.375-0.03125-0.5117-0.05469l0.04687-0.6133" fill="#231f1f"/>
<path d="m37.93 185.7c0.8477 0 1.199-0.8398 1.199-1.52 0-0.7578-0.3945-1.535-1.211-1.535-0.8125 0-1.133 0.7695-1.117 1.512-0.01563 0.6406 0.3203 1.543 1.129 1.543zm1.23-0.0625h-0.01562c-0.1992 0.3047-0.6641 0.6719-1.391 0.6719-1.234 0-1.754-1.098-1.754-2.207 0-1.098 0.5781-2.062 1.762-2.062 0.7109 0 1.117 0.2773 1.348 0.6523h0.01953v-2.477h0.75v5.996h-0.7188v-0.5742" fill="#231f1f"/>
<path d="m41.16 182.2h0.7031v0.6328h0.01562c0.1992-0.4258 0.6328-0.7266 1.062-0.7266 0.2227 0 0.3359 0.02344 0.4961 0.05469v0.6719c-0.1367-0.05469-0.2891-0.07422-0.4141-0.07422-0.6719 0-1.113 0.6406-1.113 1.664v1.855h-0.75v-4.078" fill="#231f1f"/>
<path d="m46.07 185.7c0.8789 0 1.27-0.8008 1.27-1.527 0-0.7734-0.4688-1.527-1.27-1.527-0.8086 0-1.281 0.7539-1.281 1.527 0 0.7266 0.3945 1.527 1.281 1.527zm0-3.66c1.238 0 2.07 0.8945 2.07 2.133 0 1.168-0.8477 2.137-2.07 2.137-1.23 0-2.078-0.9688-2.078-2.137 0-1.238 0.832-2.133 2.078-2.133" fill="#231f1f"/>
<path d="m51.32 182.8h-1.082v2.23c0 0.4727 0.2891 0.7266 0.6328 0.7266 0.2305 0 0.4023-0.07422 0.5117-0.1445v0.6406c-0.168 0.04688-0.3984 0.1133-0.6406 0.1133-0.7734 0-1.254-0.3672-1.254-1.184v-2.383h-0.918v-0.6094h0.918v-0.9414l0.75-0.2422v1.184h1.082v0.6094" fill="#231f1f"/>
<path d="m54.89 183.8c0-0.625-0.3672-1.137-1.016-1.137-0.7344 0-1.039 0.6094-1.094 1.137zm0.4883 2.262c-0.2891 0.1055-0.6133 0.2656-1.289 0.2656-1.445 0-2.109-0.8789-2.109-2.207 0-1.207 0.7617-2.062 1.91-2.062 1.359 0 1.801 0.9883 1.801 2.301h-2.91c0 0.8086 0.6328 1.359 1.344 1.359 0.4961 0 1.07-0.2539 1.254-0.4062v0.75" fill="#231f1f"/>
<path d="m56.39 185.5c0.2969 0.1914 0.7188 0.2852 0.9375 0.2852 0.3438 0 0.7656-0.1445 0.7656-0.582 0-0.7461-1.766-0.6797-1.766-1.824 0-0.8477 0.6328-1.254 1.438-1.254 0.3516 0 0.6406 0.07031 0.9375 0.1602l-0.0625 0.6523c-0.1719-0.1016-0.6172-0.207-0.793-0.207-0.3828 0-0.7188 0.1602-0.7188 0.4961 0 0.832 1.766 0.5938 1.766 1.895 0 0.8711-0.6953 1.273-1.422 1.273-0.3867 0-0.7773-0.04297-1.121-0.2227l0.03906-0.6719" fill="#231f1f"/>
<path d="m61.97 182.8h-1.078v2.23c0 0.4727 0.2891 0.7266 0.6328 0.7266 0.2305 0 0.3984-0.07422 0.5117-0.1445v0.6406c-0.168 0.04688-0.3984 0.1133-0.6406 0.1133-0.7773 0-1.254-0.3672-1.254-1.184v-2.383h-0.9219v-0.6094h0.9219v-0.9414l0.75-0.2422v1.184h1.078v0.6094" fill="#231f1f"/>
<path d="m64.72 185.7c0.8789 0 1.27-0.8008 1.27-1.527 0-0.7734-0.4688-1.527-1.27-1.527-0.8086 0-1.277 0.7539-1.277 1.527 0 0.7266 0.3906 1.527 1.277 1.527zm0-3.66c1.238 0 2.07 0.8945 2.07 2.133 0 1.168-0.8477 2.137-2.07 2.137-1.23 0-2.078-0.9688-2.078-2.137 0-1.238 0.832-2.133 2.078-2.133" fill="#231f1f"/>
<path d="m67.49 185.5c0.2969 0.1914 0.7227 0.2852 0.9375 0.2852 0.3438 0 0.7656-0.1445 0.7656-0.582 0-0.7461-1.766-0.6797-1.766-1.824 0-0.8477 0.6328-1.254 1.438-1.254 0.3516 0 0.6406 0.07031 0.9375 0.1602l-0.0625 0.6523c-0.168-0.1016-0.6172-0.207-0.793-0.207-0.3828 0-0.7188 0.1602-0.7188 0.4961 0 0.832 1.766 0.5938 1.766 1.895 0 0.8711-0.6953 1.273-1.422 1.273-0.3828 0-0.7773-0.04297-1.121-0.2227l0.03906-0.6719" fill="#231f1f"/>
<path d="m73.07 182.8h-1.082v2.23c0 0.4727 0.2891 0.7266 0.6328 0.7266 0.2305 0 0.3984-0.07422 0.5117-0.1445v0.6406c-0.168 0.04688-0.3984 0.1133-0.6406 0.1133-0.7734 0-1.254-0.3672-1.254-1.184v-2.383h-0.9219v-0.6094h0.9219v-0.9414l0.75-0.2422v1.184h1.082v0.6094" fill="#231f1f"/>
<path d="m76.65 183.8c0-0.625-0.3672-1.137-1.016-1.137-0.7344 0-1.039 0.6094-1.094 1.137zm0.4883 2.262c-0.2891 0.1055-0.6172 0.2656-1.289 0.2656-1.445 0-2.109-0.8789-2.109-2.207 0-1.207 0.7578-2.062 1.91-2.062 1.359 0 1.801 0.9883 1.801 2.301h-2.91c0 0.8086 0.6289 1.359 1.344 1.359 0.4922 0 1.07-0.2539 1.254-0.4062v0.75" fill="#231f1f"/>
<path d="m78.46 182.2h0.7031v0.6328h0.01562c0.1992-0.4258 0.6328-0.7266 1.062-0.7266 0.2266 0 0.3359 0.02344 0.4961 0.05469v0.6719c-0.1367-0.05469-0.2852-0.07422-0.4141-0.07422-0.6719 0-1.113 0.6406-1.113 1.664v1.855h-0.75v-4.078" fill="#231f1f"/>
<path d="m83.37 185.7c0.8789 0 1.273-0.8008 1.273-1.527 0-0.7734-0.4727-1.527-1.273-1.527-0.8086 0-1.277 0.7539-1.277 1.527 0 0.7266 0.3906 1.527 1.277 1.527zm0-3.66c1.238 0 2.07 0.8945 2.07 2.133 0 1.168-0.8477 2.137-2.07 2.137-1.23 0-2.078-0.9688-2.078-2.137 0-1.238 0.832-2.133 2.078-2.133" fill="#231f1f"/>
<path d="m86.45 182.2h0.7266v0.6484h0.01953c0.2227-0.4648 0.7656-0.7422 1.336-0.7422 1.055 0 1.523 0.6523 1.523 1.75v2.422h-0.75v-2.109c0-0.9531-0.207-1.418-0.8633-1.457-0.8555 0-1.238 0.6875-1.238 1.68v1.887h-0.7539v-4.078" fill="#231f1f"/>
<path d="m93.97 183.8c0-0.625-0.3711-1.137-1.016-1.137-0.7383 0-1.043 0.6094-1.098 1.137zm0.4844 2.262c-0.2852 0.1055-0.6133 0.2656-1.285 0.2656-1.449 0-2.113-0.8789-2.113-2.207 0-1.207 0.7617-2.062 1.914-2.062 1.359 0 1.797 0.9883 1.797 2.301h-2.91c0 0.8086 0.6328 1.359 1.344 1.359 0.4961 0 1.07-0.2539 1.254-0.4062v0.75" fill="#231f1f"/>
<path transform="matrix(.1 0 0 -.1 0 195.8)" d="m569.5 506.5v-126" fill="none" stroke="#231f1f" stroke-width="5"/>
<path d="m56.95 160.8c-0.5273-1.422-1.426-3.184-2.375-4.277l2.375 0.8633 2.379-0.8633c-0.9531 1.094-1.852 2.855-2.379 4.277" fill="#231f1f"/>
<path transform="matrix(.1 0 0 -.1 0 195.8)" d="m1011 1767v-126" fill="none" stroke="#231f1f" stroke-width="5"/>
<path transform="matrix(.1 0 0 -.1 0 195.8)" d="m569.5 1514v126h882v-126" fill="none" stroke="#231f1f" stroke-width="5"/>
<path d="m145.1 47.37c-0.5273-1.418-1.426-3.18-2.375-4.273l2.375 0.8594 2.379-0.8594c-0.9531 1.094-1.852 2.855-2.379 4.273" fill="#231f1f"/>
<path d="m56.95 47.37c-0.5273-1.418-1.426-3.18-2.375-4.273l2.375 0.8594 2.379-0.8594c-0.9531 1.094-1.852 2.855-2.379 4.273" fill="#231f1f"/>
<path d="m157.8 69.55h-25.2v-18.9h25.2v18.9" fill="#fef0ca"/>
<path transform="matrix(.1 0 0 -.1 0 195.8)" d="m1578 1262h-252v189h252z" fill="none" stroke="#231f1f" stroke-width="5"/>
<path d="m138.9 57.67h2.965v0.7031h-2.164v1.633h2.07v0.7031h-2.07v2.543h-0.8008v-5.582" fill="#231f1f"/>
<path d="m145.5 58.51c-0.4062-0.1602-0.6328-0.2305-1.047-0.2305-0.4492 0-0.9766 0.1602-0.9766 0.7422 0 1.074 2.398 0.8242 2.398 2.664 0 1.191-0.918 1.664-2.039 1.664-0.3906 0-0.7734-0.1133-1.145-0.2344l0.08203-0.7422c0.2734 0.1094 0.75 0.2734 1.16 0.2734 0.4531 0 1.094-0.2578 1.094-0.9141 0-1.246-2.398-0.9023-2.398-2.637 0-0.9922 0.7852-1.52 1.793-1.52 0.3672 0 0.8047 0.0625 1.191 0.1992l-0.1133 0.7344" fill="#231f1f"/>
<path d="m147 57.67h0.8008v2.336h2.668v-2.336h0.8008v5.582h-0.8008v-2.543h-2.668v2.543h-0.8008v-5.582" fill="#231f1f"/>
<path d="m170.4 107.4h-50.4v-18.9h50.4v18.9" fill="#fef0ca"/>
<path transform="matrix(.1 0 0 -.1 0 195.8)" d="m1704 884.5h-504v189h504z" fill="none" stroke="#231f1f" stroke-width="5"/>
<path d="m127.5 96.31c-0.4102-0.1602-0.6328-0.2305-1.047-0.2305-0.4492 0-0.9766 0.1602-0.9766 0.7422 0 1.07 2.398 0.8242 2.398 2.664 0 1.188-0.9219 1.66-2.039 1.66-0.3906 0-0.7773-0.1094-1.145-0.2305l0.08203-0.7422c0.2695 0.1094 0.75 0.2695 1.16 0.2695 0.4531 0 1.094-0.2539 1.094-0.9102 0-1.246-2.398-0.9023-2.398-2.637 0-0.9922 0.7812-1.523 1.789-1.523 0.3672 0 0.8086 0.06641 1.191 0.2031l-0.1094 0.7344" fill="#231f1f"/>
<path d="m131.6 98.62c0-0.625-0.3672-1.137-1.016-1.137-0.7383 0-1.043 0.6094-1.098 1.137zm0.4844 2.262c-0.2852 0.1016-0.6133 0.2617-1.285 0.2617-1.449 0-2.109-0.8789-2.109-2.203 0-1.211 0.7578-2.066 1.91-2.066 1.359 0 1.797 0.9922 1.797 2.305h-2.91c0 0.8086 0.6328 1.359 1.344 1.359 0.4961 0 1.07-0.2578 1.254-0.4062v0.75" fill="#231f1f"/>
<path d="m133.4 96.97h0.707v0.6328h0.01562c0.1992-0.4258 0.6328-0.7305 1.062-0.7305 0.2227 0 0.3359 0.02734 0.4961 0.05859v0.6719c-0.1367-0.05859-0.2891-0.07422-0.418-0.07422-0.6719 0-1.109 0.6406-1.109 1.664v1.855h-0.7539v-4.078" fill="#231f1f"/>
<path d="m138.6 97.58h-1.078v2.23c0 0.4688 0.2852 0.7266 0.6289 0.7266 0.2305 0 0.4023-0.07031 0.5117-0.1445v0.6406c-0.168 0.04688-0.3984 0.1094-0.6406 0.1094-0.7734 0-1.254-0.3672-1.254-1.18v-2.383h-0.918v-0.6094h0.918v-0.9414l0.7539-0.2422v1.184h1.078v0.6094" fill="#231f1f"/>
<path d="m141.4 100.5c0.8828 0 1.273-0.8008 1.273-1.527 0-0.7773-0.4727-1.527-1.273-1.527-0.8047 0-1.277 0.75-1.277 1.527 0 0.7266 0.3906 1.527 1.277 1.527zm0-3.664c1.242 0 2.07 0.8984 2.07 2.137 0 1.168-0.8438 2.133-2.07 2.133-1.23 0-2.078-0.9648-2.078-2.133 0-1.238 0.832-2.137 2.078-2.137" fill="#231f1f"/>
<path d="m144.6 95.05h0.7539v5.996h-0.7539v-5.996" fill="#231f1f"/>
<path d="m146.8 96.97h0.75v4.078h-0.75zm0.7969-0.9102h-0.8438v-0.8477h0.8438v0.8477" fill="#231f1f"/>
<path d="m153.7 97.66c-0.2891-0.1211-0.5781-0.1758-0.8164-0.1758-0.8398 0-1.312 0.75-1.312 1.527 0 0.7266 0.3945 1.527 1.359 1.527 0.2578 0 0.5781-0.08203 0.8086-0.2305l0.05469 0.6719c-0.3125 0.1406-0.6719 0.1641-0.9414 0.1641-1.23 0-2.082-0.9648-2.082-2.133 0-1.238 0.832-2.137 2.082-2.137 0.3008 0 0.6953 0.07422 0.9102 0.1602l-0.0625 0.625" fill="#231f1f"/>
<path d="m157.3 98.62c0-0.625-0.3672-1.137-1.016-1.137-0.7344 0-1.039 0.6094-1.094 1.137zm0.4883 2.262c-0.2891 0.1016-0.6172 0.2617-1.289 0.2617-1.445 0-2.109-0.8789-2.109-2.203 0-1.211 0.7578-2.066 1.91-2.066 1.359 0 1.801 0.9922 1.801 2.305h-2.91c0 0.8086 0.6289 1.359 1.344 1.359 0.4922 0 1.07-0.2578 1.254-0.4062v0.75" fill="#231f1f"/>
<path d="m159.2 95.05h0.7539v5.996h-0.7539v-5.996" fill="#231f1f"/>
<path d="m161.4 95.05h0.7539v5.996h-0.7539v-5.996" fill="#231f1f"/>
<path d="m163.2 100.2c0.2969 0.1914 0.7227 0.2891 0.9375 0.2891 0.3438 0 0.7656-0.1445 0.7656-0.582 0-0.7461-1.766-0.6797-1.766-1.824 0-0.8477 0.6328-1.258 1.438-1.258 0.3555 0 0.6406 0.07422 0.9375 0.1602l-0.0625 0.6562c-0.168-0.1016-0.6172-0.207-0.793-0.207-0.3828 0-0.7188 0.1602-0.7188 0.4961 0 0.832 1.766 0.5898 1.766 1.895 0 0.8711-0.6953 1.27-1.422 1.27-0.3867 0-0.7773-0.03906-1.121-0.2227l0.03906-0.6719" fill="#231f1f"/>
<path d="m182.9 145.1h-75.6v-18.9h75.6v18.9" fill="#fef0ca"/>
<path transform="matrix(.1 0 0 -.1 0 195.8)" d="m1829 506.5h-756v189h756z" fill="none" stroke="#231f1f" stroke-width="5"/>
<path d="m116.9 134.1c-0.4062-0.1602-0.6328-0.2305-1.047-0.2305-0.4492 0-0.9766 0.1562-0.9766 0.7422 0 1.07 2.398 0.8242 2.398 2.66 0 1.191-0.918 1.664-2.039 1.664-0.3906 0-0.7734-0.1094-1.145-0.2305l0.08203-0.7422c0.2695 0.1094 0.75 0.2695 1.16 0.2695 0.4531 0 1.094-0.2578 1.094-0.9102 0-1.25-2.398-0.9062-2.398-2.641 0-0.9883 0.7852-1.52 1.793-1.52 0.3672 0 0.8047 0.06641 1.191 0.1992l-0.1133 0.7383" fill="#231f1f"/>
<path d="m120.2 135.3c-0.8164 0-1.207 0.7734-1.207 1.535 0 0.6797 0.3516 1.52 1.199 1.52 0.8086 0 1.145-0.9062 1.125-1.547 0.01953-0.7344-0.3008-1.508-1.117-1.508zm-1.961-0.5117h0.7227v0.5742h0.01562c0.1992-0.3047 0.6641-0.6719 1.383-0.6719 1.184 0 1.758 0.9688 1.758 2.062 0 1.121-0.5195 2.207-1.75 2.207-0.7188 0-1.129-0.2812-1.359-0.6562h-0.01562v2.238h-0.7539v-5.754" fill="#231f1f"/>
<path d="m125.8 136.4c0-0.6211-0.3711-1.133-1.016-1.133-0.7383 0-1.039 0.6055-1.098 1.133zm0.4883 2.266c-0.2891 0.1016-0.6172 0.2617-1.289 0.2617-1.449 0-2.113-0.8789-2.113-2.207 0-1.207 0.7617-2.062 1.914-2.062 1.359 0 1.797 0.9922 1.797 2.305h-2.91c0 0.8047 0.6328 1.359 1.344 1.359 0.4961 0 1.074-0.2578 1.258-0.4102v0.7539" fill="#231f1f"/>
<path d="m127.6 134.8h0.6992v0.6289h0.01953c0.1992-0.4219 0.6289-0.7266 1.062-0.7266 0.2227 0 0.3359 0.02344 0.4961 0.05469v0.6719c-0.1367-0.05469-0.2891-0.07031-0.418-0.07031-0.6719 0-1.109 0.6406-1.109 1.664v1.855h-0.75v-4.078" fill="#231f1f"/>
<path d="m130.7 134.8h0.7031v0.5898h0.01562c0.2891-0.4727 0.6953-0.6875 1.297-0.6875 0.4727 0 0.9414 0.2383 1.16 0.793 0.2773-0.5859 0.8945-0.793 1.262-0.793 1.039 0 1.414 0.6719 1.414 1.559v2.617h-0.75v-2.434c0-0.5039-0.1211-1.133-0.7266-1.133-0.7695 0-1.074 0.75-1.074 1.508v2.059h-0.75v-2.434c0-0.5039-0.1211-1.133-0.7266-1.133-0.7695 0-1.07 0.75-1.07 1.508v2.059h-0.7539v-4.078" fill="#231f1f"/>
<path d="m140.2 136.9c-0.1602 0-0.3203-0.01562-0.4805-0.01562-0.4102 0-1.414 0.06641-1.414 0.7852 0 0.4297 0.4141 0.6641 0.7578 0.6641 0.7422 0 1.137-0.4648 1.137-1.074zm-2.23-1.848c0.375-0.2227 0.8242-0.3828 1.34-0.3828 1.168 0 1.641 0.5781 1.641 1.688v1.688c0 0.4648 0.01562 0.6797 0.03125 0.8008h-0.7031v-0.5312h-0.01562c-0.1758 0.25-0.5742 0.625-1.262 0.625-0.8789 0-1.496-0.3828-1.496-1.27 0-1.023 1.121-1.344 1.895-1.344 0.2969 0 0.5039 0 0.8008 0.01562 0-0.7031-0.2578-1.062-1.008-1.062-0.4258 0-0.8789 0.1602-1.184 0.4141l-0.03906-0.6406" fill="#231f1f"/>
<path d="m144.4 135.4h-1.078v2.23c0 0.4727 0.2891 0.7305 0.6328 0.7305 0.2305 0 0.3984-0.07422 0.5117-0.1445v0.6406c-0.168 0.04687-0.4023 0.1094-0.6406 0.1094-0.7734 0-1.254-0.3672-1.254-1.184v-2.383h-0.9219v-0.6055h0.9219v-0.9453l0.75-0.2383v1.184h1.078v0.6055" fill="#231f1f"/>
<path d="m147.2 138.3c0.8789 0 1.273-0.8008 1.273-1.527 0-0.7773-0.4727-1.527-1.273-1.527-0.8086 0-1.277 0.75-1.277 1.527 0 0.7266 0.3906 1.527 1.277 1.527zm0-3.664c1.238 0 2.07 0.8945 2.07 2.137 0 1.168-0.8477 2.133-2.07 2.133-1.23 0-2.078-0.9648-2.078-2.133 0-1.242 0.832-2.137 2.078-2.137" fill="#231f1f"/>
<path d="m153.1 136.9c0-0.8477-0.3906-1.574-1.191-1.574-0.7578 0-1.137 0.8203-1.137 1.52 0 0.7656 0.4336 1.438 1.137 1.438s1.191-0.625 1.191-1.383zm0.7539 1.812c0 1.242-0.6406 1.953-2.105 1.953-0.4297 0-0.8086-0.05469-1.461-0.2812l0.07812-0.6953c0.5742 0.2656 0.918 0.3711 1.473 0.3711 0.7891 0 1.262-0.5391 1.262-1.402v-0.3984h-0.01562c-0.3203 0.4219-0.8477 0.6328-1.367 0.6328-1.168 0-1.742-0.9531-1.742-2.008 0-1.047 0.5898-2.168 1.82-2.168 0.7227 0 1.121 0.2656 1.344 0.7031h0.01562v-0.6055h0.6992v3.898" fill="#231f1f"/>
<path d="m157.7 136.4c0-0.6211-0.3672-1.133-1.012-1.133-0.7383 0-1.043 0.6055-1.098 1.133zm0.4883 2.266c-0.2852 0.1016-0.6133 0.2617-1.285 0.2617-1.449 0-2.113-0.8789-2.113-2.207 0-1.207 0.7617-2.062 1.914-2.062 1.359 0 1.797 0.9922 1.797 2.305h-2.91c0 0.8047 0.6328 1.359 1.344 1.359 0.4961 0 1.07-0.2578 1.254-0.4102v0.7539" fill="#231f1f"/>
<path d="m159.6 134.8h0.7305v0.6445h0.01562c0.2227-0.4609 0.7656-0.7422 1.332-0.7422 1.059 0 1.527 0.6562 1.527 1.75v2.426h-0.75v-2.113c0-0.9492-0.207-1.414-0.8633-1.453-0.8555 0-1.238 0.6875-1.238 1.68v1.887h-0.7539v-4.078" fill="#231f1f"/>
<path d="m167.1 136.4c0-0.6211-0.3711-1.133-1.016-1.133-0.7383 0-1.039 0.6055-1.098 1.133zm0.4844 2.266c-0.2852 0.1016-0.6133 0.2617-1.285 0.2617-1.449 0-2.113-0.8789-2.113-2.207 0-1.207 0.7617-2.062 1.914-2.062 1.359 0 1.797 0.9922 1.797 2.305h-2.91c0 0.8047 0.6328 1.359 1.344 1.359 0.4961 0 1.07-0.2578 1.254-0.4102v0.7539" fill="#231f1f"/>
<path d="m168.6 138.1c0.293 0.1914 0.7188 0.2891 0.9336 0.2891 0.3438 0 0.7695-0.1445 0.7695-0.5859 0-0.7422-1.77-0.6797-1.77-1.82 0-0.8477 0.6328-1.258 1.441-1.258 0.3516 0 0.6367 0.07422 0.9336 0.1602l-0.0625 0.6562c-0.168-0.1055-0.6172-0.207-0.793-0.207-0.3828 0-0.7188 0.1602-0.7188 0.4961 0 0.8281 1.766 0.5898 1.766 1.895 0 0.8711-0.6953 1.27-1.422 1.27-0.3828 0-0.7773-0.03906-1.121-0.2227l0.04297-0.6719" fill="#231f1f"/>
<path d="m172.1 134.8h0.75v4.078h-0.75zm0.7969-0.9141h-0.8477v-0.8477h0.8477v0.8477" fill="#231f1f"/>
<path d="m173.9 138.1c0.2969 0.1914 0.7188 0.2891 0.9336 0.2891 0.3438 0 0.7695-0.1445 0.7695-0.5859 0-0.7422-1.766-0.6797-1.766-1.82 0-0.8477 0.6289-1.258 1.438-1.258 0.3516 0 0.6406 0.07422 0.9336 0.1602l-0.0625 0.6562c-0.168-0.1055-0.6172-0.207-0.793-0.207-0.3828 0-0.7188 0.1602-0.7188 0.4961 0 0.8281 1.77 0.5898 1.77 1.895 0 0.8711-0.6953 1.27-1.426 1.27-0.3828 0-0.7734-0.03906-1.117-0.2227l0.03906-0.6719" fill="#231f1f"/>
<path transform="matrix(.1 0 0 -.1 0 195.8)" d="m1451 1262v-126" fill="none" stroke="#231f1f" stroke-width="5"/>
<path d="m145.1 85.17c-0.5273-1.422-1.426-3.184-2.375-4.273l2.375 0.8594 2.379-0.8594c-0.9531 1.09-1.852 2.852-2.379 4.273" fill="#231f1f"/>
<path transform="matrix(.1 0 0 -.1 0 195.8)" d="m1451 884.5v-126" fill="none" stroke="#231f1f" stroke-width="5"/>
<path d="m145.1 123c-0.5273-1.422-1.426-3.184-2.375-4.273l2.375 0.8594 2.379-0.8594c-0.9531 1.09-1.852 2.852-2.379 4.273" fill="#231f1f"/>
<path transform="matrix(.1 0 0 -.1 0 195.8)" d="m1704 980.5h126" fill="none" stroke="#231f1f" stroke-width="5"/>
<path d="m186 97.75c-1.422 0.5273-3.184 1.426-4.273 2.379l0.8594-2.379-0.8594-2.379c1.09 0.9531 2.852 1.852 4.273 2.379" fill="#231f1f"/>
<g clip-path="url(#a)">
<path d="m227.1 107.4h-37.8v-18.9h37.8v18.9" fill="#fef0ca"/>
<path transform="matrix(.1 0 0 -.1 0 195.8)" d="m2271 884.5h-378v189h378z" fill="none" stroke="#231f1f" stroke-width="5"/>
</g>
<path d="m192.2 95.47h0.8008v5.582h-0.8008v-5.582" fill="#231f1f"/>
<path d="m194.4 96.97h0.7305v0.6484h0.01562c0.2227-0.4648 0.7656-0.7461 1.332-0.7461 1.059 0 1.527 0.6562 1.527 1.754v2.422h-0.75v-2.109c0-0.9531-0.207-1.418-0.8633-1.457-0.8555 0-1.238 0.6875-1.238 1.68v1.887h-0.7539v-4.078" fill="#231f1f"/>
<path d="m199.2 95.05h0.75v2.5h0.01953c0.2695-0.4297 0.7422-0.6797 1.309-0.6797 1.055 0 1.527 0.6562 1.527 1.754v2.422h-0.75v-2.109c0-0.9531-0.207-1.418-0.8633-1.457-0.8555 0-1.242 0.6875-1.242 1.68v1.887h-0.75v-5.996" fill="#231f1f"/>
<path d="m204.2 96.97h0.7539v4.078h-0.7539zm0.8008-0.9102h-0.8477v-0.8477h0.8477v0.8477" fill="#231f1f"/>
<path d="m208.3 97.48c-0.8164 0-1.207 0.7773-1.207 1.535 0 0.6797 0.3516 1.52 1.199 1.52 0.8086 0 1.145-0.9023 1.129-1.543 0.01562-0.7344-0.3047-1.512-1.121-1.512zm-1.961-2.43h0.7539v2.477h0.01563c0.2305-0.375 0.6406-0.6562 1.352-0.6562 1.184 0 1.758 0.9688 1.758 2.066 0 1.117-0.5195 2.203-1.75 2.203-0.7266 0-1.191-0.3672-1.391-0.668h-0.01563v0.5742h-0.7227v-5.996" fill="#231f1f"/>
<path d="m211.3 96.97h0.75v4.078h-0.75zm0.8008-0.9102h-0.8477v-0.8477h0.8477v0.8477" fill="#231f1f"/>
<path d="m213.5 96.97h0.7266v0.6484h0.01562c0.2266-0.4648 0.7695-0.7461 1.336-0.7461 1.055 0 1.527 0.6562 1.527 1.754v2.422h-0.75v-2.109c0-0.9531-0.2109-1.418-0.8633-1.457-0.8555 0-1.242 0.6875-1.242 1.68v1.887h-0.75v-4.078" fill="#231f1f"/>
<path d="m221.4 100.4h0.6016c0.7188 0 1.367-0.1523 1.367-0.9023 0-0.8633-0.7617-0.9844-1.449-0.9844h-0.5195zm0-2.543h0.4414c0.7734 0 1.43-0.07031 1.43-0.8945 0-0.6641-0.5664-0.832-1.031-0.832h-0.8398zm-0.8008-2.383h1.512c1.16 0 1.961 0.375 1.961 1.406 0 0.7695-0.4492 1.152-1.152 1.328v0.01562c0.7578 0.06641 1.297 0.5625 1.297 1.344 0 1.199-0.9922 1.488-2.129 1.488h-1.488v-5.582" fill="#231f1f"/>
<path transform="matrix(.1 0 0 -.1 0 195.8)" d="m2081 1074v280h-441" fill="none" stroke="#231f1f" stroke-width="5"/>
<path d="m161 60.45c1.422-0.5273 3.184-1.426 4.273-2.375l-0.8594 2.375 0.8594 2.379c-1.09-0.9531-2.852-1.852-4.273-2.379" fill="#231f1f"/>
<path transform="matrix(.1 0 0 -.1 0 195.8)" d="m254.5 599.5h-252" fill="none" stroke="#231f1f" stroke-width="5"/>
<path transform="matrix(.1 0 0 -.1 0 195.8)" d="m2.5 1359h378" fill="none" stroke="#231f1f" stroke-width="5"/>
<path d="m41.07 59.95c-1.418 0.5273-3.18 1.426-4.273 2.379l0.8633-2.379-0.8633-2.375c1.094 0.9492 2.855 1.852 4.273 2.375" fill="#231f1f"/>
<path transform="matrix(.1 0 0 -.1 0 195.8)" d="m884.5 599.5h126" fill="none" stroke="#231f1f" stroke-width="5"/>
<path d="m104.1 135.9c-1.422 0.5273-3.184 1.426-4.273 2.375l0.8594-2.375-0.8594-2.379c1.09 0.9492 2.852 1.852 4.273 2.379" fill="#231f1f"/>
<path d="m42.76 3.168h3.082v0.9102h-3.082v-0.9102" fill="#231f1f"/>
<path transform="matrix(.1 0 0 -.1 0 195.8)" d="m476 1921c0-17.42-14.1-31.52-31.52-31.52-17.38 0-31.48 14.1-31.48 31.52 0 17.38 14.1 31.48 31.48 31.48 17.42 0 31.52-14.1 31.52-31.48z" fill="none" stroke="#231f1f" stroke-width="5"/>
<path d="m23.51 52.67h3.082v0.9102h-3.082v-0.9102" fill="#231f1f"/>
<path transform="matrix(.1 0 0 -.1 0 195.8)" d="m283.5 1426c0-17.42-14.1-31.52-31.52-31.52-17.38 0-31.48 14.1-31.48 31.52 0 17.38 14.1 31.48 31.48 31.48 17.42 0 31.52-14.1 31.52-31.48z" fill="none" stroke="#231f1f" stroke-width="5"/>
<path d="m181.3 52.67h3.082v0.9102h-3.082v-0.9102" fill="#231f1f"/>
<path transform="matrix(.1 0 0 -.1 0 195.8)" d="m1861 1426c0-17.42-14.1-31.52-31.52-31.52-17.38 0-31.48 14.1-31.48 31.52 0 17.38 14.1 31.48 31.48 31.48 17.42 0 31.52-14.1 31.52-31.48z" fill="none" stroke="#231f1f" stroke-width="5"/>
</svg>
