<?xml version="1.0" encoding="UTF-8"?>
<svg width="135.8pt" height="376.6pt" version="1.1" viewBox="0 0 135.8 376.6" xmlns="http://www.w3.org/2000/svg">
<defs>
<clipPath id="b">
<path d="m0 279h104v97.58h-104z"/>
</clipPath>
<clipPath id="a">
<path d="m133 268h2.828v6h-2.828z"/>
</clipPath>
</defs>
<path transform="matrix(.1 0 0 -.1 0 376.6)" d="m524 2276c-278.5 0-504.3-211-504.3-471.3 0-260.4 225.9-471.3 504.3-471.3 278.6 0 504.3 211 504.3 471.3 0 260.3-225.7 471.3-504.3 471.3" fill="#f3ca9d" fill-rule="evenodd" stroke="#eb222c" stroke-linecap="round" stroke-linejoin="round" stroke-miterlimit="10" stroke-width="30.01"/>
<path transform="matrix(.1 0 0 -.1 0 376.6)" d="m524 2074c-167.1 0-302.6-120.5-302.6-269.3 0-148.7 135.5-269.3 302.6-269.3 167.2 0 302.6 120.6 302.6 269.3 0 148.8-135.4 269.3-302.6 269.3" fill="#fff" fill-rule="evenodd" stroke="#4162b6" stroke-linecap="round" stroke-linejoin="round" stroke-miterlimit="10" stroke-width="30"/>
<path d="m69.21 223.1c14.84 0 26.86-12.06 26.86-26.93 0-14.88-12.02-26.93-26.86-26.93h0.01172c10.38 4.926 16.99 15.42 16.99 26.93 0 11.52-6.613 22.01-16.99 26.93h-0.01172" fill="#eb222c" fill-rule="evenodd"/>
<path transform="matrix(.1 0 0 -.1 0 376.6)" d="m692.1 1535c148.4 0 268.6 120.6 268.6 269.3 0 148.8-120.2 269.3-268.6 269.3h0.1172c103.8-49.26 169.9-154.2 169.9-269.3 0-115.2-66.13-220.1-169.9-269.3zm0 0" fill="none" stroke="#231f1f" stroke-linecap="round" stroke-linejoin="round" stroke-miterlimit="10" stroke-width="7.502"/>
<path d="m51.99 280.8c-27.84 0-50.43 21.12-50.43 47.13 0 26.03 22.59 47.12 50.43 47.12 27.86 0 50.43-21.09 50.43-47.12 0-26.01-22.57-47.13-50.43-47.13" fill="#f3ca9d" fill-rule="evenodd"/>
<g clip-path="url(#b)">
<path transform="matrix(.1 0 0 -.1 0 376.6)" d="m519.9 957.6c-278.4 0-504.3-211.2-504.3-471.3 0-260.3 225.9-471.2 504.3-471.2 278.6 0 504.3 210.9 504.3 471.2 0 260.1-225.7 471.3-504.3 471.3" fill="none" stroke="#eb222c" stroke-linecap="round" stroke-linejoin="round" stroke-miterlimit="10" stroke-width="30.01"/>
</g>
<path transform="matrix(.1 0 0 -.1 0 376.6)" d="m519.9 755.6c-167 0-302.6-120.7-302.6-269.3 0-148.8 135.6-269.3 302.6-269.3 167.2 0 302.6 120.5 302.6 269.3 0 148.6-135.4 269.3-302.6 269.3" fill="#fff" fill-rule="evenodd" stroke="#4162b6" stroke-linecap="round" stroke-linejoin="round" stroke-miterlimit="10" stroke-width="30"/>
<path transform="matrix(.1 0 0 -.1 0 376.6)" d="m692 749.6c-48.09-52.07-40.47-137.3 17.03-190.6 57.5-53.2 143-54.22 191.1-2.266-41.25 23.79-79.8 52.19-114.9 84.73-35.2 32.42-66.48 68.79-93.24 108.2" fill="#f6ec18" fill-rule="evenodd" stroke="#f6ec18" stroke-linecap="round" stroke-linejoin="round" stroke-miterlimit="10" stroke-width="7.502"/>
<path transform="matrix(.1 0 0 -.1 0 376.6)" d="m905.7 357.5c-35.86 65.08-117.7 88.83-182.7 52.93-65.2-35.66-88.75-117.6-53.12-182.9 33.2 31.21 70.2 57.89 109.8 79.69 39.69 21.95 82.03 38.79 126 50.27" fill="#f6ec18" fill-rule="evenodd" stroke="#f6ec18" stroke-linecap="round" stroke-linejoin="round" stroke-miterlimit="10" stroke-width="7.502"/>
<path transform="matrix(.1 0 0 -.1 0 376.6)" d="m889.8 619.8c-74.22 0-134.5-60.62-134.5-135.3 0-74.77 60.27-135.1 134.5-135.1 74.41 0 134.5 60.35 134.5 135.1 0 74.69-60.08 135.3-134.5 135.3" fill="#eb222c" fill-rule="evenodd" stroke="#eb222c" stroke-linecap="round" stroke-linejoin="round" stroke-miterlimit="10" stroke-width="7.502"/>
<path transform="matrix(.1 0 0 -.1 0 376.6)" d="m519.3 3623c-278.5 0-504.3-211-504.3-471.3 0-260.4 225.8-471.3 504.3-471.3 278.6 0 504.3 210.9 504.3 471.3 0 260.3-225.8 471.3-504.3 471.3" fill="#f3ca9d" fill-rule="evenodd" stroke="#eb222c" stroke-linecap="round" stroke-linejoin="round" stroke-miterlimit="10" stroke-width="30.01"/>
<path transform="matrix(.1 0 0 -.1 0 376.6)" d="m519.3 3421c-167.1 0-302.6-120.6-302.6-269.3 0-148.8 135.5-269.3 302.6-269.3 167.1 0 302.6 120.5 302.6 269.3 0 148.7-135.5 269.3-302.6 269.3" fill="#fff" fill-rule="evenodd" stroke="#4162b6" stroke-linecap="round" stroke-linejoin="round" stroke-miterlimit="10" stroke-width="30"/>
<path d="m70.3 84.46c13.57-6.828 17.8-25.82 9.465-42.44-8.344-16.61-26.1-24.54-39.67-17.71 8.977 6.895 16.52 16.11 21.82 26.69 5.312 10.59 8.207 22.14 8.379 33.47v-0.007813" fill="#eb222c" fill-rule="evenodd"/>
<path transform="matrix(.1 0 0 -.1 0 376.6)" d="m703 2921c135.7 68.28 178 258.2 94.65 424.4-83.44 166.1-261 245.4-396.7 177.1 89.77-68.95 165.2-161.1 218.2-266.9 53.12-105.9 82.07-221.4 83.79-334.7zm0 0" fill="none" stroke="#231f1f" stroke-linecap="round" stroke-linejoin="round" stroke-miterlimit="10" stroke-width="7.502"/>
<path transform="matrix(.1 0 0 -.1 0 376.6)" d="m557.7 3342c13.63-19.92 26.37-40.55 38.05-61.76 61.37-111.3 92.93-234.6 89.45-349.7" fill="none" stroke="#4162b6" stroke-linejoin="round" stroke-miterlimit="10" stroke-width="30"/>
<path d="m4.5 139.3h2.383l-1.184-2.988zm-0.9492 2.352h-0.9883l2.758-6.375h0.8086l2.73 6.375h-1.004l-0.6484-1.566h-3.02l-0.6367 1.566" fill="#231f1f"/>
<path d="m12.6 138.5c-0.1797-0.2812-0.5742-0.4883-0.9805-0.4883-0.8828 0-1.395 0.7227-1.395 1.539 0 0.8125 0.5117 1.543 1.402 1.543 0.4336 0 0.8008-0.1836 1.023-0.4688l0.5664 0.5117c-0.3594 0.4141-0.9062 0.668-1.59 0.668-1.312 0-2.293-0.8945-2.293-2.254 0-1.34 0.9727-2.25 2.277-2.25 0.6016 0 1.246 0.2461 1.598 0.7031l-0.6094 0.4961" fill="#231f1f"/>
<path d="m17.02 141.7c-0.01953-0.2188-0.03516-0.5234-0.03516-0.7031h-0.01953c-0.2148 0.4492-0.7734 0.8203-1.391 0.8203-1.098 0-1.594-0.7852-1.594-1.738v-2.648h0.8477v2.359c0 0.7031 0.1875 1.316 0.9688 1.316 0.6719 0 1.141-0.5586 1.141-1.406v-2.27h0.8438v3.352c0 0.2227 0.01172 0.6367 0.03906 0.918h-0.8008" fill="#231f1f"/>
<path d="m21.34 138.1h-1.133v2.223c0 0.5117 0.1797 0.7188 0.6016 0.7188 0.1523 0 0.3477-0.03516 0.4922-0.1055l0.02734 0.6914c-0.1953 0.07422-0.457 0.1172-0.7188 0.1172-0.8008 0-1.238-0.4492-1.238-1.332v-2.312h-0.8203v-0.6953h0.8203v-1.223h0.8359v1.223h1.133v0.6953" fill="#231f1f"/>
<path d="m25.35 139.2c-0.01953-0.6758-0.4141-1.207-1.195-1.207-0.7305 0-1.285 0.5391-1.34 1.207zm0.8438 0.6289h-3.379c0.02734 0.7305 0.6367 1.297 1.383 1.297 0.5781 0 1-0.2891 1.242-0.6484l0.5938 0.4766c-0.4609 0.5938-1.078 0.875-1.836 0.875-1.293 0-2.246-0.9023-2.246-2.242 0-1.332 0.9531-2.262 2.203-2.262 1.258 0 2.047 0.8555 2.047 2.215 0 0.08984 0 0.1914-0.007813 0.2891" fill="#231f1f"/>
<path d="m30.45 141.7h-0.8477v-4.27h0.8477zm-0.4258-5.27c-0.3047 0-0.5547-0.2422-0.5547-0.5391 0-0.3047 0.25-0.5508 0.5547-0.5508 0.3086 0 0.5664 0.2344 0.5664 0.5508 0 0.3086-0.2578 0.5391-0.5664 0.5391" fill="#231f1f"/>
<path d="m32.7 137.4c0.01953 0.2188 0.03516 0.5234 0.03516 0.7031h0.02734c0.207-0.4609 0.7734-0.8203 1.387-0.8203 1.094 0 1.59 0.7852 1.59 1.738v2.648h-0.8438v-2.371c0-0.6914-0.1914-1.305-0.9727-1.305-0.6641 0-1.141 0.5586-1.141 1.406v2.27h-0.8438v-3.352c0-0.2227-0.01172-0.6367-0.03906-0.918h0.8008" fill="#231f1f"/>
<path d="m39.25 138.1h-1.133v2.223c0 0.5117 0.1797 0.7188 0.6016 0.7188 0.1523 0 0.3516-0.03516 0.4922-0.1055l0.02734 0.6914c-0.1953 0.07422-0.457 0.1172-0.7188 0.1172-0.8008 0-1.238-0.4492-1.238-1.332v-2.312h-0.8203v-0.6953h0.8203v-1.223h0.8359v1.223h1.133v0.6953" fill="#231f1f"/>
<path d="m40.11 137.4h0.8008c0.01953 0.2188 0.03516 0.543 0.03516 0.7227h0.02734c0.2344-0.4961 0.7305-0.8398 1.305-0.8398 0.1172 0 0.2344 0.01172 0.332 0.03906l-0.03516 0.7812c-0.1094-0.02734-0.2539-0.04688-0.3867-0.04688-0.8086 0-1.195 0.6602-1.195 1.371v2.242h-0.8438v-3.352c0-0.2227-0.01172-0.6367-0.03906-0.918" fill="#231f1f"/>
<path d="m45.9 139.7c-0.832 0-1.895 0.08984-1.895 0.8086 0 0.5039 0.4492 0.668 0.8711 0.668 0.793 0 1.23-0.5312 1.23-1.254v-0.2227zm0.207-0.7305c0-0.6289-0.4219-0.9375-1.051-0.9375-0.4766 0-0.9258 0.207-1.215 0.4961l-0.4453-0.5391c0.4102-0.3945 1.051-0.6406 1.742-0.6406 1.223 0 1.777 0.7305 1.777 1.676v1.863c0 0.2891 0.01953 0.6406 0.0625 0.8477h-0.7617c-0.04688-0.1914-0.07031-0.4141-0.07031-0.6133h-0.02734c-0.3086 0.457-0.793 0.7188-1.43 0.7188-0.6758 0-1.547-0.332-1.547-1.312 0-1.289 1.527-1.441 2.965-1.441v-0.1172" fill="#231f1f"/>
<path d="m50.48 137.3c0.5664 0 1.059 0.2539 1.32 0.8555 0.2891-0.5469 0.8438-0.8555 1.445-0.8555 1.098 0 1.594 0.7852 1.594 1.738v2.648h-0.8477v-2.371c0-0.6914-0.207-1.305-0.9414-1.305-0.7734 0-1.078 0.7031-1.078 1.371v2.305h-0.8477v-2.539c0-0.668-0.2227-1.137-0.8984-1.137-0.6211 0-1.086 0.5586-1.086 1.406v2.27h-0.8438v-3.352c0-0.2227-0.01172-0.6367-0.03906-0.918h0.8008c0.01953 0.2188 0.03516 0.5234 0.03516 0.7031h0.02734c0.2188-0.4492 0.7109-0.8203 1.359-0.8203" fill="#231f1f"/>
<path d="m59.29 141.7c-0.01953-0.2188-0.03516-0.5234-0.03516-0.7031h-0.01953c-0.2148 0.4492-0.7734 0.8203-1.395 0.8203-1.094 0-1.59-0.7852-1.59-1.738v-2.648h0.8438v2.359c0 0.7031 0.1914 1.316 0.9727 1.316 0.6719 0 1.141-0.5586 1.141-1.406v-2.27h0.8438v3.352c0 0.2227 0.01172 0.6367 0.03906 0.918h-0.8008" fill="#231f1f"/>
<path d="m61.48 137.4h0.8008c0.01953 0.2188 0.03516 0.543 0.03516 0.7227h0.02734c0.2344-0.4961 0.7305-0.8398 1.305-0.8398 0.1172 0 0.2344 0.01172 0.332 0.03906l-0.03516 0.7812c-0.1094-0.02734-0.2539-0.04688-0.3867-0.04688-0.8086 0-1.195 0.6602-1.195 1.371v2.242h-0.8438v-3.352c0-0.2227-0.01172-0.6367-0.03906-0.918" fill="#231f1f"/>
<path d="m67.19 139.7c-0.8398 0-1.898 0.08984-1.898 0.8086 0 0.5039 0.4492 0.668 0.8711 0.668 0.793 0 1.234-0.5312 1.234-1.254v-0.2227zm0.207-0.7305c0-0.6289-0.4258-0.9375-1.055-0.9375-0.4766 0-0.9258 0.207-1.211 0.4961l-0.4492-0.5391c0.4102-0.3945 1.051-0.6406 1.742-0.6406 1.223 0 1.781 0.7305 1.781 1.676v1.863c0 0.2891 0.01562 0.6406 0.0625 0.8477h-0.7656c-0.04297-0.1914-0.07031-0.4141-0.07031-0.6133h-0.02734c-0.3086 0.457-0.793 0.7188-1.43 0.7188-0.6758 0-1.547-0.332-1.547-1.312 0-1.289 1.527-1.441 2.969-1.441v-0.1172" fill="#231f1f"/>
<path d="m70.45 141.7h-0.8477v-6.809h0.8477v6.809" fill="#231f1f"/>
<path d="m75.06 138.1c0.1992-0.4219 0.7383-0.7656 1.348-0.7656 1.098 0 1.594 0.7852 1.594 1.738v2.648h-0.8477v-2.359c0-0.6953-0.1797-1.305-0.9609-1.305-0.6641 0-1.148 0.5547-1.148 1.402v2.262h-0.8438v-6.809h0.8438v3.188h0.01562" fill="#231f1f"/>
<path d="m82.55 139.2c-0.01953-0.6758-0.4141-1.207-1.195-1.207-0.7266 0-1.285 0.5391-1.34 1.207zm0.8438 0.6289h-3.379c0.02734 0.7305 0.6406 1.297 1.387 1.297 0.5742 0 0.9961-0.2891 1.238-0.6484l0.5938 0.4766c-0.457 0.5938-1.078 0.875-1.832 0.875-1.297 0-2.246-0.9023-2.246-2.242 0-1.332 0.9492-2.262 2.199-2.262 1.258 0 2.051 0.8555 2.051 2.215 0 0.08984 0 0.1914-0.01172 0.2891" fill="#231f1f"/>
<path d="m86.73 137.3c0.5664 0 1.062 0.2539 1.32 0.8555 0.2891-0.5469 0.8477-0.8555 1.449-0.8555 1.094 0 1.59 0.7852 1.59 1.738v2.648h-0.8438v-2.371c0-0.6914-0.207-1.305-0.9453-1.305-0.7734 0-1.078 0.7031-1.078 1.371v2.305h-0.8438v-2.539c0-0.668-0.2266-1.137-0.8984-1.137-0.6211 0-1.09 0.5586-1.09 1.406v2.27h-0.8438v-3.352c0-0.2227-0.007813-0.6367-0.03516-0.918h0.8008c0.01562 0.2188 0.03516 0.5234 0.03516 0.7031h0.02734c0.2148-0.4492 0.7109-0.8203 1.355-0.8203" fill="#231f1f"/>
<path d="m95.07 139.7c-0.8359 0-1.898 0.08984-1.898 0.8086 0 0.5039 0.4492 0.668 0.8711 0.668 0.793 0 1.234-0.5312 1.234-1.254v-0.2227zm0.207-0.7305c0-0.6289-0.4258-0.9375-1.055-0.9375-0.4727 0-0.9258 0.207-1.211 0.4961l-0.4492-0.5391c0.4141-0.3945 1.051-0.6406 1.742-0.6406 1.223 0 1.781 0.7305 1.781 1.676v1.863c0 0.2891 0.01562 0.6406 0.0625 0.8477h-0.7656c-0.04297-0.1914-0.07031-0.4141-0.07031-0.6133h-0.02734c-0.3047 0.457-0.793 0.7188-1.43 0.7188-0.6758 0-1.547-0.332-1.547-1.312 0-1.289 1.531-1.441 2.969-1.441v-0.1172" fill="#231f1f"/>
<path d="m99.55 138.1h-1.133v2.223c0 0.5117 0.1797 0.7188 0.6016 0.7188 0.1523 0 0.3516-0.03516 0.4961-0.1055l0.02344 0.6914c-0.1953 0.07422-0.457 0.1172-0.7188 0.1172-0.7969 0-1.238-0.4492-1.238-1.332v-2.312h-0.8203v-0.6953h0.8203v-1.223h0.8359v1.223h1.133v0.6953" fill="#231f1f"/>
<path d="m102.5 138c-0.9062 0-1.422 0.7305-1.422 1.539 0 0.8086 0.5156 1.551 1.422 1.551 0.9141 0 1.418-0.7422 1.418-1.551 0-0.8086-0.5039-1.539-1.418-1.539zm0 3.801c-1.305 0-2.293-0.9453-2.293-2.262 0-1.312 0.9883-2.242 2.293-2.242s2.301 0.9297 2.301 2.242c0 1.316-0.9961 2.262-2.301 2.262" fill="#231f1f"/>
<path d="m108.1 137.3c0.5664 0 1.062 0.2539 1.324 0.8555 0.2852-0.5469 0.8438-0.8555 1.445-0.8555 1.098 0 1.59 0.7852 1.59 1.738v2.648h-0.8438v-2.371c0-0.6914-0.207-1.305-0.9453-1.305-0.7734 0-1.078 0.7031-1.078 1.371v2.305h-0.8438v-2.539c0-0.668-0.2266-1.137-0.8984-1.137-0.6211 0-1.09 0.5586-1.09 1.406v2.27h-0.8438v-3.352c0-0.2227-0.007813-0.6367-0.03516-0.918h0.8008c0.01562 0.2188 0.03516 0.5234 0.03516 0.7031h0.02734c0.2148-0.4492 0.7109-0.8203 1.355-0.8203" fill="#231f1f"/>
<path d="m116.4 139.7c-0.8359 0-1.898 0.08984-1.898 0.8086 0 0.5039 0.4492 0.668 0.875 0.668 0.7891 0 1.23-0.5312 1.23-1.254v-0.2227zm0.207-0.7305c0-0.6289-0.4258-0.9375-1.055-0.9375-0.4766 0-0.9219 0.207-1.211 0.4961l-0.4492-0.5391c0.4141-0.3945 1.051-0.6406 1.742-0.6406 1.223 0 1.781 0.7305 1.781 1.676v1.863c0 0.2891 0.01562 0.6406 0.0625 0.8477h-0.7656c-0.04297-0.1914-0.07031-0.4141-0.07031-0.6133h-0.02734c-0.3047 0.457-0.793 0.7188-1.43 0.7188-0.6719 0-1.547-0.332-1.547-1.312 0-1.289 1.531-1.441 2.969-1.441v-0.1172" fill="#231f1f"/>
<path d="m5.75 4.453h2.383l-1.188-2.984zm-0.9531 2.352h-0.9883l2.758-6.375h0.8086l2.734 6.375h-1.008l-0.6484-1.566h-3.02l-0.6367 1.566" fill="#231f1f"/>
<path d="m13.85 3.617c-0.1797-0.2773-0.5742-0.4844-0.9805-0.4844-0.8789 0-1.391 0.7188-1.391 1.539 0 0.8086 0.5117 1.539 1.402 1.539 0.4297 0 0.7969-0.1797 1.023-0.4688l0.5664 0.5156c-0.3594 0.4141-0.9102 0.6641-1.59 0.6641-1.312 0-2.293-0.8906-2.293-2.25 0-1.344 0.9688-2.25 2.273-2.25 0.6016 0 1.25 0.2422 1.602 0.6992l-0.6133 0.4961" fill="#231f1f"/>
<path d="m18.27 6.805c-0.01562-0.2148-0.03516-0.5234-0.03516-0.7031h-0.01953c-0.2148 0.4531-0.7695 0.8203-1.391 0.8203-1.098 0-1.594-0.7812-1.594-1.738v-2.645h0.8477v2.355c0 0.7031 0.1875 1.316 0.9688 1.316 0.6758 0 1.145-0.5586 1.145-1.402v-2.27h0.8438v3.348c0 0.2266 0.007813 0.6406 0.03516 0.918h-0.8008" fill="#231f1f"/>
<path d="m22.59 3.23h-1.133v2.223c0 0.5156 0.1797 0.7227 0.6016 0.7227 0.1523 0 0.3516-0.03516 0.4922-0.1094l0.03125 0.6953c-0.1992 0.07031-0.4609 0.1172-0.7227 0.1172-0.7969 0-1.238-0.4531-1.238-1.332v-2.316h-0.8203v-0.6914h0.8203v-1.227h0.8359v1.227h1.133v0.6914" fill="#231f1f"/>
<path d="m26.59 4.293c-0.01953-0.6758-0.4141-1.207-1.195-1.207-0.7266 0-1.285 0.543-1.34 1.207zm0.8438 0.6328h-3.379c0.02734 0.7266 0.6406 1.293 1.387 1.293 0.5742 0 0.9961-0.2852 1.238-0.6484l0.5938 0.4805c-0.457 0.5938-1.078 0.8711-1.832 0.8711-1.297 0-2.25-0.8984-2.25-2.242 0-1.332 0.9531-2.258 2.203-2.258 1.258 0 2.051 0.8555 2.051 2.215 0 0.08984 0 0.1875-0.01172 0.2891" fill="#231f1f"/>
<path d="m33.28 4.77c-0.8359 0-1.895 0.08984-1.895 0.8125 0 0.5039 0.4492 0.6641 0.8711 0.6641 0.7891 0 1.23-0.5312 1.23-1.25v-0.2266zm0.207-0.7305c0-0.6289-0.4219-0.9336-1.051-0.9336-0.4766 0-0.9258 0.207-1.215 0.4961l-0.4492-0.543c0.4141-0.3945 1.051-0.6367 1.746-0.6367 1.219 0 1.777 0.7266 1.777 1.672v1.867c0 0.2852 0.01953 0.6367 0.0625 0.8438h-0.7617c-0.04688-0.1875-0.07422-0.4141-0.07422-0.6133h-0.02734c-0.3047 0.4609-0.7891 0.7227-1.426 0.7227-0.6758 0-1.547-0.3359-1.547-1.316 0-1.285 1.527-1.441 2.965-1.441v-0.1172" fill="#231f1f"/>
<path d="m37.69 3.121c-0.9102 0-1.422 0.7305-1.422 1.539 0 0.8125 0.5117 1.551 1.422 1.551 0.9141 0 1.418-0.7383 1.418-1.551 0-0.8086-0.5039-1.539-1.418-1.539zm0 3.801c-1.305 0-2.293-0.9453-2.293-2.262 0-1.312 0.9883-2.238 2.293-2.238 1.301 0 2.301 0.9258 2.301 2.238 0 1.316-1 2.262-2.301 2.262" fill="#231f1f"/>
<path d="m41.21 2.539h0.8008c0.01562 0.2148 0.03516 0.5391 0.03516 0.7188h0.02734c0.2305-0.4961 0.7266-0.8359 1.301-0.8359 0.1172 0 0.2344 0.007813 0.332 0.03516l-0.03516 0.7812c-0.1055-0.02344-0.25-0.04297-0.3867-0.04297-0.8086 0-1.195 0.6562-1.195 1.367v2.242h-0.8438v-3.348c0-0.2266-0.007813-0.6406-0.03516-0.918" fill="#231f1f"/>
<path d="m46.56 3.23h-1.133v2.223c0 0.5156 0.1797 0.7227 0.6016 0.7227 0.1523 0 0.3516-0.03516 0.4961-0.1094l0.02734 0.6953c-0.1992 0.07031-0.4609 0.1172-0.7188 0.1172-0.8008 0-1.242-0.4531-1.242-1.332v-2.316h-0.8164v-0.6914h0.8164v-1.227h0.8359v1.227h1.133v0.6914" fill="#231f1f"/>
<path d="m48.3 6.805h-0.8438v-4.266h0.8438zm-0.4219-5.266c-0.3047 0-0.5547-0.2422-0.5547-0.543 0-0.3047 0.25-0.5469 0.5547-0.5469 0.3047 0 0.5664 0.2344 0.5664 0.5469 0 0.3086-0.2617 0.543-0.5664 0.543" fill="#231f1f"/>
<path d="m52.78 3.617c-0.1797-0.2773-0.5742-0.4844-0.9805-0.4844-0.8789 0-1.391 0.7188-1.391 1.539 0 0.8086 0.5117 1.539 1.402 1.539 0.4297 0 0.7969-0.1797 1.023-0.4688l0.5664 0.5156c-0.3594 0.4141-0.9062 0.6641-1.59 0.6641-1.312 0-2.293-0.8906-2.293-2.25 0-1.344 0.9688-2.25 2.273-2.25 0.6016 0 1.25 0.2422 1.602 0.6992l-0.6133 0.4961" fill="#231f1f"/>
<path d="m58.45 6.211c0.8633 0 1.438-0.7188 1.438-1.539s-0.5742-1.551-1.438-1.551c-0.9258 0-1.41 0.7383-1.41 1.539 0 0.8047 0.4844 1.551 1.41 1.551zm-0.1445 0.7109c-1.312 0-2.148-1.008-2.148-2.262 0-1.258 0.8633-2.238 2.141-2.238 0.6914 0 1.223 0.3398 1.52 0.7539h0.01953v-3.176h0.8438v6.805h-0.8203v-0.6758h-0.01562c-0.3242 0.5156-0.9336 0.793-1.539 0.793" fill="#231f1f"/>
<path d="m63.01 6.805h-0.8438v-4.266h0.8438zm-0.4219-5.266c-0.3047 0-0.5586-0.2422-0.5586-0.543 0-0.3047 0.2539-0.5469 0.5586-0.5469 0.3047 0 0.5664 0.2344 0.5664 0.5469 0 0.3086-0.2617 0.543-0.5664 0.543" fill="#231f1f"/>
<path d="m66.8 3.617c-0.1875-0.3047-0.5586-0.5312-0.9883-0.5312-0.3867 0-0.793 0.1523-0.793 0.5586 0 0.3594 0.3242 0.4961 0.9727 0.6406 0.8086 0.1797 1.43 0.5117 1.43 1.262 0 1.008-0.8359 1.375-1.699 1.375-0.6484 0-1.312-0.25-1.719-0.7656l0.6055-0.5117c0.2227 0.332 0.6562 0.5938 1.129 0.5938 0.4258 0 0.8477-0.1523 0.8477-0.6211 0-0.3945-0.3867-0.543-1.117-0.7109-0.5625-0.1367-1.238-0.3789-1.238-1.18 0-0.918 0.8008-1.305 1.609-1.305 0.6016 0 1.238 0.2422 1.547 0.6992l-0.5859 0.4961" fill="#231f1f"/>
<path d="m70.8 3.617c-0.1875-0.3047-0.5586-0.5312-0.9883-0.5312-0.3867 0-0.793 0.1523-0.793 0.5586 0 0.3594 0.3242 0.4961 0.9727 0.6406 0.8086 0.1797 1.43 0.5117 1.43 1.262 0 1.008-0.8359 1.375-1.699 1.375-0.6484 0-1.312-0.25-1.719-0.7656l0.6055-0.5117c0.2227 0.332 0.6562 0.5938 1.129 0.5938 0.4258 0 0.8477-0.1523 0.8477-0.6211 0-0.3945-0.3867-0.543-1.117-0.7109-0.5625-0.1367-1.238-0.3789-1.238-1.18 0-0.918 0.8008-1.305 1.609-1.305 0.6016 0 1.238 0.2422 1.547 0.6992l-0.5859 0.4961" fill="#231f1f"/>
<path d="m75.62 4.293c-0.01563-0.6758-0.4102-1.207-1.195-1.207-0.7266 0-1.285 0.543-1.336 1.207zm0.8477 0.6328h-3.379c0.02344 0.7266 0.6367 1.293 1.383 1.293 0.5742 0 0.9961-0.2852 1.238-0.6484l0.5938 0.4805c-0.457 0.5938-1.078 0.8711-1.832 0.8711-1.297 0-2.246-0.8984-2.246-2.242 0-1.332 0.9492-2.258 2.199-2.258 1.258 0 2.051 0.8555 2.051 2.215 0 0.08984 0 0.1875-0.007812 0.2891" fill="#231f1f"/>
<path d="m80.6 3.617c-0.1797-0.2773-0.5742-0.4844-0.9805-0.4844-0.8789 0-1.391 0.7188-1.391 1.539 0 0.8086 0.5117 1.539 1.402 1.539 0.4297 0 0.7969-0.1797 1.023-0.4688l0.5664 0.5156c-0.3594 0.4141-0.9102 0.6641-1.59 0.6641-1.312 0-2.293-0.8906-2.293-2.25 0-1.344 0.9688-2.25 2.273-2.25 0.6016 0 1.25 0.2422 1.602 0.6992l-0.6133 0.4961" fill="#231f1f"/>
<path d="m84.11 3.23h-1.133v2.223c0 0.5156 0.1797 0.7227 0.6016 0.7227 0.1523 0 0.3516-0.03516 0.4922-0.1094l0.02734 0.6953c-0.1953 0.07031-0.457 0.1172-0.7188 0.1172-0.7969 0-1.238-0.4531-1.238-1.332v-2.316h-0.8203v-0.6914h0.8203v-1.227h0.8359v1.227h1.133v0.6914" fill="#231f1f"/>
<path d="m85.85 6.805h-0.8438v-4.266h0.8438zm-0.4219-5.266c-0.3047 0-0.5586-0.2422-0.5586-0.543 0-0.3047 0.2539-0.5469 0.5586-0.5469 0.3047 0 0.5664 0.2344 0.5664 0.5469 0 0.3086-0.2617 0.543-0.5664 0.543" fill="#231f1f"/>
<path d="m89.35 3.121c-0.9062 0-1.418 0.7305-1.418 1.539 0 0.8125 0.5117 1.551 1.418 1.551 0.918 0 1.422-0.7383 1.422-1.551 0-0.8086-0.5039-1.539-1.422-1.539zm0 3.801c-1.301 0-2.289-0.9453-2.289-2.262 0-1.312 0.9883-2.238 2.289-2.238 1.305 0 2.305 0.9258 2.305 2.238 0 1.316-1 2.262-2.305 2.262" fill="#231f1f"/>
<path d="m93.68 2.539c0.01953 0.2148 0.03906 0.5195 0.03906 0.6992h0.02344c0.207-0.457 0.7734-0.8164 1.387-0.8164 1.094 0 1.59 0.7812 1.59 1.734v2.648h-0.8438v-2.367c0-0.6953-0.1914-1.305-0.9727-1.305-0.6641 0-1.141 0.5586-1.141 1.402v2.27h-0.8438v-3.348c0-0.2266-0.007812-0.6406-0.03516-0.918h0.7969" fill="#231f1f"/>
<path d="m3.18 269.6h0.9414c0.8711 0 1.484-0.2891 1.484-1.047 0-0.7656-0.6289-1.016-1.465-1.016h-0.9609zm-0.8906-2.82h1.941c1.375 0 2.273 0.5312 2.273 1.773 0 1.281-0.9961 1.801-2.32 1.801h-1.004v2.801h-0.8906v-6.375" fill="#231f1f"/>
<path d="m10.75 270.7c-0.01953-0.6758-0.4141-1.207-1.195-1.207-0.7266 0-1.285 0.5391-1.34 1.207zm0.8438 0.6289h-3.379c0.02734 0.7305 0.6406 1.297 1.387 1.297 0.5742 0 0.9961-0.2852 1.238-0.6484l0.5938 0.4766c-0.457 0.5977-1.078 0.875-1.832 0.875-1.297 0-2.25-0.8984-2.25-2.242 0-1.332 0.9531-2.258 2.203-2.258 1.258 0 2.051 0.8555 2.051 2.215 0 0.08984 0 0.1875-0.01172 0.2852" fill="#231f1f"/>
<path d="m13.51 268.9c0.01563 0.2148 0.03516 0.5195 0.03516 0.6992h0.02734c0.207-0.457 0.7734-0.8164 1.383-0.8164 1.098 0 1.59 0.7812 1.59 1.734v2.648h-0.8438v-2.367c0-0.6953-0.1875-1.305-0.9727-1.305-0.6641 0-1.141 0.5586-1.141 1.402v2.27h-0.8438v-3.348c0-0.2266-0.007813-0.6406-0.03516-0.918h0.8008" fill="#231f1f"/>
<path d="m21.09 270.7c-0.01953-0.6758-0.4141-1.207-1.195-1.207-0.7305 0-1.285 0.5391-1.34 1.207zm0.8438 0.6289h-3.379c0.02734 0.7305 0.6367 1.297 1.383 1.297 0.5781 0 1-0.2852 1.242-0.6484l0.5938 0.4766c-0.4609 0.5977-1.078 0.875-1.836 0.875-1.293 0-2.246-0.8984-2.246-2.242 0-1.332 0.9531-2.258 2.203-2.258 1.258 0 2.047 0.8555 2.047 2.215 0 0.08984 0 0.1875-0.007812 0.2852" fill="#231f1f"/>
<path d="m25.17 269.6h-1.129v2.223c0 0.5156 0.1797 0.7227 0.6016 0.7227 0.1523 0 0.3477-0.03516 0.4922-0.1094l0.02734 0.6914c-0.1992 0.07422-0.457 0.1172-0.7188 0.1172-0.8008 0-1.238-0.4492-1.238-1.332v-2.312h-0.8203v-0.6914h0.8203v-1.227h0.8359v1.227h1.129v0.6914" fill="#231f1f"/>
<path d="m26.03 268.9h0.8008c0.01562 0.2148 0.03516 0.5391 0.03516 0.7188h0.02734c0.2344-0.4961 0.7266-0.8359 1.305-0.8359 0.1133 0 0.2305 0.007813 0.332 0.03516l-0.03516 0.7812c-0.1094-0.02734-0.2539-0.04297-0.3867-0.04297-0.8086 0-1.195 0.6562-1.195 1.367v2.242h-0.8477v-3.348c0-0.2266-0.007812-0.6406-0.03516-0.918" fill="#231f1f"/>
<path d="m31.73 271.1c-0.8359 0-1.895 0.08984-1.895 0.8086 0 0.5078 0.4492 0.668 0.8711 0.668 0.793 0 1.23-0.5312 1.23-1.25v-0.2266zm0.207-0.7305c0-0.6289-0.4219-0.9336-1.051-0.9336-0.4766 0-0.9258 0.207-1.215 0.4961l-0.4492-0.543c0.4141-0.3945 1.055-0.6367 1.746-0.6367 1.223 0 1.777 0.7266 1.777 1.672v1.863c0 0.2891 0.01953 0.6406 0.0625 0.8477h-0.7617c-0.04688-0.1875-0.07422-0.4141-0.07422-0.6133h-0.02344c-0.3086 0.4609-0.793 0.7227-1.43 0.7227-0.6758 0-1.547-0.3359-1.547-1.316 0-1.285 1.527-1.441 2.965-1.441v-0.1172" fill="#231f1f"/>
<path d="m36.25 269.6h-1.129v2.223c0 0.5156 0.1797 0.7227 0.6016 0.7227 0.1523 0 0.3516-0.03516 0.4922-0.1094l0.02734 0.6914c-0.1992 0.07422-0.457 0.1172-0.7188 0.1172-0.8008 0-1.238-0.4492-1.238-1.332v-2.312h-0.8203v-0.6914h0.8203v-1.227h0.8359v1.227h1.129v0.6914" fill="#231f1f"/>
<path d="m37.99 273.2h-0.8438v-4.266h0.8438zm-0.4219-5.266c-0.3047 0-0.5586-0.2461-0.5586-0.543 0-0.3047 0.2539-0.5469 0.5586-0.5469 0.3047 0 0.5664 0.2344 0.5664 0.5469 0 0.3086-0.2617 0.543-0.5664 0.543" fill="#231f1f"/>
<path d="m40.25 268.9c0.01953 0.2148 0.03906 0.5195 0.03906 0.6992h0.02734c0.207-0.457 0.7734-0.8164 1.383-0.8164 1.098 0 1.59 0.7812 1.59 1.734v2.648h-0.8438v-2.367c0-0.6953-0.1875-1.305-0.9727-1.305-0.6641 0-1.141 0.5586-1.141 1.402v2.27h-0.8438v-3.348c0-0.2266-0.007813-0.6406-0.03516-0.918h0.7969" fill="#231f1f"/>
<path d="m46.72 272.5c0.8711 0 1.449-0.6562 1.449-1.504 0-0.8086-0.5859-1.504-1.449-1.504-0.8867 0-1.41 0.6875-1.41 1.504 0 0.7852 0.5234 1.504 1.41 1.504zm-1.672 1.406c0.3711 0.4141 0.9727 0.6914 1.555 0.6914 1.125 0 1.504-0.6914 1.504-1.574v-0.5508h-0.01953c-0.3125 0.4766-0.8984 0.7383-1.5 0.7383-1.305 0-2.148-0.9727-2.148-2.195 0-1.227 0.8359-2.223 2.141-2.223 0.6094 0 1.211 0.2695 1.535 0.8008h0.01953v-0.6836h0.8164v4.051c0 1.242-0.5859 2.375-2.355 2.375-0.7383 0-1.555-0.2891-2.086-0.7734l0.5391-0.6562" fill="#231f1f"/>
<path d="m55.09 271.1c-0.8359 0-1.898 0.08984-1.898 0.8086 0 0.5078 0.4492 0.668 0.8711 0.668 0.793 0 1.23-0.5312 1.23-1.25v-0.2266zm0.2031-0.7305c0-0.6289-0.4219-0.9336-1.051-0.9336-0.4766 0-0.9258 0.207-1.211 0.4961l-0.4492-0.543c0.4102-0.3945 1.051-0.6367 1.742-0.6367 1.223 0 1.781 0.7266 1.781 1.672v1.863c0 0.2891 0.01562 0.6406 0.0625 0.8477h-0.7656c-0.04297-0.1875-0.07031-0.4141-0.07031-0.6133h-0.02734c-0.3047 0.4609-0.793 0.7227-1.43 0.7227-0.6758 0-1.547-0.3359-1.547-1.316 0-1.285 1.527-1.441 2.965-1.441v-0.1172" fill="#231f1f"/>
<path d="m59.57 269.6h-1.133v2.223c0 0.5156 0.1797 0.7227 0.6016 0.7227 0.1523 0 0.3516-0.03516 0.4922-0.1094l0.02734 0.6914c-0.1953 0.07422-0.457 0.1172-0.7188 0.1172-0.8008 0-1.238-0.4492-1.238-1.332v-2.312h-0.8203v-0.6914h0.8203v-1.227h0.8359v1.227h1.133v0.6914" fill="#231f1f"/>
<path d="m61.34 269.6c0.1953-0.4258 0.7383-0.7656 1.348-0.7656 1.098 0 1.59 0.7812 1.59 1.734v2.648h-0.8438v-2.359c0-0.6914-0.1797-1.305-0.9609-1.305-0.6641 0-1.152 0.5586-1.152 1.402v2.262h-0.8438v-6.805h0.8438v3.188h0.01953" fill="#231f1f"/>
<path d="m68.82 270.7c-0.01953-0.6758-0.4141-1.207-1.195-1.207-0.7305 0-1.285 0.5391-1.34 1.207zm0.8438 0.6289h-3.379c0.02734 0.7305 0.6367 1.297 1.383 1.297 0.5742 0 1-0.2852 1.242-0.6484l0.5938 0.4766c-0.4609 0.5977-1.082 0.875-1.836 0.875-1.293 0-2.246-0.8984-2.246-2.242 0-1.332 0.9531-2.258 2.203-2.258 1.258 0 2.047 0.8555 2.047 2.215 0 0.08984 0 0.1875-0.007812 0.2852" fill="#231f1f"/>
<path d="m70.78 268.9h0.8008c0.01953 0.2148 0.03516 0.5391 0.03516 0.7188h0.02734c0.2344-0.4961 0.7305-0.8359 1.305-0.8359 0.1172 0 0.2344 0.007813 0.332 0.03516l-0.03516 0.7812c-0.1094-0.02734-0.2539-0.04297-0.3867-0.04297-0.8086 0-1.195 0.6562-1.195 1.367v2.242h-0.8438v-3.348c0-0.2266-0.01172-0.6406-0.03906-0.918" fill="#231f1f"/>
<path d="m76.06 269.5c-0.9062 0-1.418 0.7305-1.418 1.539 0 0.8125 0.5117 1.551 1.418 1.551 0.918 0 1.422-0.7383 1.422-1.551 0-0.8086-0.5039-1.539-1.422-1.539zm0 3.801c-1.301 0-2.289-0.9453-2.289-2.262 0-1.312 0.9883-2.238 2.289-2.238 1.305 0 2.301 0.9258 2.301 2.238 0 1.316-0.9961 2.262-2.301 2.262" fill="#231f1f"/>
<path d="m81.83 270c-0.1914-0.3047-0.5586-0.5312-0.9922-0.5312-0.3828 0-0.7891 0.1523-0.7891 0.5586 0 0.3594 0.3242 0.4961 0.9688 0.6406 0.8125 0.1797 1.43 0.5117 1.43 1.258 0 1.008-0.8359 1.379-1.699 1.379-0.6445 0-1.309-0.2539-1.715-0.7656l0.6016-0.5117c0.2266 0.332 0.6562 0.5938 1.133 0.5938 0.4219 0 0.8438-0.1523 0.8438-0.6211 0-0.3984-0.3867-0.543-1.113-0.7109-0.5664-0.1367-1.238-0.3789-1.238-1.18 0-0.918 0.7969-1.305 1.605-1.305 0.6016 0 1.242 0.2422 1.547 0.6992l-0.582 0.4961" fill="#231f1f"/>
<path d="m86.51 270c-0.1797-0.2773-0.5742-0.4844-0.9805-0.4844-0.8789 0-1.391 0.7188-1.391 1.539 0 0.8086 0.5117 1.539 1.402 1.539 0.4297 0 0.8008-0.1797 1.023-0.4688l0.5664 0.5117c-0.3594 0.4141-0.9062 0.668-1.59 0.668-1.312 0-2.293-0.8906-2.293-2.25 0-1.344 0.9727-2.25 2.273-2.25 0.6016 0 1.25 0.2422 1.602 0.6992l-0.6133 0.4961" fill="#231f1f"/>
<path d="m88.8 273.2h-0.8438v-6.805h0.8438v6.805" fill="#231f1f"/>
<path d="m93.5 270.7c-0.01562-0.6758-0.4102-1.207-1.195-1.207-0.7266 0-1.285 0.5391-1.336 1.207zm0.8477 0.6289h-3.379c0.02344 0.7305 0.6367 1.297 1.383 1.297 0.5742 0 0.9961-0.2852 1.238-0.6484l0.5938 0.4766c-0.457 0.5977-1.078 0.875-1.832 0.875-1.297 0-2.246-0.8984-2.246-2.242 0-1.332 0.9492-2.258 2.199-2.258 1.258 0 2.051 0.8555 2.051 2.215 0 0.08984 0 0.1875-0.007812 0.2852" fill="#231f1f"/>
<path d="m95.55 268.9h0.8008c0.01562 0.2148 0.03516 0.5391 0.03516 0.7188h0.02734c0.2344-0.4961 0.7266-0.8359 1.305-0.8359 0.1172 0 0.2305 0.007813 0.332 0.03516l-0.03516 0.7812c-0.1094-0.02734-0.2539-0.04297-0.3867-0.04297-0.8086 0-1.195 0.6562-1.195 1.367v2.242h-0.8477v-3.348c0-0.2266-0.007812-0.6406-0.03516-0.918" fill="#231f1f"/>
<path d="m100.8 269.5c-0.9102 0-1.422 0.7305-1.422 1.539 0 0.8125 0.5117 1.551 1.422 1.551 0.9141 0 1.418-0.7383 1.418-1.551 0-0.8086-0.5039-1.539-1.418-1.539zm0 3.801c-1.305 0-2.293-0.9453-2.293-2.262 0-1.312 0.9883-2.238 2.293-2.238 1.301 0 2.301 0.9258 2.301 2.238 0 1.316-1 2.262-2.301 2.262" fill="#231f1f"/>
<path d="m106.4 269.6h-1.133v2.223c0 0.5156 0.1797 0.7227 0.6016 0.7227 0.1523 0 0.3516-0.03516 0.4961-0.1094l0.02344 0.6914c-0.1953 0.07422-0.457 0.1172-0.7188 0.1172-0.7969 0-1.238-0.4492-1.238-1.332v-2.312h-0.8164v-0.6914h0.8164v-1.227h0.8359v1.227h1.133v0.6914" fill="#231f1f"/>
<path d="m108.1 273.2h-0.8438v-4.266h0.8438zm-0.4219-5.266c-0.3047 0-0.5586-0.2461-0.5586-0.543 0-0.3047 0.2539-0.5469 0.5586-0.5469 0.3047 0 0.5664 0.2344 0.5664 0.5469 0 0.3086-0.2617 0.543-0.5664 0.543" fill="#231f1f"/>
<path d="m112.6 270c-0.1797-0.2773-0.5742-0.4844-0.9805-0.4844-0.8789 0-1.391 0.7188-1.391 1.539 0 0.8086 0.5117 1.539 1.402 1.539 0.4297 0 0.8008-0.1797 1.023-0.4688l0.5664 0.5117c-0.3594 0.4141-0.9062 0.668-1.59 0.668-1.312 0-2.293-0.8906-2.293-2.25 0-1.344 0.9688-2.25 2.273-2.25 0.6016 0 1.25 0.2422 1.602 0.6992l-0.6133 0.4961" fill="#231f1f"/>
<path d="m119.3 273.2c-0.01953-0.2148-0.03906-0.5234-0.03906-0.7031h-0.01562c-0.2188 0.4492-0.7734 0.8203-1.395 0.8203-1.098 0-1.59-0.7812-1.59-1.738v-2.645h0.8438v2.355c0 0.7031 0.1875 1.316 0.9727 1.316 0.6719 0 1.141-0.5586 1.141-1.406v-2.266h0.8438v3.348c0 0.2266 0.007812 0.6406 0.03516 0.918h-0.7969" fill="#231f1f"/>
<path d="m122.4 273.2h-0.8438v-6.805h0.8438v6.805" fill="#231f1f"/>
<path d="m126.8 270c-0.1797-0.2773-0.5742-0.4844-0.9805-0.4844-0.8789 0-1.391 0.7188-1.391 1.539 0 0.8086 0.5117 1.539 1.402 1.539 0.4297 0 0.7969-0.1797 1.023-0.4688l0.5664 0.5117c-0.3594 0.4141-0.9062 0.668-1.59 0.668-1.312 0-2.293-0.8906-2.293-2.25 0-1.344 0.9727-2.25 2.273-2.25 0.6016 0 1.25 0.2422 1.602 0.6992l-0.6133 0.4961" fill="#231f1f"/>
<path d="m131.4 270.7c-0.01562-0.6758-0.4141-1.207-1.195-1.207-0.7266 0-1.285 0.5391-1.34 1.207zm0.8477 0.6289h-3.383c0.02734 0.7305 0.6406 1.297 1.387 1.297 0.5742 0 0.9961-0.2852 1.238-0.6484l0.5938 0.4766c-0.457 0.5977-1.078 0.875-1.832 0.875-1.297 0-2.25-0.8984-2.25-2.242 0-1.332 0.9531-2.258 2.203-2.258 1.258 0 2.051 0.8555 2.051 2.215 0 0.08984 0 0.1875-0.007813 0.2852" fill="#231f1f"/>
<g clip-path="url(#a)">
<path d="m133.3 268.9h0.8008c0.01562 0.2148 0.03516 0.5391 0.03516 0.7188h0.02734c0.2344-0.4961 0.7266-0.8359 1.305-0.8359 0.1133 0 0.2305 0.007813 0.332 0.03516l-0.03906 0.7812c-0.1055-0.02734-0.25-0.04297-0.3867-0.04297-0.8086 0-1.191 0.6562-1.191 1.367v2.242h-0.8477v-3.348c0-0.2266-0.007813-0.6406-0.03516-0.918" fill="#231f1f"/>
</g>
</svg>
