<?xml version="1.0" encoding="UTF-8"?>
<svg width="231.6pt" height="229pt" version="1.1" viewBox="0 0 231.6 229" xmlns="http://www.w3.org/2000/svg">
<defs>
<clipPath id="d">
<path d="m150 223h4v6.012h-4z"/>
</clipPath>
<clipPath id="c">
<path d="m154 223h4v6.012h-4z"/>
</clipPath>
<clipPath id="b">
<path d="m229 77h2.648v4h-2.648z"/>
</clipPath>
<clipPath id="a">
<path d="m228 175h3.648v4h-3.648z"/>
</clipPath>
</defs>
<path transform="matrix(.1 0 0 -.1 0 229)" d="m10 2285v-2200" fill="none" stroke="#1d1b1a" stroke-linecap="square" stroke-linejoin="round" stroke-miterlimit="10" stroke-width="10"/>
<path transform="matrix(.1 0 0 -.1 0 229)" d="m10 133.5h2039" fill="none" stroke="#1d1b1a" stroke-linecap="square" stroke-linejoin="round" stroke-miterlimit="10" stroke-width="10"/>
<path transform="matrix(.1 0 0 -.1 0 229)" d="m519.8 133.5v-50.04" fill="none" stroke="#1d1b1a" stroke-linejoin="round" stroke-miterlimit="10" stroke-width="10"/>
<path transform="matrix(.1 0 0 -.1 0 229)" d="m1030 133.5v-50.04" fill="none" stroke="#1d1b1a" stroke-linejoin="round" stroke-miterlimit="10" stroke-width="10"/>
<path transform="matrix(.1 0 0 -.1 0 229)" d="m1540 133.5v-50.08" fill="none" stroke="#1d1b1a" stroke-linejoin="round" stroke-miterlimit="10" stroke-width="10"/>
<path transform="matrix(.1 0 0 -.1 0 229)" d="m2049 133.5v-50.08" fill="none" stroke="#1d1b1a" stroke-linecap="square" stroke-linejoin="round" stroke-miterlimit="10" stroke-width="10"/>
<path d="m50.47 228.3h-0.6758v-4.133l-0.9414 0.7852-0.3984-0.4688 1.406-1.141h0.6094v4.957" fill="#191817"/>
<path d="m53.07 225.9c0 0.8398 0.1836 2.031 1.004 2.031 0.8047 0 0.9922-1.191 0.9922-2.031 0-0.8359-0.1875-2.039-0.9922-2.039-0.8203 0-1.004 1.203-1.004 2.039zm2.691 0c0 1.449-0.5117 2.602-1.688 2.602-1.184 0-1.695-1.152-1.695-2.602 0-1.445 0.5117-2.605 1.695-2.605 1.176 0 1.688 1.16 1.688 2.605" fill="#191817"/>
<path d="m102.5 228.3h-3.234v-0.6523l1.973-1.961c0.3047-0.3086 0.5469-0.6289 0.5469-1.051 0-0.5156-0.3906-0.8516-0.8828-0.8516-0.5039 0-0.8477 0.3633-0.9297 0.8594l-0.6641-0.1133c0.1172-0.7539 0.7539-1.316 1.602-1.316 0.8281 0 1.57 0.4844 1.57 1.41 0 0.6367-0.3633 1.07-0.8008 1.496l-1.609 1.57h2.43v0.6094" fill="#191817"/>
<path d="m104.1 225.9c0 0.8438 0.1836 2.031 1.004 2.031 0.8047 0 0.9922-1.188 0.9922-2.031 0-0.832-0.1875-2.035-0.9922-2.035-0.8203 0-1.004 1.203-1.004 2.035zm2.691 0c0 1.453-0.5117 2.605-1.688 2.605-1.184 0-1.695-1.152-1.695-2.605 0-1.441 0.5117-2.605 1.695-2.605 1.176 0 1.688 1.164 1.688 2.605" fill="#191817"/>
<g clip-path="url(#d)">
<path d="m151.5 226h0.2188c0.5664 0 1.105-0.1875 1.105-0.8242 0-0.5-0.4062-0.8203-0.875-0.8203-0.4141 0-0.7227 0.2305-0.8711 0.6094l-0.6133-0.2188c0.2461-0.5938 0.8125-0.957 1.512-0.957 0.8281 0 1.527 0.4688 1.527 1.344 0 0.5547-0.3633 0.9961-0.875 1.129v0.01172c0.582 0.1211 1.008 0.5742 1.008 1.211 0 0.9883-0.8125 1.516-1.66 1.516-0.7852 0-1.414-0.3516-1.688-1.094l0.6289-0.2109c0.1484 0.4297 0.5273 0.7305 1.043 0.7305 0.5 0 0.9961-0.3164 0.9961-0.9453 0-0.6953-0.6602-0.918-1.246-0.918h-0.2109v-0.5625" fill="#191817"/>
</g>
<g clip-path="url(#c)">
<path d="m155.3 226.4c0 0.8398 0.1836 2.031 1.004 2.031 0.8047 0 0.9922-1.191 0.9922-2.031 0-0.8359-0.1875-2.039-0.9922-2.039-0.8203 0-1.004 1.203-1.004 2.039zm2.691 0c0 1.449-0.5117 2.605-1.688 2.605-1.184 0-1.695-1.156-1.695-2.605 0-1.445 0.5117-2.605 1.695-2.605 1.176 0 1.688 1.16 1.688 2.605" fill="#191817"/>
</g>
<path d="m2.117 227.3h0.01172l1.164-3.949h0.7617l1.156 3.949h0.01562l1.09-3.949h0.7383l-1.457 4.957h-0.7227l-1.203-3.984h-0.01562l-1.203 3.984h-0.7227l-1.457-4.957h0.75l1.094 3.949" fill="#191817"/>
<path d="m9.992 226.4c-0.01563-0.5234-0.3242-0.9375-0.9336-0.9375-0.5664 0-1 0.418-1.043 0.9375zm0.6562 0.4922h-2.633c0.02344 0.5664 0.4961 1.008 1.078 1.008 0.4492 0 0.7773-0.2266 0.9688-0.5039l0.4609 0.3711c-0.3555 0.4609-0.8398 0.6797-1.43 0.6797-1.008 0-1.75-0.7031-1.75-1.746 0-1.035 0.7422-1.758 1.715-1.758 0.9805 0 1.598 0.668 1.598 1.723 0 0.07031 0 0.1484-0.007812 0.2266" fill="#191817"/>
<path d="m14 226.4c-0.01562-0.5234-0.3242-0.9375-0.9336-0.9375-0.5664 0-1 0.418-1.043 0.9375zm0.6562 0.4922h-2.633c0.01953 0.5664 0.4961 1.008 1.078 1.008 0.4492 0 0.7773-0.2266 0.9688-0.5039l0.4609 0.3711c-0.3594 0.4609-0.8398 0.6797-1.43 0.6797-1.008 0-1.75-0.7031-1.75-1.746 0-1.035 0.7422-1.758 1.715-1.758 0.9805 0 1.598 0.668 1.598 1.723 0 0.07031 0 0.1484-0.007813 0.2266" fill="#191817"/>
<path d="m16.25 226.5h0.02344l1.391-1.441h0.8828l-1.555 1.504 1.688 1.812h-0.9102l-1.496-1.723h-0.02344v1.723h-0.6562v-5.293h0.6562v3.418" fill="#191817"/>
<path d="m211.1 53.81h-0.6953v-4.348h-1.59v-0.6133h3.871v0.6133h-1.586v4.348" fill="#191817"/>
<path d="m214 53.22h0.8672c0.5898 0 1.234-0.1797 1.234-0.8555 0-0.5781-0.4141-0.832-1.172-0.832h-0.9297zm0-2.277h0.9023c0.5352 0 0.9766-0.2305 0.9766-0.7695 0-0.5312-0.4297-0.7422-1.09-0.7422h-0.7891zm-0.6914-2.094h1.707c0.75 0 1.555 0.3086 1.555 1.254 0 0.5469-0.3516 0.9414-0.8672 1.078v0.01562c0.6367 0.07813 1.098 0.5117 1.098 1.203 0 0.9531-0.8242 1.41-1.863 1.41h-1.629v-4.961" fill="#191817"/>
<path d="m221.5 49.87c-0.293-0.3203-0.7773-0.5391-1.344-0.5391-1.164 0-1.891 0.9023-1.891 1.988 0 1.109 0.7266 1.992 1.914 1.992 0.4609 0 0.8672-0.09375 1.152-0.2461v-1.379h-1.098v-0.5898h1.785v2.402c-0.5195 0.2812-1.133 0.4336-1.863 0.4336-1.547 0-2.648-1.086-2.648-2.613 0-1.547 1.137-2.598 2.641-2.598 0.7852 0 1.43 0.2539 1.836 0.6445l-0.4844 0.5039" fill="#191817"/>
<path d="m211.1 77.88h-0.6953v-4.352h-1.59v-0.6094h3.871v0.6094h-1.586v4.352" fill="#191817"/>
<path d="m214.7 75.01c-0.707 0-1.105 0.5664-1.105 1.199 0 0.6289 0.3984 1.203 1.105 1.203 0.7148 0 1.109-0.5742 1.109-1.203 0-0.6328-0.3945-1.199-1.109-1.199zm0 2.957c-1.016 0-1.785-0.7383-1.785-1.758 0-1.023 0.7695-1.746 1.785-1.746 1.016 0 1.797 0.7227 1.797 1.746 0 1.02-0.7812 1.758-1.797 1.758" fill="#191817"/>
<path d="m218.8 75.1h-0.8828v1.727c0 0.4023 0.1406 0.5625 0.4688 0.5625 0.1211 0 0.2734-0.02734 0.3867-0.08203l0.01953 0.5391c-0.1523 0.05469-0.3555 0.08984-0.5586 0.08984-0.625 0-0.9688-0.3516-0.9688-1.039v-1.797h-0.6367v-0.5391h0.6367v-0.9531h0.6523v0.9531h0.8828v0.5391" fill="#191817"/>
<path d="m221.2 76.29c-0.6484 0-1.477 0.07031-1.477 0.6328 0 0.3906 0.3516 0.5156 0.6797 0.5156 0.6172 0 0.9609-0.4141 0.9609-0.9727v-0.1758zm0.1641-0.5664c0-0.4922-0.332-0.7266-0.8203-0.7266-0.3711 0-0.7227 0.1602-0.9453 0.3828l-0.3516-0.418c0.3242-0.3086 0.8203-0.5 1.359-0.5 0.9531 0 1.387 0.5664 1.387 1.305v1.449c0 0.2227 0.01562 0.4961 0.05078 0.6602h-0.5977c-0.03516-0.1484-0.05469-0.3242-0.05469-0.4766h-0.01953c-0.2422 0.3555-0.6172 0.5586-1.117 0.5586-0.5234 0-1.203-0.2578-1.203-1.023 0-1 1.191-1.121 2.312-1.121v-0.08984" fill="#191817"/>
<path d="m223.6 77.88h-0.6562v-5.297h0.6562v5.297" fill="#191817"/>
<path d="m227.9 77.88h-0.6914v-4.352h-1.59v-0.6094h3.871v0.6094h-1.59v4.352" fill="#191817"/>
<g clip-path="url(#b)">
<path d="m230.9 77.78h-0.01172l-0.9102 1.445h0.9219zm0.3789 1.445h0.418v0.3359h-0.418v0.6484h-0.3789v-0.6484h-1.332v-0.3555l1.23-1.879h0.4805v1.898" fill="#191817"/>
</g>
<path d="m209.3 180.5h0.6914v2.074h2.508v-2.074h0.7031v4.961h-0.7031v-2.27h-2.508v2.27h-0.6914v-4.961" fill="#191817"/>
<path d="m218.7 184.7c-0.3867 0.5234-1.023 0.8945-1.895 0.8945-1.52 0-2.609-1.086-2.609-2.613 0-1.547 1.133-2.598 2.641-2.598 0.6758 0 1.414 0.2656 1.777 0.7695l-0.5469 0.4219c-0.2383-0.3359-0.7227-0.582-1.23-0.582-1.152 0-1.887 0.9023-1.887 1.988 0 1.113 0.7227 1.996 1.863 1.996 0.5547 0 1.039-0.2305 1.332-0.6562l0.5547 0.3789" fill="#191817"/>
<path d="m223.1 181.6c-0.293-0.3203-0.7773-0.5391-1.344-0.5391-1.164 0-1.891 0.9023-1.891 1.988 0 1.105 0.7266 1.988 1.914 1.988 0.4609 0 0.8672-0.08984 1.152-0.2422v-1.383h-1.098v-0.5859h1.785v2.402c-0.5195 0.2812-1.133 0.4336-1.863 0.4336-1.547 0-2.648-1.086-2.648-2.613 0-1.547 1.137-2.598 2.641-2.598 0.7852 0 1.43 0.25 1.836 0.6445l-0.4844 0.5039" fill="#191817"/>
<path d="m210 176.3h-0.6953v-4.961h3.094v0.6094h-2.398v1.543h2.246v0.5938h-2.246v2.215" fill="#191817"/>
<path d="m213.2 173h0.6211c0.01562 0.168 0.02734 0.418 0.02734 0.5586h0.02344c0.1797-0.3828 0.5664-0.6484 1.016-0.6484 0.08984 0 0.1797 0.003907 0.2578 0.02734l-0.02734 0.6094c-0.08594-0.02344-0.1953-0.03516-0.3008-0.03516-0.6289 0-0.9336 0.5117-0.9336 1.062v1.746h-0.6562v-2.605c0-0.1758-0.007813-0.5-0.02734-0.7148" fill="#191817"/>
<path d="m218.2 174.3c-0.01562-0.5234-0.3242-0.9375-0.9336-0.9375-0.5664 0-1 0.4219-1.043 0.9375zm0.6562 0.4922h-2.633c0.01953 0.5664 0.5 1.008 1.078 1.008 0.4492 0 0.7773-0.2227 0.9688-0.5039l0.4609 0.3711c-0.3594 0.4609-0.8398 0.6797-1.43 0.6797-1.008 0-1.75-0.6992-1.75-1.746 0-1.035 0.7422-1.754 1.715-1.754 0.9805 0 1.598 0.6641 1.598 1.719 0 0.07422 0 0.1484-0.007812 0.2266" fill="#191817"/>
<path d="m222.2 174.3c-0.01172-0.5234-0.3203-0.9375-0.9297-0.9375-0.5664 0-1 0.4219-1.043 0.9375zm0.6602 0.4922h-2.633c0.01953 0.5664 0.4961 1.008 1.078 1.008 0.4492 0 0.7773-0.2227 0.9688-0.5039l0.4609 0.3711c-0.3594 0.4609-0.8398 0.6797-1.43 0.6797-1.008 0-1.75-0.6992-1.75-1.746 0-1.035 0.7422-1.754 1.715-1.754 0.9805 0 1.598 0.6641 1.598 1.719 0 0.07422 0 0.1484-0.007812 0.2266" fill="#191817"/>
<path d="m227.2 176.3h-0.6953v-4.352h-1.59v-0.6094h3.875v0.6094h-1.59v4.352" fill="#191817"/>
<g clip-path="url(#a)">
<path d="m230.3 176.2h-0.007812l-0.9141 1.445h0.9219zm0.3828 1.445h0.4141v0.3359h-0.4141v0.6484h-0.3828v-0.6484h-1.328v-0.3555l1.227-1.879h0.4844v1.898" fill="#191817"/>
</g>
<path d="m211.1 167.4h-0.6914v-4.352h-1.59v-0.6094h3.871v0.6094h-1.59v4.352" fill="#191817"/>
<path d="m215.8 163.4c-0.1992-0.2734-0.5547-0.4609-0.9688-0.4609-0.4492 0-0.9648 0.2461-0.9648 0.8047 0 0.5391 0.4531 0.6875 1.016 0.8672 0.6641 0.2109 1.457 0.4648 1.457 1.449 0 1.031-0.8359 1.508-1.719 1.508-0.6211 0-1.254-0.2461-1.629-0.7227l0.5391-0.4531c0.2305 0.3438 0.6484 0.582 1.105 0.582 0.4609 0 0.9922-0.2617 0.9922-0.8477 0-0.6055-0.543-0.7656-1.176-0.9609-0.6289-0.1953-1.289-0.4844-1.289-1.395 0-0.9883 0.8828-1.414 1.703-1.414 0.5742 0 1.113 0.2227 1.422 0.5664l-0.4883 0.4766" fill="#191817"/>
<path d="m217.3 162.5h0.6914v2.074h2.508v-2.074h0.7031v4.961h-0.7031v-2.27h-2.508v2.27h-0.6914v-4.961" fill="#191817"/>
<path d="m203.3 224.2h-0.01562l-1.57 2.484h1.586zm0.6562 2.484h0.7148v0.582h-0.7148v1.113h-0.6562v-1.113h-2.285v-0.6133l2.109-3.23h0.832v3.262" fill="#191817"/>
<path d="m206 225.9c0 0.8398 0.1836 2.031 1 2.031 0.8086 0 0.9961-1.191 0.9961-2.031 0-0.8359-0.1875-2.039-0.9961-2.039-0.8164 0-1 1.203-1 2.039zm2.688 0c0 1.449-0.5117 2.602-1.688 2.602-1.184 0-1.695-1.152-1.695-2.602 0-1.445 0.5117-2.605 1.695-2.605 1.176 0 1.688 1.16 1.688 2.605" fill="#191817"/>
<path transform="matrix(.1 0 0 -.1 0 229)" d="m519.8 133.5v2152" fill="none" stroke="#1d1b1a" stroke-dasharray="20,20" stroke-linecap="square" stroke-linejoin="round" stroke-miterlimit="10" stroke-width="5"/>
<path transform="matrix(.1 0 0 -.1 0 229)" d="m1030 133.5v2152" fill="none" stroke="#1d1b1a" stroke-dasharray="20,20" stroke-linecap="square" stroke-linejoin="round" stroke-miterlimit="10" stroke-width="5"/>
<path transform="matrix(.1 0 0 -.1 0 229)" d="m1540 133.5v2152" fill="none" stroke="#1d1b1a" stroke-dasharray="20,20" stroke-linecap="square" stroke-linejoin="round" stroke-miterlimit="10" stroke-width="5"/>
<path transform="matrix(.1 0 0 -.1 0 229)" d="m2049 133.5v2152" fill="none" stroke="#1d1b1a" stroke-dasharray="20,20" stroke-linecap="square" stroke-linejoin="round" stroke-miterlimit="10" stroke-width="5"/>
<path transform="matrix(.1 0 0 -.1 0 229)" d="m10 694.9c40.27 90.08 132.4 294.2 190.7 385.8 58.4 91.6 134.9 208.4 211.4 277.8 76.48 69.45 144.9 105.7 247.6 138.9 102.7 33.2 195.3 50.31 368.4 60.39 173.1 10.04 479.1 3.008 670.4 0 191.2-3.047 207.9-10.04 350.9-17.58" fill="none" stroke="#ed2222" stroke-linecap="round" stroke-linejoin="round" stroke-miterlimit="10" stroke-width="20"/>
<path transform="matrix(.1 0 0 -.1 0 229)" d="m39.45 133.5c57.34 264.7 137.1 625.1 185.4 778.1 48.36 153 81.56 190.2 126.8 235.5 45.31 45.27 90.62 54.38 145 36.21 54.38-18.09 111.8-76.48 181.2-144.9s121.8-193.3 235.5-265.7c113.7-72.46 234.5-117.8 446.9-169.1 212.4-51.33 381.6-96.21 689.1-140" fill="none" stroke="#4fbd37" stroke-linecap="round" stroke-linejoin="round" stroke-miterlimit="10" stroke-width="20"/>
<path transform="matrix(.1 0 0 -.1 0 229)" d="m10 743.6c26.09-41.68 134.4-144 190.7-164.2 56.37-20.12 136.9-41.25 217.4-42.27 80.55-1.016 187.2 11.09 265.7 36.25s127.9 96.6 205.4 114.7 259.7-6.016 259.7-6.016l900.4-58.52" fill="none" stroke="#f68a1a" stroke-linecap="round" stroke-linejoin="round" stroke-miterlimit="10" stroke-width="20"/>
<path transform="matrix(.1 0 0 -.1 0 229)" d="m10 608.6c6.523 6.016 58.87 55.39 82.03 73.52s68.44 56.37 102.7 78.52c34.22 22.15 66.41 42.27 102.7 54.34 36.25 12.07 67.42 20.16 114.8 18.12 47.3-1.992 94.61-5.039 169.1-30.2s185.2-87.58 277.8-120.8c92.62-33.24 162.1-55.39 277.8-78.52 115.8-23.16 239.6-53.36 416.8-60.39 177.1-7.07 261.2 6.133 495.8 18.71" fill="none" stroke="#67218d" stroke-linecap="round" stroke-linejoin="round" stroke-miterlimit="10" stroke-width="20"/>
<path transform="matrix(.1 0 0 -.1 0 229)" d="m10 901.9c49.8 129.8 127.3 347.9 184.7 450.6 57.34 102.7 126.8 190.2 187.2 253.7 60.39 63.4 206.3 185.2 477.1 193.2s664.4-7.734 1190-20.82" fill="none" stroke="#1476c6" stroke-linecap="round" stroke-linejoin="round" stroke-miterlimit="10" stroke-width="20"/>
</svg>
