<?xml version="1.0" encoding="UTF-8"?>
<svg width="311pt" height="246.2pt" version="1.1" viewBox="0 0 311 246.2" xmlns="http://www.w3.org/2000/svg" xmlns:xlink="http://www.w3.org/1999/xlink">
<defs>
<symbol id="l" overflow="visible">
<path d="m0.6094 0h0.6875v-2.266h2.5v2.266h0.7031v-4.953h-0.7031v2.062h-2.5v-2.062h-0.6875z"/>
</symbol>
<symbol id="k" overflow="visible">
<path d="m0.7969-3.312h-0.7344l1.422 3.312-0.2031 0.5469c-0.1406 0.3594-0.2812 0.5625-0.625 0.5625-0.1094 0-0.2188-0.03125-0.3281-0.0625l-0.0625 0.5781c0.1406 0.04688 0.2969 0.0625 0.4375 0.0625 0.6406 0 0.9219-0.3438 1.141-0.9062l1.609-4.094h-0.6875l-0.9219 2.594h-0.01562z"/>
</symbol>
<symbol id="p" overflow="visible">
<path d="m1.219-0.5h0.03125c0.2344 0.375 0.7031 0.5938 1.172 0.5938 1.016 0 1.672-0.7812 1.672-1.766 0-0.9688-0.6719-1.734-1.672-1.734-0.5312 0-0.9688 0.25-1.188 0.6094h-0.01562v-0.5156h-0.6562v5h0.6562zm2.188-1.172c0 0.625-0.375 1.203-1.109 1.203-0.6719 0-1.109-0.5469-1.109-1.188s0.4375-1.203 1.109-1.203c0.7344 0 1.109 0.5781 1.109 1.188z"/>
</symbol>
<symbol id="d" overflow="visible">
<path d="m3.922-1.672c0-1.016-0.7656-1.734-1.781-1.734s-1.797 0.7188-1.797 1.734c0 1.031 0.7812 1.766 1.797 1.766s1.781-0.7344 1.781-1.766zm-0.6875 0c0 0.6406-0.3906 1.203-1.094 1.203-0.7188 0-1.109-0.5625-1.109-1.203 0-0.625 0.3906-1.188 1.109-1.188 0.7031 0 1.094 0.5625 1.094 1.188z"/>
</symbol>
<symbol id="r" overflow="visible">
<path d="m0.5312-3.312c0.03125 0.2188 0.03125 0.5312 0.03125 0.7031v2.609h0.6562v-1.766c0-0.6562 0.375-1.094 0.8906-1.094 0.6094 0 0.7656 0.4844 0.7656 1.016v1.844h0.6562v-2.062c0-0.7344-0.3906-1.344-1.25-1.344-0.4688 0-0.9062 0.2812-1.062 0.6406h-0.03125c0-0.1406-0.01562-0.3906-0.03125-0.5469z"/>
</symbol>
<symbol id="i" overflow="visible">
<path d="m2.625-2.062c-1.109 0-2.297 0.125-2.297 1.125 0 0.7656 0.6719 1.016 1.203 1.016 0.4844 0 0.875-0.2031 1.109-0.5469h0.01562c0 0.1406 0.03125 0.3281 0.0625 0.4688h0.5938c-0.03125-0.1562-0.04688-0.4375-0.04688-0.6562v-1.453c0-0.7344-0.4375-1.297-1.391-1.297-0.5312 0-1.031 0.1875-1.359 0.5l0.3594 0.4219c0.2188-0.2344 0.5625-0.3906 0.9375-0.3906 0.4844 0 0.8125 0.2344 0.8125 0.7188zm0 0.4844v0.1719c0 0.5625-0.3438 0.9688-0.9531 0.9688-0.3281 0-0.6719-0.125-0.6719-0.5156 0-0.5625 0.8125-0.625 1.469-0.625z"/>
</symbol>
<symbol id="j" overflow="visible">
<path d="m2.188-3.312h-0.875v-0.9531h-0.6562v0.9531h-0.6406v0.5312h0.6406v1.797c0 0.6875 0.3438 1.047 0.9688 1.047 0.2031 0 0.4062-0.04688 0.5625-0.09375l-0.03125-0.5469c-0.1094 0.0625-0.2656 0.09375-0.375 0.09375-0.3281 0-0.4688-0.1719-0.4688-0.5625v-1.734h0.875z"/>
</symbol>
<symbol id="g" overflow="visible">
<path d="m0.5625-2.609v2.609h0.6562v-1.75c0-0.5469 0.3125-1.062 0.9375-1.062 0.1094 0 0.2188 0.01562 0.2969 0.04688l0.03125-0.6094c-0.07812-0.03125-0.1719-0.03125-0.2656-0.03125-0.4375 0-0.8281 0.2656-1 0.6406h-0.03125c0-0.125-0.01562-0.3906-0.03125-0.5469h-0.625c0.03125 0.2188 0.03125 0.5312 0.03125 0.7031z"/>
</symbol>
<symbol id="a" overflow="visible">
<path d="m1.016-1.953c0.04688-0.5156 0.4844-0.9375 1.047-0.9375 0.6094 0 0.9219 0.4062 0.9375 0.9375zm2.641 0.2656c0-1.062-0.6094-1.719-1.594-1.719-0.9688 0-1.719 0.7188-1.719 1.75 0 1.047 0.75 1.75 1.75 1.75 0.5938 0 1.078-0.2188 1.438-0.6875l-0.4688-0.3594c-0.1875 0.2812-0.5156 0.5-0.9688 0.5-0.5781 0-1.047-0.4375-1.078-1.016h2.641v-0.2188z"/>
</symbol>
<symbol id="c" overflow="visible">
<path d="m1.219-2.766h-0.03125c0-0.1406-0.01562-0.3906-0.03125-0.5469h-0.625c0.03125 0.2188 0.03125 0.5312 0.03125 0.7031v2.609h0.6562v-1.766c0-0.6562 0.375-1.094 0.8594-1.094 0.5156 0 0.6875 0.375 0.6875 0.8906v1.969h0.6719v-1.797c0-0.5156 0.2344-1.062 0.8281-1.062 0.5781 0 0.7344 0.4844 0.7344 1.016v1.844h0.6562v-2.062c0-0.7344-0.375-1.344-1.234-1.344-0.4688 0-0.9062 0.2344-1.125 0.6562-0.2031-0.4688-0.5938-0.6562-1.031-0.6562-0.5 0-0.8906 0.2812-1.047 0.6406z"/>
</symbol>
<symbol id="e" overflow="visible">
<path d="m1.234-3.312h-0.6562v3.312h0.6562zm0.1094-1.203c0-0.25-0.2031-0.4219-0.4375-0.4219s-0.4375 0.1875-0.4375 0.4219 0.2031 0.4219 0.4375 0.4219 0.4375-0.1875 0.4375-0.4219z"/>
</symbol>
<symbol id="b" overflow="visible"></symbol>
<symbol id="w" overflow="visible">
<path d="m0.8281-2.016c0-1.016 0.3594-2.047 0.9062-2.812l-0.4688-0.2969c-0.625 0.8125-1.031 1.938-1.031 3.109s0.4062 2.281 1.031 3.109l0.4688-0.2969c-0.5469-0.7656-0.9062-1.797-0.9062-2.812z"/>
</symbol>
<symbol id="f" overflow="visible">
<path d="m2.812-2.859c-0.2344-0.3594-0.7344-0.5469-1.203-0.5469-0.625 0-1.25 0.2969-1.25 1.016 0 0.625 0.5156 0.8125 0.9688 0.9062 0.5625 0.1406 0.8594 0.25 0.8594 0.5625 0 0.3594-0.3281 0.4844-0.6562 0.4844-0.375 0-0.7031-0.2031-0.875-0.4688l-0.4688 0.4062c0.3125 0.3906 0.8281 0.5938 1.328 0.5938 0.6719 0 1.328-0.2969 1.328-1.078 0-0.5781-0.4844-0.8281-1.109-0.9688-0.5156-0.125-0.7656-0.2188-0.7656-0.5 0-0.3125 0.3125-0.4375 0.625-0.4375 0.3281 0 0.625 0.1719 0.7656 0.4062z"/>
</symbol>
<symbol id="q" overflow="visible">
<path d="m3.531 0c-0.03125-0.2188-0.03125-0.5312-0.03125-0.7188v-2.594h-0.6562v1.766c0 0.6562-0.3594 1.078-0.8906 1.078-0.6094 0-0.75-0.4688-0.75-1.016v-1.828h-0.6719v2.047c0 0.75 0.3906 1.359 1.25 1.359 0.4844 0 0.9062-0.2969 1.078-0.6406h0.01562c0 0.1406 0.01562 0.375 0.03125 0.5469z"/>
</symbol>
<symbol id="ag" overflow="visible">
<path d="m3.219-0.5312h0.01562v0.5312h0.625v-5.297h-0.6562v2.469h-0.01562c-0.2188-0.3125-0.6406-0.5781-1.172-0.5781-1 0-1.672 0.7656-1.672 1.734 0 0.9844 0.6562 1.766 1.672 1.766 0.4688 0 0.9531-0.2188 1.203-0.625zm-2.188-1.141c0-0.6094 0.375-1.188 1.094-1.188 0.6719 0 1.125 0.5625 1.125 1.203s-0.4531 1.188-1.125 1.188c-0.7188 0-1.094-0.5781-1.094-1.203z"/>
</symbol>
<symbol id="af" overflow="visible">
<path d="m4.125-3.953-3.578 1.625v0.4219l3.562 1.609v-0.5938l-2.688-1.234 2.703-1.234z"/>
</symbol>
<symbol id="ac" overflow="visible">
<path d="m2.656-4.953h-0.6094l-1.406 1.141 0.3906 0.4688 0.9375-0.7812v4.125h0.6875z"/>
</symbol>
<symbol id="ap" overflow="visible">
<path d="m1.484-2.312h0.2188c0.5781 0 1.25 0.2188 1.25 0.9219 0 0.625-0.5 0.9375-1 0.9375-0.5156 0-0.8906-0.2969-1.047-0.7188l-0.625 0.2031c0.2656 0.75 0.9062 1.094 1.688 1.094 0.8438 0 1.656-0.5312 1.656-1.516 0-0.625-0.4219-1.094-1-1.203v-0.01562c0.5-0.1406 0.875-0.5781 0.875-1.125 0-0.875-0.7031-1.344-1.531-1.344-0.7031 0-1.266 0.3594-1.516 0.9531l0.625 0.2188c0.1406-0.375 0.4531-0.6094 0.8594-0.6094 0.4688 0 0.875 0.3281 0.875 0.8125 0 0.6406-0.5312 0.8281-1.109 0.8281h-0.2188z"/>
</symbol>
<symbol id="v" overflow="visible">
<path d="m3.438-4.953h-2.688l-0.0625 2.625c0.3125-0.1562 0.7188-0.2656 1.094-0.2656 0.625 0 1.172 0.3281 1.172 1.078 0 0.6406-0.4688 1.062-1.047 1.062-0.4375 0-0.8125-0.2656-0.9688-0.6562l-0.6094 0.2344c0.2656 0.6094 0.8125 1 1.578 1 0.9844 0 1.734-0.6719 1.734-1.703 0-0.9688-0.7031-1.562-1.656-1.562-0.2031 0-0.4531 0.03125-0.6406 0.09375l0.04688-1.312h2.047z"/>
</symbol>
<symbol id="ao" overflow="visible">
<path d="m1.297-2.266h2.344v-0.5938h-2.344v-1.484h2.484v-0.6094h-3.172v4.953h3.281v-0.6094h-2.594z"/>
</symbol>
<symbol id="ax" overflow="visible">
<path d="m3.203-0.5v2.188h0.6562v-5h-0.625v0.5156h-0.03125c-0.2188-0.3594-0.6562-0.6094-1.188-0.6094-1 0-1.672 0.7656-1.672 1.734 0 0.9844 0.6562 1.766 1.672 1.766 0.4688 0 0.9375-0.2188 1.172-0.5938zm-2.172-1.172c0-0.6094 0.375-1.188 1.094-1.188 0.6719 0 1.125 0.5625 1.125 1.203s-0.4531 1.188-1.125 1.188c-0.7188 0-1.094-0.5781-1.094-1.203z"/>
</symbol>
<symbol id="t" overflow="visible">
<path d="m2.625-5.016-0.4844-0.1719-2.156 5.25 0.5 0.1719z"/>
</symbol>
<symbol id="an" overflow="visible">
<path d="m1.297-4.953h-0.6875v4.953h2.891v-0.6094h-2.203z"/>
</symbol>
<symbol id="aw" overflow="visible">
<path d="m1.656-5.125h-1.25v6.219h1.25v-0.4688h-0.6562v-5.281h0.6562z"/>
</symbol>
<symbol id="h" overflow="visible">
<path d="m1.234-5.297h-0.6562v5.297h0.6562z"/>
</symbol>
<symbol id="av" overflow="visible">
<path d="m0.5469 1.094h1.25v-6.219h-1.25v0.4688h0.6562v5.281h-0.6562z"/>
</symbol>
<symbol id="u" overflow="visible">
<path d="m1.375-2.016c0 1.016-0.3594 2.047-0.9062 2.812l0.4688 0.2969c0.625-0.8281 1.031-1.938 1.031-3.109s-0.4062-2.297-1.031-3.109l-0.4688 0.2969c0.5469 0.7656 0.9062 1.797 0.9062 2.812z"/>
</symbol>
<symbol id="n" overflow="visible">
<path d="m3.359-2.859c-0.2656-0.3594-0.7656-0.5469-1.234-0.5469-1.016 0-1.781 0.7031-1.781 1.75s0.7656 1.75 1.797 1.75c0.5312 0 0.9531-0.2031 1.234-0.5156l-0.4375-0.4062c-0.1719 0.2188-0.4688 0.3594-0.7969 0.3594-0.7031 0-1.094-0.5625-1.094-1.188 0-0.6406 0.3906-1.203 1.078-1.203 0.3125 0 0.625 0.1719 0.7656 0.375z"/>
</symbol>
<symbol id="am" overflow="visible">
<path d="m0.5469-3.359 2.688 1.234-2.688 1.234v0.5938l3.562-1.609v-0.4219l-3.562-1.625z"/>
</symbol>
<symbol id="ab" overflow="visible">
<path d="m3.656-0.6094h-2.438l1.609-1.562c0.4375-0.4375 0.8125-0.8594 0.8125-1.5 0-0.9219-0.75-1.406-1.578-1.406-0.8438 0-1.484 0.5625-1.594 1.312l0.6562 0.1094c0.09375-0.5 0.4219-0.8594 0.9375-0.8594 0.4844 0 0.875 0.3438 0.875 0.8594 0 0.4219-0.25 0.7344-0.5469 1.047l-1.969 1.953v0.6562h3.234z"/>
</symbol>
<symbol id="al" overflow="visible">
<path d="m1.219 0h0.8125l1.297-2.047c0.2812-0.4531 0.4688-0.8594 0.4688-1.406 0-0.9375-0.7188-1.625-1.703-1.625-0.9688 0-1.719 0.6562-1.719 1.641 0 0.9062 0.6875 1.562 1.547 1.562 0.1094 0 0.2344-0.01562 0.3438-0.03125 0.1094-0.03125 0.2188-0.0625 0.2812-0.1094l0.01562 0.01562zm1.906-3.453c0 0.6094-0.4219 1.031-1.031 1.031-0.625 0-1.031-0.4375-1.031-1.031 0-0.6094 0.4219-1.062 1.031-1.062s1.031 0.4844 1.031 1.062z"/>
</symbol>
<symbol id="m" overflow="visible">
<path d="m5.594-2.484c0-1.547-1.109-2.594-2.625-2.594-1.5 0-2.625 1.047-2.625 2.594 0 1.531 1.125 2.609 2.625 2.609 1.516 0 2.625-1.078 2.625-2.609zm-0.75 0c0 1.109-0.7344 1.984-1.875 1.984s-1.875-0.875-1.875-1.984c0-1.078 0.7344-1.984 1.875-1.984 1.156 0 1.875 0.9062 1.875 1.984z"/>
</symbol>
<symbol id="s" overflow="visible">
<path d="m1.234-5.297h-0.6562v5.297h0.6562v-1.719h0.03125l1.5 1.719h0.9062l-1.688-1.812 1.547-1.5h-0.875l-1.391 1.438h-0.03125z"/>
</symbol>
<symbol id="o" overflow="visible">
<path d="m0.4062 1.078c0.4062 0.375 1.047 0.6094 1.625 0.6094 1.375 0 1.828-0.8906 1.828-1.859v-3.141h-0.625v0.5312h-0.01562c-0.25-0.4219-0.7344-0.625-1.203-0.625-1.016 0-1.672 0.7812-1.672 1.719 0 0.9531 0.6719 1.719 1.672 1.719 0.4688 0 0.9375-0.2031 1.172-0.5781h0.01562v0.4219c0 0.6875-0.2969 1.234-1.172 1.234-0.4531 0-0.9219-0.2188-1.203-0.5469zm0.625-2.766c0-0.6406 0.4062-1.172 1.094-1.172 0.6719 0 1.125 0.5312 1.125 1.172 0 0.6562-0.4375 1.156-1.125 1.156s-1.094-0.5469-1.094-1.156z"/>
</symbol>
<symbol id="aa" overflow="visible">
<path d="m1.375-0.4219c0-0.25-0.2031-0.4531-0.4688-0.4531s-0.4688 0.2031-0.4688 0.4688c0 0.2344 0.2188 0.4531 0.4688 0.4531 0.2656 0 0.4688-0.2188 0.4688-0.4688z"/>
</symbol>
<symbol id="ae" overflow="visible">
<path d="m1.375-0.8125h-0.6562l-0.4844 1.75h0.5625z"/>
</symbol>
<symbol id="ak" overflow="visible">
<path d="m1.234-2.812v-2.484h-0.6562v5.297h0.6562v-1.75c0-0.6719 0.375-1.094 0.9062-1.094 0.6094 0 0.75 0.4688 0.75 1.016v1.828h0.6562v-2.062c0-0.7344-0.3906-1.344-1.25-1.344-0.4688 0-0.8906 0.2656-1.047 0.5938z"/>
</symbol>
<symbol id="aj" overflow="visible">
<path d="m3.609-4.953h-3.156v0.5938h2.453l-2.062 4.359h0.7656l2-4.344z"/>
</symbol>
<symbol id="ad" overflow="visible">
<path d="m1.297-4.953h-0.6875v4.953h0.6875z"/>
</symbol>
<symbol id="au" overflow="visible">
<path d="m1.938-1.984h-1.625v0.5625h1.625z"/>
</symbol>
<symbol id="z" overflow="visible">
<path d="m3.453-3.312h-0.6875l-0.9844 2.609h-0.01562l-0.9688-2.609h-0.7344l1.344 3.312h0.7188z"/>
</symbol>
<symbol id="ai" overflow="visible">
<path d="m1.688-4.953h-1.078v4.953h0.6719v-4.141l1.641 4.141h0.4375l1.656-4.141h0.01562v4.141h0.6875v-4.953h-1.078l-1.469 3.812h-0.01562z"/>
</symbol>
<symbol id="y" overflow="visible">
<path d="m2.094-5.078c-1.188 0-1.703 1.156-1.703 2.594 0 1.453 0.5156 2.609 1.703 2.609 1.172 0 1.672-1.156 1.672-2.609 0-1.438-0.5-2.594-1.672-2.594zm0 0.5625c0.7969 0 0.9844 1.203 0.9844 2.031 0 0.8438-0.1875 2.031-0.9844 2.031-0.8281 0-1.016-1.188-1.016-2.031 0-0.8281 0.1875-2.031 1.016-2.031z"/>
</symbol>
<symbol id="at" overflow="visible">
<path d="m0.04688 0h0.7969l0.9375-1.297 0.9219 1.297h0.8125l-1.328-1.75 1.188-1.562h-0.7656l-0.8125 1.141-0.8125-1.141h-0.8125l1.203 1.562z"/>
</symbol>
<symbol id="as" overflow="visible">
<path d="m0.09375-3.312 1.109 3.312h0.6875l0.8125-2.484h0.01562l0.8125 2.484h0.6875l1.094-3.312h-0.6875l-0.75 2.531h-0.01562l-0.7969-2.531h-0.7031l-0.7812 2.531h-0.01562l-0.75-2.531z"/>
</symbol>
<symbol id="ah" overflow="visible">
<path d="m0.6094 0h1.688c1.266 0 2.688-0.7812 2.688-2.484 0-1.75-1.422-2.469-2.688-2.469h-1.688zm0.6875-4.359h0.8594c1.203 0 2.078 0.6562 2.078 1.875 0 1.188-0.875 1.875-2.078 1.875h-0.8594z"/>
</symbol>
<symbol id="ar" overflow="visible">
<path d="m3.562-4.516c-0.3125-0.3438-0.8594-0.5625-1.422-0.5625-0.8281 0-1.703 0.4219-1.703 1.406 0 0.9062 0.6562 1.203 1.281 1.391 0.6406 0.2031 1.172 0.3594 1.172 0.9688 0 0.5781-0.5312 0.8438-0.9844 0.8438s-0.875-0.2344-1.109-0.5781l-0.5312 0.4531c0.375 0.4688 1 0.7188 1.625 0.7188 0.875 0 1.719-0.4688 1.719-1.5 0-0.9844-0.7969-1.25-1.453-1.453-0.5625-0.1875-1.016-0.3281-1.016-0.875s0.5156-0.7969 0.9531-0.7969c0.4219 0 0.7812 0.1875 0.9688 0.4688z"/>
</symbol>
<symbol id="aq" overflow="visible">
<path d="m1.297-1.219h2.359l0.5 1.219h0.7812l-2.125-4.953h-0.625l-2.156 4.953h0.7812zm1.188-2.938 0.9219 2.328h-1.859z"/>
</symbol>
<symbol id="x" overflow="visible">
<path d="m2.125-0.3594h-1.406l0.9375-0.9062c0.25-0.25 0.4531-0.5 0.4531-0.875 0-0.5312-0.4219-0.8125-0.9062-0.8125-0.5 0-0.8594 0.3125-0.9375 0.7656l0.3906 0.0625c0.04688-0.2969 0.25-0.5 0.5469-0.5 0.2812 0 0.5156 0.1875 0.5156 0.4844 0 0.25-0.1562 0.4375-0.3281 0.625l-1.141 1.141v0.375h1.875z"/>
</symbol>
</defs>
<path d="m230.5 28.52h-149.5v-28.27h149.5v28.27" fill="#fef0ca"/>
<path transform="matrix(.1 0 0 -.1 0 246.2)" d="m2305 2176h-1495v282.7h1495z" fill="none" stroke="#231f1f" stroke-width="5"/>
<path d="m310.8 138.2h-92v-46.59h92v46.59" fill="#fef0ca"/>
<path transform="matrix(.1 0 0 -.1 0 246.2)" d="m3108 1079h-920v465.9h920z" fill="none" stroke="#231f1f" stroke-width="5"/>
<path d="m310.8 184.2h-92v-17.25h92v17.25" fill="#fef0ca"/>
<path transform="matrix(.1 0 0 -.1 0 246.2)" d="m3108 619h-920v172.5h920z" fill="none" stroke="#231f1f" stroke-width="5"/>
<path d="m201.5 184.2h-92v-17.25h92v17.25" fill="#fef0ca"/>
<path transform="matrix(.1 0 0 -.1 0 246.2)" d="m2015 619h-920v172.5h920z" fill="none" stroke="#231f1f" stroke-width="5"/>
<path d="m92.25 132.5h-92v-40.84h92v40.84" fill="#fef0ca"/>
<path transform="matrix(.1 0 0 -.1 0 246.2)" d="m922.5 1136h-920v408.4h920z" fill="none" stroke="#231f1f" stroke-width="5"/>
<path d="m201.5 119.9h-92v-28.27h92v28.27" fill="#fef0ca"/>
<path transform="matrix(.1 0 0 -.1 0 246.2)" d="m2015 1262h-920v282.7h920z" fill="none" stroke="#231f1f" stroke-width="5"/>
<path d="m310.8 224.5h-86.25v-17.25h86.25v17.25" fill="#fef0ca"/>
<path transform="matrix(.1 0 0 -.1 0 246.2)" d="m3108 216.5h-862.5v172.5h862.5z" fill="none" stroke="#231f1f" stroke-width="5"/>
<g fill="#231f1f">
<use x="132.073" y="12.301" xlink:href="#l"/>
<use x="137.176" y="12.301" xlink:href="#k"/>
<use x="140.704" y="12.301" xlink:href="#p"/>
<use x="145.142" y="12.301" xlink:href="#d"/>
<use x="149.412" y="12.301" xlink:href="#r"/>
<use x="153.486" y="12.301" xlink:href="#i"/>
<use x="157.208943" y="12.301" xlink:href="#j"/>
<use x="159.511943" y="12.301" xlink:href="#g"/>
<use x="161.920028" y="12.301" xlink:href="#a"/>
<use x="165.931028" y="12.301" xlink:href="#c"/>
<use x="172.140028" y="12.301" xlink:href="#e"/>
<use x="173.953028" y="12.301" xlink:href="#i"/>
<use x="177.747028" y="12.301" xlink:href="#b"/>
<use x="87.4167" y="20.701" xlink:href="#w"/>
<use x="89.6217" y="20.701" xlink:href="#f"/>
<use x="92.7297" y="20.701" xlink:href="#a"/>
<use x="96.7407" y="20.701" xlink:href="#g"/>
<use x="99.2747" y="20.701" xlink:href="#q"/>
<use x="103.3487" y="20.701" xlink:href="#c"/>
<use x="109.5577" y="20.701" xlink:href="#b"/>
<use x="111.3077" y="20.701" xlink:href="#f"/>
<use x="114.4157" y="20.701" xlink:href="#d"/>
<use x="118.6857" y="20.701" xlink:href="#ag"/>
<use x="123.1307" y="20.701" xlink:href="#e"/>
<use x="124.9437" y="20.701" xlink:href="#q"/>
<use x="129.0177" y="20.701" xlink:href="#c"/>
<use x="135.2267" y="20.701" xlink:href="#b"/>
<use x="136.9767" y="20.701" xlink:href="#af"/>
<use x="141.6387" y="20.701" xlink:href="#ac"/>
<use x="145.8037" y="20.701" xlink:href="#ap"/>
<use x="149.9687" y="20.701" xlink:href="#v"/>
<use x="154.1337" y="20.701" xlink:href="#b"/>
<use x="155.8837" y="20.701" xlink:href="#c"/>
<use x="162.0927" y="20.701" xlink:href="#ao"/>
<use x="166.2997" y="20.701" xlink:href="#ax"/>
<use x="170.7307" y="20.701" xlink:href="#t"/>
<use x="173.3907" y="20.701" xlink:href="#an"/>
<use x="176.79873" y="20.701" xlink:href="#b"/>
<use x="178.54873" y="20.701" xlink:href="#aw"/>
<use x="180.75373" y="20.701" xlink:href="#ac"/>
<use x="184.91873" y="20.701" xlink:href="#ap"/>
<use x="189.08373" y="20.701" xlink:href="#v"/>
<use x="193.24873" y="20.701" xlink:href="#b"/>
<use x="194.99873" y="20.701" xlink:href="#c"/>
<use x="201.20773" y="20.701" xlink:href="#c"/>
<use x="207.41673" y="20.701" xlink:href="#d"/>
<use x="211.68673" y="20.701" xlink:href="#h"/>
<use x="213.50673" y="20.701" xlink:href="#t"/>
<use x="216.16673" y="20.701" xlink:href="#an"/>
<use x="219.74373" y="20.701" xlink:href="#av"/>
<use x="221.94873" y="20.701" xlink:href="#u"/>
<use x="27.6511" y="106.3819" xlink:href="#l"/>
<use x="32.7541" y="106.3819" xlink:href="#k"/>
<use x="36.2821" y="106.3819" xlink:href="#p"/>
<use x="40.7201" y="106.3819" xlink:href="#a"/>
<use x="44.7311" y="106.3819" xlink:href="#g"/>
<use x="47.181177" y="106.3819" xlink:href="#j"/>
<use x="49.484177" y="106.3819" xlink:href="#d"/>
<use x="53.754177" y="106.3819" xlink:href="#r"/>
<use x="57.828177" y="106.3819" xlink:href="#e"/>
<use x="59.641177" y="106.3819" xlink:href="#n"/>
<use x="63.099177" y="106.3819" xlink:href="#b"/>
<use x="10.8589" y="114.7819" xlink:href="#w"/>
<use x="13.0639" y="114.7819" xlink:href="#am"/>
<use x="17.7259" y="114.7819" xlink:href="#ab"/>
<use x="21.8909" y="114.7819" xlink:href="#al"/>
<use x="26.0559" y="114.7819" xlink:href="#v"/>
<use x="30.2209" y="114.7819" xlink:href="#b"/>
<use x="31.9709" y="114.7819" xlink:href="#c"/>
<use x="38.1799" y="114.7819" xlink:href="#m"/>
<use x="44.1229" y="114.7819" xlink:href="#f"/>
<use x="47.2309" y="114.7819" xlink:href="#c"/>
<use x="53.4399" y="114.7819" xlink:href="#t"/>
<use x="56.0999" y="114.7819" xlink:href="#s"/>
<use x="59.7889" y="114.7819" xlink:href="#o"/>
<use x="64.2129" y="114.7819" xlink:href="#b"/>
<use x="65.9629" y="114.7819" xlink:href="#l"/>
<use x="71.0648" y="117.11276" xlink:href="#x"/>
<use x="73.49332" y="114.7819" xlink:href="#m"/>
<use x="79.43632" y="114.7819" xlink:href="#u"/>
<use x="12.56282" y="123.1819" xlink:href="#w"/>
<use x="14.76782" y="123.1819" xlink:href="#a"/>
<use x="18.77882" y="123.1819" xlink:href="#aa"/>
<use x="20.59882" y="123.1819" xlink:href="#o"/>
<use x="25.02282" y="123.1819" xlink:href="#aa"/>
<use x="26.84282" y="123.1819" xlink:href="#ae"/>
<use x="28.452664" y="123.1819" xlink:href="#b"/>
<use x="30.202664" y="123.1819" xlink:href="#ak"/>
<use x="34.290664" y="123.1819" xlink:href="#k"/>
<use x="37.818664" y="123.1819" xlink:href="#p"/>
<use x="42.256664" y="123.1819" xlink:href="#a"/>
<use x="46.267664" y="123.1819" xlink:href="#g"/>
<use x="48.675711" y="123.1819" xlink:href="#o"/>
<use x="53.099711" y="123.1819" xlink:href="#h"/>
<use x="54.919711" y="123.1819" xlink:href="#k"/>
<use x="58.447711" y="123.1819" xlink:href="#n"/>
<use x="61.905711" y="123.1819" xlink:href="#a"/>
<use x="65.916711" y="123.1819" xlink:href="#c"/>
<use x="72.125711" y="123.1819" xlink:href="#e"/>
<use x="73.938711" y="123.1819" xlink:href="#i"/>
<use x="77.732711" y="123.1819" xlink:href="#u"/>
<use x="137.99682" y="102.7038" xlink:href="#l"/>
<use x="143.09982" y="102.7038" xlink:href="#k"/>
<use x="146.62782" y="102.7038" xlink:href="#p"/>
<use x="151.06582" y="102.7038" xlink:href="#d"/>
<use x="155.33582" y="102.7038" xlink:href="#j"/>
<use x="157.63882" y="102.7038" xlink:href="#d"/>
<use x="161.90882" y="102.7038" xlink:href="#r"/>
<use x="165.98282" y="102.7038" xlink:href="#e"/>
<use x="167.79582" y="102.7038" xlink:href="#n"/>
<use x="171.25382" y="102.7038" xlink:href="#b"/>
<use x="120.10892" y="111.1038" xlink:href="#w"/>
<use x="122.31392" y="111.1038" xlink:href="#af"/>
<use x="126.97592" y="111.1038" xlink:href="#ab"/>
<use x="131.14092" y="111.1038" xlink:href="#aj"/>
<use x="135.30592" y="111.1038" xlink:href="#v"/>
<use x="139.47092" y="111.1038" xlink:href="#b"/>
<use x="141.22092" y="111.1038" xlink:href="#c"/>
<use x="147.42992" y="111.1038" xlink:href="#m"/>
<use x="153.37292" y="111.1038" xlink:href="#f"/>
<use x="156.48092" y="111.1038" xlink:href="#c"/>
<use x="162.68992" y="111.1038" xlink:href="#t"/>
<use x="165.34992" y="111.1038" xlink:href="#s"/>
<use x="169.03892" y="111.1038" xlink:href="#o"/>
<use x="173.46292" y="111.1038" xlink:href="#b"/>
<use x="175.21292" y="111.1038" xlink:href="#l"/>
<use x="180.31482" y="113.43505" xlink:href="#x"/>
<use x="182.74295" y="111.1038" xlink:href="#m"/>
<use x="188.68595" y="111.1038" xlink:href="#u"/>
<use x="251.27885" y="105.187" xlink:href="#ad"/>
<use x="253.17585" y="105.187" xlink:href="#f"/>
<use x="256.28385" y="105.187" xlink:href="#d"/>
<use x="260.55385" y="105.187" xlink:href="#j"/>
<use x="262.85685" y="105.187" xlink:href="#d"/>
<use x="267.12685" y="105.187" xlink:href="#r"/>
<use x="271.20085" y="105.187" xlink:href="#e"/>
<use x="273.01385" y="105.187" xlink:href="#n"/>
<use x="276.47185" y="105.187" xlink:href="#b"/>
<use x="224.32295" y="113.587" xlink:href="#w"/>
<use x="226.52795" y="113.587" xlink:href="#ab"/>
<use x="230.69295" y="113.587" xlink:href="#aj"/>
<use x="234.85795" y="113.587" xlink:href="#v"/>
<use x="239.02295" y="113.587" xlink:href="#au"/>
<use x="241.26295" y="113.587" xlink:href="#ab"/>
<use x="245.42795" y="113.587" xlink:href="#al"/>
<use x="249.59295" y="113.587" xlink:href="#v"/>
<use x="253.75795" y="113.587" xlink:href="#b"/>
<use x="255.50795" y="113.587" xlink:href="#c"/>
<use x="261.71695" y="113.587" xlink:href="#m"/>
<use x="267.65995" y="113.587" xlink:href="#f"/>
<use x="270.76795" y="113.587" xlink:href="#c"/>
<use x="276.97695" y="113.587" xlink:href="#t"/>
<use x="279.63695" y="113.587" xlink:href="#s"/>
<use x="283.32595" y="113.587" xlink:href="#o"/>
<use x="287.74995" y="113.587" xlink:href="#b"/>
<use x="289.49995" y="113.587" xlink:href="#l"/>
<use x="294.60105" y="115.91786" xlink:href="#x"/>
<use x="297.02878" y="113.587" xlink:href="#m"/>
<use x="302.97178" y="113.587" xlink:href="#u"/>
<use x="222.31278" y="121.987" xlink:href="#w"/>
<use x="224.51778" y="121.987" xlink:href="#a"/>
<use x="228.52878" y="121.987" xlink:href="#aa"/>
<use x="230.34878" y="121.987" xlink:href="#o"/>
<use x="234.77278" y="121.987" xlink:href="#aa"/>
<use x="236.59278" y="121.987" xlink:href="#ae"/>
<use x="238.203014" y="121.987" xlink:href="#b"/>
<use x="239.953014" y="121.987" xlink:href="#ak"/>
<use x="243.971014" y="121.987" xlink:href="#k"/>
<use x="247.428995" y="121.987" xlink:href="#p"/>
<use x="251.796902" y="121.987" xlink:href="#a"/>
<use x="255.737882" y="121.987" xlink:href="#g"/>
<use x="258.117927" y="121.987" xlink:href="#j"/>
<use x="260.350858" y="121.987" xlink:href="#g"/>
<use x="262.814858" y="121.987" xlink:href="#e"/>
<use x="264.557765" y="121.987" xlink:href="#o"/>
<use x="268.911697" y="121.987" xlink:href="#h"/>
<use x="270.661653" y="121.987" xlink:href="#k"/>
<use x="274.119653" y="121.987" xlink:href="#n"/>
<use x="277.507559" y="121.987" xlink:href="#a"/>
<use x="281.448515" y="121.987" xlink:href="#g"/>
<use x="283.912496" y="121.987" xlink:href="#e"/>
<use x="285.655427" y="121.987" xlink:href="#ag"/>
<use x="290.030408" y="121.987" xlink:href="#a"/>
<use x="293.971388" y="121.987" xlink:href="#c"/>
<use x="300.110319" y="121.987" xlink:href="#e"/>
<use x="301.853251" y="121.987" xlink:href="#i"/>
<use x="305.57681" y="121.987" xlink:href="#ae"/>
<use x="234.60808" y="130.387" xlink:href="#c"/>
<use x="240.81708" y="130.387" xlink:href="#q"/>
<use x="244.89108" y="130.387" xlink:href="#h"/>
<use x="246.71108" y="130.387" xlink:href="#j"/>
<use x="249.01408" y="130.387" xlink:href="#e"/>
<use x="250.82708" y="130.387" xlink:href="#p"/>
<use x="255.26508" y="130.387" xlink:href="#h"/>
<use x="257.08508" y="130.387" xlink:href="#a"/>
<use x="261.09608" y="130.387" xlink:href="#b"/>
<use x="262.84608" y="130.387" xlink:href="#c"/>
<use x="269.05508" y="130.387" xlink:href="#k"/>
<use x="272.58308" y="130.387" xlink:href="#a"/>
<use x="276.59408" y="130.387" xlink:href="#h"/>
<use x="278.41408" y="130.387" xlink:href="#d"/>
<use x="282.68408" y="130.387" xlink:href="#c"/>
<use x="288.89308" y="130.387" xlink:href="#i"/>
<use x="292.68708" y="130.387" xlink:href="#u"/>
<use x="243.52488" y="178.6218" xlink:href="#l"/>
<use x="248.62788" y="178.6218" xlink:href="#k"/>
<use x="252.15588" y="178.6218" xlink:href="#p"/>
<use x="256.59388" y="178.6218" xlink:href="#d"/>
<use x="260.86388" y="178.6218" xlink:href="#z"/>
<use x="264.39188" y="178.6218" xlink:href="#d"/>
<use x="268.66188" y="178.6218" xlink:href="#h"/>
<use x="270.48188" y="178.6218" xlink:href="#a"/>
<use x="274.49288" y="178.6218" xlink:href="#c"/>
<use x="280.70188" y="178.6218" xlink:href="#e"/>
<use x="282.51488" y="178.6218" xlink:href="#n"/>
<use x="138.35388" y="178.623753" xlink:href="#ad"/>
<use x="140.25088" y="178.623753" xlink:href="#f"/>
<use x="143.35888" y="178.623753" xlink:href="#d"/>
<use x="147.62888" y="178.623753" xlink:href="#z"/>
<use x="151.15688" y="178.623753" xlink:href="#d"/>
<use x="155.42688" y="178.623753" xlink:href="#h"/>
<use x="157.24688" y="178.623753" xlink:href="#a"/>
<use x="161.25788" y="178.623753" xlink:href="#c"/>
<use x="167.46688" y="178.623753" xlink:href="#e"/>
<use x="169.27988" y="178.623753" xlink:href="#n"/>
</g>
<path d="m201.5 230.2h-92v-28.75h92v28.75" fill="#fef0ca"/>
<path transform="matrix(.1 0 0 -.1 0 246.2)" d="m2015 159h-920v287.5h920z" fill="none" stroke="#231f1f" stroke-width="5"/>
<g fill="#231f1f">
<use x="140.804" y="213.1238" xlink:href="#ai"/>
<use x="147.125" y="213.1238" xlink:href="#a"/>
<use x="151.09402" y="213.1238" xlink:href="#i"/>
<use x="154.88802" y="213.1238" xlink:href="#f"/>
<use x="157.99602" y="213.1238" xlink:href="#q"/>
<use x="162.07002" y="213.1238" xlink:href="#g"/>
<use x="164.478092" y="213.1238" xlink:href="#a"/>
<use x="168.489092" y="213.1238" xlink:href="#b"/>
<use x="129.9263" y="221.5238" xlink:href="#q"/>
<use x="134.0003" y="221.5238" xlink:href="#g"/>
<use x="136.5343" y="221.5238" xlink:href="#e"/>
<use x="138.3473" y="221.5238" xlink:href="#r"/>
<use x="142.4213" y="221.5238" xlink:href="#a"/>
<use x="146.4323" y="221.5238" xlink:href="#b"/>
<use x="148.1823" y="221.5238" xlink:href="#d"/>
<use x="152.4523" y="221.5238" xlink:href="#f"/>
<use x="155.5603" y="221.5238" xlink:href="#c"/>
<use x="161.7693" y="221.5238" xlink:href="#d"/>
<use x="166.0393" y="221.5238" xlink:href="#h"/>
<use x="167.8593" y="221.5238" xlink:href="#i"/>
<use x="171.6533" y="221.5238" xlink:href="#h"/>
<use x="173.4733" y="221.5238" xlink:href="#e"/>
<use x="175.2863" y="221.5238" xlink:href="#j"/>
<use x="177.5893" y="221.5238" xlink:href="#k"/>
</g>
<path d="m92.25 184.2h-92v-17.25h92v17.25" fill="#fef0ca"/>
<path transform="matrix(.1 0 0 -.1 0 246.2)" d="m922.5 619h-920v172.5h920z" fill="none" stroke="#231f1f" stroke-width="5"/>
<g fill="#231f1f">
<use x="23.9344" y="178.6238" xlink:href="#l"/>
<use x="29.0374" y="178.6238" xlink:href="#k"/>
<use x="32.5654" y="178.6238" xlink:href="#p"/>
<use x="37.0034" y="178.6238" xlink:href="#a"/>
<use x="41.0144" y="178.6238" xlink:href="#g"/>
<use x="43.5484" y="178.6238" xlink:href="#z"/>
<use x="47.0764" y="178.6238" xlink:href="#d"/>
<use x="51.3464" y="178.6238" xlink:href="#h"/>
<use x="53.1664" y="178.6238" xlink:href="#a"/>
<use x="57.1774" y="178.6238" xlink:href="#c"/>
<use x="63.3864" y="178.6238" xlink:href="#e"/>
<use x="65.1994" y="178.6238" xlink:href="#n"/>
</g>
<path transform="matrix(.1 0 0 -.1 0 246.2)" d="m1555 2172v-119.8" fill="none" stroke="#231f1f" stroke-width="5"/>
<path d="m155.5 44.51c-0.6328-1.707-1.711-3.82-2.852-5.129l2.852 1.031 2.852-1.031c-1.141 1.309-2.219 3.422-2.852 5.129" fill="#231f1f"/>
<path d="m155.5 44.51c-0.6328-1.707-1.711-3.82-2.852-5.129l2.852 1.031 2.852-1.031c-1.141 1.309-2.219 3.422-2.852 5.129" fill="#231f1f"/>
<path transform="matrix(.1 0 0 -.1 0 246.2)" d="m1555 1715v-119.8" fill="none" stroke="#231f1f" stroke-width="5"/>
<path d="m155.5 90.26c-0.6328-1.707-1.711-3.82-2.852-5.129l2.852 1.031 2.852-1.031c-1.141 1.309-2.219 3.422-2.852 5.129" fill="#231f1f"/>
<path d="m155.5 90.26c-0.6328-1.707-1.711-3.82-2.852-5.129l2.852 1.031 2.852-1.031c-1.141 1.309-2.219 3.422-2.852 5.129" fill="#231f1f"/>
<path transform="matrix(.1 0 0 -.1 0 246.2)" d="m462.5 1598v262.3h2185v-262.3" fill="none" stroke="#231f1f" stroke-width="5"/>
<path d="m264.8 90.01c-0.6328-1.707-1.711-3.82-2.855-5.129l2.855 1.031 2.855-1.031c-1.145 1.309-2.223 3.422-2.855 5.129" fill="#231f1f"/>
<path d="m46.25 90.01c-0.6328-1.707-1.711-3.82-2.852-5.129l2.852 1.031 2.852-1.031c-1.141 1.309-2.219 3.422-2.852 5.129" fill="#231f1f"/>
<path transform="matrix(.1 0 0 -.1 0 246.2)" d="m1555 1263v-419.5" fill="none" stroke="#231f1f" stroke-width="5"/>
<path d="m155.5 165.4c-0.6328-1.703-1.711-3.816-2.852-5.129l2.852 1.031 2.852-1.031c-1.141 1.312-2.219 3.426-2.852 5.129" fill="#231f1f"/>
<path d="m155.5 165.4c-0.6328-1.703-1.711-3.816-2.852-5.129l2.852 1.031 2.852-1.031c-1.141 1.312-2.219 3.426-2.852 5.129" fill="#231f1f"/>
<path transform="matrix(.1 0 0 -.1 0 246.2)" d="m462.5 844v120h2185v-120" fill="none" stroke="#231f1f" stroke-width="5"/>
<path d="m264.8 165.4c-0.6328-1.703-1.711-3.816-2.855-5.129l2.855 1.031 2.855-1.031c-1.145 1.312-2.223 3.426-2.855 5.129" fill="#231f1f"/>
<path d="m46.25 165.4c-0.6328-1.703-1.711-3.816-2.852-5.129l2.852 1.031 2.852-1.031c-1.141 1.312-2.219 3.426-2.852 5.129" fill="#231f1f"/>
<path transform="matrix(.1 0 0 -.1 0 246.2)" d="m1095 303h-183.8" fill="none" stroke="#231f1f" stroke-width="5"/>
<path d="m87.5 215.9c1.703-0.6289 3.816-1.711 5.129-2.852l-1.031 2.852 1.031 2.855c-1.312-1.145-3.426-2.223-5.129-2.855" fill="#231f1f"/>
<path transform="matrix(.1 0 0 -.1 0 246.2)" d="m1555 621.5v-120" fill="none" stroke="#231f1f" stroke-width="5"/>
<path d="m155.5 199.6c-0.6328-1.703-1.711-3.816-2.852-5.129l2.852 1.031 2.852-1.031c-1.141 1.312-2.219 3.426-2.852 5.129" fill="#231f1f"/>
<path transform="matrix(.1 0 0 -.1 0 246.2)" d="m2012 302.9h186.3" fill="none" stroke="#231f1f" stroke-width="5"/>
<path d="m223.5 215.9c-1.703 0.6289-3.816 1.707-5.129 2.852l1.031-2.852-1.031-2.855c1.312 1.145 3.426 2.223 5.129 2.855" fill="#231f1f"/>
<g fill="#231f1f">
<use x="234.439" y="218.448" xlink:href="#am"/>
<use x="239.101" y="218.448" xlink:href="#ac"/>
<use x="243.266" y="218.448" xlink:href="#y"/>
<use x="247.431" y="218.448" xlink:href="#y"/>
<use x="251.596" y="218.448" xlink:href="#b"/>
<use x="253.346" y="218.448" xlink:href="#c"/>
<use x="259.555" y="218.448" xlink:href="#m"/>
<use x="265.498" y="218.448" xlink:href="#f"/>
<use x="268.606" y="218.448" xlink:href="#c"/>
<use x="274.815" y="218.448" xlink:href="#t"/>
<use x="277.475" y="218.448" xlink:href="#s"/>
<use x="281.164" y="218.448" xlink:href="#o"/>
<use x="285.588" y="218.448" xlink:href="#b"/>
<use x="287.338" y="218.448" xlink:href="#l"/>
<use x="292.4398" y="220.77886" xlink:href="#x"/>
<use x="294.86793" y="218.448" xlink:href="#m"/>
</g>
<path d="m86.5 224.5h-86.25v-17.25h86.25v17.25" fill="#fef0ca"/>
<path transform="matrix(.1 0 0 -.1 0 246.2)" d="m865 216.5h-862.5v172.5h862.5z" fill="none" stroke="#231f1f" stroke-width="5"/>
<g fill="#231f1f">
<use x="10.1891" y="218.448" xlink:href="#af"/>
<use x="14.8511" y="218.448" xlink:href="#ac"/>
<use x="19.0161" y="218.448" xlink:href="#y"/>
<use x="23.1811" y="218.448" xlink:href="#y"/>
<use x="27.3461" y="218.448" xlink:href="#b"/>
<use x="29.0961" y="218.448" xlink:href="#c"/>
<use x="35.3051" y="218.448" xlink:href="#m"/>
<use x="41.2481" y="218.448" xlink:href="#f"/>
<use x="44.3561" y="218.448" xlink:href="#c"/>
<use x="50.5651" y="218.448" xlink:href="#t"/>
<use x="53.2251" y="218.448" xlink:href="#s"/>
<use x="56.9141" y="218.448" xlink:href="#o"/>
<use x="61.3381" y="218.448" xlink:href="#b"/>
<use x="63.0881" y="218.448" xlink:href="#l"/>
<use x="68.1899" y="220.77886" xlink:href="#x"/>
<use x="70.61803" y="218.448" xlink:href="#m"/>
<use x="7.47933" y="236" xlink:href="#ao"/>
<use x="11.68633" y="236" xlink:href="#at"/>
<use x="15.193269" y="236" xlink:href="#n"/>
<use x="18.651269" y="236" xlink:href="#a"/>
<use x="22.662269" y="236" xlink:href="#f"/>
<use x="25.770269" y="236" xlink:href="#f"/>
<use x="28.878269" y="236" xlink:href="#e"/>
<use x="30.691269" y="236" xlink:href="#z"/>
<use x="34.219269" y="236" xlink:href="#a"/>
<use x="38.230269" y="236" xlink:href="#b"/>
<use x="39.980269" y="236" xlink:href="#as"/>
<use x="45.391269" y="236" xlink:href="#i"/>
<use x="49.115249" y="236" xlink:href="#j"/>
<use x="51.418249" y="236" xlink:href="#a"/>
<use x="55.429249" y="236" xlink:href="#g"/>
<use x="57.963249" y="236" xlink:href="#b"/>
<use x="59.713249" y="236" xlink:href="#e"/>
<use x="61.526249" y="236" xlink:href="#r"/>
<use x="65.60025" y="236" xlink:href="#j"/>
<use x="67.90325" y="236" xlink:href="#i"/>
<use x="71.697249" y="236" xlink:href="#s"/>
<use x="75.260273" y="236" xlink:href="#a"/>
<use x="4.78792" y="244.4" xlink:href="#ah"/>
<use x="10.11492" y="244.4" xlink:href="#a"/>
<use x="14.12592" y="244.4" xlink:href="#n"/>
<use x="17.58392" y="244.4" xlink:href="#g"/>
<use x="19.991826" y="244.4" xlink:href="#a"/>
<use x="23.960836" y="244.4" xlink:href="#i"/>
<use x="27.754836" y="244.4" xlink:href="#f"/>
<use x="30.862836" y="244.4" xlink:href="#a"/>
<use x="34.873836" y="244.4" xlink:href="#ag"/>
<use x="39.318836" y="244.4" xlink:href="#b"/>
<use x="41.068836" y="244.4" xlink:href="#f"/>
<use x="44.176836" y="244.4" xlink:href="#d"/>
<use x="48.446836" y="244.4" xlink:href="#h"/>
<use x="50.266836" y="244.4" xlink:href="#q"/>
<use x="54.340836" y="244.4" xlink:href="#j"/>
<use x="56.643836" y="244.4" xlink:href="#a"/>
<use x="60.654836" y="244.4" xlink:href="#b"/>
<use x="62.404836" y="244.4" xlink:href="#e"/>
<use x="64.217836" y="244.4" xlink:href="#r"/>
<use x="68.291836" y="244.4" xlink:href="#j"/>
<use x="70.594836" y="244.4" xlink:href="#i"/>
<use x="74.388836" y="244.4" xlink:href="#s"/>
<use x="77.951859" y="244.4" xlink:href="#a"/>
<use x="256.98192" y="236" xlink:href="#ar"/>
<use x="260.96492" y="236" xlink:href="#ad"/>
<use x="262.86192" y="236" xlink:href="#aq"/>
<use x="267.83892" y="236" xlink:href="#ah"/>
<use x="273.16592" y="236" xlink:href="#l"/>
</g>
<path d="m201.5 74.41h-92v-28.27h92v28.27" fill="#fef0ca"/>
<path transform="matrix(.1 0 0 -.1 0 246.2)" d="m2015 1717h-920v282.7h920z" fill="none" stroke="#231f1f" stroke-width="5"/>
<g fill="#231f1f">
<use x="140.783" y="57.762" xlink:href="#ai"/>
<use x="147.104" y="57.762" xlink:href="#a"/>
<use x="151.07302" y="57.762" xlink:href="#i"/>
<use x="154.86702" y="57.762" xlink:href="#f"/>
<use x="157.97502" y="57.762" xlink:href="#q"/>
<use x="162.04902" y="57.762" xlink:href="#g"/>
<use x="164.457092" y="57.762" xlink:href="#a"/>
<use x="168.468092" y="57.762" xlink:href="#b"/>
<use x="128.1896" y="66.162" xlink:href="#f"/>
<use x="131.2976" y="66.162" xlink:href="#a"/>
<use x="135.3086" y="66.162" xlink:href="#g"/>
<use x="137.8426" y="66.162" xlink:href="#q"/>
<use x="141.9166" y="66.162" xlink:href="#c"/>
<use x="148.1256" y="66.162" xlink:href="#b"/>
<use x="149.8756" y="66.162" xlink:href="#d"/>
<use x="154.1456" y="66.162" xlink:href="#f"/>
<use x="157.2536" y="66.162" xlink:href="#c"/>
<use x="163.4626" y="66.162" xlink:href="#d"/>
<use x="167.7326" y="66.162" xlink:href="#h"/>
<use x="169.5526" y="66.162" xlink:href="#i"/>
<use x="173.3466" y="66.162" xlink:href="#h"/>
<use x="175.1666" y="66.162" xlink:href="#e"/>
<use x="176.9796" y="66.162" xlink:href="#j"/>
<use x="179.2826" y="66.162" xlink:href="#k"/>
</g>
</svg>
