<?xml version="1.0" encoding="UTF-8"?>
<svg width="456.4pt" height="255.2pt" version="1.1" viewBox="0 0 456.4 255.2" xmlns="http://www.w3.org/2000/svg">
<defs>
<clipPath id="d">
<path d="m210 208h76v47.18h-76z"/>
</clipPath>
<clipPath id="c">
<path d="m292 208h81v47.18h-81z"/>
</clipPath>
<clipPath id="b">
<path d="m381 209h75.41v46h-75.41z"/>
</clipPath>
<clipPath id="a">
<path d="m381 208h75.41v47.18h-75.41z"/>
</clipPath>
</defs>
<path transform="matrix(.1 0 0 -.1 0 255.2)" d="m3352 2045h-2415" fill="none" stroke="#0f0e0c" stroke-width="5"/>
<path transform="matrix(.1 0 0 -.1 0 255.2)" d="m939.5 2047v-182.5" fill="none" stroke="#0f0e0c" stroke-width="5"/>
<path d="m93.95 72.37c-0.6289-1.703-1.711-3.82-2.848-5.133l2.848 1.031 2.852-1.031c-1.141 1.312-2.211 3.43-2.852 5.133" fill="#0f0e0c"/>
<path d="m255.6 40.97h-82.51v-40.71h82.51v40.71" fill="#fef0ca"/>
<path transform="matrix(.1 0 0 -.1 0 255.2)" d="m2556 2142h-825.1v407.1h825.1z" fill="none" stroke="#231f1f" stroke-width="5"/>
<path d="m186.9 14.84h-0.6914v-4.957h3.094v0.6094h-2.402v1.539h2.25v0.5977h-2.25v2.211" fill="#231f1f"/>
<path d="m190.7 14.84h-0.6602v-3.32h0.6602zm-0.332-4.098c-0.2344 0-0.4336-0.1875-0.4336-0.418 0-0.2383 0.1992-0.4297 0.4336-0.4297 0.2383 0 0.4414 0.1836 0.4414 0.4297 0 0.2383-0.2031 0.418-0.4414 0.418" fill="#231f1f"/>
<path d="m191.8 11.52h0.625c0.01563 0.168 0.02734 0.4219 0.02734 0.5625h0.01953c0.1836-0.3867 0.5703-0.6523 1.02-0.6523 0.08984 0 0.1797 0.007812 0.2578 0.02734l-0.02734 0.6094c-0.08594-0.01953-0.1953-0.03516-0.3008-0.03516-0.6328 0-0.9336 0.5117-0.9336 1.066v1.742h-0.6562v-2.605c0-0.1758-0.007812-0.4961-0.03125-0.7148" fill="#231f1f"/>
<path d="m196.2 12.36c-0.1445-0.2344-0.4336-0.4102-0.7695-0.4102-0.3008 0-0.6172 0.1172-0.6172 0.4336 0 0.2773 0.2539 0.3828 0.7578 0.4961 0.6289 0.1406 1.113 0.3984 1.113 0.9805 0 0.7852-0.6523 1.07-1.324 1.07-0.5039 0-1.023-0.1953-1.34-0.5938l0.4727-0.3984c0.1758 0.2578 0.5117 0.4609 0.8828 0.4609 0.3281 0 0.6562-0.1172 0.6562-0.4805 0-0.3086-0.3008-0.4219-0.8672-0.5547-0.4414-0.1055-0.9648-0.293-0.9648-0.918 0-0.7148 0.6211-1.016 1.25-1.016 0.4688 0 0.9688 0.1875 1.207 0.5469l-0.457 0.3828" fill="#231f1f"/>
<path d="m199.1 12.06h-0.8828v1.73c0 0.3984 0.1406 0.5625 0.4688 0.5625 0.1172 0 0.2734-0.03125 0.3867-0.08594l0.01953 0.5391c-0.1562 0.05859-0.3555 0.08984-0.5586 0.08984-0.625 0-0.9688-0.3477-0.9688-1.035v-1.801h-0.6367v-0.5391h0.6367v-0.9531h0.6523v0.9531h0.8828v0.5391" fill="#231f1f"/>
<path d="m202.2 14.84h-0.6602v-5.293h0.6602v5.293" fill="#231f1f"/>
<path d="m204 14.84h-0.6602v-3.32h0.6602zm-0.332-4.098c-0.2344 0-0.4336-0.1875-0.4336-0.418 0-0.2383 0.1992-0.4297 0.4336-0.4297 0.2383 0 0.4414 0.1836 0.4414 0.4297 0 0.2383-0.2031 0.418-0.4414 0.418" fill="#231f1f"/>
<path d="m205.8 11.52c0.01172 0.168 0.02734 0.4062 0.02734 0.5469h0.01953c0.1641-0.3555 0.6055-0.6367 1.078-0.6367 0.8555 0 1.242 0.6094 1.242 1.352v2.059h-0.6602v-1.84c0-0.5391-0.1445-1.016-0.7539-1.016-0.5195 0-0.8906 0.4336-0.8906 1.09v1.766h-0.6562v-2.605c0-0.1758-0.007813-0.4961-0.03125-0.7148h0.625" fill="#231f1f"/>
<path d="m211.7 12.89c-0.01172-0.5273-0.3203-0.9375-0.9297-0.9375-0.5664 0-1.004 0.418-1.043 0.9375zm0.6602 0.4883h-2.633c0.01953 0.5703 0.4961 1.012 1.078 1.012 0.4492 0 0.7773-0.2266 0.9688-0.5039l0.4609 0.3711c-0.3594 0.4609-0.8438 0.6758-1.43 0.6758-1.008 0-1.75-0.6992-1.75-1.742 0-1.035 0.7422-1.758 1.715-1.758 0.9805 0 1.598 0.6641 1.598 1.723 0 0.07031 0 0.1484-0.007812 0.2227" fill="#231f1f"/>
<path d="m213.7 14.89c-0.2578 0-0.4688-0.2109-0.4688-0.457 0-0.25 0.2031-0.4609 0.4688-0.4609s0.4688 0.2031 0.4688 0.457c0 0.2422-0.2031 0.4609-0.4688 0.4609zm0-2.488c-0.2578 0-0.4688-0.2031-0.4688-0.4531 0-0.2461 0.2031-0.4609 0.4688-0.4609s0.4688 0.207 0.4688 0.4531c0 0.2539-0.2031 0.4609-0.4688 0.4609" fill="#231f1f"/>
<path d="m217.8 14.84h-0.6602v-5.293h0.6602v5.293" fill="#231f1f"/>
<path d="m219.6 14.84h-0.6602v-3.32h0.6602zm-0.3281-4.098c-0.2383 0-0.4336-0.1875-0.4336-0.418 0-0.2383 0.1953-0.4297 0.4336-0.4297s0.4414 0.1836 0.4414 0.4297c0 0.2383-0.2031 0.418-0.4414 0.418" fill="#231f1f"/>
<path d="m222.3 12.06h-0.7695v2.781h-0.6562v-2.781h-0.6602v-0.5391h0.6602v-0.6914c0-0.7773 0.3438-1.367 1.238-1.367 0.1523 0 0.2891 0.01562 0.4141 0.05078l-0.07812 0.5664c-0.09766-0.02734-0.2031-0.05078-0.3281-0.05078-0.4961 0-0.5898 0.3945-0.5898 0.8008v0.6914h0.7695v0.5391" fill="#231f1f"/>
<path d="m225.3 12.89c-0.01562-0.5273-0.3242-0.9375-0.9336-0.9375-0.5664 0-1.004 0.418-1.043 0.9375zm0.6562 0.4883h-2.633c0.01953 0.5703 0.4961 1.012 1.078 1.012 0.4492 0 0.7773-0.2266 0.9648-0.5039l0.4648 0.3711c-0.3594 0.4609-0.8438 0.6758-1.43 0.6758-1.008 0-1.75-0.6992-1.75-1.742 0-1.035 0.7422-1.758 1.715-1.758 0.9805 0 1.598 0.6641 1.598 1.723 0 0.07031 0 0.1484-0.007813 0.2227" fill="#231f1f"/>
<path d="m228.7 12.36c-0.1484-0.2344-0.4336-0.4102-0.7695-0.4102-0.3008 0-0.6172 0.1172-0.6172 0.4336 0 0.2773 0.2539 0.3828 0.7578 0.4961 0.6289 0.1406 1.113 0.3984 1.113 0.9805 0 0.7852-0.6523 1.07-1.324 1.07-0.5039 0-1.023-0.1953-1.34-0.5938l0.4727-0.3984c0.1719 0.2578 0.5117 0.4609 0.8828 0.4609 0.3281 0 0.6562-0.1172 0.6562-0.4805 0-0.3086-0.3008-0.4219-0.8672-0.5547-0.4414-0.1055-0.9648-0.293-0.9648-0.918 0-0.7148 0.6211-1.016 1.254-1.016 0.4648 0 0.9648 0.1875 1.203 0.5469l-0.457 0.3828" fill="#231f1f"/>
<path d="m231.7 12.06h-0.8828v1.73c0 0.3984 0.1406 0.5625 0.4688 0.5625 0.1172 0 0.2734-0.03125 0.3867-0.08594l0.01953 0.5391c-0.1562 0.05859-0.3555 0.08984-0.5586 0.08984-0.625 0-0.9688-0.3477-0.9688-1.035v-1.801h-0.6367v-0.5391h0.6367v-0.9531h0.6523v0.9531h0.8828v0.5391" fill="#231f1f"/>
<path d="m233.6 14.13h0.01172l0.918-2.605h0.7031l-1.613 4.105c-0.2148 0.5547-0.4961 0.8945-1.148 0.8945-0.1406 0-0.2852-0.01172-0.4336-0.04688l0.0625-0.582c0.1055 0.03516 0.2266 0.05469 0.332 0.05469 0.3398 0 0.4727-0.1953 0.6133-0.5508l0.2109-0.5547-1.422-3.32h0.7344l1.031 2.605" fill="#231f1f"/>
<path d="m236.5 14.84h-0.6562v-5.293h0.6562v5.293" fill="#231f1f"/>
<path d="m240.1 12.89c-0.01563-0.5273-0.3242-0.9375-0.9336-0.9375-0.5664 0-1 0.418-1.043 0.9375zm0.6562 0.4883h-2.633c0.01953 0.5703 0.4961 1.012 1.078 1.012 0.4492 0 0.7773-0.2266 0.9648-0.5039l0.4648 0.3711c-0.3594 0.4609-0.8398 0.6758-1.43 0.6758-1.008 0-1.75-0.6992-1.75-1.742 0-1.035 0.7422-1.758 1.715-1.758 0.9805 0 1.598 0.6641 1.598 1.723 0 0.07031 0 0.1484-0.007812 0.2227" fill="#231f1f"/>
<path d="m186.9 19.84c0.4414 0 0.8281 0.1953 1.031 0.6641 0.2227-0.4297 0.6562-0.6641 1.125-0.6641 0.8555 0 1.242 0.6055 1.242 1.348v2.062h-0.6602v-1.844c0-0.5391-0.1602-1.016-0.7344-1.016-0.6016 0-0.8398 0.5469-0.8398 1.066v1.793h-0.6602v-1.977c0-0.5195-0.1758-0.8828-0.6992-0.8828-0.4844 0-0.8477 0.4336-0.8477 1.094v1.766h-0.6602v-2.605c0-0.1758-0.007812-0.5-0.02734-0.7148h0.625c0.01172 0.168 0.02734 0.4062 0.02734 0.5469h0.01953c0.168-0.3516 0.5547-0.6367 1.059-0.6367" fill="#231f1f"/>
<path d="m192.9 20.38c-0.707 0-1.105 0.5703-1.105 1.199 0 0.6328 0.3984 1.203 1.105 1.203 0.7148 0 1.109-0.5703 1.109-1.203 0-0.6289-0.3945-1.199-1.109-1.199zm0 2.957c-1.012 0-1.785-0.7344-1.785-1.758s0.7734-1.742 1.785-1.742c1.016 0 1.793 0.7188 1.793 1.742s-0.7773 1.758-1.793 1.758" fill="#231f1f"/>
<path d="m197.2 22.78c0.6719 0 1.121-0.5586 1.121-1.195 0-0.6367-0.4492-1.207-1.121-1.207-0.7227 0-1.102 0.5742-1.102 1.199 0 0.6211 0.3789 1.203 1.102 1.203zm-0.1133 0.5547c-1.023 0-1.676-0.7852-1.676-1.758 0-0.9805 0.6758-1.742 1.668-1.742 0.5391 0 0.9531 0.2656 1.184 0.5859h0.01562v-2.473h0.6562v5.297h-0.6367v-0.5273h-0.01172c-0.2539 0.3984-0.7305 0.6172-1.199 0.6172" fill="#231f1f"/>
<path d="m200.7 23.25h-0.6562v-3.32h0.6562zm-0.3281-4.098c-0.2383 0-0.4336-0.1875-0.4336-0.4219 0-0.2383 0.1953-0.4258 0.4336-0.4258s0.4414 0.1797 0.4414 0.4258c0 0.2383-0.2031 0.4219-0.4414 0.4219" fill="#231f1f"/>
<path d="m204.8 23.25h-0.6602v-3.32h0.6602zm-0.3281-4.098c-0.2383 0-0.4336-0.1875-0.4336-0.4219 0-0.2383 0.1953-0.4258 0.4336-0.4258s0.4414 0.1797 0.4414 0.4258c0 0.2383-0.2031 0.4219-0.4414 0.4219zm-0.9805 1.316h-0.7695v2.781h-0.6602v-2.781h-0.6602v-0.5391h0.6602v-0.6953c0-0.7773 0.3438-1.363 1.238-1.363 0.1562 0 0.2891 0.01172 0.4141 0.04687l-0.07813 0.5664c-0.09766-0.02734-0.2031-0.04688-0.3281-0.04688-0.4961 0-0.5859 0.3906-0.5859 0.7969v0.6953h0.7695v0.5391" fill="#231f1f"/>
<path d="m208.2 20.77c-0.1406-0.2188-0.4492-0.3789-0.7656-0.3789-0.6836 0-1.086 0.5625-1.086 1.199 0 0.6289 0.4023 1.195 1.094 1.195 0.3359 0 0.625-0.1406 0.8008-0.3633l0.4414 0.3984c-0.2812 0.3242-0.7109 0.5195-1.242 0.5195-1.02 0-1.785-0.6953-1.785-1.75 0-1.043 0.7539-1.75 1.773-1.75 0.4688 0 0.9727 0.1875 1.246 0.543l-0.4766 0.3867" fill="#231f1f"/>
<path d="m211.3 21.66c-0.6523 0-1.477 0.07031-1.477 0.6328 0 0.3906 0.3516 0.5156 0.6797 0.5156 0.6172 0 0.9609-0.4102 0.9609-0.9727v-0.1758zm0.1641-0.5664c0-0.4883-0.332-0.7266-0.8203-0.7266-0.3711 0-0.7227 0.1602-0.9453 0.3828l-0.3516-0.418c0.3242-0.3086 0.8203-0.4961 1.359-0.4961 0.9531 0 1.387 0.5664 1.387 1.301v1.449c0 0.2227 0.01172 0.5 0.05078 0.6602h-0.5977c-0.03516-0.1484-0.05469-0.3242-0.05469-0.4766h-0.02344c-0.2383 0.3555-0.6172 0.5586-1.113 0.5586-0.5234 0-1.203-0.2578-1.203-1.023 0-1 1.191-1.121 2.312-1.121v-0.08984" fill="#231f1f"/>
<path d="m214.7 20.46h-0.8828v1.73c0 0.3984 0.1406 0.5586 0.4688 0.5586 0.1211 0 0.2734-0.02734 0.3867-0.08203l0.01953 0.5391c-0.1523 0.05469-0.3555 0.08984-0.5586 0.08984-0.625 0-0.9688-0.3516-0.9688-1.035v-1.801h-0.6367v-0.5391h0.6367v-0.9531h0.6523v0.9531h0.8828v0.5391" fill="#231f1f"/>
<path d="m216.1 23.25h-0.6602v-3.32h0.6602zm-0.3281-4.098c-0.2383 0-0.4336-0.1875-0.4336-0.4219 0-0.2383 0.1953-0.4258 0.4336-0.4258s0.4414 0.1797 0.4414 0.4258c0 0.2383-0.2031 0.4219-0.4414 0.4219" fill="#231f1f"/>
<path d="m218.8 20.38c-0.707 0-1.105 0.5703-1.105 1.199 0 0.6328 0.3984 1.203 1.105 1.203 0.7148 0 1.109-0.5703 1.109-1.203 0-0.6289-0.3945-1.199-1.109-1.199zm0 2.957c-1.016 0-1.785-0.7344-1.785-1.758s0.7695-1.742 1.785-1.742 1.793 0.7188 1.793 1.742-0.7773 1.758-1.793 1.758" fill="#231f1f"/>
<path d="m222.1 19.93c0.01562 0.168 0.02734 0.4062 0.02734 0.5469h0.02344c0.1602-0.3594 0.6016-0.6367 1.078-0.6367 0.8555 0 1.238 0.6055 1.238 1.348v2.062h-0.6562v-1.844c0-0.5391-0.1484-1.016-0.7578-1.016-0.5156 0-0.8906 0.4336-0.8906 1.094v1.766h-0.6562v-2.605c0-0.1758-0.007813-0.5-0.02734-0.7148h0.6211" fill="#231f1f"/>
<path d="m227.3 20.77c-0.1484-0.2383-0.4375-0.4141-0.7734-0.4141-0.3008 0-0.6133 0.1211-0.6133 0.4336 0 0.2812 0.25 0.3867 0.7539 0.5 0.6328 0.1367 1.113 0.3984 1.113 0.9805 0 0.7812-0.6484 1.07-1.32 1.07-0.5039 0-1.023-0.1953-1.34-0.5938l0.4688-0.4023c0.1758 0.2617 0.5117 0.4648 0.8828 0.4648 0.3281 0 0.6602-0.1211 0.6602-0.4844 0-0.3086-0.3008-0.4219-0.8711-0.5547-0.4414-0.1055-0.9648-0.293-0.9648-0.918 0-0.7109 0.625-1.012 1.254-1.012 0.4688 0 0.9648 0.1875 1.203 0.543l-0.4531 0.3867" fill="#231f1f"/>
<path d="m232.3 21.66c-0.6523 0-1.477 0.07031-1.477 0.6328 0 0.3906 0.3477 0.5156 0.6797 0.5156 0.6172 0 0.957-0.4102 0.957-0.9727v-0.1758zm0.1602-0.5664c0-0.4883-0.3281-0.7266-0.8164-0.7266-0.375 0-0.7227 0.1602-0.9453 0.3828l-0.3516-0.418c0.3203-0.3086 0.8203-0.4961 1.359-0.4961 0.9531 0 1.387 0.5664 1.387 1.301v1.449c0 0.2227 0.01172 0.5 0.04688 0.6602h-0.5938c-0.03516-0.1484-0.05469-0.3242-0.05469-0.4766h-0.02344c-0.2383 0.3555-0.6172 0.5586-1.113 0.5586-0.5234 0-1.203-0.2578-1.203-1.023 0-1 1.188-1.121 2.309-1.121v-0.08984" fill="#231f1f"/>
<path d="m234.8 19.93c0.01562 0.168 0.02734 0.4062 0.02734 0.5469h0.02344c0.1602-0.3594 0.6016-0.6367 1.078-0.6367 0.8516 0 1.238 0.6055 1.238 1.348v2.062h-0.6562v-1.844c0-0.5391-0.1484-1.016-0.7578-1.016-0.5195 0-0.8906 0.4336-0.8906 1.094v1.766h-0.6562v-2.605c0-0.1758-0.007812-0.5-0.02734-0.7148h0.6211" fill="#231f1f"/>
<path d="m239.8 22.78c0.6719 0 1.121-0.5586 1.121-1.195 0-0.6367-0.4492-1.207-1.121-1.207-0.7188 0-1.098 0.5742-1.098 1.199 0 0.6211 0.3789 1.203 1.098 1.203zm-0.1094 0.5547c-1.023 0-1.676-0.7852-1.676-1.758 0-0.9805 0.6719-1.742 1.668-1.742 0.5391 0 0.9531 0.2656 1.184 0.5859h0.01562v-2.473h0.6562v5.297h-0.6367v-0.5273h-0.01562c-0.25 0.3984-0.7266 0.6172-1.195 0.6172" fill="#231f1f"/>
<path d="m199.7 28.23c0.4414 0 0.8242 0.1953 1.027 0.6641 0.2266-0.4258 0.6602-0.6641 1.129-0.6641 0.8555 0 1.238 0.6094 1.238 1.352v2.059h-0.6562v-1.844c0-0.5391-0.1602-1.016-0.7344-1.016-0.6055 0-0.8438 0.5469-0.8438 1.066v1.793h-0.6562v-1.977c0-0.5156-0.1758-0.8828-0.6992-0.8828-0.4844 0-0.8477 0.4375-0.8477 1.094v1.766h-0.6602v-2.605c0-0.1758-0.007812-0.4961-0.02734-0.7148h0.6211c0.01562 0.168 0.03125 0.4062 0.03125 0.5469h0.01953c0.168-0.3516 0.5547-0.6367 1.059-0.6367" fill="#231f1f"/>
<path d="m206.7 29.69c-0.01562-0.5273-0.3242-0.9414-0.9336-0.9414-0.5664 0-1 0.4219-1.043 0.9414zm0.6562 0.4883h-2.633c0.01953 0.5664 0.4961 1.008 1.078 1.008 0.4492 0 0.7773-0.2227 0.9688-0.5039l0.4609 0.3711c-0.3555 0.4648-0.8398 0.6797-1.43 0.6797-1.008 0-1.75-0.6992-1.75-1.742 0-1.039 0.7422-1.758 1.715-1.758 0.9805 0 1.598 0.6641 1.598 1.723 0 0.07031 0 0.1445-0.007813 0.2227" fill="#231f1f"/>
<path d="m209.9 28.86h-0.8828v1.73c0 0.3984 0.1406 0.5586 0.4688 0.5586 0.1211 0 0.2734-0.02734 0.3867-0.08203l0.01953 0.5391c-0.1523 0.05469-0.3555 0.08984-0.5586 0.08984-0.6211 0-0.9688-0.3477-0.9688-1.035v-1.801h-0.6367v-0.5391h0.6367v-0.9531h0.6523v0.9531h0.8828v0.5391" fill="#231f1f"/>
<path d="m212.1 28.86h-0.7695v2.781h-0.6602v-2.781h-0.6602v-0.5391h0.6602v-0.6914c0-0.7812 0.3438-1.367 1.238-1.367 0.1562 0 0.2891 0.01172 0.4141 0.04688l-0.07422 0.5703c-0.1016-0.03125-0.2031-0.05078-0.332-0.05078-0.4961 0-0.5859 0.3945-0.5859 0.8008v0.6914h0.7695v0.5391" fill="#231f1f"/>
<path d="m214.3 28.78c-0.707 0-1.105 0.5664-1.105 1.195 0 0.6328 0.3984 1.207 1.105 1.207 0.7148 0 1.105-0.5742 1.105-1.207 0-0.6289-0.3906-1.195-1.105-1.195zm0 2.953c-1.016 0-1.785-0.7344-1.785-1.758 0-1.023 0.7695-1.742 1.785-1.742s1.793 0.7188 1.793 1.742c0 1.023-0.7773 1.758-1.793 1.758" fill="#231f1f"/>
<path d="m217 28.32h0.625c0.01562 0.168 0.02734 0.4219 0.02734 0.5586h0.02344c0.1797-0.3828 0.5664-0.6484 1.012-0.6484 0.09375 0 0.1836 0.003906 0.2617 0.02734l-0.03125 0.6094c-0.08203-0.02344-0.1914-0.03516-0.3008-0.03516-0.6289 0-0.9297 0.5117-0.9297 1.062v1.746h-0.6602v-2.605c0-0.1758-0.003907-0.4961-0.02734-0.7148" fill="#231f1f"/>
<path d="m221.2 28.23c0.4414 0 0.8281 0.1953 1.027 0.6641 0.2266-0.4258 0.6602-0.6641 1.129-0.6641 0.8555 0 1.238 0.6094 1.238 1.352v2.059h-0.6562v-1.844c0-0.5391-0.1602-1.016-0.7344-1.016-0.6055 0-0.8398 0.5469-0.8398 1.066v1.793h-0.6602v-1.977c0-0.5156-0.1758-0.8828-0.6992-0.8828-0.4844 0-0.8477 0.4375-0.8477 1.094v1.766h-0.6602v-2.605c0-0.1758-0.003906-0.4961-0.02734-0.7148h0.625c0.01172 0.168 0.02734 0.4062 0.02734 0.5469h0.01953c0.168-0.3516 0.5547-0.6367 1.059-0.6367" fill="#231f1f"/>
<path d="m226.4 31.64h-0.6602v-3.32h0.6602zm-0.3281-4.098c-0.2383 0-0.4336-0.1875-0.4336-0.4219 0-0.2383 0.1953-0.4258 0.4336-0.4258s0.4414 0.1836 0.4414 0.4258c0 0.2383-0.2031 0.4219-0.4414 0.4219" fill="#231f1f"/>
<path d="m228.1 28.32c0.01172 0.168 0.02344 0.4062 0.02344 0.5469h0.02344c0.1602-0.3594 0.6016-0.6367 1.078-0.6367 0.8555 0 1.242 0.6094 1.242 1.352v2.059h-0.6602v-1.844c0-0.5391-0.1484-1.016-0.7578-1.016-0.5195 0-0.8906 0.4375-0.8906 1.094v1.766h-0.6562v-2.605c0-0.1758-0.007812-0.4961-0.02734-0.7148h0.625" fill="#231f1f"/>
<path d="m56.23 73.16h74.37v40.71h-74.37v-40.71" fill="#fdf2cb"/>
<path transform="matrix(.1 0 0 -.1 0 255.2)" d="m562.3 1820h743.7v-407.1h-743.7z" fill="none" stroke="#0f0e0c" stroke-width="5"/>
<path d="m110.2 146.4h74.37v40.71h-74.37v-40.71" fill="#fdf2cb"/>
<path transform="matrix(.1 0 0 -.1 0 255.2)" d="m1102 1088h743.7v-407.1h-743.7z" fill="none" stroke="#0f0e0c" stroke-width="5"/>
<path d="m0.25 146.4h74.37v40.71h-74.37v-40.71" fill="#fdf2cb"/>
<path transform="matrix(.1 0 0 -.1 0 255.2)" d="m2.5 1088h743.7v-407.1h-743.7z" fill="none" stroke="#0f0e0c" stroke-width="5"/>
<path d="m70.69 89.94h1.855l-0.9258-2.328zm-0.7422 1.828h-0.7734l2.152-4.961h0.6289l2.129 4.961h-0.7852l-0.5039-1.219h-2.352l-0.4961 1.219" fill="#231f1f"/>
<path d="m77.19 87.73c-0.1992-0.2734-0.5547-0.4609-0.9688-0.4609-0.4453 0-0.9648 0.2461-0.9648 0.8047 0 0.5391 0.4531 0.6875 1.016 0.8672 0.6641 0.2109 1.457 0.4648 1.457 1.449 0 1.031-0.8359 1.508-1.715 1.508-0.625 0-1.254-0.2461-1.633-0.7227l0.5391-0.4531c0.2305 0.3438 0.6523 0.582 1.105 0.582 0.4609 0 0.9961-0.2617 0.9961-0.8516 0-0.6016-0.5469-0.7617-1.176-0.957-0.6328-0.1953-1.293-0.4844-1.293-1.395 0-0.9883 0.8828-1.414 1.703-1.414 0.5742 0 1.113 0.2227 1.422 0.5664l-0.4883 0.4766" fill="#231f1f"/>
<path d="m82.96 91c-0.3867 0.5273-1.023 0.8984-1.895 0.8984-1.52 0-2.609-1.086-2.609-2.613 0-1.547 1.133-2.598 2.641-2.598 0.6797 0 1.414 0.2656 1.777 0.7695l-0.5469 0.4219c-0.2383-0.3359-0.7227-0.582-1.23-0.582-1.148 0-1.887 0.9023-1.887 1.988 0 1.113 0.7227 1.996 1.863 1.996 0.5547 0 1.039-0.2305 1.332-0.6562l0.5547 0.375" fill="#231f1f"/>
<path d="m85.3 90.87h0.02344l1.492-4.062h0.7461l-1.945 4.961h-0.6445l-1.934-4.961h0.7695l1.492 4.062" fill="#231f1f"/>
<path d="m88.85 91.16h0.8672c1.199 0 2.074-0.6875 2.074-1.871 0-1.227-0.875-1.879-2.074-1.879h-0.8672zm-0.6914-4.352h1.699c1.27 0 2.676 0.7227 2.676 2.48 0 1.695-1.406 2.48-2.676 2.48h-1.699v-4.961" fill="#231f1f"/>
<path d="m96.77 88.9c-0.707 0-1.109 0.5703-1.109 1.199 0 0.6289 0.4023 1.203 1.109 1.203 0.7148 0 1.105-0.5742 1.105-1.203 0-0.6289-0.3906-1.199-1.105-1.199zm0 2.957c-1.016 0-1.785-0.7344-1.785-1.758 0-1.023 0.7695-1.742 1.785-1.742s1.793 0.7188 1.793 1.742c0 1.023-0.7773 1.758-1.793 1.758" fill="#231f1f"/>
<path d="m99.44 88.45h0.625c0.01172 0.168 0.02734 0.418 0.02734 0.5586h0.01953c0.1797-0.3828 0.5664-0.6484 1.016-0.6484 0.08984 0 0.1836 0.003906 0.2578 0.02734l-0.02734 0.6094c-0.08203-0.02344-0.1953-0.03516-0.3008-0.03516-0.6289 0-0.9336 0.5117-0.9336 1.062v1.746h-0.6562v-2.605c0-0.1758-0.007813-0.5-0.02734-0.7148" fill="#231f1f"/>
<path d="m103.7 88.45h0.6211c0.01562 0.168 0.02734 0.418 0.02734 0.5586h0.02344c0.1797-0.3828 0.5664-0.6484 1.016-0.6484 0.08984 0 0.1797 0.003906 0.2578 0.02734l-0.02734 0.6094c-0.08594-0.02344-0.1953-0.03516-0.3008-0.03516-0.6328 0-0.9336 0.5117-0.9336 1.062v1.746h-0.6562v-2.605c0-0.1758-0.007812-0.5-0.02734-0.7148" fill="#231f1f"/>
<path d="m106.9 91.77h-0.6602v-3.32h0.6602zm-0.332-4.098c-0.2344 0-0.4297-0.1914-0.4297-0.4219 0-0.2383 0.1953-0.4258 0.4297-0.4258 0.2422 0 0.4453 0.1797 0.4453 0.4258 0 0.2383-0.2031 0.4219-0.4453 0.4219" fill="#231f1f"/>
<path d="m109.9 89.29c-0.1484-0.2383-0.4375-0.4141-0.7734-0.4141-0.3008 0-0.6133 0.1211-0.6133 0.4336 0 0.2812 0.25 0.3867 0.7539 0.5 0.6328 0.1406 1.113 0.3984 1.113 0.9805 0 0.7812-0.6484 1.07-1.324 1.07-0.5039 0-1.02-0.1953-1.336-0.5938l0.4688-0.4023c0.1758 0.2617 0.5117 0.4648 0.8828 0.4648 0.3281 0 0.6602-0.1211 0.6602-0.4844 0-0.3086-0.3047-0.4219-0.8711-0.5547-0.4414-0.1055-0.9648-0.293-0.9648-0.918 0-0.7148 0.6211-1.012 1.254-1.012 0.4688 0 0.9648 0.1875 1.203 0.543l-0.4531 0.3867" fill="#231f1f"/>
<path d="m111.9 89.89h0.02344l1.391-1.441h0.8828l-1.555 1.504 1.688 1.816h-0.9102l-1.496-1.723h-0.02344v1.723h-0.6562v-5.297h0.6562v3.418" fill="#231f1f"/>
<path d="m115.1 92.7h-0.5586l0.4844-1.75h0.6562l-0.582 1.75" fill="#231f1f"/>
<path d="m84.77 99.4c-0.3867 0.5234-1.023 0.8984-1.895 0.8984-1.52 0-2.609-1.086-2.609-2.613 0-1.551 1.133-2.598 2.641-2.598 0.6797 0 1.414 0.2656 1.777 0.7695l-0.5469 0.418c-0.2383-0.3359-0.7227-0.582-1.23-0.582-1.148 0-1.887 0.9062-1.887 1.992 0 1.113 0.7227 1.996 1.863 1.996 0.5547 0 1.039-0.2344 1.332-0.6602l0.5547 0.3789" fill="#231f1f"/>
<path d="m86.16 97.39h0.01563l2.215-2.184h0.957l-2.406 2.27 2.555 2.688h-0.9961l-2.324-2.562h-0.01563v2.562h-0.6914v-4.957h0.6914v2.184" fill="#231f1f"/>
<path d="m90.78 99.56h0.8711c1.195 0 2.07-0.6875 2.07-1.871 0-1.223-0.875-1.875-2.07-1.875h-0.8711zm-0.6914-4.348h1.699c1.27 0 2.676 0.7188 2.676 2.477 0 1.695-1.406 2.48-2.676 2.48h-1.699v-4.957" fill="#231f1f"/>
<path d="m95.27 101.1h-0.5625l0.4844-1.754h0.6602l-0.582 1.754" fill="#231f1f"/>
<path d="m98.44 95.21h0.6914v2.07h2.508v-2.07h0.7031v4.957h-0.7031v-2.27h-2.508v2.27h-0.6914v-4.957" fill="#231f1f"/>
<path d="m104.2 100.2h-0.6953v-4.957h3.098v0.6094h-2.402v1.539h2.246v0.5977h-2.246v2.211" fill="#231f1f"/>
<path transform="matrix(.1 0 0 -.1 0 255.2)" d="m2143 2142v-97.3" fill="none" stroke="#0f0e0c" stroke-width="5"/>
<path transform="matrix(.1 0 0 -.1 0 255.2)" d="m3352 2047v-182" fill="none" stroke="#0f0e0c" stroke-width="5"/>
<path d="m335.2 72.27c-0.6289-1.695-1.707-3.809-2.848-5.117l2.848 1.027 2.852-1.027c-1.141 1.309-2.211 3.422-2.852 5.117" fill="#0f0e0c"/>
<path d="m295.1 73.16h74.37v40.71h-74.37v-40.71" fill="#fdf2cb"/>
<path transform="matrix(.1 0 0 -.1 0 255.2)" d="m2951 1820h743.7v-407.1h-743.7z" fill="none" stroke="#0f0e0c" stroke-width="5"/>
<path d="m306.5 90.77h0.01172v-3.965h0.6953v4.961h-0.875l-2.621-4.051h-0.01562v4.051h-0.6914v-4.961h0.9023l2.594 3.965" fill="#231f1f"/>
<path d="m309.9 88.9c-0.707 0-1.105 0.5703-1.105 1.199 0 0.6289 0.3984 1.203 1.105 1.203 0.7148 0 1.105-0.5742 1.105-1.203 0-0.6289-0.3906-1.199-1.105-1.199zm0 2.957c-1.016 0-1.785-0.7344-1.785-1.758 0-1.023 0.7695-1.742 1.785-1.742s1.793 0.7188 1.793 1.742c0 1.023-0.7773 1.758-1.793 1.758" fill="#231f1f"/>
<path d="m315.3 89.94h1.855l-0.9219-2.328zm-0.7422 1.828h-0.7695l2.148-4.961h0.6328l2.129 4.961h-0.7852l-0.5039-1.219h-2.352l-0.5 1.219" fill="#231f1f"/>
<path d="m321.8 87.73c-0.1992-0.2734-0.5547-0.4609-0.9688-0.4609-0.4492 0-0.9688 0.2461-0.9688 0.8047 0 0.5391 0.457 0.6875 1.02 0.8672 0.6641 0.2109 1.453 0.4648 1.453 1.449 0 1.031-0.832 1.508-1.715 1.508-0.625 0-1.254-0.2461-1.633-0.7227l0.5391-0.4531c0.2344 0.3438 0.6523 0.582 1.109 0.582 0.4609 0 0.9922-0.2617 0.9922-0.8516 0-0.6016-0.5469-0.7617-1.176-0.957-0.6289-0.1953-1.289-0.4844-1.289-1.395 0-0.9883 0.8828-1.414 1.703-1.414 0.5742 0 1.113 0.2227 1.422 0.5664l-0.4883 0.4766" fill="#231f1f"/>
<path d="m327.5 91c-0.3828 0.5273-1.023 0.8984-1.891 0.8984-1.52 0-2.613-1.086-2.613-2.613 0-1.547 1.137-2.598 2.641-2.598 0.6797 0 1.414 0.2656 1.781 0.7695l-0.5469 0.4219c-0.2383-0.3359-0.7227-0.582-1.234-0.582-1.148 0-1.883 0.9023-1.883 1.988 0 1.113 0.7227 1.996 1.863 1.996 0.5508 0 1.035-0.2305 1.332-0.6562l0.5508 0.375" fill="#231f1f"/>
<path d="m329.9 90.87h0.01953l1.492-4.062h0.75l-1.945 4.961h-0.6445l-1.934-4.961h0.7695l1.492 4.062" fill="#231f1f"/>
<path d="m333.4 91.16h0.8711c1.195 0 2.07-0.6875 2.07-1.871 0-1.227-0.875-1.879-2.07-1.879h-0.8711zm-0.6914-4.352h1.703c1.266 0 2.676 0.7227 2.676 2.48 0 1.695-1.41 2.48-2.676 2.48h-1.703v-4.961" fill="#231f1f"/>
<path d="m341.3 88.9c-0.707 0-1.105 0.5703-1.105 1.199 0 0.6289 0.3984 1.203 1.105 1.203 0.7148 0 1.109-0.5742 1.109-1.203 0-0.6289-0.3945-1.199-1.109-1.199zm0 2.957c-1.016 0-1.785-0.7344-1.785-1.758 0-1.023 0.7695-1.742 1.785-1.742s1.793 0.7188 1.793 1.742c0 1.023-0.7773 1.758-1.793 1.758" fill="#231f1f"/>
<path d="m344 88.45h0.625c0.01172 0.168 0.02344 0.418 0.02344 0.5586h0.02344c0.1797-0.3828 0.5664-0.6484 1.016-0.6484 0.08984 0 0.1797 0.003906 0.2578 0.02734l-0.02734 0.6094c-0.08203-0.02344-0.1953-0.03516-0.3008-0.03516-0.6328 0-0.9336 0.5117-0.9336 1.062v1.746h-0.6562v-2.605c0-0.1758-0.007812-0.5-0.02734-0.7148" fill="#231f1f"/>
<path d="m348.3 88.45h0.625c0.01562 0.168 0.02734 0.418 0.02734 0.5586h0.02344c0.1797-0.3828 0.5664-0.6484 1.016-0.6484 0.08984 0 0.1797 0.003906 0.2578 0.02734l-0.02734 0.6094c-0.08594-0.02344-0.1953-0.03516-0.3008-0.03516-0.6328 0-0.9336 0.5117-0.9336 1.062v1.746h-0.6562v-2.605c0-0.1758-0.007812-0.5-0.03125-0.7148" fill="#231f1f"/>
<path d="m351.5 91.77h-0.6562v-3.32h0.6562zm-0.3281-4.098c-0.2383 0-0.4336-0.1914-0.4336-0.4219 0-0.2383 0.1953-0.4258 0.4336-0.4258 0.2383 0 0.4414 0.1797 0.4414 0.4258 0 0.2383-0.2031 0.4219-0.4414 0.4219" fill="#231f1f"/>
<path d="m354.5 89.29c-0.1445-0.2383-0.4336-0.4141-0.7695-0.4141-0.3008 0-0.6172 0.1211-0.6172 0.4336 0 0.2812 0.2539 0.3867 0.7578 0.5 0.6289 0.1406 1.113 0.3984 1.113 0.9805 0 0.7812-0.6523 1.07-1.324 1.07-0.5039 0-1.02-0.1953-1.336-0.5938l0.4688-0.4023c0.1758 0.2617 0.5117 0.4648 0.8828 0.4648 0.3281 0 0.6562-0.1211 0.6562-0.4844 0-0.3086-0.3008-0.4219-0.8672-0.5547-0.4414-0.1055-0.9648-0.293-0.9648-0.918 0-0.7148 0.6211-1.012 1.254-1.012 0.4688 0 0.9648 0.1875 1.203 0.543l-0.457 0.3867" fill="#231f1f"/>
<path d="m356.4 89.89h0.02344l1.391-1.441h0.8828l-1.555 1.504 1.688 1.816h-0.9102l-1.496-1.723h-0.02344v1.723h-0.6602v-5.297h0.6602v3.418" fill="#231f1f"/>
<path d="m359.7 92.7h-0.5625l0.4844-1.75h0.6562l-0.5781 1.75" fill="#231f1f"/>
<path d="m323.7 99.4c-0.3828 0.5234-1.023 0.8984-1.891 0.8984-1.52 0-2.613-1.086-2.613-2.613 0-1.551 1.137-2.598 2.641-2.598 0.6797 0 1.414 0.2656 1.777 0.7695l-0.543 0.418c-0.2383-0.3359-0.7227-0.582-1.234-0.582-1.148 0-1.883 0.9062-1.883 1.992 0 1.113 0.7188 1.996 1.863 1.996 0.5508 0 1.035-0.2344 1.332-0.6602l0.5508 0.3789" fill="#231f1f"/>
<path d="m325.1 97.39h0.01562l2.211-2.184h0.9609l-2.41 2.27 2.555 2.688h-0.9922l-2.324-2.562h-0.01562v2.562h-0.6953v-4.957h0.6953v2.184" fill="#231f1f"/>
<path d="m329.7 99.56h0.8672c1.199 0 2.074-0.6875 2.074-1.871 0-1.223-0.875-1.875-2.074-1.875h-0.8672zm-0.6914-4.348h1.699c1.27 0 2.676 0.7188 2.676 2.477 0 1.695-1.406 2.48-2.676 2.48h-1.699v-4.957" fill="#231f1f"/>
<path d="m334.2 101.1h-0.5586l0.4844-1.754h0.6562l-0.582 1.754" fill="#231f1f"/>
<path d="m337.4 95.21h0.6953v2.07h2.508v-2.07h0.6992v4.957h-0.6992v-2.27h-2.508v2.27h-0.6953v-4.957" fill="#231f1f"/>
<path d="m343.1 100.2h-0.6914v-4.957h3.094v0.6094h-2.402v1.539h2.25v0.5977h-2.25v2.211" fill="#231f1f"/>
<path transform="matrix(.1 0 0 -.1 0 255.2)" d="m1486 1316h-1104" fill="none" stroke="#0f0e0c" stroke-width="5"/>
<path transform="matrix(.1 0 0 -.1 0 255.2)" d="m927.1 1413v-97.3" fill="none" stroke="#0f0e0c" stroke-width="5"/>
<path transform="matrix(.1 0 0 -.1 0 255.2)" d="m384.3 1316v-182.5" fill="none" stroke="#0f0e0c" stroke-width="5"/>
<path d="m38.43 145.5c-0.6289-1.699-1.711-3.82-2.848-5.129l2.848 1.027 2.852-1.027c-1.141 1.309-2.211 3.43-2.852 5.129" fill="#0f0e0c"/>
<path transform="matrix(.1 0 0 -.1 0 255.2)" d="m1484 1316v-182.5" fill="none" stroke="#0f0e0c" stroke-width="5"/>
<path d="m148.4 145.5c-0.6328-1.699-1.711-3.82-2.852-5.129l2.852 1.027 2.848-1.027c-1.137 1.309-2.211 3.43-2.848 5.129" fill="#0f0e0c"/>
<path d="m26.66 155.8c-0.293-0.3203-0.7773-0.5391-1.344-0.5391-1.164 0-1.891 0.9062-1.891 1.992 0 1.105 0.7266 1.988 1.91 1.988 0.4648 0 0.8711-0.09375 1.156-0.2461v-1.379h-1.098v-0.5898h1.785v2.402c-0.5195 0.2812-1.137 0.4336-1.863 0.4336-1.547 0-2.648-1.086-2.648-2.609 0-1.551 1.137-2.602 2.641-2.602 0.7852 0 1.43 0.2539 1.836 0.6445l-0.4844 0.5039" fill="#231f1f"/>
<path d="m29.05 159.1h2.215v0.6172h-2.906v-4.957h0.6914v4.34" fill="#231f1f"/>
<path d="m32.63 157h0.7344c0.6797 0 1.156-0.2266 1.156-0.8125 0-0.5977-0.4883-0.793-1.141-0.793h-0.75zm-0.6914-2.191h1.512c1.07 0 1.773 0.4102 1.773 1.379 0 0.9922-0.7773 1.398-1.809 1.398h-0.7852v2.18h-0.6914v-4.957" fill="#231f1f"/>
<path d="m37.18 158.3h-1.625v-0.5586h1.625v0.5586" fill="#231f1f"/>
<path d="m40.14 159.8h-0.6797v-4.133l-0.9375 0.7852-0.3984-0.4688 1.406-1.141h0.6094v4.957" fill="#231f1f"/>
<path d="m44.7 157h0.7969c0.6523 0 1.164-0.2031 1.164-0.7969s-0.5117-0.7852-1.113-0.7852h-0.8477zm0 2.789h-0.6953v-4.957h1.59c0.9609 0 1.766 0.3633 1.766 1.371 0 0.7305-0.4961 1.191-1.203 1.309l1.387 2.277h-0.8398l-1.262-2.207h-0.7422v2.207" fill="#231f1f"/>
<path d="m49.25 157.9h1.855l-0.9258-2.324zm-0.7422 1.828h-0.7734l2.152-4.957h0.6289l2.129 4.957h-0.7852l-0.5039-1.219h-2.352l-0.4961 1.219" fill="#231f1f"/>
<path d="m5.664 168.9-0.4766 0.3086c-0.6172-0.8242-1.023-1.945-1.023-3.117 0-1.168 0.4062-2.289 1.023-3.117l0.4766 0.3086c-0.5469 0.7656-0.9023 1.785-0.9023 2.809s0.3555 2.047 0.9023 2.809" fill="#231f1f"/>
<path d="m9.129 166.2c-0.01562-0.5234-0.3242-0.9375-0.9297-0.9375-0.5703 0-1.004 0.4219-1.047 0.9375zm0.6602 0.4922h-2.637c0.02344 0.5664 0.5 1.008 1.078 1.008 0.4492 0 0.7812-0.2227 0.9688-0.5039l0.4609 0.3711c-0.3555 0.4609-0.8398 0.6797-1.43 0.6797-1.008 0-1.75-0.6992-1.75-1.746 0-1.035 0.7422-1.758 1.719-1.758 0.9805 0 1.594 0.668 1.594 1.727 0 0.06641 0 0.1445-0.003907 0.2227" fill="#231f1f"/>
<path d="m12.5 165.7c-0.1484-0.2383-0.4336-0.4141-0.7734-0.4141-0.3008 0-0.6133 0.1211-0.6133 0.4336 0 0.2812 0.25 0.3867 0.7539 0.4961 0.6328 0.1406 1.113 0.4023 1.113 0.9844 0 0.7812-0.6484 1.07-1.32 1.07-0.5078 0-1.023-0.1953-1.34-0.5977l0.4688-0.3984c0.1758 0.2617 0.5117 0.4648 0.8828 0.4648 0.3281 0 0.6602-0.1211 0.6602-0.4844 0-0.3086-0.3008-0.4219-0.8711-0.5547-0.4414-0.1055-0.9648-0.293-0.9648-0.918 0-0.7109 0.6211-1.016 1.254-1.016 0.4688 0 0.9648 0.1914 1.203 0.5469l-0.4531 0.3867" fill="#231f1f"/>
<path d="m15.55 165.3c-0.6719 0-1.121 0.5664-1.121 1.203 0 0.6406 0.4492 1.199 1.121 1.199 0.7227 0 1.105-0.582 1.105-1.203 0-0.625-0.3828-1.199-1.105-1.199zm-1.078 4.547h-0.6602v-5h0.6445v0.5156h0.02344c0.2148-0.3477 0.6484-0.6094 1.195-0.6094 0.9883 0 1.66 0.7656 1.66 1.746 0 0.9727-0.6484 1.758-1.672 1.758-0.4688 0-0.9258-0.2188-1.172-0.5898h-0.01953v2.18" fill="#231f1f"/>
<path d="m20.69 166.2c-0.01562-0.5234-0.3242-0.9375-0.9336-0.9375-0.5664 0-1 0.4219-1.043 0.9375zm0.6562 0.4922h-2.633c0.01953 0.5664 0.4961 1.008 1.078 1.008 0.4492 0 0.7773-0.2227 0.9688-0.5039l0.4609 0.3711c-0.3594 0.4609-0.8398 0.6797-1.43 0.6797-1.008 0-1.75-0.6992-1.75-1.746 0-1.035 0.7422-1.758 1.715-1.758 0.9805 0 1.598 0.668 1.598 1.727 0 0.06641 0 0.1445-0.007812 0.2227" fill="#231f1f"/>
<path d="m24.59 165.7c-0.1367-0.2188-0.4453-0.3789-0.7617-0.3789-0.6875 0-1.086 0.5586-1.086 1.195 0 0.6328 0.3984 1.199 1.094 1.199 0.3359 0 0.6211-0.1406 0.7969-0.3633l0.4414 0.3984c-0.2812 0.3242-0.707 0.5195-1.238 0.5195-1.023 0-1.785-0.6953-1.785-1.754 0-1.043 0.7539-1.75 1.77-1.75 0.4688 0 0.9727 0.1914 1.246 0.5469l-0.4766 0.3867" fill="#231f1f"/>
<path d="m26.39 168.2h-0.6602v-3.316h0.6602zm-0.332-4.094c-0.2344 0-0.4336-0.1914-0.4336-0.4219 0-0.2383 0.1992-0.4258 0.4336-0.4258 0.2383 0 0.4453 0.1797 0.4453 0.4258 0 0.2383-0.207 0.4219-0.4453 0.4219" fill="#231f1f"/>
<path d="m29.44 166.6c-0.6523 0-1.477 0.07031-1.477 0.6328 0 0.3906 0.3516 0.5156 0.6797 0.5156 0.6172 0 0.957-0.4102 0.957-0.9727v-0.1758zm0.1602-0.5664c0-0.4883-0.3281-0.7305-0.8164-0.7305-0.3711 0-0.7227 0.1641-0.9453 0.3867l-0.3516-0.4219c0.3203-0.3047 0.8203-0.4961 1.359-0.4961 0.9531 0 1.387 0.5703 1.387 1.305v1.449c0 0.2227 0.01172 0.4961 0.04688 0.6562h-0.5938c-0.03516-0.1445-0.05469-0.3203-0.05469-0.4727h-0.02344c-0.2383 0.3555-0.6172 0.5586-1.113 0.5586-0.5234 0-1.203-0.2578-1.203-1.023 0-1 1.191-1.121 2.309-1.121v-0.08984" fill="#231f1f"/>
<path d="m32 168.2h-0.6602v-5.293h0.6602v5.293" fill="#231f1f"/>
<path d="m33.82 168.2h-0.6602v-5.293h0.6602v5.293" fill="#231f1f"/>
<path d="m36.23 167.4h0.01562l0.918-2.602h0.6992l-1.609 4.102c-0.2188 0.5547-0.5 0.8984-1.148 0.8984-0.1406 0-0.2891-0.01562-0.4375-0.05078l0.06641-0.582c0.1055 0.03516 0.2227 0.05859 0.3281 0.05859 0.3438 0 0.4766-0.1992 0.6172-0.5547l0.2109-0.5547-1.426-3.316h0.7383l1.027 2.602" fill="#231f1f"/>
<path d="m40.91 168.2h-0.6562v-3.316h0.6562zm-0.3281-4.094c-0.2383 0-0.4336-0.1914-0.4336-0.4219 0-0.2383 0.1953-0.4258 0.4336-0.4258 0.2383 0 0.4414 0.1797 0.4414 0.4258 0 0.2383-0.2031 0.4219-0.4414 0.4219" fill="#231f1f"/>
<path d="m43.62 165.4h-0.7695v2.777h-0.6562v-2.777h-0.6602v-0.5391h0.6602v-0.6953c0-0.7773 0.3438-1.367 1.238-1.367 0.1562 0 0.2891 0.01562 0.4141 0.05078l-0.07812 0.5664c-0.09766-0.02734-0.2031-0.04688-0.3281-0.04688-0.4961 0-0.5898 0.3906-0.5898 0.7969v0.6953h0.7695v0.5391" fill="#231f1f"/>
<path d="m47 166.3h1.855l-0.9258-2.324zm-0.7422 1.828h-0.7695l2.148-4.957h0.6328l2.129 4.957h-0.7852l-0.5039-1.215h-2.355l-0.4961 1.215" fill="#231f1f"/>
<path d="m53.5 164.1c-0.1953-0.2734-0.5508-0.4648-0.9648-0.4648-0.4492 0-0.9688 0.25-0.9688 0.8086 0 0.5391 0.457 0.6875 1.016 0.8672 0.6641 0.2109 1.457 0.4609 1.457 1.449 0 1.031-0.832 1.508-1.715 1.508-0.625 0-1.254-0.2461-1.633-0.7227l0.5391-0.4531c0.2305 0.3398 0.6523 0.5781 1.109 0.5781 0.4609 0 0.9922-0.2578 0.9922-0.8438 0-0.6055-0.5469-0.7656-1.176-0.9609-0.6289-0.1953-1.289-0.4844-1.289-1.395 0-0.9883 0.8828-1.414 1.703-1.414 0.5742 0 1.113 0.2227 1.418 0.5664l-0.4883 0.4766" fill="#231f1f"/>
<path d="m59.27 167.4c-0.3867 0.5273-1.023 0.8984-1.891 0.8984-1.523 0-2.613-1.086-2.613-2.613 0-1.547 1.133-2.598 2.641-2.598 0.6797 0 1.414 0.2656 1.777 0.7695l-0.543 0.4219c-0.2383-0.3359-0.7227-0.582-1.234-0.582-1.148 0-1.883 0.9023-1.883 1.988 0 1.113 0.7188 1.996 1.863 1.996 0.5508 0 1.035-0.2305 1.328-0.6562l0.5547 0.375" fill="#231f1f"/>
<path d="m61.62 167.3h0.02344l1.492-4.062h0.75l-1.949 4.957h-0.6445l-1.934-4.957h0.7734l1.488 4.062" fill="#231f1f"/>
<path d="m65.16 167.6h0.8711c1.195 0 2.07-0.6875 2.07-1.871 0-1.227-0.875-1.879-2.07-1.879h-0.8711zm-0.6914-4.352h1.699c1.27 0 2.676 0.7227 2.676 2.48 0 1.695-1.406 2.477-2.676 2.477h-1.699v-4.957" fill="#231f1f"/>
<path d="m16.23 173.7c-0.6719 0-1.121 0.5703-1.121 1.207 0 0.6367 0.4492 1.199 1.121 1.199 0.7227 0 1.105-0.582 1.105-1.207 0-0.6211-0.3828-1.199-1.105-1.199zm-1.078 4.547h-0.6602v-5h0.6445v0.5195h0.01953c0.2188-0.3516 0.6523-0.6094 1.199-0.6094 0.9883 0 1.66 0.7617 1.66 1.742 0 0.9727-0.6523 1.758-1.676 1.758-0.4688 0-0.9219-0.2148-1.168-0.5859h-0.01953v2.176" fill="#231f1f"/>
<path d="m18.9 173.2h0.625c0.01172 0.168 0.02734 0.418 0.02734 0.5586h0.01953c0.1836-0.3828 0.5664-0.6484 1.016-0.6484 0.08984 0 0.1836 0.003906 0.2578 0.02734l-0.02734 0.6094c-0.08203-0.02344-0.1953-0.03516-0.3008-0.03516-0.6289 0-0.9297 0.5117-0.9297 1.062v1.746h-0.6602v-2.605c0-0.1758-0.007813-0.5-0.02734-0.7148" fill="#231f1f"/>
<path d="m23.77 174.6c-0.01562-0.5273-0.3242-0.9414-0.9336-0.9414-0.5664 0-1 0.4219-1.043 0.9414zm0.6562 0.4883h-2.633c0.02344 0.5664 0.5 1.008 1.078 1.008 0.4492 0 0.7773-0.2227 0.9688-0.5039l0.4609 0.3711c-0.3555 0.4648-0.8398 0.6797-1.43 0.6797-1.008 0-1.75-0.6992-1.75-1.746 0-1.035 0.7422-1.754 1.715-1.754 0.9844 0 1.598 0.6641 1.598 1.723 0 0.07031 0 0.1445-0.007813 0.2227" fill="#231f1f"/>
<path d="m26.91 176.1c0.6758 0 1.121-0.5625 1.121-1.199 0-0.6367-0.4453-1.207-1.121-1.207-0.7188 0-1.098 0.5781-1.098 1.199 0 0.625 0.3789 1.207 1.098 1.207zm-0.1094 0.5508c-1.023 0-1.676-0.7852-1.676-1.758 0-0.9805 0.6719-1.742 1.668-1.742 0.5391 0 0.9531 0.2656 1.184 0.5859h0.01172v-2.473h0.6602v5.297h-0.6367v-0.5273h-0.01562c-0.25 0.4023-0.7266 0.6172-1.195 0.6172" fill="#231f1f"/>
<path d="m31.36 173.7c-0.707 0-1.105 0.5703-1.105 1.199 0 0.6328 0.3984 1.207 1.105 1.207 0.7148 0 1.105-0.5742 1.105-1.207 0-0.6289-0.3906-1.199-1.105-1.199zm0 2.957c-1.016 0-1.785-0.7344-1.785-1.758s0.7695-1.742 1.785-1.742 1.793 0.7188 1.793 1.742-0.7773 1.758-1.793 1.758" fill="#231f1f"/>
<path d="m35.77 173.1c0.4414 0 0.8281 0.1953 1.031 0.6641 0.2227-0.4258 0.6562-0.6641 1.125-0.6641 0.8555 0 1.242 0.6094 1.242 1.348v2.062h-0.6602v-1.844c0-0.5391-0.1602-1.016-0.7344-1.016-0.6016 0-0.8398 0.5469-0.8398 1.066v1.793h-0.6602v-1.977c0-0.5156-0.1758-0.8828-0.6992-0.8828-0.4844 0-0.8477 0.4375-0.8477 1.094v1.766h-0.6562v-2.605c0-0.1758-0.007812-0.5-0.03125-0.7148h0.625c0.01172 0.168 0.02734 0.4062 0.02734 0.5469h0.01953c0.1719-0.3516 0.5547-0.6367 1.059-0.6367" fill="#231f1f"/>
<path d="m40.94 176.6h-0.6562v-3.32h0.6562zm-0.3281-4.098c-0.2383 0-0.4336-0.1875-0.4336-0.4219 0-0.2383 0.1953-0.4258 0.4336-0.4258s0.4414 0.1797 0.4414 0.4258c0 0.2383-0.2031 0.4219-0.4414 0.4219" fill="#231f1f"/>
<path d="m42.68 173.2c0.01562 0.168 0.03125 0.4062 0.03125 0.5469h0.01953c0.1602-0.3594 0.6016-0.6367 1.078-0.6367 0.8555 0 1.238 0.6094 1.238 1.348v2.062h-0.6562v-1.844c0-0.5391-0.1484-1.016-0.7578-1.016-0.5195 0-0.8906 0.4375-0.8906 1.094v1.766h-0.6562v-2.605c0-0.1758-0.007813-0.5-0.02734-0.7148h0.6211" fill="#231f1f"/>
<path d="m48.07 175c-0.6523 0-1.48 0.06641-1.48 0.6289 0 0.3906 0.3516 0.5156 0.6797 0.5156 0.6172 0 0.9609-0.4102 0.9609-0.9727v-0.1719zm0.1602-0.5703c0-0.4883-0.3281-0.7266-0.8203-0.7266-0.3711 0-0.7227 0.1602-0.9453 0.3867l-0.3516-0.4219c0.3242-0.3086 0.8203-0.4961 1.359-0.4961 0.9531 0 1.387 0.5664 1.387 1.301v1.449c0 0.2227 0.01562 0.5 0.05078 0.6602h-0.5977c-0.03125-0.1484-0.05469-0.3242-0.05469-0.4766h-0.01953c-0.2383 0.3555-0.6172 0.5586-1.117 0.5586-0.5234 0-1.203-0.2578-1.203-1.023 0-1 1.191-1.121 2.312-1.121v-0.08984" fill="#231f1f"/>
<path d="m51.51 173.8h-0.8828v1.73c0 0.3984 0.1406 0.5586 0.4688 0.5586 0.1211 0 0.2734-0.02734 0.3867-0.08203l0.02344 0.5391c-0.1562 0.05469-0.3594 0.08984-0.5625 0.08984-0.6211 0-0.9688-0.3477-0.9688-1.035v-1.801h-0.6328v-0.5391h0.6328v-0.9531h0.6523v0.9531h0.8828v0.5391" fill="#231f1f"/>
<path d="m54.62 174.6c-0.01563-0.5273-0.3242-0.9414-0.9336-0.9414-0.5664 0-1 0.4219-1.043 0.9414zm0.6602 0.4883h-2.637c0.02344 0.5664 0.5 1.008 1.078 1.008 0.4492 0 0.7773-0.2227 0.9688-0.5039l0.4609 0.3711c-0.3555 0.4648-0.8398 0.6797-1.43 0.6797-1.008 0-1.75-0.6992-1.75-1.746 0-1.035 0.7422-1.754 1.715-1.754 0.9805 0 1.598 0.6641 1.598 1.723 0 0.07031 0 0.1445-0.003906 0.2227" fill="#231f1f"/>
<path d="m57.99 174.1c-0.1445-0.2383-0.4336-0.4141-0.7695-0.4141-0.3008 0-0.6172 0.1211-0.6172 0.4375 0 0.2773 0.2539 0.3828 0.7578 0.4961 0.6289 0.1367 1.113 0.3984 1.113 0.9805 0 0.7812-0.6484 1.07-1.324 1.07-0.5039 0-1.02-0.1953-1.336-0.5938l0.4688-0.4023c0.1758 0.2617 0.5117 0.4648 0.8828 0.4648 0.3281 0 0.6602-0.1211 0.6602-0.4844 0-0.3086-0.3047-0.4219-0.8711-0.5547-0.4414-0.1016-0.9648-0.293-0.9648-0.918 0-0.7109 0.6211-1.012 1.254-1.012 0.4688 0 0.9648 0.1875 1.203 0.543l-0.457 0.3867" fill="#231f1f"/>
<path d="m59.21 171.7 0.4766-0.3086c0.6133 0.8242 1.023 1.945 1.023 3.113 0 1.172-0.4102 2.293-1.023 3.117l-0.4766-0.3086c0.5469-0.7617 0.9023-1.785 0.9023-2.809 0-1.02-0.3555-2.043-0.9023-2.805" fill="#231f1f"/>
<path d="m139.5 155.7c-0.1953-0.2773-0.5508-0.4648-0.9648-0.4648-0.4492 0-0.9648 0.2461-0.9648 0.8047 0 0.5391 0.4531 0.6875 1.012 0.8711 0.668 0.207 1.457 0.4609 1.457 1.449 0 1.027-0.832 1.504-1.715 1.504-0.6211 0-1.254-0.2422-1.633-0.7188l0.5391-0.457c0.2344 0.3438 0.6523 0.582 1.109 0.582 0.4609 0 0.9922-0.2617 0.9922-0.8477 0-0.6016-0.5469-0.7617-1.176-0.9609-0.6289-0.1953-1.289-0.4805-1.289-1.395 0-0.9844 0.8828-1.414 1.703-1.414 0.5742 0 1.113 0.2266 1.422 0.5664l-0.4922 0.4805" fill="#231f1f"/>
<path d="m144.8 155.8c-0.293-0.3203-0.7773-0.5391-1.344-0.5391-1.164 0-1.891 0.9062-1.891 1.992 0 1.105 0.7266 1.988 1.91 1.988 0.4648 0 0.8711-0.09375 1.156-0.2461v-1.379h-1.098v-0.5898h1.785v2.402c-0.5195 0.2812-1.137 0.4336-1.863 0.4336-1.547 0-2.648-1.086-2.648-2.609 0-1.551 1.137-2.602 2.641-2.602 0.7852 0 1.43 0.2539 1.836 0.6445l-0.4844 0.5039" fill="#231f1f"/>
<path d="m147.2 159.1h2.211v0.6172h-2.906v-4.957h0.6953v4.34" fill="#231f1f"/>
<path d="m151.2 159.8h-0.6914v-4.348h-1.59v-0.6094h3.871v0.6094h-1.59v4.348" fill="#231f1f"/>
<path d="m156.5 159.8h-3.238v-0.6523l1.977-1.961c0.3008-0.3086 0.5469-0.6289 0.5469-1.051 0-0.5156-0.3906-0.8555-0.8828-0.8555-0.5039 0-0.8477 0.3672-0.9297 0.8633l-0.668-0.1133c0.1211-0.7539 0.7578-1.316 1.605-1.316 0.8242 0 1.566 0.4844 1.566 1.41 0 0.6367-0.3633 1.07-0.7969 1.496l-1.609 1.57h2.43v0.6094" fill="#231f1f"/>
<path d="m158.2 159.8h-0.6602v-3.32h0.6602zm-0.332-4.098c-0.2344 0-0.4336-0.1875-0.4336-0.4219s0.1992-0.4258 0.4336-0.4258c0.2383 0 0.4414 0.1836 0.4414 0.4258 0 0.2422-0.2031 0.4219-0.4414 0.4219" fill="#231f1f"/>
<path d="m120.2 168.9-0.4766 0.3086c-0.6133-0.8242-1.023-1.945-1.023-3.117 0-1.168 0.4102-2.289 1.023-3.117l0.4766 0.3086c-0.5469 0.7656-0.9023 1.785-0.9023 2.809s0.3555 2.047 0.9023 2.809" fill="#231f1f"/>
<path d="m123.7 166.2c-0.01562-0.5234-0.3242-0.9375-0.9336-0.9375-0.5664 0-1 0.4219-1.043 0.9375zm0.6562 0.4922h-2.633c0.01953 0.5664 0.4961 1.008 1.078 1.008 0.4492 0 0.7773-0.2227 0.9648-0.5039l0.4648 0.3711c-0.3594 0.4609-0.8398 0.6797-1.43 0.6797-1.008 0-1.75-0.6992-1.75-1.746 0-1.035 0.7422-1.758 1.715-1.758 0.9805 0 1.598 0.668 1.598 1.727 0 0.06641 0 0.1445-0.007813 0.2227" fill="#231f1f"/>
<path d="m127 165.7c-0.1484-0.2383-0.4336-0.4141-0.7695-0.4141-0.3008 0-0.6172 0.1211-0.6172 0.4336 0 0.2812 0.2539 0.3867 0.7578 0.4961 0.6289 0.1406 1.113 0.4023 1.113 0.9844 0 0.7812-0.6523 1.07-1.324 1.07-0.5039 0-1.023-0.1953-1.34-0.5977l0.4727-0.3984c0.1758 0.2617 0.5117 0.4648 0.8828 0.4648 0.3281 0 0.6562-0.1211 0.6562-0.4844 0-0.3086-0.3008-0.4219-0.8672-0.5547-0.4414-0.1055-0.9688-0.293-0.9688-0.918 0-0.7109 0.625-1.016 1.254-1.016 0.4688 0 0.9688 0.1914 1.203 0.5469l-0.4531 0.3867" fill="#231f1f"/>
<path d="m130.1 165.3c-0.6719 0-1.121 0.5664-1.121 1.203 0 0.6406 0.4492 1.199 1.121 1.199 0.7227 0 1.105-0.582 1.105-1.203 0-0.625-0.3828-1.199-1.105-1.199zm-1.078 4.547h-0.6562v-5h0.6445v0.5156h0.01953c0.2188-0.3477 0.6523-0.6094 1.199-0.6094 0.9883 0 1.66 0.7656 1.66 1.746 0 0.9727-0.6523 1.758-1.676 1.758-0.4688 0-0.9258-0.2188-1.172-0.5898h-0.01953v2.18" fill="#231f1f"/>
<path d="m135.2 166.2c-0.01562-0.5234-0.3242-0.9375-0.9297-0.9375-0.5703 0-1.004 0.4219-1.047 0.9375zm0.6602 0.4922h-2.637c0.02344 0.5664 0.5 1.008 1.078 1.008 0.4492 0 0.7773-0.2227 0.9688-0.5039l0.4609 0.3711c-0.3555 0.4609-0.8398 0.6797-1.43 0.6797-1.008 0-1.75-0.6992-1.75-1.746 0-1.035 0.7422-1.758 1.719-1.758 0.9805 0 1.594 0.668 1.594 1.727 0 0.06641 0 0.1445-0.003906 0.2227" fill="#231f1f"/>
<path d="m139.1 165.7c-0.1406-0.2188-0.4492-0.3789-0.7656-0.3789-0.6836 0-1.086 0.5586-1.086 1.195 0 0.6328 0.4023 1.199 1.094 1.199 0.3359 0 0.625-0.1406 0.8008-0.3633l0.4414 0.3984c-0.2812 0.3242-0.7109 0.5195-1.242 0.5195-1.023 0-1.785-0.6953-1.785-1.754 0-1.043 0.7578-1.75 1.773-1.75 0.4688 0 0.9727 0.1914 1.246 0.5469l-0.4766 0.3867" fill="#231f1f"/>
<path d="m140.9 168.2h-0.6562v-3.316h0.6562zm-0.3281-4.094c-0.2383 0-0.4336-0.1914-0.4336-0.4219 0-0.2383 0.1953-0.4258 0.4336-0.4258 0.2383 0 0.4414 0.1797 0.4414 0.4258 0 0.2383-0.2031 0.4219-0.4414 0.4219" fill="#231f1f"/>
<path d="m144 166.6c-0.6523 0-1.48 0.07031-1.48 0.6328 0 0.3906 0.3516 0.5156 0.6797 0.5156 0.6172 0 0.9609-0.4102 0.9609-0.9727v-0.1758zm0.1602-0.5664c0-0.4883-0.3281-0.7305-0.8203-0.7305-0.3711 0-0.7227 0.1641-0.9453 0.3867l-0.3516-0.4219c0.3242-0.3047 0.8203-0.4961 1.359-0.4961 0.9531 0 1.387 0.5703 1.387 1.305v1.449c0 0.2227 0.01562 0.4961 0.05078 0.6562h-0.5977c-0.03516-0.1445-0.05469-0.3203-0.05469-0.4727h-0.01953c-0.2383 0.3555-0.6172 0.5586-1.117 0.5586-0.5234 0-1.203-0.2578-1.203-1.023 0-1 1.191-1.121 2.312-1.121v-0.08984" fill="#231f1f"/>
<path d="m146.5 168.2h-0.6562v-5.293h0.6562v5.293" fill="#231f1f"/>
<path d="m148.4 168.2h-0.6562v-5.293h0.6562v5.293" fill="#231f1f"/>
<path d="m150.8 167.4h0.01172l0.918-2.602h0.6992l-1.609 4.102c-0.2188 0.5547-0.4961 0.8984-1.148 0.8984-0.1406 0-0.2891-0.01562-0.4336-0.05078l0.0625-0.582c0.1055 0.03516 0.2227 0.05859 0.3281 0.05859 0.3438 0 0.4766-0.1992 0.6172-0.5547l0.2109-0.5547-1.422-3.316h0.7344l1.031 2.602" fill="#231f1f"/>
<path d="m155.5 168.2h-0.6562v-3.316h0.6562zm-0.3281-4.094c-0.2383 0-0.4336-0.1914-0.4336-0.4219 0-0.2383 0.1953-0.4258 0.4336-0.4258s0.4414 0.1797 0.4414 0.4258c0 0.2383-0.2031 0.4219-0.4414 0.4219" fill="#231f1f"/>
<path d="m158.2 165.4h-0.7695v2.777h-0.6602v-2.777h-0.6562v-0.5391h0.6562v-0.6953c0-0.7773 0.3438-1.367 1.242-1.367 0.1523 0 0.2852 0.01562 0.4102 0.05078l-0.07422 0.5664c-0.09766-0.02734-0.2031-0.04688-0.332-0.04688-0.4961 0-0.5859 0.3906-0.5859 0.7969v0.6953h0.7695v0.5391" fill="#231f1f"/>
<path d="m165 167.4c-0.3828 0.5273-1.023 0.8984-1.891 0.8984-1.52 0-2.613-1.086-2.613-2.613 0-1.547 1.133-2.598 2.641-2.598 0.6797 0 1.414 0.2656 1.777 0.7695l-0.543 0.4219c-0.2383-0.3359-0.7227-0.582-1.234-0.582-1.148 0-1.883 0.9023-1.883 1.988 0 1.113 0.7188 1.996 1.863 1.996 0.5508 0 1.035-0.2305 1.332-0.6562l0.5508 0.375" fill="#231f1f"/>
<path d="m166.4 165.4h0.01172l2.215-2.188h0.9609l-2.41 2.27 2.559 2.688h-0.9961l-2.328-2.562h-0.01172v2.562h-0.6953v-4.957h0.6953v2.188" fill="#231f1f"/>
<path d="m171 167.6h0.8672c1.199 0 2.074-0.6875 2.074-1.871 0-1.227-0.875-1.879-2.074-1.879h-0.8672zm-0.6914-4.352h1.699c1.27 0 2.676 0.7227 2.676 2.48 0 1.695-1.406 2.477-2.676 2.477h-1.699v-4.957" fill="#231f1f"/>
<path d="m116.6 173.7c-0.707 0-1.109 0.5703-1.109 1.199 0 0.6328 0.4023 1.207 1.109 1.207 0.7148 0 1.105-0.5742 1.105-1.207 0-0.6289-0.3906-1.199-1.105-1.199zm0 2.957c-1.016 0-1.789-0.7344-1.789-1.758s0.7734-1.742 1.789-1.742c1.016 0 1.793 0.7188 1.793 1.742s-0.7773 1.758-1.793 1.758" fill="#231f1f"/>
<path d="m119.2 173.2h0.625c0.01172 0.168 0.02734 0.418 0.02734 0.5586h0.01953c0.1836-0.3828 0.5664-0.6484 1.016-0.6484 0.09375 0 0.1836 0.003906 0.2617 0.02734l-0.03125 0.6094c-0.08203-0.02344-0.1953-0.03516-0.3008-0.03516-0.6289 0-0.9297 0.5117-0.9297 1.062v1.746h-0.6602v-2.605c0-0.1758-0.007812-0.5-0.02734-0.7148" fill="#231f1f"/>
<path d="m123.6 171.6h0.6914v2.074h2.508v-2.074h0.6992v4.961h-0.6992v-2.27h-2.508v2.27h-0.6914v-4.961" fill="#231f1f"/>
<path d="m129.4 176.6h-0.6953v-4.961h3.098v0.6094h-2.402v1.543h2.246v0.5938h-2.246v2.215" fill="#231f1f"/>
<path d="m136.1 173.7c-0.6719 0-1.121 0.5703-1.121 1.207 0 0.6367 0.4492 1.199 1.121 1.199 0.7188 0 1.105-0.582 1.105-1.207 0-0.6211-0.3867-1.199-1.105-1.199zm-1.078 4.547h-0.6602v-5h0.6445v0.5195h0.01953c0.2188-0.3516 0.6523-0.6094 1.199-0.6094 0.9883 0 1.66 0.7617 1.66 1.742 0 0.9727-0.6523 1.758-1.672 1.758-0.4727 0-0.9258-0.2148-1.172-0.5859h-0.01953v2.176" fill="#231f1f"/>
<path d="m138.8 173.2h0.625c0.01172 0.168 0.02734 0.418 0.02734 0.5586h0.01953c0.1836-0.3828 0.5664-0.6484 1.016-0.6484 0.08984 0 0.1836 0.003906 0.2578 0.02734l-0.02734 0.6094c-0.08203-0.02344-0.1953-0.03516-0.3008-0.03516-0.6289 0-0.9297 0.5117-0.9297 1.062v1.746h-0.6602v-2.605c0-0.1758-0.003907-0.5-0.02734-0.7148" fill="#231f1f"/>
<path d="m143.6 174.6c-0.01562-0.5273-0.3242-0.9414-0.9336-0.9414-0.5664 0-1 0.4219-1.043 0.9414zm0.6562 0.4883h-2.633c0.01953 0.5664 0.4961 1.008 1.078 1.008 0.4492 0 0.7773-0.2227 0.9688-0.5039l0.4609 0.3711c-0.3555 0.4648-0.8398 0.6797-1.43 0.6797-1.008 0-1.75-0.6992-1.75-1.746 0-1.035 0.7422-1.754 1.715-1.754 0.9805 0 1.598 0.6641 1.598 1.723 0 0.07031 0 0.1445-0.007813 0.2227" fill="#231f1f"/>
<path d="m146.8 176.1c0.6758 0 1.121-0.5625 1.121-1.199 0-0.6367-0.4453-1.207-1.121-1.207-0.7188 0-1.098 0.5781-1.098 1.199 0 0.625 0.3789 1.207 1.098 1.207zm-0.1094 0.5508c-1.023 0-1.676-0.7852-1.676-1.758 0-0.9805 0.6719-1.742 1.668-1.742 0.5391 0 0.9531 0.2656 1.184 0.5859h0.01172v-2.473h0.6602v5.297h-0.6367v-0.5273h-0.01562c-0.25 0.4023-0.7266 0.6172-1.195 0.6172" fill="#231f1f"/>
<path d="m151.2 173.7c-0.707 0-1.105 0.5703-1.105 1.199 0 0.6328 0.3984 1.207 1.105 1.207 0.7148 0 1.109-0.5742 1.109-1.207 0-0.6289-0.3945-1.199-1.109-1.199zm0 2.957c-1.016 0-1.785-0.7344-1.785-1.758s0.7695-1.742 1.785-1.742 1.793 0.7188 1.793 1.742-0.7773 1.758-1.793 1.758" fill="#231f1f"/>
<path d="m155.6 173.1c0.4414 0 0.8281 0.1953 1.031 0.6641 0.2227-0.4258 0.6562-0.6641 1.129-0.6641 0.8516 0 1.238 0.6094 1.238 1.348v2.062h-0.6602v-1.844c0-0.5391-0.1602-1.016-0.7344-1.016-0.6016 0-0.8398 0.5469-0.8398 1.066v1.793h-0.6602v-1.977c0-0.5156-0.1719-0.8828-0.6992-0.8828-0.4844 0-0.8477 0.4375-0.8477 1.094v1.766h-0.6602v-2.605c0-0.1758-0.003906-0.5-0.02734-0.7148h0.625c0.01562 0.168 0.02734 0.4062 0.02734 0.5469h0.02344c0.168-0.3516 0.5508-0.6367 1.055-0.6367" fill="#231f1f"/>
<path d="m160.8 176.6h-0.6562v-3.32h0.6562zm-0.3281-4.098c-0.2383 0-0.4336-0.1875-0.4336-0.4219 0-0.2383 0.1953-0.4258 0.4336-0.4258s0.4414 0.1797 0.4414 0.4258c0 0.2383-0.2031 0.4219-0.4414 0.4219" fill="#231f1f"/>
<path d="m162.6 173.2c0.01562 0.168 0.03125 0.4062 0.03125 0.5469h0.01953c0.1602-0.3594 0.6016-0.6367 1.078-0.6367 0.8555 0 1.242 0.6094 1.242 1.348v2.062h-0.6602v-1.844c0-0.5391-0.1484-1.016-0.7578-1.016-0.5195 0-0.8906 0.4375-0.8906 1.094v1.766h-0.6562v-2.605c0-0.1758-0.007813-0.5-0.02734-0.7148h0.6211" fill="#231f1f"/>
<path d="m167.9 175c-0.6523 0-1.48 0.06641-1.48 0.6289 0 0.3906 0.3516 0.5156 0.6797 0.5156 0.6172 0 0.9609-0.4102 0.9609-0.9727v-0.1719zm0.1602-0.5703c0-0.4883-0.3281-0.7266-0.8203-0.7266-0.3711 0-0.7227 0.1602-0.9453 0.3867l-0.3516-0.4219c0.3242-0.3086 0.8203-0.4961 1.359-0.4961 0.9531 0 1.387 0.5664 1.387 1.301v1.449c0 0.2227 0.01562 0.5 0.05078 0.6602h-0.5977c-0.03516-0.1484-0.05469-0.3242-0.05469-0.4766h-0.01953c-0.2383 0.3555-0.6172 0.5586-1.117 0.5586-0.5234 0-1.203-0.2578-1.203-1.023 0-1 1.191-1.121 2.312-1.121v-0.08984" fill="#231f1f"/>
<path d="m171.4 173.8h-0.8828v1.73c0 0.3984 0.1406 0.5586 0.4727 0.5586 0.1172 0 0.2695-0.02734 0.3828-0.08203l0.02344 0.5391c-0.1562 0.05469-0.3594 0.08984-0.5625 0.08984-0.625 0-0.9688-0.3477-0.9688-1.035v-1.801h-0.6328v-0.5391h0.6328v-0.9531h0.6523v0.9531h0.8828v0.5391" fill="#231f1f"/>
<path d="m174.5 174.6c-0.01563-0.5273-0.3203-0.9414-0.9297-0.9414-0.5703 0-1.004 0.4219-1.047 0.9414zm0.6602 0.4883h-2.637c0.02344 0.5664 0.5 1.008 1.082 1.008 0.4492 0 0.7773-0.2227 0.9648-0.5039l0.4609 0.3711c-0.3555 0.4648-0.8398 0.6797-1.426 0.6797-1.008 0-1.75-0.6992-1.75-1.746 0-1.035 0.7422-1.754 1.715-1.754 0.9805 0 1.594 0.6641 1.594 1.723 0 0.07031 0 0.1445-0.003906 0.2227" fill="#231f1f"/>
<path d="m177.9 174.1c-0.1484-0.2383-0.4375-0.4141-0.7695-0.4141-0.3008 0-0.6172 0.1211-0.6172 0.4375 0 0.2773 0.25 0.3828 0.7539 0.4961 0.6328 0.1367 1.113 0.3984 1.113 0.9805 0 0.7812-0.6484 1.07-1.324 1.07-0.5039 0-1.02-0.1953-1.336-0.5938l0.4688-0.4023c0.1758 0.2617 0.5117 0.4648 0.8828 0.4648 0.3281 0 0.6602-0.1211 0.6602-0.4844 0-0.3086-0.3047-0.4219-0.8711-0.5547-0.4414-0.1016-0.9648-0.293-0.9648-0.918 0-0.7109 0.6211-1.012 1.254-1.012 0.4688 0 0.9648 0.1875 1.203 0.543l-0.4531 0.3867" fill="#231f1f"/>
<path d="m179.1 171.7 0.4766-0.3086c0.6172 0.8242 1.023 1.945 1.023 3.113 0 1.172-0.4062 2.293-1.023 3.117l-0.4766-0.3086c0.5469-0.7617 0.9023-1.785 0.9023-2.809 0-1.02-0.3555-2.043-0.9023-2.805" fill="#231f1f"/>
<path d="m210.7 146.4h74.37v39.36h-74.37v-39.36" fill="#fdf3cc"/>
<path transform="matrix(.1 0 0 -.1 0 255.2)" d="m2107 1088h743.7v-393.6h-743.7z" fill="none" stroke="#0f0e0c" stroke-width="5"/>
<path d="m293.1 146.4h79.53v39.36h-79.53v-39.36" fill="#fdf3cc"/>
<path transform="matrix(.1 0 0 -.1 0 255.2)" d="m2931 1088h795.3v-393.6h-795.3z" fill="none" stroke="#0f0e0c" stroke-width="5"/>
<path d="m380.6 146.4h74.37v39.36h-74.37v-39.36" fill="#fef4cc"/>
<path transform="matrix(.1 0 0 -.1 0 255.2)" d="m3806 1088h743.7v-393.6h-743.7z" fill="none" stroke="#0f0e0c" stroke-width="5"/>
<path transform="matrix(.1 0 0 -.1 0 255.2)" d="m4180 1311h-1701" fill="none" stroke="#0f0e0c" stroke-width="5"/>
<path transform="matrix(.1 0 0 -.1 0 255.2)" d="m3334 1408v-97.3" fill="none" stroke="#0f0e0c" stroke-width="5"/>
<path transform="matrix(.1 0 0 -.1 0 255.2)" d="m2481 1311v-182.5" fill="none" stroke="#0f0e0c" stroke-width="5"/>
<path d="m248.1 145.9c-0.6289-1.703-1.711-3.82-2.852-5.133l2.852 1.031 2.848-1.031c-1.137 1.312-2.207 3.43-2.848 5.133" fill="#0f0e0c"/>
<path transform="matrix(.1 0 0 -.1 0 255.2)" d="m4178 1313v-182.5" fill="none" stroke="#0f0e0c" stroke-width="5"/>
<path d="m417.8 145.7c-0.6328-1.703-1.711-3.82-2.852-5.133l2.852 1.031 2.848-1.031c-1.137 1.312-2.211 3.43-2.848 5.133" fill="#0f0e0c"/>
<path d="m210.9 209.2h74.37v45.74h-74.37v-45.74" fill="#fef4cc"/>
<g clip-path="url(#d)">
<path transform="matrix(.1 0 0 -.1 0 255.2)" d="m2109 459.9h743.7v-457.4h-743.7z" fill="none" stroke="#0f0e0c" stroke-width="5"/>
</g>
<path d="m293.1 209.2h79.53v45.74h-79.53v-45.74" fill="#fef4cc"/>
<g clip-path="url(#c)">
<path transform="matrix(.1 0 0 -.1 0 255.2)" d="m2931 459.9h795.3v-457.4h-795.3z" fill="none" stroke="#0f0e0c" stroke-width="5"/>
</g>
<g clip-path="url(#b)">
<path d="m381.8 209.2h74.37v45.74h-74.37v-45.74" fill="#fef4cc"/>
</g>
<g clip-path="url(#a)">
<path transform="matrix(.1 0 0 -.1 0 255.2)" d="m3818 459.9h743.7v-457.4h-743.7z" fill="none" stroke="#0f0e0c" stroke-width="5"/>
</g>
<path transform="matrix(.1 0 0 -.1 0 255.2)" d="m2481 694.3v-182.5" fill="none" stroke="#0f0e0c" stroke-width="5"/>
<path d="m248.1 207.6c-0.6289-1.699-1.711-3.816-2.852-5.129l2.852 1.031 2.848-1.031c-1.137 1.312-2.207 3.43-2.848 5.129" fill="#0f0e0c"/>
<path transform="matrix(.1 0 0 -.1 0 255.2)" d="m4178 694.3v-182.5" fill="none" stroke="#0f0e0c" stroke-width="5"/>
<path d="m417.8 207.6c-0.6328-1.699-1.711-3.816-2.852-5.129l2.852 1.031 2.848-1.031c-1.137 1.312-2.211 3.43-2.848 5.129" fill="#0f0e0c"/>
<path transform="matrix(.1 0 0 -.1 0 255.2)" d="m3334 1317v-182.5" fill="none" stroke="#0f0e0c" stroke-width="5"/>
<path d="m333.4 145.4c-0.6289-1.699-1.707-3.82-2.848-5.129l2.848 1.027 2.852-1.027c-1.141 1.309-2.211 3.43-2.852 5.129" fill="#0f0e0c"/>
<path transform="matrix(.1 0 0 -.1 0 255.2)" d="m3334 694.3v-182.5" fill="none" stroke="#0f0e0c" stroke-width="5"/>
<path d="m333.4 207.6c-0.6289-1.699-1.707-3.816-2.848-5.129l2.848 1.031 2.852-1.031c-1.141 1.312-2.211 3.43-2.852 5.129" fill="#0f0e0c"/>
<path d="m233.4 161.8h1.855l-0.9258-2.324zm-0.7422 1.828h-0.7695l2.148-4.957h0.6289l2.133 4.957h-0.7852l-0.5039-1.219h-2.355l-0.4961 1.219" fill="#231f1f"/>
<path d="m239 160.8h-0.8828v1.73c0 0.3984 0.1406 0.5586 0.4688 0.5586 0.1211 0 0.2734-0.02734 0.3867-0.08203l0.01953 0.5391c-0.1523 0.05469-0.3555 0.08984-0.5586 0.08984-0.625 0-0.9688-0.3477-0.9688-1.035v-1.801h-0.6367v-0.5391h0.6367v-0.9531h0.6523v0.9531h0.8828v0.5391" fill="#231f1f"/>
<path d="m241.4 160.3h0.6211c0.01562 0.168 0.02734 0.4219 0.02734 0.5625h0.02344c0.1797-0.3867 0.5664-0.6523 1.016-0.6523 0.08984 0 0.1797 0.003907 0.2578 0.02734l-0.02734 0.6094c-0.08594-0.01953-0.1953-0.03516-0.3008-0.03516-0.6328 0-0.9336 0.5117-0.9336 1.062v1.746h-0.6562v-2.605c0-0.1758-0.007812-0.4961-0.02734-0.7148" fill="#231f1f"/>
<path d="m244.6 163.6h-0.6602v-3.32h0.6602zm-0.332-4.098c-0.2383 0-0.4336-0.1875-0.4336-0.4219 0-0.2344 0.1953-0.4258 0.4336-0.4258 0.2383 0 0.4453 0.1836 0.4453 0.4258 0 0.2383-0.207 0.4219-0.4453 0.4219" fill="#231f1f"/>
<path d="m247.5 161.1c-0.1484-0.2383-0.4375-0.4141-0.7734-0.4141-0.3008 0-0.6133 0.1211-0.6133 0.4375 0 0.2773 0.25 0.3828 0.7539 0.4961 0.6328 0.1406 1.113 0.3984 1.113 0.9805 0 0.7852-0.6484 1.07-1.324 1.07-0.5039 0-1.02-0.1953-1.336-0.5938l0.4688-0.3984c0.1758 0.2578 0.5117 0.4609 0.8828 0.4609 0.3281 0 0.6602-0.1211 0.6602-0.4844 0-0.3086-0.3047-0.418-0.8711-0.5547-0.4414-0.1016-0.9648-0.293-0.9648-0.9141 0-0.7148 0.6211-1.016 1.254-1.016 0.4688 0 0.9648 0.1875 1.203 0.543l-0.4531 0.3867" fill="#231f1f"/>
<path d="m249.5 161.7h0.02344l1.391-1.441h0.8828l-1.555 1.504 1.691 1.816h-0.9102l-1.5-1.723h-0.02344v1.723h-0.6562v-5.297h0.6562v3.418" fill="#231f1f"/>
<path d="m255.9 160.8h-0.7695v2.781h-0.6602v-2.781h-0.6562v-0.5391h0.6562v-0.6914c0-0.7773 0.3438-1.367 1.242-1.367 0.1523 0 0.2891 0.01172 0.4141 0.04688l-0.07813 0.5703c-0.09766-0.02734-0.2031-0.05078-0.3281-0.05078-0.5 0-0.5898 0.3945-0.5898 0.8008v0.6914h0.7695v0.5391" fill="#231f1f"/>
<path d="m258 160.7c-0.707 0-1.105 0.5703-1.105 1.199s0.3984 1.207 1.105 1.207c0.7188 0 1.109-0.5781 1.109-1.207s-0.3906-1.199-1.109-1.199zm0 2.957c-1.012 0-1.781-0.7344-1.781-1.758s0.7695-1.742 1.781-1.742c1.02 0 1.793 0.7188 1.793 1.742s-0.7734 1.758-1.793 1.758" fill="#231f1f"/>
<path d="m260.7 160.3h0.625c0.01172 0.168 0.02734 0.4219 0.02734 0.5625h0.01953c0.1836-0.3867 0.5664-0.6523 1.016-0.6523 0.08984 0 0.1836 0.003907 0.2578 0.02734l-0.02734 0.6094c-0.08203-0.01953-0.1953-0.03516-0.3008-0.03516-0.6289 0-0.9297 0.5117-0.9297 1.062v1.746h-0.6602v-2.605c0-0.1758-0.007812-0.4961-0.02734-0.7148" fill="#231f1f"/>
<path d="m226.7 169.2c0.1523-0.332 0.5742-0.5977 1.051-0.5977 0.8555 0 1.238 0.6094 1.238 1.352v2.062h-0.6562v-1.836c0-0.5391-0.1406-1.016-0.75-1.016-0.5195 0-0.8984 0.4336-0.8984 1.09v1.762h-0.6562v-5.297h0.6562v2.48h0.01562" fill="#231f1f"/>
<path d="m231.4 171.3h0.01562l0.918-2.602h0.6992l-1.609 4.102c-0.2188 0.5547-0.4961 0.8984-1.148 0.8984-0.1406 0-0.2891-0.01562-0.4336-0.05078l0.0625-0.582c0.1055 0.03516 0.2227 0.05859 0.3281 0.05859 0.3438 0 0.4766-0.1992 0.6172-0.5547l0.2109-0.5508-1.422-3.32h0.7344l1.027 2.602" fill="#231f1f"/>
<path d="m235.4 169.1c-0.6758 0-1.121 0.5664-1.121 1.203 0 0.6406 0.4453 1.199 1.121 1.199 0.7188 0 1.105-0.582 1.105-1.203 0-0.625-0.3867-1.199-1.105-1.199zm-1.082 4.547h-0.6562v-5h0.6445v0.5156h0.01953c0.2188-0.3477 0.6523-0.6094 1.199-0.6094 0.9883 0 1.66 0.7656 1.66 1.746 0 0.9727-0.6523 1.758-1.676 1.758-0.4688 0-0.9219-0.2188-1.168-0.5898h-0.02344v2.18" fill="#231f1f"/>
<path d="m239.6 169.1c-0.707 0-1.109 0.5664-1.109 1.199 0 0.6289 0.4023 1.203 1.109 1.203 0.7148 0 1.105-0.5742 1.105-1.203 0-0.6328-0.3906-1.199-1.105-1.199zm0 2.957c-1.016 0-1.789-0.7383-1.789-1.758 0-1.023 0.7734-1.746 1.789-1.746 1.016 0 1.793 0.7227 1.793 1.746 0 1.02-0.7773 1.758-1.793 1.758" fill="#231f1f"/>
<path d="m243.9 171.5c0.6797 0 1.129-0.5117 1.129-1.172 0-0.6289-0.457-1.168-1.129-1.168-0.6953 0-1.098 0.5312-1.098 1.168 0 0.6094 0.4023 1.172 1.098 1.172zm-1.301 1.094c0.2852 0.3203 0.7539 0.5391 1.211 0.5391 0.875 0 1.168-0.5391 1.168-1.227v-0.4258h-0.01172c-0.2461 0.3711-0.7031 0.5742-1.172 0.5742-1.016 0-1.676-0.7578-1.676-1.711s0.6523-1.73 1.668-1.73c0.4766 0 0.9453 0.2109 1.199 0.625h0.01172v-0.5312h0.6406v3.148c0 0.9688-0.457 1.852-1.836 1.852-0.5742 0-1.211-0.2266-1.625-0.6055l0.4219-0.5078" fill="#231f1f"/>
<path d="m247.4 172h-0.6602v-5.297h0.6602v5.297" fill="#231f1f"/>
<path d="m249.8 171.3h0.01562l0.918-2.602h0.6992l-1.609 4.102c-0.2188 0.5547-0.5 0.8984-1.148 0.8984-0.1406 0-0.2891-0.01562-0.4375-0.05078l0.06641-0.582c0.1016 0.03516 0.2227 0.05859 0.3281 0.05859 0.3438 0 0.4766-0.1992 0.6172-0.5547l0.207-0.5508-1.422-3.32h0.7383l1.027 2.602" fill="#231f1f"/>
<path d="m254.4 169.5c-0.1406-0.2188-0.4492-0.3789-0.7656-0.3789-0.6836 0-1.082 0.5586-1.082 1.195 0 0.6328 0.3984 1.199 1.09 1.199 0.3398 0 0.625-0.1406 0.8008-0.3633l0.4414 0.3984c-0.2812 0.3203-0.7109 0.5195-1.242 0.5195-1.023 0-1.785-0.6953-1.785-1.754 0-1.043 0.7578-1.75 1.773-1.75 0.4688 0 0.9727 0.1914 1.246 0.5469l-0.4766 0.3867" fill="#231f1f"/>
<path d="m258 170.1c-0.01563-0.5234-0.3203-0.9375-0.9297-0.9375-0.5703 0-1.004 0.418-1.047 0.9375zm0.6602 0.4922h-2.637c0.02344 0.5664 0.5 1.008 1.082 1.008 0.4492 0 0.7773-0.2266 0.9648-0.5039l0.4609 0.3711c-0.3555 0.4609-0.8398 0.6797-1.426 0.6797-1.008 0-1.75-0.7031-1.75-1.746 0-1.035 0.7422-1.758 1.715-1.758 0.9805 0 1.594 0.668 1.594 1.723 0 0.07031 0 0.1484-0.003906 0.2266" fill="#231f1f"/>
<path d="m261.3 168.6c0.4453 0 0.8281 0.1953 1.031 0.668 0.2227-0.4297 0.6602-0.668 1.129-0.668 0.8516 0 1.238 0.6094 1.238 1.352v2.062h-0.6602v-1.844c0-0.5391-0.1602-1.016-0.7344-1.016-0.6016 0-0.8398 0.5469-0.8398 1.062v1.797h-0.6602v-1.977c0-0.5195-0.1719-0.8828-0.6992-0.8828-0.4805 0-0.8477 0.4336-0.8477 1.094v1.766h-0.6562v-2.609c0-0.1719-0.007813-0.4961-0.02734-0.7109h0.6211c0.01562 0.168 0.02734 0.4023 0.02734 0.543h0.02344c0.168-0.3477 0.5508-0.6367 1.055-0.6367" fill="#231f1f"/>
<path d="m266.4 172h-0.6562v-3.32h0.6562zm-0.3281-4.102c-0.2383 0-0.4336-0.1875-0.4336-0.418 0-0.2383 0.1953-0.4258 0.4336-0.4258 0.2383 0 0.4414 0.1797 0.4414 0.4258 0 0.2383-0.2031 0.418-0.4414 0.418" fill="#231f1f"/>
<path d="m269.5 170.4c-0.6523 0-1.477 0.07031-1.477 0.6328 0 0.3906 0.3477 0.5156 0.6797 0.5156 0.6133 0 0.957-0.4141 0.957-0.9727v-0.1758zm0.1602-0.5664c0-0.4922-0.3281-0.7305-0.8164-0.7305-0.3711 0-0.7227 0.1641-0.9492 0.3867l-0.3477-0.4219c0.3203-0.3047 0.8203-0.4961 1.359-0.4961 0.9492 0 1.387 0.5664 1.387 1.305v1.449c0 0.2227 0.01172 0.4961 0.04688 0.6602h-0.5938c-0.03516-0.1484-0.05859-0.3242-0.05859-0.4805h-0.01953c-0.2383 0.3594-0.6133 0.5625-1.113 0.5625-0.5234 0-1.203-0.2578-1.203-1.023 0-1 1.188-1.121 2.309-1.121v-0.08984" fill="#231f1f"/>
<path d="m299.1 162.6h0.01562l1.16-3.949h0.7656l1.156 3.949h0.01172l1.094-3.949h0.7344l-1.457 4.957h-0.7188l-1.207-3.984h-0.01172l-1.207 3.984h-0.7188l-1.457-4.957h0.7461l1.094 3.949" fill="#231f1f"/>
<path d="m306.7 161.7c-0.01563-0.5273-0.3203-0.9414-0.9336-0.9414-0.5664 0-1 0.4219-1.043 0.9414zm0.6562 0.4883h-2.633c0.02344 0.5664 0.5 1.008 1.082 1.008 0.4453 0 0.7734-0.2227 0.9648-0.5039l0.4609 0.3711c-0.3555 0.4648-0.8398 0.6797-1.426 0.6797-1.008 0-1.754-0.6992-1.754-1.742 0-1.039 0.7461-1.758 1.715-1.758 0.9844 0 1.598 0.6641 1.598 1.723 0 0.07031 0 0.1445-0.007812 0.2227" fill="#231f1f"/>
<path d="m308.9 163.6h-0.6602v-3.32h0.6602zm-0.3281-4.098c-0.2383 0-0.4336-0.1875-0.4336-0.4219 0-0.2344 0.1953-0.4258 0.4336-0.4258s0.4414 0.1836 0.4414 0.4258c0 0.2383-0.2031 0.4219-0.4414 0.4219" fill="#231f1f"/>
<path d="m311.5 163.1c0.6758 0 1.125-0.5117 1.125-1.168 0-0.6289-0.4531-1.172-1.125-1.172-0.6953 0-1.102 0.5352-1.102 1.172 0 0.6094 0.4062 1.168 1.102 1.168zm-1.305 1.094c0.2891 0.3242 0.7578 0.5391 1.211 0.5391 0.875 0 1.172-0.5391 1.172-1.227v-0.4258h-0.01562c-0.2461 0.3711-0.6992 0.5742-1.168 0.5742-1.016 0-1.676-0.7578-1.676-1.707 0-0.9531 0.6523-1.73 1.668-1.73 0.4766 0 0.9453 0.207 1.199 0.6211h0.01172v-0.5312h0.6367v3.152c0 0.9648-0.4531 1.848-1.836 1.848-0.5742 0-1.211-0.2227-1.625-0.6016l0.4219-0.5117" fill="#231f1f"/>
<path d="m315 160.8c0.1523-0.3281 0.5742-0.5938 1.051-0.5938 0.8516 0 1.238 0.6094 1.238 1.352v2.059h-0.6562v-1.836c0-0.5391-0.1406-1.016-0.75-1.016-0.5195 0-0.8984 0.4336-0.8984 1.094v1.758h-0.6562v-5.297h0.6562v2.48h0.01562" fill="#231f1f"/>
<path d="m319.9 160.8h-0.8867v1.73c0 0.3984 0.1406 0.5586 0.4727 0.5586 0.1172 0 0.2734-0.02734 0.3828-0.08203l0.02344 0.5391c-0.1562 0.05469-0.3594 0.08984-0.5625 0.08984-0.6211 0-0.9648-0.3477-0.9648-1.035v-1.801h-0.6367v-0.5391h0.6367v-0.9531h0.6484v0.9531h0.8867v0.5391" fill="#231f1f"/>
<path d="m322.8 163.6h-0.6562v-5.297h0.6562v5.297" fill="#231f1f"/>
<path d="m325.4 160.7c-0.707 0-1.105 0.5703-1.105 1.199s0.3984 1.207 1.105 1.207c0.7148 0 1.109-0.5781 1.109-1.207s-0.3945-1.199-1.109-1.199zm0 2.957c-1.016 0-1.785-0.7344-1.785-1.758s0.7695-1.742 1.785-1.742 1.793 0.7188 1.793 1.742-0.7773 1.758-1.793 1.758" fill="#231f1f"/>
<path d="m329.8 161.1c-0.1484-0.2383-0.4336-0.4141-0.7734-0.4141-0.3008 0-0.6133 0.1211-0.6133 0.4375 0 0.2773 0.25 0.3828 0.7578 0.4961 0.6289 0.1406 1.109 0.3984 1.109 0.9805 0 0.7852-0.6484 1.07-1.32 1.07-0.5078 0-1.023-0.1953-1.34-0.5938l0.4688-0.3984c0.1758 0.2578 0.5117 0.4609 0.8828 0.4609 0.332 0 0.6602-0.1211 0.6602-0.4844 0-0.3086-0.3008-0.418-0.8711-0.5547-0.4414-0.1016-0.9648-0.293-0.9648-0.9141 0-0.7148 0.625-1.016 1.254-1.016 0.4688 0 0.9648 0.1875 1.203 0.543l-0.4531 0.3867" fill="#231f1f"/>
<path d="m332.8 161.1c-0.1445-0.2383-0.4336-0.4141-0.7695-0.4141-0.3008 0-0.6172 0.1211-0.6172 0.4375 0 0.2773 0.2539 0.3828 0.7578 0.4961 0.6289 0.1406 1.113 0.3984 1.113 0.9805 0 0.7852-0.6523 1.07-1.324 1.07-0.5039 0-1.023-0.1953-1.336-0.5938l0.4688-0.3984c0.1758 0.2578 0.5117 0.4609 0.8828 0.4609 0.3281 0 0.6562-0.1211 0.6562-0.4844 0-0.3086-0.3008-0.418-0.8672-0.5547-0.4414-0.1016-0.9688-0.293-0.9688-0.9141 0-0.7148 0.625-1.016 1.254-1.016 0.4688 0 0.9688 0.1875 1.207 0.543l-0.457 0.3867" fill="#231f1f"/>
<path d="m335.6 163.8-0.4961-0.168 2.148-5.262 0.5 0.1836-2.152 5.246" fill="#231f1f"/>
<path d="m342.5 162.5h0.01172l1.465-3.809h1.078v4.957h-0.6953v-4.148h-0.01172l-1.645 4.148h-0.4414l-1.641-4.148h-0.01562v4.148h-0.668v-4.957h1.078l1.484 3.809" fill="#231f1f"/>
<path d="m346.8 163.6h-0.6602v-3.32h0.6602zm-0.3281-4.098c-0.2383 0-0.4336-0.1875-0.4336-0.4219 0-0.2344 0.1953-0.4258 0.4336-0.4258s0.4414 0.1836 0.4414 0.4258c0 0.2383-0.2031 0.4219-0.4414 0.4219" fill="#231f1f"/>
<path d="m348.4 160.3c0.01172 0.168 0.02734 0.4062 0.02734 0.5469h0.01953c0.1641-0.3594 0.6055-0.6367 1.082-0.6367 0.8516 0 1.238 0.6094 1.238 1.352v2.059h-0.6602v-1.844c0-0.5391-0.1445-1.016-0.7539-1.016-0.5195 0-0.8906 0.4375-0.8906 1.094v1.766h-0.6602v-2.605c0-0.1758-0.003906-0.4961-0.02734-0.7148h0.625" fill="#231f1f"/>
<path d="m352.5 163.6h-0.6602v-3.32h0.6602zm-0.332-4.098c-0.2383 0-0.4297-0.1875-0.4297-0.4219 0-0.2344 0.1914-0.4258 0.4297-0.4258 0.2422 0 0.4453 0.1836 0.4453 0.4258 0 0.2383-0.2031 0.4219-0.4453 0.4219" fill="#231f1f"/>
<path d="m355.2 160.2c0.4414 0 0.8281 0.1953 1.031 0.6641 0.2227-0.4258 0.6562-0.6641 1.129-0.6641 0.8516 0 1.238 0.6094 1.238 1.352v2.059h-0.6602v-1.844c0-0.5391-0.1602-1.016-0.7344-1.016-0.6016 0-0.8398 0.5469-0.8398 1.066v1.793h-0.6602v-1.977c0-0.5156-0.1719-0.8828-0.6992-0.8828-0.4844 0-0.8477 0.4375-0.8477 1.094v1.766h-0.6602v-2.605c0-0.1758-0.003906-0.4961-0.02734-0.7148h0.625c0.01562 0.168 0.02734 0.4062 0.02734 0.5469h0.01953c0.1719-0.3516 0.5547-0.6367 1.059-0.6367" fill="#231f1f"/>
<path d="m360.3 163.6h-0.6602v-3.32h0.6602zm-0.3281-4.098c-0.2383 0-0.4336-0.1875-0.4336-0.4219 0-0.2344 0.1953-0.4258 0.4336-0.4258s0.4414 0.1836 0.4414 0.4258c0 0.2383-0.2031 0.4219-0.4414 0.4219" fill="#231f1f"/>
<path d="m363.7 160.8-1.891 2.227h1.965v0.5547h-2.777v-0.5391l1.875-2.242h-1.785v-0.5391h2.613v0.5391" fill="#231f1f"/>
<path d="m366.9 161.7c-0.01562-0.5273-0.3203-0.9414-0.9336-0.9414-0.5664 0-1 0.4219-1.043 0.9414zm0.6562 0.4883h-2.633c0.02344 0.5664 0.4961 1.008 1.078 1.008 0.4492 0 0.7812-0.2227 0.9688-0.5039l0.4609 0.3711c-0.3555 0.4648-0.8398 0.6797-1.43 0.6797-1.008 0-1.75-0.6992-1.75-1.742 0-1.039 0.7422-1.758 1.715-1.758 0.9844 0 1.598 0.6641 1.598 1.723 0 0.07031 0 0.1445-0.007813 0.2227" fill="#231f1f"/>
<path d="m315.2 168.7 0.7461 2.535h0.01562l0.793-2.535h0.6914l0.8047 2.535h0.01562l0.75-2.535h0.6914l-1.098 3.32h-0.6875l-0.8203-2.496h-0.01172l-0.8125 2.496h-0.6875l-1.105-3.32h0.7148" fill="#231f1f"/>
<path d="m322.8 170.1c-0.01172-0.5234-0.3203-0.9375-0.9297-0.9375-0.5664 0-1.004 0.418-1.043 0.9375zm0.6602 0.4922h-2.633c0.01953 0.5664 0.4961 1.008 1.078 1.008 0.4492 0 0.7773-0.2266 0.9648-0.5039l0.4609 0.3711c-0.3555 0.4609-0.8398 0.6797-1.426 0.6797-1.008 0-1.754-0.7031-1.754-1.746 0-1.035 0.7461-1.758 1.719-1.758 0.9805 0 1.598 0.668 1.598 1.723 0 0.07031 0 0.1484-0.007813 0.2266" fill="#231f1f"/>
<path d="m325 172h-0.6562v-3.32h0.6562zm-0.3281-4.102c-0.2383 0-0.4336-0.1875-0.4336-0.418 0-0.2383 0.1953-0.4258 0.4336-0.4258s0.4414 0.1797 0.4414 0.4258c0 0.2383-0.2031 0.418-0.4414 0.418" fill="#231f1f"/>
<path d="m327.7 171.5c0.6797 0 1.125-0.5117 1.125-1.172 0-0.6289-0.4531-1.168-1.125-1.168-0.6953 0-1.102 0.5312-1.102 1.168 0 0.6094 0.4062 1.172 1.102 1.172zm-1.305 1.094c0.2891 0.3203 0.7578 0.5391 1.211 0.5391 0.8789 0 1.172-0.5391 1.172-1.227v-0.4258h-0.01562c-0.2422 0.3711-0.6992 0.5742-1.168 0.5742-1.016 0-1.672-0.7578-1.672-1.711s0.6484-1.73 1.664-1.73c0.4766 0 0.9453 0.2109 1.199 0.625h0.01172v-0.5312h0.6367v3.148c0 0.9688-0.4531 1.852-1.832 1.852-0.5742 0-1.215-0.2266-1.625-0.6055l0.418-0.5078" fill="#231f1f"/>
<path d="m331.3 169.2c0.1562-0.332 0.5742-0.5977 1.051-0.5977 0.8555 0 1.238 0.6094 1.238 1.352v2.062h-0.6562v-1.836c0-0.5391-0.1406-1.016-0.75-1.016-0.5195 0-0.8945 0.4336-0.8945 1.09v1.762h-0.6602v-5.297h0.6602v2.48h0.01172" fill="#231f1f"/>
<path d="m336.3 169.2h-0.8828v1.727c0 0.4023 0.1406 0.5625 0.4688 0.5625 0.1211 0 0.2734-0.02734 0.3867-0.08594l0.01953 0.5391c-0.1523 0.05859-0.3555 0.09375-0.5586 0.09375-0.6211 0-0.9688-0.3516-0.9688-1.039v-1.797h-0.6367v-0.5391h0.6367v-0.9531h0.6523v0.9531h0.8828v0.5391" fill="#231f1f"/>
<path d="m340.3 171.5c0.6797 0 1.129-0.5117 1.129-1.172 0-0.6289-0.4531-1.168-1.129-1.168-0.6914 0-1.098 0.5312-1.098 1.168 0 0.6094 0.4062 1.172 1.098 1.172zm-1.301 1.094c0.2852 0.3203 0.7578 0.5391 1.211 0.5391 0.8789 0 1.172-0.5391 1.172-1.227v-0.4258h-0.01562c-0.2461 0.3711-0.6992 0.5742-1.168 0.5742-1.016 0-1.676-0.7578-1.676-1.711s0.6523-1.73 1.668-1.73c0.4766 0 0.9453 0.2109 1.195 0.625h0.01562v-0.5312h0.6367v3.148c0 0.9688-0.4531 1.852-1.832 1.852-0.5742 0-1.215-0.2266-1.625-0.6055l0.418-0.5078" fill="#231f1f"/>
<path d="m345.1 170.4c-0.6523 0-1.477 0.07031-1.477 0.6328 0 0.3906 0.3477 0.5156 0.6758 0.5156 0.6172 0 0.9609-0.4141 0.9609-0.9727v-0.1758zm0.1602-0.5664c0-0.4922-0.3281-0.7305-0.8203-0.7305-0.3711 0-0.7188 0.1641-0.9453 0.3867l-0.3477-0.4219c0.3203-0.3047 0.8164-0.4961 1.355-0.4961 0.9531 0 1.387 0.5664 1.387 1.305v1.449c0 0.2227 0.01562 0.4961 0.05078 0.6602h-0.5938c-0.03516-0.1484-0.05859-0.3242-0.05859-0.4805h-0.01953c-0.2383 0.3594-0.6172 0.5625-1.113 0.5625-0.5273 0-1.203-0.2578-1.203-1.023 0-1 1.188-1.121 2.309-1.121v-0.08984" fill="#231f1f"/>
<path d="m347.6 172h-0.6602v-3.32h0.6602zm-0.3281-4.102c-0.2422 0-0.4375-0.1875-0.4375-0.418 0-0.2383 0.1953-0.4258 0.4375-0.4258 0.2344 0 0.4375 0.1797 0.4375 0.4258 0 0.2383-0.2031 0.418-0.4375 0.418" fill="#231f1f"/>
<path d="m349.4 168.7c0.01562 0.168 0.02734 0.4023 0.02734 0.543h0.02344c0.1602-0.3555 0.6016-0.6367 1.074-0.6367 0.8555 0 1.242 0.6094 1.242 1.352v2.062h-0.6602v-1.844c0-0.5391-0.1445-1.016-0.7539-1.016-0.5195 0-0.8906 0.4336-0.8906 1.094v1.766h-0.6602v-2.609c0-0.1719-0.003907-0.4961-0.02734-0.7109h0.625" fill="#231f1f"/>
<path d="m388.5 163h2.211v0.6172h-2.906v-4.957h0.6953v4.34" fill="#231f1f"/>
<path d="m392.8 160.7c-0.707 0-1.105 0.5703-1.105 1.199s0.3984 1.207 1.105 1.207c0.7148 0 1.105-0.5781 1.105-1.207s-0.3906-1.199-1.105-1.199zm0 2.957c-1.016 0-1.785-0.7344-1.785-1.758s0.7695-1.742 1.785-1.742 1.793 0.7188 1.793 1.742-0.7773 1.758-1.793 1.758" fill="#231f1f"/>
<path d="m395.7 160.3 0.75 2.535h0.01563l0.7891-2.535h0.6953l0.8047 2.535h0.01172l0.75-2.535h0.6953l-1.102 3.32h-0.6836l-0.8203-2.492h-0.01562l-0.8125 2.492h-0.6836l-1.109-3.32h0.7148" fill="#231f1f"/>
<path d="m403.3 163.6h-0.6602v-3.32h0.6602zm-0.3281-4.098c-0.2383 0-0.4375-0.1875-0.4375-0.4219 0-0.2344 0.1992-0.4258 0.4375-0.4258s0.4414 0.1836 0.4414 0.4258c0 0.2383-0.2031 0.4219-0.4414 0.4219" fill="#231f1f"/>
<path d="m405 160.3c0.01562 0.168 0.02734 0.4062 0.02734 0.5469h0.02344c0.1602-0.3594 0.6016-0.6367 1.078-0.6367 0.8555 0 1.238 0.6094 1.238 1.352v2.059h-0.6562v-1.844c0-0.5391-0.1484-1.016-0.7578-1.016-0.5195 0-0.8906 0.4375-0.8906 1.094v1.766h-0.6562v-2.605c0-0.1758-0.007812-0.4961-0.03125-0.7148h0.625" fill="#231f1f"/>
<path d="m410.8 161.1c-0.1406-0.2148-0.4492-0.3789-0.7656-0.3789-0.6836 0-1.086 0.5625-1.086 1.199 0 0.6289 0.4023 1.199 1.094 1.199 0.3359 0 0.625-0.1406 0.8008-0.3672l0.4414 0.4023c-0.2812 0.3203-0.7109 0.5156-1.242 0.5156-1.02 0-1.785-0.6914-1.785-1.75 0-1.043 0.7578-1.75 1.773-1.75 0.4688 0 0.9727 0.1875 1.246 0.543l-0.4766 0.3867" fill="#231f1f"/>
<path d="m413.5 160.7c-0.707 0-1.105 0.5703-1.105 1.199s0.3984 1.207 1.105 1.207c0.7148 0 1.109-0.5781 1.109-1.207s-0.3945-1.199-1.109-1.199zm0 2.957c-1.012 0-1.785-0.7344-1.785-1.758s0.7734-1.742 1.785-1.742c1.016 0 1.793 0.7188 1.793 1.742s-0.7773 1.758-1.793 1.758" fill="#231f1f"/>
<path d="m417.9 160.2c0.4414 0 0.8242 0.1953 1.027 0.6641 0.2227-0.4258 0.6602-0.6641 1.129-0.6641 0.8555 0 1.238 0.6094 1.238 1.352v2.059h-0.6562v-1.844c0-0.5391-0.1602-1.016-0.7383-1.016-0.6016 0-0.8398 0.5469-0.8398 1.066v1.793h-0.6562v-1.977c0-0.5156-0.1758-0.8828-0.7031-0.8828-0.4805 0-0.8438 0.4375-0.8438 1.094v1.766h-0.6602v-2.605c0-0.1758-0.007812-0.4961-0.02734-0.7148h0.6211c0.01563 0.168 0.02734 0.4062 0.02734 0.5469h0.02344c0.168-0.3516 0.5547-0.6367 1.059-0.6367" fill="#231f1f"/>
<path d="m424.9 161.7c-0.01563-0.5273-0.3242-0.9414-0.9336-0.9414-0.5664 0-1 0.4219-1.043 0.9414zm0.6562 0.4883h-2.633c0.01953 0.5664 0.4961 1.008 1.078 1.008 0.4492 0 0.7773-0.2227 0.9648-0.5039l0.4648 0.3711c-0.3594 0.4648-0.8398 0.6797-1.43 0.6797-1.008 0-1.75-0.6992-1.75-1.742 0-1.039 0.7422-1.758 1.715-1.758 0.9805 0 1.598 0.6641 1.598 1.723 0 0.07031 0 0.1445-0.007812 0.2227" fill="#231f1f"/>
<path d="m428.1 163.8-0.5-0.168 2.152-5.262 0.4961 0.1836-2.148 5.246" fill="#231f1f"/>
<path d="m436.9 162.8c-0.3828 0.5234-1.02 0.8945-1.887 0.8945-1.523 0-2.613-1.086-2.613-2.613 0-1.547 1.133-2.598 2.637-2.598 0.6836 0 1.418 0.2656 1.781 0.7695l-0.5469 0.4219c-0.2383-0.3359-0.7227-0.582-1.234-0.582-1.145 0-1.883 0.9023-1.883 1.988 0 1.117 0.7227 1.996 1.863 1.996 0.5547 0 1.039-0.2305 1.332-0.6562l0.5508 0.3789" fill="#231f1f"/>
<path d="m439 160.7c-0.707 0-1.105 0.5703-1.105 1.199s0.3984 1.207 1.105 1.207c0.7148 0 1.105-0.5781 1.105-1.207s-0.3906-1.199-1.105-1.199zm0 2.957c-1.016 0-1.785-0.7344-1.785-1.758s0.7695-1.742 1.785-1.742 1.793 0.7188 1.793 1.742-0.7773 1.758-1.793 1.758" fill="#231f1f"/>
<path d="m443.5 161.1c-0.1445-0.2383-0.4336-0.4141-0.7695-0.4141-0.3008 0-0.6172 0.1211-0.6172 0.4375 0 0.2773 0.2539 0.3828 0.7578 0.4961 0.6289 0.1406 1.113 0.3984 1.113 0.9805 0 0.7852-0.6523 1.07-1.324 1.07-0.5039 0-1.02-0.1953-1.336-0.5938l0.4688-0.3984c0.1758 0.2578 0.5117 0.4609 0.8828 0.4609 0.3281 0 0.6562-0.1211 0.6562-0.4844 0-0.3086-0.3008-0.418-0.8672-0.5547-0.4414-0.1016-0.9648-0.293-0.9648-0.9141 0-0.7148 0.6211-1.016 1.254-1.016 0.4688 0 0.9648 0.1875 1.203 0.543l-0.457 0.3867" fill="#231f1f"/>
<path d="m446.5 160.8h-0.8828v1.73c0 0.3984 0.1406 0.5586 0.4688 0.5586 0.1211 0 0.2734-0.02734 0.3867-0.08203l0.01953 0.5391c-0.1523 0.05469-0.3555 0.08984-0.5586 0.08984-0.625 0-0.9688-0.3477-0.9688-1.035v-1.801h-0.6367v-0.5391h0.6367v-0.9531h0.6523v0.9531h0.8828v0.5391" fill="#231f1f"/>
<path d="m401.7 169.1c-0.6758 0-1.121 0.5664-1.121 1.203 0 0.6406 0.4453 1.199 1.121 1.199 0.7188 0 1.105-0.582 1.105-1.203 0-0.625-0.3867-1.199-1.105-1.199zm-1.078 4.547h-0.6602v-5h0.6445v0.5156h0.01953c0.2188-0.3477 0.6523-0.6094 1.199-0.6094 0.9883 0 1.66 0.7656 1.66 1.746 0 0.9727-0.6523 1.758-1.676 1.758-0.4688 0-0.9258-0.2188-1.168-0.5898h-0.01953v2.18" fill="#231f1f"/>
<path d="m404.4 168.7h0.625c0.01172 0.168 0.02344 0.418 0.02344 0.5586h0.02344c0.1797-0.3867 0.5664-0.6523 1.016-0.6523 0.08984 0 0.1836 0.007812 0.2578 0.02734l-0.02734 0.6094c-0.08203-0.01953-0.1953-0.03516-0.3008-0.03516-0.6289 0-0.9336 0.5117-0.9336 1.066v1.746h-0.6562v-2.609c0-0.1719-0.007812-0.4961-0.02734-0.7109" fill="#231f1f"/>
<path d="m408.4 169.1c-0.707 0-1.105 0.5664-1.105 1.199 0 0.6289 0.3984 1.203 1.105 1.203 0.7148 0 1.105-0.5742 1.105-1.203 0-0.6328-0.3906-1.199-1.105-1.199zm0 2.957c-1.016 0-1.785-0.7383-1.785-1.758 0-1.023 0.7695-1.746 1.785-1.746s1.793 0.7227 1.793 1.746c0 1.02-0.7773 1.758-1.793 1.758" fill="#231f1f"/>
<path d="m411.8 169.2c0.1562-0.332 0.5742-0.5977 1.051-0.5977 0.8555 0 1.242 0.6094 1.242 1.352v2.062h-0.6602v-1.836c0-0.5391-0.1406-1.016-0.75-1.016-0.5195 0-0.8945 0.4336-0.8945 1.09v1.762h-0.6602v-5.297h0.6602v2.48h0.01172" fill="#231f1f"/>
<path d="m415.8 172h-0.6602v-3.32h0.6602zm-0.332-4.102c-0.2383 0-0.4336-0.1875-0.4336-0.418 0-0.2383 0.1953-0.4258 0.4336-0.4258s0.4414 0.1797 0.4414 0.4258c0 0.2383-0.2031 0.418-0.4414 0.418" fill="#231f1f"/>
<path d="m418.7 169.1c-0.6719 0-1.117 0.5664-1.117 1.203 0 0.6406 0.4453 1.199 1.117 1.199 0.7227 0 1.109-0.582 1.109-1.203 0-0.625-0.3867-1.199-1.109-1.199zm-1.098 2.34v0.5273h-0.6367v-5.297h0.6562v2.473h0.02344c0.2227-0.3242 0.6367-0.5898 1.184-0.5898 0.9844 0 1.66 0.7656 1.66 1.746 0 0.9727-0.6523 1.758-1.676 1.758-0.4688 0-0.9375-0.2188-1.199-0.6172h-0.01172" fill="#231f1f"/>
<path d="m422.1 172h-0.6562v-3.32h0.6562zm-0.3281-4.102c-0.2383 0-0.4336-0.1875-0.4336-0.418 0-0.2383 0.1953-0.4258 0.4336-0.4258s0.4414 0.1797 0.4414 0.4258c0 0.2383-0.2031 0.418-0.4414 0.418" fill="#231f1f"/>
<path d="m424.9 169.2h-0.8828v1.727c0 0.4023 0.1406 0.5625 0.4688 0.5625 0.1211 0 0.2734-0.02734 0.3867-0.08594l0.01953 0.5391c-0.1523 0.05859-0.3555 0.09375-0.5586 0.09375-0.625 0-0.9688-0.3516-0.9688-1.039v-1.797h-0.6367v-0.5391h0.6367v-0.9531h0.6523v0.9531h0.8828v0.5391" fill="#231f1f"/>
<path d="m426.2 172h-0.6602v-3.32h0.6602zm-0.332-4.102c-0.2383 0-0.4297-0.1875-0.4297-0.418 0-0.2383 0.1914-0.4258 0.4297-0.4258 0.2422 0 0.4453 0.1797 0.4453 0.4258 0 0.2383-0.2031 0.418-0.4453 0.418" fill="#231f1f"/>
<path d="m428.9 172h-0.7109l-1.355-3.32h0.7305l0.9727 2.609h0.01563l0.9805-2.609h0.6992l-1.332 3.32" fill="#231f1f"/>
<path d="m433.3 170.1c-0.01562-0.5234-0.3203-0.9375-0.9336-0.9375-0.5664 0-1 0.418-1.043 0.9375zm0.6562 0.4922h-2.633c0.02344 0.5664 0.4961 1.008 1.078 1.008 0.4492 0 0.7812-0.2266 0.9688-0.5039l0.4609 0.3711c-0.3555 0.4609-0.8398 0.6797-1.43 0.6797-1.008 0-1.75-0.7031-1.75-1.746 0-1.035 0.7422-1.758 1.715-1.758 0.9844 0 1.598 0.668 1.598 1.723 0 0.07031 0 0.1484-0.007813 0.2266" fill="#231f1f"/>
<path d="m237.6 220.7h0.8672c1.199 0 2.074-0.6875 2.074-1.871 0-1.227-0.875-1.875-2.074-1.875h-0.8672zm-0.6914-4.352h1.699c1.27 0 2.676 0.7227 2.676 2.48 0 1.695-1.406 2.48-2.676 2.48h-1.699v-4.961" fill="#231f1f"/>
<path d="m242.9 218.6h0.7344c0.6797 0 1.156-0.2266 1.156-0.8164 0-0.5938-0.4922-0.7891-1.145-0.7891h-0.7461zm-0.6953-2.195h1.512c1.074 0 1.773 0.4141 1.773 1.379 0 0.9961-0.7773 1.402-1.809 1.402h-0.7812v2.18h-0.6953v-4.961" fill="#231f1f"/>
<path d="m247.1 218.6h0.7344c0.6797 0 1.156-0.2266 1.156-0.8164 0-0.5938-0.4922-0.7891-1.141-0.7891h-0.75zm-0.6953-2.195h1.516c1.07 0 1.77 0.4141 1.77 1.379 0 0.9961-0.7773 1.402-1.805 1.402h-0.7852v2.18h-0.6953v-4.961" fill="#231f1f"/>
<path d="m251.7 219.9h-1.625v-0.5625h1.625v0.5625" fill="#231f1f"/>
<path d="m254.5 217.1h-0.01172l-1.57 2.488h1.582zm0.6602 2.488h0.7148v0.582h-0.7148v1.113h-0.6602v-1.113h-2.281v-0.6172l2.105-3.23h0.8359v3.266" fill="#231f1f"/>
<path d="m257.4 221.3h-0.6602v-3.32h0.6602zm-0.3281-4.098c-0.2383 0-0.4336-0.1914-0.4336-0.4219 0-0.2383 0.1953-0.4258 0.4336-0.4258 0.2383 0 0.4414 0.1836 0.4414 0.4258 0 0.2383-0.2031 0.4219-0.4414 0.4219" fill="#231f1f"/>
<path d="m236.4 226.4c-0.293-0.3203-0.7773-0.5391-1.344-0.5391-1.164 0-1.895 0.9023-1.895 1.988 0 1.105 0.7305 1.988 1.914 1.988 0.4609 0 0.8672-0.08984 1.156-0.2422v-1.383h-1.102v-0.5859h1.785v2.402c-0.5156 0.2812-1.133 0.4336-1.859 0.4336-1.551 0-2.648-1.086-2.648-2.613 0-1.547 1.133-2.598 2.641-2.598 0.7812 0 1.43 0.25 1.836 0.6445l-0.4844 0.5039" fill="#231f1f"/>
<path d="m238.8 229.7h2.215v0.6172h-2.906v-4.961h0.6914v4.344" fill="#231f1f"/>
<path d="m242.3 227.6h0.7344c0.6797 0 1.156-0.2266 1.156-0.8164 0-0.5938-0.4922-0.7891-1.145-0.7891h-0.7461zm-0.6953-2.195h1.516c1.07 0 1.77 0.4141 1.77 1.379 0 0.9961-0.7773 1.402-1.805 1.402h-0.7852v2.18h-0.6953v-4.961" fill="#231f1f"/>
<path d="m246.9 228.9h-1.625v-0.5625h1.625v0.5625" fill="#231f1f"/>
<path d="m249.8 230.3h-0.6797v-4.133l-0.9375 0.7852-0.4023-0.4688 1.41-1.145h0.6094v4.961" fill="#231f1f"/>
<path d="m254.4 227.5h0.7969c0.6523 0 1.164-0.2031 1.164-0.7969 0-0.5977-0.5117-0.7852-1.113-0.7852h-0.8477zm0 2.789h-0.6953v-4.961h1.594c0.957 0 1.762 0.3672 1.762 1.375 0 0.7266-0.4961 1.191-1.203 1.309l1.387 2.277h-0.8398l-1.262-2.207h-0.7422v2.207" fill="#231f1f"/>
<path d="m258.9 228.5h1.855l-0.9219-2.324zm-0.7422 1.828h-0.7695l2.148-4.961h0.6328l2.129 4.961h-0.7852l-0.5039-1.219h-2.355l-0.4961 1.219" fill="#231f1f"/>
<path d="m239 235.3c-0.1953-0.2734-0.5547-0.4609-0.9688-0.4609-0.4453 0-0.9648 0.2461-0.9648 0.8047 0 0.5391 0.457 0.6875 1.016 0.8672 0.6641 0.2109 1.457 0.4648 1.457 1.449 0 1.031-0.832 1.508-1.715 1.508-0.625 0-1.254-0.2461-1.633-0.7227l0.5391-0.4531c0.2305 0.3438 0.6523 0.582 1.105 0.582 0.4648 0 0.9961-0.2617 0.9961-0.8477 0-0.6055-0.5469-0.7656-1.176-0.9609-0.6328-0.1953-1.289-0.4844-1.289-1.395 0-0.9883 0.8828-1.414 1.699-1.414 0.5781 0 1.117 0.2266 1.422 0.5664l-0.4883 0.4766" fill="#231f1f"/>
<path d="m244.3 235.4c-0.2969-0.3203-0.7773-0.5391-1.344-0.5391-1.164 0-1.895 0.9023-1.895 1.988 0 1.105 0.7305 1.988 1.914 1.988 0.4609 0 0.8672-0.08984 1.156-0.2422v-1.383h-1.102v-0.5859h1.789v2.402c-0.5195 0.2812-1.137 0.4336-1.863 0.4336-1.551 0-2.648-1.086-2.648-2.613 0-1.547 1.133-2.598 2.641-2.598 0.7852 0 1.426 0.25 1.836 0.6445l-0.4844 0.5039" fill="#231f1f"/>
<path d="m246.7 238.7h2.215v0.6172h-2.91v-4.961h0.6953v4.344" fill="#231f1f"/>
<path d="m250.7 239.3h-0.6953v-4.352h-1.59v-0.6094h3.875v0.6094h-1.59v4.352" fill="#231f1f"/>
<path d="m256 239.3h-3.238v-0.6523l1.977-1.961c0.3008-0.3086 0.5469-0.6328 0.5469-1.051 0-0.5195-0.3945-0.8555-0.8828-0.8555-0.5078 0-0.8477 0.3672-0.9336 0.8633l-0.6641-0.1133c0.1172-0.7539 0.7539-1.316 1.605-1.316 0.8242 0 1.566 0.4844 1.566 1.41 0 0.6328-0.3633 1.07-0.7969 1.496l-1.613 1.57h2.434v0.6094" fill="#231f1f"/>
<path d="m257.7 239.3h-0.6562v-3.32h0.6562zm-0.3281-4.098c-0.2383 0-0.4336-0.1914-0.4336-0.4219 0-0.2383 0.1953-0.4258 0.4336-0.4258s0.4414 0.1836 0.4414 0.4258c0 0.2383-0.2031 0.4219-0.4414 0.4219" fill="#231f1f"/>
<path d="m242.8 248.3h-0.6914v-4.352h-1.59v-0.6094h3.871v0.6094h-1.59v4.352" fill="#231f1f"/>
<path d="m248.2 244-2.801 3.734h2.844v0.6172h-3.684v-0.6094l2.793-3.742h-2.738v-0.6094h3.586v0.6094" fill="#231f1f"/>
<path d="m249.8 247.7h0.8672c1.199 0 2.074-0.6875 2.074-1.871 0-1.227-0.875-1.875-2.074-1.875h-0.8672zm-0.6914-4.352h1.699c1.27 0 2.676 0.7227 2.676 2.48 0 1.695-1.406 2.48-2.676 2.48h-1.699v-4.961" fill="#231f1f"/>
<path d="m322.9 220.4c-0.293-0.3242-0.7773-0.5391-1.344-0.5391-1.164 0-1.891 0.9023-1.891 1.988 0 1.105 0.7266 1.988 1.91 1.988 0.4648 0 0.8711-0.08984 1.156-0.2422v-1.383h-1.098v-0.5859h1.785v2.402c-0.5195 0.2812-1.137 0.4336-1.863 0.4336-1.547 0-2.648-1.086-2.648-2.613 0-1.547 1.137-2.598 2.641-2.598 0.7852 0 1.43 0.25 1.836 0.6445l-0.4844 0.5039" fill="#231f1f"/>
<path d="m325.2 223.7h2.215v0.6172h-2.906v-4.961h0.6914v4.344" fill="#231f1f"/>
<path d="m328.7 221.5h0.7344c0.6797 0 1.156-0.2227 1.156-0.8125 0-0.5938-0.4883-0.7891-1.141-0.7891h-0.75zm-0.6914-2.191h1.512c1.07 0 1.773 0.4141 1.773 1.379 0 0.9961-0.7773 1.402-1.809 1.402h-0.7852v2.18h-0.6914v-4.961" fill="#231f1f"/>
<path d="m333.2 222.9h-1.625v-0.5625h1.625v0.5625" fill="#231f1f"/>
<path d="m336.1 224.3h-0.6797v-4.133l-0.9375 0.7852-0.3984-0.4688 1.406-1.145h0.6094v4.961" fill="#231f1f"/>
<path d="m340.5 221.5h0.7969c0.6523 0 1.164-0.2031 1.164-0.7969 0-0.5977-0.5117-0.7852-1.113-0.7852h-0.8477zm0 2.789h-0.6914v-4.961h1.59c0.957 0 1.762 0.3633 1.762 1.375 0 0.7266-0.4961 1.188-1.203 1.309l1.387 2.277h-0.8398l-1.262-2.207h-0.7422v2.207" fill="#231f1f"/>
<path d="m345 222.5h1.855l-0.9258-2.328zm-0.7422 1.828h-0.7734l2.152-4.961h0.6289l2.129 4.961h-0.7852l-0.5039-1.219h-2.352l-0.4961 1.219" fill="#231f1f"/>
<path d="m325.5 228.7c-0.1953-0.2734-0.5508-0.4648-0.9648-0.4648-0.4492 0-0.9648 0.2461-0.9648 0.8047 0 0.5391 0.4531 0.6875 1.016 0.8711 0.6641 0.2109 1.453 0.4609 1.453 1.449 0 1.027-0.832 1.504-1.715 1.504-0.6211 0-1.254-0.2422-1.629-0.7188l0.5352-0.457c0.2344 0.3438 0.6523 0.582 1.109 0.582 0.4609 0 0.9922-0.2578 0.9922-0.8477 0-0.6016-0.543-0.7617-1.176-0.9609-0.6289-0.1953-1.289-0.4805-1.289-1.391 0-0.9883 0.8828-1.418 1.703-1.418 0.5742 0 1.113 0.2266 1.422 0.5703l-0.4922 0.4766" fill="#231f1f"/>
<path d="m330.7 228.8c-0.293-0.3242-0.7734-0.543-1.344-0.543-1.16 0-1.891 0.9062-1.891 1.992 0 1.105 0.7305 1.988 1.914 1.988 0.4609 0 0.8672-0.08984 1.152-0.2461v-1.379h-1.098v-0.5898h1.785v2.402c-0.5195 0.2812-1.133 0.4336-1.863 0.4336-1.547 0-2.645-1.086-2.645-2.609 0-1.551 1.133-2.602 2.637-2.602 0.7852 0 1.43 0.2539 1.836 0.6445l-0.4844 0.5078" fill="#231f1f"/>
<path d="m333 232.1h2.211v0.6172h-2.902v-4.957h0.6914v4.34" fill="#231f1f"/>
<path d="m336.9 232.7h-0.6914v-4.348h-1.59v-0.6094h3.871v0.6094h-1.59v4.348" fill="#231f1f"/>
<path d="m342.2 232.7h-3.238v-0.6523l1.977-1.961c0.3008-0.3086 0.5469-0.6289 0.5469-1.051 0-0.5156-0.3945-0.8516-0.8828-0.8516-0.5078 0-0.8477 0.3633-0.9336 0.8594l-0.6641-0.1094c0.1172-0.7578 0.7539-1.32 1.605-1.32 0.8242 0 1.566 0.4844 1.566 1.41 0 0.6367-0.3633 1.07-0.7969 1.5l-1.613 1.566h2.434v0.6094" fill="#231f1f"/>
<path d="m343.8 232.7h-0.6562v-3.32h0.6562zm-0.3281-4.098c-0.2383 0-0.4336-0.1875-0.4336-0.418 0-0.2383 0.1953-0.4297 0.4336-0.4297s0.4414 0.1836 0.4414 0.4297c0 0.2383-0.2031 0.418-0.4414 0.418" fill="#231f1f"/>
<path d="m298.5 240.5h0.8711c1.195 0 2.07-0.6836 2.07-1.867 0-1.227-0.875-1.879-2.07-1.879h-0.8711zm-0.6914-4.348h1.703c1.266 0 2.672 0.7227 2.672 2.48 0 1.695-1.406 2.477-2.672 2.477h-1.703v-4.957" fill="#231f1f"/>
<path d="m303.7 238.3h0.7344c0.6797 0 1.156-0.2227 1.156-0.8125 0-0.5938-0.4883-0.7891-1.141-0.7891h-0.75zm-0.6914-2.191h1.512c1.07 0 1.773 0.4141 1.773 1.379 0 0.9961-0.7812 1.402-1.809 1.402h-0.7852v2.176h-0.6914v-4.957" fill="#231f1f"/>
<path d="m307.8 238.3h0.7383c0.6797 0 1.152-0.2227 1.152-0.8125 0-0.5938-0.4883-0.7891-1.141-0.7891h-0.75zm-0.6914-2.191h1.512c1.07 0 1.773 0.4141 1.773 1.379 0 0.9961-0.7773 1.402-1.809 1.402h-0.7852v2.176h-0.6914v-4.957" fill="#231f1f"/>
<path d="m312.3 239.7h-1.625v-0.5625h1.625v0.5625" fill="#231f1f"/>
<path d="m315 236.9h-0.01172l-1.57 2.484h1.582zm0.6602 2.484h0.7109v0.582h-0.7109v1.113h-0.6602v-1.113h-2.281v-0.6133l2.105-3.23h0.8359v3.262" fill="#231f1f"/>
<path d="m317.9 241.1h-0.6602v-3.316h0.6602zm-0.332-4.098c-0.2344 0-0.4297-0.1875-0.4297-0.418 0-0.2383 0.1953-0.4258 0.4297-0.4258 0.2422 0 0.4453 0.1797 0.4453 0.4258 0 0.2383-0.2031 0.418-0.4453 0.418" fill="#231f1f"/>
<path d="m321.8 241.9-0.4766 0.3086c-0.6172-0.8281-1.023-1.949-1.023-3.117s0.4062-2.289 1.023-3.117l0.4766 0.3086c-0.5469 0.7617-0.9023 1.785-0.9023 2.809 0 1.023 0.3555 2.047 0.9023 2.809" fill="#231f1f"/>
<path d="m323 237.8 0.75 2.535h0.01562l0.7891-2.535h0.6953l0.8047 2.535h0.01172l0.75-2.535h0.6953l-1.102 3.316h-0.6836l-0.8203-2.492h-0.01562l-0.8125 2.492h-0.6836l-1.109-3.316h0.7148" fill="#231f1f"/>
<path d="m330.5 239.1c-0.01562-0.5234-0.3242-0.9375-0.9336-0.9375-0.5664 0-1 0.418-1.043 0.9375zm0.6562 0.4922h-2.633c0.01953 0.5664 0.4961 1.008 1.078 1.008 0.4492 0 0.7773-0.2266 0.9688-0.5039l0.4609 0.3711c-0.3555 0.4609-0.8398 0.6797-1.43 0.6797-1.008 0-1.75-0.7031-1.75-1.746 0-1.035 0.7422-1.758 1.715-1.758 0.9805 0 1.598 0.668 1.598 1.723 0 0.07031 0 0.1484-0.007813 0.2266" fill="#231f1f"/>
<path d="m332.7 241.1h-0.6602v-3.316h0.6602zm-0.332-4.098c-0.2344 0-0.4297-0.1875-0.4297-0.418 0-0.2383 0.1953-0.4258 0.4297-0.4258 0.2383 0 0.4453 0.1797 0.4453 0.4258 0 0.2383-0.207 0.418-0.4453 0.418" fill="#231f1f"/>
<path d="m335.3 240.6c0.6836 0 1.129-0.5117 1.129-1.172 0-0.6289-0.4531-1.168-1.129-1.168-0.6914 0-1.098 0.5312-1.098 1.168 0 0.6133 0.4062 1.172 1.098 1.172zm-1.301 1.094c0.2852 0.3203 0.7578 0.5391 1.211 0.5391 0.875 0 1.172-0.5391 1.172-1.227v-0.4258h-0.01562c-0.2461 0.3711-0.6992 0.5742-1.168 0.5742-1.016 0-1.676-0.7578-1.676-1.711s0.6523-1.73 1.668-1.73c0.4766 0 0.9453 0.2109 1.195 0.625h0.01563v-0.5312h0.6367v3.148c0 0.9688-0.4531 1.852-1.836 1.852-0.5742 0-1.211-0.2266-1.625-0.6055l0.4219-0.5078" fill="#231f1f"/>
<path d="m338.8 238.3c0.1562-0.332 0.5742-0.5977 1.051-0.5977 0.8555 0 1.238 0.6094 1.238 1.352v2.059h-0.6562v-1.832c0-0.5391-0.1406-1.016-0.75-1.016-0.5195 0-0.8984 0.4336-0.8984 1.09v1.758h-0.6562v-5.293h0.6562v2.48h0.01562" fill="#231f1f"/>
<path d="m343.8 238.3h-0.8828v1.727c0 0.4023 0.1406 0.5625 0.4688 0.5625 0.1211 0 0.2734-0.02734 0.3867-0.08594l0.01953 0.5391c-0.1523 0.05859-0.3555 0.09375-0.5586 0.09375-0.625 0-0.9688-0.3516-0.9688-1.039v-1.797h-0.6367v-0.5391h0.6367v-0.9531h0.6523v0.9531h0.8828v0.5391" fill="#231f1f"/>
<path d="m346.6 237.8c0.01562 0.168 0.02734 0.4062 0.02734 0.543h0.02344c0.1602-0.3555 0.6016-0.6367 1.078-0.6367 0.8555 0 1.238 0.6094 1.238 1.352v2.059h-0.6602v-1.84c0-0.5391-0.1445-1.016-0.7539-1.016-0.5195 0-0.8906 0.4336-0.8906 1.094v1.762h-0.6562v-2.605c0-0.1719-0.007813-0.4961-0.03125-0.7109h0.625" fill="#231f1f"/>
<path d="m352.5 239.1c-0.01562-0.5234-0.3242-0.9375-0.9336-0.9375-0.5664 0-1 0.418-1.043 0.9375zm0.6562 0.4922h-2.633c0.01953 0.5664 0.4961 1.008 1.078 1.008 0.4492 0 0.7773-0.2266 0.9648-0.5039l0.4648 0.3711c-0.3594 0.4609-0.8398 0.6797-1.43 0.6797-1.008 0-1.75-0.7031-1.75-1.746 0-1.035 0.7422-1.758 1.715-1.758 0.9805 0 1.598 0.668 1.598 1.723 0 0.07031 0 0.1484-0.007813 0.2266" fill="#231f1f"/>
<path d="m356.3 241.1c-0.01172-0.168-0.02734-0.4062-0.02734-0.543h-0.01172c-0.168 0.3477-0.6055 0.6367-1.086 0.6367-0.8555 0-1.242-0.6094-1.242-1.352v-2.059h0.6602v1.832c0 0.5469 0.1445 1.023 0.7578 1.023 0.5234 0 0.8867-0.4336 0.8867-1.094v-1.762h0.6602v2.602c0 0.1758 0.003906 0.5 0.02734 0.7148h-0.625" fill="#231f1f"/>
<path d="m359.6 238.3h-0.8867v1.727c0 0.4023 0.1445 0.5625 0.4727 0.5625 0.1172 0 0.2695-0.02734 0.3828-0.08594l0.02344 0.5391c-0.1562 0.05859-0.3594 0.09375-0.5625 0.09375-0.6211 0-0.9648-0.3516-0.9648-1.039v-1.797h-0.6367v-0.5391h0.6367v-0.9531h0.6484v0.9531h0.8867v0.5391" fill="#231f1f"/>
<path d="m360.2 237.8h0.625c0.01172 0.168 0.02734 0.418 0.02734 0.5586h0.01953c0.1836-0.3867 0.5664-0.6523 1.016-0.6523 0.08984 0 0.1836 0.007812 0.2578 0.02734l-0.02734 0.6094c-0.08203-0.01953-0.1953-0.03516-0.3008-0.03516-0.6289 0-0.9297 0.5117-0.9297 1.066v1.742h-0.6602v-2.605c0-0.1719-0.007813-0.4961-0.02734-0.7109" fill="#231f1f"/>
<path d="m364.5 239.5c-0.6484 0-1.477 0.07031-1.477 0.6328 0 0.3906 0.3516 0.5156 0.6797 0.5156 0.6172 0 0.9609-0.4141 0.9609-0.9727v-0.1758zm0.1641-0.5664c0-0.4922-0.3281-0.7305-0.8203-0.7305-0.3711 0-0.7227 0.1641-0.9453 0.3867l-0.3516-0.418c0.3242-0.3086 0.8203-0.5 1.359-0.5 0.9531 0 1.387 0.5664 1.387 1.305v1.449c0 0.2227 0.01172 0.4961 0.04687 0.6562h-0.5938c-0.03516-0.1445-0.05469-0.3203-0.05469-0.4766h-0.02344c-0.2383 0.3594-0.6133 0.5625-1.113 0.5625-0.5234 0-1.203-0.2578-1.203-1.023 0-1 1.191-1.121 2.312-1.121v-0.08984" fill="#231f1f"/>
<path d="m367 241.1h-0.6562v-5.293h0.6562v5.293" fill="#231f1f"/>
<path d="m368 236.3 0.4766-0.3086c0.6133 0.8281 1.02 1.949 1.02 3.117s-0.4062 2.289-1.02 3.117l-0.4766-0.3086c0.5469-0.7617 0.9023-1.785 0.9023-2.809 0-1.023-0.3555-2.047-0.9023-2.809" fill="#231f1f"/>
<path d="m414.3 220.2c-0.1953-0.2734-0.5508-0.4609-0.9648-0.4609-0.4492 0-0.9688 0.2422-0.9688 0.8047 0 0.5391 0.457 0.6875 1.016 0.8672 0.668 0.2109 1.457 0.4648 1.457 1.449 0 1.031-0.832 1.508-1.715 1.508-0.625 0-1.254-0.2461-1.633-0.7227l0.5391-0.4531c0.2305 0.3398 0.6523 0.5781 1.105 0.5781 0.4648 0 0.9961-0.2578 0.9961-0.8438 0-0.6055-0.5469-0.7656-1.176-0.9609-0.6328-0.1953-1.289-0.4844-1.289-1.395 0-0.9883 0.8828-1.414 1.703-1.414 0.5742 0 1.113 0.2227 1.422 0.5664l-0.4922 0.4766" fill="#231f1f"/>
<path d="m416.6 224.3h-0.6914v-4.961h3.094v0.6094h-2.402v1.543h2.25v0.5938h-2.25v2.215" fill="#231f1f"/>
<path d="m419.8 222.5v-3.125h0.6953v3.082c0 0.6797 0.3086 1.379 1.23 1.379 0.9258 0 1.234-0.6992 1.234-1.379v-3.082h0.6914v3.125c0 1.016-0.6133 1.961-1.926 1.961-1.309 0-1.926-0.9453-1.926-1.961" fill="#231f1f"/>
<path d="m413.4 232.7h-0.6914v-4.348h-1.594v-0.6094h3.875v0.6094h-1.59v4.348" fill="#231f1f"/>
<path d="m418.8 228.3-2.805 3.73h2.848v0.6172h-3.688v-0.6094l2.797-3.738h-2.738v-0.6094h3.586v0.6094" fill="#231f1f"/>
<path d="m420.4 232.1h0.8672c1.199 0 2.074-0.6875 2.074-1.871 0-1.223-0.875-1.875-2.074-1.875h-0.8672zm-0.6953-4.348h1.703c1.266 0 2.676 0.7188 2.676 2.477 0 1.695-1.41 2.48-2.676 2.48h-1.703v-4.957" fill="#231f1f"/>
<path d="m395.4 241.1h-0.6953v-4.957h0.6953v4.957" fill="#231f1f"/>
<path d="m397.2 237.8c0.01562 0.168 0.02734 0.4062 0.02734 0.543h0.02344c0.1602-0.3555 0.6016-0.6367 1.078-0.6367 0.8555 0 1.238 0.6094 1.238 1.352v2.059h-0.6562v-1.84c0-0.5391-0.1484-1.016-0.7578-1.016-0.5195 0-0.8906 0.4336-0.8906 1.094v1.762h-0.6562v-2.605c0-0.1719-0.007813-0.4961-0.02734-0.7109h0.6211" fill="#231f1f"/>
<path d="m402.5 238.6c-0.1484-0.2383-0.4336-0.4141-0.7734-0.4141-0.3008 0-0.6133 0.1172-0.6133 0.4336 0 0.2812 0.25 0.3867 0.7578 0.5 0.6289 0.1367 1.113 0.3984 1.113 0.9766 0 0.7852-0.6523 1.074-1.324 1.074-0.5039 0-1.023-0.1992-1.34-0.5977l0.4688-0.3984c0.1758 0.2578 0.5117 0.4609 0.8828 0.4609 0.3281 0 0.6602-0.1172 0.6602-0.4805 0-0.3086-0.3008-0.4219-0.8711-0.5547-0.4414-0.1055-0.9648-0.293-0.9648-0.918 0-0.7148 0.625-1.016 1.254-1.016 0.4688 0 0.9648 0.1914 1.203 0.5469l-0.4531 0.3867" fill="#231f1f"/>
<path d="m406.1 241.1c-0.01172-0.168-0.02734-0.4062-0.02734-0.543h-0.01172c-0.168 0.3477-0.6055 0.6367-1.086 0.6367-0.8555 0-1.242-0.6094-1.242-1.352v-2.059h0.6602v1.832c0 0.5469 0.1445 1.023 0.7578 1.023 0.5234 0 0.8867-0.4336 0.8867-1.094v-1.762h0.6602v2.602c0 0.1758 0.003907 0.5 0.02734 0.7148h-0.625" fill="#231f1f"/>
<path d="m408.5 241.1h-0.6562v-5.293h0.6562v5.293" fill="#231f1f"/>
<path d="m410.3 241.1h-0.6562v-3.316h0.6562zm-0.3281-4.098c-0.2383 0-0.4336-0.1875-0.4336-0.418 0-0.2383 0.1953-0.4258 0.4336-0.4258s0.4414 0.1797 0.4414 0.4258c0 0.2383-0.2031 0.418-0.4414 0.418" fill="#231f1f"/>
<path d="m412.1 237.8c0.01172 0.168 0.02734 0.4062 0.02734 0.543h0.01953c0.1641-0.3555 0.6016-0.6367 1.078-0.6367 0.8555 0 1.242 0.6094 1.242 1.352v2.059h-0.6602v-1.84c0-0.5391-0.1484-1.016-0.7539-1.016-0.5195 0-0.8906 0.4336-0.8906 1.094v1.762h-0.6602v-2.605c0-0.1719-0.007813-0.4961-0.02734-0.7109h0.625" fill="#231f1f"/>
<path d="m418.9 238.3h-0.8828v1.727c0 0.4023 0.1406 0.5625 0.4688 0.5625 0.1211 0 0.2734-0.02734 0.3867-0.08594l0.01953 0.5391c-0.1523 0.05859-0.3555 0.09375-0.5586 0.09375-0.6211 0-0.9688-0.3516-0.9688-1.039v-1.797h-0.6367v-0.5391h0.6367v-0.9531h0.6523v0.9531h0.8828v0.5391" fill="#231f1f"/>
<path d="m420.3 238.3c0.1562-0.332 0.5781-0.5977 1.051-0.5977 0.8555 0 1.242 0.6094 1.242 1.352v2.059h-0.6602v-1.832c0-0.5391-0.1406-1.016-0.75-1.016-0.5156 0-0.8945 0.4336-0.8945 1.09v1.758h-0.6602v-5.293h0.6602v2.48h0.01172" fill="#231f1f"/>
<path d="m426.1 239.1c-0.01172-0.5234-0.3203-0.9375-0.9297-0.9375-0.5664 0-1 0.418-1.043 0.9375zm0.6602 0.4922h-2.633c0.01953 0.5664 0.4961 1.008 1.078 1.008 0.4492 0 0.7773-0.2266 0.9648-0.5039l0.4648 0.3711c-0.3594 0.4609-0.8398 0.6797-1.43 0.6797-1.008 0-1.75-0.7031-1.75-1.746 0-1.035 0.7422-1.758 1.715-1.758 0.9805 0 1.598 0.668 1.598 1.723 0 0.07031 0 0.1484-0.007813 0.2266" fill="#231f1f"/>
<path d="m427.7 237.8h0.6211c0.01562 0.168 0.03125 0.418 0.03125 0.5586h0.01953c0.1836-0.3867 0.5664-0.6523 1.016-0.6523 0.08984 0 0.1797 0.007812 0.2578 0.02734l-0.02734 0.6094c-0.08594-0.01953-0.1953-0.03516-0.3008-0.03516-0.6328 0-0.9297 0.5117-0.9297 1.066v1.742h-0.6602v-2.605c0-0.1719-0.007812-0.4961-0.02734-0.7109" fill="#231f1f"/>
<path d="m432.1 239.5c-0.6484 0-1.477 0.07031-1.477 0.6328 0 0.3906 0.3477 0.5156 0.6797 0.5156 0.6133 0 0.957-0.4141 0.957-0.9727v-0.1758zm0.1602-0.5664c0-0.4922-0.3281-0.7305-0.8164-0.7305-0.375 0-0.7227 0.1641-0.9453 0.3867l-0.3516-0.418c0.3203-0.3086 0.8203-0.5 1.359-0.5 0.9531 0 1.387 0.5664 1.387 1.305v1.449c0 0.2227 0.01172 0.4961 0.04688 0.6562h-0.5938c-0.03516-0.1445-0.05469-0.3203-0.05469-0.4766h-0.02344c-0.2383 0.3594-0.6172 0.5625-1.113 0.5625-0.5234 0-1.203-0.2578-1.203-1.023 0-1 1.188-1.121 2.309-1.121v-0.08984" fill="#231f1f"/>
<path d="m435.7 238.2c-0.6719 0-1.121 0.5664-1.121 1.203 0 0.6406 0.4492 1.199 1.121 1.199 0.7227 0 1.109-0.582 1.109-1.203 0-0.625-0.3867-1.199-1.109-1.199zm-1.078 4.547h-0.6562v-5h0.6445v0.5156h0.01953c0.2188-0.3477 0.6523-0.6094 1.199-0.6094 0.9844 0 1.656 0.7656 1.656 1.746 0 0.9727-0.6484 1.758-1.672 1.758-0.4688 0-0.9219-0.2188-1.168-0.5898h-0.02344v2.18" fill="#231f1f"/>
<path d="m439.7 240.4h0.01562l0.918-2.602h0.6992l-1.609 4.102c-0.2188 0.5547-0.5 0.8984-1.148 0.8984-0.1406 0-0.2891-0.01563-0.4336-0.05078l0.0625-0.582c0.1055 0.03516 0.2227 0.05859 0.3281 0.05859 0.3438 0 0.4766-0.1992 0.6172-0.5547l0.207-0.5547-1.418-3.316h0.7344l1.027 2.602" fill="#231f1f"/>
</svg>
