<?xml version="1.0" encoding="UTF-8"?>
<svg width="331.1pt" height="138pt" version="1.1" viewBox="0 0 331.1 138" xmlns="http://www.w3.org/2000/svg">
<defs>
<clipPath id="j">
<path d="m135 120h93v17.98h-93z"/>
</clipPath>
<clipPath id="h">
<path d="m134 120h94v17.98h-94z"/>
</clipPath>
<clipPath id="g">
<path d="m244 120h64v17.98h-64z"/>
</clipPath>
<clipPath id="f">
<path d="m244 120h65v17.98h-65z"/>
</clipPath>
<clipPath id="e">
<path d="m313 38h18.1v1h-18.1z"/>
</clipPath>
<clipPath id="d">
<path d="m313 60h18.1v2h-18.1z"/>
</clipPath>
<clipPath id="c">
<path d="m313 83h18.1v1h-18.1z"/>
</clipPath>
<clipPath id="b">
<path d="m313 106h18.1v1h-18.1z"/>
</clipPath>
<clipPath id="a">
<path d="m313 128h18.1v2h-18.1z"/>
</clipPath>
<clipPath id="i">
<path d="m307 8h24.1v122h-24.1z"/>
</clipPath>
</defs>
<path d="m128.5 17.5h-92v-17.25h92v17.25" fill="#fef0ca"/>
<path transform="matrix(.1 0 0 -.1 0 138)" d="m1285 1205h-920v172.5h920z" fill="none" stroke="#231f1f" stroke-width="5"/>
<path d="m61.28 7.23v1.023h1.918v0.9883h-1.918v1.926h-1.184v-4.957h3.262v1.02h-2.078" fill="#231f1f"/>
<path d="m65.49 8.52c-0.5391 0-0.8203 0.4414-0.8203 0.8906 0 0.4492 0.2852 0.9023 0.8242 0.9023 0.5391 0 0.8281-0.4531 0.8281-0.9023 0-0.4492-0.293-0.8906-0.832-0.8906zm0 2.762c-1.051 0-1.934-0.7305-1.934-1.871s0.8828-1.844 1.934-1.844c1.055 0 1.938 0.7031 1.938 1.844s-0.8828 1.871-1.938 1.871" fill="#231f1f"/>
<path d="m70.55 8.809c-0.125-0.168-0.3789-0.2812-0.6094-0.2812-0.4844 0-0.8047 0.4141-0.8047 0.8945 0 0.4844 0.3164 0.8906 0.8203 0.8906 0.2305 0 0.4844-0.08984 0.6211-0.2578l0.6367 0.7773c-0.2852 0.2773-0.7734 0.4492-1.289 0.4492-1.098 0-1.953-0.7031-1.953-1.859 0-1.133 0.8633-1.855 1.949-1.855 0.4961 0 1.023 0.1914 1.293 0.4688l-0.6641 0.7734" fill="#231f1f"/>
<path d="m73.73 9.648h-0.1484c-0.5039 0-1.07 0.0625-1.07 0.4766 0 0.2656 0.2656 0.3555 0.4961 0.3555 0.4609 0 0.7227-0.2812 0.7227-0.7148zm-2.109-1.492c0.4062-0.3867 0.9883-0.5898 1.555-0.5898 1.168 0 1.605 0.5742 1.605 1.844v1.758h-1.051v-0.3711h-0.02344c-0.1758 0.2852-0.5742 0.4531-0.9883 0.4531-0.5508 0-1.266-0.2734-1.266-1.09 0-1.012 1.227-1.18 2.242-1.18v-0.05469c0-0.3438-0.2734-0.5039-0.6328-0.5039-0.3281 0-0.6523 0.1602-0.8594 0.3555l-0.582-0.6211" fill="#231f1f"/>
<path d="m75.65 11.17v-5.297h1.164v5.297h-1.164" fill="#231f1f"/>
<path d="m80.26 12.33c-0.6602-0.9102-1.031-2.035-1.031-3.18 0-1.141 0.3711-2.266 1.031-3.176l0.7812 0.3828c-0.5859 0.8047-0.9102 1.781-0.9102 2.793 0 1.016 0.3242 1.992 0.9102 2.797l-0.7812 0.3828" fill="#231f1f"/>
<path d="m83.65 7.176h-0.5273v1.168h0.5078c0.4453 0 0.8594-0.1328 0.8594-0.6016 0-0.4766-0.4141-0.5664-0.8398-0.5664zm0.07031 2.121h-0.5977v1.871h-1.195v-4.957h1.82c1.086 0 1.941 0.3906 1.941 1.523 0 1.148-0.9336 1.562-1.969 1.562" fill="#231f1f"/>
<path d="m88.07 9.648h-0.1445c-0.5039 0-1.074 0.0625-1.074 0.4766 0 0.2656 0.2656 0.3555 0.5 0.3555 0.4609 0 0.7188-0.2812 0.7188-0.7148zm-2.105-1.492c0.4062-0.3867 0.9883-0.5898 1.555-0.5898 1.168 0 1.602 0.5742 1.602 1.844v1.758h-1.051v-0.3711h-0.01953c-0.1758 0.2852-0.5742 0.4531-0.9883 0.4531-0.5508 0-1.266-0.2734-1.266-1.09 0-1.012 1.227-1.18 2.238-1.18v-0.05469c0-0.3438-0.2695-0.5039-0.6289-0.5039-0.3281 0-0.6523 0.1602-0.8633 0.3555l-0.5781-0.6211" fill="#231f1f"/>
<path d="m92.24 8.617c-0.1055-0.02734-0.2031-0.03516-0.2969-0.03516-0.6133 0-0.8164 0.5039-0.8164 0.793v1.793h-1.152v-3.488h1.109v0.5039h0.01172c0.1758-0.3516 0.5195-0.6016 0.9453-0.6016 0.09375 0 0.1914 0.007813 0.2461 0.02734l-0.04687 1.008" fill="#231f1f"/>
<path d="m93.91 8.539v1.332c0 0.3242 0.1055 0.4922 0.4336 0.4922 0.1133 0 0.25-0.02344 0.3359-0.05859l0.01562 0.8398c-0.1562 0.05859-0.4219 0.1055-0.668 0.1055-0.9297 0-1.238-0.4961-1.238-1.238v-1.473h-0.5625v-0.8594h0.5547v-0.918h1.129v0.918h0.8203v0.8594h-0.8203" fill="#231f1f"/>
<path d="m95.29 11.17v-3.488h1.148v3.488zm0.5742-3.973c-0.3711 0-0.6602-0.2852-0.6602-0.6289 0-0.3359 0.2891-0.6328 0.6602-0.6328 0.3633 0 0.6562 0.2812 0.6562 0.6328 0 0.3555-0.293 0.6289-0.6562 0.6289" fill="#231f1f"/>
<path d="m99.4 9.648h-0.1484c-0.5039 0-1.07 0.0625-1.07 0.4766 0 0.2656 0.2656 0.3555 0.4961 0.3555 0.4648 0 0.7227-0.2812 0.7227-0.7148zm-2.109-1.492c0.4062-0.3867 0.9883-0.5898 1.555-0.5898 1.172 0 1.605 0.5742 1.605 1.844v1.758h-1.051v-0.3711h-0.01953c-0.1758 0.2852-0.5781 0.4531-0.9883 0.4531-0.5547 0-1.27-0.2734-1.27-1.09 0-1.012 1.227-1.18 2.242-1.18v-0.05469c0-0.3438-0.2734-0.5039-0.6328-0.5039-0.3281 0-0.6484 0.1602-0.8594 0.3555l-0.582-0.6211" fill="#231f1f"/>
<path d="m101.3 11.17v-5.297h1.164v5.297h-1.164" fill="#231f1f"/>
<path d="m104.1 12.33-0.7852-0.3828c0.5898-0.8047 0.9102-1.781 0.9102-2.797 0-1.012-0.3203-1.988-0.9102-2.793l0.7852-0.3828c0.6562 0.9102 1.027 2.035 1.027 3.176 0 1.145-0.3711 2.27-1.027 3.18" fill="#231f1f"/>
<g clip-path="url(#j)">
<path d="m227 137.7h-92v-17.25h92v17.25" fill="#fef0ca"/>
</g>
<g clip-path="url(#h)">
<path transform="matrix(.1 0 0 -.1 0 138)" d="m2270 2.495h-920v172.5h920z" fill="none" stroke="#231f1f" stroke-width="5"/>
</g>
<path d="m145.3 127.5c-0.2969-0.3203-0.7773-0.5352-1.348-0.5352-1.16 0-1.891 0.9023-1.891 1.988 0 1.105 0.7305 1.988 1.914 1.988 0.4609 0 0.8672-0.08984 1.156-0.2461v-1.379h-1.102v-0.5898h1.785v2.402c-0.5156 0.2812-1.133 0.4336-1.863 0.4336-1.547 0-2.645-1.082-2.645-2.609 0-1.551 1.133-2.602 2.637-2.602 0.7852 0 1.43 0.2539 1.836 0.6445l-0.4805 0.5039" fill="#100f0d"/>
<path d="m149.4 129.4c-0.01172-0.5273-0.3203-0.9375-0.9297-0.9375-0.5664 0-1.004 0.418-1.043 0.9375zm0.6602 0.4883h-2.633c0.01953 0.5703 0.4961 1.012 1.078 1.012 0.4453 0 0.7773-0.2266 0.9648-0.5039l0.4609 0.3711c-0.3555 0.4609-0.8398 0.6758-1.426 0.6758-1.012 0-1.75-0.6992-1.75-1.742 0-1.035 0.7383-1.758 1.715-1.758 0.9805 0 1.598 0.6641 1.598 1.723 0 0.07031 0 0.1484-0.007812 0.2227" fill="#100f0d"/>
<path d="m151.6 128.1c0.01562 0.168 0.02734 0.4062 0.02734 0.5469h0.02344c0.1602-0.3555 0.6016-0.6367 1.078-0.6367 0.8516 0 1.238 0.6094 1.238 1.352v2.059h-0.6562v-1.84c0-0.5391-0.1484-1.016-0.7578-1.016-0.5195 0-0.8906 0.4336-0.8906 1.09v1.766h-0.6562v-2.605c0-0.1758-0.007813-0.4961-0.02734-0.7148h0.6211" fill="#100f0d"/>
<path d="m157.5 129.4c-0.01562-0.5273-0.3242-0.9375-0.9336-0.9375-0.5664 0-1 0.418-1.043 0.9375zm0.6562 0.4883h-2.633c0.01953 0.5703 0.4961 1.012 1.078 1.012 0.4492 0 0.7773-0.2266 0.9648-0.5039l0.4648 0.3711c-0.3594 0.4609-0.8398 0.6758-1.43 0.6758-1.008 0-1.75-0.6992-1.75-1.742 0-1.035 0.7422-1.758 1.715-1.758 0.9805 0 1.598 0.6641 1.598 1.723 0 0.07031 0 0.1484-0.007813 0.2227" fill="#100f0d"/>
<path d="m159.1 128.1h0.6211c0.01562 0.168 0.03125 0.4219 0.03125 0.5625h0.01953c0.1797-0.3867 0.5664-0.6523 1.016-0.6523 0.08984 0 0.1836 0.007813 0.2578 0.02734l-0.02734 0.6094c-0.08203-0.01953-0.1953-0.03516-0.3008-0.03516-0.6289 0-0.9336 0.5117-0.9336 1.066v1.742h-0.6562v-2.605c0-0.1758-0.007813-0.4961-0.02734-0.7148" fill="#100f0d"/>
<path d="m163.5 129.8c-0.6484 0-1.477 0.07031-1.477 0.6289 0 0.3945 0.3477 0.5195 0.6797 0.5195 0.6172 0 0.957-0.4141 0.957-0.9727v-0.1758zm0.1602-0.5664c0-0.4922-0.3281-0.7305-0.8164-0.7305-0.3711 0-0.7227 0.1602-0.9453 0.3867l-0.3516-0.4219c0.3203-0.3047 0.8203-0.4961 1.359-0.4961 0.9531 0 1.387 0.5664 1.387 1.301v1.453c0 0.2227 0.01172 0.4961 0.04688 0.6562h-0.5938c-0.03516-0.1484-0.05469-0.3203-0.05469-0.4766h-0.02344c-0.2383 0.3594-0.6133 0.5625-1.113 0.5625-0.5234 0-1.203-0.2617-1.203-1.023 0-1.004 1.191-1.121 2.309-1.121v-0.08984" fill="#100f0d"/>
<path d="m166.1 131.4h-0.6602v-5.293h0.6602v5.293" fill="#100f0d"/>
<path d="m167.9 131.4h-0.6602v-3.32h0.6602zm-0.332-4.098c-0.2383 0-0.4336-0.1875-0.4336-0.418 0-0.2383 0.1953-0.4297 0.4336-0.4297s0.4414 0.1836 0.4414 0.4297c0 0.2383-0.2031 0.418-0.4414 0.418" fill="#100f0d"/>
<path d="m171.4 128.6-1.891 2.23h1.969v0.5508h-2.781v-0.5391l1.879-2.242h-1.789v-0.5391h2.613v0.5391" fill="#100f0d"/>
<path d="m174.8 129.4c-0.01562-0.5273-0.3203-0.9375-0.9336-0.9375-0.5664 0-1 0.418-1.043 0.9375zm0.6562 0.4883h-2.633c0.02344 0.5703 0.5 1.012 1.078 1.012 0.4492 0 0.7812-0.2266 0.9688-0.5039l0.4609 0.3711c-0.3555 0.4609-0.8398 0.6758-1.43 0.6758-1.008 0-1.75-0.6992-1.75-1.742 0-1.035 0.7422-1.758 1.715-1.758 0.9844 0 1.598 0.6641 1.598 1.723 0 0.07031 0 0.1484-0.007812 0.2227" fill="#100f0d"/>
<path d="m177.9 130.9c0.6719 0 1.121-0.5625 1.121-1.199s-0.4492-1.203-1.121-1.203c-0.7188 0-1.098 0.5742-1.098 1.195 0 0.625 0.3789 1.207 1.098 1.207zm-0.1094 0.5508c-1.023 0-1.676-0.7812-1.676-1.758 0-0.9805 0.6719-1.742 1.668-1.742 0.5391 0 0.9531 0.2656 1.184 0.5859h0.01172v-2.469h0.6602v5.293h-0.6367v-0.5234h-0.01562c-0.25 0.3984-0.7266 0.6133-1.195 0.6133" fill="#100f0d"/>
<path d="m184.3 131.4h-0.6914v-4.348h-1.59v-0.6094h3.871v0.6094h-1.59v4.348" fill="#100f0d"/>
<path d="m188.1 128.5c-0.707 0-1.109 0.5664-1.109 1.195 0 0.6328 0.4023 1.207 1.109 1.207 0.7148 0 1.105-0.5742 1.105-1.207 0-0.6289-0.3906-1.195-1.105-1.195zm0 2.953c-1.016 0-1.785-0.7344-1.785-1.758 0-1.02 0.7695-1.742 1.785-1.742s1.793 0.7227 1.793 1.742c0 1.023-0.7773 1.758-1.793 1.758" fill="#100f0d"/>
<path d="m191.4 128.1c0.01172 0.168 0.02734 0.4062 0.02734 0.5469h0.01953c0.1602-0.3555 0.6016-0.6367 1.078-0.6367 0.8555 0 1.242 0.6094 1.242 1.352v2.059h-0.6602v-1.84c0-0.5391-0.1445-1.016-0.7578-1.016-0.5156 0-0.8867 0.4336-0.8867 1.09v1.766h-0.6602v-2.605c0-0.1758-0.003906-0.4961-0.02734-0.7148h0.625" fill="#100f0d"/>
<path d="m195.6 131.4h-0.6562v-3.32h0.6562zm-0.3281-4.098c-0.2383 0-0.4336-0.1875-0.4336-0.418 0-0.2383 0.1953-0.4297 0.4336-0.4297s0.4414 0.1836 0.4414 0.4297c0 0.2383-0.2031 0.418-0.4414 0.418" fill="#100f0d"/>
<path d="m199 128.9c-0.1406-0.2148-0.4492-0.375-0.7617-0.375-0.6875 0-1.086 0.5586-1.086 1.195 0 0.6289 0.3984 1.199 1.09 1.199 0.3359 0 0.625-0.1406 0.8008-0.3633l0.4414 0.3984c-0.2812 0.3203-0.707 0.5156-1.242 0.5156-1.02 0-1.785-0.6914-1.785-1.75 0-1.043 0.7578-1.75 1.773-1.75 0.4688 0 0.9727 0.1914 1.246 0.5469l-0.4766 0.3828" fill="#100f0d"/>
<path d="m206.2 130.6c-0.3867 0.5234-1.023 0.8945-1.891 0.8945-1.52 0-2.613-1.082-2.613-2.609 0-1.551 1.133-2.602 2.641-2.602 0.6797 0 1.414 0.2656 1.777 0.7734l-0.543 0.418c-0.2383-0.3359-0.7227-0.5781-1.234-0.5781-1.148 0-1.883 0.9023-1.883 1.988 0 1.113 0.7188 1.996 1.863 1.996 0.5508 0 1.035-0.2305 1.328-0.6602l0.5547 0.3789" fill="#100f0d"/>
<path d="m207.6 131.4h-0.6562v-5.293h0.6562v5.293" fill="#100f0d"/>
<path d="m210.3 128.5c-0.7109 0-1.109 0.5664-1.109 1.195 0 0.6328 0.3984 1.207 1.109 1.207s1.105-0.5742 1.105-1.207c0-0.6289-0.3945-1.195-1.105-1.195zm0 2.953c-1.02 0-1.789-0.7344-1.789-1.758 0-1.02 0.7695-1.742 1.789-1.742 1.012 0 1.793 0.7227 1.793 1.742 0 1.023-0.7812 1.758-1.793 1.758" fill="#100f0d"/>
<path d="m213.6 128.1c0.01562 0.168 0.02734 0.4062 0.02734 0.5469h0.02344c0.1602-0.3555 0.6016-0.6367 1.078-0.6367 0.8555 0 1.238 0.6094 1.238 1.352v2.059h-0.6562v-1.84c0-0.5391-0.1484-1.016-0.7578-1.016-0.5195 0-0.8906 0.4336-0.8906 1.09v1.766h-0.6562v-2.605c0-0.1758-0.007812-0.4961-0.02734-0.7148h0.6211" fill="#100f0d"/>
<path d="m217.8 131.4h-0.6602v-3.32h0.6602zm-0.3281-4.098c-0.2383 0-0.4375-0.1875-0.4375-0.418 0-0.2383 0.1992-0.4297 0.4375-0.4297 0.2344 0 0.4375 0.1836 0.4375 0.4297 0 0.2383-0.2031 0.418-0.4375 0.418" fill="#100f0d"/>
<path d="m221.2 128.9c-0.1406-0.2148-0.4492-0.375-0.7656-0.375-0.6875 0-1.086 0.5586-1.086 1.195 0 0.6289 0.3984 1.199 1.094 1.199 0.3359 0 0.625-0.1406 0.7969-0.3633l0.4414 0.3984c-0.2773 0.3203-0.707 0.5156-1.238 0.5156-1.023 0-1.785-0.6914-1.785-1.75 0-1.043 0.7539-1.75 1.77-1.75 0.4727 0 0.9766 0.1914 1.246 0.5469l-0.4727 0.3828" fill="#100f0d"/>
<path d="m167.2 68.23h-63.5v-21.78h63.5v21.78" fill="#fef0ca"/>
<path transform="matrix(.1 0 0 -.1 0 138)" d="m1672 697.5h-635v217.8h635z" fill="none" stroke="#231f1f" stroke-width="5"/>
<path d="m122.1 55.78h-0.6953v-4.957h0.6953v4.957" fill="#100f0d"/>
<path d="m125 52.37c0.4414 0 0.8242 0.1953 1.027 0.6641 0.2227-0.4258 0.6602-0.6641 1.129-0.6641 0.8516 0 1.238 0.6094 1.238 1.352v2.059h-0.6562v-1.84c0-0.5391-0.1641-1.016-0.7383-1.016-0.6016 0-0.8398 0.5469-0.8398 1.062v1.793h-0.6562v-1.973c0-0.5195-0.1758-0.8828-0.7031-0.8828-0.4805 0-0.8477 0.4336-0.8477 1.09v1.766h-0.6562v-2.605c0-0.1719-0.007812-0.4961-0.02734-0.7148h0.6211c0.01562 0.168 0.02734 0.4062 0.02734 0.5469h0.02344c0.168-0.3477 0.5547-0.6367 1.059-0.6367" fill="#100f0d"/>
<path d="m131.3 52.91c-0.6719 0-1.121 0.5664-1.121 1.203 0 0.6406 0.4492 1.199 1.121 1.199 0.7227 0 1.105-0.582 1.105-1.203 0-0.625-0.3828-1.199-1.105-1.199zm-1.078 4.547h-0.6602v-5.004h0.6445v0.5195h0.02344c0.2148-0.3516 0.6484-0.6094 1.195-0.6094 0.9883 0 1.66 0.7656 1.66 1.746 0 0.9727-0.6523 1.758-1.672 1.758-0.4688 0-0.9258-0.2188-1.172-0.5898h-0.01953v2.18" fill="#100f0d"/>
<path d="m135.9 54.2c-0.6523 0-1.477 0.07031-1.477 0.6289 0 0.3945 0.3477 0.5195 0.6797 0.5195 0.6133 0 0.957-0.4141 0.957-0.9727v-0.1758zm0.1602-0.5664c0-0.4922-0.3281-0.7305-0.8164-0.7305-0.3711 0-0.7227 0.1641-0.9453 0.3867l-0.3516-0.4219c0.3203-0.3047 0.8203-0.4961 1.359-0.4961 0.9531 0 1.387 0.5664 1.387 1.305v1.449c0 0.2227 0.01172 0.4961 0.04688 0.6562h-0.5938c-0.03516-0.1445-0.05469-0.3203-0.05469-0.4766h-0.02344c-0.2383 0.3594-0.6172 0.5625-1.113 0.5625-0.5234 0-1.203-0.2617-1.203-1.023 0-1 1.188-1.121 2.309-1.121v-0.08984" fill="#100f0d"/>
<path d="m138.4 55.78h-0.6562v-3.32h0.6562zm-0.3281-4.098c-0.2383 0-0.4336-0.1875-0.4336-0.418 0-0.2383 0.1953-0.4297 0.4336-0.4297s0.4414 0.1836 0.4414 0.4297c0 0.2383-0.2031 0.418-0.4414 0.418" fill="#100f0d"/>
<path d="m139.5 52.46h0.625c0.01563 0.168 0.02734 0.4219 0.02734 0.5625h0.02344c0.1797-0.3867 0.5664-0.6523 1.016-0.6523 0.08984 0 0.1797 0.007812 0.2578 0.02734l-0.02734 0.6094c-0.08203-0.01953-0.1953-0.03516-0.3008-0.03516-0.6328 0-0.9336 0.5117-0.9336 1.066v1.742h-0.6562v-2.605c0-0.1719-0.007812-0.4961-0.03125-0.7148" fill="#100f0d"/>
<path d="m144.5 53.82c-0.01562-0.5234-0.3242-0.9375-0.9336-0.9375-0.5664 0-1 0.418-1.043 0.9375zm0.6562 0.4922h-2.633c0.01953 0.5664 0.5 1.008 1.078 1.008 0.4492 0 0.7773-0.2266 0.9688-0.5039l0.4609 0.3711c-0.3555 0.4609-0.8398 0.6797-1.43 0.6797-1.008 0-1.75-0.7031-1.75-1.746 0-1.035 0.7422-1.758 1.715-1.758 0.9805 0 1.598 0.6641 1.598 1.723 0 0.07031 0 0.1484-0.007813 0.2266" fill="#100f0d"/>
<path d="m147.7 55.32c0.6719 0 1.121-0.5586 1.121-1.199 0-0.6367-0.4492-1.203-1.121-1.203-0.7227 0-1.098 0.5742-1.098 1.199 0 0.6211 0.375 1.203 1.098 1.203zm-0.1133 0.5547c-1.02 0-1.672-0.7852-1.672-1.758 0-0.9805 0.6719-1.746 1.668-1.746 0.5391 0 0.9531 0.2656 1.184 0.5898h0.01172v-2.473h0.6602v5.293h-0.6367v-0.5234h-0.01562c-0.25 0.3984-0.7266 0.6172-1.199 0.6172" fill="#100f0d"/>
<path d="m119.7 62.59c-0.6523 0-1.48 0.07031-1.48 0.6328 0 0.3906 0.3516 0.5195 0.6797 0.5195 0.6172 0 0.9609-0.4141 0.9609-0.9766v-0.1758zm0.1602-0.5664c0-0.4883-0.3281-0.7266-0.8203-0.7266-0.3711 0-0.7227 0.1602-0.9453 0.3828l-0.3516-0.418c0.3242-0.3086 0.8203-0.4961 1.359-0.4961 0.9531 0 1.387 0.5664 1.387 1.301v1.449c0 0.2266 0.01562 0.4961 0.05078 0.6602h-0.5977c-0.03516-0.1484-0.05469-0.3242-0.05469-0.4766h-0.01953c-0.2383 0.3555-0.6172 0.5586-1.117 0.5586-0.5234 0-1.203-0.2578-1.203-1.023 0-1 1.191-1.117 2.312-1.117v-0.09375" fill="#100f0d"/>
<path d="m121.8 60.86 0.75 2.535h0.01172l0.793-2.535h0.6914l0.8086 2.535h0.01172l0.75-2.535h0.6914l-1.098 3.32h-0.6875l-0.8164-2.496h-0.01562l-0.8125 2.496h-0.6875l-1.105-3.32h0.7148" fill="#100f0d"/>
<path d="m128.9 62.59c-0.6523 0-1.477 0.07031-1.477 0.6328 0 0.3906 0.3477 0.5195 0.6797 0.5195 0.6133 0 0.957-0.4141 0.957-0.9766v-0.1758zm0.1602-0.5664c0-0.4883-0.3281-0.7266-0.8164-0.7266-0.3711 0-0.7227 0.1602-0.9492 0.3828l-0.3477-0.418c0.3203-0.3086 0.8203-0.4961 1.359-0.4961 0.9492 0 1.387 0.5664 1.387 1.301v1.449c0 0.2266 0.01172 0.4961 0.04688 0.6602h-0.5938c-0.03516-0.1484-0.05859-0.3242-0.05859-0.4766h-0.01953c-0.2383 0.3555-0.6172 0.5586-1.113 0.5586-0.5273 0-1.203-0.2578-1.203-1.023 0-1 1.188-1.117 2.309-1.117v-0.09375" fill="#100f0d"/>
<path d="m130.7 60.86h0.625c0.01562 0.168 0.02734 0.418 0.02734 0.5586h0.01953c0.1836-0.3828 0.5703-0.6484 1.02-0.6484 0.08984 0 0.1797 0.003907 0.2578 0.02734l-0.02734 0.6094c-0.08594-0.02344-0.1953-0.03516-0.3008-0.03516-0.6328 0-0.9336 0.5117-0.9336 1.062v1.746h-0.6562v-2.605c0-0.1758-0.007812-0.5-0.03125-0.7148" fill="#100f0d"/>
<path d="m135.7 62.22c-0.01172-0.5234-0.3203-0.9375-0.9297-0.9375-0.5664 0-1 0.4219-1.043 0.9375zm0.6602 0.4922h-2.633c0.01953 0.5664 0.4961 1.008 1.078 1.008 0.4492 0 0.7773-0.2227 0.9688-0.5039l0.4609 0.3711c-0.3594 0.4609-0.8398 0.6797-1.43 0.6797-1.008 0-1.75-0.6992-1.75-1.742 0-1.039 0.7422-1.758 1.715-1.758 0.9805 0 1.598 0.6641 1.598 1.723 0 0.07031 0 0.1445-0.007813 0.2227" fill="#100f0d"/>
<path d="m137.9 60.86c0.01562 0.168 0.03125 0.4062 0.03125 0.5469h0.01953c0.1602-0.3594 0.6016-0.6367 1.078-0.6367 0.8555 0 1.238 0.6094 1.238 1.352v2.059h-0.6562v-1.844c0-0.5391-0.1484-1.016-0.7578-1.016-0.5156 0-0.8867 0.4336-0.8867 1.094v1.766h-0.6602v-2.605c0-0.1758-0.007812-0.5-0.02734-0.7148h0.6211" fill="#100f0d"/>
<path d="m143.8 62.22c-0.01172-0.5234-0.3203-0.9375-0.9297-0.9375-0.5703 0-1.004 0.4219-1.043 0.9375zm0.6602 0.4922h-2.633c0.01953 0.5664 0.4961 1.008 1.078 1.008 0.4453 0 0.7773-0.2227 0.9648-0.5039l0.4609 0.3711c-0.3555 0.4609-0.8398 0.6797-1.426 0.6797-1.012 0-1.754-0.6992-1.754-1.742 0-1.039 0.7422-1.758 1.719-1.758 0.9805 0 1.594 0.6641 1.594 1.723 0 0.07031 0 0.1445-0.003907 0.2227" fill="#100f0d"/>
<path d="m147.2 61.7c-0.1484-0.2383-0.4336-0.4141-0.7695-0.4141-0.3047 0-0.6172 0.1211-0.6172 0.4336 0 0.2812 0.25 0.3867 0.7539 0.5 0.6328 0.1406 1.117 0.3984 1.117 0.9805 0 0.7812-0.6523 1.07-1.324 1.07-0.5039 0-1.023-0.1953-1.34-0.5938l0.4688-0.4023c0.1758 0.2617 0.5117 0.4648 0.8828 0.4648 0.3281 0 0.6602-0.1211 0.6602-0.4844 0-0.3086-0.3008-0.4219-0.8711-0.5547-0.4375-0.1055-0.9648-0.293-0.9648-0.918 0-0.7109 0.625-1.012 1.254-1.012 0.4688 0 0.9648 0.1875 1.203 0.543l-0.4531 0.3867" fill="#100f0d"/>
<path d="m150.3 61.7c-0.1484-0.2383-0.4375-0.4141-0.7734-0.4141-0.3008 0-0.6172 0.1211-0.6172 0.4336 0 0.2812 0.2539 0.3867 0.7578 0.5 0.6328 0.1406 1.113 0.3984 1.113 0.9805 0 0.7812-0.6484 1.07-1.324 1.07-0.5039 0-1.023-0.1953-1.336-0.5938l0.4688-0.4023c0.1758 0.2617 0.5117 0.4648 0.8828 0.4648 0.3281 0 0.6602-0.1211 0.6602-0.4844 0-0.3086-0.3047-0.4219-0.8711-0.5547-0.4414-0.1055-0.9648-0.293-0.9648-0.918 0-0.7109 0.6211-1.012 1.254-1.012 0.4688 0 0.9648 0.1875 1.203 0.543l-0.4531 0.3867" fill="#100f0d"/>
<path d="m152.4 60.18c-0.3906 0-0.6523 0.332-0.6523 0.7031 0 0.3711 0.2617 0.6953 0.6523 0.6953 0.418 0 0.6445-0.3359 0.6445-0.6992 0-0.3633-0.2266-0.6992-0.6445-0.6992zm-0.6406 1.363v0.3047h-0.3672v-3.082h0.3828v1.441h0.01172c0.1289-0.1875 0.3672-0.3438 0.6875-0.3438 0.5742 0 0.9648 0.4453 0.9648 1.016 0 0.5664-0.3789 1.02-0.9727 1.02-0.2734 0-0.5469-0.125-0.6992-0.3555h-0.007813" fill="#100f0d"/>
<path transform="matrix(.1 0 0 -.1 0 138)" d="m824.6 1205v-103.1" fill="none" stroke="#231f1f" stroke-width="5"/>
<path d="m82.46 31.43c-0.6328-1.703-1.711-3.816-2.852-5.125l2.852 1.027 2.852-1.027c-1.141 1.309-2.219 3.422-2.852 5.125" fill="#231f1f"/>
<path d="m82.46 31.43c-0.6328-1.703-1.711-3.816-2.852-5.125l2.852 1.027 2.852-1.027c-1.141 1.309-2.219 3.422-2.852 5.125" fill="#231f1f"/>
<path d="m308 17.5h-92v-17.25h92v17.25" fill="#fef0ca"/>
<path transform="matrix(.1 0 0 -.1 0 138)" d="m3080 1205h-920v172.5h920z" fill="none" stroke="#231f1f" stroke-width="5"/>
<path d="m244.4 11.29c-1.582 0-2.727-1.051-2.727-2.613 0-1.59 1.18-2.605 2.691-2.605 0.7773 0 1.5 0.2617 1.91 0.6602l-0.7539 0.8633c-0.2305-0.2695-0.6328-0.4648-1.113-0.4648-0.8398 0-1.457 0.6562-1.457 1.547 0 0.9141 0.5391 1.562 1.512 1.562 0.2812 0 0.5391-0.04297 0.75-0.1328v-0.9023h-0.9453v-0.9688h2.043v2.629c-0.4805 0.25-1.148 0.4258-1.91 0.4258" fill="#231f1f"/>
<path d="m249.6 9.023c0-0.3633-0.2344-0.6641-0.6875-0.6641-0.4414 0-0.7656 0.3086-0.793 0.6641zm1.047 0.7148h-2.527c0.03516 0.3867 0.4219 0.6602 0.832 0.6602 0.3672 0 0.6172-0.1562 0.7734-0.3672l0.7969 0.5039c-0.3281 0.4766-0.875 0.7461-1.582 0.7461-1.051 0-1.918-0.668-1.918-1.844 0-1.141 0.8242-1.871 1.883-1.871 1.031 0 1.75 0.707 1.75 1.898 0 0.09375 0 0.1914-0.007813 0.2734" fill="#231f1f"/>
<path d="m253.7 11.17v-1.906c0-0.3828-0.1055-0.7344-0.5195-0.7344-0.4062 0-0.6172 0.3516-0.6172 0.75v1.891h-1.152v-3.488h1.113v0.4844h0.01172c0.1602-0.3086 0.5625-0.582 1.043-0.582 0.9414 0 1.277 0.7266 1.277 1.43v2.156h-1.156" fill="#231f1f"/>
<path d="m258.1 9.023c0-0.3633-0.2305-0.6641-0.6836-0.6641-0.4414 0-0.7656 0.3086-0.793 0.6641zm1.051 0.7148h-2.527c0.03516 0.3867 0.4219 0.6602 0.832 0.6602 0.3672 0 0.6172-0.1562 0.7734-0.3672l0.7969 0.5039c-0.3281 0.4766-0.875 0.7461-1.582 0.7461-1.051 0-1.918-0.668-1.918-1.844 0-1.141 0.8242-1.871 1.883-1.871 1.031 0 1.75 0.707 1.75 1.898 0 0.09375 0 0.1914-0.007813 0.2734" fill="#231f1f"/>
<path d="m262.2 8.617c-0.1055-0.02734-0.2031-0.03516-0.2969-0.03516-0.6172 0-0.8164 0.5039-0.8164 0.793v1.793h-1.152v-3.488h1.109v0.5039h0.01172c0.1758-0.3516 0.5195-0.6016 0.9453-0.6016 0.09375 0 0.1914 0.007813 0.2461 0.02734l-0.04688 1.008" fill="#231f1f"/>
<path d="m264.6 9.648h-0.1484c-0.5039 0-1.07 0.0625-1.07 0.4766 0 0.2656 0.2656 0.3555 0.4961 0.3555 0.4609 0 0.7227-0.2812 0.7227-0.7148zm-2.109-1.492c0.4062-0.3867 0.9883-0.5898 1.555-0.5898 1.168 0 1.602 0.5742 1.602 1.844v1.758h-1.047v-0.3711h-0.02344c-0.1758 0.2852-0.5742 0.4531-0.9883 0.4531-0.5508 0-1.266-0.2734-1.266-1.09 0-1.012 1.227-1.18 2.242-1.18v-0.05469c0-0.3438-0.2734-0.5039-0.6328-0.5039-0.3281 0-0.6484 0.1602-0.8594 0.3555l-0.582-0.6211" fill="#231f1f"/>
<path d="m266.5 11.17v-5.297h1.164v5.297h-1.164" fill="#231f1f"/>
<path d="m268.6 11.17v-3.488h1.148v3.488zm0.5742-3.973c-0.3711 0-0.6562-0.2852-0.6562-0.6289 0-0.3359 0.2852-0.6328 0.6562-0.6328 0.3672 0 0.6602 0.2812 0.6602 0.6328 0 0.3555-0.293 0.6289-0.6602 0.6289" fill="#231f1f"/>
<path d="m270.5 11.17v-0.8984l1.641-1.707h-1.578v-0.8828h2.98v0.8594l-1.691 1.738h1.758v0.8906h-3.109" fill="#231f1f"/>
<path d="m276.7 9.023c0-0.3633-0.2344-0.6641-0.6875-0.6641-0.4414 0-0.7617 0.3086-0.793 0.6641zm1.051 0.7148h-2.531c0.03516 0.3867 0.4219 0.6602 0.8359 0.6602 0.3633 0 0.6133-0.1562 0.7695-0.3672l0.7969 0.5039c-0.3281 0.4766-0.875 0.7461-1.582 0.7461-1.051 0-1.918-0.668-1.918-1.844 0-1.141 0.8242-1.871 1.883-1.871 1.027 0 1.75 0.707 1.75 1.898 0 0.09375 0 0.1914-0.003906 0.2734" fill="#231f1f"/>
<path d="m280.2 8.52c-0.5469 0-0.8281 0.4414-0.8281 0.8906 0 0.4531 0.2812 0.9023 0.8281 0.9023 0.5156 0 0.8398-0.4414 0.8398-0.8984 0-0.4375-0.3242-0.8945-0.8398-0.8945zm0.8828 2.648v-0.457h-0.01562c-0.2227 0.3516-0.6797 0.5547-1.145 0.5547-1.047 0-1.656-0.8828-1.656-1.855s0.6289-1.828 1.645-1.828c0.5117 0 0.8672 0.2383 1.066 0.4688h0.01172v-2.18h1.148v5.297h-1.055" fill="#231f1f"/>
<path d="m307.8 46.75h-63.5v-17.25h63.5v17.25" fill="#fef0ca"/>
<path transform="matrix(.1 0 0 -.1 0 138)" d="m3078 912.3h-635v172.5h635z" fill="none" stroke="#231f1f" stroke-width="5"/>
<path d="m263.5 38.59h1.855l-0.9258-2.324zm-0.7461 1.828h-0.7695l2.152-4.957h0.6289l2.129 4.957h-0.7852l-0.5039-1.219h-2.352l-0.5 1.219" fill="#231f1f"/>
<path d="m269.3 37.55c-0.6719 0-1.121 0.5664-1.121 1.203 0 0.6367 0.4492 1.195 1.121 1.195 0.7188 0 1.105-0.5781 1.105-1.203 0-0.6211-0.3867-1.195-1.105-1.195zm-1.102 2.336v0.5273h-0.6367v-5.297h0.6602v2.473h0.01953c0.2266-0.3203 0.6367-0.5859 1.184-0.5859 0.9883 0 1.66 0.7617 1.66 1.742 0 0.9727-0.6523 1.758-1.676 1.758-0.4688 0-0.9375-0.2148-1.195-0.6172h-0.01562" fill="#231f1f"/>
<path d="m273.8 37.94c-0.1445-0.2383-0.4336-0.4141-0.7695-0.4141-0.3008 0-0.6172 0.1211-0.6172 0.4375 0 0.2773 0.2539 0.3828 0.7578 0.4961 0.6289 0.1406 1.113 0.3984 1.113 0.9805 0 0.7852-0.6523 1.07-1.324 1.07-0.5039 0-1.023-0.1953-1.336-0.5938l0.4688-0.3984c0.1758 0.2578 0.5117 0.4609 0.8828 0.4609 0.3281 0 0.6562-0.1211 0.6562-0.4844 0-0.3086-0.3008-0.418-0.8672-0.5547-0.4414-0.1016-0.9648-0.293-0.9648-0.9141 0-0.7148 0.6211-1.016 1.254-1.016 0.4688 0 0.9648 0.1875 1.203 0.5469l-0.457 0.3828" fill="#231f1f"/>
<path d="m277.5 38.46c-0.01172-0.5273-0.3203-0.9414-0.9297-0.9414-0.5703 0-1.004 0.4219-1.047 0.9414zm0.6602 0.4883h-2.637c0.02344 0.5664 0.5 1.008 1.082 1.008 0.4453 0 0.7773-0.2227 0.9648-0.5039l0.4609 0.3711c-0.3555 0.4648-0.8398 0.6797-1.426 0.6797-1.012 0-1.754-0.6992-1.754-1.742 0-1.039 0.7422-1.758 1.719-1.758 0.9805 0 1.594 0.6641 1.594 1.723 0 0.07031 0 0.1445-0.003906 0.2227" fill="#231f1f"/>
<path d="m279.7 37.1c0.01562 0.168 0.02734 0.4062 0.02734 0.5469h0.02344c0.1602-0.3594 0.6016-0.6367 1.078-0.6367 0.8555 0 1.238 0.6094 1.238 1.352v2.059h-0.6562v-1.844c0-0.5391-0.1484-1.016-0.7578-1.016-0.5195 0-0.8906 0.4336-0.8906 1.094v1.766h-0.6562v-2.605c0-0.1758-0.007812-0.4961-0.02734-0.7148h0.6211" fill="#231f1f"/>
<path d="m285.5 37.94c-0.1406-0.2148-0.4492-0.3789-0.7656-0.3789-0.6836 0-1.082 0.5625-1.082 1.199 0 0.6289 0.3984 1.195 1.09 1.195 0.3359 0 0.625-0.1367 0.8008-0.3633l0.4414 0.3984c-0.2812 0.3242-0.707 0.5195-1.242 0.5195-1.02 0-1.785-0.6914-1.785-1.75 0-1.043 0.7578-1.75 1.773-1.75 0.4688 0 0.9727 0.1875 1.246 0.5469l-0.4766 0.3828" fill="#231f1f"/>
<path d="m289 38.46c-0.01562-0.5273-0.3203-0.9414-0.9297-0.9414-0.5703 0-1.004 0.4219-1.047 0.9414zm0.6602 0.4883h-2.637c0.02344 0.5664 0.5 1.008 1.082 1.008 0.4453 0 0.7773-0.2227 0.9648-0.5039l0.4609 0.3711c-0.3555 0.4648-0.8398 0.6797-1.426 0.6797-1.012 0-1.754-0.6992-1.754-1.742 0-1.039 0.7422-1.758 1.719-1.758 0.9805 0 1.594 0.6641 1.594 1.723 0 0.07031 0 0.1445-0.003906 0.2227" fill="#231f1f"/>
<path d="m307.8 69.43h-63.5v-17.25h63.5v17.25" fill="#fef0ca"/>
<path transform="matrix(.1 0 0 -.1 0 138)" d="m3078 685.5h-635v172.5h635z" fill="none" stroke="#231f1f" stroke-width="5"/>
<path d="m262.7 61.95h0.01172l1.465-3.809h1.078v4.957h-0.6914v-4.145h-0.01562l-1.645 4.145h-0.4414l-1.641-4.145h-0.01172v4.145h-0.6719v-4.957h1.078l1.484 3.809" fill="#231f1f"/>
<path d="m267.7 62.39h0.01562l0.918-2.605h0.6992l-1.609 4.105c-0.2188 0.5547-0.4961 0.8984-1.148 0.8984-0.1406 0-0.2891-0.01562-0.4336-0.05078l0.0625-0.582c0.1055 0.03516 0.2227 0.05859 0.3281 0.05859 0.3438 0 0.4766-0.1992 0.6172-0.5547l0.2109-0.5547-1.422-3.32h0.7344l1.027 2.605" fill="#231f1f"/>
<path d="m271.5 60.24c-0.7109 0-1.109 0.5664-1.109 1.199 0 0.6289 0.3984 1.203 1.109 1.203 0.7109 0 1.105-0.5742 1.105-1.203 0-0.6328-0.3945-1.199-1.105-1.199zm0 2.957c-1.016 0-1.789-0.7383-1.789-1.758 0-1.023 0.7734-1.746 1.789-1.746 1.016 0 1.793 0.7227 1.793 1.746 0 1.02-0.7773 1.758-1.793 1.758" fill="#231f1f"/>
<path d="m276.5 60.62c-0.1406-0.2188-0.4453-0.3789-0.7617-0.3789-0.6875 0-1.086 0.5586-1.086 1.195 0 0.6328 0.3984 1.199 1.094 1.199 0.3359 0 0.6211-0.1406 0.7969-0.3633l0.4414 0.3984c-0.2812 0.3203-0.707 0.5195-1.238 0.5195-1.023 0-1.785-0.6953-1.785-1.754 0-1.043 0.7539-1.75 1.77-1.75 0.4688 0 0.9727 0.1914 1.246 0.5469l-0.4766 0.3867" fill="#231f1f"/>
<path d="m278.3 63.1h-0.6562v-5.293h0.6562v5.293" fill="#231f1f"/>
<path d="m281 60.24c-0.707 0-1.105 0.5664-1.105 1.199 0 0.6289 0.3984 1.203 1.105 1.203 0.7148 0 1.105-0.5742 1.105-1.203 0-0.6328-0.3906-1.199-1.105-1.199zm0 2.957c-1.016 0-1.785-0.7383-1.785-1.758 0-1.023 0.7695-1.746 1.785-1.746 1.016 0 1.793 0.7227 1.793 1.746 0 1.02-0.7773 1.758-1.793 1.758" fill="#231f1f"/>
<path d="m284.3 59.78c0.01172 0.168 0.02734 0.4062 0.02734 0.5469h0.01953c0.1641-0.3555 0.6016-0.6367 1.078-0.6367 0.8555 0 1.242 0.6094 1.242 1.352v2.059h-0.6602v-1.84c0-0.5391-0.1445-1.016-0.7539-1.016-0.5195 0-0.8906 0.4336-0.8906 1.09v1.766h-0.6602v-2.605c0-0.1719-0.003906-0.4961-0.02734-0.7148h0.625" fill="#231f1f"/>
<path d="m288.5 63.1h-0.6602v-3.32h0.6602zm-0.332-4.098c-0.2383 0-0.4336-0.1875-0.4336-0.418 0-0.2383 0.1953-0.4297 0.4336-0.4297 0.2383 0 0.4414 0.1836 0.4414 0.4297 0 0.2383-0.2031 0.418-0.4414 0.418" fill="#231f1f"/>
<path d="m292 60.62c-0.1406-0.2188-0.4492-0.3789-0.7656-0.3789-0.6875 0-1.086 0.5586-1.086 1.195 0 0.6328 0.3984 1.199 1.094 1.199 0.3359 0 0.625-0.1406 0.7969-0.3633l0.4414 0.3984c-0.2773 0.3203-0.707 0.5195-1.238 0.5195-1.023 0-1.785-0.6953-1.785-1.754 0-1.043 0.7539-1.75 1.77-1.75 0.4727 0 0.9766 0.1914 1.25 0.5469l-0.4766 0.3867" fill="#231f1f"/>
<path d="m307.8 92.12h-63.5v-17.25h63.5v17.25" fill="#fef0ca"/>
<path transform="matrix(.1 0 0 -.1 0 138)" d="m3078 458.6h-635v172.5h635z" fill="none" stroke="#231f1f" stroke-width="5"/>
<path d="m269.9 85.79h-0.6914v-4.352h-1.59v-0.6094h3.871v0.6094h-1.59v4.352" fill="#231f1f"/>
<path d="m273 82.92c-0.707 0-1.105 0.5703-1.105 1.199s0.3984 1.203 1.105 1.203c0.7148 0 1.105-0.5742 1.105-1.203s-0.3906-1.199-1.105-1.199zm0 2.957c-1.016 0-1.785-0.7344-1.785-1.758 0-1.023 0.7695-1.742 1.785-1.742s1.793 0.7188 1.793 1.742c0 1.023-0.7773 1.758-1.793 1.758" fill="#231f1f"/>
<path d="m276.3 82.47c0.01563 0.168 0.03125 0.4062 0.03125 0.5469h0.01953c0.1641-0.3594 0.6016-0.6367 1.078-0.6367 0.8555 0 1.242 0.6094 1.242 1.352v2.059h-0.6602v-1.844c0-0.5391-0.1445-1.016-0.7539-1.016-0.5195 0-0.8906 0.4336-0.8906 1.094v1.766h-0.6602v-2.605c0-0.1758-0.007812-0.4961-0.02734-0.7148h0.6211" fill="#231f1f"/>
<path d="m280.4 85.79h-0.6602v-3.32h0.6602zm-0.332-4.098c-0.2383 0-0.4336-0.1875-0.4336-0.4219 0-0.2383 0.1953-0.4258 0.4336-0.4258s0.4414 0.1836 0.4414 0.4258c0 0.2383-0.2031 0.4219-0.4414 0.4219" fill="#231f1f"/>
<path d="m283.9 83.31c-0.1406-0.2148-0.4492-0.3789-0.7656-0.3789-0.6875 0-1.086 0.5625-1.086 1.199 0 0.6289 0.3984 1.195 1.094 1.195 0.3359 0 0.625-0.1367 0.7969-0.3633l0.4414 0.3984c-0.2773 0.3242-0.707 0.5195-1.238 0.5195-1.023 0-1.785-0.6914-1.785-1.75 0-1.043 0.7539-1.75 1.77-1.75 0.4727 0 0.9766 0.1875 1.25 0.543l-0.4766 0.3867" fill="#231f1f"/>
<path d="m307.8 114.8h-63.5v-17.25h63.5v17.25" fill="#fef0ca"/>
<path transform="matrix(.1 0 0 -.1 0 138)" d="m3078 231.8h-635v172.5h635z" fill="none" stroke="#231f1f" stroke-width="5"/>
<path d="m270.7 107.7c-0.3828 0.5234-1.02 0.8945-1.891 0.8945-1.52 0-2.613-1.082-2.613-2.609 0-1.551 1.137-2.602 2.641-2.602 0.6797 0 1.418 0.2695 1.781 0.7734l-0.5469 0.418c-0.2383-0.3359-0.7227-0.582-1.234-0.582-1.148 0-1.883 0.9062-1.883 1.992 0 1.113 0.7227 1.996 1.863 1.996 0.5547 0 1.035-0.2344 1.332-0.6602l0.5508 0.3789" fill="#231f1f"/>
<path d="m272 108.5h-0.6602v-5.293h0.6602v5.293" fill="#231f1f"/>
<path d="m274.7 105.6c-0.707 0-1.105 0.5664-1.105 1.195 0 0.6328 0.3984 1.207 1.105 1.207 0.7148 0 1.109-0.5742 1.109-1.207 0-0.6289-0.3945-1.195-1.109-1.195zm0 2.953c-1.016 0-1.785-0.7344-1.785-1.758 0-1.02 0.7695-1.742 1.785-1.742 1.016 0 1.793 0.7227 1.793 1.742 0 1.023-0.7773 1.758-1.793 1.758" fill="#231f1f"/>
<path d="m278 105.2c0.01562 0.168 0.02734 0.4062 0.02734 0.5469h0.02344c0.1602-0.3555 0.6016-0.6367 1.078-0.6367 0.8555 0 1.238 0.6094 1.238 1.352v2.059h-0.6562v-1.84c0-0.5391-0.1484-1.016-0.7578-1.016-0.5195 0-0.8906 0.4336-0.8906 1.09v1.766h-0.6562v-2.605c0-0.1758-0.007813-0.4961-0.02734-0.7148h0.6211" fill="#231f1f"/>
<path d="m282.2 108.5h-0.6602v-3.32h0.6602zm-0.3281-4.098c-0.2383 0-0.4336-0.1875-0.4336-0.418 0-0.2383 0.1953-0.4297 0.4336-0.4297 0.2383 0 0.4414 0.1836 0.4414 0.4297 0 0.2383-0.2031 0.418-0.4414 0.418" fill="#231f1f"/>
<path d="m285.6 106c-0.1406-0.2148-0.4492-0.375-0.7617-0.375-0.6875 0-1.09 0.5586-1.09 1.195 0 0.6328 0.4023 1.199 1.094 1.199 0.3359 0 0.625-0.1406 0.8008-0.3633l0.4414 0.3984c-0.2812 0.3203-0.7109 0.5156-1.242 0.5156-1.02 0-1.785-0.6914-1.785-1.75 0-1.043 0.7578-1.75 1.773-1.75 0.4688 0 0.9727 0.1875 1.246 0.5469l-0.4766 0.3828" fill="#231f1f"/>
<g clip-path="url(#g)">
<path d="m307.8 137.7h-63.5v-17.25h63.5v17.25" fill="#fef0ca"/>
</g>
<g clip-path="url(#f)">
<path transform="matrix(.1 0 0 -.1 0 138)" d="m3078 2.495h-635v172.5h635z" fill="none" stroke="#231f1f" stroke-width="5"/>
</g>
<path d="m267.1 129.6h1.855l-0.9258-2.324zm-0.7461 1.828h-0.7695l2.152-4.957h0.6289l2.129 4.957h-0.7852l-0.5039-1.219h-2.352l-0.5 1.219" fill="#231f1f"/>
<path d="m272.7 128.6h-0.8828v1.73c0 0.3984 0.1406 0.5586 0.4688 0.5586 0.1172 0 0.2734-0.02734 0.3828-0.08203l0.02344 0.5391c-0.1562 0.05469-0.3594 0.08984-0.5625 0.08984-0.6211 0-0.9648-0.3477-0.9648-1.035v-1.801h-0.6367v-0.5391h0.6367v-0.9531h0.6523v0.9531h0.8828v0.5391" fill="#231f1f"/>
<path d="m275 128.5c-0.707 0-1.109 0.5703-1.109 1.199 0 0.6328 0.4023 1.207 1.109 1.207 0.7148 0 1.105-0.5742 1.105-1.207 0-0.6289-0.3906-1.199-1.105-1.199zm0 2.957c-1.016 0-1.785-0.7344-1.785-1.758 0-1.023 0.7695-1.742 1.785-1.742s1.793 0.7188 1.793 1.742c0 1.023-0.7773 1.758-1.793 1.758" fill="#231f1f"/>
<path d="m278.3 128.1c0.01172 0.168 0.02734 0.4062 0.02734 0.5469h0.01953c0.1641-0.3594 0.6055-0.6367 1.078-0.6367 0.8555 0 1.242 0.6094 1.242 1.352v2.059h-0.6602v-1.844c0-0.5391-0.1445-1.016-0.7539-1.016-0.5195 0-0.8906 0.4375-0.8906 1.094v1.766h-0.6602v-2.605c0-0.1758-0.003907-0.4961-0.02734-0.7148h0.625" fill="#231f1f"/>
<path d="m282.4 131.4h-0.6602v-3.32h0.6602zm-0.332-4.098c-0.2383 0-0.4336-0.1875-0.4336-0.418 0-0.2383 0.1953-0.4297 0.4336-0.4297 0.2383 0 0.4414 0.1836 0.4414 0.4297 0 0.2344-0.2031 0.418-0.4414 0.418" fill="#231f1f"/>
<path d="m285.9 128.9c-0.1406-0.2148-0.4492-0.3789-0.7656-0.3789-0.6836 0-1.086 0.5625-1.086 1.199 0 0.6289 0.4023 1.199 1.094 1.199 0.3359 0 0.625-0.1406 0.7969-0.3672l0.4414 0.4023c-0.2773 0.3203-0.707 0.5156-1.238 0.5156-1.023 0-1.785-0.6914-1.785-1.75 0-1.043 0.7539-1.75 1.77-1.75 0.4727 0 0.9766 0.1875 1.25 0.543l-0.4766 0.3867" fill="#231f1f"/>
<g clip-path="url(#e)">
<path transform="matrix(.1 0 0 -.1 0 138)" d="m3308 996.8h-169.6" fill="none" stroke="#231f1f" stroke-width="5"/>
</g>
<path d="m310.3 38.3c1.703-0.6328 3.816-1.711 5.129-2.855l-1.031 2.855 1.031 2.852c-1.312-1.145-3.426-2.223-5.129-2.852" fill="#231f1f"/>
<path d="m310.3 38.3c1.703-0.6328 3.816-1.711 5.129-2.855l-1.031 2.855 1.031 2.852c-1.312-1.145-3.426-2.223-5.129-2.852" fill="#231f1f"/>
<g clip-path="url(#d)">
<path transform="matrix(.1 0 0 -.1 0 138)" d="m3308 769.9h-169.6" fill="none" stroke="#231f1f" stroke-width="5"/>
</g>
<path d="m310.3 60.99c1.703-0.6328 3.816-1.711 5.129-2.852l-1.031 2.852 1.031 2.852c-1.312-1.141-3.426-2.219-5.129-2.852" fill="#231f1f"/>
<path d="m310.3 60.99c1.703-0.6328 3.816-1.711 5.129-2.852l-1.031 2.852 1.031 2.852c-1.312-1.141-3.426-2.219-5.129-2.852" fill="#231f1f"/>
<g clip-path="url(#c)">
<path transform="matrix(.1 0 0 -.1 0 138)" d="m3308 543h-169.6" fill="none" stroke="#231f1f" stroke-width="5"/>
</g>
<path d="m310.3 83.68c1.703-0.6328 3.816-1.711 5.129-2.855l-1.031 2.855 1.031 2.852c-1.312-1.141-3.426-2.223-5.129-2.852" fill="#231f1f"/>
<path d="m310.3 83.68c1.703-0.6328 3.816-1.711 5.129-2.855l-1.031 2.855 1.031 2.852c-1.312-1.141-3.426-2.223-5.129-2.852" fill="#231f1f"/>
<g clip-path="url(#b)">
<path transform="matrix(.1 0 0 -.1 0 138)" d="m3308 316.2h-169.6" fill="none" stroke="#231f1f" stroke-width="5"/>
</g>
<path d="m310.3 106.4c1.703-0.6328 3.816-1.711 5.129-2.852l-1.031 2.852 1.031 2.852c-1.312-1.141-3.426-2.219-5.129-2.852" fill="#231f1f"/>
<path d="m310.3 106.4c1.703-0.6328 3.816-1.711 5.129-2.852l-1.031 2.852 1.031 2.852c-1.312-1.141-3.426-2.219-5.129-2.852" fill="#231f1f"/>
<g clip-path="url(#a)">
<path transform="matrix(.1 0 0 -.1 0 138)" d="m3308 89.37h-169.6" fill="none" stroke="#231f1f" stroke-width="5"/>
</g>
<path d="m310.3 129c1.703-0.6289 3.816-1.711 5.129-2.852l-1.031 2.852 1.031 2.855c-1.312-1.141-3.426-2.223-5.129-2.855" fill="#231f1f"/>
<path d="m310.3 129c1.703-0.6289 3.816-1.711 5.129-2.852l-1.031 2.852 1.031 2.855c-1.312-1.141-3.426-2.223-5.129-2.855" fill="#231f1f"/>
<g clip-path="url(#i)">
<path transform="matrix(.1 0 0 -.1 0 138)" d="m3081 1297h227.3v-1208" fill="none" stroke="#231f1f" stroke-width="5"/>
</g>
<path transform="matrix(.1 0 0 -.1 0 138)" d="m1929 230.7v1052h229.7" fill="none" stroke="#231f1f" stroke-width="5"/>
<path d="m192.9 118.8c-0.6328-1.707-1.711-3.82-2.852-5.129l2.852 1.031 2.852-1.031c-1.141 1.309-2.219 3.422-2.852 5.129" fill="#231f1f"/>
<path transform="matrix(.1 0 0 -.1 0 138)" d="m320 945.7v107.1h1035v-91.02" fill="none" stroke="#231f1f" stroke-width="5"/>
<path d="m135.5 45.43c-0.6328-1.703-1.711-3.816-2.855-5.129l2.855 1.031 2.852-1.031c-1.141 1.312-2.223 3.426-2.852 5.129" fill="#231f1f"/>
<path d="m32 47.03c-0.6328-1.703-1.711-3.816-2.852-5.129l2.852 1.031 2.852-1.031c-1.141 1.312-2.219 3.426-2.852 5.129" fill="#231f1f"/>
<path transform="matrix(.1 0 0 -.1 0 138)" d="m637.5 806.2h15" fill="none" stroke="#231f1f" stroke-width="5"/>
<path transform="matrix(.1 0 0 -.1 0 138)" d="m680.7 806.2h267.7" fill="none" stroke="#231f1f" stroke-dasharray="28.1797,28.1797" stroke-width="5"/>
<path transform="matrix(.1 0 0 -.1 0 138)" d="m962.5 806.2h15" fill="none" stroke="#231f1f" stroke-width="5"/>
<path d="m101.8 57.36c-1.703-0.6328-3.816-1.711-5.129-2.855l1.031 2.855-1.031 2.852c1.312-1.141 3.426-2.219 5.129-2.852" fill="#231f1f"/>
<path transform="matrix(.1 0 0 -.1 0 138)" d="m1588 700.5v-15" fill="none" stroke="#231f1f" stroke-width="5"/>
<path transform="matrix(.1 0 0 -.1 0 138)" d="m1588 656.2v-394.9" fill="none" stroke="#231f1f" stroke-dasharray="29.2518,29.2518" stroke-width="5"/>
<path transform="matrix(.1 0 0 -.1 0 138)" d="m1588 246.7v-15" fill="none" stroke="#231f1f" stroke-width="5"/>
<path d="m158.8 118.9c0.6328-1.707 1.711-3.816 2.852-5.129l-2.852 1.031-2.855-1.031c1.145 1.312 2.223 3.422 2.855 5.129" fill="#231f1f"/>
<path transform="matrix(.1 0 0 -.1 0 138)" d="m2443 987.4h-15" fill="none" stroke="#231f1f" stroke-width="5"/>
<path transform="matrix(.1 0 0 -.1 0 138)" d="m2399 987.4h-326.9" fill="none" stroke="#231f1f" stroke-dasharray="28.4251,28.4251" stroke-width="5"/>
<path transform="matrix(.1 0 0 -.1 0 138)" d="m2058 987.4h-15v-15" fill="none" stroke="#231f1f" stroke-width="5"/>
<path transform="matrix(.1 0 0 -.1 0 138)" d="m2043 943.4v-681.3" fill="none" stroke="#231f1f" stroke-dasharray="28.99,28.99" stroke-width="5"/>
<path transform="matrix(.1 0 0 -.1 0 138)" d="m2043 247.6v-15" fill="none" stroke="#231f1f" stroke-width="5"/>
<path d="m204.3 118.8c0.6328-1.707 1.711-3.82 2.852-5.129l-2.852 1.031-2.855-1.031c1.145 1.309 2.223 3.422 2.855 5.129" fill="#231f1f"/>
<path transform="matrix(.1 0 0 -.1 0 138)" d="m2443 769.9h-15" fill="none" stroke="#231f1f" stroke-width="5"/>
<path transform="matrix(.1 0 0 -.1 0 138)" d="m2400 769.9h-208.6" fill="none" stroke="#231f1f" stroke-dasharray="27.8131,27.8131" stroke-width="5"/>
<path transform="matrix(.1 0 0 -.1 0 138)" d="m2177 769.9h-15v-15" fill="none" stroke="#231f1f" stroke-width="5"/>
<path transform="matrix(.1 0 0 -.1 0 138)" d="m2162 725.1v-462.5" fill="none" stroke="#231f1f" stroke-dasharray="29.8411,29.8411" stroke-width="5"/>
<path transform="matrix(.1 0 0 -.1 0 138)" d="m2162 247.6v-15" fill="none" stroke="#231f1f" stroke-width="5"/>
<path d="m216.2 118.8c0.6328-1.707 1.711-3.82 2.852-5.129l-2.852 1.031-2.855-1.031c1.145 1.309 2.223 3.422 2.855 5.129" fill="#231f1f"/>
<path d="m0.25 48.5h63.5v17.25h-63.5v-17.25" fill="#fdf2cb"/>
<path transform="matrix(.1 0 0 -.1 0 138)" d="m2.5 894.8h635v-172.5h-635z" fill="none" stroke="#0f0e0c" stroke-width="5"/>
<path d="m22.16 57.59h1.855l-0.9258-2.324zm-0.7422 1.828h-0.7734l2.152-4.957h0.6289l2.129 4.957h-0.7852l-0.5039-1.219h-2.352l-0.4961 1.219" fill="#0f0e0c"/>
<path d="m26.36 56.1 0.75 2.535h0.01172l0.793-2.535h0.6914l0.8047 2.535h0.01563l0.75-2.535h0.6914l-1.098 3.32h-0.6875l-0.8203-2.492h-0.01172l-0.8125 2.492h-0.6875l-1.105-3.32h0.7148" fill="#0f0e0c"/>
<path d="m33.43 57.84c-0.6523 0-1.477 0.07031-1.477 0.6289 0 0.3945 0.3477 0.5195 0.6797 0.5195 0.6133 0 0.957-0.4141 0.957-0.9727v-0.1758zm0.1602-0.5664c0-0.4922-0.3281-0.7305-0.8203-0.7305-0.3711 0-0.7188 0.1602-0.9453 0.3867l-0.3477-0.4219c0.3203-0.3086 0.8164-0.4961 1.359-0.4961 0.9492 0 1.383 0.5664 1.383 1.301v1.453c0 0.2227 0.01562 0.4961 0.05078 0.6562h-0.5938c-0.03516-0.1484-0.05859-0.3203-0.05859-0.4766h-0.01953c-0.2383 0.3594-0.6172 0.5625-1.113 0.5625-0.5273 0-1.207-0.2617-1.207-1.023 0-1.004 1.191-1.121 2.312-1.121v-0.08984" fill="#0f0e0c"/>
<path d="m35.29 56.1h0.625c0.01172 0.168 0.02734 0.4219 0.02734 0.5625h0.01953c0.1836-0.3867 0.5703-0.6523 1.016-0.6523 0.09375 0 0.1836 0.007813 0.2617 0.02734l-0.02734 0.6094c-0.08594-0.01953-0.1992-0.03516-0.3047-0.03516-0.6289 0-0.9297 0.5117-0.9297 1.066v1.742h-0.6562v-2.605c0-0.1758-0.007813-0.4961-0.03125-0.7148" fill="#0f0e0c"/>
<path d="m40.16 57.46c-0.01562-0.5273-0.3203-0.9375-0.9336-0.9375-0.5664 0-1 0.418-1.043 0.9375zm0.6602 0.4883h-2.637c0.02344 0.5703 0.5 1.012 1.082 1.012 0.4453 0 0.7734-0.2266 0.9648-0.5078l0.4609 0.375c-0.3555 0.4609-0.8398 0.6758-1.426 0.6758-1.012 0-1.754-0.6992-1.754-1.742 0-1.035 0.7422-1.758 1.715-1.758 0.9844 0 1.598 0.6641 1.598 1.723 0 0.07031 0 0.1484-0.003907 0.2227" fill="#0f0e0c"/>
<path d="m42.61 56.17c-0.3789 0-0.8594 0.03906-0.8594 0.3672 0 0.2266 0.2031 0.3008 0.3945 0.3008 0.3594 0 0.5586-0.2422 0.5586-0.5664v-0.1016zm0.09375-0.332c0-0.2852-0.1914-0.4219-0.4766-0.4219-0.2188 0-0.4219 0.09375-0.5508 0.2227l-0.2031-0.2422c0.1875-0.1797 0.4766-0.293 0.7891-0.293 0.5547 0 0.8086 0.332 0.8086 0.7578v0.8438c0 0.1328 0.007812 0.2891 0.02734 0.3828h-0.3477c-0.01953-0.08594-0.03125-0.1875-0.03125-0.2773h-0.01172c-0.1406 0.2109-0.3594 0.3281-0.6484 0.3281-0.3047 0-0.7031-0.1523-0.7031-0.5938 0-0.5859 0.6953-0.6523 1.348-0.6523v-0.05469" fill="#0f0e0c"/>
</svg>
