<?xml version="1.0" encoding="UTF-8"?>
<svg width="229.5pt" height="160.3pt" version="1.1" viewBox="0 0 229.5 160.3" xmlns="http://www.w3.org/2000/svg">
<defs>
<clipPath id="b">
<path d="m227 126h2.469v4h-2.469z"/>
</clipPath>
<clipPath id="a">
<path d="m4 38h123v122.3h-123z"/>
</clipPath>
</defs>
<path d="m135.8 62.76h5.539v5.539h-5.539v-5.539" fill="#1476c6" fill-rule="evenodd"/>
<path d="m135.8 76.24h5.539v5.539h-5.539v-5.539" fill="#ed2222" fill-rule="evenodd"/>
<path d="m135.8 89.73h5.539v5.539h-5.539v-5.539" fill="#96d550" fill-rule="evenodd"/>
<path d="m135.8 103.1h5.539v5.539h-5.539v-5.539" fill="#9844a7" fill-rule="evenodd"/>
<path d="m135.8 116.4h5.539v5.539h-5.539v-5.539" fill="#8bd6f4" fill-rule="evenodd"/>
<path d="m146.1 65.16h0.7344c0.6797 0 1.156-0.2227 1.156-0.8125 0-0.5938-0.4922-0.7891-1.145-0.7891h-0.7461zm-0.6953-2.191h1.512c1.074 0 1.773 0.4141 1.773 1.379 0 0.9961-0.7773 1.402-1.809 1.402h-0.7812v2.18h-0.6953v-4.961" fill="#0f0e0c"/>
<path d="m151 66.35c-0.6484 0-1.477 0.07031-1.477 0.6328 0 0.3906 0.3516 0.5156 0.6797 0.5156 0.6172 0 0.9609-0.4102 0.9609-0.9727v-0.1758zm0.1641-0.5664c0-0.4883-0.332-0.7266-0.8203-0.7266-0.3711 0-0.7227 0.1602-0.9453 0.3828l-0.3516-0.418c0.3242-0.3086 0.8203-0.5 1.359-0.5 0.9531 0 1.387 0.5703 1.387 1.305v1.449c0 0.2227 0.01562 0.4961 0.05078 0.6602h-0.5977c-0.03516-0.1484-0.05469-0.3242-0.05469-0.4766h-0.01953c-0.2383 0.3555-0.6172 0.5586-1.113 0.5586-0.5273 0-1.207-0.2578-1.207-1.023 0-1 1.191-1.121 2.312-1.121v-0.08984" fill="#0f0e0c"/>
<path d="m154.7 65.07c-0.6719 0-1.121 0.5664-1.121 1.207 0 0.6367 0.4492 1.195 1.121 1.195 0.7188 0 1.105-0.582 1.105-1.203 0-0.625-0.3867-1.199-1.105-1.199zm-1.078 4.547h-0.6602v-5h0.6445v0.5156h0.01953c0.2188-0.3477 0.6523-0.6094 1.199-0.6094 0.9883 0 1.66 0.7656 1.66 1.746 0 0.9727-0.6523 1.758-1.672 1.758-0.4727 0-0.9258-0.2188-1.172-0.5898h-0.01953v2.18" fill="#0f0e0c"/>
<path d="m158 67.93h-0.6602v-3.32h0.6602zm-0.332-4.098c-0.2344 0-0.4336-0.1914-0.4336-0.4219 0-0.2383 0.1992-0.4258 0.4336-0.4258 0.2383 0 0.4414 0.1797 0.4414 0.4258 0 0.2383-0.2031 0.4219-0.4414 0.4219" fill="#0f0e0c"/>
<path d="m159.8 67.93h-0.6602v-5.297h0.6602v5.297" fill="#0f0e0c"/>
<path d="m161.7 67.93h-0.6562v-5.297h0.6562v5.297" fill="#0f0e0c"/>
<path d="m164.7 66.35c-0.6523 0-1.48 0.07031-1.48 0.6328 0 0.3906 0.3516 0.5156 0.6797 0.5156 0.6172 0 0.9609-0.4102 0.9609-0.9727v-0.1758zm0.1602-0.5664c0-0.4883-0.3281-0.7266-0.8203-0.7266-0.3711 0-0.7188 0.1602-0.9453 0.3828l-0.3477-0.418c0.3203-0.3086 0.8203-0.5 1.355-0.5 0.9531 0 1.387 0.5703 1.387 1.305v1.449c0 0.2227 0.01563 0.4961 0.05078 0.6602h-0.5938c-0.03516-0.1484-0.05859-0.3242-0.05859-0.4766h-0.01953c-0.2383 0.3555-0.6172 0.5586-1.113 0.5586-0.5273 0-1.207-0.2578-1.207-1.023 0-1 1.191-1.121 2.312-1.121v-0.08984" fill="#0f0e0c"/>
<path d="m166.6 64.61h0.625c0.01172 0.168 0.02734 0.418 0.02734 0.5586h0.01953c0.1836-0.3828 0.5664-0.6523 1.016-0.6523 0.09375 0 0.1836 0.007813 0.2617 0.03125l-0.03125 0.6094c-0.08203-0.02344-0.1953-0.03516-0.3008-0.03516-0.6289 0-0.9297 0.5078-0.9297 1.062v1.746h-0.6602v-2.605c0-0.1758-0.003907-0.5-0.02734-0.7148" fill="#0f0e0c"/>
<path d="m170.4 67.22h0.01172l0.918-2.605h0.7031l-1.613 4.102c-0.2148 0.5547-0.4961 0.8984-1.148 0.8984-0.1406 0-0.2852-0.01562-0.4336-0.05078l0.0625-0.5781c0.1055 0.03125 0.2266 0.05469 0.3281 0.05469 0.3438 0 0.4805-0.1953 0.6172-0.5547l0.2109-0.5508-1.422-3.32h0.7344l1.031 2.605" fill="#0f0e0c"/>
<path d="m146.1 81.33h-0.6953v-4.957h3.094v0.6094h-2.398v1.539h2.246v0.5938h-2.246v2.215" fill="#0f0e0c"/>
<path d="m150.6 78.47c-0.707 0-1.105 0.5664-1.105 1.195 0 0.6328 0.3984 1.207 1.105 1.207 0.7148 0 1.109-0.5742 1.109-1.207 0-0.6289-0.3945-1.195-1.109-1.195zm0 2.953c-1.012 0-1.785-0.7344-1.785-1.758 0-1.023 0.7734-1.742 1.785-1.742 1.016 0 1.793 0.7188 1.793 1.742 0 1.023-0.7773 1.758-1.793 1.758" fill="#0f0e0c"/>
<path d="m153.9 81.33h-0.6562v-5.297h0.6562v5.297" fill="#0f0e0c"/>
<path d="m155.8 81.33h-0.6562v-5.297h0.6562v5.297" fill="#0f0e0c"/>
<path d="m157.6 81.33h-0.6602v-3.32h0.6602zm-0.3281-4.098c-0.2383 0-0.4336-0.1875-0.4336-0.4219s0.1953-0.4258 0.4336-0.4258c0.2383 0 0.4414 0.1836 0.4414 0.4258 0 0.2383-0.2031 0.4219-0.4414 0.4219" fill="#0f0e0c"/>
<path d="m161 78.85c-0.1406-0.2148-0.4492-0.3789-0.7617-0.3789-0.6875 0-1.086 0.5625-1.086 1.199 0 0.6289 0.3984 1.199 1.09 1.199 0.3359 0 0.625-0.1406 0.8008-0.3672l0.4414 0.4023c-0.2812 0.3203-0.707 0.5156-1.242 0.5156-1.02 0-1.785-0.6914-1.785-1.75 0-1.043 0.7578-1.75 1.773-1.75 0.4688 0 0.9727 0.1875 1.246 0.5469l-0.4766 0.3828" fill="#0f0e0c"/>
<path d="m164.5 81.33c-0.01172-0.168-0.02734-0.4062-0.02734-0.5469h-0.01562c-0.168 0.3516-0.6016 0.6367-1.086 0.6367-0.8555 0-1.238-0.6094-1.238-1.352v-2.059h0.6602v1.836c0 0.5469 0.1445 1.023 0.7539 1.023 0.5273 0 0.8906-0.4375 0.8906-1.094v-1.766h0.6562v2.605c0 0.1758 0.007813 0.4961 0.03125 0.7148h-0.625" fill="#0f0e0c"/>
<path d="m166.9 81.33h-0.6562v-5.297h0.6562v5.297" fill="#0f0e0c"/>
<path d="m170 79.75c-0.6523 0-1.48 0.07031-1.48 0.6289 0 0.3906 0.3516 0.5195 0.6797 0.5195 0.6172 0 0.9609-0.4141 0.9609-0.9727v-0.1758zm0.1602-0.5703c0-0.4883-0.3281-0.7266-0.8203-0.7266-0.3711 0-0.7227 0.1602-0.9453 0.3867l-0.3516-0.4219c0.3242-0.3086 0.8203-0.4961 1.359-0.4961 0.9531 0 1.387 0.5664 1.387 1.301v1.449c0 0.2266 0.01562 0.5 0.05078 0.6602h-0.5977c-0.03516-0.1484-0.05469-0.3242-0.05469-0.4766h-0.01953c-0.2383 0.3555-0.6172 0.5586-1.117 0.5586-0.5234 0-1.203-0.2578-1.203-1.02 0-1.004 1.191-1.121 2.312-1.121v-0.09375" fill="#0f0e0c"/>
<path d="m171.8 78.01h0.625c0.01172 0.168 0.02734 0.4219 0.02734 0.5625h0.01953c0.1836-0.3867 0.5664-0.6523 1.016-0.6523 0.08984 0 0.1836 0.007813 0.2578 0.02734l-0.02734 0.6094c-0.08203-0.01953-0.1953-0.03516-0.3008-0.03516-0.6289 0-0.9297 0.5117-0.9297 1.062v1.746h-0.6602v-2.605c0-0.1758-0.007812-0.4961-0.02734-0.7148" fill="#0f0e0c"/>
<path d="m148 93.58h0.01562l1.465-3.809h1.078v4.957h-0.6953v-4.145h-0.01172l-1.648 4.145h-0.4414l-1.637-4.145h-0.01562v4.145h-0.6719v-4.957h1.078l1.484 3.809" fill="#0f0e0c"/>
<path d="m154.1 92.78c-0.01172-0.5234-0.3203-0.9375-0.9297-0.9375-0.5664 0-1.004 0.418-1.043 0.9375zm0.6602 0.4922h-2.633c0.01953 0.5664 0.4961 1.008 1.078 1.008 0.4453 0 0.7773-0.2266 0.9648-0.5039l0.4648 0.3711c-0.3594 0.4609-0.8438 0.6797-1.43 0.6797-1.008 0-1.75-0.7031-1.75-1.746 0-1.035 0.7422-1.758 1.715-1.758 0.9805 0 1.598 0.6641 1.598 1.723 0 0.07031 0 0.1484-0.007813 0.2266" fill="#0f0e0c"/>
<path d="m157.2 94.27c0.6719 0 1.121-0.5586 1.121-1.199 0-0.6367-0.4492-1.203-1.121-1.203-0.7227 0-1.102 0.5742-1.102 1.199 0 0.6211 0.3789 1.203 1.102 1.203zm-0.1133 0.5547c-1.023 0-1.672-0.7852-1.672-1.758 0-0.9805 0.6719-1.746 1.664-1.746 0.5391 0 0.9531 0.2656 1.184 0.5898h0.01562v-2.473h0.6562v5.293h-0.6367v-0.5234h-0.01172c-0.2539 0.3984-0.7305 0.6172-1.199 0.6172" fill="#0f0e0c"/>
<path d="m162.5 94.73c-0.01562-0.168-0.03125-0.4062-0.03125-0.5469h-0.01172c-0.168 0.3516-0.6016 0.6406-1.086 0.6406-0.8555 0-1.238-0.6094-1.238-1.352v-2.062h0.6562v1.836c0 0.5469 0.1484 1.023 0.7578 1.023 0.5234 0 0.8867-0.4336 0.8867-1.094v-1.766h0.6602v2.605c0 0.1758 0.007813 0.5 0.02734 0.7148h-0.6211" fill="#0f0e0c"/>
<path d="m164.9 94.73h-0.6602v-5.293h0.6602v5.293" fill="#0f0e0c"/>
<path d="m166.7 94.73h-0.6602v-5.293h0.6602v5.293" fill="#0f0e0c"/>
<path d="m169.8 93.15c-0.6523 0-1.477 0.07031-1.477 0.6289 0 0.3945 0.3477 0.5195 0.6797 0.5195 0.6133 0 0.957-0.4141 0.957-0.9727v-0.1758zm0.1602-0.5664c0-0.4922-0.3281-0.7305-0.8164-0.7305-0.3711 0-0.7227 0.1641-0.9453 0.3867l-0.3516-0.4219c0.3203-0.3047 0.8203-0.4961 1.359-0.4961 0.9492 0 1.387 0.5664 1.387 1.305v1.449c0 0.2227 0.01172 0.4961 0.04688 0.6562h-0.5938c-0.03516-0.1445-0.05859-0.3203-0.05859-0.4766h-0.01953c-0.2383 0.3594-0.6172 0.5625-1.113 0.5625-0.5273 0-1.203-0.2617-1.203-1.023 0-1 1.188-1.121 2.309-1.121v-0.08984" fill="#0f0e0c"/>
<path d="m171.6 91.41h0.625c0.01562 0.168 0.02734 0.4219 0.02734 0.5625h0.01953c0.1836-0.3867 0.5703-0.6523 1.02-0.6523 0.08984 0 0.1797 0.007813 0.2578 0.02734l-0.02734 0.6094c-0.08594-0.01953-0.1953-0.03516-0.3008-0.03516-0.6328 0-0.9336 0.5117-0.9336 1.066v1.742h-0.6562v-2.605c0-0.1719-0.007813-0.4961-0.03125-0.7148" fill="#0f0e0c"/>
<path d="m175.4 94.02h0.01562l0.9141-2.605h0.7031l-1.613 4.105c-0.2148 0.5547-0.4961 0.8984-1.148 0.8984-0.1367 0-0.2852-0.01562-0.4336-0.05078l0.0625-0.582c0.1055 0.03516 0.2266 0.05859 0.332 0.05859 0.3398 0 0.4766-0.1992 0.6172-0.5547l0.207-0.5547-1.422-3.32h0.7344l1.031 2.605" fill="#0f0e0c"/>
<path d="m146.3 106.3h1.855l-0.9219-2.324zm-0.7422 1.828h-0.7695l2.148-4.961h0.6328l2.129 4.961h-0.7852l-0.5039-1.219h-2.355l-0.4961 1.219" fill="#0f0e0c"/>
<path d="m150.9 104.8c0.01172 0.168 0.02734 0.4062 0.02734 0.5469h0.01953c0.1602-0.3594 0.6016-0.6367 1.078-0.6367 0.8555 0 1.242 0.6094 1.242 1.352v2.059h-0.6602v-1.844c0-0.5391-0.1484-1.016-0.7578-1.016-0.5156 0-0.8867 0.4375-0.8867 1.094v1.766h-0.6602v-2.605c0-0.1758-0.007812-0.5-0.02734-0.7148h0.625" fill="#0f0e0c"/>
<path d="m156.3 106.6c-0.6523 0-1.477 0.06641-1.477 0.6289 0 0.3906 0.3477 0.5195 0.6758 0.5195 0.6172 0 0.9609-0.4141 0.9609-0.9766v-0.1719zm0.1602-0.5703c0-0.4883-0.3281-0.7266-0.8203-0.7266-0.3711 0-0.7188 0.1602-0.9453 0.3867l-0.3516-0.4219c0.3242-0.3086 0.8203-0.4961 1.359-0.4961 0.9531 0 1.387 0.5664 1.387 1.301v1.449c0 0.2266 0.01563 0.5 0.05078 0.6602h-0.5977c-0.03125-0.1484-0.05469-0.3242-0.05469-0.4766h-0.01953c-0.2383 0.3555-0.6172 0.5586-1.113 0.5586-0.5273 0-1.207-0.2578-1.207-1.023 0-1 1.191-1.117 2.312-1.117v-0.09375" fill="#0f0e0c"/>
<path d="m159.9 105.3c-0.6719 0-1.121 0.5703-1.121 1.207 0 0.6367 0.4492 1.199 1.121 1.199 0.7227 0 1.105-0.582 1.105-1.207 0-0.6211-0.3828-1.199-1.105-1.199zm-1.078 4.547h-0.6602v-5h0.6445v0.5195h0.02344c0.2148-0.3516 0.6484-0.6094 1.195-0.6094 0.9883 0 1.66 0.7617 1.66 1.742 0 0.9727-0.6523 1.758-1.672 1.758-0.4727 0-0.9258-0.2148-1.172-0.5859h-0.01953v2.176" fill="#0f0e0c"/>
<path d="m163.3 108.1h-0.6602v-5.297h0.6602v5.297" fill="#0f0e0c"/>
<path d="m166.4 106.6c-0.6523 0-1.477 0.06641-1.477 0.6289 0 0.3906 0.3477 0.5195 0.6758 0.5195 0.6172 0 0.9609-0.4141 0.9609-0.9766v-0.1719zm0.1602-0.5703c0-0.4883-0.3281-0.7266-0.8203-0.7266-0.3672 0-0.7188 0.1602-0.9453 0.3867l-0.3477-0.4219c0.3203-0.3086 0.8203-0.4961 1.359-0.4961 0.9492 0 1.383 0.5664 1.383 1.301v1.449c0 0.2266 0.01562 0.5 0.05078 0.6602h-0.5938c-0.03516-0.1484-0.05859-0.3242-0.05859-0.4766h-0.01953c-0.2383 0.3555-0.6172 0.5586-1.113 0.5586-0.5273 0-1.203-0.2578-1.203-1.023 0-1 1.188-1.117 2.309-1.117v-0.09375" fill="#0f0e0c"/>
<path d="m170 105.7c-0.1484-0.2383-0.4375-0.4141-0.7734-0.4141-0.3008 0-0.6172 0.1211-0.6172 0.4336 0 0.2812 0.2539 0.3867 0.7578 0.5 0.6328 0.1406 1.113 0.3984 1.113 0.9805 0 0.7852-0.6484 1.07-1.324 1.07-0.5039 0-1.02-0.1953-1.336-0.5938l0.4688-0.3984c0.1758 0.2578 0.5117 0.4609 0.8828 0.4609 0.3281 0 0.6602-0.1211 0.6602-0.4844 0-0.3086-0.3047-0.418-0.8711-0.5547-0.4414-0.1016-0.9648-0.293-0.9648-0.918 0-0.7109 0.6211-1.012 1.254-1.012 0.4688 0 0.9648 0.1875 1.203 0.543l-0.4531 0.3867" fill="#0f0e0c"/>
<path d="m173 105.4h-0.8828v1.73c0 0.3984 0.1406 0.5586 0.4688 0.5586 0.1211 0 0.2734-0.02734 0.3867-0.08203l0.01953 0.5391c-0.1523 0.05469-0.3555 0.08984-0.5586 0.08984-0.625 0-0.9688-0.3477-0.9688-1.035v-1.801h-0.6367v-0.5391h0.6367v-0.9531h0.6523v0.9531h0.8828v0.5391" fill="#0f0e0c"/>
<path d="m174.3 108.1h-0.6602v-3.32h0.6602zm-0.3281-4.098c-0.2383 0-0.4375-0.1875-0.4375-0.4219s0.1992-0.4258 0.4375-0.4258 0.4414 0.1797 0.4414 0.4258c0 0.2383-0.2031 0.4219-0.4414 0.4219" fill="#0f0e0c"/>
<path d="m177.8 105.7c-0.1406-0.2148-0.4492-0.3789-0.7617-0.3789-0.6875 0-1.086 0.5625-1.086 1.199 0 0.6289 0.3984 1.199 1.09 1.199 0.3359 0 0.625-0.1445 0.8008-0.3672l0.4414 0.4023c-0.2812 0.3203-0.707 0.5156-1.242 0.5156-1.02 0-1.785-0.6953-1.785-1.75 0-1.043 0.7578-1.75 1.773-1.75 0.4688 0 0.9727 0.1875 1.246 0.543l-0.4766 0.3867" fill="#0f0e0c"/>
<path d="m147.8 117.1c-1.141 0-1.871 0.9062-1.871 1.992 0 1.105 0.7344 1.988 1.871 1.988 1.148 0 1.883-0.8828 1.883-1.988 0-1.086-0.7266-1.992-1.883-1.992zm0 4.602c-1.504 0-2.621-1.086-2.621-2.609 0-1.547 1.117-2.602 2.621-2.602 1.512 0 2.633 1.055 2.633 2.602 0 1.523-1.121 2.609-2.633 2.609" fill="#0f0e0c"/>
<path d="m152.9 118.8h-0.8828v1.727c0 0.3984 0.1406 0.5625 0.4727 0.5625 0.1172 0 0.2695-0.02734 0.3828-0.08594l0.01953 0.5391c-0.1523 0.05859-0.3555 0.09375-0.5586 0.09375-0.625 0-0.9648-0.3516-0.9648-1.039v-1.797h-0.6367v-0.543h0.6367v-0.9531h0.6484v0.9531h0.8828v0.543" fill="#0f0e0c"/>
<path d="m154.3 118.7c0.1523-0.3281 0.5742-0.5938 1.051-0.5938 0.8516 0 1.238 0.6094 1.238 1.352v2.059h-0.6602v-1.836c0-0.5391-0.1406-1.016-0.7461-1.016-0.5195 0-0.8984 0.4336-0.8984 1.094v1.758h-0.6602v-5.293h0.6602v2.477h0.01562" fill="#0f0e0c"/>
<path d="m160.1 119.6c-0.01172-0.5273-0.3203-0.9375-0.9297-0.9375-0.5664 0-1 0.418-1.043 0.9375zm0.6602 0.4883h-2.633c0.01953 0.5703 0.4961 1.012 1.078 1.012 0.4492 0 0.7773-0.2266 0.9648-0.5078l0.4648 0.3711c-0.3594 0.4648-0.8398 0.6836-1.43 0.6836-1.008 0-1.75-0.7031-1.75-1.746 0-1.035 0.7422-1.758 1.715-1.758 0.9805 0 1.598 0.6641 1.598 1.723 0 0.07031 0 0.1484-0.007812 0.2227" fill="#0f0e0c"/>
<path d="m161.7 118.2h0.625c0.01172 0.168 0.02734 0.4219 0.02734 0.5625h0.01953c0.1836-0.3867 0.5664-0.6523 1.016-0.6523 0.08984 0 0.1836 0.007812 0.2578 0.02734l-0.02734 0.6094c-0.08203-0.01953-0.1953-0.03516-0.3008-0.03516-0.6289 0-0.9297 0.5117-0.9297 1.066v1.742h-0.6602v-2.605c0-0.1719-0.007813-0.4961-0.02734-0.7148" fill="#0f0e0c"/>
<path d="m167.2 122.3-0.4766 0.3086c-0.6133-0.8281-1.02-1.949-1.02-3.117 0-1.172 0.4062-2.289 1.02-3.117l0.4766 0.3086c-0.5469 0.7617-0.9023 1.785-0.9023 2.809s0.3555 2.043 0.9023 2.809" fill="#0f0e0c"/>
<path d="m169.8 118.8h-0.8828v1.727c0 0.3984 0.1406 0.5625 0.4688 0.5625 0.1211 0 0.2773-0.02734 0.3867-0.08594l0.02344 0.5391c-0.1562 0.05859-0.3594 0.09375-0.5625 0.09375-0.6211 0-0.9648-0.3516-0.9648-1.039v-1.797h-0.6406v-0.543h0.6406v-0.9531h0.6484v0.9531h0.8828v0.543" fill="#0f0e0c"/>
<path d="m171.1 118.7c0.1523-0.3281 0.5742-0.5938 1.051-0.5938 0.8516 0 1.238 0.6094 1.238 1.352v2.059h-0.6602v-1.836c0-0.5391-0.1367-1.016-0.7461-1.016-0.5195 0-0.8984 0.4336-0.8984 1.094v1.758h-0.6562v-5.293h0.6562v2.477h0.01562" fill="#0f0e0c"/>
<path d="m175.7 120.8h0.01562l0.918-2.605h0.6992l-1.609 4.105c-0.2188 0.5547-0.5 0.8945-1.152 0.8945-0.1367 0-0.2852-0.01172-0.4336-0.04688l0.0625-0.582c0.1055 0.03516 0.2266 0.05469 0.332 0.05469 0.3438 0 0.4766-0.1953 0.6172-0.5508l0.207-0.5547-1.422-3.32h0.7383l1.027 2.605" fill="#0f0e0c"/>
<path d="m177.9 118.2h0.625c0.01562 0.168 0.02734 0.4219 0.02734 0.5625h0.01953c0.1836-0.3867 0.5703-0.6523 1.02-0.6523 0.08984 0 0.1797 0.007812 0.2578 0.02734l-0.02734 0.6094c-0.08594-0.01953-0.1992-0.03516-0.3008-0.03516-0.6328 0-0.9336 0.5117-0.9336 1.066v1.742h-0.6562v-2.605c0-0.1719-0.007812-0.4961-0.03125-0.7148" fill="#0f0e0c"/>
<path d="m181.9 118.7c-0.707 0-1.105 0.5664-1.105 1.195 0 0.6328 0.3984 1.207 1.105 1.207 0.7148 0 1.105-0.5742 1.105-1.207 0-0.6289-0.3906-1.195-1.105-1.195zm0 2.957c-1.016 0-1.785-0.7383-1.785-1.762 0-1.02 0.7695-1.742 1.785-1.742s1.793 0.7227 1.793 1.742c0 1.023-0.7773 1.762-1.793 1.762" fill="#0f0e0c"/>
<path d="m185.2 121.5h-0.6602v-3.32h0.6602zm-0.332-4.098c-0.2344 0-0.4336-0.1875-0.4336-0.418 0-0.2383 0.1992-0.4297 0.4336-0.4297 0.2383 0 0.4414 0.1836 0.4414 0.4297 0 0.2383-0.2031 0.418-0.4414 0.418" fill="#0f0e0c"/>
<path d="m187.9 121.1c0.6719 0 1.121-0.5625 1.121-1.199 0-0.6367-0.4492-1.203-1.121-1.203-0.7188 0-1.098 0.5742-1.098 1.195 0 0.625 0.3789 1.207 1.098 1.207zm-0.1094 0.5547c-1.023 0-1.676-0.7852-1.676-1.762 0-0.9805 0.6719-1.742 1.668-1.742 0.5391 0 0.9531 0.2656 1.184 0.5898h0.01172v-2.473h0.6602v5.293h-0.6367v-0.5234h-0.01562c-0.25 0.3984-0.7266 0.6172-1.195 0.6172" fill="#0f0e0c"/>
<path d="m193.2 121.5h-0.6602v-5.293h0.6602v5.293" fill="#0f0e0c"/>
<path d="m195.5 120.8h0.01562l0.9141-2.605h0.7031l-1.609 4.105c-0.2188 0.5547-0.5 0.8945-1.152 0.8945-0.1367 0-0.2852-0.01172-0.4336-0.04688l0.0625-0.582c0.1055 0.03516 0.2266 0.05469 0.332 0.05469 0.3398 0 0.4766-0.1953 0.6172-0.5508l0.207-0.5547-1.422-3.32h0.7344l1.031 2.605" fill="#0f0e0c"/>
<path d="m199.5 118.1c0.4414 0 0.8281 0.1953 1.031 0.6641 0.2227-0.4258 0.6562-0.6641 1.125-0.6641 0.8555 0 1.242 0.6094 1.242 1.352v2.059h-0.6602v-1.84c0-0.543-0.1602-1.016-0.7344-1.016-0.6016 0-0.8398 0.5469-0.8398 1.062v1.793h-0.6602v-1.973c0-0.5195-0.1719-0.8828-0.6992-0.8828-0.4844 0-0.8477 0.4336-0.8477 1.09v1.766h-0.6562v-2.605c0-0.1719-0.007812-0.4961-0.03125-0.7148h0.625c0.01563 0.168 0.02734 0.4062 0.02734 0.5469h0.01953c0.1719-0.3516 0.5547-0.6367 1.059-0.6367" fill="#0f0e0c"/>
<path d="m205.7 118.7c-0.6719 0-1.121 0.5664-1.121 1.203 0 0.6367 0.4492 1.199 1.121 1.199 0.7188 0 1.105-0.582 1.105-1.207 0-0.6211-0.3867-1.195-1.105-1.195zm-1.078 4.543h-0.6602v-5h0.6445v0.5195h0.01953c0.2188-0.3516 0.6523-0.6094 1.199-0.6094 0.9883 0 1.66 0.7617 1.66 1.742 0 0.9766-0.6523 1.762-1.676 1.762-0.4688 0-0.9219-0.2188-1.168-0.5898h-0.01953v2.176" fill="#0f0e0c"/>
<path d="m209 118.7c0.1523-0.3281 0.5742-0.5938 1.051-0.5938 0.8555 0 1.238 0.6094 1.238 1.352v2.059h-0.6562v-1.836c0-0.5391-0.1406-1.016-0.75-1.016-0.5195 0-0.8984 0.4336-0.8984 1.094v1.758h-0.6562v-5.293h0.6562v2.477h0.01562" fill="#0f0e0c"/>
<path d="m214 118.7c-0.707 0-1.105 0.5664-1.105 1.195 0 0.6328 0.3984 1.207 1.105 1.207 0.7148 0 1.109-0.5742 1.109-1.207 0-0.6289-0.3945-1.195-1.109-1.195zm0 2.957c-1.016 0-1.785-0.7383-1.785-1.762 0-1.02 0.7695-1.742 1.785-1.742s1.793 0.7227 1.793 1.742c0 1.023-0.7773 1.762-1.793 1.762" fill="#0f0e0c"/>
<path d="m218.3 118.1c0.4414 0 0.8242 0.1953 1.027 0.6641 0.2266-0.4258 0.6602-0.6641 1.129-0.6641 0.8555 0 1.238 0.6094 1.238 1.352v2.059h-0.6562v-1.84c0-0.543-0.1641-1.016-0.7383-1.016-0.6016 0-0.8398 0.5469-0.8398 1.062v1.793h-0.6562v-1.973c0-0.5195-0.1758-0.8828-0.6992-0.8828-0.4844 0-0.8516 0.4336-0.8516 1.09v1.766h-0.6562v-2.605c0-0.1719-0.007813-0.4961-0.02734-0.7148h0.6211c0.01562 0.168 0.02734 0.4062 0.02734 0.5469h0.02344c0.168-0.3516 0.5547-0.6367 1.059-0.6367" fill="#0f0e0c"/>
<path d="m224.7 119.9c-0.6523 0-1.477 0.07031-1.477 0.6289 0 0.3945 0.3477 0.5195 0.6797 0.5195 0.6172 0 0.957-0.4141 0.957-0.9727v-0.1758zm0.1602-0.5664c0-0.4922-0.3281-0.7305-0.8164-0.7305-0.3711 0-0.7227 0.1641-0.9453 0.3867l-0.3516-0.4219c0.3203-0.3086 0.8203-0.4961 1.359-0.4961 0.9531 0 1.387 0.5664 1.387 1.305v1.449c0 0.2227 0.01172 0.4961 0.04687 0.6562h-0.5938c-0.03516-0.1445-0.05469-0.3203-0.05469-0.4766h-0.02344c-0.2383 0.3594-0.6133 0.5625-1.113 0.5625-0.5234 0-1.203-0.2617-1.203-1.023 0-1 1.188-1.121 2.309-1.121v-0.08984" fill="#0f0e0c"/>
<path d="m147.3 128.3c-0.6523 0-1.48 0.07031-1.48 0.6328 0 0.3906 0.3516 0.5195 0.6797 0.5195 0.6172 0 0.9609-0.4141 0.9609-0.9766v-0.1758zm0.1602-0.5664c0-0.4883-0.3281-0.7266-0.8203-0.7266-0.3711 0-0.7188 0.1602-0.9453 0.3828l-0.3516-0.418c0.3242-0.3086 0.8203-0.5 1.359-0.5 0.9531 0 1.387 0.5703 1.387 1.305v1.449c0 0.2266 0.01562 0.4961 0.05078 0.6602h-0.5977c-0.03125-0.1484-0.05469-0.3242-0.05469-0.4766h-0.01953c-0.2383 0.3555-0.6172 0.5586-1.113 0.5586-0.5273 0-1.207-0.2578-1.207-1.023 0-1 1.191-1.117 2.312-1.117v-0.09375" fill="#0f0e0c"/>
<path d="m149.7 126.6c0.01172 0.168 0.02734 0.4062 0.02734 0.543h0.01953c0.1602-0.3555 0.6016-0.6367 1.078-0.6367 0.8555 0 1.242 0.6094 1.242 1.355v2.059h-0.6602v-1.844c0-0.5391-0.1445-1.016-0.7578-1.016-0.5156 0-0.8867 0.4336-0.8867 1.094v1.766h-0.6602v-2.609c0-0.1719-0.007812-0.4961-0.02734-0.7109h0.625" fill="#0f0e0c"/>
<path d="m154.7 129.5c0.6719 0 1.121-0.5586 1.121-1.195 0-0.6406-0.4492-1.207-1.121-1.207-0.7227 0-1.098 0.5742-1.098 1.199 0 0.6211 0.375 1.203 1.098 1.203zm-0.1133 0.5547c-1.02 0-1.672-0.7852-1.672-1.758 0-0.9805 0.6719-1.746 1.668-1.746 0.5391 0 0.9492 0.2695 1.184 0.5898h0.01172v-2.473h0.6602v5.297h-0.6406v-0.5273h-0.01172c-0.2539 0.3984-0.7305 0.6172-1.199 0.6172" fill="#0f0e0c"/>
<path d="m161 126.5c0.4414 0 0.8242 0.1992 1.027 0.668 0.2266-0.4297 0.6602-0.668 1.129-0.668 0.8555 0 1.242 0.6094 1.242 1.355v2.059h-0.6602v-1.844c0-0.5391-0.1602-1.016-0.7344-1.016-0.6055 0-0.8438 0.5469-0.8438 1.066v1.793h-0.6562v-1.977c0-0.5195-0.1758-0.8828-0.6992-0.8828-0.4844 0-0.8477 0.4336-0.8477 1.094v1.766h-0.6602v-2.609c0-0.1719-0.007813-0.4961-0.02734-0.7109h0.6211c0.01562 0.168 0.03125 0.4062 0.03125 0.543h0.01953c0.168-0.3477 0.5547-0.6367 1.059-0.6367" fill="#0f0e0c"/>
<path d="m167.9 128c-0.01562-0.5234-0.3242-0.9375-0.9336-0.9375-0.5664 0-1 0.4219-1.043 0.9375zm0.6562 0.4922h-2.633c0.02344 0.5664 0.5 1.008 1.078 1.008 0.4492 0 0.7773-0.2227 0.9688-0.5039l0.4609 0.3711c-0.3555 0.4609-0.8398 0.6797-1.43 0.6797-1.008 0-1.75-0.7031-1.75-1.746 0-1.035 0.7422-1.758 1.715-1.758 0.9844 0 1.598 0.668 1.598 1.723 0 0.07031 0 0.1484-0.007813 0.2266" fill="#0f0e0c"/>
<path d="m171.1 127.2h-0.8828v1.73c0 0.3984 0.1406 0.5586 0.4688 0.5586 0.1172 0 0.2734-0.02734 0.3828-0.08203l0.02344 0.5391c-0.1562 0.05469-0.3594 0.08984-0.5625 0.08984-0.6211 0-0.9648-0.3516-0.9648-1.039v-1.797h-0.6367v-0.5391h0.6367v-0.9531h0.6523v0.9531h0.8828v0.5391" fill="#0f0e0c"/>
<path d="m173.6 128.3c-0.6523 0-1.48 0.07031-1.48 0.6328 0 0.3906 0.3516 0.5195 0.6797 0.5195 0.6172 0 0.9609-0.4141 0.9609-0.9766v-0.1758zm0.1602-0.5664c0-0.4883-0.3281-0.7266-0.8203-0.7266-0.3711 0-0.7188 0.1602-0.9453 0.3828l-0.3477-0.418c0.3203-0.3086 0.8164-0.5 1.355-0.5 0.9531 0 1.387 0.5703 1.387 1.305v1.449c0 0.2266 0.01562 0.4961 0.05078 0.6602h-0.5938c-0.03516-0.1484-0.05859-0.3242-0.05859-0.4766h-0.01953c-0.2383 0.3555-0.6172 0.5586-1.113 0.5586-0.5273 0-1.207-0.2578-1.207-1.023 0-1 1.191-1.117 2.312-1.117v-0.09375" fill="#0f0e0c"/>
<path d="m177.2 127.5c-0.1445-0.2383-0.4336-0.4141-0.7695-0.4141-0.3008 0-0.6172 0.1172-0.6172 0.4336 0 0.2812 0.2539 0.3867 0.7578 0.5 0.6289 0.1367 1.113 0.3984 1.113 0.9766 0 0.7852-0.6523 1.074-1.324 1.074-0.5039 0-1.02-0.1953-1.336-0.5977l0.4688-0.3984c0.1758 0.2617 0.5117 0.4609 0.8828 0.4609 0.3281 0 0.6562-0.1172 0.6562-0.4805 0-0.3086-0.3008-0.4219-0.8672-0.5547-0.4414-0.1055-0.9648-0.293-0.9648-0.918 0-0.7148 0.6211-1.016 1.254-1.016 0.4688 0 0.9648 0.1914 1.203 0.5469l-0.457 0.3867" fill="#0f0e0c"/>
<path d="m180.2 127.2h-0.8828v1.73c0 0.3984 0.1406 0.5586 0.4688 0.5586 0.1211 0 0.2734-0.02734 0.3867-0.08203l0.01953 0.5391c-0.1523 0.05469-0.3555 0.08984-0.5586 0.08984-0.625 0-0.9688-0.3516-0.9688-1.039v-1.797h-0.6367v-0.5391h0.6367v-0.9531h0.6523v0.9531h0.8828v0.5391" fill="#0f0e0c"/>
<path d="m182.7 128.3c-0.6484 0-1.477 0.07031-1.477 0.6328 0 0.3906 0.3516 0.5195 0.6797 0.5195 0.6172 0 0.957-0.4141 0.957-0.9766v-0.1758zm0.1602-0.5664c0-0.4883-0.3281-0.7266-0.8164-0.7266-0.3711 0-0.7227 0.1602-0.9453 0.3828l-0.3516-0.418c0.3203-0.3086 0.8203-0.5 1.359-0.5 0.9531 0 1.387 0.5703 1.387 1.305v1.449c0 0.2266 0.01562 0.4961 0.04687 0.6602h-0.5938c-0.03516-0.1484-0.05469-0.3242-0.05469-0.4766h-0.02344c-0.2383 0.3555-0.6133 0.5586-1.113 0.5586-0.5234 0-1.203-0.2578-1.203-1.023 0-1 1.191-1.117 2.309-1.117v-0.09375" fill="#0f0e0c"/>
<path d="m186.3 127.5c-0.1484-0.2383-0.4336-0.4141-0.7695-0.4141-0.3008 0-0.6172 0.1172-0.6172 0.4336 0 0.2812 0.2539 0.3867 0.7578 0.5 0.6289 0.1367 1.113 0.3984 1.113 0.9766 0 0.7852-0.6523 1.074-1.324 1.074-0.5039 0-1.023-0.1953-1.34-0.5977l0.4727-0.3984c0.1719 0.2617 0.5078 0.4609 0.8789 0.4609 0.332 0 0.6602-0.1172 0.6602-0.4805 0-0.3086-0.3008-0.4219-0.8672-0.5547-0.4414-0.1055-0.9688-0.293-0.9688-0.918 0-0.7148 0.625-1.016 1.254-1.016 0.4688 0 0.9688 0.1914 1.207 0.5469l-0.457 0.3867" fill="#0f0e0c"/>
<path d="m190.1 128c-0.01562-0.5234-0.3242-0.9375-0.9336-0.9375-0.5664 0-1 0.4219-1.043 0.9375zm0.6562 0.4922h-2.633c0.02344 0.5664 0.4961 1.008 1.078 1.008 0.4492 0 0.7773-0.2227 0.9688-0.5039l0.4609 0.3711c-0.3555 0.4609-0.8398 0.6797-1.43 0.6797-1.008 0-1.75-0.7031-1.75-1.746 0-1.035 0.7422-1.758 1.715-1.758 0.9805 0 1.598 0.668 1.598 1.723 0 0.07031 0 0.1484-0.007812 0.2266" fill="#0f0e0c"/>
<path d="m193.4 127.5c-0.1445-0.2383-0.4336-0.4141-0.7695-0.4141-0.3008 0-0.6172 0.1172-0.6172 0.4336 0 0.2812 0.2539 0.3867 0.7578 0.5 0.6289 0.1367 1.113 0.3984 1.113 0.9766 0 0.7852-0.6523 1.074-1.324 1.074-0.5039 0-1.023-0.1953-1.336-0.5977l0.4688-0.3984c0.1758 0.2617 0.5117 0.4609 0.8828 0.4609 0.3281 0 0.6562-0.1172 0.6562-0.4805 0-0.3086-0.3008-0.4219-0.8672-0.5547-0.4414-0.1055-0.9648-0.293-0.9648-0.918 0-0.7148 0.6211-1.016 1.254-1.016 0.4688 0 0.9648 0.1914 1.203 0.5469l-0.457 0.3867" fill="#0f0e0c"/>
<path d="m198 127.2h-0.7695v2.781h-0.6602v-2.781h-0.6562v-0.5391h0.6562v-0.6953c0-0.7773 0.3438-1.363 1.242-1.363 0.1523 0 0.2852 0.01172 0.4102 0.04687l-0.07422 0.5664c-0.09766-0.02734-0.2031-0.04688-0.332-0.04688-0.4961 0-0.5859 0.3906-0.5859 0.7969v0.6953h0.7695v0.5391" fill="#0f0e0c"/>
<path d="m198.5 126.6h0.625c0.01562 0.168 0.02734 0.418 0.02734 0.5586h0.02344c0.1797-0.3828 0.5664-0.6523 1.016-0.6523 0.08984 0 0.1797 0.007813 0.2578 0.03125l-0.02734 0.6055c-0.08594-0.01953-0.1953-0.03125-0.3008-0.03125-0.6328 0-0.9336 0.5078-0.9336 1.062v1.746h-0.6562v-2.609c0-0.1719-0.007813-0.4961-0.03125-0.7109" fill="#0f0e0c"/>
<path d="m202.5 127.1c-0.707 0-1.109 0.5664-1.109 1.199 0 0.6289 0.4023 1.203 1.109 1.203 0.7148 0 1.105-0.5742 1.105-1.203 0-0.6328-0.3906-1.199-1.105-1.199zm0 2.957c-1.016 0-1.785-0.7344-1.785-1.758s0.7695-1.746 1.785-1.746 1.793 0.7227 1.793 1.746-0.7773 1.758-1.793 1.758" fill="#0f0e0c"/>
<path d="m206.8 126.5c0.4414 0 0.8281 0.1992 1.031 0.668 0.2227-0.4297 0.6562-0.668 1.125-0.668 0.8555 0 1.242 0.6094 1.242 1.355v2.059h-0.6602v-1.844c0-0.5391-0.1602-1.016-0.7344-1.016-0.6016 0-0.8398 0.5469-0.8398 1.066v1.793h-0.6602v-1.977c0-0.5195-0.1758-0.8828-0.6992-0.8828-0.4844 0-0.8477 0.4336-0.8477 1.094v1.766h-0.6602v-2.609c0-0.1719-0.003906-0.4961-0.02734-0.7109h0.625c0.01172 0.168 0.02734 0.4062 0.02734 0.543h0.01953c0.168-0.3477 0.5547-0.6367 1.059-0.6367" fill="#0f0e0c"/>
<path d="m214.6 127.1c-0.7109 0-1.109 0.5664-1.109 1.199 0 0.6289 0.3984 1.203 1.109 1.203s1.105-0.5742 1.105-1.203c0-0.6328-0.3945-1.199-1.105-1.199zm0 2.957c-1.02 0-1.789-0.7344-1.789-1.758s0.7695-1.746 1.789-1.746c1.012 0 1.793 0.7227 1.793 1.746s-0.7812 1.758-1.793 1.758" fill="#0f0e0c"/>
<path d="m218.9 127.2h-0.8828v1.73c0 0.3984 0.1406 0.5586 0.4688 0.5586 0.1211 0 0.2734-0.02734 0.3867-0.08203l0.01953 0.5391c-0.1523 0.05469-0.3555 0.08984-0.5586 0.08984-0.625 0-0.9688-0.3516-0.9688-1.039v-1.797h-0.6367v-0.5391h0.6367v-0.9531h0.6523v0.9531h0.8828v0.5391" fill="#0f0e0c"/>
<path d="m220.2 127.1c0.1562-0.3281 0.5742-0.5977 1.051-0.5977 0.8555 0 1.242 0.6094 1.242 1.355v2.059h-0.6602v-1.836c0-0.5391-0.1406-1.016-0.75-1.016-0.5195 0-0.8945 0.4336-0.8945 1.094v1.758h-0.6602v-5.297h0.6602v2.48h0.01172" fill="#0f0e0c"/>
<path d="m226 128c-0.01172-0.5234-0.3203-0.9375-0.9297-0.9375-0.5664 0-1.004 0.4219-1.043 0.9375zm0.6602 0.4922h-2.633c0.01953 0.5664 0.4961 1.008 1.078 1.008 0.4492 0 0.7773-0.2227 0.9648-0.5039l0.4609 0.3711c-0.3555 0.4609-0.8398 0.6797-1.426 0.6797-1.008 0-1.754-0.7031-1.754-1.746 0-1.035 0.7461-1.758 1.719-1.758 0.9805 0 1.598 0.668 1.598 1.723 0 0.07031 0 0.1484-0.007812 0.2266" fill="#0f0e0c"/>
<g clip-path="url(#b)">
<path d="m227.5 126.6h0.6211c0.01562 0.168 0.03125 0.418 0.03125 0.5586h0.01953c0.1836-0.3828 0.5664-0.6523 1.016-0.6523 0.08984 0 0.1836 0.007813 0.2578 0.03125l-0.02734 0.6055c-0.08203-0.01953-0.1953-0.03125-0.3008-0.03125-0.6289 0-0.9297 0.5078-0.9297 1.062v1.746h-0.6602v-2.609c0-0.1719-0.007813-0.4961-0.02734-0.7109" fill="#0f0e0c"/>
</g>
<path d="m147.7 135.9c-0.1406-0.2148-0.4492-0.3789-0.7617-0.3789-0.6875 0-1.086 0.5625-1.086 1.199 0 0.6289 0.3984 1.195 1.094 1.195 0.3359 0 0.6211-0.1367 0.7969-0.3633l0.4414 0.3984c-0.2812 0.3242-0.707 0.5195-1.238 0.5195-1.023 0-1.789-0.6914-1.789-1.75 0-1.043 0.7578-1.75 1.773-1.75 0.4688 0 0.9727 0.1875 1.246 0.5469l-0.4766 0.3828" fill="#0f0e0c"/>
<path d="m150.7 136.8c-0.6523 0-1.477 0.07031-1.477 0.6289 0 0.3906 0.3477 0.5195 0.6797 0.5195 0.6133 0 0.957-0.4141 0.957-0.9727v-0.1758zm0.1602-0.5703c0-0.4883-0.3281-0.7266-0.8203-0.7266-0.3711 0-0.7188 0.1602-0.9453 0.3867l-0.3477-0.4219c0.3203-0.3086 0.8203-0.4961 1.359-0.4961 0.9492 0 1.387 0.5664 1.387 1.301v1.449c0 0.2266 0.01172 0.5 0.04688 0.6602h-0.5938c-0.03516-0.1484-0.05859-0.3242-0.05859-0.4766h-0.01953c-0.2383 0.3555-0.6172 0.5625-1.113 0.5625-0.5273 0-1.207-0.2617-1.207-1.023 0-1.004 1.191-1.121 2.312-1.121v-0.09375" fill="#0f0e0c"/>
<path d="m153.1 135c0.01563 0.168 0.02734 0.4062 0.02734 0.5469h0.02344c0.1602-0.3594 0.6016-0.6367 1.078-0.6367 0.8516 0 1.238 0.6094 1.238 1.352v2.059h-0.6562v-1.844c0-0.5391-0.1484-1.016-0.7578-1.016-0.5195 0-0.8906 0.4336-0.8906 1.094v1.766h-0.6562v-2.605c0-0.1758-0.007812-0.4961-0.03125-0.7148h0.625" fill="#0f0e0c"/>
<path d="m158.9 135.9c-0.1406-0.2148-0.4492-0.3789-0.7656-0.3789-0.6836 0-1.086 0.5625-1.086 1.199 0 0.6289 0.4023 1.195 1.094 1.195 0.3359 0 0.625-0.1367 0.7969-0.3633l0.4453 0.3984c-0.2812 0.3242-0.7109 0.5195-1.242 0.5195-1.023 0-1.785-0.6914-1.785-1.75 0-1.043 0.7539-1.75 1.773-1.75 0.4688 0 0.9727 0.1875 1.246 0.5469l-0.4766 0.3828" fill="#0f0e0c"/>
<path d="m162.4 136.4c-0.01563-0.5273-0.3242-0.9414-0.9336-0.9414-0.5664 0-1 0.4219-1.043 0.9414zm0.6562 0.4883h-2.633c0.02344 0.5664 0.5 1.012 1.078 1.012 0.4492 0 0.7773-0.2266 0.9688-0.5078l0.4609 0.3711c-0.3555 0.4648-0.8398 0.6797-1.43 0.6797-1.008 0-1.75-0.6992-1.75-1.742 0-1.039 0.7422-1.758 1.715-1.758 0.9844 0 1.598 0.6641 1.598 1.723 0 0.07031 0 0.1484-0.007812 0.2227" fill="#0f0e0c"/>
<path d="m163.9 135h0.625c0.01563 0.168 0.02734 0.4219 0.02734 0.5586h0.01953c0.1836-0.3828 0.5703-0.6484 1.02-0.6484 0.08984 0 0.1797 0.007813 0.2578 0.02734l-0.02734 0.6094c-0.08594-0.01953-0.1953-0.03516-0.3008-0.03516-0.6328 0-0.9336 0.5117-0.9336 1.062v1.746h-0.6562v-2.605c0-0.1758-0.007812-0.4961-0.03125-0.7148" fill="#0f0e0c"/>
<path d="m168.3 135.9c-0.1445-0.2383-0.4336-0.4141-0.7695-0.4141-0.3008 0-0.6172 0.1211-0.6172 0.4375 0 0.2773 0.2539 0.3828 0.7578 0.4961 0.6289 0.1406 1.113 0.3984 1.113 0.9805 0 0.7852-0.6523 1.07-1.324 1.07-0.5039 0-1.023-0.1953-1.336-0.5938l0.4688-0.3984c0.1758 0.2578 0.5117 0.4609 0.8828 0.4609 0.3281 0 0.6562-0.1211 0.6562-0.4844 0-0.3086-0.3008-0.418-0.8672-0.5508-0.4414-0.1055-0.9648-0.2969-0.9648-0.918 0-0.7148 0.6211-1.016 1.254-1.016 0.4688 0 0.9648 0.1875 1.203 0.5469l-0.457 0.3828" fill="#0f0e0c"/>
<path d="m169.4 133.5 0.4766-0.3086c0.6172 0.8242 1.023 1.945 1.023 3.117 0 1.168-0.4062 2.289-1.023 3.113l-0.4766-0.3047c0.5469-0.7656 0.9023-1.789 0.9023-2.809 0-1.023-0.3555-2.047-0.9023-2.809" fill="#0f0e0c"/>
<path transform="matrix(.1 0 0 -.1 0 160.3)" d="m562.9 1568v-66.25" fill="none" stroke="#0f0e0c" stroke-miterlimit="10" stroke-width="5"/>
<path transform="matrix(.1 0 0 -.1 0 160.3)" d="m562.9 1568h33.12" fill="none" stroke="#0f0e0c" stroke-linecap="square" stroke-miterlimit="10" stroke-width="5"/>
<path transform="matrix(.1 0 0 -.1 0 160.3)" d="m513.1 1566v-66.29" fill="none" stroke="#0f0e0c" stroke-miterlimit="10" stroke-width="5"/>
<path transform="matrix(.1 0 0 -.1 0 160.3)" d="m513.1 1566h-33.12" fill="none" stroke="#0f0e0c" stroke-linecap="square" stroke-miterlimit="10" stroke-width="5"/>
<g clip-path="url(#a)">
<path d="m65.36 38.1c33.75 0 61.11 27.36 61.11 61.11 0 33.75-27.36 61.11-61.11 61.11-33.75 0-61.11-27.36-61.11-61.11 0-12.9 4.086-25.48 11.67-35.92l49.44 35.92v-61.11" fill="#1476c6" fill-rule="evenodd"/>
</g>
<path d="m0 37.32c7.586-10.44 18.28-18.21 30.55-22.2l18.89 58.12-49.44-35.92" fill="#ed2222" fill-rule="evenodd"/>
<path d="m36.2 12.57c3.656-1.188 7.414-2.031 11.23-2.512l7.66 60.63-18.89-58.12" fill="#96d550" fill-rule="evenodd"/>
<path d="m49.32 9.758c1.27-0.1641 2.543-0.2852 3.82-0.3633l3.84 60.99-7.66-60.63" fill="#9844a7" fill-rule="evenodd"/>
<path d="m54.1 9.336c1.281-0.08203 2.559-0.1211 3.84-0.1211v61.11l-3.84-60.99" fill="#8bd6f4" fill-rule="evenodd"/>
<path d="m89.03 140.8c0.4492 0 0.8125-0.3516 0.8125-0.8047 0-0.4766-0.3711-0.8125-0.8125-0.8125-0.4688 0-0.8125 0.3359-0.8125 0.8125 0 0.4531 0.3438 0.8047 0.8125 0.8047zm0 2.465c0.5625 0 0.9688-0.3828 0.9688-0.9453 0-0.5391-0.4062-0.9375-0.9688-0.9375-0.5664 0-0.9727 0.3906-0.9727 0.9375 0 0.5625 0.3984 0.9453 0.9727 0.9453zm1.66-0.9102c0 0.9297-0.7617 1.477-1.66 1.477-0.9023 0-1.664-0.5469-1.664-1.477 0-0.6602 0.4258-1.121 0.9375-1.262v-0.01172c-0.4414-0.1562-0.7656-0.5625-0.7656-1.109 0-0.8164 0.6758-1.352 1.492-1.352 0.8125 0 1.484 0.5117 1.484 1.34 0 0.5391-0.3125 0.9727-0.7617 1.121v0.01172c0.5312 0.1328 0.9375 0.625 0.9375 1.262" fill="#0f0e0c"/>
<path d="m94.54 139.3h-2.047l-0.03906 1.301c0.1797-0.0625 0.4336-0.08984 0.6367-0.08984 0.9492 0 1.66 0.6016 1.66 1.562 0 1.035-0.7422 1.707-1.73 1.707-0.7734 0-1.316-0.3906-1.586-0.9922l0.6172-0.2461c0.1562 0.3984 0.5273 0.6641 0.9688 0.6641 0.5781 0 1.035-0.4258 1.035-1.062 0-0.75-0.5469-1.086-1.16-1.086-0.375 0-0.793 0.1133-1.102 0.2734l0.07031-2.633h2.676v0.6016" fill="#0f0e0c"/>
<path d="m18.56 32.84h-0.6797v-4.133l-0.9375 0.7852-0.4023-0.4688 1.41-1.141h0.6094v4.957" fill="#0f0e0c"/>
<path d="m21.15 30.36c0 0.8438 0.1836 2.031 1.004 2.031 0.8047 0 0.9922-1.188 0.9922-2.031 0-0.832-0.1875-2.035-0.9922-2.035-0.8203 0-1.004 1.203-1.004 2.035zm2.691 0c0 1.453-0.5117 2.609-1.688 2.609-1.184 0-1.695-1.156-1.695-2.609 0-1.441 0.5117-2.602 1.695-2.602 1.176 0 1.688 1.16 1.688 2.602" fill="#0f0e0c"/>
<path d="m43.78 19.37h0.2188c0.5664 0 1.105-0.1914 1.105-0.8281 0-0.4961-0.4062-0.8203-0.875-0.8203-0.4141 0-0.7227 0.2305-0.8672 0.6094l-0.6172-0.2148c0.2422-0.5977 0.8125-0.9609 1.512-0.9609 0.8281 0 1.527 0.4688 1.527 1.344 0 0.5547-0.3633 0.9961-0.875 1.129v0.01562c0.582 0.1172 1.008 0.5742 1.008 1.211 0 0.9883-0.8125 1.512-1.66 1.512-0.7852 0-1.414-0.3516-1.688-1.094l0.6289-0.207c0.1484 0.4258 0.5273 0.7266 1.043 0.7266 0.5 0 0.9961-0.3164 0.9961-0.9453 0-0.6953-0.6562-0.918-1.246-0.918h-0.2109v-0.5586" fill="#0f0e0c"/>
<path d="m46.82 4.965h-0.6758v-4.133l-0.9414 0.7812-0.3984-0.4688 1.406-1.141h0.6094v4.961" fill="#0f0e0c"/>
<path d="m62.25 4.965h-0.6797v-4.137l-0.9414 0.7852-0.3984-0.4688 1.41-1.141h0.6094v4.961" fill="#0f0e0c"/>
</svg>
