<svg height="15.59" viewBox="0 0 15.85 15.59" width="15.85" xmlns="http://www.w3.org/2000/svg" xmlns:xlink="http://www.w3.org/1999/xlink"><clipPath id="a"><rect height="15.09" rx="1.53" width="15.09" x=".25" y=".25"/></clipPath><rect fill="#003479" height="15.09" rx="1.53" width="15.09" x=".25" y=".25"/><g clip-path="url(#a)" fill="#ffc82e"><path d="m3.08 4.26-1.48.42-.28-.68 4-1.66h.59v9.38c0 .46.62.52 1.47.6v.58h-5.84v-.58c.85-.08 1.54-.14 1.54-.6z"/><path d="m11.26 2.26a4.52 4.52 0 0 1 4.59 4.74c0 3.83-3.06 6.77-6.86 7.47l-.25-.74a5 5 0 0 0 3.86-4.5 4.25 4.25 0 0 1 -2.33.76c-2.27.01-3.33-1.65-3.33-3.63a4.11 4.11 0 0 1 4.32-4.1zm.18 6.48a2.19 2.19 0 0 0 1.16-.38c.14-2-.26-5.13-1.35-5.13-.74 0-1.25.77-1.25 2.77 0 1.69.62 2.74 1.44 2.74z"/></g><rect fill="none" height="15.09" rx="1.53" stroke="#d21146" stroke-width=".5" width="15.09" x=".25" y=".25"/></svg>