<svg xmlns="http://www.w3.org/2000/svg" viewBox="0 0 131.12 16.71">
<title>acp-mksap19-logo-horiz-w</title>
  <defs/>
  <path fill="#fff" d="M46.06 12.71l4.59-12h3.39v15.63h-2.13v-13l-5.17 13h-1.43l-5.15-13v13h-2.15V.74h3.39z"/>
  <path fill="#fff" d="M60.05 7.6h.05L67.05.74h3l-7.57 7.13 8 8.45h-3.13l-7.3-8.06H60v8.08h-2.09V.74h2.18z"/>
  <path fill="#fff" d="M80.12 3.62a3.73 3.73 0 00-3-1.45c-1.41 0-3 .77-3 2.53s1.44 2.16 3.2 2.73c2.09.66 4.57 1.45 4.57 4.55s-2.62 4.73-5.39 4.73a6.57 6.57 0 01-5.13-2.26l1.7-1.43a4.24 4.24 0 003.47 1.82c1.46 0 3.13-.81 3.13-2.66s-1.72-2.4-3.7-3-4-1.52-4-4.38c0-3.11 2.78-4.45 5.35-4.45a6.14 6.14 0 014.47 1.78z"/>
  <path fill="#fff" d="M85.53 16.34h-2.42l6.8-15.6h2l6.62 15.6h-2.46l-1.59-3.83h-7.39zm2.33-5.75h5.83l-2.9-7.3z"/>
  <path fill="#fff" d="M100.53.74h4.75c3.37 0 5.57 1.3 5.57 4.33s-2.44 4.4-5.68 4.4h-2.46v6.87h-2.18zm2.18 6.89h2.31c2.14 0 3.63-.71 3.63-2.56s-1.54-2.48-3.59-2.48h-2.35z"/>
  <path fill="none" stroke="#fff" stroke-miterlimit="10" stroke-width="1.5" d="M32.59 16.32V0"/>
  <path fill="#fff" d="M4.32 6.41h1.53l4.27 9.92h-2l-.92-2.27H2.91l-.9 2.27h-2zm2.24 6.14l-1.53-4-1.55 4z"/>
  <path fill="#fff" d="M17.65 8.74a2.81 2.81 0 00-2.26-1 3.42 3.42 0 00-3.43 3.63 3.33 3.33 0 003.36 3.66 2.89 2.89 0 002.41-1.15l1.42 1a4.67 4.67 0 01-3.84 1.74 5.2102 5.2102 0 11.08-10.42 4.64 4.64 0 013.6 1.51z"/>
  <path fill="#fff" d="M20.16 6.41h3.24c2.27 0 3.74.8 3.74 2.87s-1.75 2.95-3.85 2.95h-1.38v4.11h-1.77zm3 4.33c1.15 0 2.2-.28 2.2-1.46s-1-1.38-2.14-1.38h-1.31v2.84z"/>
  <path fill="#fff" d="M112.68 1.68a1 1 0 01-1 1 1 1 0 110-2 1 1 0 011 1zm-1.77 0a.77.77 0 00.77.79.79.79 0 000-1.57.77.77 0 00-.77.78zm.61.52h-.23v-1a1.76 1.76 0 01.38 0 .59.59 0 01.34.08.25.25 0 01.1.21c0 .11-.09.19-.21.23a.29.29 0 01.18.24.63.63 0 00.08.25h-.25a.93.93 0 01-.08-.24.18.18 0 00-.2-.16h-.11zm0-.56h.1c.13 0 .23 0 .23-.14s-.06-.15-.21-.15h-.12z"/>
  <path fill="none" d="M117.52 1.01h11.62a1.43 1.43 0 011.11.38 1.35 1.35 0 01.37 1.1v11.62a1.32 1.32 0 01-1.48 1.47h-11.62a1.35 1.35 0 01-1.11-.38 1.37 1.37 0 01-.37-1.09V2.49a1.35 1.35 0 01.39-1.1 1.42 1.42 0 011.09-.38z"/>
  <path fill="#fff" d="M129.33.51h-12a1.8 1.8 0 00-1.79 1.78v12a1.79 1.79 0 001.79 1.78h12a1.78 1.78 0 001.76-1.82V2.34a1.79 1.79 0 00-1.76-1.83zm1.29 13.83a1.27 1.27 0 01-1.29 1.27h-12a1.28 1.28 0 01-1.28-1.28V2.34a1.29 1.29 0 011.29-1.27h12a1.28 1.28 0 011.28 1.28z"/>
  <path fill="#fff" d="M118.6 4.92l-1.47.42-.29-.64 4-1.67h.59v9.38c0 .48.63.53 1.48.61v.58h-5.81v-.58c.84-.08 1.53-.13 1.53-.61z"/>
  <path fill="#fff" d="M127.32 12.34a4.46 4.46 0 01-1.14 1.23 5.7 5.7 0 01-1.91.91l.06.18.06.19.07.18.06.2a9.38 9.38 0 003.62-1.5 8.17 8.17 0 001.42-1.27 7.46 7.46 0 001.06-1.55v-6l-.09-.12-.14-.19-.07-.08-.07-.08a5.11 5.11 0 00-.55-.48 3.6 3.6 0 00-.62-.39 5 5 0 00-1-.38 6.33 6.33 0 00-1.15-.13 5.36 5.36 0 00-1.59.27 4.63 4.63 0 00-1.38.79 3.81 3.81 0 00-1 1.29 4.15 4.15 0 00-.37 1.76 4.76 4.76 0 00.2 1.41 3.31 3.31 0 00.61 1.16 2.75 2.75 0 001 .79 3.43 3.43 0 001.48.29 1.55 1.55 0 00.43 0 3.84 3.84 0 00.59-.11 4.12 4.12 0 00.67-.24 2.45 2.45 0 00.63-.36 6.56 6.56 0 01-.22 1.07 4.71 4.71 0 01-.66 1.16zm.27-3a1.67 1.67 0 01-.62.12 1.21 1.21 0 01-1-.73 4.17 4.17 0 01-.42-2 5.26 5.26 0 01.35-2.18 1 1 0 01.91-.63c.55 0 .92.78 1.14 1.82a12.7 12.7 0 01.21 3.31 1.81 1.81 0 01-.57.29z"/>
</svg>
