<?xml version="1.0" encoding="UTF-8" standalone="no"?>
<svg width="20px" height="19px" viewBox="0 0 20 19" version="1.1" xmlns="http://www.w3.org/2000/svg" xmlns:xlink="http://www.w3.org/1999/xlink" xmlns:sketch="http://www.bohemiancoding.com/sketch/ns">
    <!-- Generator: Sketch 3.3.3 (12072) - http://www.bohemiancoding.com/sketch -->
    <title>acp-icon-w</title>
    <desc>Created with Sketch.</desc>
    <defs></defs>
    <g id="Page-1" stroke="none" stroke-width="1" fill="none" fill-rule="evenodd" sketch:type="MSPage">
        <path d="M13.764,6.09782799 C13.932,6.43382799 13.932,6.60182799 13.932,6.85382799 C13.932,7.10582799 13.68,7.44182799 13.344,7.44182799 L13.344,7.44182799 L13.344,7.44182799 L13.344,7.44182799 C13.008,7.44182799 12.84,7.10582799 12.756,6.85382799 C12.756,6.60182799 12.756,6.43382799 12.924,6.09782799 C13.092,5.76182799 13.344,5.42582799 13.344,5.42582799 L13.344,5.42582799 C13.344,5.42582799 13.596,5.67782799 13.764,6.09782799 L13.764,6.09782799 Z M19.056,2.31782799 L19.056,2.31782799 L19.056,16.597828 C19.056,17.857828 18.048,18.865828 16.788,18.865828 L2.508,18.865828 C1.248,18.949828 0.24,17.941828 0.24,16.681828 L0.24,2.40182799 C0.24,1.14182799 1.248,0.133827993 2.508,0.133827993 L16.788,0.133827993 C18.048,0.0498279928 19.056,1.14182799 19.056,2.31782799 L19.056,2.31782799 Z M18.552,2.31782799 C18.552,1.30982799 17.796,0.553827993 16.788,0.553827993 L9.06,0.553827993 L8.976,0.637827993 C8.808,0.721827993 8.724,0.889827993 8.64,0.973827993 C7.128,2.48582799 6.456,4.50182799 6.624,6.51782799 L6.624,6.68582799 C6.792,7.86182799 7.212,8.95382799 7.968,9.87782799 C9.732,9.87782799 10.992,9.79382799 11.16,9.70982799 C11.496,9.54182799 11.832,9.37382799 12.084,9.12182799 C10.74,8.61782799 9.816,7.27382799 9.816,5.84582799 C9.816,3.91382799 11.412,2.31782799 13.344,2.31782799 C15.276,2.31782799 16.872,3.91382799 16.872,5.84582799 C16.872,7.69382799 15.36,9.28982799 13.512,9.37382799 C13.26,9.79382799 12.924,10.297828 12.588,10.717828 C12.168,11.221828 11.664,11.641828 10.908,11.977828 C11.412,12.145828 11.916,12.229828 12.42,12.313828 L13.176,12.313828 C14.94,12.313828 16.704,11.641828 17.964,10.297828 C18.132,10.129828 18.3,9.87782799 18.468,9.70982799 L18.552,9.54182799 L18.552,2.31782799 L18.552,2.31782799 Z M18.552,16.681828 L18.552,10.465828 C18.468,10.549828 18.384,10.633828 18.3,10.717828 C16.956,12.061828 15.108,12.901828 13.176,12.901828 L13.176,12.901828 C12.252,12.901828 11.412,12.733828 10.488,12.397828 L10.236,12.229828 C9.312,12.565828 7.8,13.069828 5.784,13.657828 C4.608,14.077828 4.356,14.077828 3.852,14.329828 C3.432,14.497828 3.348,14.581828 3.012,14.917828 C2.424,15.505828 2.424,17.101828 3.18,17.773828 C3.432,18.025828 4.02,18.277828 4.524,18.445828 L16.704,18.445828 C17.796,18.445828 18.552,17.605828 18.552,16.681828 L18.552,16.681828 Z M0.744,9.87782799 L7.38,9.87782799 C5.364,7.10582799 5.784,3.15782799 8.22,0.637827993 L8.304,0.553827993 L2.508,0.553827993 C1.5,0.553827993 0.744,1.30982799 0.744,2.31782799 L0.744,6.51782799 C0.912,6.51782799 1.08,6.43382799 1.248,6.43382799 C1.08,6.26582799 1.08,6.09782799 1.08,5.92982799 C1.08,5.50982799 1.416,5.17382799 1.92,5.17382799 C2.424,5.17382799 2.76,5.50982799 2.76,5.92982799 C2.76,6.09782799 2.676,6.26582799 2.592,6.43382799 C3.096,6.51782799 4.02,6.93782799 4.44,7.52582799 C4.944,8.28182799 5.448,7.69382799 5.7,8.19782799 C5.784,8.36582799 5.868,8.44982799 6.036,8.78582799 C6.12,8.95382799 5.952,9.20582799 5.784,9.20582799 L2.004,9.20582799 L2.004,9.20582799 L0.912,9.20582799 L0.912,9.87782799 L0.744,9.87782799 Z M13.848,8.86982799 C15.276,8.61782799 16.368,7.35782799 16.368,5.84582799 C16.368,4.16582799 15.024,2.82182799 13.344,2.82182799 C11.664,2.82182799 10.32,4.16582799 10.32,5.84582799 C10.32,7.10582799 11.16,8.28182799 12.336,8.70182799 L12.42,8.70182799 C12.504,8.61782799 12.504,8.53382799 12.504,8.44982799 C12.588,8.36582799 12.588,8.36582799 12.588,8.28182799 C11.496,7.94582799 10.656,6.93782799 10.656,5.76182799 C10.656,4.33382799 11.832,3.15782799 13.26,3.15782799 C14.688,3.15782799 15.864,4.33382799 15.864,5.76182799 C15.864,6.93782799 15.024,8.02982799 13.848,8.28182799 C13.848,8.36582799 13.848,8.36582799 13.764,8.44982799 C13.932,8.70182799 13.848,8.78582799 13.848,8.86982799 L13.848,8.86982799 Z M14.352,6.60182799 C14.352,6.18182799 14.352,5.84582799 14.1,5.34182799 C13.764,4.75382799 13.344,4.16582799 13.344,4.16582799 L13.344,4.16582799 C13.344,4.16582799 12.924,4.66982799 12.588,5.34182799 C12.336,5.84582799 12.252,6.26582799 12.336,6.60182799 C12.336,7.02182799 12.756,7.60982799 13.344,7.60982799 L13.428,7.60982799 L13.428,7.60982799 L13.428,7.60982799 L13.428,7.60982799 L13.512,7.60982799 C13.932,7.60982799 14.352,7.02182799 14.352,6.60182799 L14.352,6.60182799 Z" id="Shape" fill="#FFFFFF" sketch:type="MSShapeGroup"></path>
    </g>
</svg>