<?xml version="1.0" encoding="utf-8"?>
<!-- Generator: Adobe Illustrator 16.0.4, SVG Export Plug-In . SVG Version: 6.00 Build 0)  -->
<!DOCTYPE svg PUBLIC "-//W3C//DTD SVG 1.1//EN" "http://www.w3.org/Graphics/SVG/1.1/DTD/svg11.dtd">
<svg version="1.1" id="Layer_1" xmlns="http://www.w3.org/2000/svg" xmlns:xlink="http://www.w3.org/1999/xlink" x="0px" y="0px"
	 width="213.4px" height="24.8px" viewBox="0 0 213.4 24.8" enable-background="new 0 0 213.4 24.8" xml:space="preserve">
<g>
	<path fill="#FFFFFF" d="M16.1,7.7c0.2,0.4,0.2,0.6,0.2,0.9c0,0.3-0.3,0.7-0.7,0.7c0,0,0,0,0,0c0,0,0,0,0,0l0,0l0,0h0l0,0l0,0
		c0,0,0,0,0,0c0,0,0,0,0,0c-0.4,0-0.6-0.4-0.7-0.7c0-0.3,0-0.5,0.2-0.9c0.2-0.4,0.5-0.8,0.5-0.8l0,0l0,0C15.6,6.9,15.9,7.2,16.1,7.7
		z M22.4,3.2L22.4,3.2v17c0,1.5-1.2,2.7-2.7,2.7h-17C1.2,23,0,21.8,0,20.3v-17l0,0c0-1.5,1.2-2.7,2.7-2.7h17
		C21.2,0.5,22.4,1.8,22.4,3.2z M21.8,3.2c0-1.2-0.9-2.1-2.1-2.1h-9.2l-0.1,0.1c-0.2,0.1-0.3,0.3-0.4,0.4C8.2,3.4,7.4,5.8,7.6,8.2
		l0,0.2c0.2,1.4,0.7,2.7,1.6,3.8c2.1,0,3.6-0.1,3.8-0.2c0.4-0.2,0.8-0.4,1.1-0.7c-1.6-0.6-2.7-2.2-2.7-3.9c0-2.3,1.9-4.2,4.2-4.2
		c2.3,0,4.2,1.9,4.2,4.2c0,2.2-1.8,4.1-4,4.2c-0.3,0.5-0.7,1.1-1.1,1.6c-0.5,0.6-1.1,1.1-2,1.5c0.6,0.2,1.2,0.3,1.8,0.4
		c0.3,0,0.6,0,0.9,0c2.1,0,4.2-0.8,5.7-2.4c0.2-0.2,0.4-0.5,0.6-0.7l0.1-0.2V3.2z M21.8,20.3v-7.4c-0.1,0.1-0.2,0.2-0.3,0.3
		c-1.6,1.6-3.8,2.6-6.1,2.6h0c-1.1,0-2.1-0.2-3.2-0.6L11.9,15C10.8,15.4,9,16,6.6,16.7c-1.4,0.5-1.7,0.5-2.3,0.8
		c-0.5,0.2-0.6,0.3-1,0.7c-0.7,0.7-0.7,2.6,0.2,3.4c0.3,0.3,1,0.6,1.6,0.8h14.5C20.9,22.4,21.8,21.4,21.8,20.3z M0.6,12.2
		c2.8,0,5.6,0,7.9,0c-2.4-3.3-1.9-8,1-11c0,0,0.1-0.1,0.1-0.1H2.7c-1.2,0-2.1,0.9-2.1,2.1v5C0.8,8.2,1,8.1,1.2,8.1
		C1,7.9,1,7.7,1,7.5c0-0.5,0.4-0.9,1-0.9s1,0.4,1,0.9c0,0.2-0.1,0.4-0.2,0.6c0.6,0.1,1.7,0.6,2.2,1.3c0.6,0.9,1.2,0.2,1.5,0.8
		c0.1,0.2,0.2,0.3,0.4,0.7c0.1,0.2-0.1,0.5-0.3,0.5c-0.2,0-4.5,0-4.5,0h0c0,0-0.6,0-1.3,0V12.2z M16.2,11c1.7-0.3,3-1.8,3-3.6
		c0-2-1.6-3.6-3.6-3.6c-2,0-3.6,1.6-3.6,3.6c0,1.5,1,2.9,2.4,3.4l0.1,0c0.1-0.1,0.1-0.2,0.1-0.3c0.1-0.1,0.1-0.1,0.1-0.2
		c-1.3-0.4-2.3-1.6-2.3-3c0-1.7,1.4-3.1,3.1-3.1c1.7,0,3.1,1.4,3.1,3.1c0,1.4-1,2.7-2.4,3c0,0.1,0,0.1-0.1,0.2
		C16.3,10.8,16.2,10.9,16.2,11z M16.8,8.3c0-0.5,0-0.9-0.3-1.5c-0.4-0.7-0.9-1.4-0.9-1.4l0,0l0,0c0,0-0.5,0.6-0.9,1.4
		c-0.3,0.6-0.4,1.1-0.3,1.5c0,0.5,0.5,1.2,1.2,1.2c0,0,0,0,0.1,0c0,0,0,0,0,0l0,0l0,0c0,0,0,0,0,0c0,0,0,0,0.1,0
		C16.3,9.5,16.8,8.8,16.8,8.3z"/>
	<path fill="#FFFFFF" d="M86.6,7.2h1l2.8,6.5H89l-0.6-1.5h-2.8L85,13.7h-1.3L86.6,7.2z M88,11.3l-1-2.6l-1,2.6H88z"/>
	<path fill="#FFFFFF" d="M90.8,9.3h1V10h0c0.2-0.4,0.6-0.8,1.4-0.8c0.7,0,1.2,0.3,1.4,0.8c0.3-0.6,0.8-0.8,1.5-0.8
		c1.2,0,1.6,0.8,1.6,1.9v2.6h-1.1v-2.5c0-0.6-0.2-1-0.8-1c-0.7,0-0.9,0.6-0.9,1.1v2.4h-1.1v-2.6c0-0.5-0.2-0.9-0.8-0.9
		c-0.7,0-1,0.5-1,1.1v2.4h-1.1V9.3z"/>
	<path fill="#FFFFFF" d="M99.3,11.9c0.1,0.7,0.6,1,1.2,1c0.6,0,0.9-0.3,1.2-0.6l0.8,0.6c-0.5,0.6-1.2,0.9-1.9,0.9
		c-1.3,0-2.4-0.9-2.4-2.3c0-1.4,1.1-2.3,2.4-2.3c1.2,0,2.1,0.9,2.1,2.4v0.3H99.3z M101.6,11.1c0-0.6-0.4-1-1.1-1
		c-0.7,0-1.1,0.4-1.1,1H101.6z"/>
	<path fill="#FFFFFF" d="M103.3,9.3h1.1V10h0c0.2-0.5,0.7-0.8,1.3-0.8c0.1,0,0.3,0,0.4,0.1v1.1c-0.2,0-0.4-0.1-0.5-0.1
		c-1,0-1.2,0.9-1.2,1.1v2.4h-1.1V9.3z"/>
	<path fill="#FFFFFF" d="M107.3,7.2c0.4,0,0.7,0.3,0.7,0.7c0,0.4-0.3,0.7-0.7,0.7s-0.7-0.3-0.7-0.7C106.6,7.5,106.9,7.2,107.3,7.2z
		 M106.8,9.3h1.1v4.4h-1.1V9.3z"/>
	<path fill="#FFFFFF" d="M111.8,10.6c-0.3-0.3-0.5-0.4-0.8-0.4c-0.8,0-1.3,0.6-1.3,1.3c0,0.7,0.5,1.3,1.3,1.3c0.3,0,0.7-0.1,0.9-0.4
		l0.7,0.8c-0.5,0.5-1.2,0.6-1.6,0.6c-1.3,0-2.4-0.9-2.4-2.3c0-1.4,1.1-2.3,2.4-2.3c0.6,0,1.2,0.2,1.6,0.7L111.8,10.6z"/>
	<path fill="#FFFFFF" d="M115.8,13.1L115.8,13.1c-0.3,0.5-0.9,0.7-1.4,0.7c-0.8,0-1.6-0.5-1.6-1.3c0-1.4,1.7-1.5,2.8-1.5h0.3v-0.1
		c0-0.5-0.4-0.8-1-0.8c-0.5,0-0.9,0.2-1.2,0.5L113,9.9c0.5-0.5,1.2-0.7,1.9-0.7c1.9,0,1.9,1.4,1.9,2v2.5h-1V13.1z M115.7,11.8h-0.2
		c-0.6,0-1.7,0-1.7,0.7c0,0.4,0.4,0.6,0.8,0.6c0.8,0,1.1-0.4,1.1-1V11.8z"/>
	<path fill="#FFFFFF" d="M117.8,9.3h1V10h0c0.2-0.4,0.6-0.8,1.4-0.8c1.2,0,1.6,0.8,1.6,1.7v2.8h-1.1v-2.2c0-0.5,0-1.3-0.8-1.3
		c-0.7,0-1,0.5-1,1.1v2.4h-1.1V9.3z"/>
	<path fill="#FFFFFF" d="M129.2,8.7c-0.5-0.5-0.9-0.6-1.4-0.6c-1.3,0-2.2,1-2.2,2.3c0,1.4,0.9,2.4,2.2,2.4c0.5,0,1-0.2,1.5-0.8
		l1,0.7c-0.6,0.8-1.5,1.2-2.4,1.2c-2,0-3.4-1.4-3.4-3.4c0-2.1,1.4-3.5,3.4-3.5c0.9,0,1.6,0.3,2.3,1L129.2,8.7z"/>
	<path fill="#FFFFFF" d="M133,9.2c1.3,0,2.4,0.9,2.4,2.3c0,1.4-1.1,2.3-2.4,2.3c-1.3,0-2.4-0.9-2.4-2.3
		C130.6,10.1,131.6,9.2,133,9.2z M133,12.9c0.8,0,1.3-0.6,1.3-1.3c0-0.7-0.5-1.3-1.3-1.3c-0.8,0-1.3,0.6-1.3,1.3
		C131.7,12.2,132.1,12.9,133,12.9z"/>
	<path fill="#FFFFFF" d="M136,6.8h1.1v7H136V6.8z"/>
	<path fill="#FFFFFF" d="M138.2,6.8h1.1v7h-1.1V6.8z"/>
	<path fill="#FFFFFF" d="M141.3,11.9c0.1,0.7,0.6,1,1.2,1c0.6,0,0.9-0.3,1.2-0.6l0.8,0.6c-0.5,0.6-1.2,0.9-1.9,0.9
		c-1.3,0-2.4-0.9-2.4-2.3c0-1.4,1.1-2.3,2.4-2.3c1.2,0,2.1,0.9,2.1,2.4v0.3H141.3z M143.6,11.1c0-0.6-0.4-1-1.1-1
		c-0.7,0-1.1,0.4-1.1,1H143.6z"/>
	<path fill="#FFFFFF" d="M149.9,9.3v4c0,1.6-0.8,2.6-2.5,2.6c-0.8,0-1.6-0.2-2.2-0.7l0.7-0.9c0.4,0.4,0.9,0.6,1.5,0.6
		c1.1,0,1.4-0.6,1.4-1.5v-0.3h0c-0.3,0.4-0.9,0.6-1.4,0.6c-1.3,0-2.2-1-2.2-2.3c0-1.3,0.8-2.3,2.2-2.3c0.6,0,1.2,0.2,1.5,0.8h0V9.3
		H149.9z M146.2,11.5c0,0.7,0.6,1.3,1.3,1.3c0.8,0,1.3-0.6,1.3-1.3c0-0.8-0.5-1.3-1.3-1.3C146.8,10.2,146.2,10.7,146.2,11.5z"/>
	<path fill="#FFFFFF" d="M151.6,11.9c0.1,0.7,0.6,1,1.2,1c0.6,0,0.9-0.3,1.2-0.6l0.8,0.6c-0.5,0.6-1.2,0.9-1.9,0.9
		c-1.3,0-2.4-0.9-2.4-2.3c0-1.4,1.1-2.3,2.4-2.3c1.2,0,2.1,0.9,2.1,2.4v0.3H151.6z M153.9,11.1c0-0.6-0.4-1-1.1-1
		c-0.7,0-1.1,0.4-1.1,1H153.9z"/>
	<path fill="#FFFFFF" d="M160.2,9.2c1.3,0,2.4,0.9,2.4,2.3c0,1.4-1.1,2.3-2.4,2.3c-1.3,0-2.4-0.9-2.4-2.3
		C157.8,10.1,158.9,9.2,160.2,9.2z M160.2,12.9c0.8,0,1.3-0.6,1.3-1.3c0-0.7-0.5-1.3-1.3-1.3c-0.8,0-1.3,0.6-1.3,1.3
		C158.9,12.2,159.4,12.9,160.2,12.9z"/>
	<path fill="#FFFFFF" d="M163.5,10.3h-0.9V9.3h0.9V8.7c0-1.2,0.3-2,1.6-2c0.2,0,0.5,0,0.7,0.1l-0.1,0.9c-0.2,0-0.3-0.1-0.5-0.1
		c-0.6,0-0.7,0.4-0.7,0.9v0.8h1v0.9h-1v3.5h-1.1V10.3z"/>
	<path fill="#FFFFFF" d="M168.8,7.2h2.2c1.3,0,2.4,0.4,2.4,1.9c0,1.6-1.2,1.9-2.6,1.9h-0.8v2.7h-1.2V7.2z M170.6,10
		c0.7,0,1.5,0,1.5-0.9c0-0.8-0.8-0.9-1.4-0.9h-0.8V10H170.6z"/>
	<path fill="#FFFFFF" d="M175,9.9L175,9.9c0.2-0.4,0.6-0.7,1.3-0.7c1.2,0,1.6,0.8,1.6,1.7v2.8h-1.1v-2.2c0-0.5,0-1.3-0.8-1.3
		c-0.7,0-1,0.5-1,1.1v2.4h-1.1v-7h1.1V9.9z"/>
	<path fill="#FFFFFF" d="M178.2,9.3h1.2l1.2,3.1h0l1.1-3.1h1.1l-2.1,5.4c-0.3,0.8-0.7,1.3-1.7,1.3c-0.3,0-0.6,0-0.8-0.1l0.1-1
		c0.2,0.1,0.4,0.1,0.6,0.1c0.5,0,0.7-0.2,0.9-0.7l0.2-0.5L178.2,9.3z"/>
	<path fill="#FFFFFF" d="M185.6,10.5c-0.2-0.3-0.5-0.5-0.9-0.5c-0.3,0-0.6,0.1-0.6,0.5c0,0.8,2.4,0.1,2.4,1.9c0,1-1,1.4-1.9,1.4
		c-0.7,0-1.3-0.2-1.7-0.7l0.7-0.7c0.3,0.3,0.6,0.5,1,0.5c0.3,0,0.7-0.2,0.7-0.5c0-0.9-2.4-0.2-2.4-1.9c0-1,0.9-1.4,1.8-1.4
		c0.6,0,1.2,0.2,1.6,0.7L185.6,10.5z"/>
	<path fill="#FFFFFF" d="M187.7,7.2c0.4,0,0.7,0.3,0.7,0.7c0,0.4-0.3,0.7-0.7,0.7S187,8.2,187,7.8C187,7.5,187.3,7.2,187.7,7.2z
		 M187.1,9.3h1.1v4.4h-1.1V9.3z"/>
	<path fill="#FFFFFF" d="M192.2,10.6c-0.3-0.3-0.5-0.4-0.8-0.4c-0.8,0-1.3,0.6-1.3,1.3c0,0.7,0.5,1.3,1.3,1.3c0.3,0,0.7-0.1,0.9-0.4
		l0.7,0.8c-0.5,0.5-1.2,0.6-1.6,0.6c-1.3,0-2.4-0.9-2.4-2.3c0-1.4,1.1-2.3,2.4-2.3c0.6,0,1.2,0.2,1.6,0.7L192.2,10.6z"/>
	<path fill="#FFFFFF" d="M193.8,7.2c0.4,0,0.7,0.3,0.7,0.7c0,0.4-0.3,0.7-0.7,0.7s-0.7-0.3-0.7-0.7C193.1,7.5,193.4,7.2,193.8,7.2z
		 M193.2,9.3h1.1v4.4h-1.1V9.3z"/>
	<path fill="#FFFFFF" d="M198,13.1L198,13.1c-0.3,0.5-0.9,0.7-1.4,0.7c-0.8,0-1.6-0.5-1.6-1.3c0-1.4,1.7-1.5,2.8-1.5h0.3v-0.1
		c0-0.5-0.4-0.8-1-0.8c-0.5,0-0.9,0.2-1.2,0.5l-0.6-0.6c0.5-0.5,1.2-0.7,1.9-0.7c1.9,0,1.9,1.4,1.9,2v2.5h-1V13.1z M197.9,11.8h-0.2
		c-0.6,0-1.7,0-1.7,0.7c0,0.4,0.4,0.6,0.8,0.6c0.8,0,1.1-0.4,1.1-1V11.8z"/>
	<path fill="#FFFFFF" d="M200,9.3h1V10h0c0.2-0.4,0.6-0.8,1.4-0.8c1.2,0,1.6,0.8,1.6,1.7v2.8h-1.1v-2.2c0-0.5,0-1.3-0.8-1.3
		c-0.7,0-1,0.5-1,1.1v2.4H200V9.3z"/>
	<path fill="#FFFFFF" d="M207.3,10.5c-0.2-0.3-0.5-0.5-0.9-0.5c-0.3,0-0.6,0.1-0.6,0.5c0,0.8,2.4,0.1,2.4,1.9c0,1-1,1.4-1.9,1.4
		c-0.7,0-1.3-0.2-1.7-0.7l0.7-0.7c0.3,0.3,0.6,0.5,1,0.5c0.3,0,0.7-0.2,0.7-0.5c0-0.9-2.4-0.2-2.4-1.9c0-1,0.9-1.4,1.8-1.4
		c0.6,0,1.2,0.2,1.6,0.7L207.3,10.5z"/>
	<path fill="#FFFFFF" d="M84,18.2h0.6v4.2h2.2v0.6H84V18.2z"/>
	<path fill="#FFFFFF" d="M87.7,21.5c0,0.6,0.5,0.9,1.1,0.9c0.4,0,0.6-0.2,0.9-0.5l0.5,0.4c-0.3,0.4-0.8,0.7-1.4,0.7
		c-1,0-1.6-0.7-1.6-1.7c0-1,0.7-1.7,1.6-1.7c1.1,0,1.6,0.9,1.6,1.7v0.2H87.7z M89.6,21.1c0-0.5-0.3-0.9-0.9-0.9c-0.6,0-1,0.5-1,0.9
		H89.6z"/>
	<path fill="#FFFFFF" d="M90.9,20.1c0.3-0.3,0.8-0.5,1.3-0.5c0.9,0,1.3,0.5,1.3,1.1v1.6c0,0.2,0,0.4,0,0.6H93c0-0.2,0-0.3,0-0.5h0
		c-0.3,0.4-0.6,0.6-1.1,0.6c-0.6,0-1.1-0.3-1.1-1c0-0.8,0.8-1.1,1.8-1.1H93v-0.1c0-0.3-0.2-0.7-0.8-0.7c-0.5,0-0.7,0.2-0.9,0.4
		L90.9,20.1z M92.7,21.4c-0.6,0-1.3,0.1-1.3,0.6c0,0.4,0.3,0.5,0.7,0.5c0.7,0,0.9-0.5,0.9-0.9v-0.2H92.7z"/>
	<path fill="#FFFFFF" d="M97.6,22.9H97v-0.5h0c-0.2,0.3-0.7,0.5-1.1,0.5c-1,0-1.6-0.7-1.6-1.7c0-1,0.6-1.7,1.6-1.7
		c0.5,0,0.9,0.2,1.1,0.5h0v-2.4h0.6V22.9z M97,21.3c0-0.6-0.4-1.1-1-1.1s-1,0.5-1,1.1s0.4,1.1,1,1.1S97,22,97,21.3z"/>
	<path fill="#FFFFFF" d="M98.8,18.1c0.2,0,0.4,0.2,0.4,0.4S99,19,98.8,19s-0.4-0.2-0.4-0.4S98.5,18.1,98.8,18.1z M98.5,19.7h0.6v3.2
		h-0.6V19.7z"/>
	<path fill="#FFFFFF" d="M100,19.7h0.6v0.5h0c0.2-0.3,0.6-0.6,1-0.6c0.6,0,1.2,0.4,1.2,1.2v2.1h-0.6V21c0-0.6-0.3-0.8-0.7-0.8
		c-0.5,0-0.9,0.3-0.9,1.1v1.6H100V19.7z"/>
	<path fill="#FFFFFF" d="M106.7,22.9c0,1-0.7,1.6-1.7,1.6c-0.6,0-1.1-0.2-1.6-0.6l0.4-0.5c0.3,0.3,0.7,0.5,1.1,0.5
		c0.9,0,1.2-0.6,1.2-1.1v-0.5h0c-0.2,0.4-0.7,0.6-1.1,0.6c-0.9,0-1.6-0.7-1.6-1.6c0-0.9,0.6-1.7,1.6-1.7c0.4,0,0.9,0.2,1.1,0.5h0
		v-0.5h0.6V22.9z M104,21.3c0,0.6,0.4,1.1,1,1.1s1-0.4,1-1.1s-0.4-1.1-1-1.1S104,20.7,104,21.3z"/>
	<path fill="#FFFFFF" d="M109.4,18.2h0.6v4.8h-0.6V18.2z"/>
	<path fill="#FFFFFF" d="M111.1,19.7h0.6v0.5h0c0.2-0.3,0.6-0.6,1-0.6c0.6,0,1.2,0.4,1.2,1.2v2.1h-0.6V21c0-0.6-0.3-0.8-0.7-0.8
		c-0.5,0-0.9,0.3-0.9,1.1v1.6h-0.6V19.7z"/>
	<path fill="#FFFFFF" d="M116.4,20.3h-0.9v1.4c0,0.4,0,0.7,0.5,0.7c0.1,0,0.3,0,0.4-0.1v0.6c-0.1,0.1-0.4,0.1-0.5,0.1
		c-0.9,0-0.9-0.6-0.9-1.1v-1.7h-0.7v-0.5h0.7v-0.9h0.6v0.9h0.9V20.3z"/>
	<path fill="#FFFFFF" d="M117.5,21.5c0,0.6,0.5,0.9,1.1,0.9c0.4,0,0.6-0.2,0.9-0.5l0.5,0.4c-0.3,0.4-0.8,0.7-1.4,0.7
		c-1,0-1.6-0.7-1.6-1.7c0-1,0.7-1.7,1.6-1.7c1.1,0,1.6,0.9,1.6,1.7v0.2H117.5z M119.4,21.1c0-0.5-0.3-0.9-0.9-0.9
		c-0.6,0-1,0.5-1,0.9H119.4z"/>
	<path fill="#FFFFFF" d="M120.6,19.7h0.6v0.5h0c0.2-0.3,0.6-0.6,1-0.6c0.1,0,0.2,0,0.3,0l0,0.7c-0.1,0-0.2,0-0.3,0
		c-0.6,0-0.9,0.3-0.9,1v1.6h-0.6V19.7z"/>
	<path fill="#FFFFFF" d="M123,19.7h0.6v0.5h0c0.2-0.3,0.6-0.6,1-0.6c0.6,0,1.2,0.4,1.2,1.2v2.1h-0.6V21c0-0.6-0.3-0.8-0.7-0.8
		c-0.5,0-0.9,0.3-0.9,1.1v1.6H123V19.7z"/>
	<path fill="#FFFFFF" d="M126.6,20.1c0.3-0.3,0.8-0.5,1.3-0.5c0.9,0,1.3,0.5,1.3,1.1v1.6c0,0.2,0,0.4,0,0.6h-0.5c0-0.2,0-0.3,0-0.5
		h0c-0.3,0.4-0.6,0.6-1.1,0.6c-0.6,0-1.1-0.3-1.1-1c0-0.8,0.8-1.1,1.8-1.1h0.4v-0.1c0-0.3-0.2-0.7-0.8-0.7c-0.5,0-0.7,0.2-0.9,0.4
		L126.6,20.1z M128.3,21.4c-0.6,0-1.3,0.1-1.3,0.6c0,0.4,0.3,0.5,0.7,0.5c0.7,0,0.9-0.5,0.9-0.9v-0.2H128.3z"/>
	<path fill="#FFFFFF" d="M130.1,17.8h0.6v5.1h-0.6V17.8z"/>
	<path fill="#FFFFFF" d="M133.2,18.2h1l1.5,3.6h0l1.5-3.6h1v4.8h-0.6V19h0l-1.6,3.9h-0.4l-1.6-3.9h0v3.9h-0.6V18.2z"/>
	<path fill="#FFFFFF" d="M139.5,21.5c0,0.6,0.5,0.9,1.1,0.9c0.4,0,0.6-0.2,0.9-0.5l0.5,0.4c-0.3,0.4-0.8,0.7-1.4,0.7
		c-1,0-1.6-0.7-1.6-1.7c0-1,0.7-1.7,1.6-1.7c1.1,0,1.6,0.9,1.6,1.7v0.2H139.5z M141.4,21.1c0-0.5-0.3-0.9-0.9-0.9
		c-0.6,0-1,0.5-1,0.9H141.4z"/>
	<path fill="#FFFFFF" d="M145.8,22.9h-0.6v-0.5h0c-0.2,0.3-0.7,0.5-1.1,0.5c-1,0-1.6-0.7-1.6-1.7c0-1,0.6-1.7,1.6-1.7
		c0.5,0,0.9,0.2,1.1,0.5h0v-2.4h0.6V22.9z M145.2,21.3c0-0.6-0.4-1.1-1-1.1s-1,0.5-1,1.1s0.4,1.1,1,1.1S145.2,22,145.2,21.3z"/>
	<path fill="#FFFFFF" d="M147,18.1c0.2,0,0.4,0.2,0.4,0.4S147.2,19,147,19s-0.4-0.2-0.4-0.4S146.8,18.1,147,18.1z M146.7,19.7h0.6
		v3.2h-0.6V19.7z"/>
	<path fill="#FFFFFF" d="M150.5,20.6c-0.2-0.2-0.5-0.4-0.8-0.4c-0.7,0-1,0.5-1,1.1s0.4,1.1,1,1.1c0.3,0,0.6-0.1,0.8-0.4l0.4,0.4
		c-0.3,0.4-0.7,0.5-1.2,0.5c-1,0-1.7-0.7-1.7-1.7s0.7-1.7,1.7-1.7c0.5,0,0.9,0.2,1.2,0.5L150.5,20.6z"/>
	<path fill="#FFFFFF" d="M151.7,18.1c0.2,0,0.4,0.2,0.4,0.4S152,19,151.7,19s-0.4-0.2-0.4-0.4S151.5,18.1,151.7,18.1z M151.4,19.7
		h0.6v3.2h-0.6V19.7z"/>
	<path fill="#FFFFFF" d="M153,19.7h0.6v0.5h0c0.2-0.3,0.6-0.6,1-0.6c0.6,0,1.2,0.4,1.2,1.2v2.1h-0.6V21c0-0.6-0.3-0.8-0.7-0.8
		c-0.5,0-0.9,0.3-0.9,1.1v1.6H153V19.7z"/>
	<path fill="#FFFFFF" d="M157.1,21.5c0,0.6,0.5,0.9,1.1,0.9c0.4,0,0.6-0.2,0.9-0.5l0.5,0.4c-0.3,0.4-0.8,0.7-1.4,0.7
		c-1,0-1.6-0.7-1.6-1.7c0-1,0.7-1.7,1.6-1.7c1.1,0,1.6,0.9,1.6,1.7v0.2H157.1z M159,21.1c0-0.5-0.3-0.9-0.9-0.9c-0.6,0-1,0.5-1,0.9
		H159z"/>
	<path fill="#FFFFFF" d="M160.3,23.8h-0.6l0.5-1.7h0.7L160.3,23.8z"/>
	<path fill="#FFFFFF" d="M162.6,18.2h0.6v4.8h-0.6V18.2z"/>
	<path fill="#FFFFFF" d="M164.3,19.7h0.6v0.5h0c0.1-0.2,0.5-0.6,1-0.6c0.5,0,0.8,0.2,1,0.6c0.2-0.4,0.6-0.6,1-0.6
		c1,0,1.2,0.7,1.2,1.4v1.9h-0.6v-1.8c0-0.5-0.1-0.9-0.7-0.9c-0.6,0-0.8,0.4-0.8,1v1.7h-0.6v-1.7c0-0.6-0.1-1-0.7-1
		c-0.4,0-0.8,0.3-0.8,1v1.7h-0.6V19.7z"/>
	<path fill="#FFFFFF" d="M170,19.7h0.6v0.5h0c0.2-0.3,0.7-0.5,1.1-0.5c1,0,1.6,0.7,1.6,1.7c0,1-0.6,1.7-1.6,1.7
		c-0.5,0-0.9-0.2-1.1-0.5h0v2.4H170V19.7z M170.6,21.3c0,0.6,0.4,1.1,1,1.1s1-0.5,1-1.1s-0.4-1.1-1-1.1S170.6,20.7,170.6,21.3z"/>
	<path fill="#FFFFFF" d="M174,19.7h0.6v0.5h0c0.2-0.3,0.6-0.6,1-0.6c0.1,0,0.2,0,0.3,0l0,0.7c-0.1,0-0.2,0-0.3,0
		c-0.6,0-0.9,0.3-0.9,1v1.6H174V19.7z"/>
	<path fill="#FFFFFF" d="M177.7,19.6c0.9,0,1.7,0.7,1.7,1.7s-0.7,1.7-1.7,1.7s-1.7-0.7-1.7-1.7S176.8,19.6,177.7,19.6z M177.7,22.4
		c0.6,0,1-0.5,1-1.1s-0.4-1.1-1-1.1s-1,0.5-1,1.1S177.1,22.4,177.7,22.4z"/>
	<path fill="#FFFFFF" d="M179.6,19.7h0.7l1,2.4l0.9-2.4h0.6l-1.3,3.2h-0.7L179.6,19.7z"/>
	<path fill="#FFFFFF" d="M183.7,18.1c0.2,0,0.4,0.2,0.4,0.4s-0.2,0.4-0.4,0.4s-0.4-0.2-0.4-0.4S183.4,18.1,183.7,18.1z M183.4,19.7
		h0.6v3.2h-0.6V19.7z"/>
	<path fill="#FFFFFF" d="M184.9,19.7h0.6v0.5h0c0.2-0.3,0.6-0.6,1-0.6c0.6,0,1.2,0.4,1.2,1.2v2.1h-0.6V21c0-0.6-0.3-0.8-0.7-0.8
		c-0.5,0-0.9,0.3-0.9,1.1v1.6h-0.6V19.7z"/>
	<path fill="#FFFFFF" d="M191.6,22.9c0,1-0.7,1.6-1.7,1.6c-0.6,0-1.1-0.2-1.6-0.6l0.4-0.5c0.3,0.3,0.7,0.5,1.1,0.5
		c0.9,0,1.2-0.6,1.2-1.1v-0.5h0c-0.2,0.4-0.7,0.6-1.1,0.6c-0.9,0-1.6-0.7-1.6-1.6c0-0.9,0.6-1.7,1.6-1.7c0.4,0,0.9,0.2,1.1,0.5h0
		v-0.5h0.6V22.9z M188.9,21.3c0,0.6,0.4,1.1,1,1.1s1-0.4,1-1.1s-0.4-1.1-1-1.1S188.9,20.7,188.9,21.3z"/>
	<path fill="#FFFFFF" d="M194.1,18.2h0.6v4.2h2.2v0.6h-2.8V18.2z"/>
	<path fill="#FFFFFF" d="M197.7,18.1c0.2,0,0.4,0.2,0.4,0.4s-0.2,0.4-0.4,0.4s-0.4-0.2-0.4-0.4S197.4,18.1,197.7,18.1z M197.4,19.7
		h0.6v3.2h-0.6V19.7z"/>
	<path fill="#FFFFFF" d="M198.5,19.7h0.7l1,2.4l0.9-2.4h0.6l-1.3,3.2h-0.7L198.5,19.7z"/>
	<path fill="#FFFFFF" d="M202.7,21.5c0,0.6,0.5,0.9,1.1,0.9c0.4,0,0.6-0.2,0.9-0.5l0.5,0.4c-0.3,0.4-0.8,0.7-1.4,0.7
		c-1,0-1.6-0.7-1.6-1.7c0-1,0.7-1.7,1.6-1.7c1.1,0,1.6,0.9,1.6,1.7v0.2H202.7z M204.6,21.1c0-0.5-0.3-0.9-0.9-0.9
		c-0.6,0-1,0.5-1,0.9H204.6z"/>
	<path fill="#FFFFFF" d="M207.6,20.5c-0.1-0.2-0.4-0.3-0.7-0.3c-0.3,0-0.5,0.1-0.5,0.4c0,0.4,0.5,0.4,0.8,0.5
		c0.5,0.1,0.9,0.3,0.9,0.9c0,0.7-0.7,1-1.3,1c-0.5,0-0.9-0.1-1.2-0.6l0.5-0.4c0.2,0.2,0.4,0.4,0.8,0.4c0.3,0,0.6-0.1,0.6-0.4
		c0-0.4-0.5-0.4-0.8-0.5c-0.5-0.1-1-0.3-1-0.9c0-0.7,0.6-1,1.2-1c0.4,0,0.9,0.1,1.1,0.5L207.6,20.5z"/>
	<path fill="#FFFFFF" d="M32.8,0.6h3.5L45.9,23h-4.6l-2.1-5.1h-9.7l-2,5.1H23L32.8,0.6z M37.9,14.4l-3.5-9.1l-3.5,9.1H37.9z"/>
	<path fill="#FFFFFF" d="M61.7,5.8c-1.6-1.7-3.2-2.2-4.7-2.2c-4.6,0-7.7,3.5-7.7,8c0,4.8,3.1,8.3,7.7,8.3c1.8,0,3.5-0.8,5-2.7
		l3.3,2.3c-2,2.8-5.1,4-8.4,4c-6.9,0-11.8-4.7-11.8-11.7C45.1,4.7,50.1,0,57,0c3,0,5.6,1,7.9,3.5L61.7,5.8z"/>
	<path fill="#FFFFFF" d="M67.3,0.6h7.5c4.3,0,8.3,1.5,8.3,6.5c0,5.6-4.2,6.7-9,6.7h-2.9V23h-4V0.6z M73.7,10.3
		c2.3,0,5.2-0.1,5.2-3.2c0-2.8-2.6-3.1-4.8-3.1h-2.9v6.3H73.7z"/>
	<path fill="#FFFFFF" d="M209,9.4c0.1,0.2,0.3,0.3,0.5,0.3c0.2,0,0.5-0.1,0.5-0.4c0-0.6-1.2-0.2-1.2-1.2c0-0.3,0.2-0.7,0.8-0.7
		c0.3,0,0.5,0.1,0.7,0.3l-0.3,0.2c-0.1-0.1-0.2-0.2-0.4-0.2c-0.4,0-0.5,0.2-0.5,0.4c0,0.6,1.2,0.3,1.2,1.1c0,0.5-0.4,0.8-0.9,0.8
		c-0.3,0-0.6-0.1-0.8-0.3L209,9.4z"/>
	<path fill="#FFFFFF" d="M210.8,7.5h0.5l0.8,1.9h0l0.8-1.9h0.5v2.5h-0.3v-2h0l-0.8,2H212l-0.8-2h0v2h-0.3V7.5z"/>
</g>
</svg>
