<svg height="16.71" viewBox="0 0 131.39 16.71" width="131.39" xmlns="http://www.w3.org/2000/svg" xmlns:xlink="http://www.w3.org/1999/xlink">
<clipPath id="a"><rect height="15.09" rx="1.53" width="15.09" x="115.78" y=".96"/></clipPath><g fill="#d21146"><path d="m46.06 12.71 4.6-12h3.39v15.61h-2.14v-13l-5.17 13h-1.43l-5.15-13v13h-2.16v-15.58h3.39z"/><path d="m60.05 7.6 7-6.86h3l-7.56 7.13 8 8.45h-3.09l-7.31-8.06v8.06h-2.22v-15.58h2.18z"/><path d="m80.11 3.62a3.69 3.69 0 0 0 -3-1.45c-1.41 0-3 .77-3 2.53s1.43 2.15 3.19 2.73c2.09.66 4.58 1.45 4.58 4.55s-2.62 4.73-5.39 4.73a6.57 6.57 0 0 1 -5.13-2.26l1.64-1.45a4.24 4.24 0 0 0 3.47 1.82c1.45 0 3.13-.81 3.13-2.66s-1.72-2.4-3.7-3-4-1.51-4-4.37c0-3.11 2.77-4.45 5.35-4.45a6.11 6.11 0 0 1 4.46 1.78z"/><path d="m85.52 16.32h-2.42l6.76-15.58h2l6.69 15.58h-2.49l-1.58-3.83h-7.39zm2.34-5.75h5.83l-2.91-7.3z"/><path d="m100.53.74h4.75c3.37 0 5.57 1.3 5.57 4.33s-2.44 4.4-5.68 4.4h-2.46v6.85h-2.18zm2.18 6.88h2.29c2.13 0 3.63-.7 3.63-2.55s-1.54-2.48-3.59-2.48h-2.35z"/></g><path d="m32.59 16.32v-16.32" fill="none" stroke="#ffc82e" stroke-miterlimit="10" stroke-width="1.5"/><path d="m4.31 6.41h1.53l4.27 9.92h-2l-.93-2.27h-4.31l-.87 2.27h-2zm2.25 6.14-1.56-4.04-1.56 4z" fill="#007e66"/><path d="m17.64 8.74a2.78 2.78 0 0 0 -2.25-1 3.42 3.42 0 0 0 -3.39 3.6c0 2.16 1.27 3.66 3.32 3.66a2.92 2.92 0 0 0 2.41-1.15l1.41 1a4.65 4.65 0 0 1 -3.83 1.74 5 5 0 0 1 -5.31-5.25 5 5 0 0 1 5.38-5.18 4.62 4.62 0 0 1 3.62 1.51z" fill="#007e66"/><path d="m20.16 6.41h3.24c2.27 0 3.74.8 3.74 2.87s-1.75 2.94-3.86 2.94h-1.35v4.11h-1.77zm3 4.33c1.15 0 2.2-.28 2.2-1.46s-1.05-1.38-2.15-1.38h-1.28v2.84z" fill="#007e66"/><path d="m112.68 1.68a1 1 0 1 1 -1-1 1 1 0 0 1 1 1zm-1.77 0a.76.76 0 1 0 1.52 0 .76.76 0 1 0 -1.52 0zm.61.52h-.23v-1a2.91 2.91 0 0 1 .38 0 .54.54 0 0 1 .34.08.28.28 0 0 1 .09.21.25.25 0 0 1 -.2.23.29.29 0 0 1 .18.24 1 1 0 0 0 .07.25h-.24a.93.93 0 0 1 -.08-.24c0-.11-.08-.16-.21-.16h-.1zm0-.56h.11c.13 0 .23 0 .23-.14s-.07-.15-.21-.15h-.13z" fill="#d31245"/><rect fill="#003479" height="15.09" rx="1.53" width="15.09" x="115.78" y=".96"/><g clip-path="url(#a)" fill="#ffc82e"><path d="m118.61 5-1.47.42-.29-.64 4-1.67h.59v9.38c0 .47.62.53 1.47.61v.58h-5.81v-.58c.85-.08 1.54-.14 1.54-.61z"/><path d="m126.79 3a4.53 4.53 0 0 1 4.6 4.77c0 3.84-3.06 6.77-6.86 7.48l-.26-.74a5 5 0 0 0 3.86-4.5 4.23 4.23 0 0 1 -2.33.75c-2.26 0-3.33-1.67-3.33-3.65a4.11 4.11 0 0 1 4.32-4.11zm.21 6.45a2.19 2.19 0 0 0 1.16-.38c.14-2-.25-5.13-1.35-5.13-.74 0-1.26.75-1.26 2.8-.03 1.66.6 2.71 1.45 2.71z"/></g><rect fill="none" height="15.09" rx="1.53" stroke="#d21146" stroke-width=".5" width="15.09" x="115.78" y=".96"/></svg>
