<?xml version="1.0" encoding="UTF-8" standalone="no"?>
<svg width="140px" height="63px" viewBox="0 0 140 63" version="1.1" xmlns="http://www.w3.org/2000/svg" xmlns:xlink="http://www.w3.org/1999/xlink" xmlns:sketch="http://www.bohemiancoding.com/sketch/ns">
    <!-- Generator: Sketch 3.3.3 (12072) - http://www.bohemiancoding.com/sketch -->
    <title>Slice 1</title>
    <desc>Created with Sketch.</desc>
    <defs></defs>
    <g id="Page-1" stroke="none" stroke-width="1" fill="none" fill-rule="evenodd" sketch:type="MSPage">
        <g id="acp-logo-stack-w" sketch:type="MSLayerGroup" transform="translate(0.000000, 1.000000)" fill="#FFFFFF">
            <g id="Group" sketch:type="MSShapeGroup">
                <g transform="translate(0.000000, 41.000000)" id="Shape">
                    <path d="M3,1.3 L4.1,1.3 L7.1,8.2 L5.6,8.2 L5,6.6 L2,6.6 L1.4,8.2 L0,8.2 L3,1.3 L3,1.3 Z M4.6,5.6 L3.5,2.8 L2.4,5.6 L4.6,5.6 L4.6,5.6 Z"></path>
                    <path d="M7.5,3.5 L8.6,3.5 L8.6,4.2 C8.8,3.8 9.3,3.4 10,3.4 C10.7,3.4 11.2,3.7 11.5,4.3 C11.8,3.7 12.3,3.4 13,3.4 C14.2,3.4 14.7,4.3 14.7,5.4 L14.7,8.2 L13.5,8.2 L13.5,5.5 C13.5,4.9 13.3,4.4 12.6,4.4 C11.9,4.4 11.6,5 11.6,5.6 L11.6,8.1 L10.4,8.1 L10.4,5.3 C10.4,4.7 10.2,4.3 9.6,4.3 C8.8,4.3 8.5,4.9 8.5,5.5 L8.5,8.1 L7.5,8.1 L7.5,3.5 L7.5,3.5 Z"></path>
                    <path d="M16.6,6.3 C16.7,7 17.2,7.4 17.9,7.4 C18.5,7.4 18.9,7.1 19.2,6.8 L20,7.4 C19.5,8.1 18.8,8.3 18,8.3 C16.6,8.3 15.5,7.3 15.5,5.8 C15.5,4.3 16.6,3.3 18,3.3 C19.3,3.3 20.2,4.2 20.2,5.8 L20.2,6.1 L16.6,6.1 L16.6,6.3 Z M19,5.4 C19,4.7 18.5,4.3 17.8,4.3 C17.1,4.3 16.7,4.7 16.6,5.4 L19,5.4 L19,5.4 Z"></path>
                    <path d="M20.8,3.5 L22,3.5 L22,4.2 C22.3,3.7 22.8,3.3 23.4,3.3 C23.5,3.3 23.7,3.3 23.8,3.4 L23.8,4.5 C23.6,4.5 23.4,4.4 23.2,4.4 C22.1,4.4 21.9,5.3 21.9,5.6 L21.9,8.1 L20.7,8.1 L20.7,3.5 L20.8,3.5 Z"></path>
                    <path d="M25,1.2 C25.4,1.2 25.8,1.5 25.8,1.9 C25.8,2.3 25.5,2.6 25,2.6 C24.5,2.6 24.3,2.3 24.3,1.9 C24.3,1.5 24.6,1.2 25,1.2 L25,1.2 Z M24.5,3.5 L25.7,3.5 L25.7,8.2 L24.5,8.2 L24.5,3.5 L24.5,3.5 Z"></path>
                    <path d="M29.8,4.9 C29.5,4.6 29.2,4.4 28.9,4.4 C28,4.4 27.5,5.1 27.5,5.8 C27.5,6.5 28,7.2 28.9,7.2 C29.3,7.2 29.6,7 29.8,6.8 L30.6,7.6 C30.1,8.1 29.3,8.3 28.9,8.3 C27.5,8.3 26.4,7.3 26.4,5.8 C26.4,4.3 27.5,3.3 28.9,3.3 C29.5,3.3 30.1,3.5 30.6,4 L29.8,4.9 L29.8,4.9 Z"></path>
                    <path d="M34,7.6 L34,7.6 C33.6,8.1 33.1,8.4 32.5,8.4 C31.6,8.4 30.8,7.9 30.8,7 C30.8,5.5 32.6,5.4 33.7,5.4 L34,5.4 L34,5.3 C34,4.7 33.6,4.4 32.9,4.4 C32.4,4.4 32,4.6 31.7,4.9 L31.1,4.3 C31.6,3.8 32.3,3.5 33.1,3.5 C35.1,3.5 35.1,4.9 35.1,5.6 L35.1,8.3 L34,8.3 L34,7.6 L34,7.6 Z M34,6.1 L33.8,6.1 C33.2,6.1 32,6.1 32,6.8 C32,7.2 32.4,7.4 32.8,7.4 C33.6,7.4 34,7 34,6.3 L34,6.1 L34,6.1 Z"></path>
                    <path d="M36.1,3.5 L37.2,3.5 L37.2,4.3 C37.4,3.8 37.9,3.4 38.6,3.4 C39.9,3.4 40.3,4.3 40.3,5.2 L40.3,8.2 L39.1,8.2 L39.1,5.8 C39.1,5.3 39.1,4.4 38.2,4.4 C37.4,4.4 37.1,5 37.1,5.6 L37.1,8.2 L35.9,8.2 L35.9,3.5 L36.1,3.5 Z"></path>
                    <path d="M48.3,2.9 C47.8,2.4 47.3,2.2 46.8,2.2 C45.4,2.2 44.4,3.3 44.4,4.7 C44.4,6.2 45.3,7.3 46.8,7.3 C47.4,7.3 47.9,7 48.4,6.5 L49.4,7.2 C48.8,8.1 47.8,8.4 46.8,8.4 C44.7,8.4 43.1,7 43.1,4.8 C43.1,2.6 44.6,1.1 46.8,1.1 C47.7,1.1 48.5,1.4 49.2,2.2 L48.3,2.9 L48.3,2.9 Z"></path>
                    <path d="M52.3,3.4 C53.7,3.4 54.8,4.4 54.8,5.9 C54.8,7.4 53.7,8.4 52.3,8.4 C50.9,8.4 49.8,7.4 49.8,5.9 C49.8,4.4 50.8,3.4 52.3,3.4 L52.3,3.4 Z M52.3,7.3 C53.2,7.3 53.7,6.6 53.7,5.9 C53.7,5.2 53.2,4.5 52.3,4.5 C51.4,4.5 50.9,5.2 50.9,5.9 C50.9,6.6 51.4,7.3 52.3,7.3 L52.3,7.3 Z"></path>
                    <path d="M55.5,0.8 L56.7,0.8 L56.7,8.2 L55.5,8.2 L55.5,0.8 L55.5,0.8 Z"></path>
                    <path d="M57.9,0.8 L59,0.8 L59,8.2 L57.8,8.2 L57.8,0.8 L57.9,0.8 Z"></path>
                    <path d="M61.1,6.3 C61.2,7 61.7,7.4 62.4,7.4 C63,7.4 63.4,7.1 63.7,6.8 L64.5,7.4 C64,8.1 63.3,8.3 62.5,8.3 C61.1,8.3 60,7.3 60,5.8 C60,4.3 61.1,3.3 62.5,3.3 C63.8,3.3 64.7,4.2 64.7,5.8 L64.7,6.1 L61.1,6.1 L61.1,6.3 Z M63.5,5.4 C63.5,4.7 63,4.3 62.3,4.3 C61.6,4.3 61.2,4.7 61.1,5.4 L63.5,5.4 L63.5,5.4 Z"></path>
                    <path d="M70.2,3.5 L70.2,7.8 C70.2,9.5 69.4,10.6 67.6,10.6 C66.7,10.6 65.9,10.4 65.3,9.8 L66,8.8 C66.5,9.2 67,9.5 67.6,9.5 C68.7,9.5 69.1,8.9 69.1,7.9 L69.1,7.6 C68.8,8.1 68.2,8.3 67.6,8.3 C66.2,8.3 65.3,7.2 65.3,5.9 C65.3,4.5 66.2,3.4 67.6,3.4 C68.3,3.4 68.9,3.7 69.2,4.2 L69.2,4.2 L69.2,3.5 L70.2,3.5 L70.2,3.5 Z M66.3,5.9 C66.3,6.6 66.9,7.3 67.7,7.3 C68.6,7.3 69.1,6.7 69.1,5.9 C69.1,5.1 68.6,4.5 67.7,4.5 C66.9,4.5 66.3,5 66.3,5.9 L66.3,5.9 Z"></path>
                    <path d="M72.1,6.3 C72.2,7 72.7,7.4 73.4,7.4 C74,7.4 74.4,7.1 74.7,6.8 L75.5,7.4 C75,8.1 74.3,8.3 73.5,8.3 C72.1,8.3 71,7.3 71,5.8 C71,4.3 72.1,3.3 73.5,3.3 C74.8,3.3 75.7,4.2 75.7,5.8 L75.7,6.1 L72.1,6.1 L72.1,6.3 Z M74.5,5.4 C74.5,4.7 74,4.3 73.3,4.3 C72.6,4.3 72.2,4.7 72.1,5.4 L74.5,5.4 L74.5,5.4 Z"></path>
                    <path d="M81.2,3.4 C82.6,3.4 83.7,4.4 83.7,5.9 C83.7,7.4 82.6,8.4 81.2,8.4 C79.8,8.4 78.7,7.4 78.7,5.9 C78.7,4.4 79.8,3.4 81.2,3.4 L81.2,3.4 Z M81.2,7.3 C82.1,7.3 82.6,6.6 82.6,5.9 C82.6,5.2 82.1,4.5 81.2,4.5 C80.3,4.5 79.8,5.2 79.8,5.9 C79.8,6.6 80.3,7.3 81.2,7.3 L81.2,7.3 Z"></path>
                    <path d="M84.7,4.5 L83.7,4.5 L83.7,3.5 L84.7,3.5 L84.7,2.8 C84.7,1.5 85,0.7 86.4,0.7 C86.7,0.7 86.9,0.7 87.1,0.8 L87,1.8 C86.8,1.8 86.7,1.7 86.5,1.7 C85.8,1.7 85.7,2.1 85.7,2.7 L85.7,3.5 L86.8,3.5 L86.8,4.5 L85.7,4.5 L85.7,8.2 L84.5,8.2 L84.5,4.5 L84.7,4.5 Z"></path>
                    <path d="M90.3,1.3 L92.6,1.3 C93.9,1.3 95.1,1.8 95.1,3.3 C95.1,5 93.8,5.4 92.3,5.4 L91.4,5.4 L91.4,8.3 L90.2,8.3 L90.2,1.3 L90.3,1.3 Z M92.3,4.3 C93,4.3 93.9,4.3 93.9,3.3 C93.9,2.5 93.1,2.3 92.4,2.3 L91.5,2.3 L91.5,4.2 L92.3,4.2 L92.3,4.3 Z"></path>
                    <path d="M96.9,4.2 L96.9,4.2 C97.1,3.8 97.6,3.4 98.3,3.4 C99.6,3.4 100,4.3 100,5.2 L100,8.2 L98.8,8.2 L98.8,5.8 C98.8,5.3 98.8,4.4 97.9,4.4 C97.1,4.4 96.8,5 96.8,5.6 L96.8,8.2 L95.6,8.2 L95.6,0.8 L96.8,0.8 L96.8,4.2 L96.9,4.2 Z"></path>
                    <path d="M100.3,3.5 L101.6,3.5 L102.9,6.8 L104.1,3.5 L105.3,3.5 L103.1,9.2 C102.8,10.1 102.3,10.5 101.3,10.5 C101,10.5 100.7,10.5 100.4,10.4 L100.5,9.3 C100.7,9.4 100.9,9.4 101.1,9.4 C101.7,9.4 101.8,9.2 102,8.7 L102.2,8.1 L100.3,3.5 L100.3,3.5 Z"></path>
                    <path d="M108.1,4.8 C107.9,4.5 107.6,4.3 107.2,4.3 C106.9,4.3 106.5,4.4 106.5,4.8 C106.5,5.6 109,5 109,6.8 C109,7.9 107.9,8.3 107,8.3 C106.3,8.3 105.7,8.1 105.2,7.6 L106,6.9 C106.3,7.2 106.6,7.5 107.1,7.5 C107.4,7.5 107.9,7.3 107.9,7 C107.9,6 105.4,6.8 105.4,5 C105.4,4 106.3,3.5 107.3,3.5 C107.9,3.5 108.6,3.7 109,4.2 L108.1,4.8 L108.1,4.8 Z"></path>
                    <path d="M110.4,1.2 C110.8,1.2 111.2,1.5 111.2,1.9 C111.2,2.3 110.9,2.6 110.4,2.6 C109.9,2.6 109.7,2.3 109.7,1.9 C109.7,1.5 110,1.2 110.4,1.2 L110.4,1.2 Z M109.8,3.5 L111,3.5 L111,8.2 L109.8,8.2 L109.8,3.5 L109.8,3.5 Z"></path>
                    <path d="M115.1,4.9 C114.8,4.6 114.5,4.4 114.2,4.4 C113.3,4.4 112.8,5.1 112.8,5.8 C112.8,6.5 113.3,7.2 114.2,7.2 C114.6,7.2 114.9,7 115.1,6.8 L115.9,7.6 C115.4,8.1 114.6,8.3 114.2,8.3 C112.8,8.3 111.7,7.3 111.7,5.8 C111.7,4.3 112.8,3.3 114.2,3.3 C114.8,3.3 115.4,3.5 115.9,4 L115.1,4.9 L115.1,4.9 Z"></path>
                    <path d="M116.8,1.2 C117.2,1.2 117.6,1.5 117.6,1.9 C117.6,2.3 117.3,2.6 116.8,2.6 C116.3,2.6 116.1,2.3 116.1,1.9 C116.1,1.5 116.4,1.2 116.8,1.2 L116.8,1.2 Z M116.3,3.5 L117.5,3.5 L117.5,8.2 L116.3,8.2 L116.3,3.5 L116.3,3.5 Z"></path>
                    <path d="M121.3,7.6 L121.3,7.6 C120.9,8.1 120.4,8.4 119.8,8.4 C118.9,8.4 118.1,7.9 118.1,7 C118.1,5.5 119.9,5.4 121,5.4 L121.3,5.4 L121.3,5.3 C121.3,4.7 120.9,4.4 120.2,4.4 C119.7,4.4 119.3,4.6 119,4.9 L118.4,4.3 C118.9,3.8 119.6,3.5 120.4,3.5 C122.4,3.5 122.4,4.9 122.4,5.6 L122.4,8.3 L121.3,8.3 L121.3,7.6 L121.3,7.6 Z M121.3,6.1 L121,6.1 C120.4,6.1 119.2,6.1 119.2,6.8 C119.2,7.2 119.6,7.4 120,7.4 C120.8,7.4 121.2,7 121.2,6.3 L121.2,6.1 L121.3,6.1 Z"></path>
                    <path d="M123.4,3.5 L124.5,3.5 L124.5,4.3 C124.7,3.8 125.2,3.4 125.9,3.4 C127.2,3.4 127.6,4.3 127.6,5.2 L127.6,8.2 L126.4,8.2 L126.4,5.8 C126.4,5.3 126.4,4.4 125.5,4.4 C124.7,4.4 124.4,5 124.4,5.6 L124.4,8.2 L123.2,8.2 L123.2,3.5 L123.4,3.5 Z"></path>
                    <path d="M131.2,4.8 C131,4.5 130.7,4.3 130.3,4.3 C130,4.3 129.6,4.4 129.6,4.8 C129.6,5.6 132.1,5 132.1,6.8 C132.1,7.9 131,8.3 130.1,8.3 C129.4,8.3 128.8,8.1 128.3,7.6 L129.1,6.9 C129.4,7.2 129.7,7.5 130.2,7.5 C130.5,7.5 131,7.3 131,7 C131,6 128.5,6.8 128.5,5 C128.5,4 129.4,3.5 130.4,3.5 C131,3.5 131.7,3.7 132.1,4.2 L131.2,4.8 L131.2,4.8 Z"></path>
                </g>
                <g transform="translate(0.000000, 53.000000)" id="Shape">
                    <path d="M0.3,1 L1,1 L1,5.4 L3.3,5.4 L3.3,6 L0.3,6 L0.3,1 L0.3,1 Z"></path>
                    <path d="M4.2,4.6 C4.2,5.2 4.7,5.6 5.3,5.6 C5.7,5.6 6,5.4 6.2,5.1 L6.7,5.5 C6.3,6 5.8,6.2 5.2,6.2 C4.1,6.2 3.5,5.4 3.5,4.4 C3.5,3.4 4.2,2.6 5.2,2.6 C6.4,2.6 6.8,3.5 6.8,4.4 L6.8,4.6 L4.2,4.6 L4.2,4.6 Z M6.3,4.1 C6.3,3.5 6,3.1 5.3,3.1 C4.7,3.1 4.3,3.6 4.3,4.1 L6.3,4.1 L6.3,4.1 Z"></path>
                    <path d="M7.7,3.1 C8,2.7 8.5,2.6 9,2.6 C10,2.6 10.4,3.1 10.4,3.7 L10.4,5.4 L10.4,6 L9.9,6 L9.9,5.5 L9.9,5.5 C9.6,5.9 9.2,6.1 8.7,6.1 C8.1,6.1 7.5,5.7 7.5,5.1 C7.5,4.2 8.3,3.9 9.4,3.9 L9.9,3.9 L9.9,3.8 C9.9,3.4 9.6,3.1 9.1,3.1 C8.6,3.1 8.4,3.3 8.1,3.5 L7.7,3.1 L7.7,3.1 Z M9.5,4.4 C8.9,4.4 8.2,4.5 8.2,5 C8.2,5.4 8.5,5.6 8.9,5.6 C9.6,5.6 9.9,5.1 9.9,4.6 L9.9,4.4 L9.5,4.4 L9.5,4.4 Z"></path>
                    <path d="M14.7,6 L14,6 L14,5.5 C13.8,5.9 13.3,6.1 12.8,6.1 C11.8,6.1 11.1,5.3 11.1,4.3 C11.1,3.3 11.8,2.5 12.8,2.5 C13.3,2.5 13.7,2.7 14,3.1 L14,3.1 L14,0.6 L14.6,0.6 L14.6,6 L14.7,6 Z M14,4.4 C14,3.7 13.6,3.2 12.9,3.2 C12.2,3.2 11.8,3.7 11.8,4.4 C11.8,5.1 12.2,5.6 12.9,5.6 C13.6,5.6 14,5 14,4.4 L14,4.4 Z"></path>
                    <path d="M16,1 C16.3,1 16.5,1.2 16.5,1.5 C16.5,1.8 16.3,2 16,2 C15.7,2 15.5,1.8 15.5,1.5 C15.5,1.2 15.7,1 16,1 L16,1 Z M15.6,2.7 L16.2,2.7 L16.2,6 L15.6,6 L15.6,2.7 L15.6,2.7 Z"></path>
                    <path d="M17.3,2.7 L17.9,2.7 L17.9,3.2 C18.1,2.8 18.5,2.6 19,2.6 C19.7,2.6 20.2,3 20.2,3.9 L20.2,6 L19.6,6 L19.6,4 C19.6,3.4 19.2,3.1 18.8,3.1 C18.3,3.1 17.9,3.4 17.9,4.2 L17.9,6 L17.3,6 L17.3,2.7 L17.3,2.7 Z"></path>
                    <path d="M24.4,6 C24.4,7 23.7,7.7 22.6,7.7 C22,7.7 21.4,7.5 20.9,7.1 L21.3,6.6 C21.6,7 22,7.1 22.5,7.1 C23.5,7.1 23.7,6.5 23.7,5.9 L23.7,5.4 C23.5,5.8 23,6 22.5,6 C21.5,6 20.8,5.2 20.8,4.3 C20.8,3.3 21.5,2.5 22.5,2.5 C23,2.5 23.4,2.7 23.7,3.1 L23.7,3.1 L23.7,2.6 L24.3,2.6 L24.3,6 L24.4,6 Z M21.5,4.4 C21.5,5.1 21.9,5.5 22.6,5.5 C23.3,5.5 23.7,5.1 23.7,4.4 C23.7,3.7 23.3,3.2 22.6,3.2 C21.9,3.2 21.5,3.7 21.5,4.4 L21.5,4.4 Z"></path>
                    <path d="M27.3,1 L28,1 L28,6 L27.3,6 L27.3,1 L27.3,1 Z"></path>
                    <path d="M29,2.7 L29.6,2.7 L29.6,3.2 C29.8,2.8 30.2,2.6 30.7,2.6 C31.4,2.6 31.9,3 31.9,3.9 L31.9,6 L31.3,6 L31.3,4 C31.3,3.4 30.9,3.1 30.5,3.1 C30,3.1 29.6,3.4 29.6,4.2 L29.6,6 L29,6 L29,2.7 L29,2.7 Z"></path>
                    <path d="M34.6,3.2 L33.7,3.2 L33.7,4.7 C33.7,5.1 33.7,5.5 34.2,5.5 C34.3,5.5 34.5,5.5 34.7,5.4 L34.7,6 C34.6,6.1 34.3,6.1 34.1,6.1 C33.1,6.1 33.1,5.5 33.1,5 L33.1,3.2 L32.4,3.2 L32.4,2.6 L33.1,2.6 L33.1,1.7 L33.7,1.7 L33.7,2.6 L34.6,2.6 L34.6,3.2 L34.6,3.2 Z"></path>
                    <path d="M35.9,4.6 C35.9,5.2 36.4,5.6 37,5.6 C37.4,5.6 37.7,5.4 37.9,5.1 L38.4,5.5 C38,6 37.5,6.2 36.9,6.2 C35.8,6.2 35.2,5.4 35.2,4.4 C35.2,3.4 35.9,2.6 36.9,2.6 C38.1,2.6 38.5,3.5 38.5,4.4 L38.5,4.6 L35.9,4.6 L35.9,4.6 Z M37.9,4.1 C37.9,3.5 37.6,3.1 36.9,3.1 C36.3,3.1 35.9,3.6 35.9,4.1 L37.9,4.1 L37.9,4.1 Z"></path>
                    <path d="M39.2,2.7 L39.8,2.7 L39.8,3.2 C40,2.8 40.4,2.6 40.8,2.6 L41.1,2.6 L41.1,3.3 C41,3.3 40.9,3.2 40.8,3.2 C40.2,3.2 39.8,3.5 39.8,4.3 L39.8,6 L39.2,6 L39.2,2.7 L39.2,2.7 Z"></path>
                    <path d="M41.7,2.7 L42.3,2.7 L42.3,3.2 C42.5,2.8 42.9,2.6 43.4,2.6 C44.1,2.6 44.6,3 44.6,3.9 L44.6,6 L44,6 L44,4 C44,3.4 43.6,3.1 43.2,3.1 C42.7,3.1 42.3,3.4 42.3,4.2 L42.3,6 L41.7,6 L41.7,2.7 L41.7,2.7 Z"></path>
                    <path d="M45.5,3.1 C45.9,2.8 46.4,2.6 46.8,2.6 C47.8,2.6 48.2,3.1 48.2,3.7 L48.2,5.4 L48.2,6 L47.6,6 L47.6,5.5 L47.6,5.5 C47.3,5.9 46.9,6.1 46.4,6.1 C45.8,6.1 45.2,5.7 45.2,5.1 C45.2,4.2 46,3.9 47.1,3.9 L47.6,3.9 L47.6,3.8 C47.6,3.4 47.3,3.1 46.8,3.1 C46.3,3.1 46.1,3.3 45.8,3.5 L45.5,3.1 L45.5,3.1 Z M47.3,4.4 C46.7,4.4 46,4.5 46,5 C46,5.4 46.3,5.6 46.7,5.6 C47.4,5.6 47.7,5.1 47.7,4.6 L47.7,4.4 L47.3,4.4 L47.3,4.4 Z"></path>
                    <path d="M49.2,0.6 L49.8,0.6 L49.8,6 L49.2,6 L49.2,0.6 L49.2,0.6 Z"></path>
                    <path d="M52.5,1 L53.5,1 L55.1,4.8 L56.7,1 L57.7,1 L57.7,6 L57,6 L57,1.8 L55.4,6 L55,6 L53.3,1.8 L53.3,6 L52.6,6 L52.6,1 L52.5,1 Z"></path>
                    <path d="M59.2,4.6 C59.2,5.2 59.7,5.6 60.3,5.6 C60.7,5.6 61,5.4 61.2,5.1 L61.7,5.5 C61.3,6 60.8,6.2 60.2,6.2 C59.1,6.2 58.5,5.4 58.5,4.4 C58.5,3.4 59.2,2.6 60.2,2.6 C61.4,2.6 61.8,3.5 61.8,4.4 L61.8,4.6 L59.2,4.6 L59.2,4.6 Z M61.2,4.1 C61.2,3.5 60.9,3.1 60.2,3.1 C59.6,3.1 59.2,3.6 59.2,4.1 L61.2,4.1 L61.2,4.1 Z"></path>
                    <path d="M65.9,6 L65.3,6 L65.3,5.5 C65.1,5.9 64.6,6.1 64.1,6.1 C63.1,6.1 62.4,5.3 62.4,4.3 C62.4,3.3 63.1,2.5 64.1,2.5 C64.6,2.5 65,2.7 65.3,3.1 L65.3,3.1 L65.3,0.6 L65.9,0.6 L65.9,6 L65.9,6 Z M65.2,4.4 C65.2,3.7 64.8,3.2 64.1,3.2 C63.4,3.2 63,3.7 63,4.4 C63,5.1 63.4,5.6 64.1,5.6 C64.8,5.6 65.2,5 65.2,4.4 L65.2,4.4 Z"></path>
                    <path d="M67.1,1 C67.4,1 67.6,1.2 67.6,1.5 C67.6,1.8 67.4,2 67.1,2 C66.8,2 66.6,1.8 66.6,1.5 C66.7,1.2 66.9,1 67.1,1 L67.1,1 Z M66.8,2.7 L67.4,2.7 L67.4,6 L66.8,6 L66.8,2.7 L66.8,2.7 Z"></path>
                    <path d="M70.8,3.6 C70.6,3.4 70.3,3.2 70,3.2 C69.3,3.2 68.9,3.8 68.9,4.4 C68.9,5 69.3,5.5 70,5.5 C70.4,5.5 70.6,5.4 70.8,5.1 L71.3,5.6 C71,6 70.5,6.1 70,6.1 C69,6.1 68.2,5.4 68.2,4.3 C68.2,3.2 68.9,2.5 70,2.5 C70.5,2.5 71,2.7 71.3,3 L70.8,3.6 L70.8,3.6 Z"></path>
                    <path d="M72.2,1 C72.5,1 72.7,1.2 72.7,1.5 C72.7,1.8 72.5,2 72.2,2 C71.9,2 71.7,1.8 71.7,1.5 C71.7,1.2 71.9,1 72.2,1 L72.2,1 Z M71.9,2.7 L72.5,2.7 L72.5,6 L71.9,6 L71.9,2.7 L71.9,2.7 Z"></path>
                    <path d="M73.5,2.7 L74.1,2.7 L74.1,3.2 C74.3,2.8 74.7,2.6 75.2,2.6 C75.9,2.6 76.4,3 76.4,3.9 L76.4,6 L75.8,6 L75.8,4 C75.8,3.4 75.4,3.1 75,3.1 C74.5,3.1 74.1,3.4 74.1,4.2 L74.1,6 L73.5,6 L73.5,2.7 L73.5,2.7 Z"></path>
                    <path d="M77.9,4.6 C77.9,5.2 78.4,5.6 79,5.6 C79.4,5.6 79.7,5.4 79.9,5.1 L80.4,5.5 C80,6 79.5,6.2 78.9,6.2 C77.8,6.2 77.2,5.4 77.2,4.4 C77.2,3.4 77.9,2.6 78.9,2.6 C80.1,2.6 80.5,3.5 80.5,4.4 L80.5,4.6 L77.9,4.6 L77.9,4.6 Z M79.9,4.1 C79.9,3.5 79.6,3.1 78.9,3.1 C78.3,3.1 77.9,3.6 77.9,4.1 L79.9,4.1 L79.9,4.1 Z"></path>
                    <path d="M81.3,7 L80.7,7 L81.2,5.2 L81.9,5.2 L81.3,7 L81.3,7 Z"></path>
                    <path d="M83.7,1 L84.4,1 L84.4,6 L83.7,6 L83.7,1 L83.7,1 Z"></path>
                    <path d="M85.5,2.7 L86.1,2.7 L86.1,3.2 C86.2,3 86.6,2.6 87.2,2.6 C87.7,2.6 88,2.8 88.3,3.2 C88.5,2.8 89,2.6 89.4,2.6 C90.4,2.6 90.7,3.3 90.7,4.1 L90.7,6.1 L90,6.1 L90,4.2 C90,3.7 89.9,3.2 89.3,3.2 C88.7,3.2 88.4,3.6 88.4,4.2 L88.4,6 L87.8,6 L87.8,4.2 C87.8,3.6 87.7,3.1 87.1,3.1 C86.6,3.1 86.2,3.4 86.2,4.2 L86.2,6 L85.6,6 L85.6,2.7 L85.5,2.7 Z"></path>
                    <path d="M91.5,2.7 L92.1,2.7 L92.1,3.2 C92.3,2.8 92.8,2.6 93.3,2.6 C94.3,2.6 95,3.4 95,4.4 C95,5.4 94.3,6.2 93.3,6.2 C92.8,6.2 92.4,6 92.1,5.6 L92.1,5.6 L92.1,8.1 L91.5,8.1 L91.5,2.7 L91.5,2.7 Z M92.2,4.4 C92.2,5.1 92.6,5.6 93.3,5.6 C94,5.6 94.4,5.1 94.4,4.4 C94.4,3.7 94,3.2 93.3,3.2 C92.6,3.2 92.2,3.7 92.2,4.4 L92.2,4.4 Z"></path>
                    <path d="M95.8,2.7 L96.4,2.7 L96.4,3.2 C96.6,2.8 97,2.6 97.4,2.6 L97.7,2.6 L97.7,3.3 C97.6,3.3 97.5,3.2 97.4,3.2 C96.8,3.2 96.4,3.5 96.4,4.3 L96.4,6 L95.8,6 L95.8,2.7 L95.8,2.7 Z"></path>
                    <path d="M99.8,2.6 C100.8,2.6 101.6,3.4 101.6,4.4 C101.6,5.4 100.8,6.2 99.8,6.2 C98.8,6.2 98,5.3 98,4.4 C98,3.5 98.8,2.6 99.8,2.6 L99.8,2.6 Z M99.8,5.5 C100.5,5.5 100.9,5 100.9,4.3 C100.9,3.6 100.5,3.1 99.8,3.1 C99.1,3.1 98.7,3.6 98.7,4.3 C98.7,5 99.1,5.5 99.8,5.5 L99.8,5.5 Z"></path>
                    <path d="M101.8,2.7 L102.5,2.7 L103.5,5.3 L104.5,2.7 L105.2,2.7 L103.9,6.1 L103.2,6.1 L101.8,2.7 L101.8,2.7 Z"></path>
                    <path d="M106,1 C106.3,1 106.5,1.2 106.5,1.5 C106.5,1.8 106.3,2 106,2 C105.7,2 105.5,1.8 105.5,1.5 C105.6,1.2 105.8,1 106,1 L106,1 Z M105.7,2.7 L106.3,2.7 L106.3,6 L105.7,6 L105.7,2.7 L105.7,2.7 Z"></path>
                    <path d="M107.3,2.7 L107.9,2.7 L107.9,3.2 C108.1,2.8 108.5,2.6 109,2.6 C109.7,2.6 110.2,3 110.2,3.9 L110.2,6 L109.6,6 L109.6,4 C109.6,3.4 109.2,3.1 108.8,3.1 C108.3,3.1 107.9,3.4 107.9,4.2 L107.9,6 L107.3,6 L107.3,2.7 L107.3,2.7 Z"></path>
                    <path d="M114.5,6 C114.5,7 113.8,7.7 112.7,7.7 C112.1,7.7 111.5,7.5 111,7.1 L111.4,6.6 C111.7,7 112.1,7.1 112.6,7.1 C113.6,7.1 113.8,6.5 113.8,5.9 L113.8,5.4 C113.6,5.8 113.1,6 112.6,6 C111.6,6 110.9,5.2 110.9,4.3 C110.9,3.3 111.6,2.5 112.6,2.5 C113.1,2.5 113.5,2.7 113.8,3.1 L113.8,3.1 L113.8,2.6 L114.4,2.6 L114.4,6 L114.5,6 Z M111.6,4.4 C111.6,5.1 112,5.5 112.7,5.5 C113.4,5.5 113.8,5.1 113.8,4.4 C113.8,3.7 113.4,3.2 112.7,3.2 C112,3.2 111.6,3.7 111.6,4.4 L111.6,4.4 Z"></path>
                    <path d="M117.1,1 L117.8,1 L117.8,5.4 L120.1,5.4 L120.1,6 L117.1,6 L117.1,1 L117.1,1 Z"></path>
                    <path d="M120.9,1 C121.2,1 121.4,1.2 121.4,1.5 C121.4,1.8 121.2,2 120.9,2 C120.6,2 120.4,1.8 120.4,1.5 C120.4,1.2 120.7,1 120.9,1 L120.9,1 Z M120.6,2.7 L121.2,2.7 L121.2,6 L120.6,6 L120.6,2.7 L120.6,2.7 Z"></path>
                    <path d="M121.8,2.7 L122.5,2.7 L123.5,5.3 L124.5,2.7 L125.2,2.7 L123.9,6.1 L123.2,6.1 L121.8,2.7 L121.8,2.7 Z"></path>
                    <path d="M126.2,4.6 C126.2,5.2 126.7,5.6 127.3,5.6 C127.7,5.6 128,5.4 128.2,5.1 L128.7,5.5 C128.3,6 127.8,6.2 127.2,6.2 C126.1,6.2 125.5,5.4 125.5,4.4 C125.5,3.4 126.2,2.6 127.2,2.6 C128.4,2.6 128.8,3.5 128.8,4.4 L128.8,4.6 L126.2,4.6 L126.2,4.6 Z M128.2,4.1 C128.2,3.5 127.9,3.1 127.2,3.1 C126.6,3.1 126.2,3.6 126.2,4.1 L128.2,4.1 L128.2,4.1 Z"></path>
                    <path d="M131.4,3.5 C131.3,3.3 131,3.2 130.7,3.2 C130.4,3.2 130.1,3.3 130.1,3.6 C130.1,4 130.7,4.1 131,4.1 C131.6,4.2 132,4.5 132,5.1 C132,5.9 131.3,6.2 130.6,6.2 C130,6.2 129.6,6.1 129.3,5.6 L129.8,5.2 C130,5.4 130.2,5.6 130.6,5.6 C130.9,5.6 131.3,5.5 131.3,5.2 C131.3,4.8 130.8,4.7 130.5,4.7 C130,4.6 129.5,4.4 129.5,3.7 C129.5,3 130.1,2.7 130.8,2.7 C131.2,2.7 131.7,2.9 132,3.3 L131.4,3.5 L131.4,3.5 Z"></path>
                </g>
                <g id="Shape">
                    <g transform="translate(36.000000, 0.000000)">
                        <path d="M16.6,0.9 L22.1,0.9 L37.6,36.9 L30.3,36.9 L27,28.7 L11.4,28.7 L8.1,36.9 L0.9,36.9 L16.6,0.9 L16.6,0.9 Z M24.7,23.2 L19.2,8.5 L13.6,23.1 L24.7,23.1 L24.7,23.2 Z"></path>
                        <path d="M63,9.4 C60.4,6.6 57.9,5.8 55.4,5.8 C48,5.8 43,11.5 43,18.7 C43.1,26.3 48,32 55.5,32 C58.4,32 61.2,30.7 63.6,27.6 L68.9,31.4 C65.6,35.9 60.8,37.8 55.5,37.8 C44.4,37.8 36.5,30.3 36.5,19 C36.4,7.5 44.3,0 55.4,0 C60.3,0 64.5,1.6 68,5.7 L63,9.4 L63,9.4 Z"></path>
                        <path d="M72,0.9 L84.1,0.9 C91.1,0.9 97.4,3.3 97.4,11.3 C97.4,20.4 90.6,22 83,22 L78.4,22 L78.4,36.9 L72,36.9 L72,0.9 L72,0.9 Z M82.2,16.5 C85.9,16.5 90.6,16.3 90.6,11.4 C90.6,7 86.4,6.4 82.9,6.4 L78.3,6.4 L78.3,16.5 L82.2,16.5 L82.2,16.5 Z"></path>
                    </g>
                    <g>
                        <g transform="translate(23.000000, 11.000000)">
                            <path d="M2.1,0 L2.1,0.1 L2.1,0 L2.1,0 Z"></path>
                            <path d="M2.1,0.1 L2.1,0.1 C2.1,0.1 1.6,0.7 1.3,1.4 C1,2 0.9,2.4 1,2.8 C1,3.3 1.5,3.9 2.1,3.9 L2.2,3.9 L2.2,3.9 L2.2,3.9 L2.2,3.9 L2.3,3.9 C2.9,3.9 3.3,3.2 3.4,2.8 C3.4,2.4 3.4,1.9 3.1,1.4 C2.6,0.7 2.1,0.1 2.1,0.1 L2.1,0.1 Z"></path>
                        </g>
                        <path d="M26,12.3 C26.3,12.9 26.4,13.3 26.3,13.7 C26.3,14.2 25.8,14.8 25.2,14.8 C25.2,14.8 25.2,14.8 25.1,14.8 L25.1,14.8 L25.1,14.8 L25.1,14.8 C25.1,14.8 25.1,14.8 25,14.8 C24.4,14.8 24,14.1 23.9,13.7 C23.9,13.3 23.9,12.8 24.2,12.3 C24.5,11.6 25,11 25,11 L25,11 C25.1,11.1 25.6,11.7 26,12.3 L26,12.3 Z M36.1,5.3 L36.1,5.3 L36.1,32.6 C36.1,35 34.2,36.9 31.8,36.9 L4.4,36.9 C2,36.9 0.1,35 0.1,32.6 L0.1,5.3 C0.1,2.9 2,1 4.4,1 L31.7,1 C34.2,0.9 36.1,2.9 36.1,5.3 L36.1,5.3 Z M35.1,5.3 C35.1,3.4 33.6,1.9 31.7,1.9 L17,1.9 L16.8,2.1 C16.5,2.3 16.3,2.5 16.1,2.7 C13.3,5.5 12,9.3 12.4,13.3 L12.4,13.6 C12.7,15.8 13.5,17.9 14.9,19.7 C18.3,19.7 20.6,19.6 21,19.4 C21.7,19.1 22.2,18.8 22.7,18.3 C20.1,17.3 18.3,14.8 18.3,12 C18.3,8.3 21.3,5.2 25.1,5.2 C28.8,5.2 31.9,8.2 31.9,12 C31.9,15.6 29.1,18.5 25.5,18.8 C25,19.7 24.4,20.5 23.7,21.4 C22.9,22.3 22,23.1 20.5,23.8 C21.4,24.1 22.4,24.3 23.4,24.4 C23.9,24.4 24.3,24.5 24.8,24.5 C28.2,24.5 31.5,23.1 33.9,20.7 C34.2,20.4 34.6,20 34.9,19.6 L35.1,19.3 L35.1,5.3 L35.1,5.3 Z M35.1,32.6 L35.1,20.7 C34.9,20.9 34.8,21.1 34.6,21.2 C32,23.8 28.5,25.3 24.8,25.3 L24.8,25.3 C23.1,25.3 21.4,25 19.7,24.3 L19.2,24.1 C17.4,24.7 14.5,25.6 10.7,26.8 C8.4,27.6 8,27.7 7,28.1 C6.2,28.5 6,28.6 5.4,29.2 C4.3,30.4 4.3,33.4 5.8,34.6 C6.3,35 7.4,35.5 8.4,35.8 L31.7,35.8 C33.6,35.9 35.1,34.4 35.1,32.6 L35.1,32.6 Z M1.1,19.7 L13.7,19.7 C10,14.3 10.6,6.8 15.4,2 L15.5,1.9 L4.4,1.9 C2.5,1.9 1,3.4 1,5.3 L1,13.3 C1.4,13.2 1.7,13.1 2,13 C1.8,12.7 1.7,12.4 1.7,12.1 C1.7,11.3 2.4,10.6 3.2,10.6 C4.1,10.6 4.7,11.3 4.7,12.1 C4.7,12.5 4.6,12.8 4.4,13 C5.4,13.2 7.2,14 7.9,15.1 C8.9,16.6 9.8,15.4 10.3,16.4 C10.5,16.8 10.6,16.9 10.9,17.6 C11.1,17.9 10.8,18.4 10.4,18.4 L3.2,18.4 L3.2,18.4 L1.1,18.4 L1.1,19.7 L1.1,19.7 Z M26,17.7 C28.8,17.2 30.9,14.8 30.9,12 C30.9,8.8 28.3,6.2 25.1,6.2 C21.9,6.2 19.3,8.8 19.3,12 C19.3,14.5 20.9,16.7 23.2,17.5 L23.3,17.5 C23.4,17.4 23.5,17.2 23.5,17.1 C23.6,16.9 23.6,16.9 23.7,16.8 C21.6,16.2 20.1,14.2 20.1,12 C20.1,9.2 22.4,7 25.1,7 C27.9,7 30.2,9.3 30.2,12 C30.2,14.3 28.6,16.3 26.4,16.9 C26.4,17 26.3,17.1 26.3,17.2 C26.2,17.3 26.1,17.5 26,17.7 L26,17.7 Z M27.1,13.3 C27.2,12.6 27,11.8 26.5,10.8 C25.9,9.6 25.1,8.6 25.1,8.6 L25.1,8.6 C25.1,8.6 24.2,9.6 23.7,10.8 C23.2,11.8 23.1,12.5 23.1,13.3 C23.2,14.1 24,15.3 25,15.3 L25.1,15.3 L25.1,15.3 L25.1,15.3 L25.1,15.3 L25.2,15.3 C26.3,15.3 27,14.1 27.1,13.3 L27.1,13.3 Z"></path>
                    </g>
                </g>
            </g>
        </g>
        <g id="RegisteredTM" sketch:type="MSLayerGroup" transform="translate(135.000000, 0.000000)" fill="#FFFFFF">
            <path d="M2.5,4.98737374 C3.87373858,4.98737374 4.98737374,3.87373858 4.98737374,2.5 C4.98737374,1.12626142 3.87373858,0.0126262626 2.5,0.0126262626 C1.12626142,0.0126262626 0.0126262626,1.12626142 0.0126262626,2.5 C0.0126262626,3.87373858 1.12626142,4.98737374 2.5,4.98737374 Z M2.5,4.48232323 C1.40519311,4.48232323 0.517676768,3.59480689 0.517676768,2.5 C0.517676768,1.40519311 1.40519311,0.517676768 2.5,0.517676768 C3.59480689,0.517676768 4.48232323,1.40519311 4.48232323,2.5 C4.48232323,3.59480689 3.59480689,4.48232323 2.5,4.48232323 Z" id="Shape" sketch:type="MSShapeGroup"></path>
            <path d="M2.08001646,2.76056465 L2.08001646,3.74580758 L1.40865442,3.74580758 L1.40865442,1.14239316 L2.43399571,1.14239316 C2.77693939,1.14239316 3.02803434,1.19995116 3.18734217,1.31501785 C3.3477351,1.43013386 3.42793157,1.61203096 3.42793157,1.86083245 C3.42793157,2.03288992 3.38610707,2.17414624 3.30240884,2.28457672 C3.21984495,2.3950072 3.09491389,2.476375 2.92751742,2.52865581 C3.01930429,2.54956793 3.10127652,2.59726162 3.17338434,2.67168763 C3.24657702,2.74488056 3.32041111,2.8564947 3.39483712,3.00648081 L3.75927247,3.74580758 L3.04431035,3.74580758 L2.72692753,3.09890909 C2.66300707,2.96870076 2.59790278,2.879725 2.53166439,2.83208056 C2.4665601,2.78443611 2.37937235,2.76056465 2.27007626,2.76056465 L2.08001646,2.76056465 Z M2.36250444,2.29675909 C2.50315657,2.29675909 2.60372273,2.27061879 2.66419066,2.21828884 C2.72584242,2.16600823 2.75661894,2.07996715 2.75661894,1.9602396 C2.75661894,1.84167111 2.72584242,1.75678909 2.66419066,1.70564285 C2.60372273,1.65449662 2.50315657,1.62889886 2.36250444,1.62889886 L2.08001646,1.62889886 L2.08001646,2.29675909 L2.36250444,2.29675909 Z" id="text3175" sketch:type="MSShapeGroup"></path>
        </g>
    </g>
</svg>