<?xml version="1.0" encoding="UTF-8" standalone="no"?>
<svg width="21px" height="29px" viewBox="0 0 21 29" version="1.1" xmlns="http://www.w3.org/2000/svg" xmlns:xlink="http://www.w3.org/1999/xlink" xmlns:sketch="http://www.bohemiancoding.com/sketch/ns">
    <!-- Generator: Sketch 3.3.3 (12072) - http://www.bohemiancoding.com/sketch -->
    <title>acp-icon-stacked-w</title>
    <desc>Created with Sketch.</desc>
    <defs></defs>
    <g id="Page-1" stroke="none" stroke-width="1" fill="none" fill-rule="evenodd" sketch:type="MSPage">
        <g id="Artboard-1" sketch:type="MSArtboardGroup" transform="translate(-27.000000, -49.000000)" fill="#FFFFFF">
            <g id="Shape-+-Shape-+-Shape-+-Shape" sketch:type="MSLayerGroup" transform="translate(27.000000, 49.000000)">
                <path d="M14.516,6.468 C14.684,6.804 14.684,6.972 14.684,7.224 C14.684,7.476 14.432,7.812 14.096,7.812 L14.096,7.812 L14.096,7.812 L14.096,7.812 C13.76,7.812 13.592,7.476 13.508,7.224 C13.508,6.972 13.508,6.804 13.676,6.468 C13.844,6.132 14.096,5.796 14.096,5.796 L14.096,5.796 C14.096,5.796 14.348,6.048 14.516,6.468 L14.516,6.468 Z M19.808,2.688 L19.808,2.688 L19.808,16.968 C19.808,18.228 18.8,19.236 17.54,19.236 L3.26,19.236 C2,19.32 0.992,18.312 0.992,17.052 L0.992,2.772 C0.992,1.512 2,0.504 3.26,0.504 L17.54,0.504 C18.8,0.42 19.808,1.512 19.808,2.688 L19.808,2.688 Z M19.304,2.688 C19.304,1.68 18.548,0.924 17.54,0.924 L9.812,0.924 L9.728,1.008 C9.56,1.092 9.476,1.26 9.392,1.344 C7.88,2.856 7.208,4.872 7.376,6.888 L7.376,7.056 C7.544,8.232 7.964,9.324 8.72,10.248 C10.484,10.248 11.744,10.164 11.912,10.08 C12.248,9.912 12.584,9.744 12.836,9.492 C11.492,8.988 10.568,7.644 10.568,6.216 C10.568,4.284 12.164,2.688 14.096,2.688 C16.028,2.688 17.624,4.284 17.624,6.216 C17.624,8.064 16.112,9.66 14.264,9.744 C14.012,10.164 13.676,10.668 13.34,11.088 C12.92,11.592 12.416,12.012 11.66,12.348 C12.164,12.516 12.668,12.6 13.172,12.684 L13.928,12.684 C15.692,12.684 17.456,12.012 18.716,10.668 C18.884,10.5 19.052,10.248 19.22,10.08 L19.304,9.912 L19.304,2.688 L19.304,2.688 Z M19.304,17.052 L19.304,10.836 C19.22,10.92 19.136,11.004 19.052,11.088 C17.708,12.432 15.86,13.272 13.928,13.272 L13.928,13.272 C13.004,13.272 12.164,13.104 11.24,12.768 L10.988,12.6 C10.064,12.936 8.552,13.44 6.536,14.028 C5.36,14.448 5.108,14.448 4.604,14.7 C4.184,14.868 4.1,14.952 3.764,15.288 C3.176,15.876 3.176,17.472 3.932,18.144 C4.184,18.396 4.772,18.648 5.276,18.816 L17.456,18.816 C18.548,18.816 19.304,17.976 19.304,17.052 L19.304,17.052 Z M1.496,10.248 L8.132,10.248 C6.116,7.476 6.536,3.528 8.972,1.008 L9.056,0.924 L3.26,0.924 C2.252,0.924 1.496,1.68 1.496,2.688 L1.496,6.888 C1.664,6.888 1.832,6.804 2,6.804 C1.832,6.636 1.832,6.468 1.832,6.3 C1.832,5.88 2.168,5.544 2.672,5.544 C3.176,5.544 3.512,5.88 3.512,6.3 C3.512,6.468 3.428,6.636 3.344,6.804 C3.848,6.888 4.772,7.308 5.192,7.896 C5.696,8.652 6.2,8.064 6.452,8.568 C6.536,8.736 6.62,8.82 6.788,9.156 C6.872,9.324 6.704,9.576 6.536,9.576 L2.756,9.576 L2.756,9.576 L1.664,9.576 L1.664,10.248 L1.496,10.248 Z M14.6,9.24 C16.028,8.988 17.12,7.728 17.12,6.216 C17.12,4.536 15.776,3.192 14.096,3.192 C12.416,3.192 11.072,4.536 11.072,6.216 C11.072,7.476 11.912,8.652 13.088,9.072 L13.172,9.072 C13.256,8.988 13.256,8.904 13.256,8.82 C13.34,8.736 13.34,8.736 13.34,8.652 C12.248,8.316 11.408,7.308 11.408,6.132 C11.408,4.704 12.584,3.528 14.012,3.528 C15.44,3.528 16.616,4.704 16.616,6.132 C16.616,7.308 15.776,8.4 14.6,8.652 C14.6,8.736 14.6,8.736 14.516,8.82 C14.684,9.072 14.6,9.156 14.6,9.24 L14.6,9.24 Z M15.104,6.972 C15.104,6.552 15.104,6.216 14.852,5.712 C14.516,5.124 14.096,4.536 14.096,4.536 L14.096,4.536 C14.096,4.536 13.676,5.04 13.34,5.712 C13.088,6.216 13.004,6.636 13.088,6.972 C13.088,7.392 13.508,7.98 14.096,7.98 L14.18,7.98 L14.18,7.98 L14.18,7.98 L14.18,7.98 L14.264,7.98 C14.684,7.98 15.104,7.392 15.104,6.972 L15.104,6.972 Z" id="Shape" sketch:type="MSShapeGroup"></path>
                <g id="Shape-+-Shape-+-Shape" transform="translate(0.000000, 20.692308)" sketch:type="MSShapeGroup">
                    <path d="M3.51679987,0.201599993 L4.69279983,0.201599993 L7.91839971,7.72799972 L6.37279977,7.72799972 L5.66719979,6.01439978 L2.40799991,6.01439978 L1.73599994,7.72799972 L0.223999992,7.72799972 L3.51679987,0.201599993 L3.51679987,0.201599993 Z M5.23039981,4.83839982 L4.05439985,1.78079993 L2.87839989,4.83839982 L5.23039981,4.83839982 L5.23039981,4.83839982 Z" id="Shape"></path>
                    <path d="M13.2271995,1.94879993 C12.6895995,1.37759995 12.1519996,1.20959996 11.6479996,1.20959996 C10.1023996,1.20959996 9.06079967,2.38559991 9.06079967,3.89759986 C9.06079967,5.5103998 10.1023996,6.68639975 11.6479996,6.68639975 C12.2527996,6.68639975 12.8239995,6.41759976 13.3279995,5.77919979 L14.4367995,6.55199976 C13.7647995,7.49279973 12.7231995,7.89599971 11.6143996,7.89599971 C9.29599966,7.89599971 7.64959972,6.31679977 7.64959972,3.96479985 C7.64959972,1.57919994 9.32959966,0 11.6479996,0 C12.6559995,0 13.5295995,0.335999988 14.3023995,1.17599996 L13.2271995,1.94879993 L13.2271995,1.94879993 Z" id="Shape"></path>
                    <path d="M15.1087994,0.201599993 L17.6287994,0.201599993 C19.0735993,0.201599993 20.4175993,0.705599974 20.4175993,2.38559991 C20.4175993,4.26719984 19.0063993,4.63679983 17.3935994,4.63679983 L16.4191994,4.63679983 L16.4191994,7.72799972 L15.0751994,7.72799972 L15.0751994,0.201599993 L15.1087994,0.201599993 Z M17.2591994,3.46079987 C18.0319993,3.46079987 19.0063993,3.42719987 19.0063993,2.38559991 C19.0063993,1.44479995 18.1327993,1.34399995 17.3935994,1.34399995 L16.4191994,1.34399995 L16.4191994,3.46079987 L17.2591994,3.46079987 L17.2591994,3.46079987 Z" id="Shape"></path>
                </g>
            </g>
        </g>
    </g>
</svg>