<svg data-name="Layer 1" xmlns="http://www.w3.org/2000/svg" viewBox="0 0 576 576"><path d="M452.88 163.47h105.36L447.12 51.57v106.29a5.7 5.7 0 005.76 5.61z"/><path d="M415.12 157.86V36.47H20.73A21.61 21.61 0 00-.88 58.07v386.8a21.61 21.61 0 0021.61 21.6h62.65l45.05-78A133.5 133.5 0 11343.94 394l32.11 72.44h177.47a21.6 21.6 0 0021.6-21.6V195.47H452.88a37.73 37.73 0 01-37.76-37.61z"/><path d="M299.64 382.91a96 96 0 0032.88-72.56C332.44 258 290 215 237.64 214.27a96.21 96.21 0 00-67.12 166.46L98.69 507.64a7.33 7.33 0 008.31 10.68l44.1-11.9 12.72 44.67a7 7 0 0012.84 1.53l55.89-98.76 43.67 99.33a7.09 7.09 0 0013.08-.24l17.08-43 43.24 16.49a7.08 7.08 0 009-9.46z"/></svg>