<?xml version="1.0" encoding="UTF-8" standalone="no"?>
<svg width="135px" height="40px" viewBox="0 0 135 40" version="1.1" xmlns="http://www.w3.org/2000/svg" xmlns:xlink="http://www.w3.org/1999/xlink" xmlns:sketch="http://www.bohemiancoding.com/sketch/ns">
    <!-- Generator: Sketch 3.5.1 (25234) - http://www.bohemiancoding.com/sketch -->
    <title>google_play</title>
    <desc>Created with Sketch.</desc>
    <defs>
        <linearGradient x1="60.0995717%" y1="91.9797552%" x2="33.5000976%" y2="-59.2459079%" id="linearGradient-1">
            <stop stop-color="#D7E69D" offset="0%"></stop>
            <stop stop-color="#94C4AA" offset="44.56%"></stop>
            <stop stop-color="#01A4B6" offset="100%"></stop>
        </linearGradient>
        <linearGradient x1="-31.9859505%" y1="-128.818008%" x2="80.4721996%" y2="114.258403%" id="linearGradient-2">
            <stop stop-color="#ED277B" offset="0%"></stop>
            <stop stop-color="#EE2F7C" offset="1.92%"></stop>
            <stop stop-color="#F7BD81" offset="70.39%"></stop>
            <stop stop-color="#FEEB74" offset="100%"></stop>
        </linearGradient>
        <linearGradient x1="50.9068572%" y1="74.7179969%" x2="-0.00833083431%" y2="-29.4385912%" id="linearGradient-3">
            <stop stop-color="#89CFBD" offset="0%"></stop>
            <stop stop-color="#7DBEBB" offset="9.07%"></stop>
            <stop stop-color="#457CAC" offset="53.96%"></stop>
            <stop stop-color="#1C5AA2" offset="85.23%"></stop>
            <stop stop-color="#084D9F" offset="100%"></stop>
        </linearGradient>
        <linearGradient x1="119.297308%" y1="35.6799782%" x2="-22.9911292%" y2="61.1851255%" id="linearGradient-4">
            <stop stop-color="#F04A2B" offset="0%"></stop>
            <stop stop-color="#B54F6B" offset="47.04%"></stop>
            <stop stop-color="#8B5191" offset="83.53%"></stop>
            <stop stop-color="#7851A1" offset="100%"></stop>
        </linearGradient>
    </defs>
    <g id="Page-1" stroke="none" stroke-width="1" fill="none" fill-rule="evenodd" sketch:type="MSPage">
        <g id="google_play" sketch:type="MSLayerGroup">
            <path d="M130.198,39.989 L4.729,39.989 C2.122,39.989 0,37.872 0,35.268 L0,4.726 C0,2.12 2.122,0 4.729,0 L130.197,0 C132.801,0 134.926,2.12 134.926,4.726 L134.926,35.268 C134.928,37.872 132.803,39.989 130.198,39.989 L130.198,39.989 L130.198,39.989 Z" id="Shape" fill="#1E2730" sketch:type="MSShapeGroup"></path>
            <g id="Layer_1" transform="translate(8.000000, 5.000000)" sketch:type="MSShapeGroup">
                <g id="Group">
                    <g transform="translate(25.764706, 8.058824)" id="Shape" fill="#FFFFFF">
                        <g>
                            <path d="M60.3434118,14.0495294 L59.3372647,14.9969118 C59.1061765,15.1231765 58.8750882,15.2732647 58.644,15.3772941 C57.9467647,15.6941471 57.2376176,15.7735588 56.6078824,15.7735588 C55.9352647,15.7735588 54.8846471,15.7298824 53.8117941,14.9540294 C52.3196471,13.9042059 51.6692647,12.0999706 51.6692647,10.5260294 C51.6692647,7.26855882 54.3216176,5.67238235 56.4832059,5.67238235 C57.2392059,5.67238235 58.0150588,5.86217647 58.6463824,6.26082353 C59.6962059,6.95408824 59.9677941,7.857 60.1186765,8.33982353 L55.1800588,10.3354412 L53.5616471,10.4609118 C54.0857647,13.1299412 55.8931765,14.6824412 57.8887941,14.6824412 C58.8862059,14.6824412 59.6263235,14.3584412 60.3052941,14.0225294 C60.3045,14.0233235 60.4410882,13.9526471 60.3434118,14.0495294 L60.3434118,14.0495294 Z M57.3638824,8.73847059 C57.7649118,8.59235294 57.9737647,8.46608824 57.9737647,8.17385294 C57.9737647,7.33447059 57.0247941,6.36723529 55.8923824,6.36723529 C55.053,6.36723529 53.4774706,7.02 53.4774706,9.29038235 C53.4774706,9.64297059 53.5195588,10.0209706 53.541,10.3989706 L57.3638824,8.73847059 L57.3638824,8.73847059 Z"></path>
                            <path d="M50.0182941,13.8859412 C50.0182941,14.7022941 50.1644118,14.8293529 50.8545,14.8944706 C51.2142353,14.9365588 51.5731765,14.9548235 51.9297353,14.9985 L51.1522941,15.4598824 L47.4517059,15.4598824 C47.9369118,14.8309412 48.0195,14.7682059 48.0195,14.3497059 L48.0195,13.8787941 L48.0115588,1.3905 L46.3764706,1.3905 L47.9488235,0.632117647 L50.9521765,0.632117647 C50.3017941,1.00932353 50.1064412,1.23802941 50.0222647,1.97258824 L50.0182941,13.8859412 L50.0182941,13.8859412 Z"></path>
                            <path d="M44.2784118,6.70314706 C44.7596471,7.10020588 45.7665882,7.94117647 45.7665882,9.53655882 C45.7665882,11.0914412 44.8898824,11.8252059 44.0052353,12.5200588 C43.7336471,12.7932353 43.4167941,13.0902353 43.4167941,13.5492353 C43.4167941,14.013 43.7336471,14.2639412 43.9631471,14.4537353 L44.7231176,15.0382059 C45.6435,15.8164412 46.4860588,16.5319412 46.4860588,17.9812059 C46.4860588,19.9569706 44.5746176,21.9486176 40.9605882,21.9486176 C37.9159412,21.9486176 36.4444412,20.5009412 36.4444412,18.9468529 C36.4444412,18.1892647 36.8208529,17.118 38.0628529,16.3834412 C39.366,15.5877353 41.1297353,15.4805294 42.0755294,15.4193824 C41.7801176,15.0382059 41.4434118,14.6387647 41.4434118,13.9883824 C41.4434118,13.6318235 41.5514118,13.419 41.6538529,13.1688529 C41.4243529,13.1910882 41.1932647,13.2149118 40.9820294,13.2149118 C38.7537353,13.2149118 37.4926765,11.5504412 37.4926765,9.91535294 C37.4926765,8.94811765 37.935,7.87764706 38.8387059,7.10020588 C40.0362353,6.11391176 41.4648529,5.94317647 42.5972647,5.94317647 L46.926,5.94317647 L45.5823529,6.70314706 L44.2784118,6.70314706 L44.2784118,6.70314706 Z M42.7894412,16.0292647 C42.6171176,16.0078235 42.5130882,16.0078235 42.3066176,16.0078235 C42.1168235,16.0078235 40.9820294,16.0499118 40.1029412,16.3445294 C39.6391765,16.5152647 38.2947353,17.0163529 38.2947353,18.5085 C38.2947353,19.9974706 39.7455882,21.0727059 41.9897647,21.0727059 C44.0068235,21.0727059 45.0780882,20.1054706 45.0780882,18.8047059 C45.0765,17.7310588 44.3840294,17.1648529 42.7894412,16.0292647 L42.7894412,16.0292647 Z M43.3929706,12.0372353 C43.8797647,11.5520294 43.9210588,10.8833824 43.9210588,10.5022059 C43.9210588,8.99258824 43.0205294,6.63882353 41.2742647,6.63882353 C40.7295,6.63882353 40.1394706,6.912 39.8035588,7.33447059 C39.4501765,7.77282353 39.3437647,8.34061765 39.3437647,8.88538235 C39.3437647,10.2917647 40.1632941,12.6256765 41.9675294,12.6256765 C42.4948235,12.6256765 43.0610294,12.3691765 43.3929706,12.0372353 L43.3929706,12.0372353 Z"></path>
                            <path d="M31.2548824,15.7322647 C27.9156176,15.7322647 26.1296471,13.1323235 26.1296471,10.7785588 C26.1296471,8.02773529 28.3754118,5.67317647 31.5693529,5.67317647 C34.6568824,5.67317647 36.5913529,8.09047059 36.5913529,10.6292647 C36.5913529,13.1077059 34.6799118,15.7322647 31.2548824,15.7322647 L31.2548824,15.7322647 Z M33.8818235,14.0320588 C34.3900588,13.3602353 34.5123529,12.5216471 34.5123529,11.7029118 C34.5123529,9.85341176 33.6308824,6.32514706 31.0253824,6.32514706 C30.3329118,6.32514706 29.6356765,6.59594118 29.133,7.03826471 C28.3110882,7.77282353 28.1657647,8.69558824 28.1657647,9.60247059 C28.1657647,11.6775 29.1917647,15.1009412 31.7385,15.1009412 C32.5596176,15.1009412 33.3974118,14.7038824 33.8818235,14.0320588 L33.8818235,14.0320588 Z"></path>
                            <path d="M20.0752941,15.7322647 C16.7352353,15.7322647 14.9524412,13.1323235 14.9524412,10.7785588 C14.9524412,8.02773529 17.1997941,5.67317647 20.3921471,5.67317647 C23.4788824,5.67317647 25.4101765,8.09047059 25.4101765,10.6292647 C25.4101765,13.1077059 23.5019118,15.7322647 20.0752941,15.7322647 L20.0752941,15.7322647 Z M22.7030294,14.0320588 C23.2065,13.3602353 23.3327647,12.5216471 23.3327647,11.7029118 C23.3327647,9.85341176 22.4489118,6.32514706 19.8457941,6.32514706 C19.1509412,6.32514706 18.4600588,6.59594118 17.9565882,7.03826471 C17.1338824,7.77282353 16.9893529,8.69558824 16.9893529,9.60247059 C16.9893529,11.6775 18.0185294,15.1009412 20.5605,15.1009412 C21.3816176,15.1009412 22.2186176,14.7038824 22.7030294,14.0320588 L22.7030294,14.0320588 Z"></path>
                            <path d="M13.6175294,15.0032647 L10.8007941,15.6480882 C9.66044118,15.8291471 8.63602941,15.9871765 7.55126471,15.9871765 C2.1195,15.9871765 0.0492352941,11.9887941 0.0492352941,8.85917647 C0.0492352941,5.03788235 2.98191176,1.49452941 8.00391176,1.49452941 C9.06564706,1.49452941 10.0884706,1.65017647 11.0199706,1.9035 C12.4954412,2.31882353 13.1863235,2.83023529 13.6175294,3.12961765 L11.9808529,4.6845 L11.2907647,4.83697059 L11.7823235,4.05397059 C11.1168529,3.40358824 9.89232353,2.20208824 7.56873529,2.20208824 C4.46135294,2.20208824 2.11791176,4.563 2.11791176,8.01264706 C2.11791176,11.7148235 4.79488235,15.1986176 9.0855,15.1986176 C10.3473529,15.1986176 10.9961471,14.9452941 11.5845882,14.7094412 L11.5845882,11.5345588 L8.61141176,11.6933824 L10.1877353,10.8476471 L14.3600294,10.8476471 L13.8486176,11.3392059 C13.7112353,11.4559412 13.6937647,11.4948529 13.6548529,11.6536765 C13.6342059,11.8339412 13.6151471,12.4025294 13.6151471,12.6034412 L13.6151471,15.0032647 L13.6175294,15.0032647 L13.6175294,15.0032647 Z"></path>
                        </g>
                        <g transform="translate(65.117647, 1.588235)">
                            <path d="M1.28091176,12.5510294 L1.28091176,17.9017941 L0.218382353,17.9017941 L0.218382353,4.28664706 L1.28091176,4.28664706 L1.28091176,5.83597059 C1.97258824,4.83458824 3.23761765,4.04047059 4.70594118,4.04047059 C7.34002941,4.04047059 9.11647059,6.03926471 9.11647059,9.20223529 C9.11647059,12.3453529 7.34161765,14.3854412 4.70594118,14.3854412 C3.32020588,14.3870294 2.07820588,13.6723235 1.28091176,12.5510294 L1.28091176,12.5510294 Z M7.97532353,9.20382353 C7.97532353,6.81908824 6.73252941,5.00055882 4.52726471,5.00055882 C3.15820588,5.00055882 1.85029412,6.07579412 1.28091176,7.01364706 L1.28091176,11.3717647 C1.85029412,12.3112059 3.15820588,13.4269412 4.52726471,13.4269412 C6.73252941,13.4269412 7.97532353,11.5925294 7.97532353,9.20382353 L7.97532353,9.20382353 Z"></path>
                            <path d="M10.5673235,14.1424412 L10.5673235,0.528088235 L11.6314412,0.528088235 L11.6314412,14.1424412 L10.5673235,14.1424412 L10.5673235,14.1424412 Z"></path>
                            <path d="M23.5527353,17.0211176 C23.7790588,17.1227647 24.1665882,17.1855 24.4127647,17.1855 C25.0615588,17.1855 25.5157941,16.9186765 25.9207941,15.9800294 L26.6974412,14.2242353 L22.5116471,4.28664706 L23.6964706,4.28664706 L27.2874706,12.8988529 L30.8435294,4.28664706 L32.0458235,4.28664706 L26.9396471,16.3087941 C26.4107647,17.5484118 25.5769412,18.144 24.4318235,18.144 C24.0879706,18.144 23.6361176,18.0820588 23.3700882,18.0010588 L23.5527353,17.0211176 L23.5527353,17.0211176 Z"></path>
                            <path d="M20.4485294,14.1122647 C20.3770588,13.7692059 20.3246471,13.4690294 20.2857353,13.2172941 C20.2531765,12.9679412 20.2357059,12.7090588 20.2357059,12.4485882 C19.8712059,12.9838235 19.3550294,13.4285294 18.6967059,13.7795294 C18.0367941,14.1313235 17.4102353,14.3052353 16.5494118,14.3052353 C15.5146765,14.3052353 14.7126176,14.0519118 14.1376765,13.5341471 C13.5659118,13.0179706 13.2784412,12.3183529 13.2784412,11.4337059 C13.2784412,10.5490588 13.6953529,9.83197059 14.5252059,9.28561765 C15.3558529,8.73370588 16.4287059,8.46132353 17.7572647,8.46132353 L20.2357059,8.46132353 L20.2357059,7.23520588 C20.2357059,6.52844118 19.9942941,5.97573529 19.5146471,5.57232353 C19.0334118,5.16970588 18.3568235,4.96720588 17.4801176,4.96720588 C16.6780588,4.96720588 16.0284706,5.15223529 15.5345294,5.51435294 C15.0445588,5.88441176 14.7967941,6.34182353 14.7967941,6.89373529 L13.7088529,6.89373529 L13.6882059,6.84132353 C13.6485,6.09644118 13.9883824,5.44367647 14.7134118,4.88064706 C15.4320882,4.31602941 16.3786765,4.03411765 17.5412647,4.03411765 C18.6975,4.03411765 19.6361471,4.31364706 20.3429118,4.86873529 C21.0488824,5.41905882 21.4022647,6.21635294 21.4022647,7.25744118 L21.4022647,12.1190294 C21.4022647,12.4676471 21.4189412,12.8051471 21.4626176,13.1339118 C21.5086765,13.4634706 21.5785588,13.7914412 21.6754412,14.1098824 L20.4485294,14.1122647 L20.4485294,14.1122647 L20.4485294,14.1122647 Z M16.6780588,13.3387941 C17.5809706,13.3387941 18.2289706,13.1370882 18.8928529,12.7376471 C19.5503824,12.3413824 19.9998529,11.8252059 20.2341176,11.1986471 L20.2341176,9.30547059 L17.7437647,9.30547059 C16.7924118,9.30547059 16.0062353,9.51670588 15.3852353,9.94076471 C14.7650294,10.3640294 14.4489706,10.8770294 14.4489706,11.4734118 C14.4489706,12.0356471 14.6490882,12.4835294 15.0445588,12.8242059 C15.4432059,13.1680588 15.9863824,13.3387941 16.6780588,13.3387941 L16.6780588,13.3387941 Z"></path>
                        </g>
                    </g>
                    <g transform="translate(26.000000, 0.000000)" id="Shape" fill="#FFFFFF">
                        <path d="M0.0786666667,3.06733333 C0.0786666667,1.31133333 1.384,0.181333333 3.00666667,0.181333333 C4.094,0.181333333 4.80533333,0.7 5.248,1.33533333 L4.454,1.79533333 C4.15266667,1.378 3.62533333,1.05133333 3.00666667,1.05133333 C1.90266667,1.05133333 1.08266667,1.888 1.08266667,3.06666667 C1.08266667,4.23 1.90266667,5.08266667 3.00666667,5.08266667 C3.57533333,5.08266667 4.07666667,4.82333333 4.328,4.582 L4.328,3.71933333 L2.65533333,3.71933333 L2.65533333,2.858 L5.298,2.858 L5.298,4.94133333 C4.75466667,5.552 3.968,5.962 3.006,5.962 C1.384,5.962 0.0786666667,4.816 0.0786666667,3.06733333 L0.0786666667,3.06733333 Z"></path>
                        <path d="M6.50933333,5.85333333 L6.50933333,0.273333333 L10.332,0.273333333 L10.332,1.13466667 L7.488,1.13466667 L7.488,2.57333333 L10.2733333,2.57333333 L10.2733333,3.43466667 L7.488,3.43466667 L7.488,4.99066667 L10.332,4.99066667 L10.332,5.85266667 L6.50933333,5.85333333 L6.50933333,5.85333333 L6.50933333,5.85333333 Z"></path>
                        <path d="M13.04,5.85333333 L13.04,1.13533333 L11.3506667,1.13533333 L11.3506667,0.274 L15.708,0.274 L15.708,1.13533333 L14.0186667,1.13533333 L14.0186667,5.85333333 L13.04,5.85333333 L13.04,5.85333333 Z"></path>
                        <path d="M19.1093333,5.85333333 L19.1093333,0.273333333 L20.088,0.273333333 L20.088,5.85333333 L19.1093333,5.85333333 L19.1093333,5.85333333 Z"></path>
                        <path d="M22.8126667,5.85333333 L22.8126667,1.13533333 L21.1233333,1.13533333 L21.1233333,0.274 L25.4806667,0.274 L25.4806667,1.13533333 L23.7913333,1.13533333 L23.7913333,5.85333333 L22.8126667,5.85333333 L22.8126667,5.85333333 Z"></path>
                        <path d="M28.64,3.06733333 C28.64,1.40266667 29.8193333,0.181333333 31.4926667,0.181333333 C33.1566667,0.181333333 34.344,1.40266667 34.344,3.06733333 C34.344,4.732 33.1566667,5.95333333 31.4926667,5.95333333 C29.8193333,5.95333333 28.64,4.732 28.64,3.06733333 L28.64,3.06733333 Z M33.3413333,3.06733333 C33.3413333,1.914 32.6133333,1.052 31.494,1.052 C30.3646667,1.052 29.6453333,1.91333333 29.6453333,3.06733333 C29.6453333,4.214 30.3646667,5.08333333 31.494,5.08333333 C32.6133333,5.08333333 33.3413333,4.214 33.3413333,3.06733333 L33.3413333,3.06733333 Z"></path>
                        <path d="M39.3766667,5.85333333 L36.466,1.86333333 L36.466,5.85333333 L35.488,5.85333333 L35.488,0.273333333 L36.492,0.273333333 L39.3426667,4.13733333 L39.3426667,0.273333333 L40.3226667,0.273333333 L40.3226667,5.85333333 L39.3766667,5.85333333 L39.3766667,5.85333333 Z"></path>
                    </g>
                    <g transform="translate(0.352941, 7.264706)" id="Shape">
                        <path d="M11.5861765,11.0318824 L14.9953235,7.62352941 L14.9945294,7.62352941 L11.5861765,11.0318824 L0.707558824,0.152470588 L0.706764706,0.152470588 L11.5861765,11.0334706 L0.689294118,21.9295588 L0.689294118,21.9295588 L11.5861765,11.0334706 L15.0104118,14.4569118 L15.012,14.4569118 L11.5861765,11.0318824 Z"></path>
                        <path d="M14.9945294,7.62352941 L1.71211765,0.320029412 C1.3365,0.114352941 0.987882353,0.0667058824 0.707558824,0.153264706 L11.5869706,11.0318824 L14.9945294,7.62352941 L14.9945294,7.62352941 Z" fill="url(#linearGradient-1)"></path>
                        <path d="M15.012,14.4569118 L19.5456176,11.9625882 C20.4652059,11.4543529 20.4652059,10.6292647 19.5456176,10.125 L14.9953235,7.62352941 L11.5869706,11.0318824 L15.012,14.4569118 L15.012,14.4569118 Z" fill="url(#linearGradient-2)"></path>
                        <path d="M0.706764706,0.152470588 C0.303352941,0.278735294 0.0412941176,0.6885 0.0412941176,1.30711765 L0.0436764706,20.7804706 C0.0436764706,21.3919412 0.297794118,21.7945588 0.689294118,21.9287647 L11.5869706,11.0310882 L0.706764706,0.152470588 L0.706764706,0.152470588 Z" fill="url(#linearGradient-3)"></path>
                        <path d="M0.689294118,21.9295588 C0.972794118,22.0256471 1.32776471,21.9795882 1.71211765,21.7699412 L15.0112059,14.4569118 L11.5869706,11.0326765 L0.689294118,21.9295588 L0.689294118,21.9295588 Z" fill="url(#linearGradient-4)"></path>
                    </g>
                </g>
            </g>
        </g>
    </g>
</svg>