<?xml version="1.0" encoding="UTF-8" standalone="no"?>
<svg width="38px" height="38px" viewBox="0 0 38 38" version="1.1" xmlns="http://www.w3.org/2000/svg" xmlns:xlink="http://www.w3.org/1999/xlink" xmlns:sketch="http://www.bohemiancoding.com/sketch/ns">
    <!-- Generator: Sketch 3.3.2 (12043) - http://www.bohemiancoding.com/sketch -->
    <title>hvc-icon</title>
    <desc>Created with Sketch.</desc>
    <defs></defs>
    <g id="Page-1" stroke="none" stroke-width="1" fill="none" fill-rule="evenodd" sketch:type="MSPage">
        <path d="M5.2,36.9 C4.9,36.9 4.6,36.9 4.3,36.8 C2.4,36.4 1.1,34.7 1.1,32.8 L1.1,5 L1.1,4.3 C1.4,2.1 3.1,0.7 5.3,0.7 L33.1,0.7 C33.4,0.7 33.7,0.7 34,0.8 C36,1.2 37.3,2.9 37.3,4.9 L37.3,32.5 C37.3,32.8 37.3,33 37.2,33.3 C36.9,35.4 35.2,36.9 33.2,36.9 L19.2,36.9 L5.2,36.9 L5.2,36.9 Z" id="Shape" sketch:type="MSShapeGroup"></path>
        <path d="M34.8,23.5 C34.7,27.4 30.9,30.6 26.2,30.6 C21.5,30.6 17.7,27.5 17.6,23.5 L34.8,23.5 L34.8,23.5 Z" id="Shape" fill="#00A0DD" sketch:type="MSShapeGroup"></path>
        <path d="M33.5,23.5 L26.8,13 L19,23.5 L33.5,23.5 Z" id="Shape" sketch:type="MSShapeGroup"></path>
        <path d="M1.7,13 L1.7,13 L1.1,13.8 L1.1,23.5 L8.4,23.5 L1.7,13 L1.7,13 Z" id="Shape" sketch:type="MSShapeGroup"></path>
        <path d="M11.8,30.3 L11.8,16.3 C10.5,15.7 9.5,14.5 9.2,13 L3.2,13 L9.7,23.2 C9.8,23.3 9.8,23.4 9.8,23.5 L9.8,23.5 C9.7,27.4 5.9,30.6 1.2,30.6 L1.2,30.6 L1.2,32.8 C1.2,34.2 1.9,35.5 3,36.2 C6.8,35.6 11.8,34.1 11.8,30.3 L11.8,30.3 Z" id="Shape" sketch:type="MSShapeGroup"></path>
        <path d="M34.2,0.35 C33.9,0.25 33.5,0.25 33.1,0.25 L13.3,0.25 L5.3,0.25 C2.9,0.25 1,1.85 0.7,4.25 C0.7,4.45 0.6,4.75 0.6,4.95 L0.6,32.75 C0.6,34.95 2.1,36.75 4.2,37.25 C4.5,37.35 4.8,37.35 5.2,37.35 L13.6,37.35 L16.4,37.35 L28.5,37.35 L33.2,37.35 C35.5,37.35 37.5,35.65 37.7,33.35 C37.7,33.05 37.8,32.75 37.8,32.45 L37.8,4.85 C37.8,2.65 36.4,0.85 34.2,0.35 L34.2,0.35 Z M1.7,13.15 L1.8,13.05 L8.5,23.55 L1.7,23.55 L1.7,13.15 L1.7,13.15 Z M1.6,32.75 L1.6,30.55 C6,30.35 9.6,27.25 9.7,23.55 L9.7,23.55 C9.7,23.45 9.7,23.35 9.6,23.25 L3.2,13.05 L9.2,13.05 C9.5,14.55 10.5,15.75 11.8,16.35 L11.8,30.35 C11.8,33.95 7.5,35.45 3.8,36.05 C2.5,35.45 1.6,34.25 1.6,32.75 L1.6,32.75 Z M36.8,32.55 L36.8,33.25 C36.6,35.05 35.1,36.35 33.2,36.35 L28.5,36.35 L25.7,36.35 C21.8,35.95 15.2,34.75 15.2,30.25 L15.2,16.25 C16.5,15.65 17.5,14.45 17.8,12.95 L25.2,12.95 L17.6,23.15 C17.5,23.25 17.5,23.35 17.5,23.55 L17.5,23.55 L17.5,23.55 C17.5,23.55 17.5,23.55 17.5,23.65 C17.7,27.55 21.5,30.65 26.1,30.65 C30.8,30.65 34.6,27.55 34.7,23.55 L34.7,23.55 C34.7,23.45 34.7,23.35 34.6,23.25 L27.8,12.45 C27.9,12.25 27.9,12.15 27.9,11.95 C27.9,11.35 27.4,10.85 26.8,10.85 L17.7,10.85 C17.2,8.75 15.4,7.15 13.4,7.15 C11.3,7.15 9.5,8.75 9.1,10.85 L1.6,10.85 L1.6,5.05 L1.6,4.45 C1.9,2.55 3.3,1.25 5.3,1.25 L13.3,1.25 L33.1,1.25 C33.4,1.25 33.7,1.25 33.9,1.35 C35.6,1.75 36.8,3.15 36.8,4.95 L36.8,32.55 L36.8,32.55 Z M26.8,13.05 L26.8,13.05 L33.5,23.55 L19,23.55 L26.8,13.05 L26.8,13.05 Z" id="Shape" fill="#FF7900" sketch:type="MSShapeGroup"></path>
    </g>
</svg>