<?xml version="1.0" encoding="UTF-8" standalone="no"?>
<svg width="38px" height="38px" viewBox="0 0 38 38" version="1.1" xmlns="http://www.w3.org/2000/svg" xmlns:xlink="http://www.w3.org/1999/xlink" xmlns:sketch="http://www.bohemiancoding.com/sketch/ns">
    <!-- Generator: Sketch 3.3.2 (12043) - http://www.bohemiancoding.com/sketch -->
    <title>hvc-icon</title>
    <desc>Created with Sketch.</desc>
    <defs></defs>
    <g id="Page-1" stroke="none" stroke-width="1" fill="none" fill-rule="evenodd" sketch:type="MSPage">
        <path d="M4.3038674,38 C3.98895028,38 3.67403315,38 3.35911602,37.8950276 C1.36464088,37.4751381 -2.84217094e-14,35.6906077 -2.84217094e-14,33.6961326 L-2.84217094e-14,4.51381215 L-2.84217094e-14,3.77900552 C0.314917127,1.46961326 2.09944751,0 4.40883978,0 L33.5911602,0 C33.9060773,0 34.2209945,0 34.5359116,0.104972376 C36.6353591,0.524861878 38,2.30939227 38,4.40883978 L38,33.3812155 C38,33.6961326 38,33.9060773 37.8950276,34.2209945 C37.5801105,36.4254144 35.7955801,38 33.6961326,38 L19,38 L4.3038674,38 L4.3038674,38 Z" id="Shape" fill="#FF7900" sketch:type="MSShapeGroup"></path>
        <path d="M35.1290323,-0.892183288 C34.8064516,-1 34.3763441,-1 33.9462366,-1 L12.655914,-1 L4.05376344,-1 C1.47311828,-1 -0.569892473,0.725067385 -0.892473118,3.31266846 C-0.892473118,3.52830189 -1,3.85175202 -1,4.06738544 L-1,34.0404313 C-1,36.4123989 0.612903226,38.3530997 2.87096774,38.8921833 C3.19354839,39 3.51612903,39 3.94623656,39 L12.9784946,39 L15.9892473,39 L29,39 L34.0537634,39 C36.5268817,39 38.6774194,37.1671159 38.8924731,34.6873315 C38.8924731,34.3638814 39,34.0404313 39,33.7169811 L39,3.95956873 C39,1.58760108 37.4946237,-0.35309973 35.1290323,-0.892183288 L35.1290323,-0.892183288 Z M0.182795699,12.9083558 L0.290322581,12.8005391 L7.49462366,24.1212938 L0.182795699,24.1212938 L0.182795699,12.9083558 L0.182795699,12.9083558 Z M0.0752688172,34.0404313 L0.0752688172,31.6684636 C4.80645161,31.4528302 8.67741935,28.1105121 8.78494624,24.1212938 L8.78494624,24.1212938 C8.78494624,24.0134771 8.78494624,23.9056604 8.67741935,23.7978437 L1.79569892,12.8005391 L8.24731183,12.8005391 C8.56989247,14.4177898 9.64516129,15.7115903 11.0430108,16.3584906 L11.0430108,31.4528302 C11.0430108,35.3342318 6.41935484,36.9514825 2.44086022,37.5983827 C1.04301075,36.9514825 0.0752688172,35.6576819 0.0752688172,34.0404313 L0.0752688172,34.0404313 Z M37.9247312,33.8247978 L37.9247312,34.5795148 C37.7096774,36.5202156 36.0967742,37.9218329 34.0537634,37.9218329 L29,37.9218329 L25.9892473,37.9218329 C21.7956989,37.490566 14.6989247,36.1967655 14.6989247,31.3450135 L14.6989247,16.2506739 C16.0967742,15.6037736 17.172043,14.309973 17.4946237,12.6927224 L25.4516129,12.6927224 L17.2795699,23.690027 C17.172043,23.7978437 17.172043,23.9056604 17.172043,24.1212938 L17.172043,24.1212938 L17.172043,24.1212938 C17.172043,24.1212938 17.172043,24.1212938 17.172043,24.2291105 C17.3870968,28.4339623 21.4731183,31.7762803 26.4193548,31.7762803 C31.4731183,31.7762803 35.5591398,28.4339623 35.6666667,24.1212938 L35.6666667,24.1212938 C35.6666667,24.0134771 35.6666667,23.9056604 35.5591398,23.7978437 L28.2473118,12.1536388 C28.3548387,11.9380054 28.3548387,11.8301887 28.3548387,11.6145553 C28.3548387,10.967655 27.8172043,10.4285714 27.172043,10.4285714 L17.3870968,10.4285714 C16.8494624,8.16442049 14.9139785,6.4393531 12.7634409,6.4393531 C10.5053763,6.4393531 8.56989247,8.16442049 8.13978495,10.4285714 L0.0752688172,10.4285714 L0.0752688172,4.17520216 L0.0752688172,3.52830189 C0.397849462,1.47978437 1.90322581,0.0781671159 4.05376344,0.0781671159 L12.655914,0.0781671159 L33.9462366,0.0781671159 C34.2688172,0.0781671159 34.5913978,0.0781671159 34.8064516,0.185983827 C36.6344086,0.617250674 37.9247312,2.12668464 37.9247312,4.06738544 L37.9247312,33.8247978 L37.9247312,33.8247978 Z M27.172043,12.8005391 L27.172043,12.8005391 L34.3763441,24.1212938 L18.7849462,24.1212938 L27.172043,12.8005391 L27.172043,12.8005391 Z" id="Shape" fill="#FFFFFF" sketch:type="MSShapeGroup"></path>
    </g>
</svg>