<?xml version="1.0" encoding="UTF-8" standalone="no"?>
<svg width="140px" height="140px" viewBox="0 0 140 140" version="1.1" xmlns="http://www.w3.org/2000/svg" xmlns:xlink="http://www.w3.org/1999/xlink" xmlns:sketch="http://www.bohemiancoding.com/sketch/ns">
    <!-- Generator: Sketch 3.3.2 (12043) - http://www.bohemiancoding.com/sketch -->
    <title>icon-section-text</title>
    <desc>Created with Sketch.</desc>
    <defs></defs>
    <g id="Page-1" stroke="none" stroke-width="1" fill="none" fill-rule="evenodd" sketch:type="MSPage">
        <g id="document-copy" sketch:type="MSLayerGroup" transform="translate(0.000000, -0.425473)">
            <circle id="Oval-17-Copy" fill="#FFFFFF" sketch:type="MSShapeGroup" cx="69.8327927" cy="70.0745269" r="68"></circle>
            <path d="M70.2517986,12.5899281 C38.4531942,12.5899281 12.6748369,38.3682853 12.6748369,70.1668897 C12.6748369,101.965494 38.4531942,127.743851 70.2517986,127.743851 C102.050403,127.743851 127.82876,101.965494 127.82876,70.1668897 C127.82876,38.3682853 102.050403,12.5899281 70.2517986,12.5899281 L70.2517986,12.5899281 L70.2517986,12.5899281 Z M70.2517986,0.503597122 L70.2517986,0.503597122 C108.725499,0.503597122 139.915091,31.6931891 139.915091,70.1668897 C139.915091,108.64059 108.725499,139.830182 70.2517986,139.830182 C31.7780979,139.830182 0.588505939,108.64059 0.588505939,70.1668897 C0.588505939,31.6931891 31.7780979,0.503597122 70.2517986,0.503597122 L70.2517986,0.503597122 Z" id="Shape" fill="#E2574C" sketch:type="MSShapeGroup"></path>
            <g id="Imported-Layers" transform="translate(32.985612, 44.483437)" fill="#E2574C" sketch:type="MSShapeGroup">
                <path d="M39.2210218,49.6498606 C39.2433527,49.6383812 39.2657284,49.6270364 39.2881041,49.6156916 C39.3160402,49.601746 39.344021,49.5878901 39.3720019,49.5741687 C39.5119511,49.5064586 39.6534698,49.4422013 39.7971408,49.3826971 C40.0989217,49.25768 40.4086843,49.1520342 40.7239623,49.0666119 C41.1772166,48.943792 41.6417708,48.8628089 42.1098675,48.8250975 C42.3128633,48.8087753 42.5163524,48.8010626 42.7200209,48.8004348 L71.1755815,48.8003003 L71.1755815,3.25492877 C61.8208225,3.25492877 52.4660188,3.22605108 43.1113495,3.25501846 C42.9661539,3.25636369 42.8211825,3.26483867 42.6769734,3.2818783 C42.3913802,3.31559884 42.1095984,3.38088754 41.8382647,3.47617496 C41.484782,3.60034009 41.1494151,3.77548958 40.8455267,3.99471792 C40.5643279,4.19757925 40.3103476,4.43792777 40.0922403,4.70746787 C39.7960198,5.07355095 39.567016,5.49308466 39.41913,5.940106 C39.3337973,6.19798741 39.2754141,6.46474736 39.245236,6.73464619 C39.22999,6.87105294 39.2224119,7.00804263 39.2211115,7.14521168 C39.1772568,21.3133532 39.2210218,35.4816742 39.2210218,49.6498606 L39.2210218,49.6498606 Z M34.9912466,49.6498606 C34.9912466,35.4816742 35.0350116,21.3133532 34.9911569,7.14521168 C34.9909327,7.12095262 34.990574,7.09664872 34.9900359,7.07238967 C34.9864486,6.9433817 34.9772562,6.81468763 34.9613824,6.68662133 C34.9269444,6.40941339 34.8626422,6.13588243 34.7700453,5.8723062 C34.6564178,5.54895673 34.500281,5.24076356 34.3066569,4.95795048 C34.1063515,4.66540688 33.8661375,4.40035089 33.5946693,4.17228884 C33.2277342,3.864006 32.8043441,3.62437494 32.3512693,3.46828292 C32.0718193,3.37200899 31.7815177,3.30757227 31.487584,3.2765422 C31.3494733,3.26196883 31.2108693,3.25533234 31.0720412,3.25492877 L3.03668694,3.25492877 L3.03668694,48.8003003 L31.4922923,48.8004348 C31.695916,48.8010626 31.8993602,48.8087753 32.1023561,48.8250975 C32.5704527,48.8628089 33.0350518,48.943792 33.4883061,49.0666119 C33.8186059,49.1561148 34.1428971,49.2678141 34.4582648,49.4007232 C34.6159711,49.4671329 34.7710766,49.5392823 34.9241643,49.6156916 C34.9465848,49.6270364 34.9689606,49.6383812 34.9912466,49.6498606 L34.9912466,49.6498606 Z M37.0208464,56.4503336 L36.2229431,56.4503336 C36.2228534,56.4209178 36.2225844,56.391502 36.2221359,56.3620862 C36.2215082,56.3327601 36.2206562,56.303434 36.2196697,56.274063 C36.2129883,56.1086441 36.198684,55.9437632 36.1752769,55.7798688 C36.1287767,55.4549051 36.0484214,55.1349187 35.9358253,54.8265462 C35.8036336,54.4644091 35.6270492,54.1185942 35.4112287,53.7991459 C35.2038833,53.492298 34.9604856,53.2100678 34.6875376,52.9598094 C34.4515835,52.7434958 34.1936124,52.5511721 33.9189156,52.3868293 C33.6296005,52.2137874 33.3218558,52.0717306 33.0024523,51.9638877 C32.6727802,51.852592 32.3308217,51.7777521 31.9847826,51.7412514 C31.8195878,51.7238082 31.6537653,51.7156023 31.4877185,51.715109 L0.122012746,51.7149745 L0.122012746,0.340254581 C10.4543534,0.340254581 20.7867389,0.308327688 31.1189898,0.340389104 C31.2036948,0.341151404 31.2883548,0.342989891 31.3730149,0.346666864 C31.5414382,0.35397597 31.7095477,0.367517995 31.8769845,0.387292938 C32.3751696,0.446079675 32.8667182,0.559976174 33.3399716,0.726202285 C33.8908002,0.919736652 34.4164729,1.18412002 34.9002191,1.5109671 C35.3660737,1.82575191 35.7926475,2.19824728 36.1674297,2.61728774 C36.4749951,2.9612193 36.7474948,3.33636029 36.9795477,3.73513256 C37.0231781,3.81019663 37.0654184,3.88606784 37.1061342,3.96270135 C37.140348,3.89835431 37.1755931,3.83450053 37.2118696,3.77127452 C37.4413666,3.37120185 37.7114896,2.99453626 38.0168129,2.64885591 C38.3983214,2.21690119 38.834536,1.83364395 39.3120493,1.5109671 C39.8073197,1.17631766 40.3464896,0.907181132 40.9116674,0.712525737 C41.3860418,0.549124618 41.8783975,0.438232475 42.3770759,0.382494936 C42.544692,0.363751339 42.7129808,0.351240661 42.8815387,0.344962901 C42.9662436,0.341824021 43.0509485,0.340523628 43.1356983,0.340254581 L74.0902557,0.340254581 L74.0902557,51.7149745 C63.6252301,51.7150193 53.1601148,51.6827337 42.6951341,51.7151987 C42.529177,51.7167233 42.363489,51.7259606 42.1985184,51.7443903 C41.8527932,51.7829985 41.5114176,51.8599011 41.182463,51.9732146 C40.8180839,52.0987698 40.469175,52.2688971 40.1459152,52.4787985 C39.8274086,52.685561 39.534013,52.9307972 39.2739792,53.2075119 C39.047935,53.4479949 38.8471812,53.7121541 38.6760226,53.9943394 C38.501187,54.2825783 38.3572469,54.589471 38.2474758,54.9082467 C38.1404848,55.2187716 38.0659588,55.540462 38.0254673,55.8664122 C38.0050197,56.0309792 37.9937646,56.1963533 37.9901325,56.3620862 C37.9896841,56.391502 37.989415,56.4209178 37.9893253,56.4503336 L37.0208464,56.4503336 L37.0208464,56.4503336 Z" id="Fill-1"></path>
                <path d="M31.5791945,43.7852222 C31.5791945,43.1871759 31.0936546,42.7016809 30.4956531,42.7016809 L6.58608749,42.7016809 C5.98808602,42.7016809 5.50259099,43.1871759 5.50259099,43.7852222 C5.50259099,44.3832237 5.98808602,44.8687187 6.58608749,44.8687187 L30.4956531,44.8687187 C31.0936546,44.8687187 31.5791945,44.3832237 31.5791945,43.7852222 L31.5791945,43.7852222 Z M20.4054547,28.3952941 L6.58608749,28.3952941 L6.58608749,40.0864558 L20.4054547,40.0864558 L20.4054547,28.3952941 L20.4054547,28.3952941 Z M31.5791945,39.0029593 C31.5791945,38.404913 31.0936546,37.919418 30.4956531,37.919418 L24.4161809,37.919418 C23.8181794,37.919418 23.3326395,38.404913 23.3326395,39.0029593 C23.3326395,39.6009608 23.8181794,40.0864558 24.4161809,40.0864558 L30.4956531,40.0864558 C31.0936546,40.0864558 31.5791945,39.6009608 31.5791945,39.0029593 L31.5791945,39.0029593 Z M31.5791945,34.2206516 C31.5791945,33.6226501 31.0936546,33.1371551 30.4956531,33.1371551 L24.4161809,33.1371551 C23.8181794,33.1371551 23.3326395,33.6226501 23.3326395,34.2206516 C23.3326395,34.8186979 23.8181794,35.3041929 24.4161809,35.3041929 L30.4956531,35.3041929 C31.0936546,35.3041929 31.5791945,34.8186979 31.5791945,34.2206516 L31.5791945,34.2206516 Z M31.5791945,29.4383887 C31.5791945,28.8403872 31.0936546,28.3548922 30.4956531,28.3548922 L24.4161809,28.3548922 C23.8181794,28.3548922 23.3326395,28.8403872 23.3326395,29.4383887 C23.3326395,30.036435 23.8181794,30.52193 24.4161809,30.52193 L30.4956531,30.52193 C31.0936546,30.52193 31.5791945,30.036435 31.5791945,29.4383887 L31.5791945,29.4383887 Z M31.5791945,24.6561258 C31.5791945,24.0581244 31.0936546,23.5725845 30.4956531,23.5725845 L6.58608749,23.5725845 C5.98808602,23.5725845 5.50259099,24.0581244 5.50259099,24.6561258 C5.50259099,25.2541721 5.98808602,25.7396672 6.58608749,25.7396672 L30.4956531,25.7396672 C31.0936546,25.7396672 31.5791945,25.2541721 31.5791945,24.6561258 L31.5791945,24.6561258 Z M31.5791945,19.8738629 C31.5791945,19.2758615 31.0936546,18.7903216 30.4956531,18.7903216 L6.58608749,18.7903216 C5.98808602,18.7903216 5.50259099,19.2758615 5.50259099,19.8738629 C5.50259099,20.4719092 5.98808602,20.9574043 6.58608749,20.9574043 L30.4956531,20.9574043 C31.0936546,20.9574043 31.5791945,20.4719092 31.5791945,19.8738629 L31.5791945,19.8738629 Z M31.5791945,15.0916 C31.5791945,14.4935986 31.0936546,14.0080587 30.4956531,14.0080587 L6.58608749,14.0080587 C5.98808602,14.0080587 5.50259099,14.4935986 5.50259099,15.0916 C5.50259099,15.6896015 5.98808602,16.1751414 6.58608749,16.1751414 L30.4956531,16.1751414 C31.0936546,16.1751414 31.5791945,15.6896015 31.5791945,15.0916 L31.5791945,15.0916 Z M8.45632181,6.07624371 C10.0865663,6.07624371 11.4100975,7.39977484 11.4100975,9.02997453 C11.4100975,10.6602191 10.0865663,11.9837502 8.45632181,11.9837502 C6.82612212,11.9837502 5.50259099,10.6602191 5.50259099,9.02997453 C5.50259099,7.39977484 6.82612212,6.07624371 8.45632181,6.07624371 L8.45632181,6.07624371 Z M31.5791945,8.46430354 C31.5791945,8.0835574 31.2700596,7.77442258 30.8893135,7.77442258 L14.7248892,7.77442258 C14.344143,7.77442258 14.0350082,8.0835574 14.0350082,8.46430354 L14.0350082,9.84402062 C14.0350082,10.2247667 14.344143,10.5338567 14.7248892,10.5338567 L30.8893135,10.5338567 C31.2700596,10.5338567 31.5791945,10.2247667 31.5791945,9.84402062 L31.5791945,8.46430354 L31.5791945,8.46430354 Z" id="Fill-2"></path>
                <path d="M68.6571236,43.7852222 C68.6571236,43.1871759 68.1715837,42.7016809 67.5735823,42.7016809 L43.6640166,42.7016809 C43.0660152,42.7016809 42.5805201,43.1871759 42.5805201,43.7852222 C42.5805201,44.3832237 43.0660152,44.8687187 43.6640166,44.8687187 L67.5735823,44.8687187 C68.1715837,44.8687187 68.6571236,44.3832237 68.6571236,43.7852222 L68.6571236,43.7852222 L68.6571236,43.7852222 Z M68.6571236,39.0029593 C68.6571236,38.404913 68.1715837,37.919418 67.5735823,37.919418 L43.7663441,37.919418 C43.1682978,37.919418 42.6828028,38.404913 42.6828028,39.0029593 C42.6828028,39.6009608 43.1682978,40.0864558 43.7663441,40.0864558 L67.5735823,40.0864558 C68.1715837,40.0864558 68.6571236,39.6009608 68.6571236,39.0029593 L68.6571236,39.0029593 L68.6571236,39.0029593 Z M68.6571236,34.2206516 C68.6571236,33.6226501 68.1715837,33.1371551 67.5735823,33.1371551 L43.7663441,33.1371551 C43.1682978,33.1371551 42.6828028,33.6226501 42.6828028,34.2206516 C42.6828028,34.8186979 43.1682978,35.3041929 43.7663441,35.3041929 L67.5735823,35.3041929 C68.1715837,35.3041929 68.6571236,34.8186979 68.6571236,34.2206516 L68.6571236,34.2206516 L68.6571236,34.2206516 Z M68.6571236,29.4383887 C68.6571236,28.8403872 68.1715837,28.3548922 67.5735823,28.3548922 L43.7663441,28.3548922 C43.1682978,28.3548922 42.6828028,28.8403872 42.6828028,29.4383887 C42.6828028,30.036435 43.1682978,30.52193 43.7663441,30.52193 L67.5735823,30.52193 C68.1715837,30.52193 68.6571236,30.036435 68.6571236,29.4383887 L68.6571236,29.4383887 L68.6571236,29.4383887 Z M59.8393373,24.6561258 C59.8393373,24.0581244 59.3538423,23.5725845 58.755796,23.5725845 L43.6640166,23.5725845 C43.0660152,23.5725845 42.5805201,24.0581244 42.5805201,24.6561258 C42.5805201,25.2541721 43.0660152,25.7396672 43.6640166,25.7396672 L58.755796,25.7396672 C59.3538423,25.7396672 59.8393373,25.2541721 59.8393373,24.6561258 L59.8393373,24.6561258 L59.8393373,24.6561258 Z M68.6571236,9.17337651 L54.8377564,9.17337651 L54.8377564,20.8645831 L68.6571236,20.8645831 L68.6571236,9.17337651 L68.6571236,9.17337651 Z M51.1023997,15.0916 C51.1023997,14.4935986 50.6168598,14.0080587 50.0188583,14.0080587 L43.6640166,14.0080587 C43.0660152,14.0080587 42.5805201,14.4935986 42.5805201,15.0916 C42.5805201,15.6896015 43.0660152,16.1751414 43.6640166,16.1751414 L50.0188583,16.1751414 C50.6168598,16.1751414 51.1023997,15.6896015 51.1023997,15.0916 L51.1023997,15.0916 L51.1023997,15.0916 Z M51.1023997,20.1275713 C51.1023997,19.5295698 50.6168598,19.0440299 50.0188583,19.0440299 L43.6640166,19.0440299 C43.0660152,19.0440299 42.5805201,19.5295698 42.5805201,20.1275713 C42.5805201,20.7255727 43.0660152,21.2111126 43.6640166,21.2111126 L50.0188583,21.2111126 C50.6168598,21.2111126 51.1023997,20.7255727 51.1023997,20.1275713 L51.1023997,20.1275713 L51.1023997,20.1275713 Z M51.1023997,10.2569178 C51.1023997,9.65887154 50.6168598,9.17337651 50.0188583,9.17337651 L43.6640166,9.17337651 C43.0660152,9.17337651 42.5805201,9.65887154 42.5805201,10.2569178 C42.5805201,10.8549193 43.0660152,11.3404592 43.6640166,11.3404592 L50.0188583,11.3404592 C50.6168598,11.3404592 51.1023997,10.8549193 51.1023997,10.2569178 L51.1023997,10.2569178 L51.1023997,10.2569178 Z" id="Fill-3"></path>
            </g>
        </g>
    </g>
</svg>