<?xml version="1.0" encoding="UTF-8" standalone="no"?>
<svg width="101px" height="109px" viewBox="0 0 101 109" version="1.1" xmlns="http://www.w3.org/2000/svg" xmlns:xlink="http://www.w3.org/1999/xlink" xmlns:sketch="http://www.bohemiancoding.com/sketch/ns">
    <!-- Generator: Sketch 3.3.3 (12072) - http://www.bohemiancoding.com/sketch -->
    <title>icon-line-certification</title>
    <desc>Created with Sketch.</desc>
    <defs></defs>
    <g id="Page-1" stroke="none" stroke-width="1" fill="none" fill-rule="evenodd" sketch:type="MSPage">
        <g id="Desktop-HD" sketch:type="MSArtboardGroup" transform="translate(-220.000000, -3432.000000)">
            <rect id="Rectangle-20" opacity="0.542327425" fill="#EEEEEE" sketch:type="MSShapeGroup" x="-3" y="2023" width="1443" height="1712"></rect>
            <path d="M304.767857,3432.27464 L236.232143,3432.27464 C227.302661,3432.27464 220.034268,3439.5232 220,3448.44366 L220,3448.4653 L220,3448.48514 L220,3448.50678 L220,3448.52843 C220.023446,3454.28002 223.127393,3459.63843 228.114268,3462.52414 C228.976375,3463.02193 230.078357,3462.72795 230.577946,3461.86764 C231.079339,3461.00553 230.78175,3459.90175 229.921446,3459.40396 C226.032946,3457.1513 223.614357,3452.97062 223.607143,3448.48514 C223.619768,3441.53418 229.277571,3435.88178 236.232143,3435.88178 L304.767857,3435.88178 C311.727839,3435.88178 317.392857,3441.545 317.392857,3448.50678 L317.392857,3524.25678 C317.392857,3525.1712 317.13675,3526.08921 316.655196,3526.90803 C316.152,3527.76653 316.436964,3528.87212 317.295464,3529.37712 C317.584036,3529.54666 317.897857,3529.62602 318.208071,3529.62602 C318.826696,3529.62602 319.429089,3529.30859 319.764554,3528.73686 C320.572554,3527.36434 321,3525.81507 321,3524.25678 L321,3448.50678 C321,3439.55566 313.718982,3432.27464 304.767857,3432.27464 Z M250.660714,3461.0903 L257.875,3461.0903 C258.872375,3461.0903 259.678571,3460.2823 259.678571,3459.28673 C259.678571,3458.29116 258.872375,3457.48316 257.875,3457.48316 L250.660714,3457.48316 C249.663339,3457.48316 248.857143,3458.29116 248.857143,3459.28673 C248.857143,3460.2823 249.663339,3461.0903 250.660714,3461.0903 Z M290.339286,3461.0903 C291.336661,3461.0903 292.142857,3460.2823 292.142857,3459.28673 C292.142857,3458.29116 291.336661,3457.48316 290.339286,3457.48316 L286.732143,3457.48316 C285.734768,3457.48316 284.928571,3458.29116 284.928571,3459.28673 C284.928571,3460.2823 285.734768,3461.0903 286.732143,3461.0903 L290.339286,3461.0903 Z M279.517857,3457.48316 L265.089286,3457.48316 C264.091911,3457.48316 263.285714,3458.29116 263.285714,3459.28673 C263.285714,3460.2823 264.091911,3461.0903 265.089286,3461.0903 L279.517857,3461.0903 C280.515232,3461.0903 281.321429,3460.2823 281.321429,3459.28673 C281.321429,3458.29116 280.515232,3457.48316 279.517857,3457.48316 Z M250.660714,3482.73316 L261.482143,3482.73316 C262.479518,3482.73316 263.285714,3481.92516 263.285714,3480.92959 C263.285714,3479.93402 262.479518,3479.12602 261.482143,3479.12602 L250.660714,3479.12602 C249.663339,3479.12602 248.857143,3479.93402 248.857143,3480.92959 C248.857143,3481.92516 249.663339,3482.73316 250.660714,3482.73316 Z M292.142857,3480.92959 C292.142857,3481.92516 292.949054,3482.73316 293.946429,3482.73316 L304.767857,3482.73316 C305.765232,3482.73316 306.571429,3481.92516 306.571429,3480.92959 C306.571429,3479.93402 305.765232,3479.12602 304.767857,3479.12602 L293.946429,3479.12602 C292.949054,3479.12602 292.142857,3479.93402 292.142857,3480.92959 Z M281.321429,3470.10816 C281.321429,3471.10373 282.127625,3471.91173 283.125,3471.91173 L301.160714,3471.91173 C302.158089,3471.91173 302.964286,3471.10373 302.964286,3470.10816 C302.964286,3469.11259 302.158089,3468.30459 301.160714,3468.30459 L283.125,3468.30459 C282.127625,3468.30459 281.321429,3469.11259 281.321429,3470.10816 Z M268.696429,3479.12602 C267.699054,3479.12602 266.892857,3479.93402 266.892857,3480.92959 C266.892857,3481.92516 267.699054,3482.73316 268.696429,3482.73316 L286.732143,3482.73316 C287.729518,3482.73316 288.535714,3481.92516 288.535714,3480.92959 C288.535714,3479.93402 287.729518,3479.12602 286.732143,3479.12602 L268.696429,3479.12602 Z M250.660714,3471.91173 L275.910714,3471.91173 C276.908089,3471.91173 277.714286,3471.10373 277.714286,3470.10816 C277.714286,3469.11259 276.908089,3468.30459 275.910714,3468.30459 L250.660714,3468.30459 C249.663339,3468.30459 248.857143,3469.11259 248.857143,3470.10816 C248.857143,3471.10373 249.663339,3471.91173 250.660714,3471.91173 Z M250.660714,3493.55459 L272.303571,3493.55459 C273.300946,3493.55459 274.107143,3492.74659 274.107143,3491.75102 C274.107143,3490.75545 273.300946,3489.94745 272.303571,3489.94745 L250.660714,3489.94745 C249.663339,3489.94745 248.857143,3490.75545 248.857143,3491.75102 C248.857143,3492.74659 249.663339,3493.55459 250.660714,3493.55459 Z M299.357143,3491.75102 C299.357143,3490.75545 298.550946,3489.94745 297.553571,3489.94745 L279.517857,3489.94745 C278.520482,3489.94745 277.714286,3490.75545 277.714286,3491.75102 C277.714286,3492.74659 278.520482,3493.55459 279.517857,3493.55459 L297.553571,3493.55459 C298.550946,3493.55459 299.357143,3492.74659 299.357143,3491.75102 Z M310.178571,3515.19745 C310.178571,3509.22943 305.325161,3504.37602 299.357143,3504.37602 C293.389125,3504.37602 288.535714,3509.22943 288.535714,3515.19745 C288.535714,3521.16546 293.389125,3526.01887 299.357143,3526.01887 C305.325161,3526.01887 310.178571,3521.16546 310.178571,3515.19745 Z M299.357143,3522.41173 C295.378464,3522.41173 292.142857,3519.17612 292.142857,3515.19745 C292.142857,3511.21877 295.378464,3507.98316 299.357143,3507.98316 C303.335821,3507.98316 306.571429,3511.21877 306.571429,3515.19745 C306.571429,3519.17612 303.335821,3522.41173 299.357143,3522.41173 Z M311.311214,3524.85557 C310.811625,3523.99166 309.706036,3523.69587 308.847536,3524.19546 C307.983625,3524.69325 307.687839,3525.79703 308.185625,3526.65914 L312.08675,3533.40991 L310.972143,3533.47664 C310.405821,3533.51091 309.888196,3533.8103 309.574375,3534.28284 L308.961161,3535.21348 L305.097911,3528.51862 C304.596518,3527.65652 303.492732,3527.36073 302.632429,3527.85852 C301.770321,3528.3563 301.474536,3529.46009 301.972321,3530.3222 L307.296464,3539.54386 C307.610286,3540.08493 308.182018,3540.4258 308.80425,3540.44564 L308.860161,3540.44564 C309.462554,3540.44564 310.030679,3540.14264 310.366143,3539.63584 L312.090357,3537.02427 L315.214143,3536.83489 C315.839982,3536.79882 316.399089,3536.43991 316.694875,3535.88982 C316.990661,3535.33973 316.979839,3534.67421 316.669625,3534.13314 L311.311214,3524.85557 Z M296.101696,3527.82425 C295.241393,3527.32646 294.137607,3527.62225 293.638018,3528.48436 L289.754929,3535.21348 L289.138107,3534.28284 C288.826089,3533.8085 288.308464,3533.50911 287.742143,3533.47664 L286.627536,3533.40991 L290.575554,3526.57437 C291.073339,3525.71227 290.777554,3524.60848 289.915446,3524.1107 C289.053339,3523.61111 287.949554,3523.90689 287.449964,3524.7708 L282.044661,3534.13314 C281.732643,3534.67421 281.723625,3535.33973 282.019411,3535.88982 C282.315196,3536.43991 282.874304,3536.79882 283.500143,3536.83489 L286.625732,3537.02246 L288.35175,3539.63584 C288.685411,3540.14264 289.251732,3540.44564 289.855929,3540.44564 L289.911839,3540.44564 C290.534071,3540.4258 291.105804,3540.08493 291.419625,3539.54386 L296.763607,3530.28793 C297.261393,3529.42582 296.965607,3528.32203 296.101696,3527.82425 Z M250.851893,3516.00364 C251.295571,3516.89461 252.379518,3517.25532 253.270482,3516.81164 C254.161446,3516.36616 254.523964,3515.28221 254.076679,3514.39125 C252.291143,3510.82018 251.89075,3507.61703 253.00175,3505.81887 C253.593321,3504.86118 254.624964,3504.37602 256.071429,3504.37602 C256.931732,3504.37602 257.252768,3504.6718 257.454768,3504.96037 C258.798429,3506.89741 257.5215,3512.79689 256.185054,3516.36796 C255.887464,3517.16334 256.185054,3518.05791 256.899268,3518.51782 C257.609875,3518.97412 258.549536,3518.87493 259.150125,3518.27614 C259.92025,3517.50782 260.755304,3516.7413 261.482143,3516.11907 L261.482143,3517.00102 C261.482143,3517.72966 261.920411,3518.38796 262.594946,3518.66571 C263.269482,3518.94707 264.043214,3518.79196 264.560839,3518.27614 C265.385071,3517.45371 266.340964,3516.64752 267.145357,3516.06677 C267.123714,3516.11186 267.102071,3516.15514 267.080429,3516.19662 C266.804482,3516.75573 266.835143,3517.41945 267.163393,3517.9497 C267.493446,3518.47995 268.072393,3518.80459 268.696429,3518.80459 L275.910714,3518.80459 C276.908089,3518.80459 277.714286,3517.99659 277.714286,3517.00102 C277.714286,3516.00545 276.908089,3515.19745 275.910714,3515.19745 L271.216018,3515.19745 C271.362107,3514.33895 271.326036,3513.46602 270.891375,3512.76262 C270.431464,3512.01775 269.630679,3511.5903 268.696429,3511.5903 C267.581821,3511.5903 266.270625,3512.26845 265.073054,3513.10891 C264.981071,3512.32255 264.51575,3511.67507 263.80875,3511.38289 C263.327196,3511.1845 262.706768,3510.92478 261.200786,3511.82837 C261.794161,3508.72082 261.967304,3505.13893 260.419839,3502.90611 C259.7435,3501.93037 258.441321,3500.76887 256.071429,3500.76887 C253.369679,3500.76887 251.189161,3501.88889 249.932071,3503.92332 C248.133911,3506.83428 248.467571,3511.2368 250.851893,3516.00364 Z M277.714286,3529.62602 L243.446429,3529.62602 C240.463321,3529.62602 238.035714,3527.19841 238.035714,3524.2153 L238.035714,3441.25102 C238.035714,3440.25545 237.229518,3439.44745 236.232143,3439.44745 C231.259696,3439.44745 227.214286,3443.49286 227.214286,3448.4653 C227.214286,3449.46087 228.020482,3450.26887 229.017857,3450.26887 C230.015232,3450.26887 230.821429,3449.46087 230.821429,3448.4653 C230.821429,3446.11345 232.329214,3444.10787 234.428571,3443.363 L234.428571,3524.2153 C234.428571,3529.18775 238.473982,3533.23316 243.446429,3533.23316 L277.714286,3533.23316 C278.711661,3533.23316 279.517857,3532.42516 279.517857,3531.42959 C279.517857,3530.43402 278.711661,3529.62602 277.714286,3529.62602 Z" id="Fill-1" fill="#95519E" sketch:type="MSShapeGroup"></path>
        </g>
    </g>
</svg>