<?xml version="1.0" encoding="UTF-8" standalone="no"?>
<svg width="109px" height="109px" viewBox="0 0 109 109" version="1.1" xmlns="http://www.w3.org/2000/svg" xmlns:xlink="http://www.w3.org/1999/xlink" xmlns:sketch="http://www.bohemiancoding.com/sketch/ns">
    <!-- Generator: Sketch 3.3.3 (12072) - http://www.bohemiancoding.com/sketch -->
    <title>icon-line-network</title>
    <desc>Created with Sketch.</desc>
    <defs></defs>
    <g id="Page-1" stroke="none" stroke-width="1" fill="none" fill-rule="evenodd" sketch:type="MSPage">
        <g id="Desktop-HD" sketch:type="MSArtboardGroup" transform="translate(-223.000000, -3041.000000)">
            <rect id="Rectangle-20" opacity="0.542327425" fill="#EEEEEE" sketch:type="MSShapeGroup" x="-3" y="2023" width="1443" height="1712"></rect>
            <path d="M264.9,3077.23316 L290.1,3077.23316 C292.0836,3077.23316 293.7,3075.61856 293.7,3073.63316 L293.7,3044.83316 C293.7,3042.84776 292.0836,3041.23316 290.1,3041.23316 L264.9,3041.23316 C262.9146,3041.23316 261.3,3042.84776 261.3,3044.83316 L261.3,3073.63316 C261.3,3075.61856 262.9146,3077.23316 264.9,3077.23316 L264.9,3077.23316 L264.9,3077.23316 Z M264.9,3044.83316 L290.1,3044.83316 L290.1018,3073.63316 L264.9,3073.63316 L264.9,3044.83316 Z M284.7,3059.23316 L270.3,3059.23316 C269.3046,3059.23316 268.5,3060.03956 268.5,3061.03316 C268.5,3062.02676 269.3046,3062.83316 270.3,3062.83316 L284.7,3062.83316 C285.6954,3062.83316 286.5,3062.02676 286.5,3061.03316 C286.5,3060.03956 285.6954,3059.23316 284.7,3059.23316 Z M284.7,3066.43316 L270.3,3066.43316 C269.3046,3066.43316 268.5,3067.23956 268.5,3068.23316 C268.5,3069.22676 269.3046,3070.03316 270.3,3070.03316 L284.7,3070.03316 C285.6954,3070.03316 286.5,3069.22676 286.5,3068.23316 C286.5,3067.23956 285.6954,3066.43316 284.7,3066.43316 Z M270.3,3055.63316 L277.5,3055.63316 C278.4954,3055.63316 279.3,3054.82676 279.3,3053.83316 C279.3,3052.83956 278.4954,3052.03316 277.5,3052.03316 L270.3,3052.03316 C269.3046,3052.03316 268.5,3052.83956 268.5,3053.83316 C268.5,3054.82676 269.3046,3055.63316 270.3,3055.63316 Z M327.9,3113.23316 L302.7,3113.23316 C300.7146,3113.23316 299.1,3114.84776 299.1,3116.83316 L299.1,3145.63316 C299.1,3147.61856 300.7146,3149.23316 302.7,3149.23316 L327.9,3149.23316 C329.8836,3149.23316 331.5,3147.61856 331.5,3145.63316 L331.5,3116.83316 C331.5,3114.84776 329.8836,3113.23316 327.9,3113.23316 Z M302.7,3145.63316 L302.7,3116.83316 L327.9,3116.83316 L327.9018,3145.63316 L302.7,3145.63316 Z M322.5,3131.23316 L308.1,3131.23316 C307.1046,3131.23316 306.3,3132.03956 306.3,3133.03316 C306.3,3134.02676 307.1046,3134.83316 308.1,3134.83316 L322.5,3134.83316 C323.4954,3134.83316 324.3,3134.02676 324.3,3133.03316 C324.3,3132.03956 323.4954,3131.23316 322.5,3131.23316 Z M322.5,3138.43316 L308.1,3138.43316 C307.1046,3138.43316 306.3,3139.23956 306.3,3140.23316 C306.3,3141.22676 307.1046,3142.03316 308.1,3142.03316 L322.5,3142.03316 C323.4954,3142.03316 324.3,3141.22676 324.3,3140.23316 C324.3,3139.23956 323.4954,3138.43316 322.5,3138.43316 Z M308.1,3127.63316 L315.3,3127.63316 C316.2954,3127.63316 317.1,3126.82676 317.1,3125.83316 C317.1,3124.83956 316.2954,3124.03316 315.3,3124.03316 L308.1,3124.03316 C307.1046,3124.03316 306.3,3124.83956 306.3,3125.83316 C306.3,3126.82676 307.1046,3127.63316 308.1,3127.63316 Z M252.3,3113.23316 L227.1,3113.23316 C225.1146,3113.23316 223.5,3114.84776 223.5,3116.83316 L223.5,3145.63316 C223.5,3147.61856 225.1146,3149.23316 227.1,3149.23316 L252.3,3149.23316 C254.2836,3149.23316 255.9,3147.61856 255.9,3145.63316 L255.9,3116.83316 C255.9,3114.84776 254.2836,3113.23316 252.3,3113.23316 Z M227.1,3145.63316 L227.1,3116.83316 L252.3,3116.83316 L252.3018,3145.63316 L227.1,3145.63316 Z M246.9,3131.23316 L232.5,3131.23316 C231.5046,3131.23316 230.7,3132.03956 230.7,3133.03316 C230.7,3134.02676 231.5046,3134.83316 232.5,3134.83316 L246.9,3134.83316 C247.8954,3134.83316 248.7,3134.02676 248.7,3133.03316 C248.7,3132.03956 247.8954,3131.23316 246.9,3131.23316 Z M246.9,3138.43316 L232.5,3138.43316 C231.5046,3138.43316 230.7,3139.23956 230.7,3140.23316 C230.7,3141.22676 231.5046,3142.03316 232.5,3142.03316 L246.9,3142.03316 C247.8954,3142.03316 248.7,3141.22676 248.7,3140.23316 C248.7,3139.23956 247.8954,3138.43316 246.9,3138.43316 Z M232.5,3127.63316 L239.7,3127.63316 C240.6954,3127.63316 241.5,3126.82676 241.5,3125.83316 C241.5,3124.83956 240.6954,3124.03316 239.7,3124.03316 L232.5,3124.03316 C231.5046,3124.03316 230.7,3124.83956 230.7,3125.83316 C230.7,3126.82676 231.5046,3127.63316 232.5,3127.63316 Z M295.7682,3108.91136 L279.3,3099.58376 L279.3,3082.63316 C279.3,3081.63956 278.4954,3080.83316 277.5,3080.83316 C276.5046,3080.83316 275.7,3081.63956 275.7,3082.63316 L275.7,3099.58016 L259.0698,3108.90776 C258.2022,3109.39376 257.8926,3110.48996 258.3804,3111.35756 C258.7098,3111.94616 259.3218,3112.27736 259.9518,3112.27736 C260.2506,3112.27736 260.5512,3112.20356 260.8302,3112.04696 L277.4946,3102.69956 L293.9934,3112.04336 C294.2742,3112.20176 294.5784,3112.27736 294.879,3112.27736 C295.5072,3112.27736 296.1174,3111.94976 296.4468,3111.36296 C296.9382,3110.49896 296.634,3109.40096 295.7682,3108.91136 Z" id="Fill-1" fill="#26A6D1" sketch:type="MSShapeGroup"></path>
        </g>
    </g>
</svg>