<?xml version="1.0" encoding="UTF-8" standalone="no"?>
<svg width="109px" height="109px" viewBox="0 0 109 109" version="1.1" xmlns="http://www.w3.org/2000/svg" xmlns:xlink="http://www.w3.org/1999/xlink" xmlns:sketch="http://www.bohemiancoding.com/sketch/ns">
    <!-- Generator: Sketch 3.3.3 (12072) - http://www.bohemiancoding.com/sketch -->
    <title>icon-line-tools</title>
    <desc>Created with Sketch.</desc>
    <defs></defs>
    <g id="Page-1" stroke="none" stroke-width="1" fill="none" fill-rule="evenodd" sketch:type="MSPage">
        <g id="Desktop-HD" sketch:type="MSArtboardGroup" transform="translate(-214.000000, -2669.000000)">
            <rect id="Rectangle-20" opacity="0.542327425" fill="#EEEEEE" sketch:type="MSShapeGroup" x="-3" y="2023" width="1443" height="1712"></rect>
            <path d="M281.1,2734.03316 L219.9,2734.03316 C216.9228,2734.03316 214.5,2736.45596 214.5,2739.43316 L214.5,2771.83316 C214.5,2774.81036 216.9228,2777.23316 219.9,2777.23316 L281.1,2777.23316 C284.0772,2777.23316 286.5,2774.81036 286.5,2771.83316 L286.5,2739.43316 C286.5,2736.45596 284.0772,2734.03316 281.1,2734.03316 L281.1,2734.03316 L281.1,2734.03316 Z M282.9,2771.83316 C282.9,2772.82496 282.0918,2773.63316 281.1,2773.63316 L219.9,2773.63316 C218.9082,2773.63316 218.1,2772.82496 218.1,2771.83316 L218.1,2739.43316 C218.1,2738.44136 218.9082,2737.63316 219.9,2737.63316 L281.1,2737.63316 C282.0918,2737.63316 282.9,2738.44136 282.9,2739.43316 L282.9,2771.83316 Z M227.1,2730.43316 C230.0772,2730.43316 232.5,2728.01036 232.5,2725.03316 L232.5,2678.23316 C232.5,2677.96136 232.4298,2677.70936 232.3218,2677.47896 C232.3146,2677.46276 232.3182,2677.44476 232.3092,2677.42856 L228.7092,2670.22856 C228.1008,2669.00816 226.0992,2669.00816 225.489,2670.22856 L221.889,2677.42856 C221.8818,2677.44476 221.8854,2677.46276 221.8782,2677.47896 C221.7702,2677.70936 221.7,2677.96136 221.7,2678.23316 L221.7,2725.03316 C221.7,2728.01036 224.1228,2730.43316 227.1,2730.43316 Z M225.3,2680.03316 L228.9,2680.03316 L228.9,2719.63316 L225.3,2719.63316 L225.3,2680.03316 L225.3,2680.03316 Z M227.1,2726.83316 C226.1082,2726.83316 225.3,2726.02496 225.3,2725.03316 L225.3,2723.23316 L228.9,2723.23316 L228.9,2725.03316 C228.9,2726.02496 228.0918,2726.83316 227.1,2726.83316 L227.1,2726.83316 L227.1,2726.83316 Z M227.7876,2676.43316 L226.4124,2676.43316 L227.1,2675.05796 L227.7876,2676.43316 Z M317.1,2669.23316 L248.7,2669.23316 C245.7228,2669.23316 243.3,2671.65596 243.3,2674.63316 L243.3,2728.63316 C243.3,2729.62676 244.1064,2730.43316 245.1,2730.43316 C246.0936,2730.43316 246.9,2729.62676 246.9,2728.63316 L246.9,2674.63316 C246.9,2673.64136 247.7082,2672.83316 248.7,2672.83316 L317.1,2672.83316 C318.0918,2672.83316 318.9,2673.64136 318.9,2674.63316 L318.9,2735.83316 C318.9,2736.82676 319.7064,2737.63316 320.7,2737.63316 C321.6936,2737.63316 322.5,2736.82676 322.5,2735.83316 L322.5,2674.63316 C322.5,2671.65596 320.0772,2669.23316 317.1,2669.23316 Z M264.9,2698.03316 C268.8708,2698.03316 272.1,2694.80396 272.1,2690.83316 C272.1,2686.86236 268.8708,2683.63316 264.9,2683.63316 C260.9292,2683.63316 257.7,2686.86236 257.7,2690.83316 C257.7,2694.80396 260.9292,2698.03316 264.9,2698.03316 Z M264.9,2687.23316 C266.8854,2687.23316 268.5,2688.84776 268.5,2690.83316 C268.5,2692.81856 266.8854,2694.43316 264.9,2694.43316 C262.9146,2694.43316 261.3,2692.81856 261.3,2690.83316 C261.3,2688.84776 262.9146,2687.23316 264.9,2687.23316 Z M232.5,2744.83316 C228.5292,2744.83316 225.3,2748.06236 225.3,2752.03316 C225.3,2756.00396 228.5292,2759.23316 232.5,2759.23316 C236.4708,2759.23316 239.7,2756.00396 239.7,2752.03316 C239.7,2748.06236 236.4708,2744.83316 232.5,2744.83316 Z M232.5,2755.63316 C230.5146,2755.63316 228.9,2754.01856 228.9,2752.03316 C228.9,2750.04776 230.5146,2748.43316 232.5,2748.43316 C234.4854,2748.43316 236.1,2750.04776 236.1,2752.03316 C236.1,2754.01856 234.4854,2755.63316 232.5,2755.63316 Z M288.3,2687.23316 L302.7,2687.23316 C303.6936,2687.23316 304.5,2686.42676 304.5,2685.43316 C304.5,2684.43956 303.6936,2683.63316 302.7,2683.63316 L288.3,2683.63316 C287.3064,2683.63316 286.5,2684.43956 286.5,2685.43316 C286.5,2686.42676 287.3064,2687.23316 288.3,2687.23316 Z M288.3,2694.43316 L306.3,2694.43316 C307.2936,2694.43316 308.1,2693.62676 308.1,2692.63316 C308.1,2691.63956 307.2936,2690.83316 306.3,2690.83316 L288.3,2690.83316 C287.3064,2690.83316 286.5,2691.63956 286.5,2692.63316 C286.5,2693.62676 287.3064,2694.43316 288.3,2694.43316 Z M259.5,2712.43316 L273.9,2712.43316 C274.8936,2712.43316 275.7,2711.62676 275.7,2710.63316 C275.7,2709.63956 274.8936,2708.83316 273.9,2708.83316 L259.5,2708.83316 C258.5064,2708.83316 257.7,2709.63956 257.7,2710.63316 C257.7,2711.62676 258.5064,2712.43316 259.5,2712.43316 Z M259.5,2723.23316 L284.7,2723.23316 C285.6936,2723.23316 286.5,2722.42676 286.5,2721.43316 C286.5,2720.43956 285.6936,2719.63316 284.7,2719.63316 L259.5,2719.63316 C258.5064,2719.63316 257.7,2720.43956 257.7,2721.43316 C257.7,2722.42676 258.5064,2723.23316 259.5,2723.23316 Z M259.5,2730.43316 L273.9,2730.43316 C274.8936,2730.43316 275.7,2729.62676 275.7,2728.63316 C275.7,2727.63956 274.8936,2726.83316 273.9,2726.83316 L259.5,2726.83316 C258.5064,2726.83316 257.7,2727.63956 257.7,2728.63316 C257.7,2729.62676 258.5064,2730.43316 259.5,2730.43316 Z M306.3,2719.63316 L291.9,2719.63316 C290.9064,2719.63316 290.1,2720.43956 290.1,2721.43316 C290.1,2722.42676 290.9064,2723.23316 291.9,2723.23316 L306.3,2723.23316 C307.2936,2723.23316 308.1,2722.42676 308.1,2721.43316 C308.1,2720.43956 307.2936,2719.63316 306.3,2719.63316 Z M279.3,2728.63316 C279.3,2729.62676 280.1064,2730.43316 281.1,2730.43316 L302.7,2730.43316 C303.6936,2730.43316 304.5,2729.62676 304.5,2728.63316 C304.5,2727.63956 303.6936,2726.83316 302.7,2726.83316 L281.1,2726.83316 C280.1064,2726.83316 279.3,2727.63956 279.3,2728.63316 Z M248.7,2748.43316 L259.5,2748.43316 C260.4936,2748.43316 261.3,2747.62676 261.3,2746.63316 C261.3,2745.63956 260.4936,2744.83316 259.5,2744.83316 L248.7,2744.83316 C247.7064,2744.83316 246.9,2745.63956 246.9,2746.63316 C246.9,2747.62676 247.7064,2748.43316 248.7,2748.43316 Z M248.7,2755.63316 L263.1,2755.63316 C264.0936,2755.63316 264.9,2754.82676 264.9,2753.83316 C264.9,2752.83956 264.0936,2752.03316 263.1,2752.03316 L248.7,2752.03316 C247.7064,2752.03316 246.9,2752.83956 246.9,2753.83316 C246.9,2754.82676 247.7064,2755.63316 248.7,2755.63316 Z M273.9,2762.83316 L248.7,2762.83316 C247.7064,2762.83316 246.9,2763.63956 246.9,2764.63316 C246.9,2765.62676 247.7064,2766.43316 248.7,2766.43316 L273.9,2766.43316 C274.8936,2766.43316 275.7,2765.62676 275.7,2764.63316 C275.7,2763.63956 274.8936,2762.83316 273.9,2762.83316 Z M317.1,2741.23316 L306.3,2741.23316 C303.3228,2741.23316 300.9,2743.65596 300.9,2746.63316 L300.9,2771.83316 C300.9,2774.81036 303.3228,2777.23316 306.3,2777.23316 L317.1,2777.23316 C320.0772,2777.23316 322.5,2774.81036 322.5,2771.83316 L322.5,2746.63316 C322.5,2743.65596 320.0772,2741.23316 317.1,2741.23316 Z M318.9,2771.83316 C318.9,2772.82496 318.0918,2773.63316 317.1,2773.63316 L306.3,2773.63316 C305.3082,2773.63316 304.5,2772.82496 304.5,2771.83316 L304.5,2746.63316 C304.5,2745.64136 305.3082,2744.83316 306.3,2744.83316 L317.1,2744.83316 C318.0918,2744.83316 318.9,2745.64136 318.9,2746.63316 L318.9,2771.83316 Z M295.5,2773.63316 L291.9,2773.63316 C290.9064,2773.63316 290.1,2774.43956 290.1,2775.43316 C290.1,2776.42676 290.9064,2777.23316 291.9,2777.23316 L295.5,2777.23316 C296.4936,2777.23316 297.3,2776.42676 297.3,2775.43316 C297.3,2774.43956 296.4936,2773.63316 295.5,2773.63316 Z M306.3,2734.03316 L291.9,2734.03316 C290.9064,2734.03316 290.1,2734.83956 290.1,2735.83316 C290.1,2736.82676 290.9064,2737.63316 291.9,2737.63316 L306.3,2737.63316 C307.2936,2737.63316 308.1,2736.82676 308.1,2735.83316 C308.1,2734.83956 307.2936,2734.03316 306.3,2734.03316 Z M295.5,2741.23316 L291.9,2741.23316 C290.9064,2741.23316 290.1,2742.03956 290.1,2743.03316 C290.1,2744.02676 290.9064,2744.83316 291.9,2744.83316 L295.5,2744.83316 C296.4936,2744.83316 297.3,2744.02676 297.3,2743.03316 C297.3,2742.03956 296.4936,2741.23316 295.5,2741.23316 Z M295.5,2748.43316 L291.9,2748.43316 C290.9064,2748.43316 290.1,2749.23956 290.1,2750.23316 C290.1,2751.22676 290.9064,2752.03316 291.9,2752.03316 L295.5,2752.03316 C296.4936,2752.03316 297.3,2751.22676 297.3,2750.23316 C297.3,2749.23956 296.4936,2748.43316 295.5,2748.43316 Z M311.7,2755.63316 C309.7146,2755.63316 308.1,2757.24776 308.1,2759.23316 C308.1,2761.21856 309.7146,2762.83316 311.7,2762.83316 C313.6854,2762.83316 315.3,2761.21856 315.3,2759.23316 C315.3,2757.24776 313.6854,2755.63316 311.7,2755.63316 Z" id="Fill-1" fill="#3DB39E" sketch:type="MSShapeGroup"></path>
        </g>
    </g>
</svg>