<?xml version="1.0" encoding="UTF-8" standalone="no"?>
<svg width="60px" height="60px" viewBox="0 0 60 60" version="1.1" xmlns="http://www.w3.org/2000/svg" xmlns:xlink="http://www.w3.org/1999/xlink" xmlns:sketch="http://www.bohemiancoding.com/sketch/ns">
    <!-- Generator: Sketch 3.4 (15575) - http://www.bohemiancoding.com/sketch -->
    <title>icon-feature-apps</title>
    <desc>Created with Sketch.</desc>
    <defs></defs>
    <g id="Page-1" stroke="none" stroke-width="1" fill="none" fill-rule="evenodd" sketch:type="MSPage">
        <path d="M55,0 L5,0 C2.243,0 0,2.243 0,5 L0,23 C0,23.552 0.447,24 1,24 C1.553,24 2,23.552 2,23 L2,5 C2,3.346 3.346,2 5,2 L55,2 C56.654,2 58,3.346 58,5 L58,31 C58,31.552 58.447,32 59,32 C59.553,32 60,31.552 60,31 L60,5 C60,2.243 57.757,0 55,0 Z M43,34 L29,34 C28.447,34 28,34.448 28,35 C28,35.552 28.447,36 29,36 L43,36 C43.553,36 44,35.552 44,35 C44,34.448 43.553,34 43,34 Z M43,44 L29,44 C28.447,44 28,44.448 28,45 C28,45.552 28.447,46 29,46 L43,46 C43.553,46 44,45.552 44,45 C44,44.448 43.553,44 43,44 Z M30,42 C31.103,42 32,41.103 32,40 C32,38.897 31.103,38 30,38 C28.898,38 28,38.897 28,40 C28,41.103 28.898,42 30,42 Z M53.03,54 L53.019,54 C52.468,54 52.025,54.448 52.025,55 C52.025,55.552 52.477,56 53.03,56 C53.582,56 54.03,55.552 54.03,55 C54.03,54.448 53.582,54 53.03,54 Z M39,54 L36,54 L36,49 C36,48.448 35.553,48 35,48 C34.447,48 34,48.448 34,49 L34,55 C34,55.552 34.447,56 35,56 L39,56 C40.881,56 41.585,57.111 41.847,58 L29,58 C28.447,58 28,58.448 28,59 C28,59.552 28.447,60 29,60 L43,60 C43.553,60 44,59.552 44,59 C44,57.271 42.955,54 39,54 Z M29,56 L31,56 C31.553,56 32,55.552 32,55 C32,54.448 31.553,54 31,54 L29,54 C28.447,54 28,54.448 28,55 C28,55.552 28.447,56 29,56 Z M23,26 L3,26 C1.346,26 0,27.346 0,29 L0,57 C0,58.654 1.346,60 3,60 L23,60 C24.654,60 26,58.654 26,57 L26,29 C26,27.346 24.654,26 23,26 Z M24,57 C24,57.551 23.552,58 23,58 L3,58 C2.448,58 2,57.551 2,57 L2,29 C2,28.449 2.448,28 3,28 L23,28 C23.552,28 24,28.449 24,29 L24,57 Z M57,34 L49,34 C47.346,34 46,35.346 46,37 L46,57 C46,58.654 47.346,60 49,60 L57,60 C58.654,60 60,58.654 60,57 L60,37 C60,35.346 58.654,34 57,34 Z M58,57 C58,57.551 57.552,58 57,58 L49,58 C48.448,58 48,57.551 48,57 L48,37 C48,36.449 48.448,36 49,36 L57,36 C57.552,36 58,36.449 58,37 L58,57 Z M53,10 C53.256,10 53.512,9.902 53.707,9.707 C54.098,9.316 54.098,8.684 53.707,8.293 L51.707,6.293 C51.316,5.902 50.684,5.902 50.293,6.293 C49.902,6.684 49.902,7.316 50.293,7.707 L52.293,9.707 C52.488,9.902 52.744,10 53,10 Z M53,16 C53.256,16 53.512,15.902 53.707,15.707 C54.098,15.316 54.098,14.684 53.707,14.293 L45.707,6.293 C45.316,5.902 44.684,5.902 44.293,6.293 C43.902,6.684 43.902,7.316 44.293,7.707 L52.293,15.707 C52.488,15.902 52.744,16 53,16 Z M13.03,54 L13.019,54 C12.468,54 12.025,54.448 12.025,55 C12.025,55.552 12.477,56 13.03,56 C13.582,56 14.03,55.552 14.03,55 C14.03,54.448 13.582,54 13.03,54 Z" id="Fill-1" fill="#007E66" sketch:type="MSShapeGroup"></path>
    </g>
</svg>