<?xml version="1.0" encoding="UTF-8" standalone="no"?>
<svg width="140px" height="140px" viewBox="0 0 140 140" version="1.1" xmlns="http://www.w3.org/2000/svg" xmlns:xlink="http://www.w3.org/1999/xlink" xmlns:sketch="http://www.bohemiancoding.com/sketch/ns">
    <!-- Generator: Sketch 3.3.2 (12043) - http://www.bohemiancoding.com/sketch -->
    <title>icon-section-submissions</title>
    <desc>Created with Sketch.</desc>
    <defs></defs>
    <g id="Page-1" stroke="none" stroke-width="1" fill="none" fill-rule="evenodd" sketch:type="MSPage">
        <g id="Shape-+-Group-Copy" sketch:type="MSLayerGroup" transform="translate(0.000000, -0.425473)">
            <circle id="Oval-17-Copy-2" fill="#FFFFFF" sketch:type="MSShapeGroup" cx="69.8327927" cy="70.0745269" r="68"></circle>
            <path d="M70,12.5745269 C38.24275,12.5745269 12.5,38.3184269 12.5,70.0745269 C12.5,101.831777 38.2439,127.574527 70,127.574527 C101.7561,127.574527 127.5,101.831777 127.5,70.0745269 C127.5,38.3184269 101.75495,12.5745269 70,12.5745269 L70,12.5745269 L70,12.5745269 Z M70,0.574526875 L70,0.574526875 C108.382727,0.574526875 139.5,31.6913699 139.5,70.0745269 C139.5,108.458834 108.383877,139.574527 70,139.574527 C31.6161229,139.574527 0.5,108.458834 0.5,70.0745269 C0.5,31.6906498 31.6156931,0.574526875 70,0.574526875 L70,0.574526875 Z" id="Shape" fill="#26A6D1" sketch:type="MSShapeGroup"></path>
            <g id="Group-Copy-5" transform="translate(48.000000, 40.574527)" sketch:type="MSShapeGroup">
                <path d="M15.1851,19.7572769 L32.3408,27.6796269 L18.4465,58.8676269 L11.0727,51.9365769 L1.28965,51.9515269 L15.1851,19.7572769 L15.1851,19.7572769 Z" id="Shape" fill="#26A6D1"></path>
                <path d="M36.5134652,37.6244037 L42.70345,51.9423269 L32.603,52.0055769 L24.9187,58.8722269 L21.6696631,51.6327168 L21.6696631,51.6327168 L25.2478074,43.6009942 C25.8082688,43.8631708 26.3535198,44.0236613 26.86335,43.9049769 C28.39745,43.5496269 29.14955,40.9172769 30.533,40.2318769 C31.93945,39.5372769 34.41425,40.5665269 35.6229,39.5786769 C36.1400099,39.1560766 36.358316,38.4229956 36.5134652,37.6244037 Z M25.2475818,43.6008886 L24.4219,45.4540269 C23.60655,44.9986269 22.7797,44.5098769 22,44.5098769 C20.41185,44.5098769 18.6236,46.5373269 17.13665,46.1911769 C15.60255,45.8358269 14.85045,43.2057769 13.467,42.5215269 C12.05825,41.8269269 9.58345,42.8550269 8.3748,41.8683269 C7.51115,41.1622269 7.47665,39.5947769 7.18225,38.2987269 L7.48066148,37.6073505 C7.63608166,38.4125497 7.8540114,39.1530703 8.3748,39.5786769 C9.58345,40.5665269 12.05825,39.5372769 13.467,40.2318769 C14.85045,40.9161269 15.60255,43.5484769 17.13665,43.9049769 C18.62245,44.2511269 20.41185,42.2225269 22,42.2225269 C23.0435483,42.2225269 24.1734917,43.0983945 25.2475818,43.6008886 Z" id="Shape" fill="#1C7C9C"></path>
                <path d="M43.85,22.0745269 C43.85,23.7017769 41.51205,25.0380769 41.1751,26.5595269 C40.82665,28.1315769 42.35615,30.3717769 41.68915,31.7908769 C41.01065,33.2318269 38.34035,33.3974269 37.37435,34.6371269 C36.40375,35.8814269 36.8373,38.5862269 35.6229,39.5786769 C34.41425,40.5665269 31.93945,39.5372769 30.533,40.2318769 C29.14955,40.9172769 28.39745,43.5496269 26.86335,43.9049769 C25.3764,44.2511269 23.58815,42.2225269 22,42.2225269 C20.41185,42.2225269 18.62245,44.2511269 17.13665,43.9049769 C15.60255,43.5484769 14.85045,40.9161269 13.467,40.2318769 C12.05825,39.5372769 9.58345,40.5665269 8.3748,39.5786769 C7.1604,38.5862269 7.5928,35.8814269 6.6245,34.6371269 C5.65965,33.3985769 2.9882,33.2318269 2.3097,31.7908769 C1.64155,30.3729269 3.17335,28.1315769 2.8249,26.5595269 C2.48565,25.0380769 0.15,23.7017769 0.15,22.0745269 C0.15,20.4484269 2.4868,19.1121269 2.8249,17.5895269 C3.17335,16.0174769 1.6427,13.7761269 2.3097,12.3593269 C2.9882,10.9183769 5.65965,10.7516269 6.6245,9.51422688 C7.59395,8.26877688 7.16155,5.56512688 8.3748,4.57152688 C9.58345,3.58367688 12.05825,4.61407688 13.467,3.91832688 C14.85045,3.23292688 15.60255,0.601726875 17.13665,0.245226875 C18.62245,-0.100923125 20.41185,1.92882688 22,1.92882688 C23.58815,1.92882688 25.3764,-0.100923125 26.86335,0.245226875 C28.39745,0.602876875 29.14955,3.23407688 30.533,3.91832688 C31.93945,4.61407688 34.41655,3.58367688 35.6229,4.57267688 C36.83845,5.56627688 36.4049,8.26877688 37.37435,9.51422688 C38.34035,10.7516269 41.01065,10.9183769 41.68915,12.3593269 C42.35615,13.7772769 40.82665,16.0174769 41.1751,17.5895269 C41.51205,19.1121269 43.85,20.4484269 43.85,22.0745269 L43.85,22.0745269 Z" id="Shape" fill="#26A6D1"></path>
                <path d="M22,5.98832688 C13.099,5.98832688 5.8839,13.1930769 5.8839,22.0814269 C5.8839,30.9686269 13.099,38.1733769 22,38.1733769 C30.90215,38.1733769 38.1161,30.9674769 38.1161,22.0814269 C38.1161,13.1930769 30.901,5.98832688 22,5.98832688 L22,5.98832688 L22,5.98832688 Z M22,34.7360269 C15.0195,34.7360269 9.3592,29.0688269 9.3592,22.0814269 C9.3592,15.0917269 15.0195,9.42567688 22,9.42567688 C28.98165,9.42567688 34.63965,15.0917269 34.63965,22.0814269 C34.6385,29.0688269 28.9805,34.7360269 22,34.7360269 L22,34.7360269 L22,34.7360269 Z M22,15.1745269 C18.1889,15.1745269 15.1,18.2634269 15.1,22.0745269 C15.1,25.8844769 18.1889,28.9745269 22,28.9745269 C25.80995,28.9745269 28.9,25.8844769 28.9,22.0745269 C28.9,18.2634269 25.8088,15.1745269 22,15.1745269 L22,15.1745269 L22,15.1745269 Z" id="Shape" fill="#FFFFFF"></path>
            </g>
        </g>
    </g>
</svg>