<?xml version="1.0" encoding="UTF-8" standalone="no"?>
<svg width="109px" height="109px" viewBox="0 0 109 109" version="1.1" xmlns="http://www.w3.org/2000/svg" xmlns:xlink="http://www.w3.org/1999/xlink" xmlns:sketch="http://www.bohemiancoding.com/sketch/ns">
    <!-- Generator: Sketch 3.3.3 (12072) - http://www.bohemiancoding.com/sketch -->
    <title>icon-line-caduceus</title>
    <desc>Created with Sketch.</desc>
    <defs></defs>
    <g id="Page-1" stroke="none" stroke-width="1" fill="none" fill-rule="evenodd" sketch:type="MSPage">
        <g id="Desktop-HD" sketch:type="MSArtboardGroup" transform="translate(-212.000000, -2297.000000)">
            <rect id="Rectangle-20" opacity="0.542327425" fill="#EEEEEE" sketch:type="MSShapeGroup" x="-3" y="2023" width="1443" height="1712"></rect>
            <path d="M268.3,2341.48796 L268.3,2326.88636 C270.271,2325.75056 271.9,2323.95236 271.9,2320.63316 C271.9,2317.90436 270.622,2315.75336 268.3,2314.30616 L268.3,2307.70196 C270.3916,2306.95496 271.9,2304.97676 271.9,2302.63316 C271.9,2299.65596 269.4772,2297.23316 266.5,2297.23316 C263.5228,2297.23316 261.1,2299.65596 261.1,2302.63316 C261.1,2304.97676 262.6084,2306.95496 264.7,2307.70016 L264.7,2312.83376 C263.1196,2312.43776 261.307,2312.22896 259.282,2312.22896 C256.1248,2312.22896 252.991,2312.77616 251.2954,2313.62216 C247.582,2315.47976 241.3,2321.31896 241.3,2331.43316 C241.3,2341.18736 250.5808,2348.72396 250.975,2349.03896 L264.7,2360.01716 L264.7,2372.90696 L259.8274,2378.76056 C259.6582,2378.92976 255.7,2382.95816 255.7,2389.03316 C255.7,2395.54556 260.2432,2397.81716 263.8954,2399.64416 L264.2464,2399.81876 L264.7,2400.04556 L264.7,2403.43316 C264.7,2404.42676 265.5064,2405.23316 266.5,2405.23316 C267.4936,2405.23316 268.3,2404.42676 268.3,2403.43316 L268.3,2401.69076 C269.5294,2402.16236 270.7138,2402.47916 271.7884,2402.47916 C273.5776,2402.47916 274.5964,2401.63136 275.1346,2400.92036 C277.3324,2398.02236 274.8736,2394.62396 272.98,2392.99316 L267.4396,2388.83876 L278.4592,2377.81196 C278.704,2377.60316 284.5,2372.65316 284.5,2365.63316 C284.5,2357.77796 278.8156,2352.00176 278.5726,2351.76056 L268.3,2341.48796 L268.3,2341.48796 Z M266.5,2300.83316 C267.4918,2300.83316 268.3,2301.64136 268.3,2302.63316 C268.3,2303.62496 267.4918,2304.43316 266.5,2304.43316 C265.5082,2304.43316 264.7,2303.62496 264.7,2302.63316 C264.7,2301.64136 265.5082,2300.83316 266.5,2300.83316 L266.5,2300.83316 L266.5,2300.83316 Z M264.7,2337.88796 L260.578,2333.76596 C260.0632,2333.24216 259.3,2332.13876 259.291,2331.51236 C259.4296,2331.06416 260.7256,2330.03816 261.9046,2329.44416 C262.6912,2329.04996 263.6146,2328.74216 264.5938,2328.41636 C264.628,2328.40376 264.6658,2328.39116 264.7,2328.38036 L264.7,2337.88796 L264.7,2337.88796 Z M268.3,2362.89896 L268.885,2363.36696 C269.3962,2363.91236 270.1,2364.95636 270.1,2365.63316 C270.1,2366.33876 269.3368,2367.44216 268.7176,2368.08116 L268.3,2368.58336 L268.3,2362.89896 L268.3,2362.89896 Z M276.0274,2375.16056 L263.4274,2387.76056 C263.0584,2388.12956 262.8676,2388.64076 262.9036,2389.16096 C262.9414,2389.68116 263.2024,2390.15996 263.62,2390.47316 L270.7246,2395.79576 C271.3744,2396.35736 272.7874,2398.05836 272.2654,2398.74596 C272.233,2398.78916 272.1646,2398.87916 271.7884,2398.87916 C270.4078,2398.87916 267.9922,2397.66776 265.8592,2396.60036 L265.5046,2396.42216 C261.658,2394.49976 259.3,2393.11376 259.3,2389.03316 C259.3,2384.48636 262.3474,2381.33276 262.4824,2381.18516 L271.3726,2370.50576 C271.6102,2370.26816 273.7,2368.10816 273.7,2365.63316 C273.7,2363.15996 271.6102,2360.99816 271.3726,2360.76056 C271.3258,2360.71376 271.2754,2360.66876 271.225,2360.62736 L253.225,2346.22916 C253.144,2346.16256 244.9,2339.44136 244.9,2331.43316 C244.9,2323.07576 249.931,2318.32916 252.9046,2316.84416 C253.9144,2316.33836 256.429,2315.82896 259.282,2315.82896 C261.3988,2315.82896 268.3,2316.17456 268.3,2320.63316 C268.3,2323.13696 266.8978,2323.85336 263.4562,2324.99996 C262.4014,2325.35276 261.3088,2325.71636 260.2954,2326.22216 C259.2172,2326.76216 255.7,2328.73136 255.7,2331.43316 C255.7,2333.90816 257.7898,2336.06816 258.0274,2336.30576 L265.15,2343.42836 C265.2112,2343.49856 265.2706,2343.55976 265.3408,2343.62096 L276.0274,2354.30576 C276.076,2354.35436 280.9,2359.25216 280.9,2365.63316 C280.9,2370.95396 276.1858,2375.01656 276.0274,2375.16056 Z M262.0702,2362.62176 C261.1486,2362.24556 260.0992,2362.69016 259.7248,2363.60996 C259.4422,2364.30296 259.3,2364.98336 259.3,2365.63316 C259.3,2366.64476 259.6456,2367.71576 260.3278,2368.82096 C260.668,2369.37176 261.2566,2369.67596 261.8614,2369.67596 C262.1836,2369.67596 262.5112,2369.58956 262.8046,2369.40776 C263.6506,2368.88396 263.9134,2367.77516 263.3914,2366.92916 C262.9648,2366.23796 262.9,2365.82036 262.9,2365.63316 C262.9,2365.45316 262.9558,2365.22276 263.0584,2364.96536 C263.4328,2364.04556 262.99,2362.99616 262.0702,2362.62176 Z M276.3046,2385.62216 C275.4172,2385.17936 274.3498,2385.55196 273.907,2386.44116 C273.6316,2386.99016 273.6694,2387.61656 273.9484,2388.12056 C273.6424,2388.64256 273.6064,2389.30496 273.9106,2389.87916 C274.2346,2390.48756 274.8574,2390.83316 275.5018,2390.83316 C275.7862,2390.83316 276.076,2390.76476 276.346,2390.62256 C277.867,2389.81256 278.083,2388.70916 278.0758,2388.12416 C278.0596,2386.92536 277.1506,2386.04516 276.3046,2385.62216 Z M256.3912,2374.75736 C254.4328,2372.66576 252.1,2369.38616 252.1,2365.63316 C252.1,2363.39216 252.9388,2361.06296 254.5948,2358.70856 C255.1672,2357.89496 254.971,2356.77356 254.1592,2356.20116 C253.3456,2355.62876 252.2224,2355.82316 251.65,2356.63676 C249.5602,2359.61036 248.5,2362.63616 248.5,2365.63316 C248.5,2370.56156 251.362,2374.65296 253.7632,2377.21796 C254.1178,2377.59596 254.5984,2377.78676 255.0772,2377.78676 C255.5182,2377.78676 255.961,2377.62656 256.3084,2377.30076 C257.0338,2376.62216 257.0716,2375.48276 256.3912,2374.75736 Z M273.7,2331.44396 C273.691,2332.14956 272.935,2333.24396 272.3626,2333.82896 L270.0046,2336.44796 C269.3404,2337.18596 269.3998,2338.32356 270.1378,2338.98956 C270.4816,2339.29916 270.9136,2339.45216 271.342,2339.45216 C271.8352,2339.45216 272.3248,2339.25056 272.6812,2338.85636 L274.9726,2336.30576 C275.2102,2336.06816 277.3,2333.90816 277.3,2331.43316 C277.3,2330.18396 276.598,2329.00316 275.1544,2327.82596 C274.384,2327.19776 273.25,2327.31296 272.6218,2328.08156 C271.9936,2328.85196 272.1088,2329.98596 272.8774,2330.61416 C273.556,2331.16676 273.7036,2331.49076 273.7,2331.44396 Z M281.7046,2313.62216 C280.3726,2312.95616 278.1514,2312.47376 275.6116,2312.30096 C274.6414,2312.24696 273.7612,2312.98136 273.6928,2313.97316 C273.6244,2314.96496 274.3732,2315.82356 275.365,2315.89196 C277.6294,2316.04676 279.3718,2316.48056 280.0954,2316.84416 C283.069,2318.32916 288.1,2323.07576 288.1,2331.43316 C288.1,2339.44316 279.5446,2346.41096 279.4582,2346.48116 C278.6842,2347.10396 278.5582,2348.23616 279.1792,2349.01016 C279.5356,2349.45476 280.0576,2349.68516 280.585,2349.68516 C280.9792,2349.68516 281.377,2349.55556 281.7082,2349.29096 C282.115,2348.96516 291.7,2341.18736 291.7,2331.43316 C291.7,2321.31896 285.418,2315.47976 281.7046,2313.62216 Z M315.6202,2313.50876 C315.5536,2313.49076 315.4888,2313.47456 315.4222,2313.46196 L275.8222,2306.26196 C274.8394,2306.08916 273.907,2306.73536 273.7288,2307.71096 C273.5506,2308.68836 274.2004,2309.62616 275.1778,2309.80436 L314.6716,2316.98456 C315.9478,2317.39316 316.9,2318.17796 316.9,2318.83316 C316.9,2320.48556 316.4968,2321.28296 315.3736,2323.27916 L314.8822,2324.06396 L301.0204,2321.56196 C300.0376,2321.38196 299.1052,2322.03536 298.9288,2323.01276 C298.7524,2323.99196 299.4022,2324.92796 300.3796,2325.10436 L312.8284,2327.35076 L310.3282,2331.35396 L300.8494,2330.56736 C299.8594,2330.48276 298.9882,2331.22256 298.9054,2332.21256 C298.8244,2333.20256 299.5606,2334.07376 300.5506,2334.15476 L308.1808,2334.78656 L306.4348,2337.58376 C304.2874,2340.17756 301.2166,2340.50876 295.8688,2338.72496 C294.922,2338.40816 293.9068,2338.92296 293.5918,2339.86436 C293.2786,2340.80756 293.788,2341.82636 294.7312,2342.14136 C296.8228,2342.83796 299.161,2343.44996 301.4704,2343.44996 C304.2874,2343.44996 307.063,2342.53916 309.3022,2339.76176 C309.3472,2339.70776 309.3886,2339.64836 309.4264,2339.58716 L318.4678,2325.11696 C319.7656,2322.81656 320.5,2321.39096 320.5,2318.83316 C320.5,2316.49316 318.5848,2314.40516 315.6202,2313.50876 Z M237.1312,2338.72496 C231.787,2340.50876 228.7144,2340.17756 226.5652,2337.58376 L224.8192,2334.78836 L232.4494,2334.15476 C233.4394,2334.07376 234.1756,2333.20256 234.0946,2332.21256 C234.0118,2331.22256 233.1442,2330.48276 232.1506,2330.56736 L222.6718,2331.35396 L220.1698,2327.35076 L232.6204,2325.10436 C233.5978,2324.92796 234.2476,2323.99196 234.0712,2323.01276 C233.8948,2322.03536 232.966,2321.38196 231.9796,2321.56196 L218.116,2324.06396 L217.6678,2323.34936 C216.5032,2321.28296 216.1,2320.48556 216.1,2318.83316 C216.1,2318.17796 217.0522,2317.39316 218.3284,2316.98456 L257.8222,2309.80436 C258.7996,2309.62616 259.4494,2308.68836 259.2712,2307.71096 C259.093,2306.73356 258.1588,2306.08736 257.1778,2306.26196 L217.5778,2313.46196 C217.5112,2313.47456 217.4464,2313.49076 217.3798,2313.50876 C214.4152,2314.40516 212.5,2316.49316 212.5,2318.83316 C212.5,2321.39096 213.2344,2322.81656 214.5736,2325.18716 L223.5736,2339.58716 C223.6114,2339.64836 223.6528,2339.70776 223.6978,2339.76176 C225.937,2342.53916 228.7126,2343.44996 231.5296,2343.44996 C233.839,2343.44996 236.1772,2342.83796 238.2688,2342.14136 C239.212,2341.82636 239.7232,2340.80756 239.4082,2339.86436 C239.0932,2338.92296 238.078,2338.40816 237.1312,2338.72496 Z M261.154,2322.43316 C262.1494,2322.43316 262.954,2321.62676 262.954,2320.63316 C262.954,2319.63956 262.1494,2318.83316 261.154,2318.83316 L261.136,2318.83316 C260.1424,2318.83316 259.345,2319.63956 259.345,2320.63316 C259.345,2321.62676 260.1604,2322.43316 261.154,2322.43316 Z" id="Fill-1" fill="#2EB135" sketch:type="MSShapeGroup"></path>
        </g>
    </g>
</svg>