<?xml version="1.0" encoding="UTF-8" standalone="no"?>
<svg width="140px" height="140px" viewBox="0 0 140 140" version="1.1" xmlns="http://www.w3.org/2000/svg" xmlns:xlink="http://www.w3.org/1999/xlink" xmlns:sketch="http://www.bohemiancoding.com/sketch/ns">
    <!-- Generator: Sketch 3.3.2 (12043) - http://www.bohemiancoding.com/sketch -->
    <title>icon-section-questions</title>
    <desc>Created with Sketch.</desc>
    <defs></defs>
    <g id="Page-1" stroke="none" stroke-width="1" fill="none" fill-rule="evenodd" sketch:type="MSPage">
        <g id="Shape-+-Shape-Copy" sketch:type="MSLayerGroup" transform="translate(0.000000, -0.425473)">
            <circle id="Oval-17" fill="#FFFFFF" sketch:type="MSShapeGroup" cx="69.8327927" cy="70.0745269" r="68"></circle>
            <path d="M12.3327927,70.0745269 C12.3327927,101.829477 38.0766927,127.574527 69.8327927,127.574527 C101.588893,127.574527 127.332793,101.829477 127.332793,70.0745269 C127.332793,38.3172769 101.590043,12.5745269 69.8327927,12.5745269 C38.0766927,12.5745269 12.3327927,38.3184269 12.3327927,70.0745269 L12.3327927,70.0745269 Z M0.33279269,70.0745269 L0.33279269,70.0745269 C0.33279269,31.6910099 31.4492757,0.574526875 69.8327927,0.574526875 C108.21746,0.574526875 139.332793,31.6898599 139.332793,70.0745269 C139.332793,108.457254 108.21595,139.574527 69.8327927,139.574527 C31.4496358,139.574527 0.33279269,108.457254 0.33279269,70.0745269 L0.33279269,70.0745269 Z" id="Shape" fill="#3DB39E" sketch:type="MSShapeGroup"></path>
            <g id="Group-Copy-7" transform="translate(69.500000, 70.000000) rotate(-135.000000) translate(-69.500000, -70.000000) translate(55.000000, 29.000000)" fill="#3DB39E" sketch:type="MSShapeGroup">
                <path d="M8.71796206,12.1993525 L1.95385618,23.3267278 C4.3053306,24.1392493 6,26.3765671 6,29.0093184 L6,75.9906816 C6,79.3115801 3.3137085,82 1.8189894e-12,82 L2.27373675e-12,23 L2.422579e-12,23 C0.00551230807,23 0.0110229103,23.0000075 0.0165317972,23.0000224 L0.0165317972,23.0000224 C0.00575298784,22.8047251 0.0520273971,22.6042579 0.161660028,22.4246952 L13.0419844,1.3285496 C13.4298463,0.693286738 14.3509835,0.689260659 14.7443837,1.3211088 L27.851796,22.5761448 C27.9345943,22.7091288 27.9823675,22.8540096 27.9976241,23.0000005 C27.998416,23.0000002 27.999208,23 28,23 L28,23 L28,23.0260358 C28.0040531,23.0779694 28.0040155,23.1299624 28,23.1815299 L28,82 C24.6862915,82 22,79.3115801 22,75.9906816 L22,29.0093184 C22,26.4014406 23.6627991,24.1815597 25.9796724,23.3501379 L19.1368494,12.2369088 C17.9791451,12.5332082 15.8542073,13.0020857 14,13.0020857 C12.0653073,13.0020857 9.83587089,12.4916197 8.71796206,12.1993525 Z M8,29.0093184 C8,25.6904635 10.6930342,23 14,23 C17.3137085,23 20,25.6884199 20,29.0093184 L20,75.9906816 C20,79.3095365 17.3069658,82 14,82 C10.6862915,82 8,79.3115801 8,75.9906816 L8,29.0093184 Z" id="Rectangle-416"></path>
            </g>
        </g>
    </g>
</svg>