<?xml version="1.0" encoding="UTF-8" standalone="no"?>
<svg width="12px" height="12px" viewBox="0 0 12 12" version="1.1" xmlns="http://www.w3.org/2000/svg" xmlns:xlink="http://www.w3.org/1999/xlink" xmlns:sketch="http://www.bohemiancoding.com/sketch/ns">
    <!-- Generator: Sketch 3.3.2 (12043) - http://www.bohemiancoding.com/sketch -->
    <title>icon-link-external</title>
    <desc>Created with Sketch.</desc>
    <defs></defs>
    <g id="Page-1" stroke="none" stroke-width="1" fill="none" fill-rule="evenodd" sketch:type="MSPage">
        <g id="icon-link-external" sketch:type="MSLayerGroup" fill="#009FDF">
            <path d="M11.0684755,6.14341085 L9.11046512,4.18540052 L4.44702842,8.84883721 L3.14082687,7.54263566 L7.80103359,2.88113695 L5.84689922,0.921834625 L11.0684755,0.921834625 L11.0684755,6.14341085 L11.0684755,6.14341085 Z M6.38501292,2.77067183 L6.49677003,2.88242894 L1.83527132,7.54263566 L4.44573643,10.1531008 L9.10981912,5.49031008 L9.22803618,5.60788114 L9.2254522,11.0762274 L0.923126615,11.0755814 L0.923126615,2.77002584 L6.38501292,2.77002584 L6.38501292,2.77067183 L6.38501292,2.77067183 Z M11.99677,0.00258397933 L3.61886305,0 L5.46382429,1.84819121 L0,1.84819121 L0,11.999354 L10.1485788,12 L10.1511628,6.53165375 L11.997416,8.37726098 L11.997416,0.00258397933 L11.99677,0.00258397933 L11.99677,0.00258397933 Z" id="Shape-95" sketch:type="MSShapeGroup"></path>
        </g>
    </g>
</svg>