<svg xmlns="http://www.w3.org/2000/svg" width="792.65" height="181.34" viewBox="0 0 792.65 181.34">
  <title>
    logo-acp-tracker-w
  </title>
  <path d="M278.28 76.98l28-72.42h20.53v94.09h-13.17V19.96l-31.93 78.69h-8l-31.35-78.69v78.69h-12.55V4.56h20.53zm84.4-31.36l42.2-41.06h18.25l-45.62 42.78L426 98.65h-18.84l-43.91-49v48.47h-13.68V4.56h13.11zm120.9-24c-4.57-5.7-11.41-9.13-18.25-8.55-8.56 0-18.25 4.56-18.25 15.39s8.55 13.12 19.39 16.54c12.54 4 27.37 8.55 27.37 27.37s-16 28.51-32.5 28.51c-12 0-23.39-4.56-30.8-13.68l10.27-8.56c4.56 6.85 12.54 11.41 21.1 10.84 8.55 0 18.81-5.13 18.81-16s-10.26-14.14-22.24-18.14S434 46.19 434 29.08c0-18.82 16.54-26.8 32.51-26.8 10.26 0 20 3.42 26.8 10.84zm33.07 77h-14.83l40.49-94.09h12l40.48 94.09H580l-9.7-22.81h-44.53zm13.69-34.78h35.35l-17.11-43.88zm76.41-59.31h28.51c20.53 0 33.65 8 33.65 26.23s-14.83 26.8-34.22 26.8h-14.82v41.63h-13.12zm13.12 41.63h13.68c13.12 0 21.67-4.56 21.67-15.4s-9.12-14.82-21.67-14.82H619.3zM192.18 0h9.12v181.34h-9.12zM26.23 38.78h9.13L61 98.65H49l-5.7-13.68H17.11l-5.7 13.68H0zm13.12 37.06l-9.13-24.5-9.12 24.5zm67.29-23.38A18.23 18.23 0 0 0 93 46.19a20.45 20.45 0 0 0-20.58 20.53v1.14c0 13.12 8 22.24 20.53 22.24a17.31 17.31 0 0 0 14.26-6.84l8.55 6.27a28.15 28.15 0 0 1-23.38 10.26c-16.54.55-31.38-11.97-31.93-29.08v-2.85A30.53 30.53 0 0 1 90.1 36.5H93a27 27 0 0 1 21.67 9.12zM122 38.78h19.39c13.69 0 22.81 5.13 22.81 17.1s-10.8 17.68-23.35 17.68h-8.55v24.52h-10.84v-59.3zm17.68 26.23c6.85 0 13.12-1.71 13.12-8.56s-6.27-8.55-13.12-8.55h-8v17.11z" fill="#fff"/>
  <circle cx="674.32" cy="11.1" r="5.56" fill="none" stroke="#fff" stroke-miterlimit="10" stroke-width=".5"/>
  <text transform="translate(671.47 14.32)" font-size="9.53" fill="#fff" font-family="OpenSans-Bold, Open Sans" font-weight="700">
    R
  </text>
  <g data-name="18" fill="#fff">
    <path d="M774 48.9c6.85-1.71 12.55-7.41 12.55-14.83 0-10.83-10.83-16-21.1-16-12.54 0-23.95 6.27-23.95 17.67 0 8 5.13 15.4 12.55 18.82-8 1.14-14.26 8-15.4 16a22.87 22.87 0 0 0 1.71 8.55c-3.42-.57-6.27-1.14-6.27-3.42v-57h-3.42l-24 10.83 1.72 4 9.12-2.28v45.6c0 2.85-4 3.42-9.12 3.42v3.43h35.92a34.32 34.32 0 0 0 21.1 5.13c10.41 0 21.54-1.8 25.69-11.66 1.08-2.56.54-4.32.54-8.09-.23-2 .33-5.08-.51-6.7C787.81 56 780.35 52.09 774 48.9zm-8.55-25.09c2.85 0 6.84 1.71 6.84 9.69a23 23 0 0 1-3.42 12.55c-5.7-2.85-10.26-6.84-10.26-13.12a8.19 8.19 0 0 1 6.84-9.12zm-.57 59.31c-4.56 0-9.12-4-9.12-12.55a21.13 21.13 0 0 1 3.42-12C766 62.59 774 66.01 774 73.42c.54 4.56-3.45 9.13-9.15 9.7z"/>
    <path d="M781.82 99.22h-73A10.82 10.82 0 0 1 698 88.39v-73a10.83 10.83 0 0 1 10.84-10.84h73a10.82 10.82 0 0 1 10.83 10.84v73.57c-.02 5.7-5.15 10.26-10.85 10.26zM708.25 7.41a7.79 7.79 0 0 0-8 8v73.55a7.79 7.79 0 0 0 8 8h73a7.79 7.79 0 0 0 8-8V15.4a7.79 7.79 0 0 0-8-8z"/>
  </g>
  <path d="M250.91 178.49h-5.7v-45.62h-16.54v-5.13h38.21v5.13h-16zm45.62-38.78a12.55 12.55 0 0 1 4.56.57l-.57 5.13a9.7 9.7 0 0 0-4-.57c-2.85 0-6.27 1.14-8 4-2.28 2.85-3.42 5.7-2.85 9.12v20.53H280v-38.21h4.57l.57 6.84a16.17 16.17 0 0 1 5.13-5.7 11.49 11.49 0 0 1 6.26-1.71zM337 178.49l-1.14-5.7c-1.71 2.28-3.42 4-5.7 4.56a14.5 14.5 0 0 1-6.85 1.14 17.22 17.22 0 0 1-9.12-2.85 11.61 11.61 0 0 1-3.42-8.56c0-8 6.27-12 18.25-12h6.27v-2.28a15.25 15.25 0 0 0-1.71-6.85 8.57 8.57 0 0 0-6.27-2.28 23.58 23.58 0 0 0-10.84 2.85l-1.71-4a20.42 20.42 0 0 1 6.27-2.28 27.79 27.79 0 0 1 6.85-.57c3.42 0 7.41.57 10.26 2.85a15.51 15.51 0 0 1 3.42 9.7v26.23zm-13.12-4a11.61 11.61 0 0 0 8.56-3.42 9.44 9.44 0 0 0 2.85-8.56v-2.85h-5.7a22.4 22.4 0 0 0-10.27 2.28 7 7 0 0 0-2.85 5.7 6.5 6.5 0 0 0 1.71 4.57c1.73 1.13 4.01 2.29 5.72 2.29zm50.19 4.56a14.92 14.92 0 0 1-12.55-5.13 18.8 18.8 0 0 1-4.52-14.25 20.13 20.13 0 0 1 4.56-14.83c3.42-3.42 8-5.7 13.12-5.13a19.39 19.39 0 0 1 5.7.57c1.71.57 2.85.57 4.56 1.14l-1.71 5.13a10.57 10.57 0 0 0-4-1.14 9.7 9.7 0 0 0-4-.57c-7.42 0-11.41 5.14-11.41 14.83 0 4 .57 7.41 2.85 10.84a10.27 10.27 0 0 0 8.56 4 18.73 18.73 0 0 0 9.69-2.28v5.11a38.73 38.73 0 0 1-10.83 1.72zm29.65-20a39.93 39.93 0 0 1 4.56-5.7l12.55-13.12h6.84l-15.4 16.54 16.54 22.24h-7.41l-13.69-18.25-4.56 4v14.26h-5.7v-54.14h5.7v28.52c.59.57.59 2.85.59 5.7zm53 20a18.06 18.06 0 0 1-13.11-5.13 22 22 0 0 1-5.14-14.26 24 24 0 0 1 4.57-14.83 15.94 15.94 0 0 1 23.38-1.14 16.71 16.71 0 0 1 4 12.55v3.42H444.8a17.08 17.08 0 0 0 3.42 10.26 12.91 12.91 0 0 0 9.12 3.43 28.45 28.45 0 0 0 12-2.85v6.27c-1.71.57-4 1.71-5.7 1.71a27.83 27.83 0 0 1-6.87.58zm-1.71-34.79a10.84 10.84 0 0 0-7.41 2.85 20.09 20.09 0 0 0-3.42 8h20a16.14 16.14 0 0 0-2.28-8.56 10.87 10.87 0 0 0-6.84-2.28zm48.47-4.56a12.6 12.6 0 0 1 4.57.57l-.57 5.13a9.75 9.75 0 0 0-4-.57c-2.85 0-6.27 1.14-8 4a14 14 0 0 0-3.42 9.12v20.53h-5.7v-38.2H491l.57 6.84a16.17 16.17 0 0 1 5.13-5.7 15.18 15.18 0 0 1 6.83-1.71z" fill="#fff"/>
</svg>
