<svg version="1.1" xmlns="http://www.w3.org/2000/svg" viewBox="0 0 139 31.84">
	<title>logo-acp-tracker18-w</title>
	<g id="mksap"><path d="M49.76,14.45h.05L54.68,1.78h3.59V18.27H56V4.48h0L50.44,18.27H49L43.52,4.48h-.05V18.27H41.24V1.78h3.59Z" transform="translate(-1 -0.99)" fill="#fff"/><path d="M64.58,9h0L72,1.78h3.19l-8,7.54,8.51,9H72.36L64.62,9.74h0v8.53H62.27V1.78h2.31Z" transform="translate(-1 -0.99)" fill="#fff"/><path d="M85.82,4.83a3.94,3.94,0,0,0-3.21-1.54c-1.49,0-3.22.81-3.22,2.68s1.52,2.28,3.38,2.89c2.21.7,4.85,1.53,4.85,4.82s-2.78,5-5.71,5a7,7,0,0,1-5.43-2.4l1.8-1.52A4.46,4.46,0,0,0,82,16.71c1.53,0,3.3-.86,3.3-2.82s-1.81-2.54-3.91-3.19-4.29-1.61-4.29-4.64c0-3.28,2.94-4.7,5.66-4.7a6.44,6.44,0,0,1,4.73,1.88Z" transform="translate(-1 -0.99)" fill="#fff"/><path d="M91.55,18.27H89L96.14,1.78h2.1l7.08,16.49h-2.61l-1.68-4H93.21ZM94,12.19h6.17L97.12,4.45Z" transform="translate(-1 -0.99)" fill="#fff"/><path d="M107.44,1.78h5c3.56,0,5.89,1.37,5.89,4.58s-2.58,4.66-6,4.66h-2.61v7.25h-2.3Zm2.3,7.29h2.45c2.26,0,3.84-.75,3.84-2.71s-1.63-2.63-3.79-2.63h-2.5Z" transform="translate(-1 -0.99)" fill="#fff"/></g><rect id="divider" x="33.71" width="1.59" height="31.84" fill="#fff"/><g id="acp"><path d="M5.57,7.78H7.18l4.53,10.5H9.57l-1-2.4H4l-1,2.4H1Zm2.37,6.5L6.32,10,4.68,14.28Z" transform="translate(-1 -0.99)" fill="#fff"/><path d="M19.68,10.24a3,3,0,0,0-2.39-1.08A3.62,3.62,0,0,0,13.66,13c0,2.29,1.39,3.87,3.56,3.87a3.09,3.09,0,0,0,2.55-1.21l1.5,1.05a5,5,0,0,1-4.07,1.84A5.34,5.34,0,0,1,11.6,13a5.34,5.34,0,0,1,5.69-5.48,4.92,4.92,0,0,1,3.82,1.6Z" transform="translate(-1 -0.99)" fill="#fff"/><path d="M22.35,7.78h3.42c2.4,0,4,.85,4,3s-1.85,3.12-4.08,3.12H24.21v4.34H22.35Zm3.17,4.58c1.22,0,2.33-.29,2.33-1.54s-1.11-1.47-2.27-1.47H24.21v3Z" transform="translate(-1 -0.99)" fill="#fff"/></g><g id="registered"><path d="M120.3,2.77a1,1,0,0,1-1.06,1.06,1.05,1.05,0,1,1,0-2.1A1,1,0,0,1,120.3,2.77Zm-1.87,0a.81.81,0,1,0,1.61,0,.81.81,0,1,0-1.61,0Zm.64.55h-.24v-1a2.1,2.1,0,0,1,.4,0,.67.67,0,0,1,.36.07.29.29,0,0,1,.1.23.25.25,0,0,1-.21.24v0a.29.29,0,0,1,.19.25,1,1,0,0,0,.07.26h-.26a.9.9,0,0,1-.08-.25c0-.12-.08-.17-.22-.17h-.11Zm0-.59h.11c.13,0,.24,0,.24-.15s-.07-.16-.22-.16h-.13Z" transform="translate(-1 -0.99)" fill="#fff"/></g><g id="_18" data-name="18"><path d="M136.87,9.36a2.8,2.8,0,0,0,2.22-2.59c0-1.9-1.85-2.75-3.69-2.75-2.24,0-4.25,1.15-4.25,3.14a3.76,3.76,0,0,0,2.19,3.33,3.17,3.17,0,0,0-2.67,2.84,3,3,0,0,0,.33,1.48c-.63-.08-1.1-.2-1.1-.59v-10h-.63L125.05,6l.31.68,1.56-.44v8c0,.49-.73.56-1.63.65v.61h6.27a5.73,5.73,0,0,0,3.69.92c2.33,0,4.75-.51,4.75-3.73C140,11,138.33,10.08,136.87,9.36ZM135.41,5c.52,0,1.19.26,1.19,1.7A4.65,4.65,0,0,1,136,8.94c-1-.54-1.81-1.17-1.81-2.3A1.47,1.47,0,0,1,135.41,5Zm-.14,10.38c-.84,0-1.56-.66-1.56-2.23a4.28,4.28,0,0,1,.56-2.15c1.24.69,2.63,1.33,2.63,2.61A1.68,1.68,0,0,1,135.27,15.4Z" transform="translate(-1 -0.99)" fill="#fff"/><path d="M138.09,18.42H125.24a1.9,1.9,0,0,1-1.91-1.9V3.66a1.91,1.91,0,0,1,1.91-1.91h12.85A1.92,1.92,0,0,1,140,3.66V16.52A1.91,1.91,0,0,1,138.09,18.42ZM125.24,2.28a1.38,1.38,0,0,0-1.38,1.38V16.52a1.38,1.38,0,0,0,1.38,1.37h12.85a1.38,1.38,0,0,0,1.38-1.37V3.66a1.38,1.38,0,0,0-1.38-1.38Z" transform="translate(-1 -0.99)" fill="#fff"/></g><g id="tracker"><path d="M45,32.28h-1v-8H41.11v-.92h6.7v.92H45Z" transform="translate(-1 -0.99)" fill="#fff"/><path d="M53,25.46a3.84,3.84,0,0,1,.8.07l-.14.94a3.45,3.45,0,0,0-.73-.09,1.78,1.78,0,0,0-1.39.66A2.38,2.38,0,0,0,51,28.68v3.6h-1v-6.7h.83l.12,1.24h0a3,3,0,0,1,.9-1A2,2,0,0,1,53,25.46Z" transform="translate(-1 -0.99)" fill="#fff"/><path d="M60.1,32.28l-.2-1h0a2.63,2.63,0,0,1-1,.85,3,3,0,0,1-1.24.23,2.21,2.21,0,0,1-1.56-.52,1.85,1.85,0,0,1-.57-1.46c0-1.35,1.08-2.06,3.25-2.12l1.13,0v-.41a1.74,1.74,0,0,0-.33-1.17,1.41,1.41,0,0,0-1.09-.37,4.4,4.4,0,0,0-1.89.51L56.24,26a4.5,4.5,0,0,1,1.08-.42,4.77,4.77,0,0,1,1.18-.15,2.59,2.59,0,0,1,1.78.53,2.22,2.22,0,0,1,.57,1.7v4.58Zm-2.29-.72A2,2,0,0,0,59.3,31a1.92,1.92,0,0,0,.54-1.45V29l-1,0a3.75,3.75,0,0,0-1.75.38,1.15,1.15,0,0,0-.53,1,1,1,0,0,0,.33.83A1.38,1.38,0,0,0,57.81,31.56Z" transform="translate(-1 -0.99)" fill="#fff"/><path d="M66.56,32.4a2.84,2.84,0,0,1-2.25-.9,3.67,3.67,0,0,1-.8-2.53,3.8,3.8,0,0,1,.81-2.6,2.92,2.92,0,0,1,2.31-.91,4.47,4.47,0,0,1,1,.1,3.42,3.42,0,0,1,.76.24l-.31.87a5.19,5.19,0,0,0-.73-.23,3.28,3.28,0,0,0-.71-.09q-2,0-2,2.61a3.1,3.1,0,0,0,.5,1.89,1.73,1.73,0,0,0,1.48.66,4.49,4.49,0,0,0,1.71-.36v.9A3.68,3.68,0,0,1,66.56,32.4Z" transform="translate(-1 -0.99)" fill="#fff"/><path d="M71.78,28.85a11.75,11.75,0,0,1,.8-1l2.17-2.29H76l-2.71,2.85,2.9,3.85H74.91l-2.36-3.17-.77.66v2.51h-1V22.77h1v5c0,.22,0,.57,0,1Z" transform="translate(-1 -0.99)" fill="#fff"/><path d="M81.12,32.4a3.08,3.08,0,0,1-2.35-.91A3.51,3.51,0,0,1,77.91,29a3.87,3.87,0,0,1,.8-2.57,2.64,2.64,0,0,1,2.14-.95,2.54,2.54,0,0,1,2,.82,3.23,3.23,0,0,1,.73,2.19v.64H79a2.63,2.63,0,0,0,.59,1.79,2.06,2.06,0,0,0,1.59.61,5.41,5.41,0,0,0,2.14-.45V32a5.3,5.3,0,0,1-1,.34A6.23,6.23,0,0,1,81.12,32.4Zm-.28-6.09a1.64,1.64,0,0,0-1.28.52A2.45,2.45,0,0,0,79,28.28h3.5a2.19,2.19,0,0,0-.43-1.46A1.49,1.49,0,0,0,80.84,26.31Z" transform="translate(-1 -0.99)" fill="#fff"/><path d="M89.3,25.46a3.84,3.84,0,0,1,.8.07l-.14.94a3.45,3.45,0,0,0-.73-.09,1.78,1.78,0,0,0-1.39.66,2.38,2.38,0,0,0-.58,1.64v3.6h-1v-6.7h.83l.12,1.24h0a3,3,0,0,1,.9-1A2,2,0,0,1,89.3,25.46Z" transform="translate(-1 -0.99)" fill="#fff"/></g>
</svg>
