<!-- Generated by IcoMoon.io -->
<svg version="1.1" xmlns="http://www.w3.org/2000/svg" width="32" height="32" viewBox="0 0 32 32">
<title>stethoscope</title>
<path d="M27.26 12.086c0 0.684-0.566 1.249-1.249 1.249s-1.249-0.567-1.249-1.249c0-0.684 0.566-1.249 1.249-1.249s1.249 0.567 1.249 1.249zM29.759 12.086c0-2.070-1.678-3.75-3.748-3.75s-3.748 1.68-3.748 3.75c0 1.641 1.035 3.007 2.499 3.535v7.714c0 2.754-2.811 4.999-6.247 4.999s-6.247-2.245-6.247-4.999v-2.578c4.236-0.528 7.497-3.652 7.497-7.422v-10c0-0.684-0.566-1.249-1.249-1.249-0.117 0-0.214 0.019-0.312 0.039-0.429-0.762-1.249-1.288-2.187-1.288-1.386 0-2.499 1.113-2.499 2.5s1.113 2.5 2.499 2.5c0.448 0 0.879-0.137 1.249-0.351v7.851c0 2.754-2.811 4.999-6.247 4.999s-6.247-2.245-6.247-4.999v-7.851c0.37 0.214 0.801 0.351 1.249 0.351 1.386 0 2.499-1.113 2.499-2.5s-1.113-2.5-2.499-2.5c-0.937 0-1.756 0.528-2.187 1.288-0.098-0.019-0.195-0.039-0.312-0.039-0.684 0-1.249 0.567-1.249 1.249v10c0 3.769 3.261 6.894 7.497 7.422v2.578c0 4.14 3.924 7.5 8.746 7.5s8.746-3.36 8.746-7.5v-7.714c1.464-0.528 2.499-1.895 2.499-3.535z"></path>
</svg>
