<svg data-name="Layer 1" xmlns="http://www.w3.org/2000/svg" viewBox="0 0 574.4 573.41"><path d="M430.6 311.15a81.62 81.62 0 00-95.6-14.57l.11-.12-120.34-120.34v-62.89a22.21 22.21 0 00-9-17.83L83.35 4.39a22.21 22.21 0 00-29 2.12L6.74 54.16a22.22 22.22 0 00-2 29.18L97 204.4a22.23 22.23 0 0017.67 8.75h63.06l120.35 120.34.12-.11A81.6 81.6 0 00312.77 429l137.49 137.47a22.21 22.21 0 0031.42 0l86.41-86.41a22.21 22.21 0 000-31.42z"/><path d="M350.6 257l-.12.11a79.36 79.36 0 0192.95 14.17l36.47 36.47a161.18 161.18 0 0084.54-203.15 7.21 7.21 0 00-11.85-2.6l-89.84 89.84a21.59 21.59 0 01-18.77 6l-50.41-8.27a21.6 21.6 0 01-17.95-18.68l-5.79-47.16a21.58 21.58 0 016.17-17.86l87.06-87.07a7.2 7.2 0 00-3-12A161.09 161.09 0 00252.62 159zM271.21 359.39l-.11.11-78.17-78.16A739841.5 739841.5 0 0120.14 454.05a69.6 69.6 0 000 98.47 69.55 69.55 0 0098.36 0L263 408a79.43 79.43 0 018.21-48.61zM80.1 519.5a27 27 0 1127-27 27 27 0 01-27 27z"/></svg>