<svg xmlns="http://www.w3.org/2000/svg" id="topmatch" viewBox="0 0 129.32 44.04">
<title>top match</title>
  <path fill="#c5edf9" d="M19.4 5.68L4.72 22.02 19.4 38.36h105.2V5.68H19.4z"/>
  <circle cx="38.18" cy="19.36" r="3.54" class="st1"/>
  <path d="M42.58 23.5a6.026 6.026 0 0 0-4.4-10.14c-3.33 0-6.02 2.68-6.02 6.02 0 1.53.57 3 1.62 4.12l-1.88 5.73 2.89-1.3 1.56 2.74 1.75-5.26h.18l1.75 5.26 1.56-2.74 2.89 1.3c0 .01-1.9-5.73-1.9-5.73zm-8.73-4.14c0-2.4 1.93-4.32 4.32-4.32 2.4 0 4.32 1.93 4.32 4.32s-1.93 4.32-4.32 4.32a4.3 4.3 0 0 1-4.32-4.28v-.04z" class="st1"/>
  <path fill="none" d="M52.92 16.08h59.18v11.88H52.92z"/>
</svg>
